<svg width="72" height="52" viewBox="0 0 72 52" fill="none" xmlns="http://www.w3.org/2000/svg">
<g clip-path="url(#clip0_1148_25309)">
<path d="M51.7667 57.0753C51.7956 56.9351 51.9655 55.2185 51.4169 46.2687C50.8687 37.3189 47.8904 33.8903 47.8904 33.8903L25.9071 33.4767C25.9071 33.4767 23.8196 49.9633 23.8381 55.146L23.8165 55.1357C23.8165 55.1357 23.6306 58.9968 28.0624 59.7917C32.4937 60.5866 47.4906 59.7917 47.4906 59.7917C47.4906 59.7917 51.6683 59.6287 51.7667 57.0753Z" fill="#C1B092"/>
<path d="M51.0497 56.9468C51.0432 56.9805 51.0398 57.0137 51.0389 57.0473C50.969 58.8658 47.4961 59.0624 47.4616 59.0637C47.3852 59.0676 40.7395 59.4161 35.0686 59.4161C31.7695 59.4161 29.4559 59.3014 28.1908 59.0745C24.8887 58.4823 24.5721 55.9695 24.5462 55.3178C24.5596 55.2613 24.5673 55.203 24.5669 55.1435C24.5505 50.6475 26.1649 37.3202 26.5488 34.2182L47.5207 34.6124C48.1521 35.5238 50.2453 39.0541 50.6896 46.3132C51.2352 55.2194 51.0592 56.8657 51.0497 56.9468ZM35.0686 60.8735C40.7788 60.8735 47.4624 60.5229 47.5293 60.5194C49.3132 60.4496 52.3704 59.6572 52.4937 57.1362C52.5429 56.7264 52.6654 54.729 52.1444 46.2243C51.5871 37.1322 48.5688 33.56 48.4407 33.4125C48.3052 33.2568 48.1103 33.1658 47.9037 33.1615L25.9204 32.7483H25.9066C25.54 32.7483 25.2303 33.0205 25.1837 33.3853C25.0996 34.0526 23.138 49.6037 23.1095 54.9611C23.0978 55.0063 23.0914 55.0529 23.0888 55.1008C23.0137 56.6574 23.9299 59.7909 27.9333 60.5091C29.2829 60.751 31.6836 60.8735 35.0686 60.8735Z" fill="#1D1D1D"/>
<path d="M64.8679 16.1867C64.8679 16.1867 68.224 12.6491 69.8142 14.5598C71.4459 16.5201 66.2369 19.3931 66.2369 19.3931C66.2369 19.3931 70.5203 16.4541 71.2721 18.3192C71.9363 19.9698 67.0378 22.575 67.0378 22.575" fill="#D9B579"/>
<path d="M67.0388 23.2373C67.1436 23.2373 67.2497 23.2123 67.3489 23.1592C67.4011 23.1321 68.6325 22.4739 69.8018 21.5957C71.6116 20.2358 72.2935 19.0833 71.8859 18.0719C71.6957 17.5987 71.3381 17.2705 70.8529 17.1238C70.6411 17.06 70.4104 17.0346 70.1658 17.041C70.46 16.6364 70.6756 16.2129 70.7558 15.7859C70.8697 15.1829 70.72 14.6123 70.3232 14.1357C69.9036 13.631 69.3394 13.3533 68.6916 13.3321C66.7752 13.2705 64.6264 15.4792 64.387 15.7311C64.1356 15.9964 64.1464 16.4156 64.4116 16.6679C64.6773 16.9198 65.0965 16.9082 65.348 16.6429C66.0955 15.8575 67.6542 14.6218 68.6489 14.6563C68.9219 14.6653 69.1242 14.7658 69.3049 14.9832C69.4498 15.1575 69.4947 15.324 69.4541 15.5396C69.3027 16.3432 68.1002 17.3891 66.9758 18.1564C66.4466 18.454 66.0377 18.7262 65.8617 18.8469C65.571 19.0466 65.4873 19.44 65.6728 19.7411C65.8587 20.0421 66.2469 20.1439 66.5565 19.9735C66.679 19.9054 67.1043 19.666 67.6404 19.3063C68.695 18.7193 69.9053 18.2215 70.4699 18.3923C70.5682 18.4221 70.6174 18.4674 70.6575 18.5666C70.8839 19.1299 68.9736 20.7935 66.7265 21.9895C66.4039 22.1616 66.2814 22.5632 66.4535 22.8858C66.5725 23.1096 66.8015 23.2373 67.0388 23.2373Z" fill="#1D1D1D"/>
<path d="M60.7922 19.0357C60.7922 19.0357 61.9749 16.4319 64.8677 16.1869L67.9801 22.2076C67.9801 22.2076 66.2307 23.6133 65.1865 24.4932" fill="#C1B092"/>
<path d="M65.1866 25.1555C65.338 25.1555 65.489 25.1051 65.6128 25.0002C66.6397 24.135 68.3771 22.7384 68.3948 22.7242C68.6406 22.5266 68.7131 22.1838 68.5686 21.9038L65.4562 15.8827C65.3329 15.6446 65.0784 15.504 64.8118 15.5268C61.5696 15.8016 60.2438 18.6409 60.1894 18.7621C60.0376 19.0947 60.1851 19.4876 60.5181 19.639C60.8502 19.7904 61.2423 19.6437 61.3945 19.3116C61.4381 19.218 62.3516 17.3086 64.4935 16.9053L67.1431 22.0319C66.5565 22.5055 65.4842 23.3759 64.7596 23.9867C64.4793 24.2222 64.4439 24.6405 64.6798 24.92C64.8105 25.0753 64.9982 25.1555 65.1866 25.1555Z" fill="#1D1D1D"/>
<path d="M61.2508 18.1828C61.2508 18.1828 62.6065 14.7081 64.5142 14.6827C65.95 14.6633 64.735 17.1446 64.735 17.1446C64.735 17.1446 62.1105 18.4804 61.2508 18.1828Z" fill="#D9B579"/>
<path d="M64.2302 16.6556C63.7023 16.9118 62.966 17.2253 62.3557 17.4086C62.8772 16.4692 63.6923 15.356 64.5235 15.3448C64.5356 15.3448 64.542 15.3452 64.5498 15.3452C64.5895 15.5704 64.448 16.1457 64.2302 16.6556ZM61.5586 18.8889C62.7357 18.8885 64.8038 17.8529 65.0355 17.7351C65.1636 17.67 65.2666 17.5648 65.33 17.4358C65.547 16.9933 66.2121 15.4794 65.6626 14.5986C65.5276 14.3821 65.2015 14.0202 64.5308 14.0202H64.5054C62.2172 14.0508 60.7892 17.5441 60.6339 17.9413C60.5683 18.1095 60.5735 18.2972 60.6494 18.4606C60.7249 18.6237 60.8638 18.7492 61.0341 18.8083C61.189 18.8622 61.3606 18.8889 61.5586 18.8889Z" fill="#1D1D1D"/>
<path d="M7.13257 18.5295C7.13257 18.5295 3.77564 14.9914 2.18581 16.9026C0.553708 18.8629 5.76314 21.7363 5.76314 21.7363C5.76314 21.7363 1.47931 18.7969 0.72796 20.6619C0.0641649 22.3126 4.96219 24.9177 4.96219 24.9177" fill="#D9B579"/>
<path d="M4.9613 25.5801C5.19853 25.5801 5.42799 25.4524 5.54617 25.2286C5.7187 24.9059 5.59663 24.5048 5.27358 24.3323C3.02685 23.1362 1.11656 21.4727 1.343 20.9094C1.38268 20.8102 1.43142 20.7649 1.53062 20.7351C2.09478 20.5652 3.30462 21.062 4.35919 21.6491C4.89574 22.0088 5.32059 22.2477 5.44308 22.3163C5.75277 22.4867 6.14138 22.3845 6.32685 22.0838C6.51275 21.7828 6.4295 21.3894 6.13837 21.1897C5.96239 21.0689 5.55307 20.7968 5.02385 20.4992C3.89984 19.7319 2.6969 18.6859 2.54551 17.882C2.50539 17.6667 2.54982 17.5002 2.69474 17.326C2.87589 17.1086 3.07861 17.0077 3.35207 16.9986C4.47349 16.9676 6.15217 18.4586 6.65206 18.9857C6.90352 19.251 7.32319 19.2622 7.58845 19.0107C7.85371 18.7584 7.86449 18.3391 7.6126 18.0739C7.37409 17.822 5.21966 15.6171 3.30893 15.6749C2.6611 15.6956 2.09651 15.9738 1.67684 16.4785C1.28002 16.9551 1.13036 17.5257 1.24423 18.1287C1.32445 18.5557 1.54011 18.9792 1.8334 19.3838C1.58971 19.3773 1.35896 19.4028 1.14718 19.4666C0.661517 19.6133 0.304388 19.9415 0.114177 20.4146C-0.293416 21.4261 0.388063 22.5786 2.1983 23.9385C3.36759 24.8166 4.599 25.4744 4.65076 25.502C4.74996 25.5551 4.85649 25.5801 4.9613 25.5801Z" fill="#1D1D1D"/>
<path d="M11.2073 21.3785C11.2073 21.3785 10.025 18.7746 7.13263 18.5297L3.89949 24.5038C3.89949 24.5038 5.76925 25.9561 6.81303 26.8359" fill="#C1B092"/>
<path d="M6.81334 27.4983C7.00182 27.4983 7.18901 27.4181 7.32013 27.2628C7.55606 26.9829 7.51983 26.5649 7.23991 26.3294C6.49934 25.7053 5.36843 24.8129 4.74906 24.3264L7.4974 19.2468C9.6721 19.654 10.5951 21.6311 10.605 21.6522C10.7556 21.9856 11.1485 22.1336 11.4815 21.9818C11.8149 21.8304 11.9624 21.4374 11.811 21.1045C11.7558 20.9837 10.4308 18.1443 7.18815 17.8696C6.92548 17.8476 6.67532 17.9826 6.54937 18.2146L3.31709 24.1888C3.16268 24.4739 3.23687 24.8289 3.49307 25.0273C3.51204 25.0419 5.36455 26.4812 6.38676 27.343C6.51098 27.4474 6.66238 27.4983 6.81334 27.4983Z" fill="#1D1D1D"/>
<path d="M13.4111 23.1112C13.4111 23.1112 11.5729 21.3268 10.8871 21.0003C10.8871 21.0003 7.9317 22.9671 6.19004 26.4289L8.46437 28.3452" fill="#DB2E34"/>
<path d="M8.46446 29.0073C8.65295 29.0073 8.84057 28.9275 8.97169 28.7718C9.20719 28.4919 9.17182 28.0744 8.89146 27.8385L7.02602 26.2667C8.32256 23.9398 10.1647 22.3771 10.9165 21.8C11.4556 22.1951 12.3588 23.0138 12.9497 23.587C13.212 23.8415 13.6312 23.8354 13.8861 23.5727C14.141 23.3105 14.135 22.8908 13.8723 22.6364C13.5527 22.3254 11.918 20.7575 11.1723 20.4021C10.9618 20.3021 10.7146 20.3198 10.5205 20.4487C10.3942 20.5337 7.39782 22.554 5.59794 26.1309C5.46035 26.4052 5.5285 26.7377 5.76356 26.9357L8.03832 28.8516C8.16211 28.9564 8.3135 29.0073 8.46446 29.0073Z" fill="#1D1D1D"/>
<path d="M58.3678 21.386C58.3678 21.386 60.203 19.2592 60.8595 18.8792C60.8595 18.8792 64.9479 19.8341 66.1914 23.7526L64.354 25.948" fill="#DB2E34"/>
<path d="M64.3535 26.6106C64.5424 26.6106 64.7305 26.5299 64.8616 26.3734L66.6994 24.178C66.8448 24.0046 66.8914 23.7687 66.8232 23.5526C65.481 19.3231 61.192 18.2763 61.0099 18.2336C60.846 18.1952 60.6731 18.2211 60.5273 18.3056C59.8104 18.721 58.1848 20.5838 57.8661 20.953C57.6276 21.2299 57.6586 21.6483 57.9351 21.8873C58.212 22.1266 58.6308 22.0956 58.8693 21.8187C59.4986 21.0898 60.4768 20.0309 60.9841 19.6056C61.8333 19.8834 64.4147 20.9297 65.4421 23.616L63.8454 25.5232C63.6108 25.8036 63.6483 26.2215 63.9287 26.4566C64.0524 26.5601 64.2034 26.6106 64.3535 26.6106Z" fill="#1D1D1D"/>
<path d="M46.6182 33.6807C46.6182 33.6807 54.1097 21.1303 58.3677 21.386C62.1814 21.6142 64.005 24.3371 64.4932 27.2394C64.9824 30.1426 56.0701 39.199 51.4942 41.8274" fill="white"/>
<path d="M51.4945 42.4897C51.6062 42.4897 51.7192 42.4613 51.8241 42.4013C54.0949 41.097 57.5329 38.1572 60.3788 35.0866C62.7368 32.5423 65.4782 29.0965 65.147 27.1293C64.5078 23.3337 61.9884 20.9395 58.4077 20.7247C56.3839 20.6035 53.7533 22.666 50.3722 27.0318C47.9707 30.1334 46.0677 33.3092 46.0492 33.3411C45.8615 33.6555 45.9642 34.0618 46.2782 34.2499C46.5926 34.4375 46.9994 34.3344 47.187 34.02C50.0048 29.3018 55.5234 21.8737 58.3287 22.0471C62.5401 22.2999 63.5856 25.8392 63.8401 27.3493C63.9755 28.1511 62.8951 30.4224 59.407 34.1861C56.6436 37.1682 53.3306 40.008 51.1637 41.2527C50.8467 41.4347 50.7371 41.8393 50.9196 42.1572C51.0416 42.3703 51.2651 42.4897 51.4945 42.4897Z" fill="#1D1D1D"/>
<path d="M35.2284 38.209C35.2284 38.209 35.1814 49.2032 33.8137 54.8561C33.8137 54.8561 32.4464 56.8043 27.7429 55.9378C23.039 55.0713 20.5072 53.5828 20.9449 50.4088C21.3827 47.2347 22.458 39.308 26.4136 33.0362L35.2284 38.209Z" fill="#DB2E34"/>
<path d="M33.2075 54.5442C32.9629 54.7892 32.0761 55.4975 29.9903 55.4975C29.3386 55.4975 28.6234 55.4267 27.8626 55.2861C23.0681 54.4028 21.254 53.0161 21.6012 50.4994L21.6089 50.442C22.0472 47.2658 23.0564 39.9533 26.639 33.9364L34.5627 38.586C34.5385 40.5446 34.3655 49.5828 33.2075 54.5442ZM29.9903 56.822C33.1514 56.822 34.2422 55.3987 34.3561 55.2361C34.4039 55.1684 34.4384 55.0924 34.4578 55.0118C35.8277 49.3486 35.889 38.6636 35.8911 38.2116C35.892 37.9757 35.7673 37.7566 35.5637 37.6375L26.7489 32.4648C26.441 32.2836 26.0442 32.3802 25.8531 32.6826C21.8449 39.0389 20.7601 46.9031 20.2965 50.2613L20.2887 50.3182C19.7021 54.5706 23.8997 55.9029 27.6228 56.5891C28.4621 56.7444 29.2583 56.822 29.9903 56.822Z" fill="#1D1D1D"/>
<path d="M40.202 38.851C40.202 38.851 42.5005 45.5567 43.5391 53.0849C43.5391 53.0849 43.7233 54.9214 46.0045 55.1504C46.0045 55.1504 52.7628 56.4073 54.3522 52.2585C55.9398 48.1092 52.7317 41.5536 50.7748 37.7266C48.8171 33.8995 48.1731 32.6698 48.1731 32.6698L40.202 38.851Z" fill="#DB2E34"/>
<path d="M47.9514 33.6802C48.3292 34.4104 49.0292 35.7695 50.1847 38.0278C51.709 41.0078 55.2777 47.9856 53.7327 52.0214C52.896 54.2082 50.2895 54.6667 48.2498 54.6667C47.0503 54.6667 46.1342 54.5006 46.1256 54.4993C46.1075 54.4959 46.0889 54.4929 46.0712 54.4916C44.3481 54.3182 44.2041 53.0717 44.1985 53.0186C44.1976 53.0104 44.1963 53.0027 44.195 52.9941C43.3134 46.5994 41.5071 40.727 40.9774 39.0876L47.9514 33.6802ZM48.2498 55.9917C51.7206 55.9917 54.1067 54.7504 54.9702 52.495C56.7265 47.908 53.1047 40.8271 51.3639 37.4244C49.4277 33.6383 48.7674 32.375 48.7605 32.3625C48.6695 32.1887 48.506 32.064 48.3145 32.0222C48.1226 31.9808 47.9229 32.0261 47.7672 32.146L39.7965 38.3272C39.5722 38.501 39.4833 38.7977 39.5752 39.0656C39.5985 39.132 41.8638 45.7954 42.8817 53.1649C42.9701 53.9874 43.7145 55.5738 45.9121 55.8071C46.0889 55.8377 47.0288 55.9917 48.2498 55.9917Z" fill="#1D1D1D"/>
<path d="M23.304 41.2458C23.304 41.2458 17.4083 37.7086 13.3669 35.3036C9.32588 32.8986 7.1775 29.6711 8.9804 26.714C10.7833 23.7569 12.9032 21.4381 17.4083 24.6846C21.9125 27.9303 26.4133 32.6696 26.4133 32.6696C26.4133 32.6696 27.6762 37.2053 23.304 41.2458Z" fill="white"/>
<path d="M25.8106 32.9979C25.9667 33.7587 26.4408 37.1709 23.2098 40.417C21.7709 39.5543 17.0691 36.7361 13.7062 34.7344C11.1592 33.2196 9.52584 31.4534 9.10617 29.7626C8.87412 28.8279 9.02206 27.9179 9.54568 27.0587C10.7491 25.0863 11.8856 23.772 13.5211 23.772C14.5084 23.772 15.6855 24.2594 17.0208 25.2221C21.0157 28.1007 25.061 32.2228 25.8106 32.9979ZM23.3038 41.9084C23.4664 41.9084 23.6281 41.8489 23.7537 41.7329C28.37 37.4659 27.108 32.693 27.0519 32.492C27.0235 32.3876 26.9691 32.2918 26.8941 32.2138C26.8488 32.1655 22.298 27.3921 17.7959 24.1469C16.2078 23.003 14.8099 22.447 13.5211 22.447C11.1351 22.447 9.65739 24.3319 8.41477 26.369C7.70008 27.5417 7.50038 28.7908 7.82042 30.0818C8.32592 32.1189 10.1754 34.1754 13.0286 35.873C17.0217 38.25 22.9044 41.7786 22.9631 41.8144C23.0687 41.8778 23.1865 41.9084 23.3038 41.9084Z" fill="#1D1D1D"/>
<path d="M19.6838 9.71814L10.4014 10.5657C10.4014 10.5657 10.3561 13.3183 12.932 15.2601C15.5078 17.201 20.9449 17.2278 20.9449 17.2278L19.6838 9.71814Z" fill="#C1B092"/>
<path d="M19.132 10.4338L20.1564 16.5348C18.6015 16.4455 15.1402 16.0944 13.3304 14.7306C11.7375 13.5302 11.2639 11.9913 11.1233 11.1649L19.132 10.4338ZM20.9448 17.8904C21.1394 17.8904 21.3235 17.805 21.4499 17.657C21.5763 17.5082 21.6306 17.3107 21.5983 17.1179L20.3371 9.60825C20.2797 9.26665 19.9683 9.0277 19.6233 9.05876L10.3409 9.90586C10.0041 9.93692 9.74442 10.2164 9.73924 10.5546C9.73709 10.6809 9.7207 13.6687 12.5333 15.789C15.2536 17.8386 20.7106 17.8891 20.9418 17.8904H20.9448Z" fill="#1D1D1D"/>
<path d="M20.8564 9.60742L23.283 1.89204L26.4272 8.80043L20.8564 9.60742Z" fill="#D9B579"/>
<path d="M25.4589 8.2713L21.8043 8.80053L23.3963 3.7399L25.4589 8.2713ZM20.8563 10.27C20.8878 10.27 20.9197 10.2674 20.9512 10.2627L26.5225 9.45613C26.7287 9.42637 26.909 9.30128 27.009 9.11798C27.1087 8.9351 27.1169 8.71556 27.0306 8.52621L23.8863 1.61739C23.772 1.36809 23.5158 1.21368 23.2423 1.2305C22.9685 1.24776 22.7334 1.4315 22.651 1.6933L20.2244 9.40868C20.1563 9.62607 20.2037 9.86286 20.3517 10.0367C20.4785 10.1855 20.6635 10.27 20.8563 10.27Z" fill="#1D1D1D"/>
<path d="M42.869 7.9478L45.3124 0.662445L48.2234 8.40845L42.869 7.9478Z" fill="#D9B579"/>
<path d="M45.3479 2.64013L47.234 7.65849L43.7654 7.35958L45.3479 2.64013ZM48.2235 9.07104C48.4296 9.07104 48.6259 8.97486 48.7514 8.80924C48.8886 8.62722 48.9235 8.3887 48.8433 8.17563L45.9323 0.429633C45.8344 0.167393 45.5842 -0.00383977 45.3009 4.20733e-05C45.0201 0.00521786 44.7734 0.186371 44.6845 0.452061L42.2411 7.73699C42.1764 7.92978 42.204 8.14156 42.3153 8.31107C42.4266 8.481 42.6099 8.59056 42.8126 8.60781L48.167 9.06889C48.1855 9.07018 48.2045 9.07104 48.2235 9.07104Z" fill="#1D1D1D"/>
<path d="M48.541 8.47993L49.8643 8.4135L58.4626 8.75166C58.4626 8.75166 58.8266 11.1976 56.7598 13.2572C54.4436 15.5664 49.5408 16.0991 49.5408 16.0991L48.541 8.47993Z" fill="#C1B092"/>
<path d="M57.8235 9.38918C57.7938 10.1367 57.5505 11.5341 56.2919 12.7879C54.6439 14.4304 51.4685 15.1183 50.1103 15.3465L49.2913 9.10537L49.8684 9.07605L57.8235 9.38918ZM49.5401 16.7612C49.5647 16.7612 49.5884 16.7604 49.613 16.7573C49.8226 16.7345 54.775 16.1712 57.2275 13.7265C59.5048 11.4565 59.1347 8.76765 59.1175 8.65422C59.0709 8.33893 58.8061 8.10257 58.4882 8.0892L49.8904 7.75147C49.8709 7.75061 49.8511 7.75061 49.8313 7.75147L48.5076 7.8179C48.3234 7.82739 48.1504 7.91322 48.0322 8.05555C47.9132 8.19746 47.8597 8.38249 47.8843 8.56623L48.8841 16.1854C48.9281 16.518 49.2119 16.7612 49.5401 16.7612Z" fill="#1D1D1D"/>
<path d="M19.6375 9.81928C20.1671 9.3513 42.9652 5.68037 48.7172 8.55121C49.2766 8.83027 49.5367 15.1046 49.623 16.9416C49.7084 18.7777 49.7053 25.2742 49.7174 26.9149C49.7299 28.5548 49.6393 31.8565 49.2029 33.0495C48.7672 34.243 46.4502 38.2749 39.362 39.2876C32.2737 40.3012 26.8296 37.8884 25.3929 34.959C23.9567 32.0307 22.5173 24.6432 22.5173 24.6432L20.0515 13.7481C20.0515 13.7481 19.1082 10.2864 19.6375 9.81928Z" fill="#C1B092"/>
<path d="M48.2727 9.0732C48.4517 9.56792 48.7014 11.3355 48.9472 16.6734L48.961 16.9719C49.0266 18.3741 49.0395 22.6135 49.0477 25.1462C49.0503 25.9156 49.0521 26.5445 49.0551 26.9193C49.0684 28.7334 48.9533 31.8022 48.5806 32.8227C48.5103 33.0155 46.7695 37.5595 39.2681 38.6317C38.207 38.7835 37.149 38.8607 36.1234 38.8607C30.5719 38.8607 26.9782 36.6869 25.9874 34.6675C24.6064 31.8514 23.1817 24.5898 23.1679 24.5165C23.1662 24.5096 23.1649 24.5031 23.1636 24.4971L20.6974 13.6016C20.6952 13.5925 20.693 13.583 20.6904 13.574C20.3333 12.2598 20.0983 10.8532 20.1392 10.3387C21.8623 9.87027 32.615 8.12689 40.8773 8.12689C45.2 8.12689 47.2785 8.62593 48.2727 9.0732ZM36.1229 40.1853C37.2111 40.1853 38.333 40.1038 39.4557 39.9433C47.5938 38.7801 49.621 33.8363 49.8254 33.2765C50.3986 31.7074 50.3835 27.3959 50.3801 26.9098C50.3775 26.5355 50.3749 25.9087 50.3727 25.1419C50.365 22.5984 50.3507 18.3413 50.2843 16.9102L50.271 16.6122C49.9112 8.79457 49.5584 8.23041 49.0132 7.95782C47.4752 7.19094 44.7376 6.80146 40.8773 6.80146C35.8102 6.80146 30.0155 7.46353 27.0114 7.85818C25.0972 8.10964 23.2331 8.39301 21.7623 8.65612C19.4931 9.06285 19.3439 9.19483 19.1994 9.3225C18.9699 9.52479 18.3622 10.0618 19.4086 13.9082L21.8692 24.7796C21.9516 25.2035 23.353 32.3039 24.7979 35.2506C26.2454 38.2021 30.7966 40.1853 36.1229 40.1853Z" fill="#1D1D1D"/>
<path d="M29.3849 23.0581C28.6461 19.8595 27.0757 9.28403 27.3107 8.50206C27.3107 8.50206 29.0632 7.78392 33.4617 7.51866C37.8599 7.25297 41.8914 7.66315 42.4581 8.46022C42.7907 8.92863 43.2021 10.1894 43.4131 12.7005C43.4131 12.7005 43.8957 18.4495 43.6572 21.3592" fill="#877D6B"/>
<path d="M29.3845 23.7207C29.4341 23.7207 29.4842 23.7151 29.5346 23.7035C29.8909 23.6211 30.113 23.2652 30.0307 22.9085C29.3237 19.8505 28.0177 11.0072 27.9487 8.98998C28.666 8.78079 30.418 8.36586 33.5019 8.17997C38.3602 7.88667 41.5093 8.45169 41.9238 8.85325C42.0333 9.01327 42.5103 9.8621 42.7532 12.7558C42.7579 12.8127 43.2285 18.4841 42.9969 21.3049C42.9667 21.6698 43.2384 21.9894 43.6029 22.02C43.9686 22.0498 44.2874 21.7781 44.3176 21.4132C44.5574 18.4828 44.0937 12.8822 44.0734 12.6449C43.8828 10.3788 43.511 8.79933 42.9977 8.07645C41.7879 6.37275 33.7628 6.83642 33.4217 6.85712C28.9649 7.12626 27.1357 7.8582 27.0597 7.88883C26.8751 7.96517 26.7341 8.12001 26.6772 8.31108C26.3425 9.42129 28.1484 20.6476 28.7397 23.2074C28.8105 23.5141 29.0835 23.7207 29.3845 23.7207Z" fill="#1D1D1D"/>
<path d="M34.4521 22.0212C34.4849 22.0212 34.5181 22.0182 34.5517 22.0122C34.839 21.9578 35.0279 21.6805 34.974 21.3928C34.9692 21.3682 34.5008 18.88 33.9858 15.0279C33.4687 11.1633 33.0783 7.87667 33.0745 7.84389C33.0399 7.55361 32.7764 7.34658 32.4853 7.38023C32.1954 7.41473 31.9871 7.67869 32.022 7.96897C32.0259 8.00175 32.4171 11.2961 32.9347 15.1685C33.4544 19.0512 33.9272 21.5645 33.9323 21.5899C33.9802 21.8444 34.2028 22.0212 34.4521 22.0212Z" fill="#1D1D1D"/>
<path d="M39.2841 21.5237C39.2979 21.5237 39.3122 21.5233 39.3264 21.5224C39.618 21.4995 39.8358 21.2446 39.8134 20.9526C39.3682 15.2791 38.1584 7.68535 38.1459 7.60943C38.0993 7.32002 37.828 7.12291 37.5386 7.16992C37.2496 7.21607 37.0529 7.4878 37.0991 7.77678C37.1112 7.8527 38.3158 15.405 38.7566 21.0354C38.7782 21.3132 39.0102 21.5237 39.2841 21.5237Z" fill="#1D1D1D"/>
<path d="M36.855 21.7151C36.8744 21.7151 36.8943 21.7142 36.9141 21.7116C37.2052 21.6793 37.4144 21.4175 37.3821 21.1268C37.3752 21.0629 36.6687 14.7321 36.3913 12.5966C36.3534 12.3068 36.0886 12.1019 35.797 12.1399C35.5067 12.1774 35.3018 12.4435 35.3398 12.7334C35.6163 14.8589 36.3219 21.1807 36.3288 21.2441C36.3594 21.5145 36.5885 21.7151 36.855 21.7151Z" fill="#1D1D1D"/>
<path d="M31.2024 17.1875C31.2205 17.1875 31.2387 17.1866 31.2572 17.1849C31.5488 17.1547 31.7601 16.8942 31.7304 16.6035C31.4254 13.6395 30.6922 8.32439 30.6849 8.27134C30.6447 7.98106 30.3773 7.77964 30.087 7.81846C29.7976 7.85857 29.5945 8.12599 29.635 8.41626C29.6424 8.46931 30.3726 13.7667 30.6754 16.7113C30.7038 16.9844 30.9342 17.1875 31.2024 17.1875Z" fill="#1D1D1D"/>
<path d="M43.4764 24.9132L43.3151 26.7911C43.3151 26.7911 41.4208 27.6244 40.9481 27.2953C40.9252 27.2793 39.7257 25.6511 39.7257 25.6511L38.6151 27.8422L36.8894 28.211L35.4376 26.211L34.1798 28.8933C34.1798 28.8933 31.8671 29.0917 31.4311 28.9529C31.4311 28.9529 30.1237 26.2287 29.3845 23.0309C29.3845 23.0309 30.6474 22.2429 33.3254 21.7551C36.0026 21.2672 42.1337 20.9472 43.6917 21.2418C43.6917 21.2418 43.501 24.3869 43.4764 24.9132Z" fill="#D9B579"/>
<path d="M33.7436 28.2625C33.3114 28.294 32.5972 28.3397 32.0744 28.3397C31.9977 28.3397 31.9325 28.3384 31.8782 28.3367C31.5431 27.5841 30.7205 25.6289 30.1512 23.3818C30.6977 23.1307 31.7863 22.708 33.4439 22.407C35.2739 22.0731 39.0247 21.7915 41.6337 21.7915C42.2487 21.7915 42.6852 21.8075 42.9923 21.8286C42.9363 22.7663 42.8345 24.4609 42.8151 24.8689L42.69 26.3315C42.2267 26.5097 41.6544 26.6904 41.3326 26.7081C41.1174 26.4204 40.6671 25.8114 40.2587 25.258C40.1224 25.073 39.8998 24.9729 39.6703 24.991C39.4417 25.0095 39.2382 25.1458 39.1346 25.3516L38.1672 27.2602L37.1722 27.4732L35.974 25.8217C35.8368 25.6315 35.6082 25.5289 35.3753 25.5513C35.142 25.5737 34.9379 25.7173 34.8383 25.9295L33.7436 28.2625ZM32.0744 29.6643C32.9284 29.6643 34.1831 29.5578 34.2366 29.553C34.4721 29.5332 34.6792 29.3883 34.7796 29.1743L35.5608 27.5086L36.3522 28.5998C36.5066 28.812 36.7715 28.9138 37.0272 28.859L38.7534 28.4898C38.9496 28.4484 39.1157 28.3199 39.2062 28.1413L39.8299 26.9095C40.4631 27.7669 40.4825 27.7799 40.5748 27.8424C40.759 27.971 40.9923 28.0352 41.2826 28.0352C42.1094 28.0348 43.4336 27.4629 43.5819 27.3977C43.8036 27.3007 43.9546 27.0894 43.9757 26.8482L44.1366 24.9694C44.1375 24.9608 44.1379 24.9518 44.1383 24.9436C44.1621 24.4281 44.3514 21.3136 44.3531 21.2821C44.3734 20.9491 44.1426 20.6528 43.8153 20.5911C43.3775 20.5079 42.6434 20.4661 41.6337 20.4661C39.2515 20.4661 35.2964 20.7223 33.2062 21.1031C30.4363 21.6073 29.0897 22.4337 29.0337 22.4682C28.7934 22.6183 28.6752 22.9039 28.7391 23.1799C29.4865 26.4122 30.7792 29.1252 30.8335 29.2395C30.9129 29.4042 31.0565 29.5293 31.2308 29.5841C31.3559 29.6242 31.5534 29.6643 32.0744 29.6643Z" fill="#1D1D1D"/>
<path d="M40.937 13.0083C40.9569 13.0083 40.9771 13.007 40.9974 13.0049C41.2877 12.9716 41.4973 12.7098 41.4645 12.4187C41.2135 10.1991 40.7274 7.89721 40.7222 7.87478C40.6618 7.58839 40.3806 7.40551 40.0942 7.46546C39.8078 7.52671 39.625 7.80749 39.6858 8.09389C39.6905 8.11632 40.1663 10.3712 40.4108 12.5377C40.4419 12.8082 40.6713 13.0083 40.937 13.0083Z" fill="#1D1D1D"/>
<path d="M41.4551 20.947H41.4728C41.7652 20.938 41.9947 20.693 41.9852 20.4001C41.9438 19.0993 41.8472 16.1353 41.8472 16.1353L40.7879 16.1698C40.7879 16.1698 40.884 19.1333 40.9254 20.4342C40.9354 20.7214 41.1704 20.947 41.4551 20.947Z" fill="#1D1D1D"/>
<path d="M38.6528 14.991C38.6635 14.991 38.6752 14.9905 38.686 14.9897L38.8296 14.981C39.4537 14.9422 39.4537 14.9422 40.2171 14.9198C40.51 14.9112 40.7403 14.6675 40.7317 14.3746C40.7235 14.0822 40.4785 13.854 40.1865 13.8601C39.4127 13.8829 39.3994 13.8833 38.7636 13.9226L38.6204 13.9317C38.3284 13.9498 38.1058 14.2017 38.1244 14.4941C38.1416 14.7744 38.375 14.991 38.6528 14.991Z" fill="#1D1D1D"/>
<path d="M50.1227 13.2095C50.1442 13.2095 50.1662 13.2082 50.1878 13.2065L52.7752 12.9761C53.1764 12.9403 53.4727 12.5867 53.4365 12.1855C53.4011 11.7848 53.0474 11.4885 52.6463 11.5243L50.0588 11.7546C49.6581 11.79 49.3618 12.1441 49.3976 12.5452C49.4308 12.9239 49.7496 13.2095 50.1227 13.2095Z" fill="#1D1D1D"/>
<path d="M19.8716 13.3735L16.5341 13.6487Z" fill="#C1B092"/>
<path d="M16.533 14.3777C16.5533 14.3777 16.5736 14.3768 16.5939 14.3751L19.9314 14.0999C20.3325 14.0667 20.6305 13.7148 20.5978 13.3136C20.5645 12.9129 20.2117 12.6149 19.8115 12.6472L16.4739 12.9229C16.0733 12.9556 15.7744 13.3076 15.8076 13.7087C15.8395 14.0896 16.1578 14.3777 16.533 14.3777Z" fill="#1D1D1D"/>
<path d="M22.8886 25.126C22.9292 25.126 22.9697 25.1225 23.0111 25.1156L25.3109 24.7249C25.7077 24.6576 25.9751 24.2815 25.9078 23.8846C25.8401 23.4878 25.4645 23.2217 25.0676 23.2881L22.7679 23.6789C22.3711 23.7462 22.1036 24.1223 22.1709 24.5187C22.2313 24.8745 22.5393 25.126 22.8886 25.126Z" fill="#1D1D1D"/>
<path d="M23.8065 29.2517C23.8276 29.2517 23.8487 29.2504 23.8699 29.2487L25.9333 29.071C26.334 29.0369 26.6311 28.6837 26.5966 28.2825C26.5626 27.8814 26.2076 27.5851 25.8082 27.6192L23.7448 27.7964C23.3441 27.8305 23.0465 28.1838 23.0814 28.5849C23.1142 28.9649 23.4325 29.2517 23.8065 29.2517Z" fill="#1D1D1D"/>
<path d="M24.9724 33.7649C25.0556 33.7649 25.1415 33.7502 25.2247 33.72C25.2665 33.7041 26.2594 33.3327 27.286 32.5421C27.6051 32.2963 27.6642 31.8391 27.4188 31.5203C27.1734 31.2016 26.7153 31.1421 26.3966 31.3875C25.5439 32.0444 24.7278 32.3497 24.7196 32.3528C24.3422 32.4921 24.149 32.9113 24.2887 33.2887C24.3974 33.5829 24.6761 33.7649 24.9724 33.7649Z" fill="#1D1D1D"/>
<path d="M47.0579 22.7717C47.0739 22.7717 47.0903 22.7713 47.1062 22.77C47.1554 22.767 48.3126 22.6898 49.4672 22.5341C49.8666 22.4802 50.1461 22.114 50.0922 21.7146C50.0387 21.316 49.6721 21.0361 49.2732 21.09C48.1681 21.2384 47.0217 21.3152 47.0105 21.316C46.6089 21.3428 46.3044 21.6896 46.3316 22.0911C46.3566 22.4758 46.6775 22.7717 47.0579 22.7717Z" fill="#1D1D1D"/>
<path d="M49.4033 26.9043C49.7514 26.9043 50.0593 26.6546 50.1206 26.3C50.1891 25.9036 49.9235 25.5262 49.5266 25.4577C48.9944 25.3649 47.3865 25.157 47.3183 25.1484C46.9198 25.0971 46.554 25.3783 46.5023 25.7777C46.4505 26.1767 46.7326 26.542 47.1315 26.5937C47.1479 26.5955 48.7766 26.8064 49.2782 26.8935C49.3205 26.9004 49.3619 26.9043 49.4033 26.9043Z" fill="#1D1D1D"/>
<path d="M49.3047 31.5098C49.5976 31.5098 49.8736 31.3321 49.9849 31.0427C50.1294 30.667 49.9422 30.2451 49.5665 30.1002C48.8514 29.8259 47.5988 29.4136 47.5458 29.3963C47.1632 29.2704 46.7513 29.4783 46.6258 29.8604C46.5003 30.2426 46.7082 30.6549 47.0903 30.7804C47.1033 30.7843 48.3618 31.1988 49.0433 31.4615C49.1296 31.4942 49.218 31.5098 49.3047 31.5098Z" fill="#1D1D1D"/>
<path d="M26.4133 18.5522C26.4133 18.5522 26.3322 16.4039 24.8395 16.3374C23.3462 16.2714 23.8073 18.5522 23.8073 18.5522" fill="#C1B092"/>
<path d="M23.8065 19.2151C23.8505 19.2151 23.8945 19.2103 23.9389 19.2017C24.2973 19.1293 24.5294 18.7795 24.4569 18.4206C24.3745 18.004 24.3668 17.3009 24.566 17.0684C24.5876 17.0434 24.6316 16.9921 24.8093 16.999C25.6693 17.0374 25.7513 18.5616 25.7521 18.5772C25.7659 18.9434 26.073 19.2285 26.4388 19.2142C26.8046 19.2004 27.0897 18.8929 27.0754 18.5271C27.0392 17.5726 26.5315 15.7495 24.8684 15.6757C24.1891 15.6447 23.7806 15.9487 23.5589 16.208C22.8645 17.0188 23.103 18.4128 23.1582 18.6841C23.222 18.9981 23.4981 19.2151 23.8065 19.2151Z" fill="#1D1D1D"/>
<path d="M45.2076 17.6621C45.2076 17.6621 44.9428 15.079 46.4166 15.079C47.8904 15.079 47.8904 17.4443 47.8904 17.4443" fill="#C1B092"/>
<path d="M45.2067 18.3247C45.2296 18.3247 45.252 18.3238 45.2749 18.3213C45.6393 18.2837 45.9033 17.9594 45.8666 17.5954C45.814 17.0631 45.8718 16.1681 46.1651 15.8451C46.2216 15.7821 46.2859 15.7411 46.4165 15.7411C47.1852 15.7411 47.2283 17.4289 47.2283 17.4457C47.2296 17.8106 47.5259 18.1056 47.8904 18.1056H47.8921C48.257 18.1052 48.5529 17.8093 48.5529 17.4444C48.5529 16.3195 48.103 14.4161 46.4165 14.4161C45.9279 14.4161 45.5009 14.6033 45.1808 14.9574C44.3812 15.8433 44.5295 17.5397 44.549 17.7299C44.5839 18.0707 44.8716 18.3247 45.2067 18.3247Z" fill="#1D1D1D"/>
<path d="M43.4406 31.275C43.4406 31.275 45.8922 36.0117 37.8149 36.509C29.7373 37.0055 30.16 30.9774 30.16 30.9774C30.16 30.9774 31.0856 31.4411 38.0086 31.4079C40.747 31.3945 42.3244 31.1853 43.231 30.9373L43.4406 31.275Z" fill="#ED6D6F"/>
<path d="M30.5159 33.3858C30.5159 33.3858 34.2601 33.9741 37.2996 33.8266C40.3382 33.6791 43.5183 32.6409 43.5183 32.6409L43.0986 31.4708C43.0986 31.4708 35.6822 32.5085 30.16 31.3271L30.5159 33.3858Z" fill="white"/>
<path d="M42.8619 31.7721C42.9999 32.1365 43.2617 33.0544 42.7924 33.8704C42.1675 34.9573 40.4305 35.6177 37.7698 35.782C35.206 35.9394 33.3164 35.4301 32.1536 34.269C31.3721 33.4883 31.0701 32.5433 30.955 31.8752C32.0354 32.0175 34.0962 32.1555 38.0122 32.1365C40.3029 32.1257 41.8315 31.9804 42.8619 31.7721ZM36.8925 37.2666C37.206 37.2666 37.5278 37.2567 37.8595 37.2364C41.0909 37.0376 43.1785 36.1435 44.0661 34.5791C44.7894 33.3032 44.4832 31.9795 44.2542 31.3364C44.6458 31.1428 44.8477 30.9379 44.974 30.7537C45.2699 30.3207 45.156 29.9338 45.1146 29.8255C44.9693 29.4499 44.5475 29.2635 44.1718 29.408C43.9221 29.5046 43.7556 29.7242 43.7155 29.9705C43.461 30.1378 42.3245 30.6588 38.0053 30.6791C32.1428 30.708 30.6914 30.3768 30.4672 30.3129C30.2567 30.1766 30.0298 30.1835 29.8003 30.2935C29.5635 30.407 29.4514 30.6649 29.4329 30.9263C29.426 31.028 29.2797 33.4395 31.1051 35.2808C32.4132 36.6002 34.3576 37.2666 36.8925 37.2666Z" fill="#1D1D1D"/>
<path d="M36.4786 34.4666C41.5202 34.4666 43.6229 33.2481 43.7346 33.1808C44.0171 33.0113 44.1077 32.6447 43.939 32.3626C43.77 32.0814 43.4059 31.9899 43.1234 32.1569C43.0781 32.1832 39.7247 34.0568 31.2411 32.8862C30.9155 32.8414 30.614 33.0691 30.5691 33.3956C30.5238 33.7217 30.752 34.0227 31.0781 34.0676C33.163 34.3553 34.9556 34.4666 36.4786 34.4666Z" fill="#1D1D1D"/>
<path d="M25.8396 15.3193C26.0794 15.3193 26.3158 15.2106 26.4728 15.0049C26.7389 14.656 26.6686 14.1548 26.3192 13.8887C26.1929 13.792 25.0227 12.9449 22.8722 12.8505C22.4335 12.8315 22.0626 13.171 22.0432 13.6096C22.0242 14.0482 22.3641 14.4192 22.8027 14.4386C24.4598 14.5115 25.3526 15.1511 25.3621 15.1576C25.5053 15.2667 25.6727 15.3193 25.8396 15.3193Z" fill="#1D1D1D"/>
<path d="M45.2076 14.2761C45.4134 14.2761 45.6182 14.1968 45.7739 14.0393C45.8119 14.0014 46.4822 13.3643 47.821 13.1853C48.2557 13.1271 48.5615 12.7273 48.5037 12.2916C48.4459 11.8573 48.0465 11.5506 47.61 11.6093C45.7153 11.8625 44.7414 12.82 44.6366 12.9287C44.3312 13.2436 44.3394 13.7469 44.6551 14.0523C44.8095 14.2015 45.0088 14.2761 45.2076 14.2761Z" fill="#1D1D1D"/>
<path d="M44.9595 45.5215L43.7941 40.6174L45.1639 39.9463L45.5556 41.4434L46.1654 39.5486L47.55 38.8499L47.0449 41.8493L49.0272 44.0011L47.4499 44.6295L45.983 43.0035L46.4889 44.9612L44.9595 45.5215Z" fill="#FFFEFE"/>
<path d="M44.1776 40.7982L45.1951 45.0825L46.0926 44.7538L45.6626 43.0868C45.6242 42.9384 45.6919 42.784 45.8265 42.7119C45.9607 42.6399 46.1271 42.6684 46.2289 42.7818L47.541 44.2366L48.4571 43.8717L46.8017 42.074C46.7318 41.9985 46.7017 41.8955 46.7185 41.7945L47.1144 39.4413L46.4381 39.782L45.8709 41.5448C45.8261 41.6854 45.6915 41.7786 45.5466 41.7751C45.3995 41.7708 45.2723 41.6699 45.2352 41.5271L44.9458 40.4221L44.1776 40.7982ZM44.9591 45.8528C44.9052 45.8528 44.8513 45.8394 44.8021 45.8131C44.7189 45.7678 44.6589 45.6902 44.6369 45.5983L43.472 40.6942C43.4357 40.5433 43.5091 40.3884 43.6479 40.3203L45.0178 39.6487C45.1071 39.6052 45.211 39.6034 45.3016 39.6449C45.3918 39.6867 45.459 39.7661 45.4841 39.8622L45.5884 40.2603L45.8502 39.4469C45.877 39.3632 45.9369 39.2929 46.0159 39.2532L47.4004 38.5545C47.5117 38.4984 47.6454 38.5092 47.7459 38.5834C47.8468 38.658 47.8964 38.7818 47.8757 38.9047L47.3987 41.7441L49.2706 43.7764C49.3443 43.8571 49.3737 43.9684 49.3495 44.0749C49.3258 44.181 49.2507 44.2686 49.1494 44.3091L47.5725 44.9375C47.4435 44.9884 47.296 44.9548 47.2037 44.8513L46.6417 44.228L46.8099 44.8789C46.8522 45.0436 46.7625 45.214 46.6025 45.2727L45.073 45.8325C45.0359 45.8459 44.9975 45.8528 44.9591 45.8528Z" fill="#1D1D1D"/>
<path d="M31.5264 51.6194C31.5643 51.6194 31.6027 51.6215 31.6403 51.625C31.9935 51.6578 32.3209 51.8441 32.5387 52.1361C32.7431 52.4113 32.8389 52.7568 32.807 53.1074C32.7405 53.8195 32.1807 54.3569 31.5031 54.3569C31.4647 54.3569 31.4268 54.3552 31.3892 54.3518C30.6767 54.2858 30.1539 53.6211 30.223 52.8693C30.2889 52.1568 30.8492 51.6194 31.5264 51.6194ZM31.5264 52.2823C31.1995 52.2823 30.9165 52.5614 30.8833 52.9301C30.8475 53.3183 31.1011 53.6595 31.4496 53.6918C31.4673 53.694 31.485 53.6949 31.5031 53.6949C31.83 53.6949 32.113 53.4154 32.1466 53.0466C32.1824 52.6575 31.9288 52.3164 31.5794 52.2845C31.5618 52.2827 31.5441 52.2823 31.5264 52.2823Z" fill="#1D1D1D"/>
<path d="M31.56 48.9836C31.5242 49.3718 31.7787 49.7129 32.1272 49.7448C32.4766 49.7772 32.7884 49.4886 32.8242 49.1C32.8604 48.711 32.6064 48.3698 32.2566 48.3375C31.9085 48.3055 31.5958 48.595 31.56 48.9836Z" fill="white"/>
<path d="M32.2037 47.6728H32.2045C32.2416 47.6728 32.28 47.6746 32.3175 47.678C33.0301 47.744 33.5532 48.4091 33.4838 49.1604C33.4178 49.873 32.8575 50.4104 32.1804 50.4104C32.1424 50.4104 32.1045 50.4087 32.0665 50.4048C31.7128 50.3724 31.3859 50.1861 31.1681 49.8933C30.9632 49.6181 30.8683 49.2735 30.9007 48.9224C30.9662 48.2098 31.5265 47.6728 32.2037 47.6728ZM32.2041 48.3353C31.8767 48.3353 31.5946 48.6148 31.5601 48.9836C31.5243 49.3718 31.7788 49.713 32.1273 49.7449C32.145 49.747 32.1627 49.7479 32.1804 49.7479C32.5073 49.7479 32.7898 49.4684 32.8239 49.1001C32.8601 48.711 32.6065 48.3698 32.2567 48.3375C32.239 48.3362 32.2213 48.3353 32.2041 48.3353Z" fill="#1D1D1D"/>
<path d="M31.9577 44.8865C31.9214 45.2747 32.1759 45.6159 32.5244 45.6482C32.8738 45.6801 33.1856 45.3916 33.2214 45.003C33.2576 44.6135 33.0032 44.2728 32.6542 44.2408C32.3057 44.2085 31.993 44.4975 31.9577 44.8865Z" fill="white"/>
<path d="M32.6013 43.5757C32.6388 43.5757 32.6776 43.5778 32.7156 43.5813C33.0684 43.6136 33.3957 43.8 33.6136 44.0924C33.818 44.3676 33.9138 44.7126 33.8814 45.0633C33.8154 45.7758 33.2551 46.3132 32.5775 46.3132C32.5396 46.3132 32.5016 46.3111 32.4645 46.3081C31.7516 46.2421 31.2284 45.5774 31.2983 44.8252C31.3634 44.1127 31.9237 43.5757 32.6013 43.5757ZM32.6013 44.2386C32.2735 44.2386 31.9914 44.5177 31.9577 44.8864C31.9215 45.2746 32.176 45.6158 32.5245 45.6481C32.5422 45.6499 32.5603 45.6507 32.5775 45.6507C32.9045 45.6507 33.1874 45.3717 33.2211 45.0029C33.2573 44.6134 33.0032 44.2727 32.6543 44.2408C32.6366 44.239 32.6189 44.2386 32.6013 44.2386Z" fill="#1D1D1D"/>
<path d="M10.749 20.525C10.749 20.525 9.39297 17.0507 7.48569 17.0253C6.05027 17.0059 7.26485 19.4872 7.26485 19.4872C7.26485 19.4872 9.88941 20.823 10.749 20.525Z" fill="#D9B579"/>
<path d="M7.46911 17.6873C8.305 17.6985 9.12234 18.8118 9.6438 19.7516C9.03306 19.5679 8.29767 19.2539 7.76974 18.9985C7.55192 18.4887 7.41002 17.9129 7.45013 17.6878C7.45617 17.6873 7.46178 17.6873 7.46911 17.6873ZM10.4413 21.2314C10.6393 21.2314 10.8109 21.2047 10.9658 21.1508C11.1362 21.0921 11.275 20.9666 11.3505 20.8031C11.4256 20.6392 11.4316 20.4521 11.3656 20.2843C11.2108 19.8866 9.78226 16.3934 7.49456 16.3628H7.46911C6.79884 16.3628 6.47191 16.7251 6.33734 16.9416C5.78827 17.8219 6.45336 19.3354 6.66945 19.7783C6.73285 19.9073 6.83594 20.0125 6.96404 20.0777C7.19609 20.1954 9.26381 21.2314 10.4413 21.2314Z" fill="#1D1D1D"/>
</g>
<defs>
<clipPath id="clip0_1148_25309">
<rect width="72" height="52" fill="white"/>
</clipPath>
</defs>
</svg>
