<svg width="30" height="24" viewBox="0 0 30 24" fill="none" xmlns="http://www.w3.org/2000/svg">
<path d="M0.749691 5.52776C0.798209 6.02924 1.02088 7.00989 1.97828 7.82187C3.04875 8.73007 5.18729 9.06168 6.1086 9.16593L5.69346 5.36269L0.749691 5.52776ZM6.52415 9.94409C6.51653 9.94409 6.50878 9.94382 6.50103 9.94329C6.36175 9.9346 3.06894 9.71393 1.50152 8.38403C-0.115348 7.0127 -0.00187214 5.21994 0.00360787 5.14429C0.017642 4.9565 0.170815 4.80934 0.359006 4.80306L6.01063 4.6142C6.20417 4.60819 6.36844 4.75107 6.38929 4.9426L6.89064 9.53536C6.9024 9.64363 6.86591 9.75136 6.79066 9.82995C6.72103 9.90306 6.62453 9.94409 6.52415 9.94409Z" fill="#737373"/>
<path d="M8.4801 1.39883L7.28961 4.53899L9.61848 4.33784L8.4801 1.39883ZM6.73693 5.32544C6.62198 5.32544 6.51278 5.27184 6.44274 5.17908C6.36629 5.0779 6.34718 4.94451 6.39209 4.82623L8.13179 0.238006C8.18592 0.0952592 8.32252 0.000628948 8.47502 -3.91006e-05H8.47663C8.6286 -3.91006e-05 8.7652 0.0935216 8.82027 0.2356L10.4834 4.52964C10.5254 4.63777 10.5137 4.75953 10.4524 4.8579C10.391 4.95628 10.2869 5.02003 10.1713 5.03005L6.76847 5.3241C6.75804 5.32504 6.74735 5.32544 6.73693 5.32544Z" fill="#737373"/>
<path d="M20.6439 4.42349L22.8283 4.73932L21.8181 1.49423L20.6439 4.42349ZM23.354 5.55664C23.3366 5.55664 23.319 5.5553 23.3015 5.55263L20.0746 5.08616C19.9627 5.07012 19.8644 5.0033 19.808 4.90532C19.7515 4.80749 19.7431 4.68907 19.7851 4.58414L21.5198 0.257225C21.5777 0.112339 21.7208 0.0185108 21.8767 0.0261292C22.0325 0.0322776 22.1675 0.135997 22.2139 0.284759L23.6962 5.047C23.7142 5.09044 23.7241 5.13802 23.7241 5.18788C23.7241 5.39117 23.5594 5.55611 23.3563 5.55664H23.354Z" fill="#737373"/>
<path d="M23.9405 5.61349L24.2237 9.49239C25.0375 9.40604 27.0327 9.10344 28.1095 8.14738C28.9407 7.40959 29.1299 6.53694 29.1694 6.08744L24.3284 5.6163L23.9405 5.61349ZM23.8829 10.2603C23.691 10.2603 23.5298 10.1118 23.5155 9.91836L23.1761 5.26879C23.1688 5.166 23.2043 5.06496 23.2749 4.98984C23.3451 4.91473 23.4437 4.86968 23.5466 4.87329L24.3504 4.87931C24.3615 4.87931 24.3725 4.87998 24.3835 4.88104L29.5792 5.38654C29.7555 5.40378 29.8946 5.54386 29.9105 5.72028C29.9168 5.78885 30.0458 7.41467 28.5991 8.69872C27.0369 10.0857 24.0293 10.2533 23.9019 10.2597C23.8956 10.2601 23.8892 10.2603 23.8829 10.2603Z" fill="#737373"/>
<path d="M6.24784 5.34772C6.19665 5.64471 6.28954 6.52672 6.46543 7.36035C6.4665 7.36556 6.46744 7.37091 6.46824 7.37599L7.58095 14.0609C7.58162 14.0645 7.58215 14.0683 7.58269 14.0719C7.5887 14.1166 8.19805 18.5691 8.93785 20.3272C9.55161 21.786 12.0739 23.2626 15.7074 23.2626C16.091 23.2626 16.4844 23.2458 16.8761 23.2126C21.4769 22.8239 22.6976 20.1152 22.7472 20.0001C23.0101 19.3913 23.1881 17.5315 23.2436 16.43C23.255 16.2036 23.2756 15.8248 23.301 15.3614C23.3849 13.8253 23.5252 11.2541 23.5346 10.4004L23.5367 10.2188C23.5754 6.92904 23.4819 5.85977 23.3886 5.56919C22.2642 4.97268 19.8129 4.65778 16.2857 4.65778C11.6521 4.65778 7.04551 5.17584 6.24784 5.34772ZM15.7074 24C12.1604 24 9.09718 22.6073 8.25833 20.6132C7.48726 18.7808 6.88753 14.4317 6.85278 14.1765L5.74234 7.50497C5.24714 5.15793 5.63622 4.85292 5.76399 4.75281C5.84619 4.68799 5.92398 4.62691 6.95837 4.49138C7.60314 4.4069 8.45949 4.31709 9.36957 4.23809C10.7398 4.11967 13.4606 3.92052 16.2857 3.92052C20.0763 3.92052 22.6152 4.27418 23.8316 4.97161C24.1431 5.15018 24.3281 5.59325 24.2739 10.2275L24.2719 10.4084C24.2621 11.2781 24.1215 13.8595 24.0371 15.4016C24.0119 15.8636 23.9912 16.2413 23.9799 16.4669C23.9651 16.7612 23.8237 19.3673 23.4242 20.2925C23.2816 20.6223 21.8887 23.5289 16.9383 23.9473C16.5257 23.9822 16.1117 24 15.7074 24Z" fill="#737373"/>
<path d="M11.432 13.7703C11.2557 13.7703 11.0998 13.6434 11.069 13.4638C10.8065 11.9303 10.1061 5.02394 10.3389 4.38652C10.377 4.28213 10.4601 4.2006 10.5652 4.16451C10.6118 4.14834 11.7403 3.77076 14.4437 3.76394C15.7611 3.7606 17.0579 3.85122 18.0958 4.02003C19.6668 4.27518 20.0336 4.59984 20.1727 4.82158C20.4511 5.26639 20.624 6.2564 20.6591 7.60929C20.6629 7.75337 20.7481 11.1591 20.5007 12.923C20.4724 13.1246 20.2862 13.2652 20.0844 13.2368C19.8828 13.2086 19.7423 13.0222 19.7705 12.8206C20.0094 11.1173 19.9229 7.66315 19.9221 7.6284C19.8752 5.82335 19.6023 5.29981 19.548 5.21319C19.3375 4.9563 17.4472 4.49438 14.4457 4.50106C12.5336 4.50601 11.4506 4.70342 11.0216 4.8042C10.9852 5.984 11.4701 11.4377 11.7957 13.3392C11.8301 13.54 11.6953 13.7304 11.4947 13.7649C11.4735 13.7684 11.4526 13.7703 11.432 13.7703Z" fill="#737373"/>
<path d="M12.3292 8.01636C12.1777 8.01636 12.049 7.90048 12.0358 7.7469C11.9059 6.24619 11.8424 4.32966 11.8418 4.31042C11.8364 4.14775 11.9641 4.01142 12.1268 4.00608C12.2897 4.0034 12.4261 4.12851 12.4313 4.2913C12.4319 4.31015 12.4949 6.21144 12.6233 7.69611C12.6375 7.85824 12.5171 8.00125 12.3548 8.01529C12.3463 8.01596 12.3377 8.01636 12.3292 8.01636Z" fill="#737373"/>
<path d="M13.1134 13.0366C12.9806 13.0366 12.8597 12.9459 12.827 12.811C12.6417 12.0442 12.3657 10.5379 12.354 10.474C12.3247 10.3139 12.4308 10.1602 12.5911 10.1309C12.7513 10.1012 12.9049 10.2077 12.9342 10.3679C12.937 10.3832 13.2189 11.9218 13.4003 12.6721C13.4387 12.8305 13.3413 12.9898 13.1831 13.0283C13.1598 13.0338 13.1364 13.0366 13.1134 13.0366Z" fill="#737373"/>
<path d="M14.5559 12.9248C14.4103 12.9248 14.2834 12.8164 14.264 12.6679C14.262 12.6527 14.0633 11.1144 13.8847 8.74518C13.7063 6.38157 13.5845 4.37348 13.5834 4.35344C13.5735 4.19077 13.6973 4.0511 13.86 4.04121C14.0226 4.03226 14.1623 4.15535 14.1722 4.31775C14.1733 4.3378 14.2949 6.34187 14.4729 8.70094C14.6502 11.0543 14.847 12.5768 14.8488 12.5917C14.87 12.7532 14.756 12.9013 14.5946 12.9223C14.5816 12.924 14.5688 12.9248 14.5559 12.9248Z" fill="#737373"/>
<path d="M17.5002 12.7925C17.3402 12.7925 17.2087 12.6644 17.2055 12.5036C17.1353 9.07718 16.67 4.45982 16.6653 4.41358C16.6489 4.25145 16.7669 4.10683 16.9291 4.09039C17.0906 4.07422 17.2357 4.19184 17.2521 4.35397C17.2569 4.40035 17.7245 9.04123 17.7952 12.4915C17.7985 12.6545 17.6693 12.7893 17.5062 12.7923C17.5043 12.7925 17.5022 12.7925 17.5002 12.7925Z" fill="#737373"/>
<path d="M16.022 12.8232C15.8665 12.8232 15.7361 12.7013 15.7279 12.544C15.7257 12.5053 15.5192 8.65163 15.4263 7.35461C15.4146 7.19209 15.5369 7.05094 15.6994 7.03945C15.8615 7.02528 16.0029 7.14998 16.0144 7.31238C16.1082 8.61475 16.3147 12.4737 16.3168 12.5125C16.3256 12.6753 16.2007 12.8142 16.0379 12.8227C16.0327 12.8231 16.0274 12.8232 16.022 12.8232Z" fill="#737373"/>
<path d="M13.1586 9.09131C13.0192 9.09131 12.8952 8.992 12.869 8.84979C12.8393 8.68967 12.9453 8.53596 13.1054 8.50629C13.562 8.42195 14.0376 8.34977 14.0424 8.3491C14.2033 8.32545 14.3537 8.43545 14.3781 8.59664C14.4026 8.75756 14.2917 8.9078 14.1306 8.93226C14.1261 8.93292 13.6596 9.0039 13.2125 9.08636C13.1945 9.08957 13.1764 9.09131 13.1586 9.09131Z" fill="#737373"/>
<path d="M18.8223 9.99536C18.8182 9.99536 18.814 9.99523 18.8096 9.99496C18.647 9.98814 18.5205 9.85061 18.5276 9.68795C18.6014 7.94531 18.1927 4.69808 18.1885 4.66561C18.1681 4.50401 18.2825 4.35632 18.4441 4.33587C18.6054 4.31502 18.7531 4.4297 18.7737 4.59129C18.7908 4.72642 19.1927 7.92099 19.1168 9.71281C19.11 9.87119 18.9795 9.99536 18.8223 9.99536Z" fill="#737373"/>
<path d="M12.7336 16.7174C12.8623 16.7293 13.1016 16.7422 13.5319 16.7422C13.6744 16.7422 13.807 16.7408 13.9105 16.7392L14.6635 15.3472C14.7255 15.2326 14.8437 15.1592 14.9741 15.1542C15.1047 15.1497 15.2277 15.2139 15.2981 15.3237L15.9775 16.384L16.6248 16.2842L17.2857 15.1481C17.3499 15.0376 17.4672 14.9681 17.5952 14.965C17.7231 14.962 17.8434 15.025 17.9134 15.1323C18.1039 15.425 18.3952 15.871 18.5225 16.063C18.5277 16.0631 18.5334 16.0631 18.5395 16.0631C18.7696 16.0631 19.1492 15.9575 19.4058 15.8744L19.5362 14.9721C19.5624 14.7217 19.6875 13.6619 19.7535 13.1034C19.1771 13.0272 18.1468 12.9803 16.9619 12.9803C15.739 12.9803 14.5977 13.0309 13.9094 13.116C12.8662 13.2443 12.1809 13.4705 11.847 13.6033C12.1176 15.0203 12.5606 16.2613 12.7336 16.7174ZM13.5319 17.4795C12.5745 17.4795 12.412 17.4175 12.334 17.3878C12.2387 17.3516 12.1629 17.2775 12.1241 17.1834C12.0951 17.1126 11.4085 15.4273 11.0694 13.4469C11.0428 13.2917 11.1177 13.1367 11.2559 13.0612C11.2907 13.0422 12.1297 12.5921 13.819 12.3842C14.5356 12.2958 15.7104 12.243 16.9619 12.243C17.544 12.243 19.5021 12.2576 20.2498 12.4441C20.4299 12.489 20.5485 12.661 20.5267 12.8452C20.5244 12.8643 20.3009 14.7446 20.2686 15.0556C20.2681 15.0605 20.2675 15.0655 20.2667 15.0703L20.1037 16.2024C20.0843 16.3359 19.9935 16.4481 19.8674 16.4952C19.7833 16.5264 19.0331 16.8005 18.5395 16.8005C18.3352 16.8005 18.178 16.7552 18.0595 16.6623C18.0095 16.6227 18.0001 16.6153 17.6222 16.036L17.1739 16.8071C17.1179 16.9033 17.0214 16.9691 16.9112 16.986L15.8528 17.1491C15.7086 17.1713 15.565 17.1066 15.4863 16.9838L15.0146 16.2477L14.4566 17.2787C14.3939 17.3945 14.2741 17.4683 14.1425 17.4719C14.1311 17.472 13.8609 17.4795 13.5319 17.4795Z" fill="#737373"/>
<path d="M13.2622 20.5244C11.97 20.5244 10.9749 19.5475 10.93 19.5027C10.7715 19.3446 10.7712 19.0879 10.9294 18.9293C11.0874 18.7712 11.3436 18.7707 11.5022 18.9283C11.5205 18.9458 12.4307 19.8252 13.4651 19.7015C14.8447 19.5361 16.0333 18.5233 16.0452 18.5131C16.2139 18.3678 16.4684 18.3852 16.6153 18.5524C16.6527 18.5947 17.5711 19.605 18.8403 19.3097C19.9122 19.0601 20.2572 18.5662 20.2602 18.5612C20.3774 18.3705 20.627 18.3108 20.8178 18.428C21.0088 18.5453 21.0683 18.7951 20.9512 18.9859C20.9022 19.0653 20.4335 19.7715 19.0241 20.0995C17.7426 20.3981 16.7456 19.7467 16.2843 19.3544C15.799 19.7086 14.7626 20.363 13.5613 20.5068C13.4601 20.5188 13.3603 20.5244 13.2622 20.5244Z" fill="#737373"/>
<path d="M24.3622 8.12573C24.1442 8.12573 23.9641 7.95238 23.9571 7.73304C23.9502 7.50903 24.1259 7.32178 24.3499 7.3151L25.9248 7.26604C26.1482 7.25816 26.336 7.43485 26.3428 7.65873C26.3497 7.88261 26.174 8.06973 25.9501 8.07668L24.3751 8.12547C24.3706 8.1256 24.3664 8.12573 24.3622 8.12573Z" fill="#737373"/>
<path d="M6.00886 7.20343L3.97778 7.25342L6.00886 7.20343Z" fill="#737373"/>
<path d="M3.97764 7.65894C3.75804 7.65894 3.57774 7.48398 3.57239 7.26357C3.56691 7.03956 3.74401 6.85364 3.96775 6.84816L5.99896 6.79831C6.22084 6.7947 6.40863 6.96979 6.41424 7.19354C6.41972 7.41755 6.24276 7.60347 6.01875 7.60895L3.98767 7.6588C3.98433 7.65894 3.98085 7.65894 3.97764 7.65894Z" fill="#737373"/>
<path d="M7.45063 14.3909C7.24653 14.3909 7.07103 14.2376 7.04805 14.0301C7.02332 13.8076 7.18384 13.6071 7.40625 13.5822L8.81274 13.4263C9.03542 13.4023 9.23591 13.5621 9.26077 13.7845C9.28536 14.0071 9.12497 14.2076 8.90229 14.2322L7.4958 14.3883C7.4807 14.3901 7.46546 14.3909 7.45063 14.3909Z" fill="#737373"/>
<path d="M7.9002 16.8999C7.71428 16.8999 7.54667 16.7712 7.5047 16.5822C7.45619 16.3637 7.59426 16.147 7.81279 16.0986L9.03897 15.8265C9.25764 15.7782 9.47417 15.9158 9.52268 16.1343C9.5712 16.353 9.4334 16.5695 9.2146 16.6182L7.98842 16.8903C7.95888 16.897 7.92947 16.8999 7.9002 16.8999Z" fill="#737373"/>
<path d="M8.27074 19.1975C8.08254 19.1975 7.9136 19.0656 7.8739 18.8739C7.82873 18.6546 7.96974 18.4401 8.18934 18.3948C8.19562 18.3934 8.82716 18.2628 9.45148 18.1119C9.66934 18.0593 9.88827 18.1932 9.9408 18.4109C9.99346 18.6287 9.85954 18.8477 9.64181 18.9003C9.00399 19.0545 8.35962 19.1876 8.3532 19.1891C8.32554 19.1947 8.29787 19.1975 8.27074 19.1975Z" fill="#737373"/>
<path d="M22.1715 13.8103C21.9492 13.8103 21.768 13.6311 21.7661 13.4081C21.7643 13.1842 21.9444 13.0011 22.1683 12.9994C22.1751 12.9994 22.8736 12.9928 23.5491 12.9414C23.7721 12.925 23.9671 13.0916 23.9841 13.315C24.001 13.5383 23.834 13.7332 23.6106 13.7502C22.9069 13.8038 22.2045 13.81 22.175 13.8103H22.1715Z" fill="#737373"/>
<path d="M23.447 16.395C23.4165 16.395 23.3855 16.3918 23.3545 16.3845C23.053 16.3139 22.0735 16.1296 22.0635 16.1276C21.8436 16.086 21.6988 15.8743 21.7401 15.654C21.7816 15.434 21.9936 15.2895 22.2136 15.3306C22.2546 15.3383 23.2206 15.5204 23.539 15.5948C23.757 15.6457 23.8925 15.8637 23.8416 16.0819C23.798 16.2688 23.6312 16.395 23.447 16.395Z" fill="#737373"/>
<path d="M23.2263 19.1809C23.1705 19.1809 23.1137 19.1693 23.0595 19.1447C22.6553 18.9618 21.9062 18.6663 21.8988 18.6637C21.6906 18.5816 21.5881 18.3459 21.6701 18.1376C21.7523 17.9292 21.9876 17.827 22.1961 17.9089C22.2275 17.9213 22.9712 18.2147 23.3938 18.4058C23.5979 18.4982 23.6885 18.7384 23.5962 18.9425C23.5284 19.0923 23.3808 19.1809 23.2263 19.1809Z" fill="#737373"/>
<path d="M21.0765 10.7736C21.0765 10.7736 21.0765 9.40642 21.9834 9.30216C22.8902 9.19778 22.85 10.1803 22.8298 10.3462C22.8097 10.5124 22.7945 10.8922 22.6938 11.025C22.593 11.1576 22.4823 11.2954 21.9228 11.2954C21.3636 11.2954 21.0312 11.1196 21.0765 10.7736Z" fill="#737373"/>
<path d="M9.98022 11.0063C9.98022 11.0063 9.98022 9.63908 9.07335 9.53496C8.16647 9.43044 8.20684 10.413 8.22702 10.5791C8.24707 10.7451 8.26217 11.1248 8.36295 11.2577C8.46373 11.3904 8.57467 11.5281 9.1339 11.5281C9.69312 11.5281 10.0257 11.3526 9.98022 11.0063Z" fill="#737373"/>
<path d="M9.47222 8.81494C9.37438 8.81494 9.27587 8.7826 9.19394 8.7163C9.1775 8.70334 8.6422 8.29461 7.63267 8.21214C7.38928 8.19236 7.20791 7.97878 7.22795 7.73525C7.24774 7.49186 7.46052 7.31048 7.70472 7.3304C9.01992 7.43786 9.72443 8.00684 9.75384 8.03104C9.94243 8.18635 9.9693 8.46516 9.81412 8.65375C9.7267 8.75987 9.59986 8.81494 9.47222 8.81494Z" fill="#737373"/>
<path d="M21.2721 8.62964C21.1557 8.62964 21.0393 8.58353 20.952 8.49264C20.7831 8.31608 20.7905 8.03459 20.967 7.86551C20.9929 7.84065 21.6168 7.25416 22.7807 7.14336C23.0242 7.11943 23.24 7.29854 23.2631 7.54166C23.2861 7.78492 23.1078 8.00091 22.8645 8.02403C22.0234 8.10409 21.5937 8.49104 21.5757 8.50748C21.4905 8.58914 21.3812 8.62964 21.2721 8.62964Z" fill="#737373"/>
</svg>
