<svg width="72" height="72" viewBox="0 0 72 72" fill="none" xmlns="http://www.w3.org/2000/svg">
<g clip-path="url(#clip0_1141_22266)">
<path d="M22.4778 51.5903C22.4778 51.5903 21.0079 66.5572 20.7109 69.3351C20.4144 72.1127 19.3657 83.3318 19.1521 85.6506L26.3256 85.4081L30.0828 73.569C30.0828 73.569 34.182 73.1107 38.2267 72.9758C42.2714 72.8411 46.2094 73.6497 46.2094 73.6497L49.7548 85.1656L56.8471 85.2731C56.8471 85.2731 56.047 75.0792 55.8584 71.0073C55.6693 66.9349 53.8143 51.725 53.8143 51.725C53.5828 43.8571 50.8478 41.9635 50.8478 41.9635C50.8478 41.9635 45.3731 38.1339 37.7416 38.2957C30.1096 38.4575 22.99 42.7724 22.99 42.7724L22.4778 51.5903Z" fill="#C8B595"/>
<path d="M23.7057 43.2141L23.2166 51.633C23.2161 51.6427 23.215 51.6529 23.2145 51.6625C23.1995 51.812 21.7405 66.664 21.4467 69.4135C21.1747 71.9579 20.2816 81.4863 19.9663 84.8826L25.778 84.6857L29.3774 73.345C29.4659 73.0668 29.7101 72.8658 30.0003 72.8334C30.0417 72.8288 34.1747 72.3703 38.2022 72.2359C38.5118 72.2254 38.833 72.2201 39.1563 72.2201C42.8863 72.2201 46.2182 72.8959 46.3585 72.9246C46.6233 72.9788 46.8371 73.1736 46.9168 73.4317L50.304 84.4335L56.0464 84.5207C55.8535 82.0223 55.2751 74.4074 55.1192 71.0417C54.9336 67.0429 53.0985 51.966 53.0797 51.8144C53.077 51.7916 53.0754 51.7693 53.0746 51.7465C52.86 44.4689 50.4405 42.5825 50.4161 42.5643C50.3726 42.534 45.042 38.8801 37.7571 39.0352C31.3203 39.1717 25.1773 42.3893 23.7057 43.2141ZM19.1518 86.3904C18.9487 86.3904 18.7539 86.3067 18.6139 86.1583C18.4682 86.0038 18.3957 85.7942 18.4151 85.5826C18.619 83.3724 19.6747 72.0693 19.9752 69.256C20.2638 66.5508 21.6866 52.0763 21.74 51.5324L22.2513 42.729C22.2656 42.4859 22.3984 42.2657 22.6065 42.139C22.9043 41.9587 29.9845 37.7197 37.7257 37.5555C45.5112 37.3916 51.0447 41.1981 51.2717 41.357C51.3927 41.4412 54.3058 43.5489 54.5531 51.6687C54.6736 52.6598 56.4121 66.975 56.5978 70.9728C56.7754 74.815 57.51 84.2591 57.5797 85.1485C57.5864 85.1887 57.5902 85.23 57.5902 85.273C57.5902 85.6813 57.2588 86.0126 56.85 86.0126H56.847C56.8435 86.0126 56.8398 86.0126 56.8357 86.0124L49.7438 85.905C49.4229 85.9002 49.1423 85.6891 49.0476 85.3829L45.6338 74.2945C44.6272 74.1161 41.9779 73.7002 39.1563 73.7002C38.8491 73.7002 38.5448 73.7048 38.2513 73.715C35.078 73.821 31.8338 74.1314 30.6418 74.2537L27.0309 85.6317C26.9359 85.9303 26.6634 86.1366 26.35 86.1473L19.177 86.3901C19.1687 86.3904 19.1604 86.3904 19.1518 86.3904Z" fill="black"/>
<path d="M24.4768 39.2142C24.4768 39.2142 19.4459 43.8935 18.7987 52.1045C18.2356 59.2469 17.9963 67.8282 19.3262 68.9395C20.3623 69.8055 33.9236 70.0033 35.2232 69.2282C36.5219 68.4528 34.8527 51.3772 35.9049 44.7786L24.4768 39.2142Z" fill="#D51317"/>
<path d="M19.7837 68.3546C20.4238 68.6553 24.1469 68.973 28.7837 68.973H28.7848C32.3496 68.973 34.2271 68.7766 34.7505 68.6245C35.1175 67.6323 35.0024 62.7886 34.909 58.87C34.7934 54.0265 34.6636 48.5713 35.0958 45.2078L24.6352 40.1145C23.5185 41.3315 20.0538 45.5989 19.5366 52.1624C18.6856 62.9552 19.2128 67.7316 19.7837 68.3546ZM28.7853 70.4529H28.7837C26.6307 70.4529 24.4007 70.3791 22.6643 70.2501C19.4558 70.0126 19.0628 69.684 18.8516 69.5074C18.2711 69.0224 17.6698 67.8454 17.6124 62.7924C17.5805 59.9407 17.7398 56.124 18.061 52.0462C18.7234 43.645 23.7589 38.8718 23.973 38.6728C24.197 38.4646 24.5257 38.4152 24.8007 38.5493L36.2288 44.1134C36.5217 44.2559 36.6867 44.5733 36.6355 44.8952C36.1316 48.0573 36.2679 53.7829 36.3884 58.8348C36.5864 67.1392 36.5349 69.3073 35.6023 69.8637C34.9471 70.2546 32.6535 70.4529 28.7853 70.4529Z" fill="black"/>
<path d="M51.4768 38.3365C51.4768 38.3365 55.6674 42.7595 57.0934 50.2287C58.4389 57.2764 58.5422 66.9349 57.3459 67.9751C55.8137 69.3074 43.1262 70.1965 41.8529 69.1467C40.5794 68.0972 42.4778 50.1772 41.4256 43.5781L51.4768 38.3365Z" fill="#D51317"/>
<path d="M42.3678 68.5905C42.5663 68.6664 43.3111 68.8687 45.6012 68.8687C50.4291 68.8687 56.0983 68.0443 56.8509 67.4245C57.0408 67.1836 57.5028 65.6165 57.4304 61.1734C57.3716 57.589 56.9738 53.5493 56.3666 50.3674C55.2403 44.4674 52.3224 40.5069 51.3 39.2634L42.2323 43.9923C42.6694 47.4307 42.4735 53.2215 42.2997 58.3611C42.1599 62.499 41.9863 67.6225 42.3678 68.5905ZM45.6012 70.3486C42.1478 70.3486 41.6115 69.9065 41.3826 69.7179C40.5689 69.0474 40.5327 66.8174 40.8203 58.3115C41.0011 52.9637 41.2066 46.9022 40.6953 43.6945C40.6451 43.3803 40.8015 43.0691 41.0838 42.9221L51.1344 37.6807C51.4279 37.5278 51.7867 37.5879 52.0142 37.828C52.1912 38.0148 56.3704 42.4955 57.8205 50.09C58.4561 53.4206 58.8647 57.6282 58.9127 61.3451C58.9934 67.5233 58.1188 68.2833 57.8318 68.5334C56.4415 69.742 49.2414 70.3486 45.6012 70.3486Z" fill="black"/>
<path d="M47.4807 65.9397C47.4807 66.4159 47.0943 66.802 46.6176 66.802C46.1414 66.802 45.7548 66.4159 45.7548 65.9397C45.7548 65.4624 46.1414 65.0764 46.6176 65.0764C47.0943 65.0764 47.4807 65.4624 47.4807 65.9397Z" fill="white"/>
<path d="M46.6177 64.3367C45.7342 64.3367 45.0149 65.0557 45.0149 65.94C45.0149 66.8235 45.7342 67.5422 46.6177 67.5422C47.5019 67.5422 48.2207 66.8235 48.2207 65.94C48.2207 65.0557 47.5019 64.3367 46.6177 64.3367ZM46.6177 65.0766C47.0941 65.0766 47.4807 65.4624 47.4807 65.94C47.4807 66.4162 47.0941 66.802 46.6177 66.802C46.1414 66.802 45.7548 66.4162 45.7548 65.94C45.7548 65.4624 46.1414 65.0766 46.6177 65.0766Z" fill="black"/>
<path d="M50.623 37.2114C50.623 37.2114 60.7257 32.1472 62.6845 45.7307C62.6845 45.7307 63.858 52.507 59.373 58.4869C56.116 62.8297 50.4274 64.7322 46.2748 64.6801C46.2748 64.6801 37.4476 64.3952 33.959 61.4765C33.959 61.4765 34.1731 61.4056 35.0984 59.9104C36.0235 58.4155 36.9491 55.8525 36.3084 54.4293C36.3084 54.4293 36.9491 52.1515 46.6306 53.788C46.6306 53.788 46.8439 52.4359 48.2682 51.2967C48.2682 51.2967 47.6393 41.4209 50.623 37.2114Z" fill="white"/>
<path d="M35.0376 61.3499C38.6282 63.6631 46.2178 63.9378 46.2988 63.9402C46.3361 63.9407 46.3887 63.9407 46.4416 63.9407C50.3814 63.9407 55.7252 62.1169 58.7813 58.0426C63.0101 52.4042 61.9661 45.9202 61.9551 45.8555C61.9541 45.8496 61.953 45.8421 61.9519 45.8362C61.1092 39.9909 58.6799 37.0271 54.7306 37.0271C53.0479 37.0271 51.5935 37.5916 51.1176 37.7987C48.4422 41.8405 49.0005 51.1545 49.0064 51.2498C49.0217 51.4904 48.9184 51.7238 48.7303 51.8746C47.563 52.808 47.3631 53.8927 47.3618 53.9034C47.3307 54.099 47.2234 54.2734 47.0624 54.3888C46.9022 54.5041 46.7021 54.5506 46.5073 54.5176C44.2249 54.1318 42.2688 53.9359 40.6932 53.9359C38.3714 53.9359 37.4646 54.3531 37.1432 54.5801C37.6409 56.4702 36.4735 59.0949 35.7274 60.2998C35.4468 60.7532 35.2211 61.0934 35.0376 61.3499ZM46.4416 65.4209C46.3823 65.4209 46.3238 65.4206 46.2656 65.4198C45.8803 65.4078 37.1265 65.0914 33.4845 62.0439C33.2785 61.8717 33.1821 61.6015 33.2323 61.338C33.2685 61.146 33.3785 60.9796 33.5344 60.8704C33.5964 60.806 33.8566 60.5101 34.4691 59.5209C35.3937 58.0273 36.1017 55.7724 35.6338 54.7327C35.5621 54.5742 35.549 54.3958 35.5962 54.2286C35.7135 53.8128 36.4268 52.4563 40.6932 52.4563C42.2002 52.4563 44.0221 52.6237 46.1161 52.954C46.3294 52.4233 46.7396 51.6742 47.5099 50.9716C47.4246 49.0814 47.2209 40.7312 50.0195 36.7833C50.0898 36.684 50.1829 36.604 50.2912 36.5496C50.3731 36.5085 52.3192 35.5472 54.7306 35.5472C56.7753 35.5472 58.5261 36.222 59.9341 37.553C61.7142 39.2354 62.8853 41.9479 63.4154 45.6151C63.4863 46.0353 64.5409 52.8297 59.9652 58.9307C56.6025 63.4138 50.7498 65.4209 46.4416 65.4209Z" fill="black"/>
<path d="M32.1162 52.0561C32.1162 52.0561 28.706 48.5155 27.5693 49.818C27.5693 49.818 26.414 51.0809 29.1353 54.4246C29.1353 54.4246 31.6153 51.8162 32.1162 52.0561Z" fill="#DEB972"/>
<path d="M28.1396 50.2918C27.9866 50.5569 27.9421 51.5332 29.2025 53.2961C29.8993 52.6018 30.4283 52.1492 30.831 51.8538C29.9382 51.065 28.8256 50.2701 28.2423 50.2701C28.1793 50.2701 28.1543 50.28 28.1396 50.2918ZM29.1352 55.1648C29.1258 55.1648 29.1164 55.1645 29.1065 55.1643C28.8943 55.1562 28.6955 55.0567 28.5613 54.8919C25.6123 51.2687 26.7391 49.6356 27.0165 49.326C27.3253 48.9756 27.7489 48.7902 28.2423 48.7902C29.8692 48.7902 32.0853 50.9631 32.6101 51.5024C32.7627 51.6381 32.8593 51.8358 32.8593 52.0561C32.8593 52.4607 32.5344 52.7893 32.1317 52.7958C32.1135 52.7966 32.0947 52.7961 32.0764 52.795C31.6872 52.99 30.6269 53.9301 29.6712 54.9346C29.5312 55.0819 29.3375 55.1648 29.1352 55.1648Z" fill="black"/>
<path d="M42.3596 52.2227C42.3596 52.2227 45.9904 51.1546 47.3423 53.148C47.3423 53.148 48.4104 54.1447 43.7834 55.3547C43.7834 55.3547 44.0678 54.1447 42.3596 52.2227Z" fill="#DEB972"/>
<path d="M43.6805 52.7225C44.1149 53.3819 44.3368 53.9499 44.4452 54.3995C45.9028 53.9571 46.441 53.6008 46.6306 53.4313C46.21 52.9298 45.4794 52.676 44.4559 52.676C44.1838 52.676 43.9201 52.6948 43.6805 52.7225ZM43.7498 56.0986C43.5585 56.0986 43.372 56.0329 43.2384 55.8912C43.056 55.6991 42.983 55.4512 43.0586 55.1991C43.0683 55.077 43.0914 54.1592 41.8063 52.7136C41.638 52.5242 41.5782 52.2615 41.648 52.0179C41.718 51.7743 41.9074 51.5836 42.1505 51.5119C42.1945 51.4991 43.2384 51.1964 44.4559 51.1964C46.0393 51.1964 47.237 51.7113 47.9238 52.687C48.1108 52.9084 48.2616 53.2813 48.1519 53.7159C47.916 54.6493 46.6261 55.3756 43.9706 56.0702C43.8981 56.0892 43.8235 56.0986 43.7498 56.0986Z" fill="black"/>
<path d="M38.3016 51.7949C38.3016 51.7949 41.7186 50.6558 42.7153 52.4359C42.7153 52.4359 44.2815 54.5001 43.1424 56.5643C43.1424 56.5643 42.0746 57.9882 40.295 57.8457C40.295 57.8457 40.7932 53.8592 38.3016 51.7949Z" fill="#D51317"/>
<path d="M39.7174 52.2337C40.9013 53.8628 41.083 55.905 41.0765 57.053C41.8763 56.8625 42.4013 56.2965 42.5232 56.1535C43.3546 54.5641 42.1749 52.949 42.1237 52.88C42.1046 52.8543 42.0853 52.825 42.0697 52.7974C41.8387 52.3848 41.3105 52.176 40.4997 52.176C40.2309 52.176 39.9642 52.1991 39.7174 52.2337ZM40.5442 58.5957C40.442 58.5957 40.3382 58.5914 40.2357 58.5836C40.0345 58.5673 39.8483 58.4693 39.7211 58.3129C39.5934 58.1562 39.5355 57.9542 39.5604 57.7538C39.5645 57.7192 39.9717 54.1397 37.8294 52.3646C37.6223 52.1935 37.5249 51.9233 37.5743 51.6588C37.6239 51.3948 37.8125 51.178 38.0677 51.0932C38.116 51.0769 39.2728 50.6961 40.4997 50.6961C42.1886 50.6961 42.9741 51.4125 43.3369 52.0322C43.5867 52.3821 45.0622 54.6164 43.7903 56.9221C43.7734 56.9524 43.7549 56.9811 43.7345 57.0085C43.6857 57.0734 42.521 58.5957 40.5442 58.5957Z" fill="black"/>
<path d="M40.3662 53.4327C37.3898 49.2442 30.3998 53.2905 30.3998 53.2905C29.5455 51.9378 27.9079 51.9378 27.9079 51.9378C26.413 42.3985 22.5606 37.6639 22.5606 37.6639C22.5606 37.6639 13.0299 35.9914 12.8874 49.2326C12.7863 58.6464 19.152 66.3177 25.2057 66.0926C25.2057 66.0926 29.9729 66.033 33.5318 62.3311C33.5318 62.3311 36.4508 58.8431 41.2201 57.8461C41.2201 57.8461 42.2882 56.1382 40.3662 53.4327Z" fill="white"/>
<path d="M21.553 38.3351C20.5145 38.3351 18.5189 38.5529 16.8252 40.01C14.7503 41.7955 13.6739 44.9012 13.6272 49.24C13.5738 54.2125 15.4272 59.0871 18.5849 62.2792C20.5477 64.2638 22.8065 65.3565 24.9447 65.3568C25.0258 65.3584 25.1003 65.3554 25.1784 65.3525C25.184 65.3519 25.1905 65.3519 25.1964 65.3517C25.2396 65.3509 29.6948 65.2395 32.983 61.8341C33.2596 61.5103 36.0932 58.3056 40.6893 57.2066C40.8315 56.7224 40.9627 55.5494 39.7629 53.8605C39.0036 52.7922 37.8897 52.2728 36.3567 52.2728C33.6647 52.2728 30.7991 53.9136 30.7704 53.9303C30.4262 54.1293 29.9864 54.0212 29.7739 53.6851C29.155 52.7047 27.9203 52.6774 27.908 52.6774C27.5437 52.6774 27.2335 52.412 27.1772 52.052C25.9095 43.9651 22.9103 39.4012 22.1591 38.3605C22.0086 38.3474 21.802 38.3351 21.553 38.3351ZM24.9458 66.8367H24.9447C22.4081 66.8361 19.7756 65.5875 17.5327 63.3199C14.1029 59.8528 12.0899 54.5833 12.1473 49.2242C12.1988 44.4411 13.448 40.9635 15.8599 38.8885C17.9161 37.1194 20.3092 36.8552 21.553 36.8552C22.2178 36.8552 22.6417 36.9263 22.6879 36.9343C22.8633 36.9652 23.0219 37.058 23.1343 37.1962C23.2934 37.392 26.984 42.0128 28.5492 51.2704C29.1102 51.3804 29.9352 51.6565 30.5981 52.3476C31.6539 51.8207 34.0124 50.7931 36.3567 50.7931C38.3748 50.7931 39.9268 51.5368 40.9691 53.0036C43.1519 56.0758 41.902 58.151 41.8475 58.2382C41.7405 58.4088 41.5685 58.529 41.3713 58.5704C36.9255 59.4994 34.1264 62.7734 34.0985 62.8064C34.088 62.819 34.0765 62.8319 34.0652 62.8437C30.3814 66.6749 25.546 66.8259 25.2251 66.8318C25.1317 66.8351 25.0389 66.8367 24.9458 66.8367Z" fill="black"/>
<path d="M18.0897 11.0012L6.74537 11.3803C6.74537 11.3803 6.4972 14.724 9.49266 17.2645C12.4876 19.8057 19.0958 20.2202 19.0958 20.2202L18.0897 11.0012Z" fill="#C8B595"/>
<path d="M7.50483 12.0956C7.60222 13.1022 8.04919 15.0707 9.97095 16.7005C12.1197 18.5236 16.4123 19.1892 18.2616 19.3985L17.4283 11.7642L7.50483 12.0956ZM19.0958 20.9604C19.0805 20.9604 19.0649 20.9599 19.0493 20.9588C18.7698 20.9414 12.1602 20.4985 9.01396 17.829C5.76846 15.0763 5.99624 11.4777 6.00724 11.3259C6.03541 10.9489 6.34287 10.6535 6.72062 10.6409L18.065 10.2618C18.4535 10.2497 18.7832 10.5365 18.825 10.921L19.8314 20.14C19.855 20.3573 19.7818 20.5736 19.6307 20.7313C19.4909 20.8781 19.2972 20.9604 19.0958 20.9604Z" fill="black"/>
<path d="M19.5228 10.9497L23.0143 1.73982L26.3532 10.3597L19.5228 10.9497Z" fill="#DEB972"/>
<path d="M23.022 3.80809L20.6323 10.1113L25.307 9.70754L23.022 3.80809ZM19.5229 11.6899C19.2922 11.6899 19.073 11.5824 18.9324 11.3962C18.779 11.1931 18.7406 10.9253 18.8307 10.6879L22.3228 1.47799C22.4315 1.19145 22.7056 1.0015 23.0118 1.00016H23.015C23.32 1.00016 23.5942 1.18796 23.7048 1.47316L27.0431 10.0925C27.1273 10.3096 27.104 10.554 26.9808 10.7515C26.8577 10.9489 26.6487 11.0769 26.4166 11.097L19.5862 11.6873C19.5653 11.6891 19.5438 11.6899 19.5229 11.6899Z" fill="black"/>
<path d="M46.4011 10.477L49.8833 1.79161L52.8779 11.4133L46.4011 10.477Z" fill="#DEB972"/>
<path d="M47.4384 9.87948L51.823 10.5135L49.7953 3.99962L47.4384 9.87948ZM52.8782 12.1541C52.8433 12.1541 52.8079 12.1514 52.7728 12.146L46.2955 11.2097C46.0709 11.1775 45.8737 11.0433 45.7605 10.8467C45.647 10.6503 45.6301 10.4126 45.7143 10.202L49.1965 1.51659C49.3126 1.22576 49.6 1.03742 49.9128 1.05271C50.2256 1.06505 50.4966 1.27325 50.5897 1.57186L53.565 11.1311C53.6012 11.2183 53.6211 11.3138 53.6211 11.4138C53.6211 11.8219 53.2906 12.153 52.8828 12.1541H52.8782Z" fill="black"/>
<path d="M53.259 11.5219L54.8728 11.534L65.302 12.549C65.302 12.549 65.5727 15.5482 62.9145 17.9078C59.9378 20.551 53.9402 20.855 53.9402 20.855L53.259 11.5219Z" fill="#C8B595"/>
<path d="M54.0552 12.2681L54.6237 20.0541C56.257 19.8808 60.2621 19.2734 62.4234 17.3543C64.0919 15.8734 64.4718 14.1217 64.5509 13.2194L54.8338 12.2737L54.0552 12.2681ZM53.9395 21.5955C53.5543 21.5955 53.2307 21.2974 53.202 20.9092L52.5208 11.5761C52.5061 11.3698 52.5774 11.167 52.7191 11.0162C52.8599 10.8654 53.0579 10.775 53.2645 10.7823L54.878 10.7943C54.9003 10.7943 54.9223 10.7957 54.9443 10.7978L65.3735 11.8125C65.7274 11.8471 66.0067 12.1283 66.0386 12.4824C66.0512 12.6201 66.3101 15.8835 63.4061 18.461C60.2704 21.2451 54.2333 21.5815 53.9776 21.5944C53.965 21.5952 53.9522 21.5955 53.9395 21.5955Z" fill="black"/>
<path d="M18.027 11.1219C18.7034 10.5904 46.6769 7.72743 53.4683 11.6209C54.1286 11.9997 54.0047 19.6457 53.9805 21.8846C53.9561 24.1232 53.4957 32.0212 53.3954 34.0165C53.295 36.0115 52.953 40.0192 52.3394 41.4393C51.7261 42.8591 48.626 47.5973 39.9374 48.3314C31.2486 49.0662 24.7992 45.7507 23.2589 42.0896C21.7184 38.4277 20.4872 29.3455 20.4872 29.3455L18.254 15.9269C18.254 15.9269 17.3507 11.6528 18.027 11.1219Z" fill="#C8B595"/>
<path d="M18.5413 11.7343C18.4385 12.3304 18.625 14.1009 18.9781 15.7742C18.9802 15.7847 18.9821 15.7954 18.9837 15.8056L21.2172 29.2242C21.2186 29.2314 21.2196 29.2389 21.2207 29.2462C21.2328 29.336 22.4559 38.2733 23.9409 41.8024C25.1729 44.7306 30.2358 47.6946 37.5292 47.6946C38.2992 47.6946 39.0888 47.6608 39.8751 47.5943C49.1102 46.8141 51.5605 41.3769 51.66 41.1459C52.1878 39.9239 52.5451 36.1906 52.6565 33.9796C52.6793 33.5251 52.7206 32.7648 52.7716 31.8346C52.94 28.7512 53.2218 23.5901 53.2405 21.8765L53.2448 21.5119C53.3224 14.9084 53.1348 12.7621 52.9476 12.1788C50.6904 10.9815 45.77 10.3494 38.6901 10.3494C29.389 10.3494 20.1424 11.3893 18.5413 11.7343ZM37.5292 49.1748C30.4094 49.1748 24.2607 46.3792 22.5769 42.3766C21.0291 38.6983 19.8253 29.9684 19.7556 29.4562L17.5266 16.0645C16.5326 11.3533 17.3136 10.7411 17.5701 10.5401C17.7351 10.41 17.8912 10.2874 19.9675 10.0153C21.2618 9.84578 22.9807 9.66549 24.8075 9.50693C27.558 9.26922 33.0193 8.86947 38.6901 8.86947C46.2988 8.86947 51.395 9.57937 53.8367 10.9793C54.4621 11.3377 54.8334 12.2271 54.7244 21.5293L54.7204 21.8926C54.7008 23.6383 54.4186 28.8198 54.2493 31.9154C54.1986 32.8426 54.157 33.6008 54.1345 34.0537C54.1047 34.6444 53.8208 39.8756 53.0189 41.7327C52.7327 42.3948 49.9368 48.2291 39.9999 49.0691C39.1717 49.1391 38.3408 49.1748 37.5292 49.1748Z" fill="black"/>
<path d="M28.9476 27.9004C28.2731 23.9597 27.1069 10.993 27.4479 10.0585C27.4479 10.0585 29.6282 9.30837 34.9946 9.29469C40.3601 9.28047 45.2325 10.0623 45.8651 11.0713C46.2362 11.6634 46.6491 13.2254 46.7285 16.2928C46.7285 16.2928 46.9115 23.3166 46.4178 26.8372" fill="#8E7F66"/>
<path d="M28.9471 28.6411C28.5932 28.6411 28.2804 28.3865 28.2184 28.0259C27.6915 24.9478 26.2856 11.0847 26.753 9.80522C26.8295 9.59568 26.9963 9.43203 27.2072 9.35959C27.3009 9.32712 29.566 8.5692 34.9924 8.55552C37.6367 8.54881 40.2399 8.73071 42.3232 9.06956C45.4767 9.58173 46.2129 10.2334 46.4921 10.6785C47.051 11.5714 47.3979 13.5586 47.4685 16.2742C47.476 16.5635 47.6471 23.3998 47.1505 26.9404C47.0937 27.345 46.7199 27.6272 46.3148 27.5704C45.9102 27.5138 45.6283 27.1395 45.6849 26.7349C46.1643 23.3158 45.9907 16.3824 45.9891 16.3126C45.8949 12.6893 45.3471 11.6384 45.2382 11.4646C44.8156 10.9489 41.0212 10.0217 34.9965 10.0351C31.1583 10.0451 28.9844 10.4413 28.1234 10.6436C28.0502 13.0118 29.0235 23.9589 29.6771 27.7759C29.7463 28.1788 29.4756 28.5612 29.0729 28.6304C29.0305 28.6374 28.9884 28.6411 28.9471 28.6411Z" fill="black"/>
<path d="M30.7481 17.0908C30.4441 17.0908 30.1857 16.8582 30.1592 16.5499C29.8984 13.5376 29.7709 9.69055 29.7699 9.65192C29.7589 9.32541 30.0154 9.05175 30.3419 9.04102C30.6689 9.03566 30.9426 9.28678 30.953 9.61355C30.9544 9.65138 31.0807 13.4678 31.3386 16.448C31.367 16.7734 31.1253 17.0605 30.7996 17.0887C30.7824 17.09 30.7652 17.0908 30.7481 17.0908Z" fill="black"/>
<path d="M32.3223 27.1682C32.0556 27.1682 31.813 26.986 31.7473 26.7153C31.3755 25.1762 30.8214 22.1525 30.7978 22.0243C30.7391 21.7029 30.9521 21.3943 31.2738 21.3356C31.5955 21.276 31.9037 21.4898 31.9625 21.8112C31.9681 21.8421 32.5339 24.9304 32.898 26.4366C32.9753 26.7545 32.7797 27.0743 32.462 27.1516C32.4153 27.1626 32.3684 27.1682 32.3223 27.1682Z" fill="black"/>
<path d="M35.2178 26.9438C34.9254 26.9438 34.6708 26.7263 34.6319 26.4282C34.6279 26.3976 34.2289 23.3098 33.8705 18.5541C33.5123 13.8097 33.2679 9.77887 33.2658 9.73862C33.2459 9.41211 33.4943 9.13175 33.8209 9.1119C34.1474 9.09392 34.4277 9.34102 34.4476 9.66699C34.4497 9.70723 34.6939 13.73 35.0512 18.4653C35.407 23.1891 35.8022 26.2452 35.8057 26.2753C35.8483 26.5994 35.6195 26.8966 35.2954 26.9388C35.2693 26.9422 35.2436 26.9438 35.2178 26.9438Z" fill="black"/>
<path d="M41.1277 26.6777C40.8065 26.6777 40.5425 26.4207 40.5361 26.098C40.3952 19.2201 39.4613 9.95168 39.4519 9.85885C39.4189 9.53341 39.6558 9.24312 39.9813 9.21012C40.3056 9.17766 40.5967 9.41375 40.6297 9.73919C40.6394 9.83229 41.5778 19.1479 41.7198 26.0735C41.7265 26.4009 41.467 26.6713 41.1397 26.6775C41.136 26.6777 41.1317 26.6777 41.1277 26.6777Z" fill="black"/>
<path d="M38.1607 26.7402C37.8484 26.7402 37.5868 26.4956 37.5702 26.1798C37.5659 26.102 37.1514 18.3666 36.9649 15.7631C36.9413 15.4369 37.1868 15.1536 37.5131 15.1305C37.8385 15.102 38.1224 15.3524 38.1454 15.6783C38.3338 18.2926 38.7483 26.0387 38.7523 26.1165C38.77 26.4432 38.5194 26.722 38.1926 26.7392C38.1822 26.74 38.1714 26.7402 38.1607 26.7402Z" fill="black"/>
<path d="M32.4127 19.249C32.1328 19.249 31.8839 19.0497 31.8313 18.7642C31.7717 18.4428 31.9845 18.1343 32.3059 18.0747C33.2224 17.9054 34.1769 17.7605 34.1866 17.7592C34.5096 17.7117 34.8114 17.9325 34.8605 18.2561C34.9096 18.5791 34.687 18.8807 34.3637 18.9298C34.3545 18.9311 33.4182 19.0736 32.5208 19.2391C32.4846 19.2455 32.4484 19.249 32.4127 19.249Z" fill="black"/>
<path d="M43.7816 21.0632C43.7733 21.0632 43.765 21.063 43.7561 21.0624C43.4296 21.0487 43.1758 20.7727 43.19 20.4462C43.3381 16.9482 42.5177 10.4301 42.5094 10.3649C42.4683 10.0405 42.698 9.74404 43.0224 9.70299C43.3462 9.66114 43.6426 9.89133 43.684 10.2157C43.7183 10.4869 44.525 16.8994 44.3727 20.4961C44.359 20.814 44.0971 21.0632 43.7816 21.0632Z" fill="black"/>
<path d="M45.9486 31.1449L45.6208 33.4176C45.6208 33.4176 43.2588 34.297 42.7069 33.864C42.6806 33.8436 41.3367 31.7788 41.3367 31.7788L39.8327 34.3646L37.7084 34.6927L36.0842 32.1585L34.3674 35.3315C34.3674 35.3315 31.5417 35.4096 31.021 35.2111C31.021 35.2111 29.6232 31.8075 28.9487 27.8672C28.9487 27.8672 30.5394 26.9982 33.8292 26.5936C37.1184 26.1877 44.5943 26.23 46.4678 26.6974C46.4678 26.6974 46.0149 30.5079 45.9486 31.1449Z" fill="#DEB972"/>
<path d="M31.5598 34.5566C31.8181 34.5805 32.2984 34.6065 33.1623 34.6065C33.4483 34.6065 33.7144 34.6036 33.9221 34.6004L35.4336 31.8064C35.5581 31.5762 35.7953 31.4289 36.0571 31.419C36.3192 31.4098 36.5661 31.5386 36.7074 31.7592L38.0712 33.8875L39.3705 33.6871L40.6972 31.4066C40.826 31.1848 41.0615 31.0452 41.3183 31.0391C41.575 31.0332 41.8165 31.1595 41.9571 31.375C42.3394 31.9625 42.9243 32.8578 43.1797 33.2431C43.1901 33.2433 43.2017 33.2433 43.2137 33.2433C43.6757 33.2433 44.4377 33.0314 44.9528 32.8645L45.2144 31.0533C45.267 30.5508 45.5181 28.4235 45.6506 27.3023C44.4937 27.1494 42.4255 27.0552 40.0471 27.0552C37.5925 27.0552 35.3016 27.1569 33.9199 27.3275C31.8259 27.5851 30.4504 28.0393 29.7802 28.3057C30.3232 31.1501 31.2126 33.6412 31.5598 34.5566ZM33.1623 36.0864C31.2405 36.0864 30.9143 35.9619 30.7576 35.9024C30.5663 35.8297 30.4142 35.681 30.3364 35.4922C30.2782 35.35 28.8999 31.9671 28.2193 27.9918C28.1659 27.6803 28.3161 27.3691 28.5936 27.2175C28.6636 27.1794 30.3476 26.2761 33.7386 25.8586C35.1769 25.6813 37.5351 25.5753 40.0471 25.5753C41.2155 25.5753 45.146 25.6046 46.6468 25.9788C47.0084 26.069 47.2464 26.4143 47.2027 26.784C47.1981 26.8223 46.7495 30.5967 46.6846 31.221C46.6835 31.2309 46.6825 31.2408 46.6808 31.2505L46.3535 33.5229C46.3146 33.7909 46.1325 34.016 45.8792 34.1107C45.7104 34.1732 44.2045 34.7235 43.2137 34.7235C42.8038 34.7235 42.4883 34.6326 42.2503 34.4461C42.15 34.3667 42.1312 34.3517 41.3725 33.1889L40.4726 34.7367C40.3602 34.9298 40.1665 35.0618 39.9454 35.0959L37.8208 35.4232C37.5314 35.4677 37.2432 35.3379 37.0852 35.0913L36.1384 33.6139L35.0183 35.6835C34.8925 35.9158 34.6521 36.0639 34.3878 36.0711C34.365 36.0714 33.8225 36.0864 33.1623 36.0864Z" fill="black"/>
<path d="M32.6209 42.1982C30.0271 42.1982 28.0297 40.2373 27.9395 40.1474C27.6213 39.83 27.6208 39.3147 27.9385 38.9965C28.2556 38.6791 28.7699 38.678 29.0881 38.9943C29.1248 39.0295 30.9519 40.7948 33.0282 40.5464C35.7975 40.2145 38.1834 38.1814 38.2073 38.161C38.5458 37.8694 39.0567 37.9042 39.3515 38.2399C39.4266 38.3247 41.27 40.3527 43.8177 39.76C45.9694 39.2588 46.6619 38.2675 46.6678 38.2576C46.9031 37.8747 47.4042 37.7548 47.7871 37.9901C48.1705 38.2257 48.2898 38.7271 48.0548 39.1099C47.9566 39.2693 47.0157 40.687 44.1866 41.3453C41.6143 41.9447 39.6131 40.6371 38.6872 39.8496C37.7131 40.5606 35.6327 41.8741 33.2214 42.1628C33.0183 42.187 32.8179 42.1982 32.6209 42.1982Z" fill="black"/>
<path d="M54.9017 17.3108C54.4641 17.3108 54.1025 16.9628 54.0885 16.5226C54.0746 16.0729 54.4274 15.697 54.877 15.6836L58.0383 15.5851C58.4866 15.5693 58.8636 15.924 58.8772 16.3734C58.8912 16.8228 58.5384 17.1984 58.089 17.2123L54.9275 17.3103C54.9186 17.3105 54.91 17.3108 54.9017 17.3108Z" fill="black"/>
<path d="M18.0614 15.4595L13.9845 15.5598Z" fill="black"/>
<path d="M13.9844 16.3735C13.5436 16.3735 13.1816 16.0223 13.1709 15.5799C13.1599 15.1303 13.5154 14.7571 13.9645 14.7461L18.0417 14.646C18.4871 14.6388 18.864 14.9902 18.8753 15.4393C18.8863 15.889 18.5311 16.2622 18.0814 16.2732L14.0045 16.3733C13.9978 16.3735 13.9908 16.3735 13.9844 16.3735Z" fill="black"/>
<path d="M20.9555 29.8865C20.5458 29.8865 20.1935 29.5787 20.1474 29.1624C20.0977 28.7157 20.42 28.3132 20.8664 28.2633L23.6896 27.9502C24.1366 27.9022 24.539 28.2228 24.5889 28.6692C24.6383 29.1162 24.3163 29.5186 23.8694 29.568L21.0461 29.8814C21.0158 29.8849 20.9852 29.8865 20.9555 29.8865Z" fill="black"/>
<path d="M21.8579 34.9231C21.4847 34.9231 21.1483 34.6647 21.064 34.2854C20.9667 33.8467 21.2438 33.4118 21.6825 33.3147L24.1437 32.7685C24.5827 32.6716 25.0173 32.9477 25.1147 33.3863C25.2121 33.8252 24.9355 34.2599 24.4963 34.3575L22.035 34.9038C21.9757 34.9172 21.9167 34.9231 21.8579 34.9231Z" fill="black"/>
<path d="M22.6015 39.5352C22.2238 39.5352 21.8847 39.2704 21.805 38.8856C21.7143 38.4454 21.9974 38.0148 22.4382 37.9238C22.4508 37.9211 23.7184 37.659 24.9716 37.3561C25.4089 37.2504 25.8484 37.5192 25.9538 37.9563C26.0595 38.3933 25.7907 38.833 25.3537 38.9385C24.0734 39.2481 22.78 39.5153 22.7671 39.5183C22.7115 39.5295 22.656 39.5352 22.6015 39.5352Z" fill="black"/>
<path d="M50.5047 28.7212C50.0585 28.7212 49.6947 28.3614 49.6909 27.9139C49.6872 27.4645 50.0488 27.097 50.4982 27.0935C50.5119 27.0935 51.914 27.0803 53.2699 26.977C53.7174 26.944 54.1089 27.2786 54.1429 27.7269C54.177 28.1752 53.8417 28.5664 53.3933 28.6005C51.9808 28.708 50.5709 28.7207 50.5116 28.7212H50.5047Z" fill="black"/>
<path d="M53.0647 33.9097C53.0035 33.9097 52.9413 33.9032 52.8791 33.8885C52.2738 33.7468 50.3078 33.3768 50.2876 33.3728C49.8463 33.2894 49.5555 32.8644 49.6384 32.4223C49.7218 31.9807 50.1473 31.6906 50.5889 31.773C50.6713 31.7886 52.6102 32.154 53.2493 32.3034C53.6869 32.4056 53.9589 32.8432 53.8567 33.2811C53.7692 33.6564 53.4344 33.9097 53.0647 33.9097Z" fill="black"/>
<path d="M52.6215 39.5015C52.5094 39.5015 52.3954 39.4781 52.2867 39.4288C51.4754 39.0617 49.9716 38.4685 49.9569 38.4632C49.5389 38.2984 49.3331 37.8255 49.4978 37.4072C49.6628 36.9889 50.135 36.7837 50.5536 36.9481C50.6166 36.9731 52.1094 37.562 52.9577 37.9456C53.3674 38.131 53.5493 38.6132 53.3639 39.0228C53.2279 39.3236 52.9317 39.5015 52.6215 39.5015Z" fill="black"/>
<path d="M48.3063 22.6257C48.3063 22.6257 48.3063 19.8813 50.1267 19.6721C51.947 19.4625 51.8663 21.4347 51.8258 21.7677C51.7853 22.1014 51.7549 22.8637 51.5526 23.1303C51.3504 23.3965 51.1282 23.6731 50.0052 23.6731C48.8826 23.6731 48.2154 23.3203 48.3063 22.6257Z" fill="black"/>
<path d="M26.0331 23.0927C26.0331 23.0927 26.0331 20.3484 24.2127 20.1394C22.3924 19.9296 22.4734 21.9018 22.5139 22.2353C22.5542 22.5685 22.5845 23.3307 22.7868 23.5974C22.9891 23.8638 23.2117 24.1401 24.3343 24.1401C25.4568 24.1401 26.1243 23.7879 26.0331 23.0927Z" fill="black"/>
<path d="M25.0133 18.6938C24.8169 18.6938 24.6191 18.6289 24.4547 18.4958C24.4217 18.4698 23.3472 17.6494 21.3208 17.4839C20.8322 17.4441 20.4682 17.0154 20.5084 16.5266C20.5481 16.038 20.9752 15.674 21.4654 15.7139C24.1054 15.9296 25.5195 17.0718 25.5785 17.1203C25.9571 17.4321 26.011 17.9917 25.6995 18.3703C25.5241 18.5833 25.2695 18.6938 25.0133 18.6938Z" fill="black"/>
<path d="M48.6991 18.3225C48.4654 18.3225 48.2317 18.2299 48.0565 18.0475C47.7174 17.6931 47.7324 17.1281 48.0866 16.7887C48.1386 16.7388 49.391 15.5615 51.7272 15.3391C52.2161 15.2911 52.6491 15.6506 52.6955 16.1386C52.7416 16.6269 52.3837 17.0605 51.8955 17.1069C50.2071 17.2676 49.3446 18.0443 49.3083 18.0773C49.1374 18.2412 48.918 18.3225 48.6991 18.3225Z" fill="black"/>
<path d="M16.4726 43.7542C14.0052 43.7429 11.9952 45.7336 11.9831 48.2038C11.9713 50.6721 13.9612 52.6834 16.4294 52.6953C18.8969 52.7079 20.9069 50.7166 20.9193 48.247C20.9308 45.7774 18.9406 43.7671 16.4726 43.7542ZM16.4303 52.5439C14.0444 52.5316 12.1239 50.5908 12.1349 48.2043C12.147 45.8165 14.0862 43.8894 16.4721 43.9012C18.8585 43.9125 20.7784 45.8587 20.7674 48.2462C20.7554 50.6337 18.8164 52.5552 16.4303 52.5439Z" fill="#D11317"/>
<path d="M14.7828 48.6264C14.7482 48.4917 14.731 48.3514 14.7321 48.2106C14.7348 47.6791 14.9824 47.2058 15.3583 46.8973C15.288 46.8324 15.1364 46.75 14.9374 46.8833C14.9078 46.9008 14.8671 46.9069 14.8322 46.8951C14.8258 46.8887 14.5639 46.7822 14.3638 46.9805C14.2814 47.0612 14.2519 47.1202 14.2221 47.1728C14.1811 47.2662 14.1333 47.3359 14.0048 47.4057C14.0689 47.5406 14.0622 47.6227 14.0437 47.7274C14.0324 47.7861 14.0203 47.8505 14.0372 47.9613C14.0826 48.2425 14.3511 48.3144 14.3632 48.3147C14.3978 48.32 14.4273 48.3498 14.4448 48.3855C14.525 48.6017 14.6889 48.6321 14.7828 48.6264ZM18.1772 49.2577C18.2427 49.0179 18.115 48.9003 18.0332 48.8534C17.7963 49.4485 17.2269 49.8791 16.56 49.9287C16.5828 50.0164 16.6576 50.1694 16.8919 50.1758C16.9334 50.1758 16.9621 50.1999 16.9796 50.2289C16.9852 50.2407 17.1363 50.4808 17.4169 50.4358C17.5285 50.4189 17.5867 50.3896 17.6396 50.3609C17.7335 50.3142 17.8097 50.2796 17.9556 50.304C17.98 50.1581 18.0388 50.094 18.1091 50.0237C18.156 49.977 18.2035 49.9306 18.2564 49.8313C18.3862 49.5807 18.2057 49.3634 18.2003 49.358C18.1716 49.3275 18.1652 49.2926 18.1772 49.2577ZM14.852 48.8491C14.7691 48.8955 14.6524 49.0179 14.7152 49.2464C14.7265 49.2759 14.7147 49.3167 14.6911 49.346C14.6854 49.3519 14.503 49.5617 14.6304 49.8195C14.6828 49.919 14.7289 49.9663 14.7697 50.007C14.8456 50.0838 14.8979 50.1484 14.9264 50.2949C15.0669 50.2721 15.1488 50.3083 15.2419 50.355C15.2942 50.3845 15.3529 50.4143 15.4635 50.4317C15.7444 50.4744 15.8919 50.2413 15.8978 50.2295C15.9158 50.2005 15.951 50.1769 15.9853 50.1771C16.2252 50.1669 16.3019 50.0207 16.326 49.9276C15.6534 49.8769 15.0887 49.4474 14.852 48.8491ZM17.9599 48.2261C17.9645 47.3899 17.2892 46.7079 16.4529 46.7038C15.6164 46.6996 14.9288 47.3748 14.9248 48.2114C14.9213 49.0487 15.6019 49.7312 16.4382 49.7347C17.2739 49.739 17.9556 49.0632 17.9599 48.2261ZM16.7199 47.1084L16.7615 46.974L16.8428 47.0921L16.9772 47.0923L16.8951 47.1975L16.9348 47.3325L16.8065 47.2844L16.6949 47.366L16.6957 47.2257L16.5855 47.1436L16.7199 47.1084ZM16.1227 48.4402L16.7719 48.4432C16.7953 48.4432 16.8127 48.4609 16.8127 48.4845L16.8122 48.5312C16.8122 48.554 16.7945 48.5776 16.7711 48.5776L16.1216 48.5744C16.0983 48.5746 16.0813 48.551 16.0813 48.5274L16.0819 48.481C16.0819 48.4571 16.0991 48.44 16.1227 48.4402ZM16.1176 48.2881L16.1181 48.2409C16.1181 48.2178 16.1412 48.2004 16.1645 48.2006L16.732 48.2031C16.7558 48.2033 16.7786 48.2208 16.7786 48.2441L16.7781 48.2911C16.7781 48.3147 16.7548 48.338 16.7314 48.3377L16.164 48.3345C16.1406 48.3345 16.1176 48.3112 16.1176 48.2881ZM16.8087 48.0979L16.0891 48.0949C16.0658 48.0944 16.0427 48.0711 16.043 48.048L16.0427 48.0008C16.043 47.9774 16.0666 47.96 16.0897 47.9605L16.8092 47.9632C16.8326 47.9637 16.8559 47.982 16.8559 48.0043L16.8554 48.0515C16.8554 48.0751 16.832 48.0979 16.8087 48.0979ZM16.0628 48.6793L16.8291 48.6836C16.8524 48.6836 16.8699 48.701 16.8699 48.7241V48.771C16.8693 48.7949 16.8519 48.8182 16.828 48.818L16.0626 48.814C16.039 48.814 16.0215 48.7906 16.0215 48.7675L16.0221 48.7206C16.0221 48.697 16.0395 48.679 16.0628 48.6793ZM16.8108 47.7242C16.8339 47.7242 16.8572 47.7413 16.857 47.7647L16.8564 47.8119C16.8564 47.8347 16.8328 47.8586 16.81 47.8583L16.0902 47.8545C16.0671 47.8545 16.0435 47.8309 16.0441 47.8076V47.7609C16.0441 47.7376 16.0679 47.7199 16.091 47.7199L16.8108 47.7242ZM16.0771 47.0883L16.1589 46.9719L16.1991 47.1065L16.3338 47.1417L16.2219 47.2235L16.2217 47.3641L16.1106 47.2815L15.9818 47.3276L16.0237 47.1935L15.9418 47.0872L16.0771 47.0883ZM15.9153 48.9599C15.9158 48.9366 15.9392 48.9194 15.9622 48.9194L16.927 48.9237C16.9509 48.9237 16.9742 48.9414 16.9742 48.9645L16.9737 49.0117C16.9737 49.035 16.9501 49.0584 16.927 49.0584L15.962 49.0543C15.9383 49.0538 15.9153 49.0299 15.9153 49.0066V48.9599ZM15.8501 49.1989C15.8504 49.1761 15.8675 49.1587 15.8911 49.1584L16.9962 49.1641C17.0198 49.1641 17.0373 49.1812 17.037 49.2051L17.0373 49.2521C17.0365 49.2757 17.0188 49.299 16.9957 49.2979L15.8906 49.2931C15.8675 49.2931 15.8498 49.2692 15.8498 49.2462L15.8501 49.1989ZM15.4562 48.3549L15.3457 48.272L15.2167 48.319L15.258 48.1843L15.1769 48.0783L15.3116 48.0791L15.394 47.9624L15.4342 48.0971L15.5689 48.1333L15.4573 48.2143L15.4562 48.3549ZM15.6703 47.7475L15.5595 47.6654L15.4243 47.711L15.4715 47.5825L15.3846 47.4709L15.5252 47.4714L15.6014 47.3553L15.6481 47.4899L15.7822 47.5318L15.6642 47.6128L15.6703 47.7475ZM17.0826 49.4922C17.0826 49.5155 17.0646 49.5386 17.0413 49.5386L15.8423 49.5332C15.819 49.5332 15.8018 49.5094 15.8018 49.4858V49.4447C15.8021 49.4155 15.8198 49.3986 15.8431 49.3986L17.0421 49.4037C17.0654 49.4042 17.0831 49.4222 17.0826 49.4506V49.4922ZM17.1328 47.5377L17.2677 47.4974L17.3149 47.3633L17.3909 47.4808L17.5312 47.4814L17.4426 47.5924L17.4893 47.7212L17.3547 47.6734L17.243 47.7553L17.2495 47.6209L17.1328 47.5377ZM17.3404 48.1416L17.4751 48.1067L17.517 47.9729L17.598 48.0901L17.7324 48.0906L17.6506 48.1961L17.6905 48.3308L17.562 48.283L17.4507 48.3646L17.451 48.2242L17.3404 48.1416ZM16.454 46.5042C16.7872 46.5061 17.1025 46.6078 17.3646 46.7782C17.4003 46.6907 17.4365 46.5155 17.2441 46.3626C17.2146 46.339 17.2031 46.3036 17.2033 46.2689C17.209 46.2569 17.2283 45.976 16.9777 45.8459C16.8784 45.7925 16.8143 45.7868 16.7499 45.775C16.6445 45.7627 16.5627 45.7388 16.458 45.639C16.3523 45.7377 16.2702 45.7608 16.171 45.7715C16.1066 45.7833 16.0419 45.7892 15.9424 45.8408C15.6904 45.9682 15.7065 46.2496 15.706 46.2617C15.7124 46.296 15.7004 46.3315 15.6711 46.3545C15.4772 46.5058 15.5118 46.6757 15.5464 46.7631C15.8098 46.6011 16.12 46.5032 16.454 46.5042ZM16.4669 45.0241C14.701 45.0155 13.2611 46.4423 13.2522 48.2039C13.2439 49.9711 14.6696 51.411 16.4355 51.4201C18.2019 51.4284 19.6356 50.0019 19.644 48.235C19.6526 46.4734 18.2325 45.0329 16.4669 45.0241ZM19.157 47.4194C19.1509 47.4247 19.1452 47.4309 19.1452 47.4422C19.0513 47.5825 19.0567 47.6235 19.0739 47.711C19.0849 47.7754 19.0964 47.8693 19.0722 48.0153C19.0183 48.3549 18.754 48.4818 18.6368 48.5226C18.5547 48.6978 18.4367 48.7847 18.3138 48.8252C18.3892 48.9309 18.43 49.0712 18.3935 49.259C18.4635 49.3642 18.6017 49.6285 18.4431 49.9317C18.3779 50.0599 18.3073 50.1302 18.2604 50.1766C18.196 50.2348 18.1668 50.2641 18.1536 50.4393C18.1539 50.4452 18.1536 50.4511 18.1536 50.4572L18.1539 50.4629L18.1483 50.4688L18.1418 50.4806L18.1359 50.4918V50.498L18.1244 50.5039L18.1187 50.5096L18.1126 50.5149L18.101 50.5208L18.0951 50.5267C18.0951 50.5267 18.0892 50.5329 18.0839 50.5326C18.0715 50.5383 18.0541 50.5385 18.042 50.5383C18.0366 50.5383 18.0248 50.538 18.0192 50.5326C17.8555 50.4905 17.8142 50.5074 17.7383 50.549C17.6795 50.5833 17.5916 50.6244 17.451 50.6464C17.1118 50.6979 16.9082 50.4862 16.8328 50.3861C16.6397 50.3615 16.5176 50.2737 16.4419 50.168C16.3652 50.2726 16.2415 50.3655 16.0489 50.3883C15.9724 50.4876 15.7666 50.6971 15.4278 50.6429C15.2816 50.6185 15.2 50.5774 15.1418 50.542C15.06 50.5004 15.0248 50.4827 14.8553 50.523C14.8139 50.5348 14.7675 50.5168 14.7439 50.4876L14.7383 50.4757L14.7329 50.4696C14.7268 50.4578 14.7268 50.4406 14.7211 50.4288C14.7163 50.2528 14.687 50.2236 14.6229 50.1589C14.5706 50.1119 14.5068 50.047 14.4426 49.918C14.2865 49.6135 14.4281 49.3503 14.4987 49.2454C14.459 49.0578 14.5062 48.9178 14.5827 48.8131C14.4601 48.771 14.3377 48.6833 14.2626 48.507C14.1462 48.4657 13.8773 48.3353 13.8266 47.9957C13.8041 47.8494 13.8221 47.7561 13.8336 47.6914C13.846 47.6037 13.858 47.5573 13.7647 47.4159C13.7531 47.3987 13.7475 47.3751 13.7478 47.3515C13.7478 47.3464 13.7478 47.3464 13.748 47.3402L13.7475 47.3343C13.7478 47.3282 13.7537 47.3228 13.7537 47.3172C13.7657 47.2879 13.7893 47.2697 13.8124 47.2584C13.9766 47.1951 13.9943 47.1602 14.0356 47.0781C14.0649 47.0196 14.1065 46.9319 14.2122 46.8275C14.4531 46.5887 14.745 46.6427 14.8625 46.6784C15.0326 46.5861 15.1842 46.5866 15.3065 46.6217C15.3073 46.4932 15.3551 46.3532 15.4962 46.2249C15.4967 46.0964 15.5389 45.8037 15.8501 45.6532C15.9786 45.5837 16.0725 45.5722 16.1425 45.5612C16.2243 45.5499 16.2716 45.5446 16.3773 45.4101L16.3832 45.411C16.3832 45.4042 16.3888 45.3986 16.395 45.393L16.4006 45.3924C16.4006 45.3865 16.4068 45.3871 16.4119 45.3809L16.4181 45.3804L16.4304 45.3755H16.4419L16.4535 45.3694L16.4591 45.3696H16.4717L16.4768 45.3758C16.4942 45.3761 16.5114 45.3809 16.5294 45.3932C16.535 45.3994 16.5412 45.411 16.5468 45.4166C16.6515 45.5462 16.6987 45.5523 16.7802 45.5647C16.8505 45.5768 16.9434 45.5886 17.0716 45.6591C17.3753 45.8131 17.4147 46.1058 17.4201 46.2343C17.5596 46.3642 17.6058 46.5042 17.6052 46.6333C17.7284 46.5925 17.8808 46.5933 18.0495 46.6877C18.1727 46.6534 18.4595 46.6024 18.7033 46.849C18.8082 46.9555 18.849 47.0368 18.878 47.1012C18.9126 47.1785 18.9357 47.219 19.0932 47.2783C19.0991 47.2844 19.1111 47.2844 19.1168 47.2903C19.1398 47.3019 19.1514 47.3252 19.157 47.3483L19.1573 47.3547L19.1627 47.3665V47.3781C19.1627 47.3899 19.1627 47.4078 19.157 47.4194ZM18.6846 47.194C18.6556 47.1358 18.6322 47.077 18.551 47.0008C18.3471 46.7948 18.0892 46.8989 18.0772 46.9051C18.0484 46.9166 18.0071 46.9161 17.9779 46.8927C17.7681 46.7572 17.616 46.8501 17.5454 46.9083C17.9186 47.2257 18.1552 47.7008 18.1528 48.2275C18.1523 48.3675 18.1338 48.5084 18.1043 48.6366C18.1979 48.6431 18.3674 48.6264 18.4565 48.3986C18.4683 48.3638 18.4976 48.3407 18.5327 48.3294C18.5445 48.3292 18.8192 48.2658 18.8681 47.9796C18.8799 47.8682 18.8745 47.8097 18.8632 47.7454C18.8461 47.6396 18.8407 47.5584 18.9051 47.4293C18.7774 47.3587 18.731 47.2882 18.6846 47.194Z" fill="#D11317"/>
<path d="M13.7625 50.3014L13.6088 50.6687L13.7604 50.6639L13.9428 50.5126L14.0303 50.6244L13.4309 51.1189L13.3437 51.0127L13.6023 50.7916L13.1811 50.8133L13.0703 50.684L13.4623 50.6679L13.6581 50.1716L13.7625 50.3014Z" fill="#D11317"/>
<path d="M13.2256 50.0407L13.5009 49.8849L13.5706 50.0072L13.2954 50.1644L13.0011 50.5781L12.9257 50.4434L13.1315 50.1752L12.7921 50.2143L12.7167 50.0796L13.2256 50.0407Z" fill="#D11317"/>
<path d="M13.293 49.4031C13.3453 49.5439 13.2798 49.696 13.1277 49.7478L12.6475 49.9211L12.6011 49.7862L13.0759 49.6188C13.1578 49.5898 13.1934 49.5257 13.1704 49.4492C13.1414 49.3792 13.0765 49.3491 12.989 49.3781L12.5149 49.5514L12.4683 49.417L12.9488 49.2496C13.1012 49.1917 13.2468 49.2687 13.293 49.4031Z" fill="#D11317"/>
<path d="M13.1042 48.6178L12.675 48.973L13.1496 48.9051L13.1724 49.0395L12.3997 49.1589L12.3828 49.0302L12.8115 48.6808L12.3431 48.7493L12.3206 48.6081L13.0873 48.4955L13.1042 48.6178Z" fill="#D11317"/>
<path d="M13.0194 47.9156C13.0838 47.9747 13.1007 48.045 13.1007 48.1214C13.0943 48.2033 13.0645 48.2674 13.006 48.3138C12.9239 48.3833 12.8303 48.3771 12.6961 48.3704C12.5615 48.3642 12.4619 48.3637 12.3865 48.2875C12.3334 48.2341 12.3109 48.17 12.3114 48.0884C12.3176 47.9237 12.441 47.8429 12.5698 47.8258L12.5631 47.972C12.4928 47.983 12.452 48.0243 12.4456 48.0943C12.4456 48.1351 12.463 48.1644 12.4861 48.1882C12.5153 48.2177 12.5505 48.2234 12.7023 48.2301C12.8483 48.2368 12.8896 48.2314 12.9188 48.2081C12.9481 48.1847 12.966 48.1558 12.966 48.1147C12.9666 48.0737 12.9548 48.0383 12.9255 48.0152C12.8963 47.991 12.8673 47.9795 12.8265 47.9795H12.7976L12.7903 48.1083L12.6621 48.1075L12.6749 47.8319L12.786 47.8325C12.8974 47.8389 12.9674 47.8625 13.0194 47.9156Z" fill="#D11317"/>
<path d="M12.8995 47.4061L12.8692 47.5462L13.1558 47.6063L13.1198 47.7463L12.3665 47.5733L12.4263 47.2986C12.462 47.1529 12.591 47.0885 12.7195 47.1183C12.848 47.1483 12.9352 47.2597 12.8995 47.4061ZM12.5604 47.3396L12.5306 47.4687L12.7351 47.511L12.7654 47.3817C12.7769 47.3232 12.7482 47.2704 12.6836 47.2586C12.6256 47.2468 12.5725 47.2758 12.5604 47.3396Z" fill="#D11317"/>
<path d="M13.3648 46.7296C13.3935 46.8004 13.3989 46.8704 13.3696 46.9464C13.3339 47.0223 13.2811 47.0623 13.2113 47.0918C13.111 47.1264 13.0238 47.0851 12.9009 47.0319C12.7788 46.9847 12.6852 46.9429 12.6447 46.8487C12.6098 46.7784 12.6101 46.7086 12.6401 46.6333C12.6753 46.5565 12.7287 46.5101 12.799 46.487C12.8982 46.4524 12.9854 46.4881 13.1086 46.5412C13.2306 46.5938 13.3243 46.63 13.3648 46.7296ZM12.8389 46.6217C12.81 46.6274 12.7802 46.6512 12.7684 46.6856C12.7507 46.721 12.7501 46.7561 12.7678 46.7851C12.7853 46.8264 12.8202 46.8441 12.9543 46.9029C13.0943 46.963 13.1295 46.9689 13.1703 46.9565C13.2001 46.9512 13.229 46.9278 13.2411 46.8927C13.2585 46.8522 13.2532 46.817 13.2416 46.7934C13.2245 46.7529 13.1893 46.729 13.0552 46.6695C12.9151 46.6164 12.88 46.6045 12.8389 46.6217Z" fill="#D11317"/>
<path d="M13.695 46.1928C13.7121 46.269 13.706 46.3331 13.6588 46.4031C13.6113 46.4731 13.553 46.508 13.4771 46.5193C13.3714 46.5362 13.2958 46.4836 13.1793 46.4066C13.0685 46.336 12.9864 46.2829 12.9639 46.177C12.9467 46.1072 12.9531 46.0364 13.0001 45.9669C13.047 45.8969 13.1055 45.8625 13.1817 45.8512C13.2872 45.8335 13.3631 45.8867 13.4798 45.9637C13.5901 46.0401 13.6724 46.0938 13.695 46.1928ZM13.1986 45.991C13.1638 45.9908 13.1342 46.0085 13.1106 46.0439C13.0929 46.0731 13.087 46.1136 13.0986 46.1431C13.1104 46.1839 13.1332 46.2075 13.2619 46.2899C13.3843 46.3725 13.4192 46.39 13.4602 46.3846C13.4954 46.379 13.5241 46.3615 13.5482 46.3326C13.5657 46.2977 13.5718 46.2623 13.5603 46.233C13.5488 46.192 13.5254 46.163 13.3974 46.0796C13.2748 45.9975 13.2397 45.9859 13.1986 45.991Z" fill="#D11317"/>
<path d="M14.1583 45.7916L13.7793 45.6843L13.7959 45.8308L13.9646 45.9952L13.8646 46.0945L13.3119 45.5592L13.4061 45.4541L13.6497 45.6896L13.5826 45.274L13.7055 45.1455L13.7623 45.5378L14.2764 45.6746L14.1583 45.7916Z" fill="#D11317"/>
<path d="M14.8394 45.3031L14.3436 45.0431L14.5931 45.4539L14.47 45.5239L14.0697 44.861L14.1754 44.7966L14.6661 45.0566L14.4217 44.6458L14.5392 44.5761L14.9454 45.2393L14.8394 45.3031Z" fill="#D11317"/>
<path d="M15.4493 45.0374L15.3619 44.925L15.1215 45.0179L15.1268 45.1584L14.9922 45.21L14.9667 44.3909L15.0726 44.3504L15.5896 44.991L15.4493 45.0374ZM15.1003 44.5848L15.1164 44.8832L15.2806 44.8196L15.1003 44.5848Z" fill="#D11317"/>
<path d="M15.7917 44.3012L15.9116 44.9335L15.7713 44.9561L15.6516 44.3299L15.4641 44.3634L15.4413 44.229L15.951 44.1321L15.9792 44.2671L15.7917 44.3012Z" fill="#D11317"/>
<path d="M16.1751 44.9004L16.1201 44.1213L16.2607 44.1167L16.3154 44.8891L16.1751 44.9004Z" fill="#D11317"/>
<path d="M16.8829 44.8278C16.83 44.8798 16.7656 44.9032 16.6838 44.897C16.6014 44.8967 16.5376 44.8608 16.4914 44.802C16.427 44.7204 16.4332 44.6206 16.4399 44.4862C16.4464 44.3515 16.4525 44.2576 16.5295 44.1828C16.588 44.1297 16.6527 44.1063 16.7337 44.113C16.8163 44.1136 16.8745 44.149 16.9212 44.2075C16.9907 44.2896 16.9845 44.3888 16.9719 44.5238C16.9658 44.6531 16.9593 44.7516 16.8829 44.8278ZM16.8096 44.2952C16.7922 44.2654 16.7627 44.2477 16.7214 44.2477C16.687 44.2415 16.6519 44.2593 16.6283 44.2823C16.5982 44.311 16.5926 44.3462 16.5805 44.4983C16.5738 44.6445 16.5794 44.6797 16.6028 44.7151C16.6199 44.7443 16.6548 44.7623 16.69 44.7623C16.7313 44.7685 16.7608 44.751 16.7839 44.7277C16.8131 44.6984 16.8252 44.663 16.8319 44.5114C16.8437 44.3652 16.8389 44.3242 16.8096 44.2952Z" fill="#D11317"/>
<path d="M17.4725 45.0354L17.3112 44.4956L17.1927 44.9579L17.058 44.9222L17.2487 44.1739L17.3719 44.204L17.5326 44.7368L17.6517 44.2754L17.7861 44.3113L17.5895 45.0649L17.4725 45.0354Z" fill="#D11317"/>
<path d="M18.0853 45.2895L18.1036 45.1495L17.8702 45.0376L17.7763 45.142L17.6418 45.077L18.212 44.4889L18.3112 44.5415L18.2197 45.355L18.0853 45.2895ZM18.1698 44.7232L17.9646 44.9378L18.128 45.0148L18.1698 44.7232Z" fill="#D11317"/>
<path d="M18.2543 45.3845L18.7074 44.7543L18.8244 44.837L18.448 45.3615L18.716 45.5506L18.6395 45.6609L18.2543 45.3845Z" fill="#D11317"/>
<path d="M19.0058 46.037C18.9073 45.9259 18.9079 45.7676 19.0315 45.6573L19.413 45.3196L19.5059 45.4255L19.1303 45.7569C19.0656 45.8154 19.0535 45.8913 19.1056 45.95C19.1582 46.0026 19.2282 46.0091 19.2987 45.9449L19.6746 45.6136L19.7677 45.7188L19.3859 46.0568C19.2625 46.1674 19.1048 46.1494 19.0058 46.037Z" fill="#D11317"/>
<path d="M19.4705 46.7007L19.7361 46.2105L19.3253 46.4487L19.2561 46.3253L19.9244 45.936L19.9883 46.0479L19.7229 46.5327L20.1331 46.2942L20.2026 46.4176L19.5341 46.8066L19.4705 46.7007Z" fill="#D11317"/>
<path d="M19.575 46.9293L20.2956 46.6403L20.3474 46.7696L19.6326 47.0588L19.575 46.9293Z" fill="#D11317"/>
<path d="M19.7477 47.4338L19.7192 47.3343L20.4055 46.8988L20.4458 47.0389L19.994 47.312L20.5204 47.3206L20.5601 47.4614L19.7477 47.4338Z" fill="#D11317"/>
<path d="M19.8163 47.7146L20.5884 47.6368L20.6332 48.1108L20.4985 48.1277L20.4653 47.794L20.2836 47.8104L20.3115 48.0915L20.1774 48.1087L20.149 47.8211L19.962 47.8383L19.9955 48.1782L19.8608 48.1895L19.8163 47.7146Z" fill="#D11317"/>
<path d="M19.8294 48.6688L20.1516 48.5532L20.158 48.4536L19.8479 48.4287L19.8602 48.2886L20.638 48.3509L20.6131 48.6318C20.6007 48.7777 20.4891 48.859 20.3606 48.8467C20.2495 48.8402 20.1857 48.7694 20.1626 48.6996L19.8168 48.8325L19.8294 48.6688ZM20.4786 48.6135L20.4907 48.4791L20.2863 48.4606L20.2739 48.595C20.2678 48.6594 20.3088 48.7002 20.367 48.7066C20.4312 48.7123 20.4727 48.6723 20.4786 48.6135Z" fill="#D11317"/>
<path d="M19.7399 49.1013C19.7691 48.9956 19.8163 48.9199 19.9102 48.8735L19.98 48.9854C19.9212 49.0143 19.8917 49.0728 19.8737 49.1369C19.8499 49.2188 19.8732 49.2714 19.9317 49.2834C19.9609 49.2952 19.984 49.2899 20.0017 49.2781C20.0197 49.2722 20.0312 49.2547 20.0428 49.2258L20.079 49.1437C20.1023 49.0852 20.1369 49.0444 20.1785 49.0213C20.2198 48.9985 20.2719 48.9985 20.3368 49.0103C20.4709 49.046 20.5404 49.163 20.5045 49.3154C20.4744 49.4149 20.4337 49.4737 20.3575 49.5195L20.2877 49.4085C20.3403 49.3792 20.3644 49.3266 20.3762 49.2799C20.3939 49.2038 20.3593 49.1565 20.3065 49.145C20.289 49.1391 20.2657 49.1388 20.2483 49.1506C20.2303 49.1619 20.2126 49.1793 20.2008 49.2083L20.1715 49.2904C20.1418 49.3489 20.1125 49.384 20.0768 49.4071C20.0304 49.4361 19.9714 49.4361 19.9019 49.4176C19.7557 49.3819 19.7036 49.2472 19.7399 49.1013Z" fill="#D11317"/>
<path d="M19.6443 49.4459L20.3625 49.7365L20.3091 49.865L19.5912 49.5803L19.6443 49.4459Z" fill="#D11317"/>
<path d="M19.9738 50.2495L19.408 49.9423L19.4788 49.82L20.0379 50.1266L20.1331 49.9579L20.2496 50.0222L20.0017 50.4775L19.885 50.4126L19.9738 50.2495Z" fill="#D11317"/>
<path d="M19.3583 50.5861L19.1074 50.3913L19.1901 50.2749L19.4465 50.4688L19.9431 50.577L19.8484 50.6996L19.5158 50.6156L19.6837 50.9153L19.5898 51.0374L19.3583 50.5861Z" fill="#D11317"/>
<path d="M15.8177 52.1314L15.7463 52.3994L15.6296 52.3699L15.6894 52.1416L15.1405 51.9927L15.17 51.8934L15.4386 51.9704L15.463 51.8894L15.1475 51.8054L15.1711 51.7123L15.9244 51.9146L15.9011 52.0023L15.5792 51.9186L15.5555 52.001L15.7831 52.0606C15.7831 52.0606 15.8303 52.0724 15.8177 52.1314Z" fill="#D11317"/>
<path d="M15.2769 51.6717L15.8958 51.8386L15.979 51.5231L15.8623 51.4933L15.8443 51.5575L15.4121 51.4442L15.4298 51.3804L15.3131 51.3509L15.2474 51.613C15.2474 51.613 15.2297 51.6602 15.2769 51.6717ZM15.8205 51.6511L15.8087 51.7098L15.3703 51.5966L15.3885 51.532L15.8205 51.6511Z" fill="#D11317"/>
<path d="M16.186 52.2437L16.4605 52.2456L16.4615 52.1458L16.227 52.1447L16.2295 51.6825L16.446 51.6835L16.4465 51.5784L16.1133 51.577L16.1103 52.1675C16.1103 52.1675 16.1042 52.2435 16.186 52.2437Z" fill="#D11317"/>
<path d="M16.7436 51.8133L16.6325 51.8128L16.6339 51.5735L16.5166 51.5727L16.5134 52.2689L16.6301 52.2691L16.6317 51.9182L16.7436 51.9188L16.7412 52.2697L16.8584 52.2708L16.8619 51.5743L16.7447 51.574L16.7436 51.8133Z" fill="#D11317"/>
<path d="M18.5812 51.5767L18.436 51.3125L18.3306 51.3707L18.4811 51.6347L18.3639 51.7044L18.2134 51.4402L18.1133 51.4984L18.259 51.7619L18.1237 51.8375L18.1758 51.9258L18.8857 51.5255L18.8331 51.4372L18.5812 51.5767Z" fill="#D11317"/>
<path d="M18.5314 51.0322L18.7108 51.3493L18.6057 51.4067L18.4428 51.1194L17.9328 51.4043L17.8805 51.3158L18.4375 51.003C18.4375 51.003 18.4962 50.9678 18.5314 51.0322Z" fill="#D11317"/>
<path d="M17.7783 51.9177L17.175 52.0733L17.2039 52.1672L17.737 52.035L17.7944 52.2515L17.9055 52.2171L17.8427 51.9475C17.8253 51.9011 17.7783 51.9177 17.7783 51.9177ZM17.7335 51.5434L17.6823 51.3438L17.5707 51.3728L17.6968 51.8769L17.8137 51.8477L17.7622 51.6432L17.862 51.6145L17.839 51.5204L17.7335 51.5434ZM17.1953 51.6226C17.1132 51.6752 17.066 51.7626 17.0886 51.8445C17.1173 51.9502 17.2342 52.0089 17.3515 51.9805C17.4685 51.9521 17.5449 51.841 17.5159 51.7353C17.4931 51.6532 17.4054 51.5939 17.3061 51.5939L17.3005 51.5705L17.4762 51.5249L17.4532 51.4249L17.2777 51.4707L17.2603 51.412L17.1492 51.441L17.1666 51.4994L17.0024 51.5397L17.0255 51.639L17.1953 51.5933L17.2012 51.6223L17.1953 51.6226ZM17.2766 51.6993C17.3354 51.6819 17.3933 51.7114 17.4049 51.764C17.4159 51.8174 17.381 51.8692 17.3279 51.8804C17.2697 51.8979 17.2112 51.8683 17.1999 51.816C17.1886 51.7634 17.2238 51.7109 17.2766 51.6993Z" fill="#D11317"/>
<path d="M14.8952 51.9275C14.948 51.8167 14.8726 51.6694 14.7213 51.5988C14.5695 51.5282 14.4053 51.5621 14.358 51.6675C14.3055 51.7727 14.3862 51.9191 14.5322 51.99C14.6837 52.0608 14.8477 52.0326 14.8952 51.9275ZM14.5732 51.9087C14.4863 51.8668 14.4334 51.7791 14.4635 51.7206C14.4925 51.6624 14.592 51.6447 14.68 51.6871C14.7554 51.7217 14.8257 51.8046 14.79 51.8743C14.7546 51.9444 14.6491 51.9438 14.5732 51.9087Z" fill="#D11317"/>
<path d="M14.852 51.1546L14.5253 51.0011L14.4837 51.0824L14.7289 51.2007C14.7233 51.2128 14.7058 51.23 14.6822 51.2589C14.5465 51.3987 14.3482 51.3394 14.3482 51.3394L14.3069 51.421C14.7217 51.5514 14.8636 51.1954 14.8636 51.1954C14.8813 51.1666 14.852 51.1546 14.852 51.1546ZM15.0798 51.2493L15.0382 51.3308L14.8751 51.2541L14.8276 51.3416L14.9972 51.4247L14.9677 51.4891L14.7922 51.406L14.7509 51.4991L14.9202 51.5763L14.8727 51.6871L14.9838 51.7346L15.1906 51.3024L15.0798 51.2493Z" fill="#D11317"/>
<path d="M28.6904 55.4539C28.5796 55.4539 28.4666 55.4284 28.3604 55.3752C27.9947 55.1923 27.8466 54.7483 28.0296 54.3828C28.6394 53.1632 30.2406 52.5249 30.4211 52.456C30.8032 52.3108 31.2308 52.5021 31.3762 52.8842C31.5217 53.2662 31.3298 53.6933 30.9483 53.839C30.6301 53.9619 29.6514 54.4478 29.3533 55.0447C29.2232 55.3039 28.9622 55.4539 28.6904 55.4539Z" fill="black"/>
<path d="M25.8442 53.1758C25.6191 53.1758 25.397 53.0733 25.2519 52.8796C25.0066 52.5528 25.0732 52.0889 25.3997 51.8437C26.4602 51.0488 27.8406 51.1843 27.9949 51.2025C28.4005 51.25 28.6908 51.6178 28.6433 52.0237C28.5958 52.4286 28.2299 52.7197 27.825 52.6725C27.5653 52.6448 26.7849 52.655 26.2875 53.0274C26.1541 53.1275 25.9988 53.1758 25.8442 53.1758Z" fill="black"/>
<path d="M13.4022 54.7686C13.0649 54.7686 12.7602 54.5365 12.6813 54.1936C12.3094 52.5713 12.13 50.899 12.1474 49.2243C12.1748 46.6973 12.5423 44.5099 13.2401 42.7234C13.3888 42.3427 13.818 42.1543 14.199 42.3035C14.5794 42.4521 14.7675 42.8809 14.6186 43.2616C13.9863 44.8812 13.6528 46.8929 13.6273 49.2402C13.6109 50.7984 13.7778 52.3537 14.1239 53.8631C14.2154 54.2612 13.9667 54.6583 13.5683 54.7495C13.5125 54.7627 13.4569 54.7686 13.4022 54.7686Z" fill="black"/>
<path d="M51.1864 52.8911C51.0182 52.8911 50.8489 52.834 50.7102 52.7173C49.6553 51.8289 48.4458 52.0173 48.3951 52.0256C47.9937 52.0921 47.6117 51.8233 47.5419 51.423C47.4722 51.0225 47.7359 50.6412 48.1357 50.5688C48.2135 50.5543 50.0631 50.2366 51.6631 51.5853C51.976 51.8485 52.0159 52.3154 51.7527 52.6279C51.6065 52.8015 51.397 52.8911 51.1864 52.8911Z" fill="black"/>
<path d="M46.4411 65.4209C46.3818 65.4209 46.3239 65.4206 46.2657 65.4198C45.926 65.4091 38.2476 65.1338 34.2782 62.6197C33.9327 62.401 33.8304 61.9438 34.0491 61.5988C34.2675 61.2535 34.7247 61.1508 35.0702 61.3694C38.6975 63.6673 46.2233 63.9381 46.2989 63.9402C50.2653 63.9837 55.6741 62.1856 58.7814 58.0426C59.0266 57.7159 59.4905 57.6493 59.8173 57.8948C60.1443 58.14 60.2103 58.6039 59.9653 58.9309C56.5921 63.4283 50.7791 65.4209 46.4411 65.4209Z" fill="black"/>
</g>
<defs>
<clipPath id="clip0_1141_22266">
<rect width="72" height="72" fill="white"/>
</clipPath>
</defs>
</svg>
