<svg width="200" height="200" viewBox="0 0 200 200" fill="none" xmlns="http://www.w3.org/2000/svg">
<g clip-path="url(#clip0_722_20843)">
<mask id="mask0_722_20843" style="mask-type:luminance" maskUnits="userSpaceOnUse" x="-79" y="-5" width="300" height="210">
<path d="M-79 -5.00008H221V205H-79V-5.00008Z" fill="white"/>
</mask>
<g mask="url(#mask0_722_20843)">
<path d="M139.971 179.17C139.971 182.392 130.765 185.006 97.0187 185.006C62.1407 185.006 54.0667 182.392 54.0667 179.17C54.0667 175.947 63.8781 173.333 97.0187 173.333C132.841 173.333 139.971 175.947 139.971 179.17Z" fill="#ADACAD"/>
<path d="M76.6898 130.249C76.6898 130.249 73.325 132.841 71.1809 136.941C69.1217 140.88 70.1465 143.506 66.3319 148.149C66.3319 148.149 64.2269 151.227 60.0398 152.626L60.0959 154.709C60.0959 154.709 62.9372 156.012 67.5384 152.656C72.1411 149.3 72.526 145.544 73.8609 142.374C75.1958 139.203 77.8875 136.829 79.0051 136.238L76.6898 130.249Z" fill="#C2B195"/>
<path d="M61.3405 153.677C61.4305 153.683 61.5286 153.687 61.6337 153.687C62.6984 153.687 64.4573 153.33 66.7899 151.629C70.1067 149.21 71.0176 146.569 71.8992 144.016C72.1426 143.311 72.3941 142.583 72.689 141.88C73.8994 139.006 76.0224 136.843 77.4529 135.749L76.1674 132.423C75.0657 133.507 73.4814 135.286 72.3077 137.531C71.5771 138.927 71.2705 140.149 70.9453 141.443C70.3981 143.624 69.8322 145.879 67.3437 148.92C67.0421 149.341 65.0468 151.979 61.3356 153.501L61.3405 153.677ZM61.634 156.23C60.423 156.23 59.6991 155.926 59.5657 155.865C59.1247 155.663 58.8376 155.228 58.8245 154.743L58.7688 152.66C58.7536 152.101 59.1064 151.598 59.6366 151.421C63.3761 150.17 65.2631 147.458 65.2821 147.431C65.3033 147.4 65.3255 147.37 65.3495 147.341C67.5 144.723 67.9756 142.83 68.4793 140.824C68.8254 139.444 69.1842 138.016 70.0541 136.352C72.3024 132.053 75.7677 129.354 75.9145 129.241C76.2327 128.997 76.6472 128.917 77.0335 129.024C77.4191 129.133 77.732 129.417 77.8766 129.791L80.1912 135.78C80.4226 136.381 80.1693 137.06 79.5996 137.362C78.6224 137.88 76.1999 140.095 75.0329 142.867C74.7708 143.492 74.5432 144.149 74.3023 144.846C73.341 147.634 72.2498 150.795 68.2878 153.684C65.4021 155.788 63.0769 156.23 61.634 156.23Z" fill="#212124"/>
<path d="M45.4482 150.816C44.936 152.802 48.2715 159.115 55.2138 158.937C58.3429 158.857 62.3219 156.824 62.2397 153.784C62.1282 149.789 57.9369 148.297 54.8441 148.779C53.0146 149.066 51.6775 149.88 50.107 150.896C47.2784 152.724 45.8853 149.127 45.4482 150.816Z" fill="#212124"/>
<path d="M119.846 34.0366L122.719 33.7942L141.434 33.8916C141.434 33.8916 142.408 39.1811 138.067 43.8134C133.204 49.0024 122.586 50.5254 122.586 50.5254L119.846 34.0366Z" fill="#C2B195"/>
<path d="M121.327 35.1875L123.63 49.0475C126.479 48.4816 133.578 46.7442 137.139 42.9444C139.913 39.9846 140.281 36.7694 140.262 35.1572L122.769 35.0658L121.327 35.1875ZM122.585 51.7974C121.973 51.7974 121.436 51.3553 121.332 50.7337L118.592 34.2449C118.534 33.8946 118.625 33.5355 118.843 33.2557C119.06 32.9753 119.386 32.7989 119.74 32.7692L122.612 32.5269C122.65 32.5241 122.687 32.5212 122.725 32.5226L141.441 32.6204C142.053 32.6232 142.574 33.061 142.685 33.6614C142.73 33.9034 143.72 39.6403 138.995 44.6832C133.885 50.1351 123.218 51.719 122.767 51.7843C122.706 51.7928 122.645 51.7974 122.585 51.7974Z" fill="#212124"/>
<path d="M147.888 47.9231C147.888 47.9231 139.363 51.176 134.174 49.6181C134.174 49.6181 131.016 44.9135 133.92 40.4406C136.415 36.5978 140.519 46.1062 140.519 46.1062C140.519 46.1062 140.467 40.6396 142.886 38.6065C145.305 36.5721 148.572 43.3951 147.888 47.9231Z" fill="#D9B67B"/>
<path d="M135.004 48.5227C135.72 48.6864 136.547 48.7693 137.47 48.7693C141.038 48.7693 145.077 47.541 146.702 46.9927C146.817 44.4743 145.751 41.452 144.58 40.0899C144.171 39.6155 143.888 39.5082 143.821 39.5082C143.81 39.5082 143.768 39.5262 143.704 39.5795C142.104 40.9243 141.778 44.8313 141.79 46.0942C141.796 46.6992 141.375 47.2245 140.782 47.3501C140.19 47.4743 139.592 47.166 139.352 46.6107C137.937 43.3369 136.005 40.7973 135.287 40.7973C135.288 40.7983 135.171 40.8484 134.987 41.1331C133.005 44.1839 134.415 47.4263 135.004 48.5227ZM137.47 51.3125C136.092 51.3125 134.861 51.152 133.809 50.8355C133.527 50.7512 133.283 50.5713 133.118 50.3272C132.97 50.106 129.53 44.8662 132.854 39.7477C133.656 38.513 134.62 38.2544 135.287 38.2544C136.974 38.2544 138.555 40.0374 139.746 41.9039C140.137 40.3263 140.832 38.6711 142.067 37.6328C142.587 37.1965 143.192 36.9654 143.821 36.9654C144.471 36.9654 145.464 37.2197 146.507 38.4312C148.43 40.666 149.614 45.0098 149.146 48.1125C149.077 48.5661 148.769 48.9475 148.341 49.1112C148.106 49.2008 142.515 51.3118 137.47 51.3125Z" fill="#212124"/>
<path d="M117.561 87.9644C117.561 87.9644 120.142 86.979 123.391 83.694C127.909 79.123 133.718 66.7991 135.666 49.803C135.666 49.803 140.501 49.9155 147.781 47.6835C147.781 47.6835 158.01 84.1508 128.856 102.82" fill="#C2B195"/>
<path d="M128.857 104.219C128.397 104.219 127.945 103.991 127.678 103.574C127.262 102.924 127.451 102.059 128.102 101.643C139.787 94.1598 146.431 82.9118 147.85 68.2102C148.674 59.6701 147.4 52.3733 146.763 49.4392C142.167 50.7202 138.676 51.0736 136.91 51.1685C134.82 67.6655 129.163 79.8437 124.386 84.6775C120.963 88.1389 118.177 89.2265 118.06 89.2713C117.339 89.5465 116.53 89.1842 116.255 88.4635C115.98 87.7442 116.339 86.9381 117.056 86.6604C117.093 86.646 119.448 85.6924 122.396 82.7104C126.804 78.2513 132.401 66.0014 134.276 49.6438C134.357 48.9362 134.957 48.4042 135.665 48.4042C135.676 48.4042 135.688 48.4042 135.698 48.4045C135.743 48.4042 140.43 48.4747 147.371 46.3464C147.731 46.236 148.121 46.2752 148.451 46.4558C148.782 46.6368 149.025 46.9433 149.128 47.306C149.235 47.6884 151.742 56.8063 150.643 68.383C149.18 83.8089 141.907 96.1244 129.61 103.998C129.377 104.148 129.115 104.219 128.857 104.219Z" fill="#212124"/>
<path d="M136.228 56.0571C136.228 56.0571 131.419 47.8184 136.174 47.9679C138.6 48.0431 141.155 52.1184 141.155 52.1184C141.155 52.1184 139.897 55.5943 136.228 56.0571Z" fill="#D9B67B"/>
<path d="M136.049 48.8554C135.32 48.8554 135.171 49.115 135.115 49.2131C134.544 50.2079 135.641 53.0989 136.695 55.0678C138.73 54.5686 139.763 52.9543 140.143 52.2015C139.172 50.7918 137.439 48.8974 136.147 48.8568C136.113 48.8557 136.081 48.8554 136.049 48.8554ZM136.228 56.9478C135.914 56.9478 135.619 56.7812 135.459 56.5061C134.905 55.556 132.209 50.6987 133.572 48.3262C133.911 47.736 134.642 47.0266 136.203 47.0777C139.021 47.1656 141.622 51.1872 141.909 51.6459C142.054 51.878 142.086 52.1637 141.992 52.4213C141.933 52.5842 140.501 56.4151 136.339 56.9403C136.302 56.9453 136.264 56.9478 136.228 56.9478Z" fill="#212124"/>
<path d="M133.697 53.9669C133.697 53.9669 143.11 54.8566 150.169 51.5225C150.169 51.5225 151.883 52.7819 151.536 58.8755C151.536 58.8755 138.469 63.2982 133.937 60.4929C133.937 60.4929 131.998 57.525 133.697 53.9669Z" fill="#DC363A"/>
<path d="M134.868 59.5566C135.667 59.9478 136.876 60.1535 138.393 60.1535C142.675 60.1535 148.23 58.5737 150.303 57.9341C150.369 55.2894 149.992 53.8271 149.709 53.1145C145.255 54.9458 140.195 55.3465 136.62 55.3465C135.765 55.3465 135.054 55.3229 134.535 55.2968C133.901 57.2953 134.561 58.947 134.868 59.5566ZM138.393 62.6963C136.163 62.6963 134.487 62.3298 133.268 61.5741C133.109 61.476 132.974 61.3448 132.872 61.1885C132.777 61.0432 130.566 57.575 132.549 53.4193C132.779 52.9378 133.285 52.6485 133.816 52.7017C133.826 52.7024 134.927 52.8033 136.62 52.8033C139.555 52.8033 145.149 52.4876 149.627 50.3731C150.049 50.1737 150.546 50.2221 150.922 50.4983C151.454 50.8892 153.164 52.6548 152.806 58.9477C152.776 59.4652 152.435 59.9136 151.944 60.0797C151.628 60.187 144.146 62.6963 138.393 62.6963Z" fill="#212124"/>
<path d="M113.846 164.869L112.318 177.01H127.584L126.271 164.669L113.846 164.869Z" fill="#D9B67B"/>
<path d="M113.76 175.738H126.169L125.129 165.958L114.97 166.123L113.76 175.738ZM127.583 178.281H112.318C111.953 178.281 111.606 178.124 111.364 177.851C111.123 177.577 111.011 177.213 111.056 176.85L112.585 164.71C112.664 164.083 113.193 163.609 113.826 163.598L126.25 163.397C126.257 163.397 126.264 163.397 126.271 163.397C126.92 163.397 127.466 163.886 127.534 164.533L128.847 176.875C128.885 177.233 128.77 177.592 128.528 177.86C128.288 178.128 127.944 178.281 127.583 178.281Z" fill="#212124"/>
<path d="M73.3154 87.5116C73.3154 87.5116 69.5336 130.945 68.9582 135.888C68.3839 140.83 68.9977 163.117 69.1106 166.481L82.7084 166.735L86.7636 145.053C86.7636 145.053 93.5271 146.559 100.734 146.386C107.94 146.214 113.043 144.625 113.043 144.625L113.587 164.72H126.824C131.655 143.242 131.956 143.933 131.996 135.378C132.074 119.029 127.985 89.0278 127.985 89.0278" fill="#C2B195"/>
<path d="M133.283 60.0692C133.283 60.0692 141.903 63.1186 151.647 57.3969C151.647 57.3969 157.288 55.8285 150.222 78.493C150.222 78.493 144.404 95.5862 130.159 102.097C130.159 102.097 123.033 94.4929 117.108 84.2274C117.108 84.2274 126.433 80.4972 129.3 70.6557C129.3 70.6557 131.011 60.6605 133.283 60.0692Z" fill="white"/>
<path d="M118.907 84.7791C123.526 92.5011 128.707 98.5628 130.465 100.54C143.297 94.1316 148.828 78.6277 149.013 78.0957C154.004 62.0856 152.313 59.1325 151.921 58.7067C147.893 60.9938 143.594 62.1527 139.138 62.1527C136.439 62.1527 134.414 61.7096 133.461 61.4499C132.585 62.431 131.285 66.5952 130.554 70.8698C130.545 70.9171 130.535 70.9647 130.52 71.0109C128.149 79.1523 121.714 83.3084 118.907 84.7791ZM130.159 103.368C129.815 103.368 129.477 103.228 129.23 102.966C128.936 102.651 121.937 95.137 116.007 84.8627C115.822 84.5435 115.785 84.16 115.906 83.8111C116.026 83.4625 116.293 83.1835 116.635 83.0463C116.721 83.0117 125.385 79.419 128.06 70.3664C128.138 69.9205 128.553 67.6324 129.213 65.2455C130.348 61.1434 131.469 59.2274 132.961 58.8387C133.208 58.7748 133.467 58.7854 133.706 58.8701C133.725 58.8761 135.87 59.6091 139.138 59.6091C143.272 59.6091 147.263 58.4958 151.003 56.3004C151.098 56.2447 151.2 56.2013 151.307 56.1717C151.4 56.1459 151.597 56.1022 151.864 56.1022C152.353 56.1022 153.285 56.2532 154.029 57.2646C155.987 59.927 155.139 66.9945 151.435 78.8711C151.432 78.8817 151.429 78.8916 151.425 78.9022C151.181 79.6215 145.263 96.5915 130.687 103.253C130.517 103.33 130.337 103.368 130.159 103.368Z" fill="#212124"/>
<path d="M113.043 144.879L113.987 164.72H126.398C126.398 164.72 130.304 147.186 130.902 139.95C132.553 119.983 128.398 101.08 128.398 101.08" fill="#C2B195"/>
<path d="M126.398 165.991H113.988C113.309 165.991 112.751 165.459 112.718 164.781L111.773 144.94C111.74 144.238 112.281 143.642 112.983 143.609C113.685 143.572 114.28 144.118 114.313 144.818L115.201 163.448H125.376C126.204 159.642 129.133 145.929 129.635 139.845C131.249 120.311 127.198 101.54 127.157 101.353C127.006 100.667 127.44 99.9886 128.126 99.838C128.811 99.6852 129.49 100.121 129.641 100.807C129.682 100.998 133.817 120.127 132.17 140.055C131.571 147.294 127.8 164.277 127.64 164.997C127.51 165.578 126.994 165.991 126.398 165.991Z" fill="#212124"/>
<path d="M71.8818 112.872C71.8818 112.872 69.8226 120.915 68.934 136.632C68.0908 151.544 69.103 163.048 68.9753 166.481L83.0433 166.735L86.7662 145.121" fill="#C2B195"/>
<path d="M83.0433 168.006C83.0363 168.006 83.0285 168.006 83.0204 168.006L68.9523 167.752C68.6108 167.745 68.2863 167.602 68.0513 167.354C67.8171 167.107 67.6922 166.774 67.7046 166.433C67.7405 165.453 67.6753 163.668 67.5931 161.408C67.3976 156.046 67.0699 147.072 67.6643 136.561C68.5505 120.899 70.5652 112.889 70.6499 112.556C70.8245 111.876 71.5167 111.466 72.1972 111.64C72.877 111.814 73.2876 112.507 73.1133 113.186C73.0939 113.265 71.0732 121.324 70.2036 136.704C69.6156 147.098 69.9412 155.997 70.1341 161.315C70.1934 162.916 70.2403 164.221 70.2541 165.232L81.9751 165.444L85.5135 144.905C85.6331 144.213 86.2899 143.749 86.9817 143.868C87.6746 143.987 88.1389 144.644 88.0196 145.337L84.2964 166.95C84.1913 167.561 83.6614 168.006 83.0433 168.006Z" fill="#212124"/>
<path d="M73.3269 158.25C73.2842 158.25 73.2422 158.249 73.1988 158.245L69.0526 157.868C68.2836 157.799 67.7159 157.119 67.7861 156.349C67.8556 155.58 68.5351 155.013 69.3056 155.083L73.4514 155.458C74.2208 155.528 74.7874 156.209 74.7175 156.978C74.6523 157.704 74.0419 158.25 73.3269 158.25Z" fill="#212124"/>
<path d="M73.5694 151.213C73.5288 151.213 73.4889 151.212 73.4487 151.209L69.8151 150.897C69.0457 150.831 68.4749 150.154 68.5405 149.385C68.6065 148.616 69.2835 148.044 70.054 148.11L73.6869 148.421C74.4566 148.487 75.0271 149.164 74.9611 149.934C74.899 150.663 74.2876 151.213 73.5694 151.213Z" fill="#212124"/>
<path d="M125.98 155.562C125.228 155.562 124.607 154.965 124.583 154.207C124.558 153.436 125.165 152.79 125.936 152.765L128.534 152.682C129.306 152.659 129.952 153.264 129.977 154.036C130.002 154.807 129.396 155.454 128.624 155.479L126.025 155.561C126.01 155.562 125.995 155.562 125.98 155.562Z" fill="#212124"/>
<path d="M126.773 148.29C126.045 148.29 125.431 147.725 125.379 146.988C125.325 146.217 125.907 145.549 126.677 145.495L129.623 145.29C130.394 145.233 131.062 145.817 131.116 146.588C131.17 147.359 130.589 148.027 129.818 148.081L126.871 148.286C126.838 148.288 126.806 148.29 126.773 148.29Z" fill="#212124"/>
<path d="M68.9269 166.647L67.3044 179.559H83.5929L82.9632 166.688L68.9269 166.647Z" fill="#D9B67B"/>
<path d="M68.746 178.288H82.2581L81.7522 167.956L70.0481 167.923L68.746 178.288ZM83.593 180.831H67.3046C66.9402 180.831 66.5927 180.674 66.3521 180.4C66.1097 180.127 65.9986 179.763 66.043 179.401L67.6651 166.49C67.7452 165.852 68.286 165.381 68.9302 165.377L82.9668 165.417C83.6435 165.419 84.2012 165.951 84.233 166.626L84.8627 179.497C84.8803 179.845 84.754 180.184 84.5141 180.436C84.2742 180.689 83.9409 180.831 83.593 180.831Z" fill="#212124"/>
<path d="M123.482 84.6344C123.482 84.6344 137.893 100.316 134.164 129.817C134.218 129.777 126.311 137.316 107.037 136.09C107.037 136.09 107.885 108.54 103.306 95.4845L123.482 84.6344Z" fill="#DC363A"/>
<path d="M108.338 134.888C109.304 134.931 110.261 134.953 111.195 134.953C124.805 134.953 131.494 130.333 132.962 129.169C134.722 114.513 131.842 103.474 129.095 96.767C126.842 91.2658 124.313 87.707 123.168 86.2475L104.85 96.0992C108.597 108.038 108.444 129.456 108.338 134.888ZM111.195 137.497C109.816 137.497 108.39 137.45 106.957 137.359C106.272 137.315 105.745 136.737 105.766 136.051C105.774 135.777 106.553 108.585 102.107 95.9048C101.9 95.315 102.153 94.6613 102.705 94.3653L122.88 83.5145C123.392 83.2387 124.026 83.3459 124.419 83.7742C124.572 83.9407 128.211 87.9504 131.398 95.6783C134.317 102.761 137.387 114.461 135.425 129.976C135.404 130.143 135.35 130.302 135.267 130.447C135.009 130.9 132.908 132.622 129.245 134.198C125.746 135.702 119.775 137.497 111.195 137.497Z" fill="#212124"/>
<path d="M95.5087 99.4686C95.5087 99.4686 98.8989 120.83 97.7125 136.598C97.7125 136.598 80.3851 139.565 65.4993 133.291C65.4993 133.291 62.1768 115.507 67.7034 93.1108C67.7034 93.1108 69.8229 91.6693 72.6205 91.161C78.6533 90.0649 84.9208 100.669 95.5087 99.4686Z" fill="#DC363A"/>
<path d="M66.6403 132.386C74.1248 135.387 82.1865 136.027 87.6993 136.027C91.7669 136.027 94.9796 135.687 96.5135 135.486C97.3323 122.26 95.0801 105.352 94.4243 100.823C94.2285 100.832 94.0338 100.835 93.8384 100.835C88.3308 100.835 84.1059 98.0404 80.3788 95.5752C77.7633 93.8455 75.5052 92.3526 73.5152 92.3526C73.2884 92.3526 73.0636 92.3727 72.8477 92.4118C71.0302 92.7424 69.5062 93.5231 68.8151 93.9214C64.1676 113.164 66.1259 128.991 66.6403 132.386ZM87.6993 138.57C81.7928 138.57 73.0608 137.857 65.0055 134.463C64.6121 134.297 64.3282 133.945 64.2495 133.525C64.1119 132.788 60.9401 115.212 66.4699 92.8055C66.5447 92.5011 66.7299 92.2358 66.9885 92.059C67.0841 91.9934 69.3655 90.4606 72.3934 89.9099C72.7588 89.8436 73.1356 89.8097 73.5152 89.8097C76.2704 89.8097 78.9469 91.58 81.7808 93.4543C85.2098 95.7212 89.096 98.2912 93.8384 98.2912C94.3435 98.2912 94.8568 98.2623 95.3645 98.2048C96.0411 98.1236 96.6578 98.5971 96.764 99.2684C96.7982 99.4836 100.164 120.959 98.9805 136.693C98.9367 137.275 98.5017 137.753 97.9274 137.851C97.7549 137.88 93.6567 138.57 87.6993 138.57Z" fill="#212124"/>
<path d="M101.039 147.255C92.6986 147.255 85.9813 145.444 85.5488 145.326C84.8718 145.139 84.4746 144.439 84.6605 143.762C84.8471 143.085 85.547 142.689 86.2244 142.873C86.3821 142.917 102.151 147.155 114.955 142.522C115.615 142.282 116.343 142.625 116.583 143.285C116.821 143.946 116.48 144.675 115.82 144.914C110.934 146.682 105.729 147.255 101.039 147.255Z" fill="#212124"/>
<path d="M123.582 44.0151C122.884 44.0151 122.283 43.4958 122.195 42.7875C122.1 42.0205 122.645 41.322 123.411 41.2278L129.019 40.5353C129.786 40.4429 130.485 40.9858 130.579 41.7524C130.674 42.5187 130.129 43.2175 129.363 43.3121L123.754 44.0038C123.696 44.0113 123.639 44.0151 123.582 44.0151Z" fill="#212124"/>
<path d="M57.9697 37.8516L37.854 40.3834C37.854 40.3834 37.9598 46.3711 43.7041 50.3999C49.4473 54.4293 61.2689 54.0839 61.2689 54.0839L57.9697 37.8516Z" fill="#C2B195"/>
<path d="M39.2628 41.4882C39.5905 43.2563 40.6993 46.7396 44.4338 49.3594C47.8829 51.7791 54.4287 52.7217 59.7126 52.8127L56.9588 39.2607L39.2628 41.4882ZM60.5656 55.3633C57.7498 55.3633 48.1602 55.0807 42.9733 51.4411C36.7711 47.091 36.587 40.6771 36.5827 40.4066C36.5707 39.7567 37.0509 39.2036 37.6947 39.1225L57.8108 36.5902C58.4712 36.5084 59.0825 36.9469 59.2155 37.5985L62.5147 53.8308C62.5895 54.1984 62.4978 54.5801 62.2646 54.874C62.0318 55.1678 61.6804 55.3442 61.3058 55.3552C61.3058 55.3552 61.0398 55.3633 60.5656 55.3633Z" fill="#212124"/>
<path d="M60.5107 37.5249L65.2136 20.5725L72.5627 35.3578L60.5107 37.5249Z" fill="#D9B67B"/>
<path d="M65.5528 24.1094L62.2769 35.9151L70.6691 34.4056L65.5528 24.1094ZM60.5109 38.7959C60.156 38.7959 59.8145 38.6477 59.5704 38.3807C59.2765 38.0575 59.1689 37.6056 59.2853 37.1844L63.9889 20.232C64.1293 19.7251 64.5689 19.3568 65.0927 19.3063C65.6159 19.2587 66.1186 19.5346 66.3525 20.0063L73.7012 34.7912C73.8797 35.1496 73.8787 35.5712 73.6991 35.9285C73.5195 36.2859 73.1812 36.5385 72.7879 36.609L60.7356 38.7761C60.6608 38.7895 60.5857 38.7959 60.5109 38.7959Z" fill="#212124"/>
<path d="M108.241 32.284L113.012 16.2658L119.914 32.8887L108.241 32.284Z" fill="#D9B67B"/>
<path d="M109.921 31.098L117.967 31.5147L113.209 20.0572L109.921 31.098ZM119.915 34.1602C119.893 34.1602 119.871 34.1595 119.849 34.1584L108.175 33.5537C107.786 33.5336 107.427 33.3357 107.202 33.0175C106.977 32.6986 106.91 32.2943 107.023 31.9211L111.793 15.9029C111.946 15.3871 112.408 15.0237 112.945 14.9959C113.483 14.9705 113.979 15.2809 114.186 15.778L121.047 32.2993C121.139 32.4756 121.191 32.676 121.191 32.8887C121.191 33.5908 120.622 34.1602 119.919 34.1602C119.918 34.1595 119.916 34.1602 119.915 34.1602Z" fill="#212124"/>
<path d="M57.8784 38.0762C58.9943 37.0204 108.282 27.3479 120.998 33.1606C122.235 33.7261 123.267 47.3465 123.589 51.3326C123.913 55.3186 124.388 69.4417 124.536 73.0069C124.684 76.572 124.731 83.7553 123.873 86.3821C123.015 89.0082 118.275 97.944 102.942 100.672C87.6081 103.401 75.5939 98.5607 72.2541 92.2999C68.9144 86.0395 65.2377 70.0873 65.2377 70.0873L59.0684 46.5859C59.0684 46.5859 56.7612 39.1314 57.8784 38.0762Z" fill="#C2B195"/>
<path d="M58.8455 39.0387C58.7435 40.0897 59.3669 43.2477 60.2827 46.2104C60.288 46.2276 60.2933 46.2456 60.2975 46.2626L66.468 69.765C66.4711 69.7773 66.4743 69.789 66.4775 69.8017C66.5135 69.9597 70.1545 85.6618 73.3757 91.7017C75.6275 95.9213 82.9871 100.179 94.3547 100.179C97.0753 100.179 99.8894 99.9239 102.719 99.4198C119.048 96.5147 122.523 86.4154 122.663 85.9871C123.405 83.7201 123.43 77.0138 123.265 73.0599C123.231 72.251 123.181 70.9009 123.119 69.2485C122.914 63.7293 122.569 54.4908 122.321 51.4353L122.27 50.7866C121.32 38.9537 120.632 35.1829 120.202 34.2C117.654 33.128 113.411 32.5854 107.583 32.5854C89.5047 32.5854 62.55 37.8114 58.8455 39.0387ZM94.3547 102.722C83.5999 102.722 74.2672 98.7746 71.1324 92.8984C67.7799 86.6133 64.2084 71.2805 64.0028 70.3919L57.8454 46.935C55.3163 38.7488 56.5867 37.5468 57.0047 37.1517C57.2774 36.8932 57.6185 36.5711 63.0326 35.4309C66.6271 34.6749 71.0961 33.8589 75.6176 33.1336C82.8182 31.979 96.5458 30.0422 107.583 30.0422C113.987 30.0422 118.679 30.7019 121.526 32.0044C122.681 32.5325 123.478 34.0462 124.805 50.583L124.856 51.23C125.108 54.3412 125.455 63.6136 125.661 69.154C125.722 70.8014 125.772 72.1483 125.805 72.9544C125.85 74.0082 126.202 83.3494 125.081 86.777C124.682 87.999 120.674 98.8085 103.164 101.924C100.188 102.454 97.2245 102.722 94.3547 102.722Z" fill="#212124"/>
<path d="M80.0508 66.1318C78.2047 59.2336 74.0066 36.3602 74.4603 34.6429C74.4603 34.6429 78.2153 32.9517 87.7583 32.0482C97.3009 31.1448 106.094 31.7378 107.385 33.4286C108.142 34.4217 109.132 37.1314 109.776 42.5744C109.776 42.5744 111.251 55.038 110.949 61.3803" fill="#8A806E"/>
<path d="M80.0496 67.4043C79.4876 67.4043 78.9744 67.0289 78.8216 66.461C77.3816 61.0755 72.6109 36.6647 73.2308 34.3183C73.3292 33.9476 73.5885 33.641 73.9388 33.484C74.1 33.411 77.9968 31.6954 87.6372 30.7824C93.8718 30.1922 106.234 29.8243 108.395 32.6582C109.531 34.1462 110.469 37.615 111.039 42.4252C111.099 42.9388 112.522 55.0666 112.218 61.4406C112.185 62.1423 111.59 62.6877 110.888 62.6506C110.187 62.6171 109.646 62.0213 109.678 61.3203C109.972 55.1562 108.528 42.8474 108.513 42.7243C107.75 36.2819 106.597 34.4937 106.373 34.2002C105.554 33.3397 98.6618 32.2937 87.8774 33.3143C80.9972 33.9656 77.1861 35.0387 75.7066 35.5358C75.963 39.6873 79.5381 59.2968 81.2787 65.8037C81.4597 66.4821 81.0571 67.1792 80.3795 67.3606C80.2683 67.3902 80.1579 67.4043 80.0496 67.4043Z" fill="#212124"/>
<path d="M81.3857 46.5742C80.9028 46.5742 80.4741 46.2288 80.3856 45.7367C79.4292 40.4228 78.572 33.6022 78.5638 33.5338C78.4943 32.9768 78.8895 32.4677 79.4468 32.3982C80.0035 32.3259 80.5126 32.7242 80.5824 33.2816C80.5912 33.3489 81.4407 40.1173 82.3876 45.3765C82.4874 45.9293 82.1195 46.4585 81.567 46.5576C81.506 46.5689 81.4453 46.5742 81.3857 46.5742Z" fill="#212124"/>
<path d="M85.8368 64.2402C85.4128 64.2402 85.0184 63.9746 84.8734 63.5516C83.96 60.8765 82.4798 55.5894 82.4173 55.3658C82.2656 54.825 82.5824 54.264 83.124 54.1123C83.6644 53.9614 84.226 54.2774 84.377 54.8186C84.3925 54.8729 85.9031 60.2736 86.7988 62.8937C86.9802 63.4253 86.6965 64.0039 86.1656 64.1852C86.0562 64.2222 85.9455 64.2402 85.8368 64.2402Z" fill="#212124"/>
<path d="M90.9494 63.3672C90.4841 63.3672 90.0643 63.0462 89.9585 62.5734C89.9461 62.5191 88.7311 57.0941 87.3144 48.6952C85.9015 40.3156 84.8061 33.1849 84.7956 33.114C84.7105 32.5591 85.0915 32.0395 85.6468 31.9545C86.2021 31.8691 86.721 32.2501 86.8064 32.8054C86.817 32.8766 87.9102 39.9928 89.321 48.3572C90.7272 56.6965 91.9308 62.0732 91.9425 62.1272C92.0667 62.675 91.722 63.2194 91.1745 63.3425C91.0983 63.3594 91.0231 63.3672 90.9494 63.3672Z" fill="#212124"/>
<path d="M101.416 61.9277C100.905 61.9277 100.465 61.5439 100.406 61.0243C99.0293 48.8097 95.8501 32.4775 95.818 32.3142C95.7107 31.7628 96.0702 31.2283 96.6216 31.1211C97.1734 31.0124 97.7071 31.373 97.8151 31.9243C97.8465 32.088 101.042 48.5017 102.428 60.7967C102.491 61.3548 102.089 61.8586 101.532 61.9207C101.492 61.9256 101.453 61.9277 101.416 61.9277Z" fill="#212124"/>
<path d="M96.1495 62.5234C95.6528 62.5234 95.2174 62.1594 95.1441 61.6531C95.1232 61.5156 93.1212 47.8243 92.3617 43.2244C92.27 42.6698 92.6453 42.147 93.2002 42.0549C93.7534 41.9604 94.2776 42.3389 94.369 42.8931C95.1303 47.512 97.1365 61.2206 97.1566 61.3589C97.2381 61.9145 96.8536 62.431 96.2973 62.5125C96.2475 62.5196 96.1982 62.5234 96.1495 62.5234Z" fill="#212124"/>
<path d="M84.7004 50.1406C84.2566 50.1406 83.8484 49.8478 83.7218 49.3991C83.5694 48.8583 83.884 48.2963 84.4245 48.1439C86.0268 47.6927 87.7011 47.2792 87.718 47.2747C88.2624 47.1406 88.8152 47.4736 88.9496 48.019C89.0836 48.5641 88.7503 49.1158 88.2052 49.2506C88.1886 49.2544 86.5454 49.6605 84.9773 50.1025C84.8845 50.1283 84.7917 50.1406 84.7004 50.1406Z" fill="#212124"/>
<path d="M105.216 51.5059C104.677 51.5059 104.228 51.0825 104.201 50.5389C103.891 44.2923 101.366 32.8277 101.339 32.7123C101.218 32.1638 101.564 31.6212 102.113 31.4995C102.662 31.3792 103.205 31.7246 103.326 32.2721C103.432 32.749 105.915 44.0192 106.233 50.438C106.261 50.9993 105.829 51.4766 105.267 51.5041C105.25 51.5055 105.234 51.5059 105.216 51.5059Z" fill="#212124"/>
<path d="M110.82 69.1189L110.609 73.2143C110.609 73.2143 106.551 75.1652 105.499 74.4857C105.449 74.4526 102.721 71.0013 102.721 71.0013L100.469 75.8471L96.7438 76.7774L93.4411 72.5363L90.9064 78.4615C90.9064 78.4615 85.8927 79.0634 84.9342 78.7956C84.9342 78.7956 81.8904 72.9698 80.0454 66.0716C80.0454 66.0716 82.7332 64.265 88.5181 63.0067C94.3022 61.7473 107.606 60.5976 111.015 61.1222C111.015 61.1222 110.834 67.9738 110.82 69.1189Z" fill="#D9B67B"/>
<path d="M85.7541 77.5921H85.8056C86.9758 77.5921 88.9623 77.3959 90.028 77.2809L92.2717 72.0362C92.4488 71.622 92.8312 71.3335 93.2771 71.2749C93.7237 71.2174 94.1672 71.3994 94.4441 71.7547L97.2377 75.3435L99.5714 74.7603L101.567 70.4653C101.753 70.0645 102.134 69.7897 102.573 69.7382C103.011 69.6888 103.444 69.8666 103.718 70.213C104.503 71.2061 105.706 72.7227 106.216 73.3563C106.935 73.3238 108.309 72.837 109.379 72.3763L109.549 69.0781C109.561 68.1701 109.66 64.2888 109.712 62.2861C109.384 62.2724 108.986 62.2635 108.499 62.2635C103.252 62.2635 93.3046 63.2658 88.7887 64.249C85.0623 65.0597 82.6747 66.1081 81.537 66.6902C82.9764 71.7007 84.9925 76.0346 85.7541 77.5921ZM85.8056 80.1353C85.2521 80.1353 84.8785 80.1 84.5921 80.0202C84.2541 79.9254 83.9694 79.6953 83.8071 79.3842C83.6801 79.1411 80.6773 73.3538 78.8175 66.4006C78.6771 65.876 78.8855 65.3204 79.3364 65.0166C79.4539 64.9372 82.2934 63.0594 88.2476 61.764C92.984 60.7325 103.015 59.7207 108.499 59.7207C109.688 59.7207 110.574 59.768 111.208 59.8657C111.841 59.9631 112.302 60.5159 112.285 61.1562C112.284 61.2243 112.105 68.011 112.092 69.1335C112.092 69.1501 112.091 69.1677 112.09 69.1843L111.878 73.2801C111.854 73.7443 111.579 74.1585 111.16 74.3603C110.625 74.6175 107.868 75.9009 106.142 75.9009C105.607 75.9009 105.171 75.7876 104.81 75.5537C104.619 75.4281 104.585 75.4052 103.004 73.4088L101.622 76.3828C101.46 76.7309 101.15 76.9874 100.777 77.0802L97.0515 78.0108C96.5632 78.1329 96.0489 77.9558 95.7402 77.5586L93.7618 75.0182L92.0752 78.9616C91.8967 79.3793 91.509 79.6696 91.0581 79.7246C90.917 79.7405 87.6059 80.1353 85.8056 80.1353Z" fill="#212124"/>
<path d="M87.88 93.3809C83.7123 93.3809 80.3447 90.6317 80.1828 90.4976C79.5884 90.0048 79.5058 89.1228 79.9993 88.528C80.4918 87.9347 81.3717 87.8518 81.9657 88.3425C82.001 88.3714 85.5373 91.23 89.1903 90.4468C94.0247 89.4111 97.9046 85.4349 97.943 85.3954C98.4761 84.8433 99.3563 84.8228 99.9133 85.3502C100.06 85.4875 103.651 88.7757 108.064 87.3113C111.879 86.0445 113.169 84.0859 113.182 84.0668C113.58 83.4047 114.435 83.1993 115.096 83.598C115.758 83.9966 115.966 84.8641 115.568 85.5263C115.395 85.8124 113.742 88.3739 108.945 89.9667C104.508 91.4395 100.77 89.4414 99.0296 88.2113C97.4442 89.6132 93.987 92.2805 89.7759 93.1819C89.1317 93.3198 88.4971 93.3809 87.88 93.3809Z" fill="#212124"/>
<path d="M58.6492 45.7853L51.4141 46.6309L58.6492 45.7853Z" fill="#212124"/>
<path d="M51.4121 48.0303C50.7126 48.0303 50.1079 47.506 50.0246 46.7934C49.9354 46.0265 50.4843 45.3315 51.252 45.2419L58.4864 44.3956C59.2544 44.3053 59.9479 44.8553 60.0379 45.6226C60.1271 46.3899 59.5793 47.0845 58.8113 47.1744L51.5765 48.02C51.5215 48.0271 51.4668 48.0303 51.4121 48.0303Z" fill="#212124"/>
<path d="M66.0262 70.9243C65.3757 70.9243 64.7929 70.4682 64.6575 69.806C64.5022 69.0497 64.9901 68.3102 65.7461 68.155L70.7175 67.1351C71.4742 66.981 72.2132 67.4674 72.3688 68.2242C72.524 68.9809 72.0362 69.7203 71.2798 69.8752L66.3088 70.895C66.2136 70.9148 66.1194 70.9243 66.0262 70.9243Z" fill="#212124"/>
<path d="M68.4568 79.7349C67.8648 79.7349 67.3159 79.3567 67.1258 78.763C66.8894 78.0274 67.2944 77.24 68.0296 77.004L72.3187 75.6282C73.0538 75.3929 73.8412 75.7975 74.0776 76.5334C74.3136 77.2686 73.9076 78.0563 73.1727 78.292L68.884 79.6678C68.7426 79.7133 68.5979 79.7349 68.4568 79.7349Z" fill="#212124"/>
<path d="M70.5342 87.8149C69.9352 87.8149 69.3803 87.4262 69.1968 86.824C68.9718 86.0842 69.388 85.3032 70.1275 85.0784C70.1497 85.0717 72.3619 84.3969 74.5432 83.6532C75.2748 83.4042 76.0696 83.7954 76.3187 84.5267C76.5674 85.2573 76.1769 86.0521 75.4459 86.3015C73.2199 87.0604 70.9646 87.7476 70.9424 87.7539C70.8062 87.7955 70.669 87.8149 70.5342 87.8149Z" fill="#212124"/>
<path d="M118.392 64.0122C117.682 64.0122 117.074 63.4742 117.001 62.7531C116.925 61.9844 117.485 61.299 118.254 61.2214C118.279 61.2189 120.772 60.9667 123.168 60.5606C123.93 60.4312 124.652 60.9448 124.781 61.7061C124.91 62.4677 124.397 63.1895 123.636 63.3186C121.143 63.7409 118.639 63.9946 118.533 64.0052C118.485 64.0097 118.439 64.0122 118.392 64.0122Z" fill="#212124"/>
<path d="M123.797 72.8223C123.733 72.8223 123.669 72.8177 123.603 72.8089C122.503 72.6558 118.944 72.3189 118.907 72.3157C118.139 72.243 117.575 71.5607 117.648 70.7913C117.72 70.0223 118.402 69.4596 119.171 69.5305C119.319 69.545 122.827 69.8766 123.987 70.0381C124.753 70.1443 125.287 70.8506 125.181 71.6158C125.083 72.3157 124.484 72.8223 123.797 72.8223Z" fill="#212124"/>
<path d="M123.925 82.8408C123.773 82.8408 123.619 82.8161 123.468 82.7643C121.962 82.2425 119.191 81.4346 119.163 81.4262C118.421 81.2106 117.995 80.4342 118.211 79.693C118.427 78.9511 119.203 78.5253 119.946 78.7405C120.061 78.7747 122.811 79.5762 124.382 80.1198C125.112 80.3724 125.499 81.1687 125.247 81.8993C125.047 82.4775 124.505 82.8408 123.925 82.8408Z" fill="#212124"/>
<path d="M113.565 131.183C113.565 131.933 112.959 132.54 112.209 132.54C111.461 132.54 110.853 131.933 110.853 131.183C110.853 130.434 111.461 129.827 112.209 129.827C112.959 129.827 113.565 130.434 113.565 131.183Z" fill="white"/>
<path d="M112.209 128.556C110.76 128.556 109.581 129.734 109.581 131.184C109.581 132.632 110.76 133.812 112.209 133.812C113.658 133.812 114.837 132.632 114.837 131.184C114.837 129.734 113.658 128.556 112.209 128.556ZM112.209 129.827C112.959 129.827 113.565 130.434 113.565 131.184C113.565 131.933 112.959 132.539 112.209 132.539C111.461 132.539 110.853 131.933 110.853 131.184C110.853 130.434 111.461 129.827 112.209 129.827Z" fill="#212124"/>
<path d="M113.565 123.571C113.565 124.32 112.959 124.928 112.209 124.928C111.461 124.928 110.853 124.32 110.853 123.571C110.853 122.822 111.461 122.215 112.209 122.215C112.959 122.215 113.565 122.822 113.565 123.571Z" fill="white"/>
<path d="M112.209 120.943C110.76 120.943 109.581 122.122 109.581 123.571C109.581 125.02 110.76 126.199 112.209 126.199C113.658 126.199 114.837 125.02 114.837 123.571C114.837 122.122 113.658 120.943 112.209 120.943ZM112.209 122.214C112.959 122.214 113.565 122.822 113.565 123.571C113.565 124.32 112.959 124.927 112.209 124.927C111.461 124.927 110.853 124.32 110.853 123.571C110.853 122.822 111.461 122.214 112.209 122.214Z" fill="#212124"/>
<path d="M113.524 115.671C113.524 116.42 112.917 117.027 112.167 117.027C111.418 117.027 110.811 116.42 110.811 115.671C110.811 114.921 111.418 114.314 112.167 114.314C112.917 114.314 113.524 114.921 113.524 115.671Z" fill="white"/>
<path d="M112.167 113.043C110.718 113.043 109.539 114.222 109.539 115.671C109.539 117.12 110.718 118.298 112.167 118.298C113.616 118.298 114.794 117.12 114.794 115.671C114.794 114.222 113.616 113.043 112.167 113.043ZM112.167 114.314C112.917 114.314 113.524 114.921 113.524 115.671C113.524 116.42 112.917 117.027 112.167 117.027C111.418 117.027 110.811 116.42 110.811 115.671C110.811 114.921 111.418 114.314 112.167 114.314Z" fill="#212124"/>
<path d="M126.393 101.373L124.198 101.667L120.839 105.584L120.803 105.61L125.16 110.019L127.673 109.681L123.135 105.295L126.393 101.373Z" fill="#212124"/>
<path d="M126.393 100.228C126.375 100.228 126.358 100.229 126.34 100.23C126.3 100.231 126.26 100.235 126.222 100.241L124.046 100.533C123.767 100.571 123.512 100.709 123.329 100.922L120.044 104.753C119.826 104.946 119.688 105.217 119.663 105.511C119.634 105.845 119.754 106.175 119.989 106.414L124.347 110.824C124.563 111.043 124.857 111.164 125.16 111.164C125.211 111.164 125.263 111.161 125.313 111.153L127.824 110.816C128.259 110.757 128.622 110.456 128.758 110.039C128.896 109.622 128.782 109.164 128.467 108.859L124.694 105.209L127.257 102.124C127.432 101.923 127.538 101.66 127.538 101.373C127.538 100.753 127.045 100.248 126.428 100.229C126.417 100.228 126.405 100.228 126.393 100.228ZM126.393 101.373L123.135 105.295L127.672 109.681L125.16 110.019L120.803 105.61L120.839 105.584L124.198 101.667L126.393 101.373ZM126.393 101.373H126.394H126.393Z" fill="#212124"/>
<path d="M117.576 102.579C117.576 102.579 118.127 102.625 118.238 103.456L119.218 110.757L121.395 110.466L120.285 102.214L117.576 102.579Z" fill="#212124"/>
<path d="M120.285 101.069C120.235 101.069 120.184 101.072 120.132 101.08L117.423 101.445C116.844 101.523 116.418 102.024 116.433 102.608C116.444 103.058 116.715 103.445 117.105 103.622L118.084 110.909C118.161 111.484 118.652 111.901 119.217 111.901C119.267 111.901 119.318 111.898 119.37 111.891L121.547 111.599C121.848 111.56 122.121 111.401 122.304 111.16C122.489 110.919 122.57 110.613 122.529 110.313L121.42 102.061C121.379 101.76 121.221 101.487 120.979 101.303C120.779 101.15 120.535 101.069 120.285 101.069ZM120.285 102.214L121.395 110.466L119.218 110.757L118.238 103.457C118.127 102.625 117.576 102.579 117.576 102.579L120.285 102.214Z" fill="#212124"/>
<path d="M126.393 101.373L124.198 101.667L120.839 105.584L120.803 105.61L125.16 110.019L127.673 109.681L123.135 105.295L126.393 101.373Z" fill="white"/>
<path d="M117.576 102.579C117.576 102.579 118.127 102.625 118.238 103.456L119.218 110.757L121.395 110.466L120.285 102.214L117.576 102.579Z" fill="white"/>
<path d="M104.143 123.347H75.8415C75.8415 123.347 74.0935 123.545 74.0935 125.466C74.0935 127.386 75.1099 128.54 77.0138 128.54H106.448L104.143 123.347Z" fill="#A3A7A8"/>
<path d="M103.393 124.501H75.9378C75.6104 124.569 75.2474 124.795 75.2474 125.465C75.2474 127.168 76.1918 127.386 77.0138 127.386H104.673L103.393 124.501ZM72.9392 125.465C72.9392 123.131 74.7528 122.309 75.711 122.2C75.7544 122.196 75.7978 122.192 75.8419 122.192H104.143C104.599 122.192 105.013 122.462 105.197 122.879L107.503 128.072C107.661 128.428 107.629 128.841 107.416 129.169C107.203 129.496 106.839 129.694 106.448 129.694H77.0138C74.5013 129.694 72.9392 128.074 72.9392 125.465Z" fill="#222224"/>
<path d="M99.9205 124.54L111.191 95.0739C111.191 95.0739 112.423 90.6112 116.649 90.6112H162.583C162.583 90.6112 168.43 90.5661 166.506 95.8426C164.931 100.166 156.12 125.924 156.12 125.924C156.12 125.924 155.12 128.54 151.351 128.847C147.437 129.167 104.143 128.847 104.143 128.847C104.143 128.847 97.8822 129.616 99.9205 124.54Z" fill="#A3A7A8"/>
<path d="M165.423 95.4481C165.838 94.3079 165.847 93.4415 165.45 92.8746C164.813 91.9651 163.168 91.7654 162.583 91.7654H116.649C113.373 91.7654 112.344 95.2375 112.304 95.3804C112.294 95.4163 112.283 95.4516 112.269 95.4862L100.992 124.969C100.733 125.613 100.495 126.485 100.83 126.979C101.15 127.453 102.078 127.735 103.31 127.735C103.718 127.735 104.002 127.702 104.002 127.702C104.051 127.696 104.099 127.693 104.152 127.693C104.344 127.695 123.549 127.836 137.373 127.836C147.449 127.836 150.484 127.76 151.257 127.697C154.125 127.463 154.972 125.673 155.039 125.52C155.386 124.506 163.885 99.6655 165.423 95.4481ZM104.201 130.002C104.054 130.016 103.731 130.043 103.31 130.043C101.853 130.043 99.9085 129.736 98.9186 128.273C98.1936 127.201 98.1707 125.8 98.8434 124.127L110.096 94.7104C110.627 92.8601 112.651 89.4569 116.649 89.4569H162.588C162.924 89.4569 165.917 89.5165 167.341 91.551C168.195 92.7723 168.279 94.3485 167.59 96.238C166.037 100.501 157.301 126.04 157.213 126.297C157.208 126.311 157.202 126.324 157.198 126.336C157.147 126.47 155.888 129.635 151.444 129.998C150.243 130.096 145.64 130.143 137.373 130.143C123.949 130.143 105.458 130.01 104.201 130.002Z" fill="#222224"/>
<path d="M119.197 90.9372C119.197 90.9372 115.654 91.4583 114.27 95.7671L119.197 90.9372Z" fill="#A3A7A8"/>
<path d="M114.27 96.4585C114.562 96.4585 114.834 96.2719 114.928 95.978C116.155 92.162 119.174 91.6424 119.301 91.6212C119.677 91.5623 119.937 91.2099 119.88 90.8335C119.822 90.456 119.474 90.1946 119.096 90.2528C118.934 90.2757 115.11 90.8895 113.61 95.5543C113.493 95.9184 113.693 96.3089 114.057 96.4253C114.127 96.4483 114.199 96.4585 114.27 96.4585Z" fill="#222224"/>
<path d="M113.038 99.3057L105.157 120.308L113.038 99.3057Z" fill="#A3A7A8"/>
<path d="M105.157 121C105.437 121 105.701 120.829 105.806 120.551L113.685 99.5481C113.82 99.19 113.639 98.7914 113.281 98.6573C112.923 98.5218 112.524 98.7046 112.39 99.062L104.51 120.065C104.374 120.423 104.555 120.822 104.913 120.956C104.994 120.986 105.077 121 105.157 121Z" fill="#222224"/>
<path d="M104.422 122.309L103.729 124L104.422 122.309Z" fill="#A3A7A8"/>
<path d="M103.729 124.693C104.001 124.693 104.26 124.531 104.37 124.262L105.062 122.57C105.207 122.217 105.037 121.813 104.684 121.668C104.329 121.522 103.925 121.692 103.781 122.046L103.088 123.739C102.944 124.093 103.113 124.497 103.467 124.641C103.553 124.677 103.641 124.693 103.729 124.693Z" fill="#222224"/>
<mask id="mask1_722_20843" style="mask-type:luminance" maskUnits="userSpaceOnUse" x="129" y="102" width="14" height="15">
<path d="M129.97 102.586H142.006V116.521H129.97V102.586Z" fill="white"/>
</mask>
<g mask="url(#mask1_722_20843)">
<g opacity="0.800003">
<path d="M130.515 108.038C131.574 105.78 133.924 104.528 136.325 104.708C136.581 103.828 137.128 102.369 137.887 102.613C138.655 102.859 137.822 104.139 137.279 104.856C137.687 104.953 138.092 105.092 138.487 105.277C141.51 106.694 142.841 110.23 141.461 113.173C140.08 116.115 136.511 117.352 133.488 115.934C130.466 114.515 129.136 110.981 130.515 108.038Z" fill="white"/>
</g>
</g>
<path d="M85.9037 133.896C85.9037 133.896 92.5987 134.176 93.5731 131.411C94.6945 128.23 91.2705 126.781 86.993 126.318C86.993 126.318 93.7533 125.776 94.0687 122.804C94.3844 119.831 90.0858 118.146 84.531 118.339" fill="#D9B67B"/>
<path d="M86.601 135.25C86.2761 135.25 86.0171 135.241 85.8489 135.234C85.1094 135.203 84.5358 134.579 84.5665 133.84C84.5972 133.102 85.216 132.53 85.9593 132.557C88.2918 132.654 91.8969 132.14 92.3096 130.966C92.5689 130.232 92.4098 129.846 92.2687 129.621C91.9868 129.173 90.8957 128.087 86.8493 127.65C86.1614 127.576 85.6446 126.991 85.6538 126.299C85.6633 125.608 86.1981 125.038 86.886 124.983C89.1957 124.794 92.6098 123.859 92.7365 122.662C92.7827 122.231 92.6476 121.863 92.3131 121.503C91.1656 120.271 88.1292 119.555 84.5774 119.678C83.8394 119.697 83.2189 119.125 83.1924 118.386C83.1674 117.646 83.7452 117.027 84.4847 117C88.979 116.847 92.5442 117.821 94.2739 119.678C95.1396 120.607 95.5287 121.737 95.4007 122.946C95.2264 124.589 93.9465 125.666 92.4289 126.37C93.3768 126.864 94.0802 127.472 94.5339 128.193C95.0006 128.933 95.4314 130.169 94.8362 131.856C93.7595 134.914 88.743 135.25 86.601 135.25Z" fill="#212124"/>
<path d="M78.983 118.42L84.384 118.364C84.384 118.364 85.7362 118.952 86.5892 124.472C87.4408 129.991 86.1941 133.932 86.1941 133.932C82.763 134.866 80.1672 134.328 80.1672 134.328C80.1672 134.328 75.2672 129.867 78.983 118.42Z" fill="#C2B195"/>
<path d="M80.831 133.074C81.1242 133.106 81.569 133.143 82.1278 133.143C83.1139 133.143 84.1076 133.036 85.0915 132.824C85.3769 131.511 85.8525 128.482 85.2651 124.676C84.7744 121.497 84.1323 120.184 83.8261 119.71L79.9731 119.75C77.5153 128.121 80.0154 132.069 80.831 133.074ZM82.1278 135.821C80.8109 135.821 79.9847 135.658 79.8951 135.639C79.6602 135.591 79.4432 135.48 79.2654 135.318C79.0389 135.112 73.7709 130.135 77.7093 118.007C77.8861 117.46 78.3937 117.088 78.9687 117.081L84.3698 117.025C84.555 117.017 84.7444 117.06 84.9176 117.136C85.6754 117.466 87.072 118.83 87.9123 124.268C88.801 130.03 87.5257 134.163 87.471 134.336C87.3338 134.77 86.9845 135.104 86.545 135.224C85.0891 135.621 83.6028 135.821 82.1278 135.821Z" fill="#212124"/>
<path d="M76.0603 117.923C76.0603 117.923 80.2125 130.111 74.8552 138.012C74.8552 138.012 79.2748 139.485 83.8281 135.871C83.8281 135.871 86.6405 135.065 86.2379 124.619C86.2379 124.619 85.9705 120.334 83.8281 118.191C83.8281 118.191 80.2125 114.173 76.0603 117.923Z" fill="#DC363A"/>
<path d="M77.0071 136.968C78.4437 136.997 80.6887 136.652 82.9948 134.82C83.0904 134.744 83.1956 134.683 83.3067 134.636C83.4951 134.486 85.2138 132.889 84.9016 124.689C84.8282 123.623 84.3297 120.586 82.8809 119.137C82.864 119.122 82.8481 119.104 82.8326 119.087C82.8244 119.078 81.4991 117.662 79.762 117.662C79.0423 117.662 78.3202 117.911 77.6072 118.4C78.4154 121.233 80.4492 130.009 77.0071 136.968ZM77.1405 139.648C75.5742 139.648 74.544 139.32 74.4319 139.282C74.0346 139.15 73.721 138.839 73.5866 138.441C73.4519 138.045 73.5111 137.608 73.7461 137.26C78.6719 129.995 74.8319 118.47 74.7921 118.356C74.6195 117.848 74.7659 117.288 75.1625 116.929C76.5919 115.638 78.1389 114.984 79.762 114.984C82.5518 114.984 84.5185 116.97 84.7929 117.263C87.249 119.739 87.563 124.341 87.5753 124.536C87.5764 124.546 87.5764 124.558 87.5767 124.568C87.9464 134.184 85.6319 136.485 84.5139 137.032C81.7231 139.19 78.9711 139.648 77.1405 139.648Z" fill="#212124"/>
<path d="M80.2125 117.388C79.2014 114.674 73.3816 115.513 73.3816 115.513C77.1317 101.853 70.3015 91.1378 70.3015 91.1378C70.3015 91.1378 55.6288 93.4805 50.462 116.883C46.7892 133.521 53.4268 138.145 59.4536 139.485C59.4536 139.485 76.9976 142.833 80.6139 135.065C80.6139 135.065 84.4977 128.905 80.2125 117.388Z" fill="white"/>
</g>
<mask id="mask2_722_20843" style="mask-type:luminance" maskUnits="userSpaceOnUse" x="49" y="91" width="34" height="50">
<path d="M50.4621 116.883C46.7897 133.52 53.4272 138.145 59.4537 139.485C59.4537 139.485 76.998 142.833 80.6144 135.065C80.6144 135.065 84.4981 128.905 80.2125 117.387C79.2018 114.674 73.3821 115.512 73.3821 115.512C77.1321 101.852 70.302 91.1374 70.302 91.1374C70.302 91.1374 55.6289 93.4802 50.4621 116.883Z" fill="white"/>
</mask>
<g mask="url(#mask2_722_20843)">
<path d="M59.8005 100.33C55.3336 100.31 51.6958 103.913 51.6732 108.383C51.6524 112.851 55.2546 116.491 59.7211 116.513C64.1873 116.535 67.8248 112.93 67.8477 108.461C67.8692 103.991 64.2666 100.352 59.8005 100.33ZM59.7232 116.238C55.4045 116.217 51.9282 112.703 51.9494 108.383C51.9706 104.063 55.4811 100.576 59.7994 100.595C64.1167 100.616 67.5926 104.139 67.5718 108.46C67.5503 112.78 64.0416 116.258 59.7232 116.238Z" fill="#D53539"/>
<path d="M56.7413 109.148C56.6781 108.904 56.6481 108.65 56.6496 108.396C56.6541 107.433 57.1025 106.577 57.7816 106.018C57.6553 105.9 57.3816 105.751 57.0207 105.993C56.9667 106.025 56.8937 106.036 56.8298 106.015C56.8189 106.003 56.3444 105.81 55.9821 106.169C55.8336 106.315 55.7803 106.421 55.726 106.517C55.6519 106.686 55.5662 106.812 55.3326 106.938C55.4487 107.183 55.4364 107.331 55.4035 107.521C55.3824 107.627 55.3612 107.744 55.3905 107.945C55.473 108.454 55.9592 108.583 55.981 108.583C56.0442 108.593 56.0975 108.647 56.1285 108.711C56.2742 109.103 56.5716 109.158 56.7413 109.148ZM62.8838 110.291C63.0031 109.856 62.7717 109.644 62.6238 109.559C62.1952 110.636 61.1641 111.416 59.9572 111.505C59.9981 111.664 60.135 111.941 60.558 111.952C60.6331 111.952 60.685 111.996 60.7167 112.048C60.727 112.069 61.0011 112.505 61.508 112.423C61.7109 112.392 61.8163 112.34 61.9119 112.287C62.082 112.203 62.2192 112.14 62.4838 112.184C62.5275 111.92 62.6327 111.804 62.7618 111.677C62.8464 111.592 62.9322 111.508 63.0278 111.328C63.2624 110.874 62.9357 110.481 62.9262 110.471C62.8736 110.417 62.863 110.354 62.8838 110.291ZM56.8655 109.552C56.7162 109.635 56.5039 109.856 56.6182 110.27C56.6393 110.323 56.6175 110.397 56.5748 110.451C56.5649 110.461 56.2347 110.841 56.4647 111.307C56.5596 111.488 56.6443 111.573 56.7176 111.648C56.8545 111.786 56.9487 111.902 57.0006 112.168C57.2546 112.126 57.4034 112.191 57.5721 112.277C57.6677 112.329 57.7728 112.383 57.9732 112.416C58.4808 112.493 58.7482 112.07 58.7585 112.049C58.7913 111.997 58.8548 111.955 58.9169 111.955C59.3515 111.936 59.4898 111.671 59.5342 111.502C58.3161 111.412 57.2941 110.634 56.8655 109.552ZM62.4919 108.423C62.499 106.91 61.2773 105.675 59.7635 105.668C58.2501 105.661 57.0055 106.882 56.9988 108.398C56.991 109.912 58.2229 111.147 59.7367 111.154C61.2508 111.161 62.4838 109.938 62.4919 108.423ZM60.2465 106.401L60.322 106.158L60.4694 106.37L60.7121 106.371L60.5636 106.562L60.6359 106.805L60.4038 106.719L60.2017 106.867L60.2031 106.612L60.0027 106.464L60.2465 106.401ZM59.1652 108.811L60.341 108.816C60.3834 108.816 60.4148 108.848 60.4148 108.891L60.4133 108.976C60.4133 109.017 60.3823 109.06 60.34 109.06L59.1638 109.054C59.1222 109.054 59.0908 109.011 59.0908 108.969L59.0915 108.885C59.0915 108.842 59.1229 108.811 59.1652 108.811ZM59.1575 108.535V108.45C59.1575 108.408 59.1998 108.377 59.2421 108.377L60.2687 108.381C60.3114 108.382 60.3534 108.414 60.3534 108.456L60.3523 108.541C60.3523 108.583 60.3096 108.626 60.2676 108.625L59.2411 108.62C59.1984 108.62 59.1575 108.577 59.1575 108.535ZM60.4066 108.192L59.1049 108.186C59.0629 108.185 59.0213 108.142 59.022 108.101L59.0213 108.015C59.022 107.973 59.0647 107.941 59.1059 107.942L60.4077 107.948C60.4504 107.949 60.4927 107.981 60.4927 108.022L60.4917 108.108C60.4917 108.15 60.4493 108.192 60.4066 108.192ZM59.0569 109.244L60.4444 109.251C60.4867 109.251 60.5185 109.283 60.5181 109.325V109.409C60.5174 109.453 60.4853 109.494 60.443 109.494L59.0569 109.488C59.0142 109.488 58.9835 109.445 58.9828 109.403L58.9835 109.318C58.9835 109.275 59.0146 109.243 59.0569 109.244ZM60.4105 107.515C60.4532 107.515 60.4955 107.546 60.4948 107.589L60.4938 107.673C60.4938 107.715 60.4514 107.758 60.4095 107.757L59.107 107.751C59.065 107.751 59.023 107.708 59.0241 107.666V107.582C59.0241 107.539 59.0664 107.507 59.1091 107.507L60.4105 107.515ZM59.0827 106.363L59.2319 106.154L59.3042 106.397L59.548 106.461L59.3458 106.609L59.3451 106.863L59.1444 106.713L58.9112 106.797L58.9871 106.554L58.8385 106.362L59.0827 106.363ZM58.7909 109.751C58.7913 109.71 58.8332 109.678 58.8756 109.678L60.6225 109.687C60.6656 109.687 60.7069 109.718 60.7069 109.76L60.7065 109.845C60.7058 109.888 60.6635 109.93 60.6218 109.93L58.8752 109.922C58.8329 109.921 58.7909 109.878 58.7909 109.836V109.751ZM58.672 110.184C58.6724 110.142 58.7045 110.111 58.7468 110.11L60.7467 110.121C60.7898 110.121 60.8212 110.152 60.8201 110.195L60.8212 110.28C60.8197 110.323 60.7873 110.365 60.746 110.364L58.7454 110.355C58.7045 110.355 58.6717 110.311 58.6717 110.269L58.672 110.184ZM57.9601 108.657L57.7594 108.507L57.5259 108.59L57.601 108.348L57.4535 108.156L57.697 108.157L57.8476 107.946L57.9203 108.19L58.1633 108.255L57.9615 108.402L57.9601 108.657ZM58.3471 107.557L58.1467 107.408L57.9012 107.492L57.9873 107.258L57.8299 107.057L58.0843 107.058L58.2222 106.847L58.3066 107.09L58.5496 107.167L58.3365 107.313L58.3471 107.557ZM60.9023 110.715C60.9023 110.758 60.8709 110.799 60.8282 110.799L58.6586 110.789C58.6163 110.789 58.5849 110.746 58.5849 110.703V110.628C58.5852 110.576 58.6173 110.545 58.6597 110.545L60.8296 110.555C60.873 110.556 60.9037 110.588 60.9033 110.639L60.9023 110.715ZM60.9944 107.177L61.2374 107.104L61.3239 106.862L61.4604 107.075L61.7151 107.076L61.5546 107.276L61.6389 107.509L61.3951 107.423L61.194 107.571L61.206 107.328L60.9944 107.177ZM61.3701 108.27L61.6138 108.208L61.689 107.966L61.8368 108.177L62.0806 108.178L61.9306 108.369L62.0033 108.612L61.7712 108.526L61.5694 108.674L61.5705 108.419L61.3701 108.27ZM59.7653 105.308C60.3682 105.31 60.939 105.495 61.4138 105.803C61.477 105.645 61.5433 105.327 61.1954 105.05C61.1422 105.008 61.1217 104.944 61.1221 104.881C61.1323 104.859 61.1679 104.351 60.7132 104.116C60.5336 104.019 60.4176 104.009 60.3005 103.987C60.1107 103.965 59.9618 103.921 59.7734 103.741C59.5808 103.92 59.4333 103.961 59.2531 103.98C59.1363 104.002 59.0202 104.013 58.8396 104.106C58.3842 104.337 58.4127 104.846 58.4124 104.867C58.423 104.931 58.4022 104.994 58.3482 105.036C57.9979 105.309 58.06 105.617 58.1224 105.776C58.5994 105.483 59.1617 105.305 59.7653 105.308ZM59.7886 102.628C56.5935 102.613 53.9864 105.195 53.9713 108.383C53.955 111.582 56.5356 114.188 59.7325 114.204C62.9294 114.219 65.524 111.638 65.5392 108.44C65.5551 105.252 62.9847 102.644 59.7886 102.628ZM64.6576 106.963C64.6467 106.974 64.6368 106.984 64.6368 107.005C64.4661 107.258 64.4763 107.333 64.5073 107.491C64.5267 107.608 64.5482 107.778 64.5045 108.042C64.4071 108.657 63.9284 108.886 63.7171 108.96C63.5675 109.277 63.3544 109.434 63.1318 109.508C63.2684 109.699 63.3417 109.954 63.2761 110.293C63.4017 110.483 63.6533 110.962 63.3654 111.51C63.2479 111.742 63.1199 111.87 63.0345 111.954C62.9184 112.059 62.8655 112.112 62.8415 112.429C62.8422 112.44 62.8415 112.451 62.8415 112.461L62.8422 112.472L62.8327 112.482L62.8203 112.505L62.8101 112.524V112.535L62.7882 112.546L62.778 112.556L62.7674 112.566L62.7466 112.576L62.7357 112.588C62.7357 112.588 62.7254 112.599 62.7152 112.598C62.6933 112.608 62.6619 112.609 62.6401 112.608C62.6291 112.608 62.6087 112.608 62.5981 112.598C62.3021 112.522 62.2273 112.552 62.0897 112.627C61.9836 112.69 61.8248 112.764 61.5705 112.804C60.9563 112.896 60.5873 112.514 60.4514 112.333C60.1022 112.288 59.8799 112.129 59.7431 111.938C59.6058 112.127 59.3815 112.295 59.0326 112.337C58.8943 112.516 58.521 112.896 57.9083 112.797C57.6437 112.754 57.4959 112.679 57.3904 112.614C57.2422 112.539 57.1791 112.508 56.8711 112.58C56.797 112.602 56.7127 112.569 56.6704 112.515L56.6598 112.494L56.6506 112.484C56.6393 112.462 56.6393 112.431 56.6291 112.409C56.6199 112.092 56.5677 112.039 56.4516 111.922C56.3578 111.836 56.2407 111.719 56.1253 111.486C55.8431 110.933 56.0996 110.458 56.2266 110.267C56.1546 109.929 56.2403 109.675 56.3783 109.485C56.1571 109.409 55.9352 109.251 55.7994 108.931C55.5884 108.857 55.1023 108.621 55.0098 108.006C54.9689 107.741 55.0024 107.573 55.0229 107.456C55.0448 107.297 55.0666 107.213 54.898 106.957C54.8776 106.926 54.8673 106.883 54.8677 106.841C54.8677 106.831 54.8677 106.831 54.868 106.82L54.8673 106.809C54.8677 106.798 54.8783 106.789 54.8776 106.778C54.8994 106.725 54.9425 106.693 54.9837 106.672C55.2822 106.557 55.3129 106.495 55.3884 106.345C55.4424 106.24 55.5161 106.081 55.708 105.892C56.1447 105.459 56.6728 105.558 56.8849 105.622C57.1925 105.455 57.4673 105.456 57.6885 105.52C57.6906 105.287 57.7767 105.034 58.0321 104.801C58.0331 104.569 58.1086 104.039 58.672 103.767C58.9052 103.641 59.0742 103.621 59.2019 103.6C59.3494 103.579 59.4351 103.57 59.627 103.327L59.6372 103.328C59.6372 103.316 59.6478 103.306 59.6587 103.296L59.6683 103.295C59.6683 103.284 59.6806 103.284 59.6898 103.274L59.7007 103.273L59.723 103.264H59.7431L59.7642 103.254L59.7752 103.254H59.797L59.8073 103.265C59.838 103.265 59.8701 103.274 59.9015 103.296C59.9124 103.307 59.923 103.328 59.9332 103.339C60.1223 103.573 60.2077 103.584 60.3562 103.606C60.4828 103.628 60.6511 103.649 60.8829 103.778C61.4332 104.056 61.5041 104.586 61.5144 104.818C61.7666 105.054 61.8506 105.308 61.8488 105.54C62.0728 105.466 62.3473 105.468 62.6531 105.64C62.8754 105.577 63.3961 105.484 63.837 105.931C64.0265 106.123 64.1002 106.271 64.1524 106.387C64.2156 106.527 64.2576 106.6 64.543 106.708C64.5535 106.719 64.5744 106.719 64.5853 106.73C64.6273 106.751 64.647 106.793 64.6576 106.835L64.6587 106.846L64.6685 106.868V106.888C64.6685 106.91 64.6685 106.942 64.6576 106.963ZM63.8028 106.555C63.7503 106.449 63.7086 106.344 63.5615 106.205C63.1922 105.833 62.7254 106.021 62.7032 106.032C62.6514 106.053 62.5766 106.052 62.5237 106.01C62.1441 105.765 61.8685 105.933 61.7412 106.038C62.4164 106.612 62.845 107.473 62.8397 108.426C62.8387 108.68 62.8066 108.934 62.7526 109.167C62.9212 109.178 63.2296 109.148 63.3908 108.735C63.4112 108.672 63.4649 108.63 63.5273 108.61C63.5495 108.609 64.047 108.495 64.1348 107.977C64.1556 107.775 64.1468 107.67 64.1263 107.553C64.0949 107.362 64.0854 107.214 64.2025 106.981C63.97 106.854 63.8868 106.726 63.8028 106.555Z" fill="#D53539"/>
<path d="M54.8947 112.18L54.616 112.845L54.8904 112.836L55.2199 112.562L55.3783 112.765L54.2942 113.659L54.1362 113.467L54.6043 113.067L53.8416 113.106L53.6416 112.871L54.3503 112.843L54.7056 111.945L54.8947 112.18Z" fill="#D53539"/>
<path d="M53.9227 111.707L54.4219 111.425L54.5474 111.647L54.0493 111.932L53.5163 112.68L53.3794 112.436L53.7523 111.951L53.1385 112.022L53.0012 111.777L53.9227 111.707Z" fill="#D53539"/>
<path d="M54.045 110.554C54.1391 110.809 54.0213 111.084 53.7451 111.178L52.8759 111.492L52.7919 111.247L53.652 110.945C53.8001 110.892 53.8636 110.776 53.8216 110.638C53.7701 110.511 53.653 110.457 53.4939 110.51L52.6356 110.823L52.552 110.579L53.4216 110.276C53.6978 110.172 53.9606 110.311 54.045 110.554Z" fill="#D53539"/>
<path d="M53.7019 109.134L52.9254 109.776L53.7848 109.653L53.825 109.896L52.4269 110.112L52.3963 109.879L53.1727 109.248L52.3253 109.371L52.2844 109.116L53.6708 108.911L53.7019 109.134Z" fill="#D53539"/>
<path d="M53.5501 107.861C53.6658 107.968 53.6961 108.096 53.6961 108.233C53.6852 108.382 53.6315 108.497 53.5247 108.582C53.3761 108.708 53.2064 108.697 52.9644 108.684C52.72 108.672 52.5404 108.672 52.4039 108.534C52.3083 108.438 52.2663 108.322 52.2674 108.174C52.2793 107.876 52.5023 107.729 52.7355 107.699L52.7235 107.964C52.5961 107.984 52.5217 108.058 52.5101 108.185C52.5111 108.259 52.5418 108.312 52.5838 108.354C52.636 108.408 52.7002 108.419 52.9754 108.431C53.24 108.442 53.314 108.433 53.367 108.39C53.4202 108.347 53.452 108.295 53.4527 108.221C53.4534 108.147 53.4326 108.083 53.3793 108.042C53.3264 107.998 53.2745 107.977 53.2005 107.977H53.1475L53.1352 108.21L52.902 108.209L52.9253 107.71L53.1267 107.711C53.3278 107.722 53.4545 107.765 53.5501 107.861Z" fill="#D53539"/>
<path d="M53.3319 106.94L53.2772 107.194L53.7962 107.303L53.7309 107.555L52.3674 107.242L52.4768 106.745C52.5406 106.481 52.7742 106.364 53.0063 106.419C53.2388 106.473 53.3972 106.675 53.3319 106.94ZM52.7181 106.819L52.6645 107.053L53.0349 107.129L53.0889 106.896C53.1107 106.791 53.0589 106.694 52.9418 106.673C52.8366 106.651 52.741 106.704 52.7181 106.819Z" fill="#D53539"/>
<path d="M54.1744 105.715C54.2269 105.843 54.2361 105.97 54.1828 106.107C54.1183 106.244 54.0227 106.318 53.8964 106.37C53.7154 106.433 53.5577 106.358 53.3348 106.262C53.1139 106.176 52.9449 106.101 52.8712 105.931C52.8081 105.803 52.8088 105.677 52.8627 105.54C52.9266 105.402 53.0236 105.317 53.1499 105.276C53.3298 105.214 53.4879 105.278 53.7105 105.373C53.9317 105.469 54.101 105.535 54.1744 105.715ZM53.2229 105.52C53.1697 105.53 53.1167 105.573 53.0949 105.635C53.0631 105.699 53.0624 105.762 53.0938 105.815C53.1252 105.891 53.1891 105.922 53.4318 106.028C53.6854 106.137 53.7475 106.148 53.8223 106.125C53.8759 106.116 53.9288 106.074 53.9514 106.01C53.9821 105.937 53.9733 105.873 53.9518 105.831C53.92 105.757 53.8572 105.713 53.6145 105.607C53.3605 105.51 53.2967 105.488 53.2229 105.52Z" fill="#D53539"/>
<path d="M54.7713 104.743C54.8027 104.881 54.7914 104.998 54.7068 105.124C54.6203 105.252 54.5148 105.314 54.3769 105.335C54.1861 105.366 54.0492 105.271 53.8389 105.131C53.6375 105.003 53.4897 104.907 53.4491 104.715C53.4174 104.589 53.4286 104.462 53.5144 104.335C53.5994 104.209 53.7052 104.145 53.8425 104.125C54.034 104.094 54.1709 104.19 54.3826 104.329C54.5819 104.468 54.7304 104.564 54.7713 104.743ZM53.8731 104.38C53.8096 104.379 53.7571 104.41 53.714 104.474C53.6823 104.528 53.6706 104.601 53.6922 104.654C53.7137 104.727 53.755 104.771 53.9878 104.919C54.21 105.069 54.2728 105.101 54.3469 105.091C54.4097 105.081 54.463 105.049 54.5057 104.997C54.5378 104.933 54.5487 104.87 54.5275 104.817C54.5071 104.743 54.4648 104.69 54.2333 104.54C54.0114 104.39 53.9472 104.369 53.8731 104.38Z" fill="#D53539"/>
<path d="M55.6114 104.017L54.9249 103.822L54.9549 104.088L55.2604 104.386L55.0798 104.564L54.0786 103.597L54.2487 103.406L54.6903 103.833L54.5686 103.08L54.7916 102.848L54.8939 103.558L55.8249 103.806L55.6114 104.017Z" fill="#D53539"/>
<path d="M56.8436 103.134L55.9464 102.664L56.3984 103.406L56.1747 103.533L55.4504 102.332L55.6413 102.217L56.5292 102.687L56.0872 101.944L56.2996 101.818L57.0344 103.018L56.8436 103.134Z" fill="#D53539"/>
<path d="M57.9472 102.652L57.7888 102.45L57.3535 102.617L57.363 102.871L57.1192 102.965L57.073 101.482L57.2649 101.409L58.2015 102.568L57.9472 102.652ZM57.3154 101.833L57.3443 102.373L57.6417 102.258L57.3154 101.833Z" fill="#D53539"/>
<path d="M58.5672 101.32L58.7838 102.464L58.5302 102.505L58.3129 101.372L57.9739 101.433L57.9319 101.19L58.8548 101.015L58.9066 101.258L58.5672 101.32Z" fill="#D53539"/>
<path d="M59.2594 102.404L59.1614 100.994L59.4157 100.986L59.5149 102.384L59.2594 102.404Z" fill="#D53539"/>
<path d="M60.5421 102.273C60.4461 102.368 60.329 102.409 60.1819 102.398C60.033 102.397 59.9166 102.332 59.8326 102.227C59.7169 102.079 59.7286 101.897 59.7395 101.654C59.7518 101.41 59.7631 101.241 59.9021 101.105C60.0087 101.01 60.1244 100.967 60.2718 100.979C60.4207 100.98 60.5269 101.044 60.6105 101.15C60.7361 101.299 60.7251 101.479 60.7036 101.723C60.6913 101.956 60.68 102.135 60.5421 102.273ZM60.4084 101.309C60.378 101.255 60.324 101.223 60.25 101.223C60.1875 101.212 60.1233 101.244 60.081 101.285C60.0274 101.338 60.0171 101.402 59.9945 101.677C59.9822 101.941 59.9921 102.005 60.0348 102.069C60.0658 102.123 60.1297 102.154 60.1928 102.154C60.2676 102.165 60.3202 102.134 60.3625 102.092C60.4154 102.039 60.4373 101.975 60.4493 101.701C60.4711 101.435 60.4616 101.362 60.4084 101.309Z" fill="#D53539"/>
<path d="M61.6092 102.649L61.3168 101.672L61.102 102.508L60.8589 102.444L61.2039 101.089L61.4265 101.144L61.7172 102.108L61.9331 101.273L62.1758 101.337L61.8206 102.702L61.6092 102.649Z" fill="#D53539"/>
<path d="M62.7181 103.108L62.7509 102.855L62.329 102.652L62.1582 102.841L61.9148 102.725L62.9474 101.659L63.1262 101.754L62.9601 103.227L62.7181 103.108ZM62.8708 102.083L62.4997 102.472L62.7953 102.611L62.8708 102.083Z" fill="#D53539"/>
<path d="M63.0242 103.28L63.8444 102.141L64.056 102.29L63.3738 103.239L63.8588 103.581L63.7213 103.781L63.0242 103.28Z" fill="#D53539"/>
<path d="M64.3835 104.462C64.2061 104.26 64.2072 103.973 64.4298 103.774L65.1212 103.162L65.2891 103.354L64.6086 103.954C64.4922 104.06 64.4707 104.198 64.5649 104.304C64.6601 104.399 64.7864 104.41 64.9141 104.295L65.5943 103.695L65.7629 103.886L65.0722 104.497C64.8489 104.698 64.5631 104.665 64.3835 104.462Z" fill="#D53539"/>
<path d="M65.2248 105.663L65.7064 104.775L64.9631 105.206L64.8364 104.983L66.0468 104.279L66.1622 104.481L65.6817 105.359L66.4253 104.927L66.5509 105.15L65.3409 105.855L65.2248 105.663Z" fill="#D53539"/>
<path d="M65.4136 106.077L66.7185 105.554L66.812 105.787L65.5183 106.31L65.4136 106.077Z" fill="#D53539"/>
<path d="M65.7264 106.989L65.6746 106.809L66.9174 106.021L66.989 106.274L66.1713 106.769L67.1252 106.785L67.1964 107.04L65.7264 106.989Z" fill="#D53539"/>
<path d="M65.8513 107.498L67.249 107.357L67.3302 108.214L67.0864 108.246L67.0261 107.642L66.6969 107.671L66.747 108.18L66.5047 108.211L66.4535 107.691L66.1148 107.722L66.1752 108.337L65.9321 108.357L65.8513 107.498Z" fill="#D53539"/>
<path d="M65.8742 109.225L66.4584 109.016L66.4693 108.835L65.9084 108.791L65.9303 108.537L67.3389 108.65L67.2934 109.158C67.2705 109.422 67.0687 109.569 66.8362 109.548C66.6355 109.535 66.5194 109.407 66.4785 109.281L65.8523 109.521L65.8742 109.225ZM67.05 109.125L67.0718 108.881L66.7021 108.848L66.6803 109.091C66.6683 109.207 66.742 109.282 66.8485 109.293C66.9643 109.304 67.0397 109.231 67.05 109.125Z" fill="#D53539"/>
<path d="M65.7121 110.008C65.7654 109.817 65.8511 109.68 66.0212 109.595L66.1471 109.798C66.0398 109.851 65.9869 109.956 65.9541 110.072C65.9114 110.221 65.9538 110.315 66.0593 110.338C66.1122 110.359 66.1545 110.349 66.1859 110.327C66.2187 110.316 66.2399 110.286 66.261 110.233L66.3249 110.084C66.3683 109.979 66.4314 109.904 66.5066 109.863C66.581 109.822 66.6759 109.822 66.793 109.844C67.0354 109.908 67.1617 110.12 67.0964 110.395C67.0424 110.575 66.968 110.682 66.8301 110.764L66.7038 110.563C66.7994 110.511 66.8431 110.416 66.8643 110.331C66.8957 110.193 66.834 110.108 66.738 110.086C66.7066 110.076 66.6636 110.075 66.6322 110.097C66.6008 110.118 66.5676 110.15 66.5468 110.202L66.4928 110.35C66.4395 110.456 66.3873 110.519 66.3224 110.561C66.2385 110.614 66.1316 110.614 66.0053 110.581C65.7407 110.515 65.6469 110.271 65.7121 110.008Z" fill="#D53539"/>
<path d="M65.5397 110.631L66.839 111.157L66.742 111.389L65.4441 110.874L65.5397 110.631Z" fill="#D53539"/>
<path d="M66.1356 112.086L65.1118 111.531L65.2402 111.308L66.2523 111.864L66.4249 111.557L66.6351 111.674L66.186 112.499L65.9758 112.381L66.1356 112.086Z" fill="#D53539"/>
<path d="M65.022 112.695L64.5676 112.343L64.7169 112.131L65.1808 112.483L66.0796 112.679L65.9082 112.901L65.3063 112.749L65.6111 113.291L65.4411 113.511L65.022 112.695Z" fill="#D53539"/>
<path d="M58.614 115.492L58.4855 115.978L58.2732 115.924L58.3822 115.511L57.3877 115.242L57.4417 115.062L57.9278 115.201L57.9722 115.055L57.4007 114.902L57.4431 114.733L58.8069 115.1L58.7639 115.258L58.1825 115.107L58.1405 115.255L58.5515 115.365C58.5515 115.365 58.6369 115.386 58.614 115.492Z" fill="#D53539"/>
<path d="M57.6352 114.66L58.7546 114.962L58.9059 114.391L58.6946 114.337L58.6618 114.453L57.8797 114.248L57.9125 114.132L57.7012 114.079L57.5816 114.553C57.5816 114.553 57.5502 114.639 57.6352 114.66ZM58.6191 114.623L58.5972 114.728L57.8045 114.524L57.8374 114.406L58.6191 114.623Z" fill="#D53539"/>
<path d="M59.281 115.695L59.7777 115.698L59.7795 115.517L59.3558 115.515L59.36 114.678L59.7505 114.68L59.7519 114.491L59.1487 114.488L59.1438 115.556C59.1438 115.556 59.1325 115.694 59.281 115.695Z" fill="#D53539"/>
<path d="M60.2897 114.916L60.0886 114.915L60.0903 114.482L59.8787 114.481L59.8723 115.74L60.0833 115.741L60.0872 115.105L60.2897 115.106L60.2858 115.742L60.4967 115.744L60.5034 114.484L60.2911 114.483L60.2897 114.916Z" fill="#D53539"/>
<path d="M63.6152 114.488L63.3535 114.009L63.1623 114.115L63.4353 114.592L63.2226 114.719L62.9503 114.241L62.7693 114.345L63.0318 114.823L62.788 114.96L62.8822 115.119L64.1666 114.396L64.0721 114.235L63.6152 114.488Z" fill="#D53539"/>
<path d="M63.5252 113.502L63.8501 114.076L63.6603 114.18L63.3651 113.661L62.4418 114.175L62.3477 114.015L63.3562 113.448C63.3562 113.448 63.4621 113.385 63.5252 113.502Z" fill="#D53539"/>
<path d="M62.1618 115.105L61.0699 115.387L61.1221 115.556L62.087 115.317L62.191 115.709L62.3921 115.647L62.2789 115.159C62.2475 115.075 62.1618 115.105 62.1618 115.105ZM62.0803 114.427L61.9882 114.066L61.7853 114.119L62.0143 115.031L62.226 114.979L62.1332 114.608L62.3131 114.556L62.2711 114.385L62.0803 114.427ZM61.1066 114.571C60.9581 114.666 60.8724 114.824 60.9133 114.972C60.9655 115.164 61.1775 115.269 61.3892 115.219C61.6008 115.167 61.7391 114.965 61.6866 114.774C61.6449 114.627 61.4869 114.519 61.3073 114.519L61.2967 114.477L61.615 114.395L61.5726 114.213L61.2558 114.296L61.2241 114.19L61.0237 114.242L61.054 114.348L60.7581 114.421L60.7997 114.6L61.1066 114.518L61.1175 114.57L61.1066 114.571ZM61.2534 114.71C61.3595 114.678 61.4654 114.732 61.4862 114.827C61.5067 114.923 61.4424 115.018 61.3468 115.038C61.2417 115.069 61.1355 115.016 61.1161 114.921C61.0943 114.826 61.1578 114.73 61.2534 114.71Z" fill="#D53539"/>
<path d="M56.9445 115.123C57.0401 114.922 56.9036 114.655 56.6295 114.528C56.3554 114.4 56.0573 114.461 55.9719 114.652C55.877 114.841 56.0234 115.107 56.2869 115.236C56.5621 115.364 56.8574 115.313 56.9445 115.123ZM56.3617 115.088C56.2037 115.013 56.1084 114.854 56.1627 114.748C56.216 114.642 56.3959 114.61 56.5547 114.687C56.6908 114.75 56.8189 114.9 56.7543 115.025C56.6894 115.153 56.4993 115.151 56.3617 115.088Z" fill="#D53539"/>
<path d="M56.8654 113.724L56.2745 113.446L56.199 113.594L56.6431 113.808C56.6333 113.829 56.6012 113.861 56.5581 113.912C56.3136 114.166 55.9542 114.058 55.9542 114.058L55.8787 114.206C56.6294 114.443 56.8869 113.798 56.8869 113.798C56.9197 113.746 56.8654 113.724 56.8654 113.724ZM57.2778 113.896L57.2026 114.043L56.9074 113.904L56.8216 114.063L57.1278 114.213L57.0753 114.33L56.7585 114.179L56.683 114.347L56.9896 114.488L56.9035 114.688L57.1042 114.774L57.4796 113.991L57.2778 113.896Z" fill="#D53539"/>
</g>
<mask id="mask3_722_20843" style="mask-type:luminance" maskUnits="userSpaceOnUse" x="-79" y="-5" width="300" height="210">
<path d="M-79 -5.00008H221V205H-79V-5.00008Z" fill="white"/>
</mask>
<g mask="url(#mask3_722_20843)">
<path d="M67.1316 119.53C66.7968 119.53 66.4624 119.406 66.2031 119.156C65.6697 118.643 65.6538 117.794 66.1664 117.262C68.8235 114.503 73.3419 114.23 73.5327 114.22C74.2715 114.184 74.9022 114.747 74.9417 115.485C74.9819 116.222 74.4168 116.853 73.6798 116.893C73.6424 116.896 70.0138 117.128 68.0961 119.12C67.8333 119.393 67.4819 119.53 67.1316 119.53Z" fill="#212124"/>
<path d="M59.7221 138.173C60.0047 138.224 63.5544 138.863 67.611 138.863C72.0627 138.863 77.7205 138.106 79.399 134.499C79.4241 134.449 79.4502 134.399 79.4805 134.351C79.5109 134.303 82.9229 128.514 78.9566 117.854C78.6981 117.16 77.3109 116.729 75.3361 116.729C74.3501 116.729 73.5782 116.837 73.5711 116.837C73.1238 116.903 72.6754 116.735 72.3766 116.396C72.0785 116.058 71.9706 115.592 72.0898 115.157C75.063 104.329 71.0608 95.3761 69.6398 92.6851C68.3603 93.0753 65.8259 94.0715 63.0231 96.3893C59.3034 99.4637 54.3317 105.565 51.7688 117.171C49.0485 129.497 51.6502 136.367 59.7221 138.173ZM67.612 141.542H67.611C63.1381 141.542 59.3609 140.831 59.2025 140.8C59.1895 140.798 59.1757 140.795 59.1623 140.792C55.0235 139.872 51.9938 137.785 50.1591 134.587C47.7736 130.432 47.436 124.378 49.1547 116.594C51.9067 104.128 57.3719 97.533 61.4733 94.1954C66.0146 90.4997 69.9259 89.841 70.0906 89.8149C70.6159 89.7306 71.144 89.967 71.4308 90.4175C71.7102 90.8553 77.9572 100.866 75.1167 114.052C75.1886 114.051 75.2617 114.05 75.3361 114.05C79.5197 114.05 80.9784 115.611 81.4663 116.919C85.718 128.343 82.2858 134.859 81.7972 135.696C79.9716 139.52 75.069 141.542 67.612 141.542Z" fill="#212124"/>
<path d="M74.5301 58.1992C74.5301 58.1992 74.0743 53.2864 70.7814 53.2134C67.4872 53.14 67.9592 56.6562 68.0866 57.2471C68.2125 57.8376 68.3931 59.1972 68.8002 59.6417C69.2066 60.0852 69.6508 60.5424 71.6602 60.3571C73.671 60.1709 74.807 59.4286 74.5301 58.1992Z" fill="#222224"/>
<path d="M114.335 53.6721C114.335 53.6721 113.881 48.7596 117.105 48.0837C120.33 47.4057 120.512 50.9511 120.494 51.5529C120.477 52.1572 120.55 53.5274 120.231 54.0393C119.913 54.5484 119.56 55.0814 117.552 55.267C115.541 55.4532 114.287 54.9329 114.335 53.6721Z" fill="#222224"/>
<path d="M72.119 50.624C71.696 50.6957 71.2452 50.6106 70.8592 50.3552C70.7964 50.3147 68.7666 49.0468 65.164 49.0859C64.1995 49.0962 63.4103 48.3232 63.3998 47.3591C63.3895 46.3949 64.1632 45.6047 65.1273 45.5941C69.8545 45.5437 72.5198 47.2621 72.809 47.4586C73.607 47.9994 73.8152 49.0856 73.2726 49.8822C72.9946 50.2931 72.5723 50.5475 72.119 50.624Z" fill="#222224"/>
<path d="M114.468 46.0362C113.972 46.1202 113.441 45.9875 113.03 45.6298C112.301 44.999 112.23 43.8892 112.861 43.16C113.078 42.9099 115.098 40.6948 119.225 39.9127C119.236 39.9095 119.247 39.9077 119.26 39.9056C120.194 39.7476 121.087 40.3674 121.266 41.303C121.445 42.2498 120.821 43.1639 119.875 43.3431C116.934 43.8998 115.543 45.3984 115.487 45.4619C115.212 45.779 114.849 45.972 114.468 46.0362Z" fill="#222224"/>
<path d="M101.202 56.7322C101.688 57.5552 102.56 57.9415 103.145 57.594C103.731 57.2479 103.81 56.2997 103.324 55.4759C102.835 54.6522 101.966 54.2663 101.38 54.6123C100.794 54.9602 100.714 55.9091 101.202 56.7322Z" fill="#E3F4FD"/>
<path d="M101.321 53.0691C101.077 53.1234 100.844 53.2162 100.629 53.3439C99.9332 53.7559 99.4922 54.4932 99.4182 55.3702C99.3589 56.074 99.542 56.8237 99.9325 57.483C100.678 58.7431 101.992 59.4081 103.202 59.1383C103.448 59.0836 103.682 58.9919 103.896 58.8642C105.202 58.0909 105.509 56.273 104.592 54.7243C103.847 53.4645 102.532 52.7992 101.321 53.0691ZM101.642 54.5095C102.204 54.3842 102.905 54.7688 103.324 55.4757C103.811 56.2998 103.731 57.2481 103.145 57.5938C103.062 57.6442 102.973 57.6785 102.881 57.6989C102.321 57.8238 101.62 57.4393 101.202 56.7323C100.715 55.9093 100.794 54.9603 101.38 54.6125C101.462 54.5638 101.551 54.5299 101.642 54.5095Z" fill="#222224"/>
<path d="M90.3486 58.2167C90.0752 59.1336 89.3266 59.7199 88.6729 59.5259C88.0206 59.3319 87.7123 58.4302 87.9857 57.5129C88.2591 56.5961 89.0087 56.0105 89.6617 56.2045C90.3147 56.3985 90.6213 57.3006 90.3486 58.2167Z" fill="#E3F4FD"/>
<path d="M88.8709 54.7519C87.8122 54.9879 86.9317 55.8843 86.5715 57.0926C86.0593 58.818 86.7973 60.5067 88.2521 60.9396C88.6412 61.055 89.0593 61.0691 89.4636 60.9788C90.5208 60.7431 91.4021 59.8467 91.763 58.637C91.981 57.9025 91.9757 57.131 91.7492 56.4636C91.4642 55.631 90.857 55.0218 90.0823 54.7903C89.6932 54.675 89.2745 54.6619 88.8709 54.7519ZM89.1916 56.1916C89.3489 56.1566 89.5073 56.1595 89.6618 56.2046C90.3148 56.3986 90.6214 57.3007 90.3487 58.2169C90.1398 58.9182 89.6527 59.4248 89.1425 59.5384C88.9856 59.5733 88.8268 59.5726 88.673 59.526C88.0207 59.332 87.7124 58.4303 87.9858 57.5131C88.1939 56.8117 88.6808 56.3052 89.1916 56.1916Z" fill="#222224"/>
<path d="M63.8673 58.9575C63.1681 53.2834 67.0406 48.1371 72.6832 47.2417C72.8049 47.2227 72.9284 47.205 73.0519 47.1899C78.8286 46.4776 84.1083 50.5977 84.8195 56.3744C85.5187 62.0489 81.6473 67.1948 76.0053 68.0898C75.8829 68.1099 75.7591 68.1262 75.6346 68.1413C72.8367 68.4867 70.072 67.7208 67.8481 65.9866C65.6266 64.2509 64.2127 61.7557 63.8673 58.9575ZM106.029 53.7607C105.33 48.0866 109.201 42.9403 114.844 42.0464C114.966 42.0263 115.09 42.0086 115.213 41.9934C118.012 41.6488 120.777 42.4143 122.999 44.1489C125.223 45.8832 126.636 48.3794 126.981 51.1777C127.68 56.8521 123.808 61.9984 118.164 62.8938C118.043 62.9128 117.92 62.9304 117.795 62.946C112.019 63.6568 106.741 59.5367 106.029 53.7607ZM66.3078 67.9607C69.0581 70.1077 72.479 71.0539 75.9408 70.6284C76.0942 70.609 76.2466 70.5885 76.398 70.5642C83.0443 69.5097 87.701 63.6886 87.3874 57.075C88.8129 55.7052 95.5267 49.9983 103.707 55.0536C105.039 61.6753 111.289 66.2712 118.102 65.4316C118.254 65.4126 118.407 65.3918 118.557 65.3674C125.541 64.2604 130.332 57.8928 129.467 50.8718C129.04 47.4103 127.291 44.3218 124.541 42.1748C121.791 40.0285 118.369 39.0806 114.907 39.5074C114.754 39.5261 114.601 39.548 114.451 39.5716C108.144 40.5732 103.625 45.8645 103.449 52.0536C98.4985 49.641 94.0983 50.4689 91.1444 51.7026C89.3739 52.4438 87.9366 53.3966 86.9291 54.1798C85.2344 48.0468 79.2467 43.903 72.746 44.7031C65.5176 45.5957 60.4972 52.091 61.3824 59.264C61.8085 62.7248 63.5576 65.8155 66.3078 67.9607Z" fill="#FCEC6B"/>
<path d="M118.441 61.0394C118.259 61.08 118.073 61.1153 117.89 61.1445C117.787 61.1604 117.684 61.1756 117.579 61.1883C115.255 61.4754 112.954 60.8362 111.102 59.3905C109.25 57.9445 108.072 55.868 107.786 53.5432C107.23 49.0312 110.145 44.885 114.568 43.8993C114.751 43.8588 114.936 43.8228 115.123 43.7935C115.223 43.7773 115.325 43.7628 115.43 43.7498C117.759 43.463 120.06 44.1004 121.91 45.5451C123.76 46.9879 124.937 49.0654 125.224 51.3952C125.78 55.9075 122.865 60.0537 118.441 61.0394ZM76.281 66.2358C76.0996 66.2764 75.9134 66.3117 75.725 66.342C75.6255 66.3572 75.5242 66.3716 75.4181 66.3847C73.0901 66.6715 70.7882 66.0347 68.9386 64.5912C67.0886 63.1465 65.9121 61.069 65.6246 58.74C65.069 54.2269 67.9843 50.0807 72.4071 49.0951C72.5898 49.0552 72.7758 49.0192 72.9631 48.9899C73.0633 48.9737 73.1666 48.9596 73.27 48.9462C75.5937 48.6597 77.8935 49.2986 79.7463 50.7439C81.598 52.19 82.7759 54.2664 83.0635 56.5902C83.6191 61.1033 80.7037 65.2502 76.281 66.2358ZM71.081 43.1963C63.6102 44.8614 58.6862 51.8612 59.626 59.4794C60.1089 63.4115 62.0968 66.9188 65.2189 69.3561C68.342 71.7931 72.2272 72.8691 76.1561 72.3844C76.3296 72.3636 76.5032 72.3389 76.675 72.3114C76.9844 72.2634 77.2955 72.2031 77.6003 72.1353C84.356 70.6297 89.1051 64.6991 89.1725 57.851C90.1793 57.0026 92.1591 55.5858 94.7023 55.0189C97.2105 54.4601 99.7139 54.8556 102.154 56.1961C103.014 59.5196 105.001 62.4357 107.81 64.473C110.858 66.6838 114.59 67.6469 118.317 67.1887C118.492 67.1664 118.665 67.1421 118.835 67.1156C119.144 67.0663 119.456 67.0066 119.76 66.9389C127.234 65.2731 132.163 58.2729 131.224 50.6547C130.739 46.724 128.752 43.2164 125.629 40.7787C122.507 38.3413 118.622 37.2654 114.693 37.7501C114.52 37.7709 114.346 37.7956 114.174 37.8231C113.865 37.8718 113.554 37.9321 113.249 38.0002C107.451 39.2921 103.08 43.8708 101.957 49.5389C99.166 48.623 96.3018 48.484 93.415 49.1275C92.4205 49.3501 91.4275 49.6673 90.4619 50.0701C89.5503 50.4504 88.6599 50.9059 87.7988 51.4312C86.6692 48.9995 84.8866 46.898 82.6306 45.374C79.6648 43.3716 76.0781 42.5091 72.5295 42.9461C72.0437 43.0065 71.5566 43.0904 71.081 43.1963ZM118.826 62.767C124.107 61.5901 127.652 56.6276 126.981 51.1772C126.636 48.3793 125.223 45.883 122.999 44.1488C120.777 42.4138 118.012 41.6483 115.213 41.9929C115.09 42.0081 114.966 42.0257 114.844 42.0459C114.622 42.0811 114.4 42.1228 114.183 42.1711C108.902 43.348 105.357 48.3105 106.029 53.7602C106.741 59.5362 112.019 63.6567 117.795 62.9455C117.92 62.9299 118.043 62.9123 118.164 62.8933C118.388 62.8576 118.609 62.8153 118.826 62.767ZM76.6662 67.9641C81.9469 66.7872 85.492 61.8247 84.8199 56.3743C84.1084 50.5972 78.8291 46.4771 73.0523 47.1894C72.9289 47.2045 72.805 47.2222 72.6837 47.2416C72.46 47.2772 72.2392 47.3192 72.0222 47.3675C66.7408 48.5447 63.1954 53.5072 63.8674 58.957C64.2128 61.7552 65.6267 64.2504 67.8482 65.9861C70.0721 67.7207 72.8368 68.4862 75.635 68.1408C75.7592 68.1256 75.8834 68.1094 76.0054 68.0893C76.228 68.054 76.4485 68.0128 76.6662 67.9641ZM71.4662 44.9242C71.8839 44.8307 72.3118 44.7577 72.7461 44.7026C79.2467 43.9025 85.2344 48.0462 86.9292 54.1793C87.9371 53.3961 89.3739 52.4433 91.1445 51.7021C91.9326 51.3733 92.8241 51.0734 93.7999 50.8551C96.4849 50.2568 99.819 50.2839 103.449 52.0531C103.617 46.1342 107.757 41.0373 113.634 39.7278C113.903 39.6678 114.175 39.6159 114.451 39.5711C114.602 39.5475 114.755 39.5256 114.907 39.5069C118.369 39.0801 121.791 40.028 124.541 42.1743C127.291 44.3213 129.04 47.4102 129.467 50.8716C130.298 57.6146 125.91 63.7547 119.375 65.2114C119.107 65.271 118.834 65.3232 118.557 65.3669C118.408 65.3916 118.254 65.4124 118.102 65.4311C111.289 66.2707 105.039 61.6748 103.707 55.0531C100.21 52.8913 96.9795 52.6983 94.3171 53.2913C90.7515 54.0862 88.2034 56.29 87.3874 57.0745C87.688 63.4136 83.4212 69.0245 77.2151 70.4078C76.9459 70.4677 76.6739 70.5192 76.3984 70.564C76.2467 70.588 76.0947 70.6085 75.9412 70.6279C72.4794 71.0537 69.0582 70.1072 66.3083 67.9602C63.5577 65.815 61.809 62.7243 61.3824 59.2635C60.5513 52.5226 64.9349 46.3794 71.4662 44.9242Z" fill="#222224"/>
<path d="M160.083 24.406C159.892 24.533 159.733 24.7242 159.616 24.9267C159.319 25.4365 159.223 26.0418 159.223 26.6267C159.223 27.2321 159.339 27.9327 159.691 28.464C159.86 28.7191 160.094 28.9216 160.403 29.0062C160.689 29.0807 160.986 29.0591 161.242 28.9C162.059 28.4009 162.165 27.0832 162.102 26.2228C162.038 25.3733 161.698 24.2363 160.646 24.2677C160.456 24.2677 160.254 24.2995 160.083 24.406ZM159.882 30.3344C159.5 30.1856 159.148 29.9093 158.862 29.5798C158.182 28.8154 157.82 27.7098 157.82 26.637C157.82 25.9145 157.969 25.1708 158.245 24.502C158.448 24.0236 158.925 23.3755 159.371 23.1734C159.532 23.099 159.712 23.0245 159.882 22.9614C160.338 22.8227 160.954 22.8548 161.423 22.9614C162.718 23.2693 163.282 24.6716 163.441 26.021C163.493 26.4673 163.473 26.9241 163.419 27.3707C163.313 28.1984 163.143 29.0168 162.548 29.6119C162.017 30.1326 161.369 30.4406 160.657 30.4614C160.403 30.4614 160.137 30.4293 159.882 30.3344Z" fill="#373535"/>
<path d="M160.94 33.389C161.152 33.3361 161.545 33.3361 161.662 33.5802C161.778 33.8673 161.725 34.3665 161.725 34.6745V40.1037C161.725 40.4011 161.799 40.8051 161.502 41.0171C161.3 41.1772 160.907 41.166 160.674 41.0813C160.419 40.9963 160.408 40.7091 160.408 40.4756C160.312 38.6164 160.344 36.8525 160.344 34.9617C160.302 35.089 159.568 35.2065 159.451 35.2065C159.08 35.2488 158.729 35.1631 158.687 34.7281C158.634 34.2819 158.931 34.0377 159.345 33.9097C159.792 33.7608 160.228 33.5802 160.674 33.4528C160.769 33.4324 160.854 33.4003 160.94 33.389Z" fill="#373535"/>
<path d="M160.083 45.6658C159.892 45.7931 159.733 45.984 159.616 46.1865C159.319 46.6962 159.223 47.3016 159.223 47.8865C159.223 48.4919 159.339 49.1925 159.691 49.7238C159.86 49.9788 160.094 50.1813 160.403 50.266C160.689 50.3404 160.986 50.3189 161.242 50.1598C162.059 49.6606 162.165 48.343 162.102 47.4826C162.038 46.6327 161.698 45.4961 160.646 45.5275C160.456 45.5275 160.254 45.5592 160.083 45.6658ZM159.882 51.5942C159.5 51.4453 159.148 51.1694 158.862 50.8396C158.182 50.0751 157.82 48.9695 157.82 47.8967C157.82 47.1742 157.969 46.4306 158.245 45.7617C158.448 45.2834 158.925 44.6353 159.371 44.4332C159.532 44.3587 159.712 44.2843 159.882 44.2211C160.338 44.0828 160.954 44.1146 161.423 44.2211C162.718 44.5291 163.282 45.9314 163.441 47.2808C163.493 47.7274 163.473 48.1839 163.419 48.6305C163.313 49.4581 163.143 50.2766 162.548 50.8717C162.017 51.3924 161.369 51.7004 160.657 51.7212C160.403 51.7212 160.137 51.6891 159.882 51.5942Z" fill="#373535"/>
<path d="M160.94 54.6488C161.152 54.5959 161.545 54.5959 161.662 54.84C161.778 55.1272 161.725 55.6264 161.725 55.9343V61.3636C161.725 61.661 161.799 62.0649 161.502 62.2769C161.3 62.4371 160.907 62.4258 160.674 62.3408C160.419 62.2561 160.408 61.9689 160.408 61.7354C160.312 59.8763 160.344 58.1124 160.344 56.2215C160.302 56.3485 159.568 56.4663 159.451 56.4663C159.08 56.5086 158.729 56.4229 158.687 55.9879C158.634 55.5417 158.931 55.2976 159.345 55.1695C159.792 55.0206 160.228 54.84 160.674 54.7127C160.769 54.6922 160.854 54.6601 160.94 54.6488Z" fill="#373535"/>
<path d="M160.94 65.2786C161.152 65.2257 161.545 65.2257 161.662 65.4698C161.778 65.757 161.725 66.2562 161.725 66.5641V71.9934C161.725 72.2908 161.799 72.6947 161.502 72.9067C161.3 73.0669 160.907 73.0556 160.674 72.9709C160.419 72.8859 160.408 72.5988 160.408 72.3652C160.312 70.5061 160.344 68.7425 160.344 66.8513C160.302 66.9787 159.568 67.0961 159.451 67.0961C159.08 67.1385 158.729 67.0527 158.687 66.6178C158.634 66.1715 158.931 65.9274 159.345 65.7993C159.792 65.6508 160.228 65.4698 160.674 65.3425C160.769 65.322 160.854 65.2899 160.94 65.2786Z" fill="#373535"/>
<path d="M43.973 69.8806C43.7818 70.0076 43.6227 70.1988 43.506 70.4013C43.2082 70.9111 43.1123 71.5164 43.1123 72.1013C43.1123 72.7067 43.229 73.4073 43.5804 73.9386C43.7497 74.1937 43.9833 74.3962 44.2923 74.4808C44.5787 74.5553 44.8761 74.5337 45.1312 74.3746C45.9489 73.8755 46.0551 72.5578 45.992 71.6974C45.9281 70.8476 45.588 69.7109 44.5361 69.7423C44.3449 69.7423 44.1434 69.7741 43.973 69.8806ZM43.7716 75.809C43.3892 75.6602 43.0378 75.3843 42.7517 75.0544C42.0716 74.29 41.71 73.1844 41.71 72.1116C41.71 71.3891 41.8588 70.6454 42.1347 69.9766C42.3372 69.4982 42.8149 68.8501 43.2611 68.648C43.4213 68.5736 43.6012 68.4991 43.7716 68.436C44.2281 68.2977 44.844 68.3294 45.3122 68.436C46.6079 68.744 47.1713 70.1462 47.3304 71.4956C47.383 71.9422 47.3625 72.3987 47.3089 72.8453C47.2031 73.673 47.0327 74.4914 46.4375 75.0865C45.9066 75.6072 45.2586 75.9152 44.5466 75.936C44.2923 75.936 44.0267 75.9039 43.7716 75.809Z" fill="#373535"/>
<path d="M43.973 80.5105C43.7818 80.6378 43.6227 80.8287 43.506 81.0312C43.2082 81.541 43.1123 82.1463 43.1123 82.7312C43.1123 83.3366 43.229 84.0372 43.5804 84.5685C43.7497 84.8235 43.9833 85.026 44.2923 85.1107C44.5787 85.1851 44.8761 85.1636 45.1312 85.0045C45.9489 84.5053 46.0551 83.1877 45.992 82.3273C45.9281 81.4778 45.588 80.3408 44.5361 80.3722C44.3449 80.3722 44.1434 80.4039 43.973 80.5105ZM43.7716 86.4389C43.3892 86.29 43.0378 86.0142 42.7517 85.6843C42.0716 84.9199 41.71 83.8143 41.71 82.7415C41.71 82.0193 41.8588 81.2753 42.1347 80.6064C42.3372 80.1281 42.8149 79.48 43.2611 79.2779C43.4213 79.2034 43.6012 79.129 43.7716 79.0659C44.2281 78.9276 44.844 78.9593 45.3122 79.0659C46.6079 79.3738 47.1713 80.7761 47.3304 82.1255C47.383 82.5721 47.3625 83.0286 47.3089 83.4752C47.2031 84.3028 47.0327 85.1213 46.4375 85.7164C45.9066 86.2371 45.2586 86.5451 44.5466 86.5659C44.2923 86.5659 44.0267 86.5338 43.7716 86.4389Z" fill="#373535"/>
<path d="M44.8294 89.4935C45.0414 89.4406 45.4348 89.4406 45.5519 89.6847C45.6687 89.9718 45.615 90.471 45.615 90.779V96.2082C45.615 96.5056 45.6891 96.9096 45.3917 97.1216C45.1903 97.2817 44.7973 97.2705 44.5638 97.1858C44.3087 97.1008 44.2974 96.8136 44.2974 96.5801C44.2022 94.7209 44.2343 92.957 44.2343 91.0662C44.1919 91.1935 43.4582 91.311 43.3414 91.311C42.9696 91.3533 42.6192 91.2676 42.5769 90.8326C42.524 90.3863 42.8207 90.1422 43.2352 90.0142C43.6815 89.8656 44.1175 89.6847 44.5638 89.5577C44.659 89.5369 44.7437 89.5048 44.8294 89.4935Z" fill="#373535"/>
<path d="M44.8294 100.123C45.0414 100.071 45.4348 100.071 45.5519 100.315C45.6687 100.602 45.615 101.101 45.615 101.409V106.838C45.615 107.136 45.6891 107.539 45.3917 107.751C45.1903 107.912 44.7973 107.9 44.5638 107.816C44.3087 107.731 44.2974 107.443 44.2974 107.21C44.2022 105.351 44.2343 103.587 44.2343 101.696C44.1919 101.823 43.4582 101.941 43.3414 101.941C42.9696 101.983 42.6192 101.897 42.5769 101.462C42.524 101.016 42.8207 100.772 43.2352 100.644C43.6815 100.496 44.1175 100.315 44.5638 100.188C44.659 100.167 44.7437 100.135 44.8294 100.123Z" fill="#373535"/>
<path d="M55.3226 61.2947C55.5346 61.2418 55.9279 61.2418 56.0451 61.4859C56.1618 61.7731 56.1082 62.2723 56.1082 62.5803V68.0095C56.1082 68.3069 56.1823 68.7108 55.8849 68.9228C55.6831 69.083 55.2905 69.0717 55.0569 68.9871C54.8019 68.902 54.7906 68.6149 54.7906 68.3813C54.6953 66.5222 54.7274 64.7583 54.7274 62.8674C54.6851 62.9948 53.9513 63.1122 53.8345 63.1122C53.4627 63.1546 53.1124 63.0689 53.0701 62.6339C53.0172 62.1876 53.3138 61.9435 53.7284 61.8154C54.1746 61.6666 54.6107 61.4859 55.0569 61.3589C55.1522 61.3381 55.2368 61.306 55.3226 61.2947Z" fill="#373535"/>
<path d="M54.4664 73.572C54.2752 73.6994 54.1161 73.8902 53.9994 74.0927C53.7016 74.6025 53.6057 75.2078 53.6057 75.7927C53.6057 76.3981 53.7224 77.0987 54.0738 77.63C54.2431 77.8851 54.4767 78.0876 54.7857 78.1722C55.0718 78.2467 55.3695 78.2251 55.6246 78.066C56.4423 77.5669 56.5485 76.2492 56.4854 75.3888C56.4215 74.5393 56.0815 73.4023 55.0295 73.4337C54.8383 73.4337 54.6368 73.4655 54.4664 73.572ZM54.265 79.5004C53.8826 79.3516 53.5312 79.0757 53.2448 78.7458C52.565 77.9814 52.2034 76.8758 52.2034 75.803C52.2034 75.0808 52.3522 74.3368 52.6281 73.668C52.8306 73.1896 53.3079 72.5415 53.7545 72.3394C53.9143 72.265 54.0943 72.1905 54.265 72.1274C54.7215 71.9891 55.3374 72.0208 55.8056 72.1274C57.1013 72.4354 57.6647 73.8377 57.8238 75.187C57.8764 75.6336 57.8556 76.0901 57.802 76.5368C57.6965 77.3644 57.5261 78.1828 56.9309 78.778C56.3997 79.2987 55.752 79.6066 55.0401 79.6274C54.7857 79.6274 54.5201 79.5953 54.265 79.5004Z" fill="#373535"/>
<path d="M55.3226 82.5545C55.5346 82.5016 55.9279 82.5016 56.0451 82.7457C56.1618 83.0329 56.1082 83.5321 56.1082 83.84V89.2693C56.1082 89.5667 56.1823 89.9706 55.8849 90.1826C55.6831 90.3428 55.2905 90.3315 55.0569 90.2468C54.8019 90.1618 54.7906 89.8746 54.7906 89.6411C54.6953 87.782 54.7274 86.0181 54.7274 84.1272C54.6851 84.2545 53.9513 84.372 53.8345 84.372C53.4627 84.4143 53.1124 84.3286 53.0701 83.8936C53.0172 83.4474 53.3138 83.2033 53.7284 83.0752C54.1746 82.9267 54.6107 82.7457 55.0569 82.6187C55.1522 82.5979 55.2368 82.5658 55.3226 82.5545Z" fill="#373535"/>
<path d="M170.099 50.2888C169.907 50.4158 169.748 50.607 169.631 50.8095C169.334 51.3189 169.238 51.9246 169.238 52.5095C169.238 53.1149 169.355 53.8155 169.706 54.3468C169.875 54.6019 170.109 54.8044 170.418 54.889C170.704 54.9635 171.002 54.9419 171.257 54.7828C172.074 54.2837 172.181 52.966 172.117 52.1053C172.054 51.2558 171.714 50.1191 170.662 50.1505C170.47 50.1505 170.269 50.1823 170.099 50.2888ZM169.897 56.2172C169.515 56.0684 169.163 55.7925 168.877 55.4626C168.197 54.6982 167.835 53.5926 167.835 52.5198C167.835 51.7973 167.984 51.0536 168.26 50.3848C168.463 49.9064 168.94 49.2583 169.387 49.0562C169.546 48.9818 169.727 48.9073 169.897 48.8442C170.354 48.7059 170.97 48.7376 171.438 48.8442C172.733 49.1522 173.297 50.5545 173.456 51.9038C173.508 52.3501 173.488 52.8069 173.434 53.2532C173.329 54.0812 173.158 54.8996 172.563 55.4947C172.032 56.0154 171.384 56.3234 170.672 56.3442C170.418 56.3442 170.152 56.3121 169.897 56.2172Z" fill="#373535"/>
<path d="M170.955 59.2713C171.167 59.2184 171.56 59.2184 171.677 59.4625C171.794 59.7497 171.741 60.2488 171.741 60.5568V65.9861C171.741 66.2835 171.815 66.6874 171.517 66.8994C171.316 67.0596 170.923 67.0483 170.689 66.9636C170.434 66.8786 170.423 66.5914 170.423 66.3579C170.328 64.4988 170.36 62.7349 170.36 60.844C170.317 60.9713 169.584 61.0888 169.467 61.0888C169.095 61.1311 168.745 61.0454 168.702 60.6104C168.649 60.1642 168.946 59.9201 169.361 59.792C169.807 59.6431 170.243 59.4625 170.689 59.3355C170.784 59.3147 170.869 59.2826 170.955 59.2713Z" fill="#373535"/>
<path d="M170.099 71.5486C169.907 71.6759 169.748 71.8668 169.631 72.0693C169.334 72.579 169.238 73.1844 169.238 73.7693C169.238 74.3747 169.355 75.0753 169.706 75.6066C169.875 75.8616 170.109 76.0641 170.418 76.1491C170.704 76.2232 171.002 76.2017 171.257 76.0426C172.074 75.5434 172.181 74.2258 172.117 73.3654C172.054 72.5159 171.714 71.3789 170.662 71.4103C170.47 71.4103 170.269 71.442 170.099 71.5486ZM169.897 77.477C169.515 77.3281 169.163 77.0523 168.877 76.7224C168.197 75.9579 167.835 74.8523 167.835 73.7795C167.835 73.0574 167.984 72.3134 168.26 71.6445C168.463 71.1662 168.94 70.5181 169.387 70.316C169.546 70.2415 169.727 70.1671 169.897 70.104C170.354 69.9657 170.97 69.9974 171.438 70.104C172.733 70.4119 173.297 71.8142 173.456 73.1636C173.508 73.6102 173.488 74.0667 173.434 74.5133C173.329 75.3409 173.158 76.1594 172.563 76.7545C172.032 77.2752 171.384 77.5832 170.672 77.604C170.418 77.604 170.152 77.5719 169.897 77.477Z" fill="#373535"/>
<path d="M170.099 82.1785C169.907 82.3055 169.748 82.4967 169.631 82.6992C169.334 83.2089 169.238 83.8143 169.238 84.3992C169.238 85.0046 169.355 85.7052 169.706 86.2365C169.875 86.4919 170.109 86.694 170.418 86.779C170.704 86.8531 171.002 86.8316 171.257 86.6725C172.074 86.1733 172.181 84.8557 172.117 83.9953C172.054 83.1454 171.714 82.0088 170.662 82.0402C170.47 82.0402 170.269 82.0719 170.099 82.1785ZM169.897 88.1069C169.515 87.958 169.163 87.6821 168.877 87.3523C168.197 86.5878 167.835 85.4822 167.835 84.4094C167.835 83.6873 167.984 82.9433 168.26 82.2744C168.463 81.796 168.94 81.148 169.387 80.9459C169.546 80.8714 169.727 80.797 169.897 80.7338C170.354 80.5955 170.97 80.6273 171.438 80.7338C172.733 81.0418 173.297 82.4441 173.456 83.7935C173.508 84.2397 173.488 84.6966 173.434 85.1432C173.329 85.9708 173.158 86.7893 172.563 87.3844C172.032 87.9051 171.384 88.2131 170.672 88.2339C170.418 88.2339 170.152 88.2018 169.897 88.1069Z" fill="#373535"/>
</g>
</g>
<defs>
<clipPath id="clip0_722_20843">
<rect width="200" height="200" fill="white"/>
</clipPath>
</defs>
</svg>
