<svg width="200" height="200" viewBox="0 0 200 200" fill="none" xmlns="http://www.w3.org/2000/svg">
<g clip-path="url(#clip0_777_8908)">
<path d="M61.4054 78.6262C61.4054 78.6262 53.7403 81.5311 32.5846 78.4135C13.5081 75.6019 12.8052 64.9221 22.9707 62.0552C23.4937 61.9074 26.9087 56.6638 35.1039 58.9194C38.9814 59.9863 41.0564 61.1975 49.2757 67.7293C53.3702 70.9835 55.6587 70.2391 55.6587 70.2391C55.6587 70.2391 59.9132 66.9339 62.7334 66.5915C64.5723 66.3676 67.096 66.6754 67.664 68.127C68.232 69.5794 62.9833 76.8728 61.4054 78.6262Z" fill="white"/>
<path d="M18.7281 63.903C19.8382 64.9655 21.6547 66.1327 24.6149 67.2229C33.2259 70.3923 47.683 73.9422 55.4303 74.9226C59.735 75.4664 61.8609 75.954 62.9027 76.2826C62.1315 77.3339 61.4399 78.2088 61.0162 78.6808C61.0162 78.6808 53.3493 81.5858 32.1945 78.4682C16.0169 76.0837 13.0549 68.0416 18.7281 63.903Z" fill="#83D0F5"/>
<path d="M28.0052 62.37C28.524 62.5291 29.0885 62.6726 29.7049 62.7884L29.328 64.4458C29.328 64.4458 28.5326 64.4216 27.3655 64.1959L28.0052 62.37Z" fill="#4E4E4E"/>
<path d="M25.8044 61.5044C26.2661 61.7318 26.8289 61.9747 27.4869 62.2021L26.7269 64.0601C26.0604 63.9036 25.3108 63.6848 24.5405 63.3788L25.8044 61.5044Z" fill="#4E4E4E"/>
<path d="M23.918 63.1128C23.3638 62.8586 22.8061 62.5595 22.2675 62.2015L24.2906 60.609C24.2906 60.609 24.6848 60.916 25.4301 61.3128L23.918 63.1128Z" fill="#4E4E4E"/>
<path d="M30.8098 56.4749C25.6544 56.4749 22.7841 59.2683 21.7034 60.3204C21.6887 60.3343 21.674 60.349 21.6584 60.3637C16.7745 61.8654 13.9094 65.117 14.1541 68.9211C14.3244 71.5606 16.063 74.1032 19.0527 76.0796C22.1616 78.1346 26.4878 79.5828 31.9121 80.3816C38.5009 81.3525 44.4767 81.8462 49.6692 81.8462C57.8834 81.8462 61.3356 80.628 61.7013 80.4888C61.9892 80.3799 62.2477 80.2035 62.4543 79.9753C63.3189 79.0148 65.0955 76.6554 66.5739 74.3686C69.2713 70.1989 69.5316 68.6401 69.0759 67.4764C68.3722 65.6772 66.3197 64.645 63.4477 64.645C62.9964 64.645 62.5459 64.6718 62.1102 64.7254C59.3332 65.0625 55.8033 67.4911 54.5263 68.43C53.9237 68.4092 52.4323 68.1309 50.0894 66.2686C41.8787 59.7438 39.5167 58.2896 35.2268 57.1078C33.7034 56.6884 32.2173 56.4749 30.8098 56.4749ZM30.8098 58.4106C31.9691 58.4106 33.2668 58.5758 34.7141 58.9735C38.5917 60.0412 40.6649 61.2516 48.8851 67.7842C51.6949 70.0165 53.6548 70.3666 54.6067 70.3666C55.0433 70.3666 55.2681 70.2931 55.2681 70.2931C55.2681 70.2931 59.5234 66.9879 62.3436 66.6464C62.692 66.604 63.0664 66.5798 63.4468 66.5798C65.0704 66.5798 66.8143 67.0043 67.2742 68.1819C67.8413 69.6343 62.5935 76.9269 61.0157 78.681C61.0157 78.681 57.7675 79.9104 49.6692 79.9104C45.324 79.9104 39.5816 79.556 32.1948 78.4675C13.1183 75.6568 12.4146 64.9769 22.5801 62.1101C23.0106 61.9882 25.4028 58.4106 30.8098 58.4106Z" fill="#1D1D1D"/>
<path d="M55.4303 74.9227C55.4303 74.9227 57.1776 79.0553 58.9223 79.7029C60.667 80.3513 63.3661 80.181 63.3661 80.181L62.7073 75.4856C62.7073 75.4856 59.103 73.7651 55.4303 74.9227Z" fill="#83D0F5"/>
<path d="M56.8132 75.5908C57.5213 76.9758 58.5319 78.5269 59.2582 78.7966C60.1651 79.1338 61.4282 79.2159 62.2565 79.2315L61.8259 76.1709C61.1351 75.9159 59.7423 75.4905 58.1334 75.4905C57.6812 75.4905 57.2394 75.5243 56.8132 75.5908ZM62.5582 81.1689C61.4317 81.1689 59.8271 81.0721 58.5855 80.6104C56.5512 79.8548 54.8584 76.0534 54.5394 75.2986C54.4339 75.0487 54.4383 74.7634 54.5524 74.517C54.6674 74.2698 54.8801 74.0813 55.1394 73.9992C56.0766 73.7044 57.0838 73.5557 58.1334 73.5557C60.8758 73.5557 63.0337 74.5689 63.1236 74.6121C63.4167 74.7522 63.6199 75.0297 63.6657 75.3513L64.3245 80.0476C64.3608 80.3139 64.2864 80.5836 64.1153 80.7937C63.9449 81.0021 63.6959 81.13 63.4262 81.1473C63.4124 81.1482 63.0709 81.1689 62.5582 81.1689Z" fill="#1D1D1D"/>
<path d="M32.8118 80.6221C32.8118 80.6221 36.8424 81.0353 38.3727 79.844L38.3891 77.4881C38.3891 77.4881 36.1698 75.3785 32.46 76.0235" fill="#83D0F5"/>
<path d="M34.4055 81.25C33.5695 81.25 32.9202 81.1886 32.7568 81.1722C32.4516 81.1411 32.2312 80.8705 32.2623 80.5661C32.2934 80.2618 32.5675 80.037 32.8683 80.0725C33.8669 80.1736 36.5833 80.2601 37.8214 79.5477L37.8352 77.7425C37.2741 77.3042 35.4041 76.0722 32.5528 76.5676C32.2536 76.6194 31.9666 76.4189 31.9139 76.118C31.8629 75.8171 32.0634 75.531 32.3643 75.4782C36.3032 74.7944 38.6712 76.9929 38.7707 77.088C38.8813 77.1926 38.9427 77.3396 38.9427 77.4918L38.9254 79.8468C38.9246 80.0154 38.8459 80.1754 38.7119 80.2791C37.6787 81.084 35.7888 81.25 34.4055 81.25Z" fill="#1D1D1D"/>
<path d="M31.1655 78.501C31.3436 79.7754 32.0819 80.7246 32.8116 80.6218C33.5439 80.5197 33.9917 79.4036 33.8136 78.1292C33.6338 76.8558 32.8972 75.9047 32.1649 76.0076C31.4352 76.1105 30.9865 77.2258 31.1655 78.501Z" fill="white"/>
<path d="M32.2734 76.5525C32.2631 76.5525 32.2527 76.5534 32.2415 76.5551C31.9319 76.5992 31.5636 77.3661 31.7123 78.4243C31.8559 79.4488 32.3858 80.0773 32.7031 80.0773C32.7135 80.0773 32.7239 80.0765 32.7351 80.0747C33.0446 80.0315 33.4129 79.2647 33.2642 78.2073C33.1207 77.1828 32.5907 76.5525 32.2734 76.5525ZM32.7031 81.1831C31.7063 81.1831 30.8288 80.0868 30.617 78.5782C30.393 76.9779 31.038 75.6076 32.0884 75.4597C33.1553 75.311 34.1348 76.4497 34.3596 78.0534C34.5844 79.6528 33.9386 81.0223 32.889 81.1701C32.8268 81.1788 32.7645 81.1831 32.7031 81.1831Z" fill="#1D1D1D"/>
<path d="M33.2411 79.4253C32.9714 79.4253 32.4535 79.3795 32.1051 79.0639C31.8864 78.8659 31.7688 78.5945 31.7671 78.2806C31.7636 77.7584 31.9789 77.4636 32.1604 77.3097C32.5832 76.9475 33.159 77.0287 33.223 77.0391C33.4486 77.0754 33.6025 77.289 33.5653 77.5155C33.529 77.7403 33.3155 77.8916 33.0924 77.8587C33.0241 77.8483 32.8089 77.844 32.6982 77.9408C32.6299 78.0014 32.5953 78.1129 32.597 78.2746C32.597 78.3766 32.6299 78.4207 32.6619 78.4501C32.8071 78.5806 33.1746 78.6083 33.3371 78.5927C33.5628 78.5754 33.7668 78.7388 33.7875 78.9679C33.8092 79.1953 33.6414 79.3976 33.4123 79.4184C33.3924 79.4201 33.3302 79.4253 33.2411 79.4253Z" fill="#1D1D1D"/>
<path d="M35.8797 85.1237C35.8797 85.1237 40.3235 85.5767 42.0103 84.2643L42.0276 81.668C42.0276 81.668 39.58 79.3415 35.4907 80.0522" fill="#83D0F5"/>
<path d="M37.6392 85.7583C36.721 85.7583 36.0034 85.6917 35.8227 85.6727C35.5193 85.6416 35.2988 85.3701 35.3291 85.0667C35.3602 84.7632 35.6317 84.5384 35.9351 84.573C37.0487 84.6862 40.091 84.7805 41.4596 83.9704L41.4743 81.9214C40.8761 81.4459 38.7856 80.0401 35.5841 80.5969C35.2832 80.6479 34.9971 80.4473 34.9452 80.1473C34.8925 79.8456 35.0948 79.5594 35.3956 79.5084C39.7089 78.758 42.3017 81.164 42.4098 81.2669C42.5196 81.3715 42.5818 81.5194 42.5818 81.6715L42.5628 84.2669C42.5619 84.4364 42.4841 84.5955 42.3501 84.6992C41.2236 85.5767 39.1556 85.7583 37.6392 85.7583Z" fill="#1D1D1D"/>
<path d="M34.063 82.784C34.2609 84.1889 35.0736 85.2367 35.8803 85.1235C36.6852 85.0102 37.1797 83.7791 36.9826 82.3742C36.7855 80.9693 35.9728 79.9223 35.1661 80.0347C34.3604 80.1479 33.8667 81.3782 34.063 82.784Z" fill="white"/>
<path d="M35.2863 80.5797C35.2716 80.5797 35.2569 80.5806 35.2431 80.5823C34.8722 80.6342 34.4399 81.4884 34.612 82.7074C34.7797 83.9117 35.397 84.5783 35.7601 84.5783C35.7731 84.5783 35.7878 84.5774 35.8033 84.5757C35.9831 84.5506 36.1664 84.3449 36.2944 84.0267C36.4647 83.6031 36.5166 83.0282 36.4353 82.4524C36.2667 81.2463 35.6486 80.5797 35.2863 80.5797ZM35.7601 85.6841C34.6898 85.6841 33.7457 84.4962 33.5157 82.8613C33.2736 81.127 33.9644 79.6452 35.0892 79.4878C36.2313 79.3287 37.286 80.5616 37.5298 82.2976C37.6388 83.0723 37.5644 83.8322 37.3206 84.44C37.0388 85.1394 36.5417 85.589 35.9555 85.6711C35.8906 85.6789 35.8249 85.6841 35.7601 85.6841Z" fill="#1D1D1D"/>
<path d="M36.353 83.7612C36.0599 83.7612 35.5023 83.712 35.1279 83.3739C34.8962 83.1638 34.7726 82.8751 34.77 82.5413C34.7657 81.982 34.9965 81.6681 35.1893 81.5039C35.6406 81.1165 36.2588 81.2039 36.3262 81.2151C36.5527 81.2514 36.7057 81.465 36.6694 81.6906C36.6331 81.9154 36.4204 82.0676 36.1965 82.0338C36.117 82.0226 35.8619 82.0166 35.7262 82.135C35.6406 82.2094 35.5974 82.3434 35.5991 82.5353C35.6 82.6641 35.6441 82.7212 35.6864 82.7592C35.8663 82.9217 36.2951 82.9442 36.4628 82.9278C36.6885 82.9096 36.8934 83.0748 36.9132 83.3039C36.9349 83.5313 36.7671 83.7336 36.5389 83.7534C36.5147 83.756 36.4481 83.7612 36.353 83.7612Z" fill="#1D1D1D"/>
<path d="M29.5747 74.544C29.5747 74.544 36.2283 80.1843 40.9479 83.3236C40.9479 83.3236 43.2416 84.7648 48.5491 84.4648L43.2079 76.5204C43.2079 76.5204 29.9283 70.6353 29.5747 74.544Z" fill="#83D0F5"/>
<path d="M41.4632 82.5047C41.5972 82.5808 43.2528 83.4756 46.7586 83.5344L42.5629 77.2949C41.2427 76.7295 35.0888 74.1704 31.8424 74.1704C31.4819 74.1704 31.0738 74.2015 30.8127 74.3191C32.5574 75.775 37.673 79.9802 41.4632 82.5047ZM47.1269 85.4736C42.6018 85.4736 40.52 84.1975 40.4335 84.1439C35.7001 80.9944 29.2219 75.5139 28.9479 75.2822C28.7075 75.0782 28.5822 74.7704 28.6107 74.4557C28.6859 73.6266 29.2055 72.2364 31.8424 72.2364C35.8825 72.2364 43.2857 75.4975 43.6004 75.6358C43.7664 75.7093 43.909 75.8286 44.011 75.9799L49.3523 83.9252C49.5459 84.214 49.5701 84.584 49.4154 84.8952C49.2606 85.2065 48.9511 85.4105 48.6044 85.4304C48.103 85.4589 47.605 85.4736 47.1269 85.4736Z" fill="#1D1D1D"/>
<path d="M31.3035 69.8235C31.383 70.3898 31.9052 70.784 32.4733 70.7053C33.0387 70.6249 33.4338 70.101 33.3542 69.5356C33.2747 68.9702 32.7516 68.5751 32.1854 68.6537C31.6182 68.7333 31.224 69.2572 31.3035 69.8235Z" fill="#4E4E4E"/>
<path d="M34.4346 70.7335C34.5141 71.2998 35.0372 71.694 35.6043 71.6162C36.1706 71.5358 36.5648 71.0127 36.4844 70.4464C36.4049 69.881 35.8818 69.4859 35.3164 69.5646C34.7501 69.6441 34.355 70.1672 34.4346 70.7335Z" fill="#4E4E4E"/>
<path d="M37.9875 71.8401C38.067 72.4064 38.5901 72.8006 39.1564 72.7219C39.7227 72.6433 40.1169 72.1185 40.0374 71.5531C39.9578 70.9868 39.4348 70.5925 38.8694 70.6712C38.3022 70.7507 37.908 71.2747 37.9875 71.8401Z" fill="#4E4E4E"/>
<path d="M41.6401 72.8207C41.7188 73.3862 42.2427 73.7813 42.809 73.7017C43.3752 73.6231 43.7695 73.0991 43.6899 72.5328C43.6104 71.9674 43.0874 71.5732 42.5219 71.651C41.9548 71.7314 41.5605 72.2545 41.6401 72.8207Z" fill="#4E4E4E"/>
<path d="M45.1114 73.3787C45.1901 73.9449 45.7132 74.3392 46.2803 74.2605C46.8466 74.1818 47.2408 73.6579 47.1613 73.0916C47.0818 72.5262 46.5587 72.1311 45.9924 72.2089C45.4253 72.2893 45.031 72.8132 45.1114 73.3787Z" fill="#4E4E4E"/>
<path d="M48.6523 74.1889C48.7335 74.7543 49.2557 75.1494 49.822 75.0699C50.3883 74.9912 50.7825 74.4673 50.703 73.901C50.6235 73.3356 50.1004 72.9405 49.535 73.02C48.9678 73.0996 48.5736 73.6235 48.6523 74.1889Z" fill="#4E4E4E"/>
<path d="M151.573 178.113C151.573 181.618 140.222 184.462 98.6115 184.462C55.6067 184.462 45.6513 181.618 45.6513 178.113C45.6513 174.606 57.7508 171.763 98.6115 171.763C142.781 171.763 151.573 174.606 151.573 178.113Z" fill="#9E9E9E"/>
<path d="M60.9009 147.978C59.8496 149.642 61.0436 156.386 67.4353 158.261C70.3168 159.106 74.5462 158.417 75.3624 155.617C76.4353 151.936 73.0445 149.342 70.0782 148.877C68.3249 148.601 66.8638 148.953 65.1329 149.42C62.0128 150.259 61.7949 146.564 60.9009 147.978Z" fill="#1D1D1D"/>
<path d="M96.9722 138.376C96.9722 138.376 90.7551 138.427 86.23 146.145C86.23 146.145 80.4202 155.148 72.7161 153.936L72.3193 155.939C72.3193 155.939 80.5101 159.806 87.073 151.534C87.073 151.534 91.6231 144.693 97.375 144.083L96.9722 138.376Z" fill="#C1B094"/>
<path d="M98.2129 138.288L98.6158 143.996C98.6616 144.647 98.1965 145.217 97.5602 145.311L97.5066 145.319L97.5048 145.32C97.2775 145.352 97.0475 145.371 96.8192 145.424C96.5901 145.461 96.3619 145.529 96.1345 145.586C95.9071 145.66 95.6789 145.726 95.455 145.819C95.2285 145.898 95.008 146.004 94.7849 146.101C94.5645 146.21 94.3432 146.315 94.127 146.439C93.9083 146.554 93.6973 146.688 93.4838 146.817C93.2746 146.955 93.0636 147.092 92.8596 147.24C92.6512 147.384 92.4515 147.541 92.2501 147.697C91.4486 148.325 90.6904 149.033 89.9815 149.789C89.6253 150.166 89.2846 150.559 88.9552 150.961C88.7927 151.163 88.6302 151.365 88.4745 151.571C88.3232 151.771 88.1598 151.994 88.0362 152.174L88.0137 152.207C88.0034 152.223 87.9921 152.239 87.9791 152.252C87.7423 152.534 87.5097 152.818 87.2668 153.094C87.01 153.362 86.7705 153.641 86.4999 153.897C86.2301 154.153 85.9691 154.415 85.6786 154.652L85.2506 155.013L84.8019 155.352C84.5088 155.585 84.1829 155.777 83.8734 155.99C83.5474 156.179 83.231 156.385 82.8886 156.55C82.5558 156.73 82.2082 156.881 81.8607 157.032C81.5062 157.17 81.1543 157.312 80.7886 157.418C80.4281 157.538 80.0563 157.625 79.6872 157.713L79.1278 157.823L78.5641 157.907C77.8102 158.006 77.0503 158.039 76.2938 158.009C75.916 157.995 75.5382 157.962 75.163 157.918C74.7877 157.87 74.4134 157.816 74.0425 157.739C73.6699 157.668 73.3007 157.574 72.9333 157.469C72.7491 157.415 72.565 157.358 72.3799 157.293C72.2892 157.261 72.1949 157.228 72.1007 157.191C72.0013 157.153 71.9226 157.124 71.7903 157.065L71.7894 157.064C71.2621 156.82 70.9889 156.252 71.0978 155.706L71.0995 155.698L71.4964 153.695L71.5206 153.602C71.684 152.986 72.2944 152.607 72.9091 152.708C73.1771 152.751 73.4459 152.825 73.7183 152.84L74.1289 152.88L74.5422 152.887C74.6797 152.891 74.818 152.886 74.9572 152.872C75.0947 152.861 75.2338 152.856 75.3722 152.841C75.6471 152.794 75.9264 152.766 76.1996 152.696C76.7511 152.58 77.2941 152.396 77.8223 152.174C78.354 151.957 78.8667 151.676 79.3673 151.376C80.3641 150.764 81.2987 150.02 82.152 149.185C83.0088 148.354 83.7981 147.441 84.5105 146.483C84.6869 146.243 84.8607 146 85.0224 145.758C85.0993 145.644 85.1944 145.496 85.2247 145.443L85.4858 145.018L86.0123 144.169C86.1956 143.89 86.4031 143.626 86.5976 143.353C86.9763 142.801 87.4319 142.299 87.8763 141.792C88.101 141.54 88.3561 141.312 88.5956 141.073L88.9604 140.719L89.3538 140.39C89.8665 139.94 90.4267 139.544 90.9956 139.161L91.8852 138.636C92.1939 138.482 92.5016 138.323 92.8137 138.176C93.4509 137.903 94.0959 137.645 94.7789 137.475C95.1152 137.378 95.4628 137.31 95.8146 137.247C96.1656 137.189 96.5262 137.141 96.9368 137.132H96.9429C97.6094 137.117 98.1654 137.63 98.2129 138.288ZM95.8276 139.832C95.7048 139.863 95.5795 139.886 95.4567 139.925C94.9207 140.074 94.3968 140.287 93.8797 140.513L93.1198 140.898L92.3893 141.338C91.9155 141.656 91.4417 141.98 91.0068 142.359L90.6722 142.632L90.3593 142.933C90.1552 143.138 89.9339 143.326 89.7394 143.543C89.359 143.984 88.9449 144.395 88.6008 144.876C88.4253 145.111 88.2342 145.335 88.0665 145.578L87.578 146.32L87.3333 146.691C87.1959 146.904 87.1111 147.015 87.0074 147.158C86.8068 147.429 86.6028 147.69 86.3944 147.947C85.5558 148.97 84.6549 149.931 83.6693 150.813C82.6829 151.693 81.6255 152.507 80.4713 153.202C79.8895 153.539 79.299 153.871 78.6687 154.136C78.0411 154.404 77.3952 154.65 76.7209 154.818C76.3872 154.918 76.0413 154.975 75.6981 155.047L75.1776 155.122C75.003 155.15 74.8284 155.168 74.6511 155.176C73.9482 155.256 73.235 155.211 72.5226 155.165L73.9361 154.177L73.5393 156.18L72.8511 154.814C72.8753 154.828 72.9566 154.864 73.0171 154.888C73.0846 154.916 73.152 154.944 73.2229 154.971C73.3629 155.024 73.5082 155.075 73.6543 155.123C73.9482 155.218 74.2465 155.305 74.5517 155.374C75.1595 155.52 75.7846 155.605 76.4079 155.641C77.033 155.677 77.6589 155.662 78.2779 155.593L78.7414 155.53L79.2004 155.442C79.5022 155.372 79.8065 155.305 80.103 155.206C80.4022 155.123 80.6927 155.006 80.984 154.896C81.2702 154.771 81.5572 154.652 81.8339 154.503C82.1174 154.37 82.3811 154.196 82.6552 154.043C82.9146 153.864 83.186 153.705 83.4333 153.505L83.812 153.218L84.1751 152.907C84.4224 152.708 84.6454 152.477 84.8771 152.256C85.1097 152.036 85.3189 151.789 85.5411 151.557C85.7538 151.313 85.9569 151.06 86.1653 150.813L86.1091 150.892C86.2907 150.622 86.4506 150.406 86.627 150.172C86.799 149.943 86.9754 149.719 87.1544 149.497C87.5123 149.052 87.8866 148.624 88.2714 148.203C89.0434 147.363 89.8725 146.568 90.7743 145.841C91.0025 145.662 91.2299 145.48 91.4676 145.311C91.7019 145.138 91.9457 144.973 92.1895 144.811C92.4394 144.654 92.6841 144.491 92.9443 144.347C93.1993 144.194 93.4665 144.06 93.7319 143.922C94.0051 143.795 94.274 143.662 94.5584 143.552C94.8385 143.433 95.1299 143.338 95.4195 143.239C95.7161 143.155 96.0109 143.063 96.3178 143.004C96.6195 142.93 96.9334 142.892 97.2437 142.846L96.1345 144.17L95.8276 139.832Z" fill="#1D1D1D"/>
<path d="M154.616 92.6842C155.098 91.1073 156.356 87.1571 157.795 86.1058C160.906 83.8329 167.194 80.1447 174.104 87.7174C177.16 91.0658 178.991 107.643 170.095 113.865C165.665 116.964 156.293 118.447 149.291 112.391C142.289 106.335 136.527 88.6796 141.365 88.0225C146.203 87.3663 154.616 92.6842 154.616 92.6842Z" fill="white"/>
<path d="M142.244 89.3495C141.998 89.3495 141.764 89.3642 141.551 89.3927C141.473 89.4031 141.29 89.4282 141.126 89.978C140.014 93.7172 144.426 106.356 150.195 111.346C153.859 114.514 157.903 115.179 160.651 115.179C163.878 115.179 167.113 114.264 169.304 112.732C173.333 109.915 174.665 104.928 175.074 101.24C175.735 95.2622 174.317 90.0005 173.083 88.6483C170.609 85.9371 168.017 84.5624 165.379 84.5624C162.576 84.5624 160.173 86.0806 158.611 87.2218C158.345 87.4172 157.364 88.414 155.939 93.0878C155.812 93.5011 155.502 93.8296 155.097 93.98C154.694 94.1296 154.242 94.0829 153.878 93.853C153.807 93.808 146.693 89.3495 142.244 89.3495ZM160.651 117.944C157.433 117.944 152.693 117.161 148.386 113.437C145.511 110.949 142.658 106.531 140.56 101.314C138.512 96.2227 137.733 91.6907 138.477 89.1895C139.061 87.2227 140.421 86.7567 141.18 86.6538C141.515 86.608 141.873 86.5846 142.244 86.5846C146.142 86.5846 151.301 89.1904 153.832 90.6169C154.873 87.5944 155.885 85.7892 156.98 84.9904C158.857 83.6201 161.767 81.7984 165.379 81.7984C168.826 81.7984 172.105 83.4765 175.125 86.7852C177.291 89.1584 178.475 95.6409 177.82 101.544C177.349 105.799 175.764 111.588 170.889 114.997C168.251 116.842 164.423 117.944 160.651 117.944Z" fill="#1D1D1D"/>
<path d="M154.582 92.5483C154.582 92.5483 153.924 96.2088 153.924 99.8711L154.582 92.5483Z" fill="white"/>
<path d="M153.925 101.253C153.162 101.253 152.543 100.634 152.543 99.8705C152.543 96.1287 153.194 92.4578 153.223 92.303C153.358 91.5517 154.076 91.0529 154.826 91.1878C155.577 91.3226 156.077 92.0402 155.944 92.7924C155.936 92.8278 155.307 96.382 155.307 99.8705C155.307 100.634 154.689 101.253 153.925 101.253Z" fill="#1D1D1D"/>
<path d="M113.541 167.153C113.541 167.153 111.714 170.377 109.157 171.528C106.601 172.68 100.658 166.769 104.804 160.32C104.804 160.32 108.627 158.528 110.941 158.759" fill="#D9B579"/>
<path d="M108.454 173.051C107.052 173.051 105.459 172.212 104.174 170.721C102.041 168.246 100.782 164.018 103.64 159.572C103.781 159.354 103.98 159.178 104.217 159.068C104.643 158.869 108.455 157.12 111.077 157.382C111.837 157.458 112.392 158.136 112.316 158.895C112.24 159.655 111.561 160.209 110.804 160.134C109.521 160.005 107.179 160.788 105.759 161.405C103.992 164.443 104.84 167.259 106.268 168.916C107.327 170.146 108.344 170.38 108.589 170.268C110.336 169.481 111.888 167.259 112.339 166.47C112.717 165.807 113.559 165.576 114.223 165.952C114.886 166.33 115.118 167.17 114.742 167.834C114.66 167.981 112.659 171.466 109.725 172.788C109.331 172.965 108.903 173.051 108.454 173.051Z" fill="#1D1D1D"/>
<path d="M94.803 136.267C94.6309 131.498 93.0471 108.826 93.0471 108.826L93.922 93.7624C93.922 93.7624 106.085 86.3912 119.124 86.1146C132.161 85.8379 141.512 92.38 141.512 92.38C141.512 92.38 146.185 95.6152 146.582 109.056C146.582 109.056 146.293 135.272 145.055 142.591C144.048 148.549 133.59 146.513 133.59 146.513C133.59 146.513 126.863 145.13 119.953 145.361C113.043 145.59 106.039 146.373 106.039 146.373C106.039 146.373 95.1531 145.96 94.803 136.267Z" fill="#C1B092"/>
<path d="M121.542 143.953C127.926 143.953 133.628 145.109 133.867 145.159C133.869 145.159 135.485 145.466 137.43 145.466C140.048 145.466 143.259 144.927 143.693 142.361C144.881 135.335 145.188 110.058 145.199 109.069C144.831 96.7382 140.747 93.5324 140.705 93.5013C140.635 93.4529 131.555 87.2384 119.152 87.4961C108.281 87.7269 97.8644 93.1382 95.2594 94.5898L94.4329 108.818C94.5557 110.587 96.0177 131.581 96.1854 136.217C96.4707 144.144 104.945 144.922 106 144.987C106.942 144.886 113.502 144.192 119.906 143.979C120.438 143.962 120.988 143.953 121.542 143.953ZM137.43 148.229C135.206 148.229 133.401 147.884 133.325 147.869C133.256 147.855 127.635 146.717 121.542 146.717C121.019 146.717 120.499 146.725 120 146.742C113.225 146.967 106.263 147.74 106.193 147.748C106.124 147.755 106.055 147.757 105.988 147.755C105.864 147.751 102.946 147.624 99.9583 146.204C95.8456 144.247 93.5848 140.829 93.4223 136.318C93.2528 131.626 91.6845 109.149 91.6681 108.922C91.6637 108.864 91.6637 108.806 91.6672 108.747L92.543 93.682C92.5689 93.2281 92.8171 92.8174 93.2061 92.5805C93.7153 92.2719 105.838 85.0139 119.094 84.7329C132.441 84.4537 141.917 90.9759 142.307 91.2474C142.837 91.6157 147.559 95.2736 147.964 109.017C147.965 109.035 147.965 109.053 147.965 109.071C147.952 110.147 147.66 135.479 146.418 142.822C146.077 144.841 144.455 148.229 137.43 148.229Z" fill="#1D1D1D"/>
<path d="M145.055 142.592C145.055 142.592 144.028 151.65 133.793 160.695C130.016 164.032 122.235 166.246 113.541 167.153C113.541 167.153 109.088 162.189 110.509 159.015C110.509 159.015 115.741 157.473 119.815 154.587C123.645 151.873 126.312 147.906 126.904 144.881" fill="#C1B092"/>
<path d="M113.541 168.535C113.15 168.535 112.775 168.37 112.513 168.076C111.995 167.499 107.51 162.331 109.247 158.45C109.413 158.081 109.73 157.804 110.118 157.689C110.168 157.674 115.187 156.171 119.016 153.459C122.847 150.746 125.086 146.973 125.548 144.616C125.694 143.866 126.419 143.377 127.169 143.524C127.918 143.671 128.407 144.396 128.26 145.145C127.561 148.722 124.488 152.969 120.613 155.715C117.269 158.085 113.253 159.566 111.627 160.109C111.427 161.746 112.973 164.251 114.124 165.699C122.824 164.714 129.634 162.525 132.876 159.659C142.54 151.119 143.673 142.516 143.683 142.431C143.775 141.675 144.458 141.131 145.216 141.221C145.973 141.309 146.516 141.99 146.429 142.747C146.385 143.138 145.221 152.439 134.707 161.731C130.954 165.048 123.291 167.525 113.684 168.527C113.636 168.531 113.588 168.535 113.541 168.535Z" fill="#1D1D1D"/>
<path d="M97.3152 134.562C97.291 134.562 97.2651 134.561 97.24 134.56L93.2518 134.365C92.4132 134.324 91.7665 133.611 91.8071 132.772C91.8486 131.934 92.555 131.282 93.3997 131.329L97.3887 131.523C98.2274 131.565 98.874 132.277 98.8334 133.116C98.7936 133.93 98.1219 134.562 97.3152 134.562Z" fill="#1D1D1D"/>
<path d="M97.7008 127.877C97.6826 127.877 97.6653 127.876 97.6463 127.875L93.5932 127.732C92.7538 127.702 92.0984 126.998 92.1287 126.159C92.1581 125.32 92.8653 124.659 93.7013 124.693L97.7544 124.836C98.593 124.867 99.2492 125.57 99.2198 126.411C99.1913 127.231 98.516 127.877 97.7008 127.877Z" fill="#1D1D1D"/>
<path d="M97.8852 120.782C97.8766 120.782 97.8671 120.782 97.8576 120.781L93.7803 120.707C92.9408 120.692 92.2734 119.999 92.2881 119.159C92.3045 118.319 93.0039 117.645 93.8356 117.666L97.912 117.741C98.7524 117.756 99.4198 118.45 99.4051 119.289C99.3895 120.119 98.7126 120.782 97.8852 120.782Z" fill="#1D1D1D"/>
<path d="M97.9313 113.986C97.9218 113.986 97.9122 113.986 97.9036 113.985L93.8272 113.911C92.9869 113.896 92.3194 113.203 92.3341 112.363C92.3497 111.534 93.0275 110.87 93.854 110.87H93.8817L97.9581 110.945C98.7984 110.96 99.465 111.654 99.4503 112.493C99.4347 113.323 98.7578 113.986 97.9313 113.986Z" fill="#1D1D1D"/>
<path d="M142.076 134.574C141.275 134.574 140.604 133.947 140.56 133.137C140.513 132.299 141.157 131.581 141.994 131.535L146.211 131.305C147.049 131.265 147.766 131.901 147.813 132.74C147.858 133.579 147.215 134.296 146.377 134.342L142.162 134.572C142.132 134.573 142.105 134.574 142.076 134.574Z" fill="#1D1D1D"/>
<path d="M145.952 127.68H145.932L141.711 127.625C140.87 127.615 140.199 126.926 140.21 126.085C140.22 125.252 140.899 124.585 141.729 124.585H141.75L145.97 124.638C146.811 124.649 147.483 125.339 147.472 126.179C147.462 127.012 146.782 127.68 145.952 127.68Z" fill="#1D1D1D"/>
<path d="M141.452 120.791C140.618 120.791 139.938 120.118 139.931 119.282C139.926 118.443 140.602 117.756 141.442 117.75L145.663 117.72H145.675C146.509 117.72 147.188 118.394 147.195 119.229C147.2 120.068 146.524 120.755 145.685 120.761L141.463 120.791H141.452Z" fill="#1D1D1D"/>
<path d="M141.487 113.984C140.653 113.984 139.973 113.312 139.967 112.476C139.96 111.635 140.637 110.949 141.476 110.944L145.698 110.913H145.709C146.544 110.913 147.223 111.586 147.23 112.421C147.235 113.262 146.559 113.947 145.72 113.953L141.498 113.984H141.487Z" fill="#1D1D1D"/>
<path d="M139.782 156.895C139.782 156.895 143.622 161.498 144.255 165.78L129.58 169.365C129.58 169.365 127.476 161.515 127.434 159.065C127.392 156.614 138.528 154.487 139.782 156.895Z" fill="#D9B579"/>
<path d="M128.822 159.194C128.908 160.88 129.918 165.126 130.574 167.7L142.616 164.759C141.609 161.281 138.752 157.819 138.72 157.78C138.67 157.719 138.623 157.652 138.583 157.582C138.435 157.469 137.811 157.22 136.391 157.22C133.027 157.22 129.438 158.487 128.822 159.194ZM129.58 170.747C128.969 170.747 128.411 170.339 128.246 169.723C128.025 168.902 126.097 161.635 126.053 159.088C126.045 158.635 126.177 157.949 126.857 157.259C128.558 155.528 133.13 154.456 136.391 154.456C138.729 154.456 140.252 155.011 140.924 156.108C141.515 156.836 144.985 161.268 145.622 165.58C145.726 166.285 145.275 166.955 144.582 167.123L129.909 170.707C129.799 170.734 129.689 170.747 129.58 170.747Z" fill="#1D1D1D"/>
<path d="M144.163 87.1585C144.163 87.1585 148.965 95.5628 151.024 108.322C152.968 120.363 153.397 127.583 151.757 132.823C150.119 138.064 143.806 141.645 132.114 140.279C132.114 140.279 133.633 107.386 132.114 96.1118L144.163 87.1585Z" fill="#D5272A"/>
<path d="M133.552 139.037C134.702 139.138 135.812 139.189 136.866 139.189C144.144 139.189 149.092 136.718 150.439 132.41C151.917 127.687 151.706 121.218 149.66 108.543C148.139 99.1195 145.076 92.0872 143.682 89.2367L133.585 96.7411C134.795 107.407 133.814 132.893 133.552 139.037ZM136.866 141.953C135.319 141.953 133.667 141.852 131.954 141.651C131.234 141.568 130.7 140.94 130.734 140.215C130.749 139.887 132.23 107.318 130.745 96.2967C130.678 95.797 130.887 95.3025 131.29 95.0025L143.338 86.0491C143.656 85.8122 144.059 85.7241 144.447 85.8053C144.833 85.8857 145.168 86.1287 145.363 86.4719C145.564 86.8238 150.314 95.2428 152.389 108.102C154.51 121.246 154.698 128.058 153.077 133.237C151.344 138.776 145.435 141.953 136.866 141.953Z" fill="#1D1D1D"/>
<path d="M138.39 133.34C138.39 134.154 137.833 134.813 137.145 134.813C136.456 134.813 135.898 134.154 135.898 133.34C135.898 132.526 136.456 131.865 137.145 131.865C137.833 131.865 138.39 132.526 138.39 133.34Z" fill="white"/>
<path d="M137.145 130.483C135.694 130.483 134.516 131.765 134.516 133.341C134.516 134.915 135.694 136.196 137.145 136.196C138.594 136.196 139.773 134.915 139.773 133.341C139.773 131.765 138.594 130.483 137.145 130.483ZM137.145 131.866C137.833 131.866 138.39 132.525 138.39 133.341C138.39 134.154 137.833 134.814 137.145 134.814C136.456 134.814 135.898 134.154 135.898 133.341C135.898 132.525 136.456 131.866 137.145 131.866Z" fill="#1D1D1D"/>
<path d="M139.818 110.91L139.388 100.404L142.277 99.5672L142.479 102.789L144.356 99.1479L147.285 98.26L145.2 104.207L148.226 109.395L144.951 110.063L142.725 106.153L142.975 110.364L139.818 110.91Z" fill="#FFFEFE"/>
<path d="M140.1 100.917L140.477 110.095L142.249 109.789L142.035 106.195C142.017 105.874 142.221 105.582 142.529 105.492C142.837 105.401 143.167 105.533 143.326 105.812L145.305 109.285L147.142 108.911L144.603 104.556C144.501 104.381 144.481 104.171 144.549 103.979L146.182 99.3152L144.836 99.7242L143.094 103.106C142.951 103.383 142.639 103.529 142.337 103.466C142.033 103.402 141.809 103.143 141.789 102.833L141.641 100.471L140.1 100.917ZM139.819 111.601C139.662 111.601 139.508 111.547 139.385 111.448C139.229 111.323 139.136 111.136 139.128 110.938L138.697 100.432C138.683 100.114 138.89 99.8279 139.195 99.7406L142.085 98.9037C142.286 98.8458 142.503 98.8821 142.675 99.0031C142.847 99.1233 142.954 99.3152 142.966 99.5244L143.012 100.246L143.742 98.8311C143.828 98.6651 143.976 98.5397 144.155 98.4853L147.083 97.5991C147.332 97.523 147.603 97.5939 147.784 97.7824C147.963 97.97 148.022 98.2432 147.936 98.4878L145.957 104.135L148.823 109.047C148.934 109.239 148.947 109.474 148.857 109.678C148.765 109.881 148.582 110.028 148.364 110.072L145.089 110.739C144.798 110.799 144.498 110.664 144.351 110.405L143.591 109.071L143.665 110.324C143.686 110.675 143.439 110.986 143.094 111.046L139.936 111.591C139.897 111.598 139.858 111.601 139.819 111.601Z" fill="#1D1D1D"/>
<path d="M138.39 123.961C138.39 124.774 137.833 125.435 137.145 125.435C136.456 125.435 135.898 124.774 135.898 123.961C135.898 123.146 136.456 122.486 137.145 122.486C137.833 122.486 138.39 123.146 138.39 123.961Z" fill="white"/>
<path d="M137.145 121.103C135.694 121.103 134.516 122.385 134.516 123.961C134.516 125.535 135.694 126.816 137.145 126.816C138.594 126.816 139.773 125.535 139.773 123.961C139.773 122.385 138.594 121.103 137.145 121.103ZM137.145 122.486C137.833 122.486 138.39 123.145 138.39 123.961C138.39 124.774 137.833 125.435 137.145 125.435C136.456 125.435 135.898 124.774 135.898 123.961C135.898 123.145 136.456 122.486 137.145 122.486Z" fill="#1D1D1D"/>
<path d="M138.353 115.373C138.353 116.186 137.794 116.846 137.106 116.846C136.418 116.846 135.859 116.186 135.859 115.373C135.859 114.558 136.418 113.898 137.106 113.898C137.794 113.898 138.353 114.558 138.353 115.373Z" fill="white"/>
<path d="M137.106 112.516C135.657 112.516 134.477 113.797 134.477 115.373C134.477 116.948 135.657 118.228 137.106 118.228C138.556 118.228 139.735 116.948 139.735 115.373C139.735 113.797 138.556 112.516 137.106 112.516ZM137.106 113.898C137.795 113.898 138.352 114.557 138.352 115.373C138.352 116.186 137.795 116.846 137.106 116.846C136.418 116.846 135.86 116.186 135.86 115.373C135.86 114.557 136.418 113.898 137.106 113.898Z" fill="#1D1D1D"/>
<path d="M116.676 135.271C116.676 135.271 123.612 135.504 130.29 138.848C134.99 141.199 140.496 152.104 139.551 156.331C139.408 156.971 132.766 155.363 127.642 160.754C127.642 160.754 128.319 155.695 121.143 152.869C117.992 151.629 113.708 150.697 109.197 149.627C101.082 147.704 95.0336 143.741 93.6469 139.977" fill="#C1B092"/>
<path d="M127.642 162.136C127.44 162.136 127.236 162.092 127.045 162.001C126.506 161.742 126.193 161.164 126.272 160.57C126.288 160.424 126.63 156.515 120.636 154.156C117.981 153.111 114.392 152.268 110.592 151.376C110.026 151.243 109.453 151.109 108.878 150.973C100.456 148.976 93.9674 144.848 92.3507 140.455C92.0862 139.739 92.4527 138.945 93.1694 138.68C93.8853 138.417 94.6798 138.783 94.9435 139.5C95.9793 142.311 100.981 146.261 109.515 148.284C110.089 148.42 110.659 148.553 111.225 148.685C115.124 149.6 118.807 150.464 121.65 151.583C126.192 153.371 127.965 156.022 128.64 158.046C132.363 155.345 136.358 155.215 138.231 155.155C138.249 155.154 138.266 155.154 138.285 155.154C138.254 151.044 133.627 142.062 129.673 140.083C123.336 136.911 116.697 136.654 116.631 136.652C115.868 136.626 115.27 135.988 115.296 135.224C115.321 134.461 115.954 133.857 116.723 133.889C117.019 133.9 124.038 134.172 130.909 137.611C136.056 140.187 142.032 151.564 140.9 156.633C140.628 157.843 139.455 157.881 138.32 157.918C136.286 157.983 132.054 158.12 128.644 161.706C128.377 161.987 128.013 162.136 127.642 162.136Z" fill="#1D1D1D"/>
<path d="M109.929 151.099C109.729 151.099 109.524 151.06 109.329 150.974C108.557 150.642 108.202 149.748 108.534 148.977C108.74 148.5 110.612 144.265 112.985 142.554C113.666 142.064 114.616 142.219 115.107 142.9C115.598 143.582 115.444 144.531 114.762 145.023C113.325 146.057 111.761 149.172 111.326 150.18C111.078 150.756 110.517 151.099 109.929 151.099Z" fill="#1D1D1D"/>
<path d="M104.336 149.225C104.176 149.225 104.015 149.201 103.855 149.146C103.058 148.881 102.628 148.02 102.894 147.225C103.057 146.73 104.564 142.352 106.783 140.446C107.42 139.899 108.381 139.973 108.928 140.61C109.474 141.246 109.401 142.207 108.764 142.754C107.42 143.907 106.126 147.143 105.778 148.186C105.566 148.822 104.972 149.225 104.336 149.225Z" fill="#1D1D1D"/>
<path d="M97.4312 87.7175C97.4312 87.7175 88.011 95.7112 86.7989 109.739C85.7441 121.94 87.0021 136.632 87.0021 136.632C87.0021 136.632 87.7015 143.143 98.7868 142.155C105.007 141.6 107.543 140.602 111.323 137.85C111.323 137.85 115.152 133.374 117.138 124.523C119.152 115.546 121.207 106.665 118.82 99.8715L97.4312 87.7175Z" fill="#D5272A"/>
<path d="M88.3773 136.49C88.4127 136.731 89.1416 140.874 96.5914 140.874C97.2476 140.874 97.9445 140.842 98.6647 140.778C104.664 140.242 106.992 139.274 110.364 136.839C110.936 136.107 114.081 131.833 115.79 124.22L115.881 123.815C117.813 115.209 119.641 107.068 117.677 100.81L97.6376 89.4238C95.5099 91.5514 89.1329 98.7852 88.1767 109.857C87.1643 121.569 88.3211 135.817 88.3773 136.49ZM96.5914 143.64C91.4439 143.64 88.7542 141.863 87.4029 140.372C85.8727 138.682 85.6487 136.97 85.6271 136.78C85.6263 136.769 85.6254 136.76 85.6245 136.75C85.6124 136.603 84.3692 121.799 85.4222 109.619C86.6681 95.1912 96.135 87.0047 96.537 86.6624C96.9788 86.288 97.6099 86.2292 98.1139 86.5145L119.504 98.6685C119.794 98.8336 120.016 99.0981 120.126 99.4128C122.607 106.479 120.559 115.6 118.579 124.42L118.487 124.826C116.449 133.906 112.539 138.556 112.374 138.748C112.304 138.83 112.224 138.903 112.137 138.967C107.979 141.995 105.137 142.976 98.9111 143.531C98.1096 143.604 97.3289 143.64 96.5914 143.64Z" fill="#1D1D1D"/>
<path d="M140.888 147.991C138.998 147.991 137.578 147.538 137.489 147.507C136.692 147.247 136.256 146.388 136.516 145.591C136.776 144.794 137.632 144.359 138.429 144.616C138.468 144.628 140.847 145.362 143.126 144.617C143.925 144.356 144.782 144.792 145.044 145.591C145.304 146.388 144.869 147.247 144.072 147.507C142.964 147.869 141.864 147.991 140.888 147.991Z" fill="#1D1D1D"/>
<path d="M96.7212 83.4526C96.7212 83.4526 84.9191 90.044 79.2615 101.083C78.0537 101.194 76.7828 101.42 75.4566 101.806C65.6706 104.652 64.653 111.473 66.6649 119.369C68.5107 126.613 81.9087 125.744 84.4142 125.516C84.4575 125.512 84.5007 125.508 84.5439 125.505C84.7211 125.487 84.8162 125.475 84.8162 125.475L84.8188 125.47C95.8221 124.231 99.946 114.857 101.609 104.182C103.401 92.6791 96.7212 83.4526 96.7212 83.4526Z" fill="white"/>
<path d="M82.2782 126.997C82.228 126.997 82.1822 126.997 82.1329 126.996C81.3687 126.992 80.754 126.37 80.7583 125.607C80.7626 124.844 81.3842 124.222 82.1485 124.232C82.1891 124.233 82.2323 124.233 82.2756 124.233C92.3814 124.233 98.0909 117.791 100.243 103.969C101.594 95.2985 97.8376 87.9221 96.2615 85.2929C93.3082 87.0298 85.0612 92.5042 81.1378 101.374C80.8283 102.073 80.013 102.389 79.3145 102.079C78.6168 101.771 78.2995 100.954 78.609 100.256C83.824 88.4659 95.6045 82.4667 96.1033 82.2168C96.7085 81.9134 97.4442 82.0941 97.8411 82.6422C98.1272 83.0382 104.832 92.467 102.974 104.394C100.607 119.6 93.8356 126.996 82.2782 126.997Z" fill="#1D1D1D"/>
<path d="M80.8622 127.057C75.584 127.057 66.9428 126.059 65.3261 119.71C62.709 109.438 65.8958 103.148 75.0705 100.48C85.4357 97.4646 92.6184 103.218 92.9175 103.465C93.5089 103.948 93.5954 104.819 93.1112 105.41C92.6271 106 91.7573 106.086 91.166 105.604C90.9118 105.397 84.7674 100.538 75.8425 103.134C68.0849 105.39 65.7411 110.144 68.0045 119.027C69.4275 124.616 80.5086 124.587 84.6576 124.103C85.4149 124.014 86.1014 124.557 86.1896 125.315C86.2786 126.074 85.7357 126.76 84.9783 126.848C84.7665 126.873 83.1221 127.057 80.8622 127.057Z" fill="#1D1D1D"/>
<path d="M72.63 103.359C72.63 103.359 80.1551 102.638 82.2283 109.317C84.3015 115.995 78.5946 121.073 72.63 120.221C66.6654 119.369 65.8095 115.464 65.8095 110.783C65.8095 103.359 72.63 103.359 72.63 103.359Z" fill="#D5272A"/>
<path d="M73.2694 104.718C72.9496 104.718 72.7594 104.736 72.7576 104.736L72.6305 104.741C72.0807 104.747 67.1933 104.968 67.1933 110.783C67.1933 115.495 68.0907 118.176 72.8259 118.854C73.196 118.906 73.572 118.932 73.9455 118.932C76.3749 118.932 78.6427 117.823 80.0113 115.965C81.2969 114.219 81.6159 112.005 80.9087 109.727C79.5064 105.206 75.0989 104.718 73.2694 104.718ZM73.9455 121.697C73.4415 121.697 72.934 121.662 72.4343 121.59C65.3804 120.581 64.4276 115.562 64.4276 110.783C64.4276 103.866 69.7204 102.003 72.5709 101.977C72.6876 101.968 72.9314 101.954 73.2694 101.954C75.1741 101.954 81.5459 102.456 83.549 108.908C84.5234 112.044 84.0574 115.134 82.2366 117.604C80.3493 120.167 77.2499 121.697 73.9455 121.697Z" fill="#1D1D1D"/>
<path d="M90.5906 36.9879L71.1493 36.5634C71.1493 36.5634 70.4084 42.26 75.2922 46.8888C80.1761 51.5194 91.4404 52.8525 91.4404 52.8525L90.5906 36.9879Z" fill="#C1B092"/>
<path d="M72.5011 37.9755C72.5936 39.7211 73.2109 43.0107 76.2429 45.8853C79.6804 49.1439 86.7672 50.681 89.9704 51.2309L89.2796 38.3412L72.5011 37.9755ZM91.441 54.2344C91.3874 54.2344 91.3329 54.2309 91.2784 54.2249C90.8003 54.1678 79.4988 52.7811 74.3409 47.892C69.0092 42.8369 69.7449 36.6458 69.7786 36.3847C69.8703 35.6853 70.4685 35.1752 71.1801 35.1813L90.6214 35.6058C91.3441 35.6213 91.9329 36.1919 91.9718 36.913L92.8217 52.7776C92.8424 53.1857 92.6842 53.5816 92.3859 53.86C92.1292 54.1012 91.7911 54.2344 91.441 54.2344Z" fill="#1D1D1D"/>
<path d="M93.0481 37.0342L99.8919 21.6096L104.788 36.6702L93.0481 37.0342Z" fill="#D9B579"/>
<path d="M99.6928 25.4667L95.204 35.5846L102.904 35.346L99.6928 25.4667ZM93.0478 38.416C92.5887 38.416 92.159 38.1878 91.9014 37.8048C91.636 37.4105 91.5927 36.9074 91.7855 36.4725L98.6294 21.0497C98.8611 20.5257 99.3936 20.1963 99.9625 20.2292C100.536 20.2594 101.029 20.6381 101.207 21.1819L106.102 36.2425C106.236 36.6558 106.167 37.1097 105.918 37.465C105.668 37.8203 105.266 38.0382 104.831 38.052L93.091 38.4152C93.0772 38.416 93.0625 38.416 93.0478 38.416Z" fill="#1D1D1D"/>
<path d="M139.072 38.7663L145.848 24.2383L150.063 40.9805L139.072 38.7663Z" fill="#D9B579"/>
<path d="M141.068 37.758L148.188 39.1923L145.457 28.3465L141.068 37.758ZM150.063 42.3618C149.973 42.3618 149.881 42.3532 149.79 42.335L138.799 40.1209C138.384 40.0379 138.03 39.7681 137.839 39.3903C137.648 39.0117 137.64 38.5664 137.819 38.1825L144.596 23.6545C144.843 23.1237 145.399 22.8064 145.98 22.8626C146.562 22.9179 147.046 23.3338 147.189 23.9009L151.373 40.522C151.424 40.6647 151.451 40.8194 151.451 40.9803C151.451 41.7419 150.835 42.3601 150.072 42.3618H150.063Z" fill="#1D1D1D"/>
<path d="M150.705 41.2017L153.464 41.3737L171.209 44.0962C171.209 44.0962 171.388 49.2524 166.62 53.0366C161.277 57.279 150.988 57.2314 150.988 57.2314L150.705 41.2017Z" fill="#C1B092"/>
<path d="M152.113 42.6739L152.346 55.8135C156.1 55.6285 162.33 54.6766 165.761 51.9541C168.655 49.657 169.492 46.8108 169.732 45.2676L153.316 42.75L152.113 42.6739ZM151.003 58.6138H150.981C150.23 58.6103 149.62 58.006 149.607 57.2555L149.323 41.2249C149.316 40.8402 149.471 40.4684 149.75 40.2022C150.029 39.9359 150.404 39.7993 150.792 39.8218L153.55 39.9947C153.592 39.9973 153.633 40.0016 153.674 40.0076L171.418 42.7293C172.075 42.8304 172.567 43.3846 172.59 44.0486C172.598 44.2863 172.734 49.9492 167.479 54.1198C161.976 58.4867 152.11 58.6138 151.003 58.6138Z" fill="#1D1D1D"/>
<path d="M90.4715 37.1863C91.6784 36.3407 139.803 34.0877 151.053 41.3906C152.147 42.1013 151.213 55.1699 150.959 58.9973C150.706 62.8238 149.171 76.2902 148.811 79.6948C148.451 83.0977 147.487 89.9208 146.304 92.2914C145.12 94.6629 139.369 102.476 124.436 102.911C109.504 103.346 98.7842 97.0664 96.4949 90.6557C94.2046 84.2467 92.958 68.5939 92.958 68.5939L90.4058 45.4281C90.4058 45.4281 89.2646 38.0318 90.4715 37.1863Z" fill="#C1B092"/>
<path d="M91.3903 38.3821C91.1837 39.4412 91.3393 42.4109 91.7716 45.2173C91.7751 45.238 91.7777 45.257 91.7803 45.2778L94.3324 68.4436C94.3342 68.4566 94.335 68.4713 94.3359 68.4842C94.3489 68.639 95.5947 84.0281 97.7967 90.1915C99.7644 95.6979 109.256 101.55 122.975 101.55C123.445 101.55 123.923 101.543 124.397 101.53C140.199 101.069 144.875 92.059 145.067 91.6751C146.079 89.6469 147.039 83.3131 147.437 79.5497C147.52 78.7681 147.664 77.4566 147.841 75.8537C148.419 70.6067 149.387 61.8254 149.58 58.9049L149.622 58.279C150.367 47.1573 150.264 43.4363 150.01 42.3694C144.881 39.3158 130.989 37.5694 111.732 37.5694C101.813 37.5694 93.4834 38.0648 91.3903 38.3821ZM122.975 104.315C107.831 104.315 97.5356 97.6769 95.1927 91.1209C92.8895 84.6722 91.6549 69.6254 91.5823 68.7254L89.0353 45.6089C87.7704 37.3904 89.1572 36.4187 89.6794 36.0547C90.0217 35.8143 90.448 35.5169 96.965 35.1685C101.372 34.9342 106.616 34.8054 111.732 34.8054C123.576 34.8054 144.532 35.51 151.806 40.2322C152.873 40.9247 153.472 42.1757 152.38 58.464L152.338 59.0882C152.141 62.0675 151.169 70.8868 150.589 76.1563C150.413 77.7549 150.269 79.0621 150.187 79.8402C150.08 80.8491 149.098 89.7886 147.54 92.9088C146.985 94.0215 141.62 103.794 124.477 104.292C123.976 104.307 123.471 104.315 122.975 104.315Z" fill="#1D1D1D"/>
<path d="M107.569 66.9224C106.788 60.1174 106.017 37.8257 106.69 36.2591C106.69 36.2591 110.49 35.1819 119.671 35.666C128.851 36.1484 137.113 37.9459 138.099 39.7329C138.678 40.7807 139.237 43.4903 139.084 48.7476C139.084 48.7476 138.732 60.7797 137.555 66.7546" fill="#877D6B"/>
<path d="M107.567 68.3042C106.874 68.3042 106.277 67.7846 106.195 67.0791C105.57 61.6341 104.465 37.9366 105.42 35.7138C105.584 35.3308 105.913 35.043 106.313 34.9288C106.477 34.883 110.442 33.7945 119.743 34.2856C120.455 34.3228 137.199 35.247 139.309 39.064C140.203 40.6825 140.603 44.0447 140.466 48.786C140.451 49.2822 140.096 61.003 138.91 67.0212C138.762 67.7699 138.034 68.2575 137.287 68.1088C136.539 67.9618 136.05 67.2356 136.198 66.486C137.341 60.69 137.699 48.8249 137.702 48.7055C137.879 42.6485 137.089 40.7776 136.9 40.4205C136.135 39.4911 129.738 37.5796 119.598 37.0461C113.109 36.7029 109.419 37.1499 107.897 37.4153C107.565 41.6067 108.195 60.2552 108.942 66.7644C109.029 67.5226 108.486 68.2082 107.727 68.2947C107.673 68.3007 107.62 68.3042 107.567 68.3042Z" fill="#1D1D1D"/>
<path d="M111.727 48.6934C111.132 48.6934 110.64 48.2204 110.622 47.623C110.461 42.4435 110.607 35.8469 110.608 35.7803C110.622 35.1786 111.114 34.6996 111.712 34.6996H111.738C112.35 34.7143 112.833 35.2201 112.819 35.8305C112.818 35.8953 112.674 42.4348 112.832 47.5539C112.852 48.1643 112.372 48.6743 111.762 48.6934H111.727Z" fill="#1D1D1D"/>
<path d="M113.467 66.0815C112.944 66.0815 112.478 65.7081 112.381 65.1755C111.889 62.5049 111.227 57.2769 111.198 57.0564C111.122 56.4495 111.551 55.8979 112.157 55.8201C112.764 55.744 113.315 56.1729 113.392 56.7789C113.4 56.8325 114.074 62.166 114.556 64.7743C114.666 65.3761 114.269 65.9527 113.668 66.0634C113.6 66.0746 113.533 66.0815 113.467 66.0815Z" fill="#1D1D1D"/>
<path d="M118.442 65.9697C117.868 65.9697 117.383 65.5271 117.34 64.9461C117.336 64.8942 116.946 59.572 116.782 51.3993C116.619 43.25 116.58 36.3301 116.58 36.2609C116.577 35.6506 117.07 35.1526 117.68 35.1491H117.686C118.294 35.1491 118.789 35.6411 118.791 36.2497C118.792 36.318 118.829 43.2224 118.993 51.3561C119.155 59.4631 119.541 64.73 119.545 64.7827C119.59 65.3913 119.134 65.9213 118.525 65.9671C118.495 65.9689 118.469 65.9697 118.442 65.9697Z" fill="#1D1D1D"/>
<path d="M128.576 66.0747H128.537C127.927 66.0531 127.449 65.5413 127.471 64.9309C127.879 53.1565 127.158 37.2149 127.151 37.0558C127.123 36.4455 127.595 35.9285 128.204 35.9008C128.817 35.8723 129.332 36.3434 129.36 36.9538C129.368 37.1146 130.093 53.1418 129.681 65.0078C129.66 65.6053 129.17 66.0747 128.576 66.0747Z" fill="#1D1D1D"/>
<path d="M123.495 65.8999H123.493C122.882 65.899 122.388 65.4028 122.39 64.7933C122.39 64.6584 122.413 51.3892 122.339 46.9177C122.328 46.3073 122.816 45.8041 123.426 45.7938H123.445C124.047 45.7938 124.541 46.277 124.55 46.8814C124.624 51.3719 124.6 64.6627 124.6 64.7967C124.6 65.4071 124.104 65.8999 123.495 65.8999Z" fill="#1D1D1D"/>
<path d="M114.37 52.5435C113.821 52.5435 113.345 52.1354 113.274 51.5786C113.197 50.9726 113.624 50.4184 114.23 50.3406C115.816 50.1374 117.465 49.9792 117.481 49.9775C118.082 49.9187 118.629 50.3656 118.686 50.9743C118.745 51.5821 118.298 52.1216 117.69 52.1795C117.674 52.1803 116.06 52.3351 114.512 52.5339C114.464 52.54 114.417 52.5435 114.37 52.5435Z" fill="#1D1D1D"/>
<path d="M133.647 56.7197C133.611 56.7197 133.575 56.7171 133.538 56.7137C132.93 56.6549 132.485 56.1137 132.546 55.5068C133.128 49.5474 132.342 38.3254 132.333 38.2121C132.291 37.6035 132.75 37.0735 133.358 37.0312C133.971 36.9862 134.495 37.4462 134.539 38.0548C134.573 38.5225 135.348 49.5759 134.746 55.722C134.69 56.2926 134.208 56.7197 133.647 56.7197Z" fill="#1D1D1D"/>
<path d="M136.344 74.0776L135.57 77.9352C135.57 77.9352 131.446 79.2156 130.543 78.422C130.499 78.3848 128.396 74.7268 128.396 74.7268L125.579 79.0081L121.914 79.3669L119.375 74.8799L116.137 80.145C116.137 80.145 111.296 80.0119 110.425 79.6228C110.425 79.6228 108.354 73.6686 107.574 66.8646C107.574 66.8646 110.377 65.5271 116.043 65.1458C121.707 64.7637 134.492 65.5418 137.653 66.5196C137.653 66.5196 136.518 72.9943 136.344 74.0776Z" fill="#D9B579"/>
<path d="M111.496 78.454C112.339 78.5715 113.9 78.6787 115.38 78.7367L118.198 74.1554C118.454 73.7387 118.901 73.4828 119.4 73.4983C119.889 73.5061 120.337 73.7732 120.578 74.1995L122.673 77.9041L124.786 77.6975L127.24 73.9678C127.505 73.5675 127.959 73.3375 128.437 73.3462C128.916 73.36 129.353 73.6219 129.593 74.0378C130.308 75.2819 131.099 76.6496 131.477 77.2963C131.52 77.298 131.569 77.3006 131.625 77.3006C132.402 77.3006 133.558 77.0482 134.38 76.8338L134.984 73.832C135.12 72.9908 135.729 69.4997 136.066 67.5692C132.75 66.9614 125.385 66.4297 119.648 66.4297C118.262 66.4297 117.081 66.4617 116.135 66.5257C112.63 66.7625 110.274 67.3807 109.08 67.7732C109.734 72.5767 110.979 76.8182 111.496 78.454ZM116.136 81.5283C116.124 81.5283 116.111 81.5283 116.098 81.5275C114.188 81.4739 110.838 81.3208 109.862 80.886C109.513 80.7303 109.244 80.4381 109.119 80.0776C109.032 79.8286 106.989 73.8995 106.199 67.0228C106.133 66.4366 106.445 65.8712 106.978 65.6179C107.102 65.5582 110.088 64.1628 115.949 63.7677C116.956 63.7003 118.2 63.6657 119.648 63.6657C125.998 63.6657 135.222 64.321 138.062 65.1986C138.726 65.4043 139.135 66.0726 139.014 66.7582C139.002 66.8222 137.88 73.2355 137.709 74.2972L137.699 74.3508L136.924 78.2084C136.824 78.7038 136.461 79.1058 135.979 79.2554C135.713 79.3375 133.326 80.0638 131.625 80.0638C130.746 80.0638 130.092 79.8684 129.631 79.462C129.46 79.3133 129.425 79.2822 128.316 77.3603L126.733 79.7689C126.503 80.1174 126.129 80.3439 125.712 80.3836L122.047 80.7424C121.505 80.796 120.98 80.5246 120.709 80.0482L119.325 77.5989L117.313 80.8695C117.062 81.2793 116.616 81.5283 116.136 81.5283Z" fill="#1D1D1D"/>
<path d="M141.282 59.5864C141.282 59.5864 141.633 54.9126 144.761 54.789C147.89 54.6662 147.499 58.0146 147.387 58.5766C147.276 59.1394 147.126 60.4345 146.746 60.8633C146.369 61.2913 145.954 61.7331 144.041 61.5896C142.129 61.4452 141.037 60.7587 141.282 59.5864Z" fill="#1D1D1D"/>
<path d="M103.278 57.5265C103.278 57.5265 103.629 52.8518 100.556 52.2622C97.4822 51.6717 97.3664 55.0409 97.3923 55.6141C97.42 56.1873 97.3733 57.4893 97.6828 57.97C97.9941 58.449 98.3373 58.9495 100.25 59.0931C102.162 59.2374 103.344 58.7213 103.278 57.5265Z" fill="#1D1D1D"/>
<path d="M158.464 51.5181C158.451 51.5181 158.439 51.5181 158.426 51.5172L153.008 51.3875C152.17 51.3668 151.505 50.6699 151.526 49.8305C151.545 49.0039 152.222 48.3469 153.044 48.3469H153.081L158.5 48.4774C159.339 48.4982 160.003 49.1941 159.983 50.0345C159.962 50.861 159.286 51.5181 158.464 51.5181Z" fill="#1D1D1D"/>
<path d="M90.1205 44.6099L83.1384 44.3963L90.1205 44.6099Z" fill="#C1B092"/>
<path d="M90.1216 46.1304C90.106 46.1304 90.0905 46.1295 90.074 46.1295L83.091 45.9151C82.2515 45.89 81.5927 45.1889 81.6187 44.3485C81.6438 43.5099 82.3414 42.852 83.1853 42.8762L90.1683 43.0897C91.0069 43.1157 91.6666 43.8168 91.6406 44.6563C91.6164 45.4794 90.9403 46.1304 90.1216 46.1304Z" fill="#1D1D1D"/>
<path d="M93.7861 69.6914C92.9846 69.6914 92.3146 69.0646 92.2697 68.2554C92.223 67.4168 92.8662 66.6992 93.704 66.6525L98.5636 66.3836C99.4005 66.3395 100.118 66.9793 100.166 67.8179C100.212 68.6565 99.57 69.3741 98.7322 69.4208L93.8725 69.6888C93.8423 69.6905 93.8155 69.6914 93.7861 69.6914Z" fill="#1D1D1D"/>
<path d="M99.041 78.5771C99.0272 78.5771 99.0134 78.5763 98.9987 78.5763L94.6802 78.4587C93.8407 78.4362 93.1793 77.7368 93.2018 76.8982C93.2252 76.0587 93.928 75.4051 94.7632 75.4198L99.0817 75.5365C99.9211 75.5598 100.583 76.2584 100.56 77.0979C100.538 77.9227 99.8615 78.5771 99.041 78.5771Z" fill="#1D1D1D"/>
<path d="M96.074 88.0903C95.391 88.0903 94.7694 87.6261 94.5999 86.9318C94.3994 86.1183 94.8974 85.2961 95.71 85.0938C95.7481 85.0843 97.5282 84.6278 99.4155 83.4874C100.134 83.0517 101.069 83.2834 101.503 84.0018C101.937 84.7212 101.707 85.6557 100.989 86.0889C98.6746 87.4869 96.5288 88.0246 96.4389 88.0462C96.317 88.0765 96.1951 88.0903 96.074 88.0903Z" fill="#1D1D1D"/>
<path d="M147.993 70.5684C146.078 70.5684 144.455 70.4931 144.373 70.4897C143.535 70.4499 142.886 69.7384 142.926 68.8998C142.966 68.0611 143.676 67.4162 144.516 67.4525C144.539 67.4525 146.934 67.564 149.26 67.5156C150.097 67.5078 150.793 68.164 150.812 69.0035C150.828 69.843 150.162 70.5381 149.323 70.5545C148.875 70.5649 148.426 70.5684 147.993 70.5684Z" fill="#1D1D1D"/>
<path d="M148.333 79.6089C148.191 79.6089 148.047 79.589 147.906 79.5475C146.885 79.2484 143.559 78.4305 143.526 78.4218C142.711 78.2213 142.212 77.3965 142.413 76.5821C142.614 75.7677 143.437 75.2679 144.253 75.4694C144.392 75.5031 147.677 76.3123 148.759 76.6296C149.565 76.8648 150.026 77.7086 149.791 78.5144C149.597 79.1783 148.991 79.6089 148.333 79.6089Z" fill="#1D1D1D"/>
<path d="M147.047 89.1333C146.81 89.1333 146.57 89.078 146.346 88.9613C144.994 88.2575 142.482 87.1025 142.457 87.0912C141.694 86.7402 141.36 85.8376 141.71 85.0751C142.06 84.3117 142.962 83.9762 143.726 84.3272C143.832 84.3765 146.332 85.5264 147.75 86.2647C148.495 86.6512 148.785 87.5685 148.396 88.3146C148.125 88.8342 147.595 89.1333 147.047 89.1333Z" fill="#1D1D1D"/>
<path d="M136.498 84.9787C136.498 84.9787 133.569 87.4444 124.204 87.5352C113.509 87.639 108.818 84.9787 108.818 84.9787C108.818 84.9787 105.991 95.688 122.746 95.688C139.501 95.688 136.951 86.1018 136.498 84.9787Z" fill="#ED6D6F"/>
<path d="M109.191 86.3373C108.916 88.5938 110.228 90.3333 110.228 90.3333C121.816 94.1451 136.536 89.7065 136.536 89.7065V86.1056C136.536 86.1056 132.289 87.4076 124.073 87.6125C116.378 87.8044 109.191 86.3373 109.191 86.3373Z" fill="white"/>
<path d="M121.085 92.7197C117.439 92.7197 113.573 92.3056 109.971 91.1203C109.535 90.9776 109.298 90.5091 109.441 90.0733C109.584 89.6393 110.054 89.4033 110.488 89.5451C121.684 93.2298 136.153 88.9554 136.298 88.9122C136.736 88.7808 137.199 89.0289 137.331 89.4664C137.463 89.9056 137.214 90.3681 136.776 90.5013C136.353 90.6284 129.28 92.7197 121.085 92.7197Z" fill="#1D1D1D"/>
<path d="M110.021 86.9844C110.064 88.0132 110.346 89.3732 111.323 90.6259C113.2 93.0328 117.15 94.3055 122.746 94.3055C128.83 94.3055 132.938 92.9818 134.628 90.4755C135.417 89.3049 135.56 88.0469 135.507 87.0873C133.61 87.8913 130.113 88.8605 124.22 88.9167C116.974 88.9832 112.373 87.8187 110.021 86.9844ZM122.746 97.0703C116.144 97.0703 111.557 95.4596 109.11 92.2833C106.423 88.7948 107.437 84.7945 107.482 84.625C107.591 84.2109 107.886 83.8703 108.282 83.7043C108.678 83.5391 109.128 83.5651 109.5 83.776C109.538 83.7959 114.096 86.2469 124.193 86.1527C132.819 86.0688 135.582 83.942 135.609 83.9213C135.947 83.636 136.402 83.5305 136.832 83.6368C137.262 83.744 137.614 84.0501 137.779 84.4599C138.329 85.8198 138.857 89.151 136.919 92.0204C134.66 95.3715 129.89 97.0703 122.746 97.0703Z" fill="#1D1D1D"/>
<path d="M102.219 50.0479C101.811 50.0479 101.403 49.8991 101.083 49.5974C101.028 49.5473 99.3265 48.0412 95.9478 47.5078C95.0435 47.3643 94.4253 46.5153 94.568 45.6101C94.7115 44.7058 95.5614 44.0867 96.4666 44.2311C100.903 44.9323 103.129 46.9631 103.367 47.1922C104.029 47.8259 104.051 48.8764 103.418 49.5369C103.092 49.8775 102.657 50.0479 102.219 50.0479Z" fill="#1D1D1D"/>
<path d="M142.615 52.4536C142.137 52.4536 141.661 52.2461 141.333 51.8467C140.75 51.1395 140.858 50.0882 141.566 49.5055C141.808 49.3049 144.052 47.549 148.04 47.4703C148.951 47.4591 149.714 48.181 149.731 49.0957C149.75 50.0121 149.022 50.7695 148.107 50.7867C145.263 50.8438 143.723 52.0274 143.66 52.0775C143.353 52.3308 142.983 52.4536 142.615 52.4536Z" fill="#1D1D1D"/>
<path d="M78.0102 108.946C78.0102 108.946 80.7362 117.245 74.2373 119.187C65.494 121.8 65.2329 113.579 65.2329 113.579C65.2329 113.579 69.9897 103.764 78.0102 108.946Z" fill="#C1B092"/>
<path d="M66.6405 113.876C66.7659 115.02 67.4446 118.318 71.0973 118.318C71.9083 118.318 72.8308 118.165 73.8406 117.862C75.1279 117.479 76.0184 116.785 76.5613 115.746C77.6161 113.727 77.0913 110.93 76.8216 109.839C75.6518 109.161 74.5106 108.817 73.4247 108.817C69.7573 108.817 67.2829 112.734 66.6405 113.876ZM71.0973 121.082C65.5529 121.082 63.9319 116.202 63.8497 113.623C63.8428 113.399 63.8904 113.177 63.9889 112.976C64.1255 112.693 67.4134 106.053 73.4247 106.053C75.1867 106.053 76.9815 106.636 78.7599 107.786C79.0253 107.957 79.2242 108.215 79.3219 108.515C79.3876 108.713 80.8971 113.416 79.0115 117.026C78.1167 118.737 76.6435 119.91 74.6325 120.511C73.3651 120.89 72.1754 121.082 71.0973 121.082Z" fill="#1D1D1D"/>
<path d="M78.7733 132.304C77.8577 132.304 77.1151 131.562 77.1151 130.645V114.682C77.1151 113.768 76.3707 113.023 75.456 113.023H62.5343C61.6187 113.023 60.8744 113.768 60.8744 114.682V130.645C60.8744 131.562 60.1317 132.304 59.2161 132.304C58.3006 132.304 57.5579 131.562 57.5579 130.645V114.682C57.5579 111.938 59.7902 109.706 62.5343 109.706H75.456C78.1992 109.706 80.4315 111.938 80.4315 114.682V130.645C80.4315 131.562 79.6897 132.304 78.7733 132.304Z" fill="#E6E5E5"/>
<path d="M62.5342 112.195H75.4558C76.827 112.195 77.944 113.31 77.944 114.682V130.646C77.944 131.103 78.3158 131.476 78.7731 131.476C79.2305 131.476 79.6031 131.103 79.6031 130.646V114.682C79.6031 112.396 77.7426 110.535 75.4558 110.535H62.5342C60.2465 110.535 58.3869 112.396 58.3869 114.682V130.646C58.3869 131.103 58.7586 131.476 59.216 131.476C59.6733 131.476 60.046 131.103 60.046 130.646V114.682C60.046 113.31 61.1621 112.195 62.5342 112.195ZM78.7731 133.134C77.4011 133.134 76.2849 132.019 76.2849 130.646V114.682C76.2849 114.225 75.914 113.853 75.4558 113.853H62.5342C62.0768 113.853 61.7042 114.225 61.7042 114.682V130.646C61.7042 132.019 60.588 133.134 59.216 133.134C57.8439 133.134 56.7287 132.019 56.7287 130.646V114.682C56.7287 111.482 59.3318 108.877 62.5342 108.877H75.4558C78.6573 108.877 81.2605 111.482 81.2605 114.682V130.646C81.2605 132.019 80.1452 133.134 78.7731 133.134Z" fill="#1D1D1D"/>
<path d="M75.4561 108.048H62.5344C58.8747 108.048 55.8998 111.024 55.8998 114.682V115.857C55.8998 116.773 56.6407 117.516 57.558 117.516H60.8745C61.7909 117.516 62.5344 116.773 62.5344 115.857V114.682H75.4561V115.857C75.4561 116.773 76.1979 117.516 77.1152 117.516H80.4316C81.348 117.516 82.0907 116.773 82.0907 115.857V114.682C82.0907 111.024 79.114 108.048 75.4561 108.048Z" fill="#4E4E4E"/>
<path d="M62.5344 113.853H75.456C75.9142 113.853 76.2851 114.224 76.2851 114.682V115.857C76.2851 116.315 76.6578 116.686 77.1151 116.686H80.4315C80.8889 116.686 81.2607 116.315 81.2607 115.857V114.682C81.2607 111.482 78.6575 108.877 75.456 108.877H62.5344C59.332 108.877 56.7288 111.482 56.7288 114.682V115.857C56.7288 116.315 57.1015 116.686 57.558 116.686H60.8744C61.3318 116.686 61.7044 116.315 61.7044 115.857V114.682C61.7044 114.224 62.0761 113.853 62.5344 113.853ZM80.4315 118.345H77.1151C75.7431 118.345 74.6269 117.229 74.6269 115.857V115.512H63.3626V115.857C63.3626 117.229 62.2465 118.345 60.8744 118.345H57.558C56.1859 118.345 55.0698 117.229 55.0698 115.857V114.682C55.0698 110.566 58.4182 107.219 62.5344 107.219H75.456C79.5722 107.219 82.9197 110.566 82.9197 114.682V115.857C82.9197 117.229 81.8036 118.345 80.4315 118.345Z" fill="#1D1D1D"/>
<path d="M70.8834 108.876C70.8834 108.876 67.924 104.099 63.679 105.245C59.4349 106.392 59.3321 109.204 60.6064 112.747C61.7848 116.019 65.7453 114.972 67.2479 113.693C68.7514 112.413 70.8834 108.876 70.8834 108.876Z" fill="#D9B579"/>
<path d="M64.9978 106.174C64.6563 106.174 64.3105 106.22 63.9681 106.313C62.5719 106.69 61.6969 107.249 61.2923 108.025C60.8039 108.962 60.9171 110.343 61.6477 112.372C61.9978 113.347 62.6903 113.822 63.7615 113.822C64.8318 113.822 65.9653 113.333 66.5307 112.852C67.4609 112.06 68.7993 110.102 69.554 108.92C68.8243 107.988 67.1298 106.174 64.9978 106.174ZM63.7615 116.032C61.7618 116.032 60.2315 114.972 59.5667 113.12C58.9649 111.453 58.288 109.003 59.3315 107.002C60.0275 105.667 61.3935 104.717 63.3915 104.177C63.9214 104.034 64.4627 103.962 64.9978 103.962C69.0924 103.962 71.7137 108.118 71.8235 108.294C72.0414 108.647 72.0431 109.092 71.8295 109.448C71.6022 109.826 69.5592 113.177 67.9658 114.535C67.0892 115.28 65.45 116.032 63.7615 116.032Z" fill="#1D1D1D"/>
<path d="M77.622 108.048C77.622 108.048 76.3373 104.017 71.7127 104.147C67.0874 104.277 66.2012 107.446 66.5098 111.825C66.7951 115.87 71.1041 115.775 72.9854 114.736C74.8649 113.697 77.622 108.048 77.622 108.048Z" fill="#D9B579"/>
<path d="M71.9295 105.25C71.8673 105.25 71.805 105.251 71.7419 105.252C70.2912 105.294 69.271 105.661 68.6226 106.377C67.7433 107.347 67.4226 109.053 67.6119 111.748C67.7572 113.805 69.2183 114.238 70.42 114.238C71.1471 114.238 71.9243 114.058 72.4491 113.769C73.4624 113.207 75.2901 110.203 76.4079 108.005C76.0025 107.167 74.7636 105.25 71.9295 105.25ZM70.4209 116.449C67.5246 116.449 65.6036 114.706 65.4056 111.903C65.2586 109.804 65.2612 106.793 66.9834 104.892C68.0433 103.722 69.6238 103.1 71.6797 103.042C76.0146 102.916 78.1483 106.063 78.6748 107.712C78.7604 107.983 78.7405 108.277 78.6152 108.533C78.1293 109.528 75.5987 114.554 73.5186 115.704C72.6618 116.178 71.5327 116.449 70.4209 116.449Z" fill="#1D1D1D"/>
<path d="M87.4407 173.003C87.4407 174.407 86.7629 176.066 86.2329 176.193C85.6208 176.338 84.8323 176.199 83.8536 176.199C82.6415 176.199 81.6594 174.768 81.6594 173.003C81.6594 171.237 82.6415 169.806 83.8536 169.806C84.8142 169.806 85.9917 169.752 86.6142 169.82C87.8609 169.959 87.4407 171.614 87.4407 173.003Z" fill="#4E4E4E"/>
<path d="M85.6737 170.476C85.3936 170.476 85.0901 170.482 84.7858 170.487C84.4694 170.492 84.1512 170.496 83.8538 170.496C83.0532 170.496 82.3503 171.668 82.3503 173.003C82.3503 174.338 83.0532 175.507 83.8538 175.507C84.2169 175.507 84.5558 175.526 84.855 175.542C85.3322 175.569 85.7498 175.582 86.0074 175.534C86.2495 175.295 86.7492 174.163 86.7492 173.003C86.7492 172.697 86.7682 172.39 86.7855 172.091C86.8573 170.878 86.8054 170.537 86.5391 170.508C86.3506 170.488 86.0671 170.476 85.6737 170.476ZM85.5397 176.95C85.2976 176.95 85.046 176.936 84.7806 176.923C84.4858 176.906 84.1797 176.89 83.8538 176.89C82.2353 176.89 80.9688 175.182 80.9688 173.003C80.9688 170.821 82.2353 169.115 83.8538 169.115C84.1434 169.115 84.4538 169.11 84.7624 169.104C85.0763 169.099 85.3867 169.094 85.6737 169.094C86.1241 169.094 86.4483 169.107 86.6913 169.134C88.3357 169.315 88.2336 171.035 88.1653 172.174C88.1481 172.452 88.1325 172.738 88.1325 173.003C88.1325 174.408 87.4547 176.611 86.3939 176.865C86.1492 176.923 85.8769 176.95 85.5397 176.95Z" fill="#1D1D1D"/>
<path d="M88.8083 173.003C88.8083 174.768 87.7933 176.199 86.5406 176.199C85.2878 176.199 84.272 174.768 84.272 173.003C84.272 171.238 85.2878 169.806 86.5406 169.806C87.7933 169.806 88.8083 171.238 88.8083 173.003Z" fill="#4E4E4E"/>
<path d="M86.5412 170.497C85.6862 170.497 84.9643 171.644 84.9643 173.002C84.9643 174.36 85.6862 175.508 86.5412 175.508C87.3954 175.508 88.1182 174.36 88.1182 173.002C88.1182 171.644 87.3954 170.497 86.5412 170.497ZM86.5412 176.89C84.8821 176.89 83.5818 175.183 83.5818 173.002C83.5818 170.822 84.8821 169.114 86.5412 169.114C88.2003 169.114 89.4997 170.822 89.4997 173.002C89.4997 175.183 88.2003 176.89 86.5412 176.89Z" fill="#1D1D1D"/>
<path d="M87.6568 173.003C87.6568 173.842 87.2988 174.522 86.8553 174.522C86.4144 174.522 86.0547 173.842 86.0547 173.003C86.0547 172.163 86.4144 171.484 86.8553 171.484C87.2988 171.484 87.6568 172.163 87.6568 173.003Z" fill="#1D1D1D"/>
<path d="M77.2451 174.175C77.2451 175.944 76.3917 178.036 75.7234 178.194C74.9523 178.378 73.9606 178.202 72.726 178.202C71.2001 178.202 69.962 176.399 69.962 174.175C69.962 171.951 71.2001 170.148 72.726 170.148C73.9373 170.148 75.4208 170.081 76.2059 170.167C77.7759 170.339 77.2451 172.425 77.2451 174.175Z" fill="#4E4E4E"/>
<path d="M75.0189 170.814C74.6644 170.814 74.2805 170.821 73.8958 170.827C73.499 170.832 73.0996 170.839 72.7261 170.839C71.6021 170.839 70.652 172.367 70.652 174.175C70.652 175.983 71.6021 177.511 72.7261 177.511C73.1791 177.511 73.6027 177.534 73.978 177.555C74.2909 177.572 74.5875 177.588 74.8512 177.588C75.1304 177.588 75.3457 177.569 75.5246 177.532C75.8359 177.296 76.5526 175.776 76.5526 174.175C76.5526 173.796 76.5768 173.412 76.5993 173.038C76.7004 171.336 76.6079 170.907 76.1281 170.854C75.8843 170.828 75.5212 170.814 75.0189 170.814ZM74.8512 178.971C74.5494 178.971 74.2365 178.953 73.9027 178.935C73.5284 178.915 73.1419 178.894 72.7261 178.894C70.7886 178.894 69.2713 176.821 69.2713 174.175C69.2713 171.529 70.7886 169.457 72.7261 169.457C73.0926 169.457 73.4852 169.45 73.8742 169.444C74.2667 169.438 74.6566 169.432 75.0189 169.432C75.58 169.432 75.9811 169.448 76.2803 169.48C78.1823 169.691 78.0638 171.672 77.9791 173.12C77.9575 173.473 77.9359 173.838 77.9359 174.175C77.9359 175.848 77.1172 178.572 75.8843 178.866C75.5895 178.937 75.261 178.971 74.8512 178.971Z" fill="#1D1D1D"/>
<path d="M78.969 174.175C78.969 176.399 77.6903 178.202 76.1116 178.202C74.5338 178.202 73.2543 176.399 73.2543 174.175C73.2543 171.951 74.5338 170.148 76.1116 170.148C77.6903 170.148 78.969 171.951 78.969 174.175Z" fill="#4E4E4E"/>
<path d="M76.1122 170.839C74.9382 170.839 73.9456 172.367 73.9456 174.174C73.9456 175.983 74.9382 177.512 76.1122 177.512C77.2863 177.512 78.2788 175.983 78.2788 174.174C78.2788 172.367 77.2863 170.839 76.1122 170.839ZM76.1122 178.893C74.122 178.893 72.5641 176.821 72.5641 174.174C72.5641 171.53 74.122 169.456 76.1122 169.456C78.1024 169.456 79.6604 171.53 79.6604 174.174C79.6604 176.821 78.1024 178.893 76.1122 178.893Z" fill="#1D1D1D"/>
<path d="M77.5187 174.175C77.5187 175.232 77.0665 176.089 76.5097 176.089C75.9521 176.089 75.4999 175.232 75.4999 174.175C75.4999 173.118 75.9521 172.261 76.5097 172.261C77.0665 172.261 77.5187 173.118 77.5187 174.175Z" fill="#1D1D1D"/>
<path d="M65.6998 172.785C65.6998 174.095 65.0686 175.641 64.5741 175.759C64.0026 175.897 63.2686 175.765 62.3557 175.765C61.2257 175.765 60.3101 174.43 60.3101 172.785C60.3101 171.139 61.2257 169.805 62.3557 169.805C63.2522 169.805 64.3493 169.754 64.9303 169.819C66.0923 169.947 65.6998 171.489 65.6998 172.785Z" fill="#4E4E4E"/>
<path d="M64.0532 170.477C63.7922 170.477 63.5103 170.481 63.225 170.486C62.9302 170.491 62.6336 170.496 62.3553 170.496C61.7146 170.496 61.0014 171.436 61.0014 172.785C61.0014 174.134 61.7146 175.074 62.3553 175.074C62.6959 175.074 63.0123 175.092 63.2916 175.106C63.7126 175.13 64.1008 175.144 64.3403 175.103C64.5616 174.864 65.0086 173.829 65.0086 172.785C65.0086 172.5 65.0259 172.212 65.0432 171.934C65.108 170.849 65.0648 170.529 64.8547 170.505C64.6809 170.486 64.4181 170.477 64.0532 170.477ZM63.9279 176.512C63.7005 176.512 63.4654 176.5 63.2172 176.486C62.9423 176.472 62.6596 176.456 62.3553 176.456C60.8207 176.456 59.6189 174.844 59.6189 172.785C59.6189 170.727 60.8207 169.114 62.3553 169.114C62.6267 169.114 62.9164 169.109 63.2034 169.104C63.4947 169.099 63.7844 169.094 64.0532 169.094C64.4752 169.094 64.7777 169.106 65.0069 169.132C66.5838 169.306 66.4861 170.937 66.423 172.015C66.4074 172.273 66.391 172.541 66.391 172.785C66.391 174.142 65.7607 176.186 64.7345 176.432C64.5028 176.486 64.2469 176.512 63.9279 176.512Z" fill="#1D1D1D"/>
<path d="M66.9754 172.785C66.9754 174.43 66.0296 175.765 64.8616 175.765C63.6935 175.765 62.746 174.43 62.746 172.785C62.746 171.139 63.6935 169.805 64.8616 169.805C66.0296 169.805 66.9754 171.139 66.9754 172.785Z" fill="#4E4E4E"/>
<path d="M64.8608 170.496C64.0879 170.496 63.4378 171.544 63.4378 172.785C63.4378 174.026 64.0879 175.074 64.8608 175.074C65.6329 175.074 66.2839 174.026 66.2839 172.785C66.2839 171.544 65.6329 170.496 64.8608 170.496ZM64.8608 176.457C63.2873 176.457 62.0553 174.843 62.0553 172.785C62.0553 170.727 63.2873 169.114 64.8608 169.114C66.4334 169.114 67.6663 170.727 67.6663 172.785C67.6663 174.843 66.4334 176.457 64.8608 176.457Z" fill="#1D1D1D"/>
<path d="M65.9012 172.785C65.9012 173.567 65.5675 174.201 65.1551 174.201C64.7427 174.201 64.4081 173.567 64.4081 172.785C64.4081 172.003 64.7427 171.369 65.1551 171.369C65.5675 171.369 65.9012 172.003 65.9012 172.785Z" fill="#1D1D1D"/>
<path d="M57.0452 173.677C57.0452 175.446 56.1919 177.537 55.5236 177.696C54.7516 177.88 53.7599 177.704 52.5253 177.704C50.9985 177.704 49.7613 175.901 49.7613 173.677C49.7613 171.453 50.9985 169.649 52.5253 169.649C53.7366 169.649 55.2193 169.583 56.0043 169.668C57.5743 169.841 57.0452 171.926 57.0452 173.677Z" fill="#4E4E4E"/>
<path d="M54.8182 170.315C54.4646 170.315 54.0808 170.321 53.696 170.328C53.2992 170.333 52.8998 170.34 52.5263 170.34C51.4024 170.34 50.4531 171.868 50.4531 173.677C50.4531 175.485 51.4024 177.013 52.5263 177.013C52.9793 177.013 53.4038 177.036 53.7782 177.056C54.0911 177.072 54.3877 177.088 54.6505 177.088C54.9306 177.088 55.1459 177.07 55.324 177.033C55.6361 176.798 56.3537 175.277 56.3537 173.677C56.3537 173.298 56.377 172.912 56.3995 172.539C56.5007 170.838 56.4081 170.408 55.9292 170.355C55.6845 170.328 55.3214 170.315 54.8182 170.315ZM54.6505 178.471C54.3496 178.471 54.0358 178.454 53.7038 178.436C53.3286 178.416 52.9421 178.395 52.5263 178.395C50.5879 178.395 49.0706 176.322 49.0706 173.677C49.0706 171.031 50.5879 168.958 52.5263 168.958C52.892 168.958 53.2845 168.952 53.6744 168.946C54.0678 168.939 54.4577 168.933 54.8182 168.933C55.3793 168.933 55.7805 168.948 56.0805 168.981C57.9825 169.191 57.8641 171.174 57.7785 172.622C57.7577 172.975 57.7361 173.339 57.7361 173.677C57.7361 175.35 56.9182 178.074 55.6836 178.368C55.3897 178.439 55.0612 178.471 54.6505 178.471Z" fill="#1D1D1D"/>
<path d="M58.7685 173.677C58.7685 175.901 57.4898 177.704 55.9103 177.704C54.3325 177.704 53.0538 175.901 53.0538 173.677C53.0538 171.453 54.3325 169.65 55.9103 169.65C57.4898 169.65 58.7685 171.453 58.7685 173.677Z" fill="#4E4E4E"/>
<path d="M55.9105 170.34C54.7373 170.34 53.7448 171.868 53.7448 173.676C53.7448 175.485 54.7373 177.013 55.9105 177.013C57.0854 177.013 58.0779 175.485 58.0779 173.676C58.0779 171.868 57.0854 170.34 55.9105 170.34ZM55.9105 178.395C53.9211 178.395 52.3623 176.323 52.3623 173.676C52.3623 171.032 53.9211 168.958 55.9105 168.958C57.9007 168.958 59.4595 171.032 59.4595 173.676C59.4595 176.323 57.9007 178.395 55.9105 178.395Z" fill="#1D1D1D"/>
<path d="M57.3173 173.677C57.3173 174.733 56.8668 175.59 56.3092 175.59C55.7507 175.59 55.3003 174.733 55.3003 173.677C55.3003 172.62 55.7507 171.763 56.3092 171.763C56.8668 171.763 57.3173 172.62 57.3173 173.677Z" fill="#1D1D1D"/>
<path d="M89.7848 166.327C89.7848 168.159 88.2995 169.644 86.4675 169.644H49.9339C48.101 169.644 46.6157 168.159 46.6157 166.327V124.363C46.6157 122.531 48.101 121.046 49.9339 121.046H86.4675C88.2995 121.046 89.7848 122.531 89.7848 124.363V166.327Z" fill="#BDCAD0"/>
<path d="M72.2048 170.506C69.7918 170.506 67.92 167.895 67.92 165.648V125.042C67.92 122.77 69.7918 120.129 72.2048 120.129C72.7382 120.129 73.1722 120.562 73.1722 121.096C73.1722 121.63 72.7382 122.063 72.2048 122.063C70.9953 122.063 69.8549 123.741 69.8549 125.042V165.648C69.8549 166.936 70.9624 168.986 72.2048 168.986C72.7382 168.986 73.1722 169.005 73.1722 169.539C73.1722 170.073 72.7382 170.506 72.2048 170.506Z" fill="#97AFB5"/>
<path d="M77.0017 170.506C74.5888 170.506 72.717 167.895 72.717 165.648V125.042C72.717 122.77 74.5888 120.129 77.0017 120.129C77.536 120.129 77.9692 120.562 77.9692 121.096C77.9692 121.63 77.536 122.063 77.0017 122.063C75.7922 122.063 74.6519 123.741 74.6519 125.042V165.648C74.6519 166.936 75.7585 168.986 77.0017 168.986C77.536 168.986 77.9692 169.005 77.9692 169.539C77.9692 170.073 77.536 170.506 77.0017 170.506Z" fill="#97AFB5"/>
<path d="M67.4743 170.506C65.0614 170.506 63.1904 167.895 63.1904 165.648V125.042C63.1904 122.77 65.0614 120.129 67.4743 120.129C68.0086 120.129 68.4418 120.562 68.4418 121.096C68.4418 121.63 68.0086 122.063 67.4743 122.063C66.2648 122.063 65.1245 123.741 65.1245 125.042V165.648C65.1245 166.936 66.232 168.986 67.4743 168.986C68.0086 168.986 68.4418 169.005 68.4418 169.539C68.4418 170.073 68.0086 170.506 67.4743 170.506Z" fill="#97AFB5"/>
<path d="M62.7445 170.506C60.3316 170.506 58.4598 167.895 58.4598 165.648V125.042C58.4598 122.77 60.3316 120.129 62.7445 120.129C63.278 120.129 63.712 120.562 63.712 121.096C63.712 121.63 63.278 122.063 62.7445 122.063C61.535 122.063 60.3938 123.741 60.3938 125.042V165.648C60.3938 166.936 61.5013 168.986 62.7445 168.986C63.278 168.986 63.712 169.005 63.712 169.539C63.712 170.073 63.278 170.506 62.7445 170.506Z" fill="#97AFB5"/>
<path d="M58.0141 170.506C55.602 170.506 53.7302 167.895 53.7302 165.648V125.042C53.7302 122.77 55.602 120.129 58.0141 120.129C58.5484 120.129 58.9815 120.562 58.9815 121.096C58.9815 121.63 58.5484 122.063 58.0141 122.063C56.8046 122.063 55.6642 123.741 55.6642 125.042V165.648C55.6642 166.936 56.7708 168.986 58.0141 168.986C58.5484 168.986 58.9815 169.005 58.9815 169.539C58.9815 170.073 58.5484 170.506 58.0141 170.506Z" fill="#97AFB5"/>
<path d="M53.2839 170.506C50.8709 170.506 48.9991 167.895 48.9991 165.648V125.042C48.9991 122.77 50.8709 120.129 53.2839 120.129C53.8173 120.129 54.2513 120.562 54.2513 121.096C54.2513 121.63 53.8173 122.063 53.2839 122.063C52.0735 122.063 50.934 123.741 50.934 125.042V165.648C50.934 166.936 52.0406 168.986 53.2839 168.986C53.8173 168.986 54.2513 169.005 54.2513 169.539C54.2513 170.073 53.8173 170.506 53.2839 170.506Z" fill="#97AFB5"/>
<path d="M81.1424 170.197C80.8372 170.197 80.5899 169.95 80.5899 169.644C80.5899 169.339 80.8372 169.091 81.1424 169.091C82.6675 169.091 83.9072 167.851 83.9072 166.327V124.363C83.9072 122.839 82.6675 121.599 81.1424 121.599C80.8372 121.599 80.5899 121.351 80.5899 121.046C80.5899 120.741 80.8372 120.493 81.1424 120.493C83.277 120.493 85.013 122.229 85.013 124.363V166.327C85.013 168.461 83.277 170.197 81.1424 170.197Z" fill="#1D1D1D"/>
<path d="M88.3975 152.136C88.3975 152.94 87.584 153.592 86.5785 153.592C85.5747 153.592 84.7595 152.94 84.7595 152.136V138.554C84.7595 137.75 85.5747 137.098 86.5785 137.098C87.584 137.098 88.3975 137.75 88.3975 138.554V152.136Z" fill="#4E4E4E"/>
<path d="M86.5788 137.927C85.9952 137.927 85.5889 138.258 85.5889 138.555V152.137C85.5889 152.432 85.9952 152.763 86.5788 152.763C87.1615 152.763 87.5687 152.432 87.5687 152.137V138.555C87.5687 138.258 87.1615 137.927 86.5788 137.927ZM86.5788 154.421C85.1186 154.421 83.9307 153.396 83.9307 152.137V138.555C83.9307 137.295 85.1186 136.269 86.5788 136.269C88.0382 136.269 89.227 137.295 89.227 138.555V152.137C89.227 153.396 88.0382 154.421 86.5788 154.421Z" fill="#1D1D1D"/>
<path d="M49.9334 122.428C48.8656 122.428 47.9985 123.296 47.9985 124.363V166.327C47.9985 167.393 48.8656 168.262 49.9334 168.262H86.467C87.5347 168.262 88.4018 167.393 88.4018 166.327V124.363C88.4018 123.296 87.5347 122.428 86.467 122.428H49.9334ZM86.467 171.026H49.9334C47.3414 171.026 45.2336 168.918 45.2336 166.327V124.363C45.2336 121.771 47.3414 119.664 49.9334 119.664H86.467C89.058 119.664 91.1667 121.771 91.1667 124.363V166.327C91.1667 168.918 89.058 171.026 86.467 171.026Z" fill="#1D1D1D"/>
<path d="M74.831 170.473C74.3728 170.473 74.001 170.102 74.001 169.644C74.001 169.186 74.3728 168.814 74.831 168.814C76.2022 168.814 77.3192 167.699 77.3192 166.327V163.195C77.3192 162.737 77.6901 162.366 78.1475 162.366C78.6057 162.366 78.9766 162.737 78.9766 163.195V166.327C78.9766 168.614 77.1169 170.473 74.831 170.473Z" fill="#1D1D1D"/>
<path d="M78.1475 161.64C77.6901 161.64 77.3192 161.268 77.3192 160.811V158.633C77.3192 158.175 77.6901 157.804 78.1475 157.804C78.6057 157.804 78.9766 158.175 78.9766 158.633V160.811C78.9766 161.268 78.6057 161.64 78.1475 161.64Z" fill="#1D1D1D"/>
<path d="M78.1475 156.976C77.6901 156.976 77.3192 156.604 77.3192 156.146V124.363C77.3192 122.991 76.2022 121.875 74.831 121.875C74.3728 121.875 74.001 121.505 74.001 121.045C74.001 120.587 74.3728 120.216 74.831 120.216C77.1169 120.216 78.9766 122.076 78.9766 124.363V156.146C78.9766 156.604 78.6057 156.976 78.1475 156.976Z" fill="#1D1D1D"/>
<path d="M160.589 83.8409C160.589 83.8409 164.544 81.785 169.83 86.3758C172.764 88.9236 170.932 94.6885 168.586 96.4876C166.596 98.0153 161.102 98.6153 158.724 96.0346C156.346 93.4539 153.71 86.4856 160.589 83.8409Z" fill="#D5272A"/>
<path d="M162.961 84.7638C161.87 84.7638 161.214 85.0724 161.208 85.0767L161.084 85.1312C159.187 85.8609 158.045 87.003 157.687 88.5263C157.129 90.9151 158.551 93.8079 159.739 95.0978C160.514 95.9382 161.957 96.4197 163.697 96.4197C165.557 96.4197 167.099 95.8863 167.745 95.3909C168.76 94.6137 169.895 92.4549 169.96 90.3263C169.987 89.4332 169.828 88.2047 168.923 87.4188C166.398 85.2246 164.287 84.7638 162.961 84.7638ZM163.697 99.1846C161.148 99.1846 159.022 98.3978 157.707 96.9713C156.158 95.2897 154.157 91.4848 154.995 87.8969C155.39 86.2076 156.587 83.9174 160.04 82.5712C160.356 82.4251 161.403 81.9998 162.961 81.9998C164.757 81.9998 167.565 82.5782 170.735 85.3318C172.101 86.5171 172.787 88.2739 172.723 90.4093C172.638 93.1673 171.252 96.1837 169.427 97.5843C168.141 98.5716 165.945 99.1846 163.697 99.1846Z" fill="#1D1D1D"/>
<path d="M169.145 91.4971C168.327 92.7032 166.236 94.2948 163.4 94.0415C158.407 93.5945 156.836 89.015 156.836 89.015" fill="#C1B092"/>
<path d="M172.575 59.8904C172.575 59.8904 171.962 56.4538 169.629 55.3005C169.629 55.3005 169.156 57.5768 168.488 57.85C167.82 58.1232 167.487 54.7022 167.487 54.7022C167.487 54.7022 164.775 50.9958 158.549 54.0226C158.549 54.0226 155.419 55.5218 155.678 58.9281C155.938 62.3336 158.041 65.5135 156.642 75.691C155.244 85.8695 149.129 92.7678 146.971 96.7707C144.814 100.773 142.188 106.415 148.318 110.623C154.449 114.83 159.2 110.273 159.633 106.448C160.066 102.619 161.137 95.6174 162.992 92.2905C164.848 88.9629 172.612 67.4138 173.17 66.0218C173.73 64.6299 172.575 59.8904 172.575 59.8904Z" fill="#EDCDAF"/>
<path d="M163.097 53.6625C161.829 53.6625 160.421 54.0351 158.911 54.7683C158.803 54.821 156.294 56.0841 156.506 58.8654C156.571 59.7282 156.77 60.5997 156.999 61.6104C157.634 64.4081 158.505 68.2381 157.464 75.8038C156.361 83.8269 152.339 89.948 149.677 93.9993C148.874 95.22 148.18 96.2748 147.701 97.1636C145.411 101.412 143.416 106.253 148.787 109.939C150.273 110.958 151.734 111.475 153.136 111.475C156.282 111.475 158.531 108.817 158.809 106.353C159.161 103.236 160.204 95.5858 162.268 91.8863C163.695 89.3264 168.936 75.0949 171.174 69.0188C171.838 67.2136 172.277 66.0214 172.402 65.7127C172.685 65.0046 172.295 62.2424 171.769 60.087C171.765 60.0697 171.761 60.0525 171.759 60.036C171.754 60.0118 171.362 57.9282 170.124 56.6781C169.836 57.5599 169.412 58.3666 168.803 58.6164C168.673 58.67 168.54 58.6951 168.401 58.6934C167.963 58.6934 167.08 58.6622 166.689 55.0432C166.323 54.6568 165.177 53.6625 163.097 53.6625ZM153.136 113.133C151.395 113.133 149.615 112.519 147.849 111.307C140.799 106.469 144.475 99.6518 146.242 96.3768C146.756 95.4249 147.466 94.3417 148.29 93.0889C151.025 88.9278 154.769 83.2286 155.821 75.579C156.82 68.3116 155.988 64.651 155.381 61.9778C155.137 60.904 154.927 59.9755 154.852 58.9899C154.553 55.064 158.042 53.3461 158.191 53.2743C159.924 52.4323 161.576 52.0034 163.097 52.0034C166.502 52.0034 168.09 54.1207 168.158 54.2115C168.245 54.3308 168.299 54.4726 168.313 54.6204C168.365 55.1513 168.447 55.7003 168.539 56.1602C168.645 55.8403 168.745 55.4789 168.817 55.1314C168.87 54.8798 169.035 54.6671 169.266 54.5547C169.496 54.4423 169.767 54.4432 169.996 54.5573C172.583 55.8351 173.314 59.3366 173.386 59.717C173.601 60.6023 174.561 64.785 173.941 66.3309C173.826 66.617 173.366 67.8646 172.731 69.5911C170.288 76.2223 165.207 90.0215 163.717 92.6938C161.746 96.2281 160.723 104.186 160.457 106.54C160.098 109.711 157.197 113.133 153.136 113.133Z" fill="#1D1D1D"/>
<path d="M159.376 107.603C159.376 107.603 159.4 102.76 153.745 99.6611C148.089 96.5617 143.908 102.315 144.496 105.84C145.085 109.365 148.474 112.787 153.467 112.295C158.459 111.801 159.12 108.759 159.376 107.603Z" fill="#D4BCA1"/>
<path d="M150.554 99.6051C149.125 99.6051 147.765 100.279 146.73 101.503C145.672 102.752 145.104 104.44 145.314 105.705C145.797 108.591 148.424 111.512 152.515 111.513C152.8 111.513 153.094 111.499 153.385 111.469C157.65 111.048 158.293 108.643 158.545 107.521C158.517 106.909 158.151 103.021 153.347 100.389C152.398 99.8697 151.458 99.6051 150.554 99.6051ZM152.515 113.171C147.503 113.171 144.275 109.552 143.68 105.977C143.388 104.233 144.089 102.055 145.464 100.432C146.821 98.8296 148.628 97.9469 150.554 97.9469C151.74 97.9469 152.949 98.2789 154.143 98.9351C160.164 102.233 160.207 107.39 160.206 107.607C160.206 107.665 160.199 107.725 160.187 107.782C159.922 108.974 159.123 112.57 153.549 113.12C153.202 113.154 152.854 113.171 152.515 113.171Z" fill="#1D1D1D"/>
<path d="M150.933 109.192C150.5 109.192 150.058 109.133 149.624 108.984C148.45 108.583 147.594 107.647 147.08 106.205C145.624 102.119 149.901 99.304 152.365 98.3867C152.792 98.2276 153.272 98.4446 153.432 98.8743C153.591 99.304 153.373 99.7803 152.944 99.9411C152.869 99.9688 147.372 102.085 148.643 105.647C148.984 106.603 149.479 107.182 150.161 107.414C151.379 107.831 152.906 107.066 153.359 106.813C153.659 106.346 154.325 105.026 153.029 104.014C152.694 103.752 152.612 103.281 152.835 102.92L154.265 100.632C154.509 100.242 155.021 100.124 155.408 100.366C155.797 100.609 155.916 101.121 155.673 101.509L154.603 103.221C156.109 104.899 155.309 106.986 154.599 107.933C154.54 108.013 154.467 108.081 154.382 108.135C154.3 108.188 152.704 109.192 150.933 109.192Z" fill="#1D1D1D"/>
<path d="M153.504 108.603C153.193 108.603 152.912 108.392 152.835 108.077C152.742 107.708 152.967 107.333 153.336 107.241C153.452 107.211 156.12 106.489 156.653 103.377C156.716 103.002 157.071 102.749 157.45 102.813C157.827 102.877 158.079 103.235 158.015 103.611C157.327 107.634 153.818 108.545 153.67 108.582C153.615 108.595 153.558 108.603 153.504 108.603Z" fill="#1D1D1D"/>
<path d="M147.682 106.091C147.367 106.091 147.066 105.911 146.927 105.605C145.314 102.061 147.06 99.3728 148.209 98.4478C148.566 98.159 149.088 98.2169 149.375 98.5731C149.661 98.9293 149.607 99.4481 149.253 99.7368C149.148 99.8233 146.968 101.691 148.437 104.92C148.626 105.336 148.441 105.828 148.025 106.017C147.915 106.068 147.797 106.091 147.682 106.091Z" fill="#1D1D1D"/>
<path d="M165.672 76.3022C165.672 76.3022 159.647 75.7965 156.036 79.5314C152.427 83.2688 161.542 84.4005 161.542 84.4005C161.542 84.4005 157.369 84.257 155.857 86.83C154.344 89.4011 158.286 91.355 164.808 89.7513" fill="#D9B579"/>
<path d="M160.429 91.4346C157.888 91.4346 155.912 90.7784 154.982 89.5291C154.273 88.5781 154.245 87.3893 154.904 86.268C155.412 85.4026 156.142 84.7887 156.932 84.353C155.697 83.8204 154.602 83.0657 154.228 82.0083C153.969 81.2743 153.935 80.1167 155.242 78.7636C159.172 74.6976 165.496 75.1774 165.764 75.2008C166.372 75.2518 166.823 75.7861 166.773 76.3947C166.722 77.0034 166.184 77.4564 165.58 77.4037C165.506 77.3993 160.018 77.0042 156.832 80.3008C156.437 80.7097 156.243 81.072 156.313 81.2708C156.609 82.1095 159.378 83.0155 161.678 83.3034C162.265 83.3769 162.69 83.8982 162.644 84.4879C162.597 85.0766 162.102 85.5184 161.503 85.5063C160.531 85.4752 157.771 85.7579 156.81 87.3893C156.517 87.8882 156.677 88.1034 156.755 88.208C157.335 88.987 159.964 89.8032 164.543 88.6775C165.137 88.5314 165.736 88.8936 165.882 89.4859C166.027 90.0798 165.665 90.6781 165.072 90.8242C163.406 91.2349 161.831 91.4346 160.429 91.4346Z" fill="#1D1D1D"/>
<path d="M164.958 90.9818C162.23 88.8584 161.153 82.3198 163.422 77.7541C164.785 75.0108 168.787 77.0555 168.787 77.0555C168.787 77.0555 173.279 79.7771 172.074 85.2005C171.296 88.7046 169.81 90.7864 169.145 91.4971" fill="#C1B092"/>
<path d="M163.681 91.5186C163.681 91.5186 163.649 91.4909 163.586 91.4373C163.554 91.4105 163.515 91.3777 163.469 91.3379L163.433 91.3076C163.415 91.2903 163.398 91.2748 163.378 91.2566C163.342 91.2203 163.303 91.1831 163.26 91.1425C163.081 90.973 162.923 90.7958 162.736 90.5676C162.556 90.3411 162.361 90.073 162.178 89.7635C161.801 89.1462 161.457 88.3655 161.196 87.4578C160.939 86.55 160.761 85.5142 160.718 84.3886C160.672 83.2629 160.747 82.0456 161 80.786C161.126 80.1548 161.294 79.5142 161.514 78.8727C161.621 78.552 161.745 78.2303 161.882 77.9113C161.95 77.7514 162.02 77.5914 162.098 77.4324L162.212 77.1937L162.226 77.1635L162.27 77.0813L162.298 77.0286L162.358 76.9249L162.387 76.873L162.438 76.7917L162.554 76.6188C162.635 76.496 162.715 76.4044 162.796 76.3102C162.873 76.2159 162.963 76.1269 163.056 76.0404C163.146 75.9505 163.246 75.8701 163.348 75.794C163.756 75.4819 164.23 75.2675 164.695 75.1473C165.632 74.9122 166.495 74.9969 167.277 75.156C167.671 75.239 168.047 75.3514 168.416 75.4802C168.599 75.5459 168.781 75.6159 168.963 75.6937L169.24 75.8174L169.312 75.8519L169.352 75.8718L169.378 75.8848L169.483 75.9436L169.634 76.0413C170.307 76.5021 170.869 77.0053 171.403 77.5759C172.452 78.711 173.288 80.122 173.656 81.673C173.843 82.4451 173.921 83.2379 173.887 84.0073C173.873 84.1984 173.864 84.3912 173.844 84.5805C173.819 84.7681 173.798 84.9566 173.767 85.1416L173.714 85.4165L173.687 85.554L173.674 85.6223L173.654 85.7113C173.615 85.8678 173.577 86.0235 173.539 86.1791C173.505 86.326 173.45 86.5093 173.403 86.6771C173.354 86.8482 173.306 87.0194 173.249 87.1785C173.147 87.5027 173.03 87.82 172.91 88.133C172.662 88.7563 172.378 89.352 172.066 89.9122C171.755 90.4707 171.413 90.9929 171.074 91.4684C170.907 91.695 170.745 91.918 170.584 92.1367L170.475 92.2872L170.423 92.3598L170.358 92.4488L170.307 92.5102C170.196 92.6451 170.096 92.7549 169.99 92.8647C169.166 93.7206 168.28 94.3362 167.409 94.7685C166.54 95.199 165.698 95.4298 164.993 95.5241C164.287 95.6252 163.723 95.6053 163.346 95.5725C163.157 95.563 163.014 95.5353 162.917 95.5258C162.82 95.5128 162.769 95.5068 162.769 95.5068C162.112 95.4203 161.648 94.8169 161.734 94.1589C161.82 93.5097 162.407 93.0497 163.055 93.1206L163.128 93.1275C163.128 93.1275 163.162 93.131 163.23 93.1388C163.297 93.1439 163.396 93.163 163.525 93.1664C163.784 93.1863 164.165 93.1932 164.639 93.1189C165.116 93.0488 165.686 92.8837 166.304 92.569C166.916 92.2578 167.587 91.7762 168.17 91.1494C168.241 91.0725 168.314 90.9912 168.369 90.9238C168.43 90.8364 168.494 90.7474 168.558 90.6592C168.709 90.4483 168.865 90.233 169.023 90.0143C169.32 89.5898 169.599 89.154 169.855 88.6872C170.111 88.222 170.341 87.7275 170.544 87.2062C170.643 86.9442 170.74 86.6779 170.825 86.4021C170.872 86.2647 170.907 86.1324 170.945 85.9984C170.982 85.8609 171.021 85.7407 171.058 85.5756C171.095 85.4209 171.132 85.2652 171.169 85.1079C171.193 84.9808 171.217 84.8528 171.241 84.7258C171.264 84.5892 171.275 84.4543 171.295 84.3185C171.307 84.1837 171.31 84.0462 171.322 83.9096C171.342 83.3658 171.283 82.8211 171.15 82.2886C170.892 81.2243 170.294 80.2119 169.492 79.3525C169.094 78.928 168.628 78.5252 168.177 78.2226L168.114 78.1819C168.149 78.2018 168.015 78.1257 168.191 78.2243C168.191 78.2243 168.194 78.226 168.189 78.2243L168.171 78.2156L168.13 78.1966L167.941 78.1136C167.811 78.06 167.676 78.009 167.542 77.9615C167.272 77.869 167 77.7903 166.737 77.7375C166.211 77.6286 165.709 77.6165 165.366 77.7125C165.194 77.76 165.066 77.8257 164.958 77.9096C164.931 77.9303 164.902 77.9511 164.88 77.977C164.855 78.0004 164.828 78.0246 164.806 78.0557C164.781 78.0834 164.754 78.1128 164.749 78.1275C164.744 78.1361 164.738 78.143 164.73 78.1508C164.725 78.1586 164.725 78.1499 164.714 78.1707L164.686 78.2226L164.628 78.3272L164.6 78.3799L164.592 78.392C164.602 78.3721 164.558 78.4586 164.614 78.3496L164.603 78.3739L164.514 78.5658C164.453 78.692 164.397 78.8208 164.344 78.9505C164.235 79.2082 164.136 79.4692 164.051 79.7312C163.877 80.2551 163.741 80.7816 163.642 81.3012C163.441 82.3404 163.386 83.3511 163.431 84.2675C163.472 85.1857 163.625 86.0088 163.823 86.6987C164.026 87.386 164.281 87.9367 164.529 88.3353C164.65 88.5393 164.773 88.7001 164.881 88.835C164.988 88.9647 165.095 89.0805 165.149 89.1289C165.164 89.1454 165.178 89.1592 165.191 89.1739L165.211 89.1938C165.223 89.2042 165.236 89.2145 165.247 89.2249C165.294 89.2647 165.333 89.2967 165.365 89.3226C165.429 89.3753 165.461 89.4039 165.461 89.4039C166.047 89.8923 166.126 90.7638 165.637 91.35C165.148 91.9353 164.276 92.014 163.691 91.5255L163.681 91.5186Z" fill="#1D1D1D"/>
</g>
<defs>
<clipPath id="clip0_777_8908">
<rect width="200" height="200" fill="white"/>
</clipPath>
</defs>
</svg>
