<svg width="200" height="200" viewBox="0 0 200 200" fill="none" xmlns="http://www.w3.org/2000/svg">
<path d="M96.9287 112.647L95.1569 154.254H140.412L131.496 105.469L96.9287 112.647Z" fill="#C1B092"/>
<path d="M96.6017 152.869H138.751L130.388 107.114L98.2663 113.784L96.6017 152.869ZM140.411 155.638H95.1574C94.7799 155.638 94.4191 155.485 94.1572 155.211C93.8961 154.939 93.7572 154.573 93.7739 154.195L95.5449 112.588C95.5731 111.954 96.0271 111.419 96.6474 111.291L131.215 104.114C131.58 104.038 131.96 104.113 132.268 104.321C132.579 104.529 132.79 104.854 132.858 105.219L141.773 154.005C141.847 154.409 141.738 154.825 141.475 155.14C141.212 155.456 140.823 155.638 140.411 155.638Z" fill="#1D1D1D"/>
<path d="M95.1569 110.051C95.1569 110.051 88.4902 112.226 85.3822 136.389C85.3822 136.389 84.219 147.154 84.219 154.254H100.251L102.027 121.262L95.1569 110.051Z" fill="#D5272A"/>
<path d="M85.6181 152.869H98.9398L100.621 121.618L94.7468 112.031C92.9691 113.739 88.9681 119.377 86.7572 136.551C86.7132 136.967 85.7454 146.102 85.6181 152.869ZM100.252 155.638H84.2188C83.4547 155.638 82.8352 155.018 82.8352 154.254C82.8352 147.161 83.9577 136.682 84.0059 136.24C84.0076 136.231 84.0076 136.222 84.0084 136.212C87.1397 111.883 93.9594 108.984 94.7276 108.734C95.3363 108.535 96.0023 108.78 96.3374 109.327L103.208 120.538C103.354 120.777 103.425 121.056 103.409 121.336L101.635 154.328C101.596 155.063 100.989 155.638 100.252 155.638Z" fill="#1D1D1D"/>
<path d="M134.446 109.575C134.446 109.575 154.59 116.54 153.278 154.254H121.163C121.163 154.254 116.614 129.659 117.425 122.844C118.237 116.029 134.446 109.575 134.446 109.575Z" fill="#D5272A"/>
<path d="M122.321 152.868H151.933C152.622 120.845 137.286 112.365 134.443 111.07C129.825 112.99 119.364 118.279 118.801 123.008C118.12 128.721 121.449 147.982 122.321 152.868ZM153.279 155.637H121.164C120.498 155.637 119.925 155.162 119.803 154.505C119.615 153.492 115.224 129.624 116.051 122.679C116.935 115.261 132.197 108.98 133.935 108.288C134.242 108.165 134.586 108.158 134.898 108.265C135.121 108.343 140.391 110.223 145.46 116.938C150.04 123.006 155.354 134.415 154.663 154.301C154.637 155.047 154.026 155.637 153.279 155.637Z" fill="#1D1D1D"/>
<path d="M132.2 107.588C132.2 107.588 149.239 107.046 157.168 129.861C157.168 129.861 165.101 150.789 153.023 153.303C140.946 155.819 132.911 155.269 130.129 152.497C126.259 148.644 125.598 129.25 136.797 130.623C136.797 130.623 129.421 109.069 132.2 107.588Z" fill="white"/>
<path d="M135.693 131.94C133.168 131.94 131.298 133.367 130.136 136.181C127.967 141.432 129.159 149.579 131.105 151.517C131.861 152.269 133.972 153.531 139.62 153.531C143.285 153.531 147.699 152.999 152.742 151.949C154.765 151.527 156.196 150.506 157.118 148.827C160.483 142.689 155.919 130.475 155.873 130.353C155.869 130.34 155.863 130.329 155.861 130.316C152.807 121.531 148.061 115.29 141.755 111.765C137.859 109.588 134.429 109.106 132.985 109.001C132.874 109.891 132.94 112.581 135.025 120.152C136.444 125.306 138.09 130.128 138.107 130.176C138.261 130.628 138.173 131.126 137.873 131.497C137.572 131.867 137.099 132.055 136.629 131.999C136.308 131.96 135.994 131.94 135.693 131.94ZM139.62 156.301C134.554 156.301 131.032 155.351 129.151 153.479C126.291 150.63 124.977 141.418 127.576 135.124C129.041 131.578 131.611 129.504 134.869 129.208C134.193 127.133 133.08 123.6 132.119 120.021C129.39 109.853 129.877 107.257 131.549 106.366C131.734 106.268 131.946 106.212 132.156 106.204C132.156 106.204 132.207 106.202 132.304 106.202C134.156 106.202 150.63 106.852 158.47 129.391C158.761 130.164 163.481 142.981 159.545 150.158C158.229 152.557 156.132 154.072 153.306 154.659C148.078 155.749 143.473 156.301 139.62 156.301Z" fill="#1D1D1D"/>
<path d="M136.797 130.624C136.797 130.624 139.951 130.93 142.136 132.134L136.797 130.624Z" fill="white"/>
<path d="M142.135 133.519C141.909 133.519 141.68 133.464 141.468 133.347C139.881 132.472 137.462 132.081 136.664 132.002C135.903 131.928 135.345 131.251 135.419 130.491C135.493 129.729 136.168 129.173 136.93 129.246C137.071 129.26 140.398 129.595 142.806 130.922C143.473 131.29 143.718 132.133 143.349 132.802C143.097 133.26 142.624 133.519 142.135 133.519Z" fill="#1D1D1D"/>
<path d="M94.6405 109.04C94.6405 109.04 71.7055 111.594 72.8388 131.915C73.9754 152.274 76.7533 151.813 78.8253 151.831C80.899 151.847 85.3822 152.421 85.3822 152.421C85.3822 152.421 89.5312 113.096 94.6405 109.04Z" fill="white"/>
<path d="M91.7136 111.027C89.6241 111.554 86.7414 112.492 83.9278 114.101C77.0499 118.04 73.7847 124.007 74.2221 131.837C74.6985 140.387 75.5258 146.09 76.6807 148.787C77.3883 150.441 77.8498 150.443 78.6895 150.446H78.8384C80.2436 150.458 82.6398 150.706 84.1589 150.88C84.509 147.792 85.4327 140.022 86.7281 132.03C88.6704 120.052 90.3491 114.1 91.7136 111.027ZM85.3828 153.806C85.323 153.806 85.2648 153.802 85.2065 153.795C85.1625 153.79 80.7815 153.232 78.8143 153.215H78.6812C77.1713 153.21 75.4485 152.948 74.134 149.878C72.8352 146.84 71.9589 140.989 71.4575 131.991C70.9619 123.123 74.8257 116.09 82.6307 111.654C88.4044 108.373 94.2421 107.692 94.4873 107.664C95.101 107.598 95.6855 107.943 95.9216 108.514C96.1569 109.084 95.9848 109.742 95.5026 110.125C94.6678 110.787 92.4112 114.288 89.4636 132.463C87.8132 142.645 86.7697 152.469 86.7589 152.566C86.7198 152.937 86.5336 153.276 86.2409 153.508C85.9956 153.702 85.6921 153.806 85.3828 153.806Z" fill="#1D1D1D"/>
<path d="M161.57 164.448H16.9715C12.5414 164.448 10.3264 162.845 10.3264 157.73C10.3264 150.048 17.1561 150.787 17.1561 150.787H161.57H180.4C180.4 150.787 189.078 150.651 189.078 157.607C189.078 164.579 181.323 164.448 181.323 164.448H161.57Z" fill="#E9C07F"/>
<path d="M16.6805 152.152C14.8246 152.152 11.71 152.876 11.71 157.73C11.71 161.767 12.9888 163.063 16.9715 163.063L181.353 163.064C181.429 163.064 183.193 163.055 184.826 162.293C186.755 161.393 187.693 159.861 187.693 157.608C187.693 152.323 181.179 152.17 180.436 152.17H180.4H17.156C17.1062 152.17 17.0554 152.169 17.0072 152.163C17.0072 152.163 16.8833 152.152 16.6805 152.152ZM181.353 165.833L181.3 165.832H16.9715C11.4173 165.832 8.94037 163.334 8.94037 157.73C8.94037 151.576 12.9389 149.383 16.6805 149.383C16.9274 149.383 17.1128 149.394 17.2167 149.402H180.436C184.16 149.402 190.463 151.13 190.463 157.608C190.463 164.1 184.736 165.833 181.353 165.833Z" fill="#1D1D1D"/>
<path d="M138.522 159.22H15.864C15.0999 159.22 14.4788 158.601 14.4788 157.836C14.4788 157.072 15.0999 156.451 15.864 156.451H138.522C139.287 156.451 139.907 157.072 139.907 157.836C139.907 158.601 139.287 159.22 138.522 159.22Z" fill="#D4A568"/>
<path d="M148.88 159.22H143.652C142.887 159.22 142.267 158.601 142.267 157.836C142.267 157.072 142.887 156.451 143.652 156.451H148.88C149.645 156.451 150.265 157.072 150.265 157.836C150.265 158.601 149.645 159.22 148.88 159.22Z" fill="#D4A568"/>
<path d="M180.955 158.992H155.138C154.373 158.992 153.753 158.373 153.753 157.608C153.753 156.843 154.373 156.223 155.138 156.223H180.955C181.719 156.223 182.34 156.843 182.34 157.608C182.34 158.373 181.719 158.992 180.955 158.992Z" fill="#D4A568"/>
<path d="M136.973 55.6991L156.376 53.9489C156.376 53.9489 157.505 59.5912 152.94 64.5517C148.375 69.5122 137.207 71.6133 137.207 71.6133L136.973 55.6991Z" fill="#C1B092"/>
<path d="M138.377 56.9631L138.566 69.8916C141.731 69.1216 148.715 67.0978 151.921 63.614C154.744 60.5459 155.138 57.2051 155.118 55.4524L138.377 56.9631ZM137.207 72.9971C136.89 72.9971 136.58 72.8881 136.33 72.6853C136.015 72.4275 135.828 72.0417 135.822 71.6343L135.588 55.7193C135.578 54.9951 136.128 54.3848 136.849 54.3199L156.252 52.5697C156.958 52.5082 157.594 52.9829 157.733 53.6772C157.786 53.9341 158.944 60.072 153.958 65.489C149.138 70.728 137.937 72.884 137.462 72.9738C137.377 72.9896 137.292 72.9971 137.207 72.9971Z" fill="#1D1D1D"/>
<path d="M134.52 55.9137L126.627 40.9649L122.763 56.3511L134.52 55.9137Z" fill="#D9B579"/>
<path d="M127.09 44.8056L124.554 54.8987L132.268 54.6119L127.09 44.8056ZM122.763 57.7349C122.346 57.7349 121.95 57.547 121.687 57.2227C121.413 56.8834 121.315 56.4353 121.42 56.0129L125.285 40.6275C125.424 40.0704 125.893 39.658 126.462 39.5899C127.028 39.52 127.585 39.8102 127.853 40.3182L135.745 55.2663C135.968 55.6878 135.959 56.1933 135.72 56.6049C135.482 57.0181 135.048 57.2792 134.572 57.2959L122.814 57.734C122.796 57.7349 122.779 57.7349 122.763 57.7349Z" fill="#1D1D1D"/>
<path d="M88.6394 60.7864L80.8752 46.7272L77.8063 63.748L88.6394 60.7864Z" fill="#D9B579"/>
<path d="M81.546 50.8066L79.558 61.8334L86.5772 59.9144L81.546 50.8066ZM77.8061 65.1318C77.4643 65.1318 77.1293 65.0063 76.8707 64.7693C76.5206 64.4484 76.3585 63.9695 76.4433 63.5022L79.5131 46.4821C79.617 45.9043 80.0718 45.4561 80.6505 45.3613C81.2275 45.2665 81.8037 45.5451 82.0873 46.0581L89.8515 60.1156C90.0568 60.4881 90.0809 60.933 89.9147 61.3237C89.75 61.7162 89.4141 62.0097 89.005 62.1211L78.1702 65.0844C78.0505 65.1169 77.9266 65.1318 77.8061 65.1318Z" fill="#1D1D1D"/>
<path d="M77.1792 64.0133L74.4328 64.375L56.8848 68.3053C56.8848 68.3053 57.0553 73.4712 62.0806 76.9292C67.7105 80.803 77.9898 80.0547 77.9898 80.0547L77.1792 64.0133Z" fill="#C1B092"/>
<path d="M58.4368 69.3759C58.7793 70.9024 59.8053 73.6828 62.8651 75.7881C66.7215 78.4405 73.2767 78.7273 75.9166 78.7273C76.1386 78.7273 76.3465 78.7257 76.536 78.7215L75.8717 65.5819L74.6752 65.739L58.4368 69.3759ZM75.9166 81.4961C72.3155 81.4961 65.6289 81.0513 61.2953 78.0696C55.7578 74.259 55.5083 68.591 55.5 68.3515C55.4776 67.6863 55.9324 67.1002 56.5818 66.9546L74.1298 63.0227C74.1714 63.0143 74.2113 63.0069 74.252 63.001L76.9975 62.6402C77.3816 62.5895 77.7683 62.7025 78.0651 62.9495C78.3628 63.1964 78.5424 63.5573 78.5615 63.9439L79.373 79.9837C79.4112 80.7353 78.8408 81.3805 78.0909 81.4346C78.0551 81.4371 77.2261 81.4961 75.9166 81.4961Z" fill="#1D1D1D"/>
<path d="M137.105 55.8898C135.841 55.1273 87.589 56.1592 76.8432 64.2252C75.7997 65.0101 77.6239 78.0075 78.1386 81.8164C78.6533 85.6237 81.1053 98.9795 81.6973 102.357C82.2901 105.733 83.7202 112.487 85.0647 114.776C86.4092 117.065 92.6892 124.481 107.644 123.898C122.599 123.313 132.884 116.305 134.734 109.742C136.585 103.179 136.763 87.4504 136.763 87.4504L137.735 64.1229C137.735 64.1229 138.37 56.6514 137.105 55.8898Z" fill="#C1B092"/>
<path d="M77.9537 65.132C77.7724 66.2162 77.9229 69.9429 79.427 81.0113L79.5118 81.6307C79.9051 84.5392 81.4716 93.2579 82.4086 98.4678C82.693 100.05 82.9258 101.346 83.0622 102.118C83.7174 105.852 85.1084 112.118 86.2583 114.075C86.4603 114.421 91.4017 122.545 105.991 122.546H105.993C106.516 122.546 107.053 122.535 107.591 122.515C116.118 122.18 121.994 119.798 125.421 117.857C129.647 115.465 132.555 112.37 133.402 109.365C135.182 103.056 135.378 87.5915 135.379 87.4352C135.379 87.421 135.38 87.4077 135.38 87.3928L136.35 64.0661C136.351 64.0453 136.352 64.0262 136.354 64.0054C136.594 61.1759 136.548 58.2026 136.271 57.1525C135.791 57.1151 134.791 57.0677 132.798 57.0677C119.129 57.0677 86.635 59.1031 77.9537 65.132ZM105.994 125.315H105.991C90.1071 125.313 84.4615 116.485 83.8703 115.478C82.101 112.466 80.5096 103.598 80.3341 102.596C80.1986 101.825 79.9666 100.535 79.6831 98.9576C78.7427 93.726 77.1688 84.9691 76.7672 82.0016L76.684 81.3838C74.4798 65.1761 74.9928 63.884 76.0122 63.119C85.7686 55.7955 123.285 54.2981 132.798 54.2981C137.147 54.2981 137.475 54.4951 137.821 54.7046C138.367 55.0339 139.819 55.9086 139.116 64.2108L138.148 87.4875C138.138 88.3913 137.93 103.516 136.068 110.117C135.008 113.872 131.712 117.478 126.785 120.267C121.488 123.266 114.888 125.001 107.698 125.281C107.126 125.304 106.553 125.315 105.994 125.315Z" fill="#1D1D1D"/>
<path d="M122.048 86.7757C122.364 79.9228 121.614 57.5897 120.834 56.0689C120.834 56.0689 116.962 55.2524 107.82 56.3624C98.677 57.4716 90.5419 59.8321 89.678 61.6846C89.17 62.7722 88.7984 65.5193 89.3097 70.7609C89.3097 70.7609 90.4821 82.7639 92.0668 88.6548" fill="#877D6B"/>
<path d="M92.0664 90.0391C91.4552 90.0391 90.8957 89.6316 90.7302 89.0147C89.1338 83.0806 87.9797 71.3902 87.9307 70.8963C87.4692 66.1653 87.6397 62.7779 88.4237 61.0984C90.2712 57.1406 106.945 55.0736 107.652 54.9879C116.917 53.863 120.952 54.6803 121.119 54.7144C121.528 54.8009 121.876 55.0669 122.066 55.4378C123.171 57.5954 123.684 81.3553 123.431 86.8404C123.396 87.6037 122.745 88.1824 121.983 88.1591C121.22 88.1242 120.63 87.4765 120.665 86.7124C120.967 80.1588 120.324 61.4866 119.707 57.3127C118.154 57.1522 114.396 56.9593 107.986 57.7367C97.8883 58.9623 91.6257 61.3087 90.9231 62.2907C90.7593 62.6607 90.0983 64.5872 90.6878 70.6269C90.6994 70.745 91.8676 82.5817 93.4034 88.2947C93.6029 89.033 93.1647 89.7929 92.4272 89.9908C92.3058 90.0233 92.1853 90.0391 92.0664 90.0391Z" fill="#1D1D1D"/>
<path d="M111.04 86.5703H111.032C110.42 86.5653 109.928 86.0673 109.931 85.4545C109.931 85.4029 109.958 80.1115 109.567 71.9981C109.176 63.8581 108.742 56.9544 108.737 56.8854C108.699 56.2751 109.163 55.7488 109.774 55.7106C110.385 55.6782 110.91 56.1355 110.949 56.7458C110.953 56.8156 111.387 63.7342 111.781 71.8917C112.174 80.0699 112.146 85.4154 112.146 85.4686C112.142 86.0781 111.648 86.5703 111.04 86.5703Z" fill="#1D1D1D"/>
<path d="M100.917 87.3657C100.356 87.3657 99.8749 86.9417 99.8167 86.3721C98.5953 74.5412 98.227 58.4732 98.2228 58.3119C98.2095 57.7008 98.6942 57.1936 99.3062 57.1803C99.9098 57.1562 100.424 57.6517 100.438 58.2629C100.441 58.4225 100.809 74.4032 102.019 86.1443C102.082 86.7538 101.64 87.2967 101.031 87.3599C100.993 87.3641 100.954 87.3657 100.917 87.3657Z" fill="#1D1D1D"/>
<path d="M105.984 86.8442C105.408 86.8442 104.921 86.3977 104.88 85.8149C104.871 85.681 103.94 72.3984 103.708 67.9052C103.676 67.2941 104.146 66.7727 104.756 66.7411C105.368 66.7179 105.889 67.1802 105.92 67.7904C106.152 72.2637 107.081 85.5264 107.09 85.6594C107.133 86.2697 106.674 86.7985 106.062 86.8417C106.036 86.8434 106.009 86.8442 105.984 86.8442Z" fill="#1D1D1D"/>
<path d="M115.901 75.4082C115.329 75.4082 114.844 74.9684 114.798 74.3872C114.31 68.1811 113.816 56.9772 113.811 56.8649C113.784 56.253 114.257 55.7366 114.869 55.7092C115.484 55.6842 115.997 56.1565 116.024 56.7676C116.029 56.8799 116.521 68.0464 117.006 74.2134C117.054 74.8237 116.599 75.3575 115.988 75.4049C115.959 75.4074 115.929 75.4082 115.901 75.4082Z" fill="#1D1D1D"/>
<path d="M93.7757 95.8927L94.8133 99.6941C94.8133 99.6941 99.0214 100.693 99.8703 99.8388C99.911 99.7989 101.764 95.9983 101.764 95.9983L104.872 100.086L108.56 100.194L110.791 95.5352L114.386 100.577C114.386 100.577 119.216 100.114 120.059 99.665C120.059 99.665 121.722 93.5737 122.039 86.72C122.039 86.72 119.145 85.5742 113.457 85.5801C107.769 85.5842 95.0437 87.2338 91.9514 88.427C91.9514 88.427 93.5271 94.8209 93.7757 95.8927Z" fill="#D9B579"/>
<path d="M110.791 94.1513C111.236 94.1513 111.657 94.3658 111.917 94.7317L115.046 99.1185C116.522 98.9588 118.073 98.7451 118.909 98.5705C119.313 96.8993 120.269 92.5674 120.595 87.7299C119.381 87.4206 116.996 86.9641 113.495 86.9641H113.459C108.444 86.9683 97.7982 88.297 93.6093 89.3671C94.0774 91.2728 94.9255 94.7225 95.1176 95.554L95.9258 98.5123C96.6093 98.6412 97.6087 98.8008 98.4069 98.8008C98.6097 98.8008 98.7561 98.7892 98.8592 98.7767C99.1943 98.1041 99.891 96.6839 100.52 95.3918C100.731 94.9603 101.15 94.6676 101.629 94.6202C102.107 94.5729 102.576 94.7782 102.867 95.1607L105.575 98.7202L107.7 98.7834L109.543 94.937C109.754 94.4964 110.184 94.1987 110.671 94.1563C110.711 94.153 110.752 94.1513 110.791 94.1513ZM114.386 101.963C113.941 101.963 113.52 101.748 113.259 101.382L111.025 98.2504L109.809 100.791C109.573 101.286 109.074 101.589 108.52 101.579L104.831 101.47C104.413 101.457 104.023 101.257 103.771 100.924L102.023 98.6262C101.044 100.624 101.01 100.658 100.846 100.821C100.181 101.491 99.1352 101.57 98.4069 101.57C96.7356 101.57 94.5846 101.063 94.4932 101.042C94.0018 100.924 93.611 100.548 93.4788 100.059L92.4395 96.2574C92.4353 96.2408 92.4312 96.2216 92.427 96.2042C92.1834 95.1549 90.6227 88.8225 90.6069 88.7584C90.4406 88.0816 90.8031 87.3857 91.4534 87.1354C94.9014 85.8059 107.898 84.1995 113.456 84.1954H113.495C119.356 84.1954 122.42 85.3819 122.549 85.4326C123.099 85.6496 123.45 86.1934 123.421 86.7837C123.103 93.7106 121.466 99.7761 121.396 100.031C121.295 100.399 121.047 100.71 120.709 100.889C119.763 101.391 116.425 101.772 114.518 101.956C114.475 101.96 114.431 101.963 114.386 101.963Z" fill="#1D1D1D"/>
<path d="M94.3141 70.4795C93.7379 70.4795 93.2506 70.0322 93.2099 69.4476C92.8923 64.7906 93.0236 59.875 93.0253 59.826C93.0419 59.2248 93.5342 58.7492 94.1311 58.7492C94.1428 58.7492 94.1536 58.7501 94.1627 58.7501C94.7755 58.7667 95.2569 59.2755 95.2395 59.8875C95.2378 59.9357 95.1098 64.7491 95.4207 69.2963C95.4623 69.9066 95.0009 70.4346 94.3914 70.477C94.3656 70.4787 94.3398 70.4795 94.3141 70.4795Z" fill="#1D1D1D"/>
<path d="M96.2379 86.9976C95.6983 86.9976 95.226 86.6026 95.1437 86.0538C94.7388 83.3641 93.8225 77.2329 93.8225 77.2329L96.0126 76.9053C96.0126 76.9053 96.9305 83.0348 97.3338 85.7254C97.4253 86.3291 97.0095 86.8945 96.4034 86.9851C96.3469 86.9934 96.2928 86.9976 96.2379 86.9976Z" fill="#1D1D1D"/>
<path d="M96.5458 74.1343C96.0086 74.1343 95.5355 73.7418 95.4524 73.1939C95.3593 72.5894 95.7742 72.024 96.3795 71.9309C97.9859 71.6848 98.0116 71.6815 99.3095 71.526L99.6255 71.4877C100.236 71.4146 100.785 71.8494 100.858 72.4564C100.93 73.0634 100.498 73.6154 99.8891 73.6886L99.5723 73.7269C98.2868 73.879 98.2868 73.879 96.7145 74.121C96.658 74.1293 96.6006 74.1343 96.5458 74.1343Z" fill="#1D1D1D"/>
<path d="M87.8525 81.7448C87.8525 81.7448 87.1815 77.0977 84.0469 77.1884C80.9114 77.2782 81.53 80.5982 81.6814 81.1536C81.8318 81.7074 82.0688 82.9911 82.4762 83.3936C82.8836 83.796 83.3293 84.2101 85.2309 83.9349C87.1316 83.6605 88.1767 82.8997 87.8525 81.7448Z" fill="#1D1D1D"/>
<path d="M125.694 77.0923C125.694 77.0923 125.023 72.4444 128.055 71.6445C131.089 70.8447 131.433 74.2046 131.445 74.7791C131.459 75.3545 131.594 76.6533 131.316 77.1538C131.039 77.6552 130.729 78.1782 128.829 78.4517C126.926 78.7269 125.71 78.2912 125.694 77.0923Z" fill="#1D1D1D"/>
<path d="M70.0243 74.8569C69.2461 74.8569 68.5826 74.2641 68.5094 73.4742C68.4321 72.6369 69.0482 71.8944 69.8855 71.8171L75.2917 71.3174C76.1314 71.2392 76.8706 71.8562 76.9488 72.6926C77.0261 73.5316 76.41 74.2724 75.5719 74.3506L70.1665 74.8503C70.1175 74.8544 70.0709 74.8569 70.0243 74.8569Z" fill="#1D1D1D"/>
<path d="M137.963 63.2856L144.929 62.5955L137.963 63.2856Z" fill="#C1B092"/>
<path d="M137.961 64.8091C137.187 64.8091 136.524 64.2221 136.448 63.4363C136.364 62.5991 136.975 61.8524 137.813 61.7701L144.778 61.0808C145.611 61.0018 146.361 61.6088 146.443 62.4452C146.527 63.2825 145.915 64.0283 145.079 64.1115L138.113 64.8008C138.063 64.8058 138.012 64.8091 137.961 64.8091Z" fill="#1D1D1D"/>
<path d="M131.031 88.6709C130.199 88.6709 129.519 88.0007 129.508 87.166C129.497 86.3262 130.17 85.6352 131.012 85.6244L135.887 85.5612H135.907C136.739 85.5612 137.419 86.2306 137.429 87.0645C137.44 87.906 136.767 88.5961 135.926 88.6069L131.051 88.6709H131.031Z" fill="#1D1D1D"/>
<path d="M131.261 97.8462C130.485 97.8462 129.823 97.2559 129.747 96.4685C129.667 95.6303 130.281 94.887 131.118 94.8072L135.427 94.3956C136.262 94.3141 137.007 94.9286 137.088 95.7659C137.168 96.604 136.553 97.3465 135.716 97.4271L131.408 97.8387C131.358 97.8437 131.309 97.8462 131.261 97.8462Z" fill="#1D1D1D"/>
<path d="M134.877 107.152C134.791 107.152 134.702 107.145 134.614 107.13C134.522 107.113 132.34 106.723 129.933 105.484C129.185 105.099 128.892 104.182 129.276 103.433C129.661 102.686 130.577 102.391 131.326 102.776C133.326 103.805 135.119 104.126 135.138 104.128C135.966 104.274 136.521 105.062 136.376 105.891C136.247 106.631 135.604 107.152 134.877 107.152Z" fill="#1D1D1D"/>
<path d="M80.4905 93.2588C79.6823 93.2588 79.0088 92.6227 78.9706 91.8079C78.9307 90.9673 79.5792 90.2539 80.419 90.214C82.7463 90.1042 85.1334 89.8307 85.1567 89.8273C85.9956 89.7351 86.7481 90.3312 86.8437 91.1652C86.9402 92.0016 86.3415 92.7566 85.5059 92.8539C85.4053 92.8647 82.9965 93.1416 80.5637 93.2571C80.5396 93.258 80.5146 93.2588 80.4905 93.2588Z" fill="#1D1D1D"/>
<path d="M82.0671 102.242C81.4468 102.242 80.8656 101.86 80.6378 101.244C80.3476 100.455 80.7517 99.5802 81.5407 99.2883C82.6017 98.8984 85.8278 97.8657 85.9641 97.8225C86.7656 97.5656 87.6245 98.0079 87.8798 98.8094C88.1367 99.6101 87.6944 100.467 86.8937 100.723C86.8604 100.735 83.592 101.779 82.5942 102.148C82.4204 102.211 82.2417 102.242 82.0671 102.242Z" fill="#1D1D1D"/>
<path d="M84.003 111.673C83.4891 111.673 82.9878 111.414 82.7017 110.942C82.2627 110.226 82.4897 109.289 83.2073 108.85C84.5742 108.016 86.9946 106.696 87.0977 106.64C87.8352 106.237 88.7598 106.51 89.163 107.248C89.5646 107.987 89.2919 108.913 88.5544 109.314C88.5295 109.329 86.0974 110.654 84.7945 111.449C84.5468 111.6 84.2732 111.673 84.003 111.673Z" fill="#1D1D1D"/>
<path d="M94.6407 109.575C94.6407 109.575 97.5491 107.999 106.475 107.977C115.4 107.956 120.172 109.575 120.172 109.575" fill="#C1B092"/>
<path d="M120.172 111.099C120.01 111.099 119.844 111.073 119.682 111.018C119.639 111.004 115.051 109.501 106.648 109.501H106.478C98.1691 109.521 95.392 110.9 95.3654 110.914C94.6262 111.315 93.7016 111.04 93.3017 110.301C92.9001 109.56 93.1753 108.637 93.9145 108.237C94.2471 108.056 97.4233 106.476 106.47 106.455C106.53 106.454 106.59 106.454 106.65 106.454C115.61 106.454 120.458 108.065 120.661 108.133C121.458 108.404 121.885 109.268 121.614 110.064C121.399 110.7 120.807 111.099 120.172 111.099Z" fill="#1D1D1D"/>
<path d="M126.128 69.5498C125.729 69.5498 125.329 69.4068 125.01 69.1174C124.332 68.4997 124.282 67.4495 124.899 66.7694C125.124 66.5241 127.211 64.3432 131.596 63.3396C132.489 63.1342 133.382 63.6938 133.586 64.5885C133.792 65.4831 133.232 66.3744 132.337 66.579C128.935 67.3572 127.372 68.9911 127.358 69.0077C127.03 69.3677 126.58 69.5498 126.128 69.5498Z" fill="#1D1D1D"/>
<path d="M85.9117 74.7026C85.5825 74.7026 85.2499 74.6045 84.9597 74.4016C84.8649 74.3376 83.2494 73.2758 80.4307 73.4164C79.5145 73.4604 78.7346 72.7537 78.6897 71.8374C78.6464 70.9203 79.3532 70.1412 80.2703 70.0972C84.2596 69.9051 86.6243 71.5065 86.8804 71.6894C87.627 72.224 87.8 73.2617 87.2654 74.0075C86.9403 74.4607 86.4306 74.7026 85.9117 74.7026Z" fill="#1D1D1D"/>
<path d="M127.244 150.585H133.705C133.705 150.585 139.699 149.602 139.685 140.603C139.669 131.603 134.965 130.62 134.965 130.62H127.244C127.244 130.62 129.217 136.324 129.079 140.604C128.94 144.882 127.244 150.585 127.244 150.585Z" fill="#D5272A"/>
<path d="M129.055 149.201H133.559C134.253 149.031 138.312 147.728 138.299 140.604C138.288 133.631 135.329 132.21 134.772 132.005H129.119C129.718 134.114 130.559 137.664 130.462 140.649C130.366 143.599 129.584 147.122 129.055 149.201ZM133.705 151.97H127.243C126.807 151.97 126.396 151.764 126.134 151.413C125.873 151.063 125.792 150.609 125.917 150.19C125.934 150.136 127.563 144.605 127.694 140.558C127.823 136.592 125.955 131.127 125.935 131.073C125.789 130.649 125.856 130.181 126.117 129.817C126.376 129.453 126.797 129.235 127.243 129.235H134.964C135.06 129.235 135.154 129.246 135.247 129.264C135.484 129.314 141.052 130.592 141.069 140.6C141.078 145.754 139.206 148.552 137.634 149.99C135.885 151.593 134.124 151.921 133.928 151.951C133.854 151.964 133.78 151.97 133.705 151.97Z" fill="#1D1D1D"/>
<path d="M62.6155 83.8639C62.6155 83.8639 63.5343 90.3128 69.209 93.2794C69.209 93.2794 63.6324 96.8747 62.2447 102.292C62.2447 102.292 59.8592 95.7306 55.795 92.7639C55.795 92.7639 61.7774 90.2645 62.6155 83.8639Z" fill="#FFDF22"/>
<path d="M57.5196 92.9428C59.6631 94.9607 61.2446 97.7528 62.1792 99.6943C63.6226 96.7276 66.0155 94.5142 67.4648 93.3602C64.918 91.6108 63.4596 89.222 62.6406 87.2963C61.3061 90.2472 58.9913 92.0415 57.5196 92.9428ZM62.244 103.261C61.8383 103.261 61.4732 103.008 61.3344 102.625C61.3119 102.562 58.9955 96.3011 55.2231 93.5473C54.9404 93.3411 54.7916 92.9977 54.8324 92.6501C54.8731 92.3026 55.0984 92.0049 55.4219 91.8694C55.6422 91.7762 60.9012 89.4872 61.6537 83.7385C61.7169 83.2579 62.1251 82.8979 62.6099 82.8946H62.6157C63.0971 82.8946 63.5062 83.2496 63.5743 83.7277C63.5835 83.7842 64.5097 89.7292 69.659 92.4215C69.9641 92.5811 70.162 92.8912 70.177 93.2371C70.1928 93.5822 70.024 93.9073 69.7338 94.096C69.6831 94.1293 64.4565 97.5599 63.1836 102.534C63.0788 102.944 62.7171 103.24 62.2922 103.26C62.2764 103.261 62.2606 103.261 62.244 103.261Z" fill="#1D1D1D"/>
<path d="M100.919 146.864H134.876C134.876 146.864 136.973 147.102 136.973 149.406C136.973 151.71 135.754 153.095 133.469 153.095H98.1533L100.919 146.864Z" fill="#AEAEAF"/>
<path d="M100.282 151.71H133.469C134.456 151.71 135.589 151.449 135.589 149.406C135.589 148.602 135.153 148.331 134.761 148.249H101.819L100.282 151.71ZM133.469 154.479H98.153C97.6841 154.479 97.2475 154.243 96.9923 153.849C96.7362 153.457 96.6971 152.961 96.8875 152.533L99.6538 146.302C99.8758 145.802 100.371 145.479 100.919 145.479H134.875C134.929 145.479 134.98 145.483 135.033 145.489C136.182 145.619 138.358 146.606 138.358 149.406C138.358 152.536 136.484 154.479 133.469 154.479Z" fill="#1D1D1D"/>
<path d="M105.985 148.295L92.4619 112.941C92.4619 112.941 90.9844 107.587 85.9133 107.587H30.7998C30.7998 107.587 23.7856 107.533 26.0929 113.863C27.9828 119.051 38.554 149.956 38.554 149.956C38.554 149.956 39.7547 153.094 44.277 153.464C48.9739 153.848 100.919 153.464 100.919 153.464C100.919 153.464 108.43 154.386 105.985 148.295Z" fill="#AEAEAF"/>
<path d="M39.8518 149.472C39.9324 149.655 40.9485 151.802 44.3899 152.083C45.3161 152.159 48.9588 152.25 61.0482 152.25C77.6342 152.25 100.677 152.081 100.909 152.079C100.972 152.079 101.028 152.083 101.087 152.089C101.087 152.089 101.429 152.128 101.918 152.128C103.397 152.128 104.51 151.791 104.894 151.222C105.295 150.629 105.01 149.583 104.699 148.81L91.1688 113.435C91.1522 113.394 91.1389 113.352 91.1264 113.309C91.0782 113.138 89.8443 108.971 85.9131 108.971H30.7996C30.0987 108.971 28.1248 109.211 27.3607 110.303C26.8834 110.983 26.8951 112.022 27.3931 113.39C29.2381 118.45 39.4352 148.255 39.8518 149.472ZM61.0482 155.019C51.1289 155.019 45.6063 154.962 44.1646 154.844C38.8332 154.408 37.3225 150.612 37.2609 150.451C37.2559 150.436 37.2493 150.421 37.2435 150.404C37.1379 150.095 26.6565 119.453 24.7923 114.338C23.9658 112.071 24.0664 110.179 25.0916 108.714C26.8003 106.273 30.3914 106.202 30.7938 106.202H85.9131C90.7098 106.202 93.1385 110.285 93.7763 112.505L107.278 147.8C108.084 149.808 108.057 151.488 107.187 152.774C106 154.53 103.667 154.898 101.918 154.898C101.413 154.898 101.025 154.866 100.849 154.849C99.3412 154.859 77.1545 155.019 61.0482 155.019Z" fill="#1D1D1D"/>
<path d="M82.8566 107.978C82.8566 107.978 87.107 108.603 88.7683 113.773L82.8566 107.978Z" fill="#AEAEAF"/>
<path d="M88.7686 114.603C88.4177 114.603 88.0918 114.378 87.9787 114.026C86.5062 109.447 82.8843 108.824 82.7313 108.799C82.2799 108.728 81.9681 108.305 82.0371 107.854C82.1061 107.4 82.5243 107.087 82.9774 107.157C83.172 107.184 87.7609 107.921 89.5601 113.517C89.7007 113.955 89.4604 114.423 89.0238 114.563C88.939 114.59 88.8534 114.603 88.7686 114.603Z" fill="#1D1D1D"/>
<path d="M90.2459 118.018L99.7013 143.217L90.2459 118.018Z" fill="#AEAEAF"/>
<path d="M99.7017 144.048C99.3658 144.048 99.049 143.843 98.9234 143.51L89.4689 118.309C89.3076 117.879 89.5246 117.401 89.9536 117.24C90.3835 117.077 90.8624 117.297 91.0237 117.726L100.479 142.925C100.641 143.355 100.423 143.835 99.9944 143.996C99.8971 144.031 99.7981 144.048 99.7017 144.048Z" fill="#1D1D1D"/>
<path d="M100.584 145.618L101.415 147.648L100.584 145.618Z" fill="#AEAEAF"/>
<path d="M101.416 148.479C101.088 148.479 100.778 148.285 100.646 147.962L99.8153 145.933C99.6424 145.508 99.8452 145.023 100.27 144.849C100.695 144.675 101.18 144.878 101.354 145.303L102.185 147.335C102.358 147.759 102.154 148.243 101.73 148.417C101.627 148.46 101.521 148.479 101.416 148.479Z" fill="#1D1D1D"/>
<path d="M115.169 150.237H111.569C111.11 150.237 110.738 149.866 110.738 149.406C110.738 148.947 111.11 148.575 111.569 148.575H115.169C115.628 148.575 116 148.947 116 149.406C116 149.866 115.628 150.237 115.169 150.237Z" fill="#1D1D1D"/>
<path d="M126.129 130.61C126.129 130.61 114.939 129.556 111.569 137.864C108.2 146.171 120.523 140.604 120.523 140.604C120.523 140.604 114.177 143.264 115.169 145.618C116.162 147.971 128.34 146.13 128.34 146.13C128.34 146.13 131.735 134.019 126.129 130.61Z" fill="#D9B579"/>
<path d="M116.472 145.004C116.763 145.142 117.658 145.431 120.045 145.431C122.673 145.431 125.738 145.079 127.229 144.885C128.042 141.391 128.899 134.316 125.673 131.969C125.487 131.96 125.227 131.952 124.911 131.952C122.07 131.952 115.207 132.579 112.852 138.384C112.128 140.169 112.426 140.692 112.462 140.747C112.555 140.885 112.924 141.045 113.66 141.045C115.369 141.045 117.937 140.206 119.767 139.422C119.901 139.362 119.988 139.326 119.988 139.326C120.686 139.034 121.489 139.357 121.791 140.051C122.094 140.745 121.783 141.553 121.094 141.866C121.094 141.866 121.01 141.903 120.857 141.968C118.241 143.136 116.676 144.442 116.472 145.004ZM120.045 148.2C116.338 148.2 114.498 147.589 113.893 146.156C113.545 145.329 113.624 144.54 113.977 143.808C113.87 143.812 113.765 143.815 113.66 143.815C112.02 143.815 110.844 143.302 110.165 142.294C109.373 141.117 109.413 139.498 110.287 137.343C113.273 129.978 121.51 129.182 124.911 129.182C125.726 129.182 126.237 129.23 126.259 129.232C126.467 129.252 126.67 129.318 126.848 129.428C133.278 133.336 129.823 145.968 129.673 146.504C129.526 147.027 129.086 147.417 128.546 147.499C128.358 147.527 123.867 148.2 120.045 148.2Z" fill="#1D1D1D"/>
<path d="M100.087 79.892C99.8094 80.7451 99.0902 81.2772 98.4824 81.0785C97.8754 80.8806 97.6094 80.0284 97.8871 79.1745C98.1656 78.3197 98.884 77.7892 99.491 77.9863C100.1 78.185 100.366 79.0389 100.087 79.892Z" fill="#EBF7FE"/>
<path d="M99.2293 76.5603C98.0652 76.5603 96.9959 77.4383 96.5711 78.7445C96.0472 80.3509 96.6991 81.9531 98.0536 82.3955C98.2764 82.4678 98.5092 82.5044 98.7453 82.5044C99.9086 82.5044 100.978 81.6272 101.403 80.3201C101.626 79.6367 101.64 78.9125 101.443 78.2797C101.196 77.4915 100.641 76.9062 99.9202 76.6709C99.6965 76.5977 99.4637 76.5603 99.2293 76.5603ZM99.2293 77.9455C99.3166 77.9455 99.4055 77.9588 99.4903 77.9862C100.099 78.1849 100.365 79.038 100.086 79.8919C99.8479 80.6253 99.2841 81.12 98.7453 81.12C98.6572 81.12 98.5682 81.1075 98.4826 81.0784C97.8748 80.8805 97.6087 80.0283 97.8864 79.1744C98.1259 78.441 98.6896 77.9455 99.2293 77.9455Z" fill="#1D1D1D"/>
<path d="M110.333 79.0363C110.77 79.8204 111.576 80.2045 112.135 79.8936C112.693 79.5826 112.792 78.6938 112.354 77.9097C111.916 77.1248 111.11 76.7415 110.552 77.0525C109.993 77.3634 109.896 78.2531 110.333 79.0363Z" fill="#EBF7FE"/>
<path d="M110.979 75.5602C110.591 75.5602 110.21 75.6575 109.877 75.8429C109.215 76.2129 108.782 76.8947 108.692 77.7162C108.62 78.3738 108.773 79.0814 109.123 79.71C109.7 80.7443 110.691 81.3862 111.707 81.3862C112.097 81.3862 112.477 81.2881 112.809 81.1027C114.054 80.4093 114.386 78.7114 113.563 77.2356C112.987 76.2012 111.998 75.5602 110.979 75.5602ZM110.979 76.9446C111.47 76.9446 112.02 77.3096 112.353 77.9091C112.792 78.694 112.694 79.5828 112.136 79.8938C112.003 79.9678 111.859 80.001 111.707 80.001C111.217 80.001 110.667 79.636 110.333 79.0365C109.896 78.2524 109.992 77.3636 110.551 77.0526C110.684 76.9795 110.828 76.9446 110.979 76.9446Z" fill="#1D1D1D"/>
<path d="M132.533 81.5604C130.85 83.6034 128.473 84.8688 125.839 85.1241C125.723 85.1357 125.606 85.1457 125.489 85.1524C120.138 85.4849 115.541 81.5604 115.022 76.2191C114.495 70.7814 118.49 65.929 123.928 65.4018C124.044 65.391 124.161 65.3818 124.276 65.3744C129.629 65.0426 134.227 68.9671 134.745 74.3076C135 76.9417 134.214 79.5167 132.533 81.5604ZM86.1535 88.9721C86.0354 88.9837 85.919 88.9921 85.8043 88.9995C80.4505 89.3321 75.8533 85.4076 75.3345 80.0663C75.0793 77.4322 75.865 74.8564 77.5479 72.8135C79.2299 70.7706 81.6062 69.5051 84.2411 69.249C84.3575 69.2382 84.474 69.229 84.5904 69.2224C89.9417 68.8898 94.5396 72.8135 95.0576 78.1548C95.5848 83.5917 91.5904 88.4441 86.1535 88.9721ZM137.085 74.0814C136.43 67.3291 130.505 62.4035 123.701 63.0612C117.582 63.6557 112.942 68.6744 112.641 74.6394C111.558 74.128 110.047 73.5476 108.274 73.23C105.316 72.7037 101.116 72.8434 97.0731 76.0645C95.648 70.4297 90.4272 66.5052 84.4449 66.8752C84.3018 66.8843 84.1572 66.8951 84.0142 66.9092C80.7548 67.2252 77.8131 68.7925 75.7328 71.3202C73.6516 73.8486 72.6797 77.0356 72.9948 80.2941C73.6358 86.9026 79.3255 91.7583 85.9498 91.3468C86.092 91.3384 86.2358 91.326 86.3797 91.3127C92.7927 90.6899 97.5803 85.2039 97.4489 78.8657C103.911 72.564 111.227 76.4212 112.813 77.3857C113.876 83.5086 119.331 87.8904 125.635 87.5004C125.779 87.4913 125.922 87.4788 126.067 87.4655C129.326 87.1487 132.266 85.5831 134.348 83.0546C136.43 80.5278 137.401 77.3391 137.085 74.0814Z" fill="#FFEC5E"/>
<path d="M85.1723 87.3583C80.9185 87.3583 77.4006 84.1547 76.9891 79.9076C76.7762 77.7142 77.4297 75.5707 78.8307 73.8712C80.2309 72.17 82.209 71.1165 84.4007 70.9037C84.4997 70.8937 84.5961 70.8862 84.6909 70.8812C84.8688 70.8696 85.0459 70.8646 85.2214 70.8646C89.4743 70.8646 92.9914 74.0682 93.403 78.3153C93.6158 80.5037 92.9606 82.6464 91.5596 84.3493C90.1578 86.0521 88.1797 87.1072 85.9921 87.3184C85.894 87.3284 85.7959 87.3359 85.6986 87.3417C85.5248 87.3525 85.3469 87.3583 85.1723 87.3583ZM124.858 83.5111C120.605 83.5111 117.088 80.3075 116.676 76.0588C116.464 73.8712 117.12 71.7285 118.521 70.0257C119.923 68.3228 121.9 67.2685 124.087 67.0565C124.185 67.0474 124.282 67.0399 124.377 67.0341C124.555 67.0224 124.732 67.0174 124.908 67.0166C129.161 67.0166 132.679 70.2202 133.091 74.4682C133.303 76.6607 132.65 78.8042 131.249 80.5054C129.849 82.2058 127.871 83.2584 125.679 83.4712C125.58 83.4812 125.483 83.4887 125.389 83.4954C125.211 83.5053 125.033 83.5111 124.858 83.5111ZM124.919 61.3419C124.461 61.3419 123.997 61.3643 123.541 61.4084C120.2 61.7326 117.09 63.2551 114.782 65.6946C113.026 67.5521 111.822 69.8411 111.284 72.2997C110.387 71.9937 109.478 71.7584 108.566 71.5963C107.599 71.4242 106.625 71.336 105.668 71.3352C102.892 71.3352 100.296 72.0478 97.9261 73.4563C95.7402 68.4933 90.8013 65.1907 85.2247 65.1907C84.932 65.1907 84.6352 65.199 84.3417 65.2173C84.1787 65.2273 84.0141 65.2398 83.8511 65.2564C80.1528 65.6147 76.8128 67.3932 74.4498 70.2635C72.0868 73.1353 70.9834 76.7539 71.3409 80.4539C72.036 87.6252 77.981 93.0322 85.1682 93.0322C85.4608 93.0322 85.7585 93.0231 86.052 93.0056C86.2133 92.9948 86.3771 92.9823 86.5409 92.9665C90.0497 92.6256 93.2716 90.981 95.613 88.3336C97.7706 85.8933 98.9954 82.816 99.1051 79.5958C101.067 77.8697 103.279 76.9958 105.692 76.9958C108.137 76.9958 110.24 77.8896 111.336 78.4617C112.796 84.7218 118.358 89.185 124.855 89.185C125.147 89.185 125.445 89.1776 125.738 89.1576C125.901 89.1476 126.065 89.1352 126.228 89.1185C129.927 88.761 133.267 86.9817 135.63 84.1115C137.993 81.2413 139.098 77.6219 138.738 73.9211C138.043 66.7497 132.103 61.3419 124.919 61.3419ZM85.1723 89.0196C85.381 89.0196 85.5922 89.0129 85.8042 89.0005C85.919 88.993 86.0354 88.9838 86.1534 88.9722C91.5904 88.445 95.5839 83.5926 95.0576 78.1557C94.5604 73.0256 90.2999 69.2025 85.2214 69.2025C85.0127 69.2025 84.8006 69.21 84.5903 69.2225C84.4739 69.2291 84.3575 69.2383 84.2411 69.2499C81.6062 69.5052 79.2298 70.7715 77.5478 72.8144C75.8649 74.8573 75.0792 77.4323 75.3344 80.0664C75.8333 85.1965 80.0937 89.0196 85.1723 89.0196ZM124.858 85.1732C125.068 85.1732 125.278 85.1658 125.489 85.1533C125.605 85.1466 125.723 85.1358 125.839 85.1242C128.473 84.8698 130.85 83.6034 132.533 81.5605C134.214 79.5168 135 76.9426 134.745 74.3085C134.248 69.1784 129.986 65.3553 124.908 65.3553C124.699 65.3553 124.488 65.362 124.276 65.3753C124.161 65.3819 124.044 65.3911 123.928 65.4027C118.49 65.9299 114.495 70.7815 115.022 76.2201C115.519 81.3502 119.78 85.1732 124.858 85.1732ZM124.919 63.0031C131.199 63.0031 136.469 67.7358 137.085 74.0815C137.4 77.3392 136.429 80.5279 134.347 83.0547C132.266 85.5832 129.325 87.1488 126.067 87.4656C125.922 87.4797 125.778 87.4914 125.635 87.5005C125.374 87.5155 125.113 87.5238 124.855 87.5238C118.886 87.5238 113.832 83.2542 112.813 77.3858C111.905 76.8337 109.121 75.3345 105.692 75.3345C103.132 75.3345 100.212 76.171 97.4489 78.8658C97.5802 85.204 92.7927 90.6908 86.3796 91.3128C86.2357 91.3261 86.0911 91.3385 85.9497 91.3469C85.687 91.3626 85.4267 91.371 85.1682 91.371C78.884 91.371 73.6108 86.6416 72.9947 80.2942C72.6796 77.0357 73.6516 73.8487 75.7319 71.3202C77.813 68.7926 80.7547 67.2253 84.0133 66.9093C84.1571 66.896 84.3018 66.8844 84.4448 66.8752C84.7059 66.8603 84.9669 66.852 85.2247 66.852C90.8761 66.852 95.7103 70.6767 97.073 76.0646C100.037 73.7024 103.086 72.9973 105.668 72.9973C106.607 72.9981 107.485 73.0904 108.274 73.2309C110.047 73.5486 111.558 74.1281 112.641 74.6394C112.941 68.6745 117.582 63.6558 123.701 63.0613C124.11 63.0231 124.516 63.0031 124.919 63.0031Z" fill="#1D1D1D"/>
<mask id="mask0_777_8534" style="mask-type:luminance" maskUnits="userSpaceOnUse" x="55" y="121" width="15" height="18">
<path d="M55.4891 121.954H69.93V138.675H55.4891V121.954Z" fill="white"/>
</mask>
<g mask="url(#mask0_777_8534)">
<g opacity="0.800003">
<path d="M69.2764 128.496C68.0059 125.786 65.1873 124.285 62.3063 124.501C61.9986 123.445 61.3426 121.694 60.4313 121.987C59.5109 122.282 60.5095 123.818 61.1605 124.678C60.6716 124.794 60.1852 124.961 59.7113 125.184C56.0853 126.884 54.4872 131.126 56.1435 134.657C57.7997 138.187 62.0826 139.671 65.7094 137.97C69.3355 136.268 70.9319 132.027 69.2764 128.496Z" fill="white"/>
</g>
</g>
<path d="M130.232 73.4723C130.232 73.9546 129.841 74.3462 129.358 74.3462C128.876 74.3462 128.483 73.9546 128.483 73.4723C128.483 72.9892 128.876 72.5976 129.358 72.5976C129.841 72.5976 130.232 72.9892 130.232 73.4723Z" fill="white"/>
<path d="M85.5947 78.8195C85.5947 79.3017 85.203 79.6934 84.7208 79.6934C84.2377 79.6934 83.8469 79.3017 83.8469 78.8195C83.8469 78.3364 84.2377 77.9456 84.7208 77.9456C85.203 77.9456 85.5947 78.3364 85.5947 78.8195Z" fill="white"/>
</svg>
