<svg width="200" height="200" viewBox="0 0 200 200" fill="none" xmlns="http://www.w3.org/2000/svg">
<path d="M123.986 140.073C127.026 138.347 124.823 127.584 127.436 126.605C133.351 124.391 137.384 137.068 137.384 137.068C137.384 137.068 134.99 142.109 123.986 140.073Z" fill="#C9B697"/>
<path d="M136.548 136.974C136.045 137.692 134.12 139.792 128.832 139.792H128.831C127.793 139.792 126.675 139.709 125.493 139.544C126.389 137.943 126.522 135.328 126.652 132.778C126.763 130.6 126.915 127.618 127.704 127.322C128.079 127.182 128.456 127.111 128.824 127.111C132.452 127.111 135.523 133.941 136.548 136.974ZM128.831 141.322H128.832C136.125 141.322 137.999 137.557 138.075 137.396C138.158 137.222 138.172 137.021 138.113 136.836C137.967 136.377 134.468 125.581 128.824 125.581C128.271 125.581 127.714 125.684 127.168 125.89C125.437 126.538 125.292 129.393 125.123 132.7C124.987 135.383 124.817 138.722 123.608 139.408C123.329 139.567 123.178 139.883 123.232 140.2C123.285 140.517 123.531 140.767 123.847 140.826C125.63 141.155 127.307 141.322 128.831 141.322Z" fill="#1D1D1D"/>
<path d="M138.367 141.743C138.367 141.743 139.764 139.276 136.818 136.543C136.818 136.543 129.521 146.711 120.112 138.363C120.112 138.363 118.394 142.819 120.879 144.913C120.879 144.913 132.289 151.964 138.367 141.743Z" fill="#D52527"/>
<path d="M137.419 141.199C135.444 144.51 132.653 146.191 129.122 146.191C125.382 146.191 122.041 144.327 121.523 144.024C120.505 143.104 120.536 141.478 120.742 140.276C122.992 141.917 125.313 142.747 127.662 142.747C132.092 142.747 135.381 139.816 136.855 138.205C138.078 139.858 137.466 141.109 137.419 141.199ZM129.122 148.376C133.422 148.376 136.943 146.275 139.306 142.301C139.31 142.294 139.314 142.287 139.318 142.281C139.392 142.149 141.1 139.025 137.561 135.742C137.331 135.528 137.021 135.423 136.709 135.455C136.397 135.486 136.113 135.65 135.93 135.905C135.898 135.95 132.506 140.561 127.662 140.561C125.389 140.561 123.093 139.546 120.837 137.546C120.569 137.308 120.202 137.217 119.854 137.301C119.506 137.386 119.221 137.636 119.092 137.97C119.011 138.182 117.129 143.182 120.174 145.749C120.215 145.783 120.259 145.815 120.305 145.843C120.472 145.946 124.458 148.376 129.122 148.376Z" fill="#1D1D1D"/>
<path d="M123.854 166.841C123.854 166.841 110.87 168.742 105.891 161.382L103.965 151.138C103.965 151.138 107.551 137.64 111.668 140.648C115.785 143.657 118.847 147.277 118.449 149.21C118.449 149.21 117.742 143.365 120.622 144.35C120.622 144.35 133.552 152.302 138.641 140.31C138.641 140.31 139.665 138.001 140.82 144.57C140.82 144.57 143.527 163.849 123.854 166.841Z" fill="white"/>
<path d="M139.74 144.737C139.777 145.027 140.309 149.545 138.656 154.3C136.42 160.735 131.385 164.59 123.69 165.761C123.682 165.762 122.232 165.969 120.165 165.969C116.536 165.969 110.035 165.311 106.922 160.95L105.085 151.181C106.402 146.366 108.838 141.304 110.449 141.304C110.626 141.304 110.814 141.378 111.022 141.531C114.246 143.886 116.739 146.589 117.29 148.314C117.312 148.906 117.361 149.323 117.364 149.342C117.428 149.873 117.868 150.28 118.403 150.302C118.939 150.321 119.411 149.956 119.519 149.431C119.61 148.99 119.593 148.505 119.467 147.987C119.437 146.331 119.742 145.562 119.931 145.366C119.963 145.335 119.969 145.331 120.013 145.331C120.041 145.331 120.094 145.335 120.175 145.357C120.942 145.805 124.963 148.027 129.381 148.028H129.382C132.431 148.028 136.491 146.929 139.1 141.904C139.279 142.486 139.5 143.378 139.74 144.737ZM120.165 168.154C122.402 168.154 123.948 167.932 124.013 167.922C134.722 166.294 139.024 159.963 140.749 154.939C142.595 149.558 141.932 144.625 141.903 144.418C141.901 144.405 141.898 144.393 141.897 144.38C141.184 140.33 140.427 138.824 139.102 138.824C138.367 138.824 137.866 139.363 137.642 139.867C135.957 143.837 133.18 145.842 129.382 145.842H129.381C125.183 145.842 121.234 143.444 121.195 143.419C121.126 143.377 121.053 143.342 120.976 143.317C119.96 142.969 119.023 143.166 118.365 143.842C118.114 144.1 117.906 144.428 117.742 144.823C116.294 142.985 114.208 141.151 112.312 139.766C111.724 139.335 111.097 139.117 110.449 139.117C108.458 139.117 106.63 141.122 104.86 145.243C103.669 148.016 102.939 150.742 102.909 150.858C102.867 151.015 102.861 151.18 102.891 151.34L104.817 161.583C104.845 161.731 104.902 161.87 104.986 161.995C108.611 167.354 116.052 168.154 120.165 168.154Z" fill="#1D1D1D"/>
<path d="M108.271 157.253C109.037 161.026 110.174 167.285 110.377 172.122C110.506 175.183 110.636 177.082 110.69 180.901C110.69 180.901 89.2703 194.384 51.0174 178.937C48.3942 159.702 55.972 129.172 55.972 129.172L76.6479 136.454L102.359 141.155" fill="#C9B697"/>
<path d="M50.7975 179.374C50.8467 179.374 50.8962 179.371 50.9467 179.364C51.5445 179.283 51.9634 178.731 51.8819 178.133C49.606 161.444 55.3642 136.261 56.7423 130.602L76.2847 137.485C76.3392 137.505 76.3947 137.519 76.4514 137.529L102.163 142.229C102.756 142.338 103.326 141.945 103.434 141.351C103.543 140.757 103.15 140.188 102.556 140.079L76.9294 135.395L56.335 128.141C56.0467 128.039 55.7291 128.063 55.4593 128.207C55.1894 128.351 54.9917 128.601 54.9146 128.896C54.5943 130.125 47.094 159.2 49.7159 178.429C49.7907 178.977 50.2597 179.374 50.7975 179.374Z" fill="#1D1D1D"/>
<path d="M110.689 181.557C110.695 181.557 110.699 181.557 110.705 181.557C111.309 181.548 111.791 181.052 111.782 180.449C111.744 177.737 111.669 176.22 111.581 174.463C111.545 173.739 111.507 172.977 111.469 172.076C111.269 167.317 110.202 161.27 109.342 157.036C109.222 156.444 108.645 156.064 108.053 156.182C107.462 156.302 107.08 156.88 107.2 157.471C107.891 160.874 109.081 167.308 109.285 172.167C109.323 173.075 109.362 173.842 109.398 174.572C109.485 176.308 109.559 177.807 109.597 180.479C109.605 181.078 110.093 181.557 110.689 181.557Z" fill="#1D1D1D"/>
<path d="M99.4087 78.0749L101.158 77.464L112.908 74.4952C112.908 74.4952 114.892 79.3209 113.35 84.239C111.624 89.7503 105.291 92.8276 105.291 92.8276L99.4087 78.0749Z" fill="#C9B697"/>
<path d="M112.194 75.8034C112.642 77.3396 113.335 80.634 112.307 83.9123C111.149 87.6117 107.612 90.1746 105.843 91.2612L100.847 78.7312L101.473 78.5122L112.194 75.8034ZM105.291 93.9209C105.454 93.9209 105.618 93.8844 105.768 93.811C106.045 93.6772 112.547 90.4598 114.393 84.5659C116.034 79.3312 114.006 74.292 113.919 74.0803C113.713 73.5771 113.168 73.3032 112.641 73.436L100.891 76.4048C100.859 76.4125 100.828 76.4219 100.798 76.4323L99.0483 77.0431C98.7668 77.1418 98.5379 77.3508 98.4145 77.622C98.2906 77.8932 98.2834 78.2032 98.3938 78.4798L104.275 93.233C104.388 93.515 104.613 93.7375 104.896 93.847C105.023 93.8966 105.157 93.9209 105.291 93.9209Z" fill="#1D1D1D"/>
<path d="M103.261 85.252C103.412 85.252 103.566 85.2236 103.714 85.1628L107.526 83.6113C108.141 83.3608 108.436 82.6594 108.186 82.0444C107.936 81.4295 107.234 81.134 106.619 81.3845L102.808 82.936C102.193 83.1864 101.897 83.8879 102.147 84.5028C102.337 84.9695 102.787 85.252 103.261 85.252Z" fill="#1D1D1D"/>
<path d="M55.841 88.8119L44.6795 76.1215L43.8822 94.2422L55.841 88.8119Z" fill="#DFBA76"/>
<path d="M54.0464 88.4266L45.0523 92.5104L45.6519 78.8825L54.0464 88.4266ZM43.8823 95.335C44.036 95.335 44.1896 95.303 44.3337 95.2372L56.2926 89.8074C56.6079 89.6641 56.8363 89.3803 56.9093 89.0416C56.9818 88.7032 56.8899 88.3501 56.6611 88.0901L45.5001 75.3997C45.2054 75.0645 44.7369 74.9425 44.3162 75.0907C43.8954 75.2389 43.6071 75.6277 43.5877 76.0736L42.7948 94.0952C42.7881 94.143 42.7849 94.1921 42.7849 94.2421C42.7849 94.8457 43.2742 95.335 43.8778 95.335C43.8792 95.3345 43.881 95.335 43.8823 95.335Z" fill="#1D1D1D"/>
<path d="M88.0548 80.6562L88.699 64.0934L99.2735 78.4831L88.0548 80.6562Z" fill="#DFBA76"/>
<path d="M97.37 77.7382L89.2007 79.3204L89.6697 67.2593L97.37 77.7382ZM88.0547 81.7485C88.1241 81.7485 88.1934 81.7422 88.2628 81.7287L99.4815 79.556C99.8491 79.4848 100.155 79.2298 100.291 78.8807C100.428 78.5325 100.376 78.1374 100.154 77.8355L89.5796 63.4459C89.3044 63.0711 88.8228 62.912 88.3786 63.0481C87.9344 63.1841 87.6249 63.586 87.6069 64.0504L86.9627 80.6133C86.9496 80.9471 87.0902 81.2679 87.3434 81.4854C87.5429 81.6566 87.7961 81.7485 88.0547 81.7485Z" fill="#1D1D1D"/>
<path d="M40.4753 96.155C41.2966 94.8688 82.0217 73.0316 99.4392 76.7851C100.76 77.0693 105.047 89.9143 106.32 93.679C107.592 97.4443 111.456 110.946 112.459 114.348C113.462 117.748 114.816 124.409 115.05 126.589C115.289 128.825 115.503 138.981 104.391 144.541C90.5487 151.467 73.5722 148.801 67.441 145.317C56.7837 139.259 53.4707 130.742 51.5093 126.843C49.5478 122.945 42.3422 104.87 42.3422 104.87C42.3422 104.87 39.654 97.442 40.4753 96.155Z" fill="#C9B697"/>
<path d="M98.9987 77.81C99.5465 78.4673 101.049 81.4793 105.134 93.5845L105.284 94.0296C106.258 96.911 108.812 105.713 110.338 110.972C110.802 112.571 111.181 113.878 111.41 114.657C112.432 118.119 113.747 124.699 113.963 126.706C114.086 127.855 114.85 138.087 103.903 143.564C96.9516 147.041 89.6861 147.771 84.8149 147.771C76.8114 147.772 70.7446 145.937 67.9812 144.367C58.6118 139.041 55.1498 131.861 53.0811 127.571C52.8676 127.128 52.6707 126.72 52.4856 126.353C50.5935 122.591 43.6185 105.12 43.3639 104.482C42.28 101.482 41.2759 97.7872 41.4128 96.7785C44.1816 94.6986 76.6695 77.4451 94.9082 77.4451C96.4155 77.4451 97.79 77.5677 98.9987 77.81ZM84.8144 149.958C89.9212 149.958 97.5481 149.187 104.881 145.519C109.854 143.03 113.259 139.391 115.002 134.7C116.454 130.792 116.237 127.415 116.136 126.473C115.888 124.16 114.517 117.463 113.507 114.038C113.278 113.263 112.9 111.958 112.437 110.363C110.906 105.087 108.344 96.2564 107.355 93.3295L107.205 92.8854C101.955 77.3239 100.77 75.954 99.669 75.717C98.2599 75.4134 96.6579 75.2593 94.9082 75.2593C84.6657 75.2593 70.4846 80.4508 60.3913 84.8062C53.8429 87.6317 48.6334 90.2711 46.1106 91.5933C40.0708 94.759 39.682 95.3671 39.5541 95.5671C39.1505 96.1996 38.9311 97.3308 40.0492 101.292C40.6222 103.325 41.2863 105.165 41.3142 105.242C41.3182 105.253 41.3223 105.264 41.3268 105.275C41.6219 106.015 48.5726 123.439 50.5331 127.335C50.7129 127.692 50.9048 128.09 51.1124 128.521C53.1487 132.744 56.9391 140.604 66.9009 146.267C70.845 148.509 77.8768 149.958 84.8144 149.958Z" fill="#1D1D1D"/>
<path d="M41.4638 95.5249L38.7311 96.384L21.378 102.98C21.378 102.98 22.4759 108.212 28.2125 110.837C34.6401 113.776 47.9122 110.444 47.9122 110.444L41.4638 95.5249Z" fill="#C9B697"/>
<path d="M46.3861 109.669C44.253 110.122 39.7427 110.956 35.4616 110.956C32.5672 110.956 30.2819 110.582 28.6668 109.844C24.861 108.102 23.2947 105.115 22.728 103.637L39.0895 97.4172L40.8509 96.8635L46.3861 109.669ZM35.4616 113.142C41.5861 113.142 47.912 111.572 48.1782 111.505C48.489 111.427 48.7503 111.216 48.8922 110.928C49.0337 110.641 49.0423 110.306 48.9152 110.011L42.4668 95.0922C42.2447 94.5781 41.6699 94.3151 41.1361 94.4831L38.4034 95.3417C38.3826 95.348 38.3624 95.3552 38.3426 95.3629L20.9895 101.959C20.4863 102.151 20.1975 102.679 20.3079 103.206C20.3575 103.441 21.5905 109.009 27.7573 111.831C29.6597 112.701 32.2519 113.142 35.4616 113.142Z" fill="#1D1D1D"/>
<path d="M35.5731 106.685C35.6623 106.685 35.7524 106.675 35.843 106.654L44.6821 104.625C45.3295 104.477 45.7336 103.832 45.5849 103.184C45.4367 102.537 44.7916 102.132 44.1443 102.281L35.3051 104.311C34.6582 104.46 34.2536 105.104 34.4023 105.752C34.5302 106.308 35.0253 106.685 35.5731 106.685Z" fill="#1D1D1D"/>
<path d="M74.7472 113.258C74.7472 113.258 79.4765 126.061 82.3119 125.998C82.3119 125.998 86.4155 125.407 89.1257 123.714L89.6807 118.056L94.191 122.002C94.191 122.002 97.3765 121.912 99.6934 120.248L98.9965 114.599L102.477 119.083L106.341 117.514C106.341 117.514 109.619 115.889 105.72 108.894C104.122 106.026 102.599 105.253 101.553 104.477C101.553 104.477 92.708 103.529 75.1117 113.002" fill="#DFBA76"/>
<path d="M82.2923 126.109C82.2995 126.109 82.3067 126.109 82.3144 126.108C82.3685 126.101 86.4851 125.493 89.1836 123.808L89.2295 123.779L89.7687 118.278L94.1512 122.112L94.194 122.111C94.2264 122.11 97.4398 122.002 99.7576 120.337L99.8103 120.299L99.1535 114.979L102.442 119.215L106.382 117.616C106.422 117.596 107.183 117.207 107.549 116.028C107.92 114.833 107.92 112.617 105.815 108.841C104.431 106.356 103.075 105.411 102.086 104.722C101.921 104.607 101.765 104.499 101.619 104.39L101.595 104.372L101.565 104.369C101.476 104.359 92.4843 103.526 75.0596 112.905L75.1633 113.098C92.0379 104.015 100.942 104.539 101.513 104.583C101.654 104.687 101.804 104.792 101.961 104.901C102.987 105.616 104.264 106.506 105.624 108.947C107.692 112.656 107.698 114.81 107.34 115.963C107.002 117.054 106.299 117.413 106.292 117.417L102.512 118.951L98.839 114.218L99.5774 120.198C97.4627 121.685 94.6098 121.872 94.23 121.891L89.5926 117.834L89.0223 123.651C86.3617 125.29 82.3369 125.885 82.2964 125.891H82.277C79.5619 125.891 74.8966 113.348 74.8497 113.221L74.6447 113.297C74.8384 113.821 79.4105 126.109 82.2923 126.109Z" fill="#1D1D1D"/>
<path d="M82.2828 127.092C82.3009 127.092 82.318 127.092 82.336 127.091C82.3797 127.09 82.4239 127.086 82.468 127.081C82.6446 127.055 86.8319 126.435 89.7047 124.642C89.9926 124.462 90.1805 124.159 90.2134 123.821L90.5607 120.278L93.4709 122.824C93.6781 123.006 93.9466 123.099 94.2219 123.095C94.3651 123.09 97.7713 122.974 100.331 121.136C100.656 120.902 100.827 120.511 100.778 120.114L100.568 118.406L101.614 119.753C101.914 120.139 102.434 120.28 102.888 120.096L106.752 118.527C106.777 118.516 106.802 118.505 106.826 118.493C106.946 118.434 108.007 117.87 108.489 116.32C109.111 114.315 108.5 111.637 106.674 108.361C105.103 105.541 103.426 104.323 102.316 103.517C102.216 103.444 102.12 103.375 102.029 103.308C101.545 102.948 100.86 103.049 100.5 103.535C100.141 104.019 100.242 104.704 100.727 105.063C100.824 105.135 100.925 105.209 101.032 105.287C102.043 106.02 103.428 107.026 104.765 109.425C107.293 113.961 106.599 116.039 105.854 116.532L102.833 117.759L99.8598 113.928C99.558 113.54 99.034 113.401 98.5795 113.588C98.1245 113.775 97.8515 114.244 97.9114 114.732L98.525 119.701C97.0595 120.543 95.3377 120.802 94.5669 120.879L90.4008 117.234C90.0922 116.964 89.6592 116.889 89.2781 117.039C88.8975 117.19 88.633 117.542 88.5934 117.949L88.0924 123.052C85.8688 124.268 82.8807 124.8 82.268 124.9C82.0995 124.837 80.8579 124.228 78.3581 118.984C76.9057 115.938 75.7836 112.91 75.7723 112.88C75.5633 112.313 74.9344 112.025 74.3686 112.234C73.8023 112.442 73.5131 113.071 73.7221 113.637C73.7707 113.77 74.9402 116.923 76.4814 120.126C79.4303 126.253 81.1309 127.092 82.2828 127.092Z" fill="#1D1D1D"/>
<path d="M58.3962 86.5904C58.3962 86.5904 78.026 75.2182 90.7516 78.1752C90.7516 78.1752 98.1712 88.8145 101.32 103.963C101.32 103.963 89.7952 105.124 74.9527 113.631C74.9527 113.631 60.5441 91.8792 58.3962 86.5904Z" fill="#90826A"/>
<path d="M100.002 103.041C96.7217 103.562 87.173 105.543 75.3029 112.177C72.7792 108.341 62.5007 92.6283 59.8054 87.0588C63.1859 85.2302 75.8471 78.7769 86.1247 78.7769C87.5455 78.7769 88.8763 78.9017 90.0877 79.1486C91.3229 81.0353 97.1465 90.3812 100.002 103.041ZM74.9533 114.724C75.1385 114.724 75.3254 114.677 75.4966 114.579C89.9687 106.284 101.317 105.062 101.43 105.05C101.738 105.019 102.019 104.859 102.201 104.609C102.385 104.36 102.453 104.044 102.39 103.74C99.2323 88.5468 91.9563 77.9913 91.6477 77.5498C91.4932 77.3281 91.2617 77.1714 90.999 77.1101C89.5164 76.7659 87.8762 76.5911 86.1247 76.5911C73.6189 76.5911 58.4864 85.2744 57.848 85.6443C57.3768 85.9177 57.1781 86.4961 57.3836 87.0011C59.5473 92.33 73.4509 113.342 74.0415 114.234C74.251 114.55 74.5983 114.724 74.9533 114.724Z" fill="#1D1D1D"/>
<path d="M71.2431 81.1891C71.2431 81.1891 81.5522 97.2997 85.6949 108.399Z" fill="#1D1D1D"/>
<path d="M85.6948 109.273C85.7966 109.273 85.8998 109.256 86.0007 109.218C86.4526 109.049 86.6828 108.545 86.5138 108.093C82.3864 97.0349 72.0831 80.8797 71.9795 80.7175C71.7196 80.3107 71.179 80.1918 70.7722 80.4522C70.3654 80.7126 70.2465 81.2532 70.5069 81.6604C70.6096 81.8203 80.8137 97.8214 84.8754 108.704C85.0065 109.056 85.3403 109.273 85.6948 109.273Z" fill="#1D1D1D"/>
<path d="M84.6893 78.6871C84.6893 78.6871 92.0774 93.2439 95.1007 104.912Z" fill="#1D1D1D"/>
<path d="M95.1002 105.787C95.1731 105.787 95.2466 105.778 95.32 105.759C95.7876 105.638 96.0683 105.16 95.9471 104.693C92.9351 93.0679 85.5434 78.4381 85.469 78.2917C85.2505 77.861 84.7244 77.6889 84.2937 77.9078C83.863 78.1263 83.6914 78.6525 83.9099 79.0832C83.9833 79.2278 91.2899 93.6918 94.2546 105.132C94.3564 105.526 94.7114 105.787 95.1002 105.787Z" fill="#1D1D1D"/>
<path d="M91.1927 92.5405C91.2571 92.5405 91.3229 92.5324 91.3887 92.5148C92.1586 92.3117 93.1478 92.0698 93.1578 92.0671C93.5686 91.9666 93.8195 91.553 93.7191 91.1422C93.6191 90.7318 93.2046 90.4813 92.7947 90.5809C92.7843 90.5836 91.7815 90.8287 90.9981 91.0359C90.5895 91.1435 90.3458 91.5621 90.4534 91.9707C90.544 92.3139 90.8539 92.5405 91.1927 92.5405Z" fill="#1D1D1D"/>
<path d="M91.386 86.8491C91.4887 86.8491 91.5924 86.8284 91.6919 86.7847C92.0789 86.6158 92.2559 86.1648 92.087 85.7774C91.2806 83.9313 88.5934 78.6956 88.4794 78.4735C88.2862 78.0974 87.8253 77.9496 87.4492 78.1424C87.0734 78.3357 86.9252 78.7965 87.118 79.1723C87.146 79.2268 89.8971 84.5872 90.6846 86.3901C90.8103 86.6779 91.091 86.8491 91.386 86.8491Z" fill="#1D1D1D"/>
<path d="M98.1984 105.013C98.2746 105.013 98.3525 105.001 98.4291 104.977C98.8318 104.85 99.0553 104.42 98.9278 104.017C98.9143 103.974 97.5668 99.7212 96.2618 96.3501C96.109 95.9564 95.6662 95.7605 95.272 95.9132C94.8783 96.0659 94.6823 96.5087 94.835 96.9029C96.1226 100.229 97.456 104.436 97.4691 104.478C97.5722 104.804 97.8736 105.013 98.1984 105.013Z" fill="#1D1D1D"/>
<path d="M90.8436 106.033C90.8436 106.033 86.2152 92.7553 82.7798 86.6485Z" fill="#1D1D1D"/>
<path d="M90.8436 106.908C90.9391 106.908 91.0364 106.892 91.1319 106.859C91.5874 106.7 91.8284 106.202 91.6693 105.746C91.4792 105.2 86.9761 92.3248 83.542 86.2202C83.3055 85.7994 82.7721 85.6498 82.3513 85.8868C81.9305 86.1233 81.781 86.6567 82.0179 87.0775C85.3764 93.0479 89.9719 106.19 90.0183 106.321C90.144 106.682 90.4823 106.908 90.8436 106.908Z" fill="#1D1D1D"/>
<path d="M64.9497 84.0571C64.9497 84.0571 72.036 92.1822 76.9333 103.436Z" fill="#1D1D1D"/>
<path d="M76.9335 104.311C77.0501 104.311 77.1682 104.288 77.2817 104.238C77.7245 104.046 77.9273 103.531 77.7349 103.088C72.8407 91.8405 65.6806 83.5649 65.6085 83.4829C65.2913 83.1185 64.739 83.0811 64.375 83.3987C64.011 83.7158 63.9732 84.2677 64.2908 84.6321C64.3606 84.7123 71.3491 92.7955 76.1311 103.785C76.2744 104.115 76.596 104.311 76.9335 104.311Z" fill="#1D1D1D"/>
<path d="M52.2172 127.648C52.3303 127.648 52.4451 127.632 52.5591 127.598C52.8249 127.52 59.1607 125.602 67.7588 119.693C68.3057 119.317 68.4445 118.568 68.0687 118.021C67.6921 117.474 66.9439 117.335 66.397 117.711C58.1092 123.407 51.937 125.275 51.8757 125.293C51.2392 125.482 50.8761 126.151 51.0648 126.788C51.2198 127.31 51.6987 127.648 52.2172 127.648Z" fill="#1D1D1D"/>
<path d="M56.4329 134.987C56.5658 134.987 56.7014 134.964 56.8338 134.917C57.1942 134.79 65.7342 131.736 72.2056 126.569C72.7246 126.155 72.8093 125.399 72.3953 124.88C71.9808 124.361 71.2244 124.276 70.7055 124.691C64.5576 129.599 56.1162 132.621 56.0315 132.651C55.4058 132.873 55.0782 133.559 55.2999 134.185C55.4747 134.678 55.9382 134.987 56.4329 134.987Z" fill="#1D1D1D"/>
<path d="M61.5345 141.157C61.6476 141.157 61.7624 141.141 61.8773 141.107C62.1994 141.011 69.8285 138.707 74.8313 134.014C75.3156 133.56 75.3399 132.799 74.8858 132.315C74.4313 131.83 73.6704 131.805 73.1865 132.26C68.605 136.558 61.2651 138.78 61.1917 138.802C60.5556 138.992 60.1929 139.661 60.3826 140.297C60.538 140.819 61.016 141.157 61.5345 141.157Z" fill="#1D1D1D"/>
<path d="M118.951 111.55C132.313 102.794 136.06 84.4725 136.06 84.4725L157.749 118.704C157.749 118.704 139.337 113.882 125.709 122.221L118.951 111.55Z" fill="#D52527"/>
<path d="M145.439 116.661C137.809 116.661 131.247 118.231 125.922 121.33L119.846 111.739C126.565 107.12 130.759 100.122 133.112 95.0013C134.849 91.2198 135.847 87.9474 136.332 86.1279L156.349 117.72C154.262 117.303 150.273 116.661 145.439 116.661ZM125.71 122.876C125.827 122.876 125.945 122.845 126.052 122.78C131.264 119.59 137.787 117.972 145.439 117.972C152.278 117.972 157.531 119.325 157.583 119.338C157.844 119.406 158.12 119.309 158.279 119.091C158.438 118.873 158.447 118.581 158.303 118.354L136.614 84.1214C136.47 83.8957 136.204 83.779 135.941 83.8272C135.678 83.8759 135.471 84.0786 135.417 84.3408C135.38 84.5214 131.563 102.5 118.591 111.002C118.292 111.199 118.205 111.599 118.397 111.902L125.156 122.571C125.28 122.769 125.493 122.876 125.71 122.876Z" fill="#1D1D1D"/>
<path d="M118.651 127.278C118.651 127.278 125.352 134.615 128.905 142.771L135.183 138.795C135.183 138.795 124.771 125.6 128.381 121.116L118.651 127.278Z" fill="#989795"/>
<path d="M134.226 138.625L129.195 141.812C126.174 135.241 121.246 129.269 119.65 127.421L127.024 122.751C126.716 124.94 127.662 128.023 129.855 131.957C131.503 134.912 133.386 137.509 134.226 138.625ZM128.905 143.427C129.028 143.427 129.15 143.393 129.256 143.325L135.534 139.349C135.69 139.25 135.797 139.088 135.829 138.905C135.86 138.723 135.812 138.534 135.697 138.389C132.892 134.832 126.201 124.87 128.892 121.527C129.093 121.277 129.084 120.918 128.87 120.679C128.657 120.44 128.301 120.39 128.031 120.562L118.301 126.724C118.137 126.828 118.027 126.999 118.002 127.191C117.975 127.383 118.036 127.577 118.167 127.72C118.234 127.792 124.837 135.075 128.304 143.034C128.381 143.209 128.53 143.343 128.713 143.398C128.776 143.417 128.841 143.427 128.905 143.427Z" fill="#1D1D1D"/>
<path d="M137.945 84.6595C141.614 82.3372 148.958 88.1099 154.773 97.2887C160.586 106.467 162.217 115.56 158.999 117.897C155.486 120.451 147.3 114.883 141.487 105.704C135.673 96.526 134.276 86.9845 137.945 84.6595Z" fill="#D52527"/>
<path d="M139.826 84.6918C143.547 84.6918 149.504 89.9923 154.311 97.5813C160.292 107.023 161.397 115.479 158.678 117.455C158.207 117.798 157.613 117.972 156.914 117.972C152.918 117.972 146.484 112.573 141.948 105.412C135.918 95.8906 135.153 87.0767 138.238 85.1216C138.688 84.8364 139.222 84.6918 139.826 84.6918ZM156.913 119.065C157.845 119.068 158.658 118.82 159.321 118.34C162.943 115.707 161.148 106.333 155.234 96.9966C150.158 88.9827 143.966 83.5993 139.826 83.5993C139.012 83.5993 138.281 83.8003 137.653 84.198C135.661 85.4608 134.939 88.48 135.621 92.6993C136.286 96.8236 138.206 101.546 141.025 105.997C145.821 113.569 152.503 119.065 156.913 119.065Z" fill="#1D1D1D"/>
<path d="M144.83 113.148C145.112 113.148 145.35 112.933 145.374 112.649C145.679 109.073 151.185 105.122 151.241 105.082C151.486 104.907 151.545 104.566 151.37 104.32C151.195 104.074 150.854 104.016 150.608 104.191C150.364 104.364 144.634 108.475 144.285 112.556C144.26 112.856 144.483 113.121 144.784 113.146C144.799 113.148 144.815 113.148 144.83 113.148Z" fill="#1D1D1D"/>
<path d="M144.83 112.602C145.16 108.727 150.924 104.636 150.924 104.636L146.253 97.2609C146.253 97.2609 140.058 100.672 136.415 99.3151C136.415 99.3151 136.01 106.314 144.83 112.602Z" fill="#D52527"/>
<path d="M149.9 104.45C148.556 105.5 145.305 108.28 144.331 111.276C138.687 106.876 137.491 102.262 137.241 100.314C137.606 100.371 137.992 100.4 138.398 100.4C141.305 100.4 144.611 98.9365 145.98 98.2617L149.9 104.45ZM144.83 113.367C144.939 113.367 145.048 113.344 145.151 113.296C145.4 113.181 145.569 112.941 145.592 112.668C145.888 109.193 151.312 105.299 151.367 105.26C151.698 105.024 151.788 104.571 151.571 104.227L146.898 96.8516C146.682 96.5102 146.238 96.3957 145.884 96.5908C145.842 96.6138 141.699 98.8694 138.398 98.8694C137.741 98.8694 137.164 98.7788 136.681 98.5991C136.453 98.5144 136.199 98.5423 135.996 98.6757C135.793 98.8081 135.664 99.0293 135.651 99.2717C135.633 99.5749 135.325 106.767 144.386 113.225C144.517 113.319 144.673 113.367 144.83 113.367Z" fill="#1D1D1D"/>
<path d="M153.985 82.3965L160.218 71.8802L157.057 70.6967L152.65 80.6639L153.985 82.3965Z" fill="#FFAE00"/>
<path d="M159.094 72.2763L153.902 81.0353L153.534 80.5573L157.465 71.6664L159.094 72.2763ZM153.985 83.1616C154 83.1616 154.016 83.1612 154.031 83.1598C154.284 83.1445 154.514 83.0044 154.643 82.7864L160.876 72.27C160.991 72.0754 161.015 71.8394 160.94 71.6258C160.864 71.4123 160.698 71.2429 160.486 71.1636L157.325 69.9802C156.946 69.8387 156.522 70.0167 156.358 70.3874L151.951 80.3546C151.837 80.6105 151.873 80.9087 152.045 81.1308L153.379 82.8629C153.524 83.0517 153.748 83.1616 153.985 83.1616Z" fill="#1D1D1D"/>
<path d="M161.582 90.4768L172.066 84.1915L172.872 87.2008L162.822 92.3662L161.582 90.4768Z" fill="#FFAE00"/>
<path d="M171.973 86.8018L163.085 91.3707L162.659 90.7229L171.59 85.3684L171.973 86.8018ZM162.823 93.1304C162.941 93.1304 163.061 93.1029 163.172 93.0457L173.222 87.8808C173.542 87.7159 173.704 87.3501 173.611 87.0023L172.805 83.993C172.744 83.761 172.576 83.5718 172.354 83.4817C172.132 83.3916 171.879 83.4114 171.673 83.5344L161.189 89.8201C161.01 89.9269 160.882 90.1026 160.836 90.3058C160.789 90.5089 160.828 90.722 160.943 90.8964L162.183 92.7853C162.329 93.0074 162.572 93.1304 162.823 93.1304Z" fill="#1D1D1D"/>
<path d="M178.899 103.847L166.676 103.65L166.895 105.885L179.235 108.174L178.899 103.847Z" fill="#FFAE00"/>
<path d="M178.19 104.601L178.395 107.24L167.6 105.238L167.521 104.429L178.19 104.601ZM179.235 108.938C179.422 108.938 179.605 108.87 179.747 108.743C179.923 108.583 180.016 108.351 179.998 108.114L179.662 103.788C179.631 103.395 179.306 103.089 178.911 103.082L166.688 102.884C166.47 102.878 166.261 102.971 166.113 103.131C165.965 103.292 165.893 103.507 165.914 103.724L166.133 105.96C166.167 106.299 166.42 106.575 166.755 106.637L179.095 108.926C179.142 108.934 179.189 108.938 179.235 108.938Z" fill="#1D1D1D"/>
<path d="M146.879 102.069C148.213 104.173 149.961 105.457 150.784 104.935C151.608 104.412 151.194 102.284 149.861 100.18C148.528 98.0749 146.78 96.7919 145.956 97.3141C145.132 97.8348 145.546 99.9643 146.879 102.069Z" fill="#D52527"/>
<path d="M150.374 104.285C150.369 104.286 150.362 104.286 150.353 104.286C149.884 104.286 148.661 103.451 147.526 101.659C146.264 99.6685 146.184 98.2138 146.366 97.9634C146.371 97.9629 146.378 97.9625 146.387 97.9625C146.856 97.9625 148.079 98.7972 149.215 100.589C150.477 102.581 150.556 104.034 150.374 104.285ZM150.353 105.816C150.665 105.816 150.947 105.737 151.193 105.581C152.661 104.65 151.867 101.916 150.507 99.7703C149.532 98.2305 147.867 96.4321 146.387 96.4321C146.075 96.4321 145.793 96.5114 145.546 96.6677C145.151 96.9178 144.536 97.5849 144.858 99.2432C145.05 100.232 145.538 101.381 146.233 102.477C147.209 104.018 148.873 105.816 150.353 105.816Z" fill="#1D1D1D"/>
<path d="M135.064 98.2651C135.064 98.2651 137.741 108.199 144.82 113.976L132.69 113.646L130.559 102.879L135.064 98.2651Z" fill="#D52527"/>
<path d="M159.507 117.575C161.717 115.939 160.332 106.503 154.519 97.3255C148.705 88.1467 141.171 83.3958 138.155 84.8198C134.501 86.5452 135.79 96.4516 141.603 105.631C147.417 114.807 155.821 120.304 159.507 117.575ZM136.568 82.6534C141.297 79.6585 149.983 85.8708 156.515 96.1831C163.048 106.496 164.954 117.005 160.226 120C155.497 122.994 145.927 117.342 139.394 107.028C132.862 96.716 131.841 85.6478 136.568 82.6534Z" fill="#D52527"/>
<path d="M139.392 85.4456C142.62 85.4456 148.884 90.0646 153.78 97.7941C159.832 107.347 160.377 115.844 158.987 116.873C158.511 117.225 157.907 117.403 157.189 117.403C153.751 117.403 147.378 113.113 142.342 105.164C137.735 97.8905 136.303 90.7137 137.27 87.3841C137.533 86.4777 137.956 85.8813 138.528 85.611C138.76 85.5015 139.051 85.4456 139.392 85.4456ZM157.189 119.151C158.29 119.151 159.244 118.858 160.027 118.279C162.057 116.776 161.298 112.055 160.877 110.095C159.963 105.836 157.967 101.135 155.258 96.8585C149.785 88.218 143.134 83.6973 139.392 83.6973C138.791 83.6973 138.249 83.809 137.781 84.0297C136.751 84.5163 135.993 85.5078 135.591 86.8967C134.316 91.2876 136.484 99.1844 140.865 106.099C145.656 113.662 152.521 119.151 157.189 119.151ZM139.306 82.7742C143.9 82.7742 150.519 88.3513 155.776 96.6517C158.915 101.606 161.03 106.694 161.73 110.978C162.403 115.089 161.702 118.03 159.758 119.262C159.062 119.703 158.213 119.926 157.235 119.926C152.231 119.926 145.038 114.306 140.133 106.561C137.079 101.74 135.124 96.5697 134.628 92.003C134.171 87.79 135.048 84.6519 137.036 83.3927C137.684 82.9823 138.448 82.7742 139.306 82.7742ZM157.235 121.675H157.235C158.55 121.675 159.714 121.36 160.694 120.74C163.268 119.109 164.249 115.542 163.456 110.695C162.718 106.185 160.516 100.865 157.254 95.716C151.601 86.7917 144.556 81.0254 139.306 81.0254C138.112 81.0254 137.033 81.325 136.101 81.9156C133.49 83.5689 132.35 87.2188 132.89 92.1918C133.413 97.0184 135.461 102.454 138.656 107.497C143.943 115.845 151.583 121.675 157.235 121.675Z" fill="#1D1D1D"/>
<path d="M120.975 137.912C120.975 137.912 123.739 140.485 125.307 139.711C129.541 137.625 123.156 133.997 123.156 133.997" fill="#DFBA76"/>
<path d="M124.651 140.946C125.042 140.946 125.427 140.871 125.791 140.691C127.451 139.873 127.826 138.788 127.849 138.021C127.921 135.573 124.402 133.447 123.696 133.046C123.172 132.749 122.504 132.932 122.206 133.456C121.908 133.981 122.091 134.649 122.616 134.947C124.075 135.779 125.686 137.22 125.664 137.957C125.654 138.286 125.073 138.608 124.823 138.73C124.329 138.974 122.721 138.045 121.72 137.111C121.279 136.7 120.587 136.725 120.175 137.166C119.764 137.609 119.789 138.3 120.231 138.711C120.69 139.139 122.744 140.946 124.651 140.946Z" fill="#1D1D1D"/>
<path d="M121.015 131.485C121.015 131.485 117.575 132.864 120.653 138.046L123.156 133.996L121.015 131.485Z" fill="#C9B697"/>
<path d="M122.212 134.069L120.707 136.504C120.156 135.277 120.001 134.226 120.262 133.424C120.404 132.986 120.649 132.685 120.867 132.491L122.212 134.069ZM120.653 138.811C120.918 138.811 121.164 138.675 121.304 138.449L123.807 134.398C123.982 134.116 123.954 133.753 123.739 133.5L121.597 130.989C121.384 130.739 121.035 130.654 120.73 130.776C120.674 130.798 119.351 131.344 118.822 132.906C118.313 134.408 118.708 136.269 119.995 138.437C120.132 138.667 120.378 138.809 120.646 138.811H120.653Z" fill="#1D1D1D"/>
<path d="M128.032 126.864C128.032 126.864 133.307 132.283 131.89 137.196C131.89 137.196 130.018 139.548 126.187 138.967C122.778 138.45 127.976 132.611 127.976 132.611C127.976 132.611 124.624 133.975 122.612 132.66C120.599 131.346 124.663 127.393 128.032 126.864Z" fill="#DFBA76"/>
<path d="M131.199 136.821C130.861 137.173 129.609 138.294 127.379 138.294C127.03 138.294 126.668 138.266 126.301 138.211C126.024 138.169 125.862 138.088 125.82 137.971C125.545 137.21 127.009 134.848 128.548 133.119C128.784 132.853 128.806 132.46 128.601 132.169C128.396 131.878 128.017 131.768 127.688 131.902C127.675 131.907 126.272 132.466 124.838 132.466C124.093 132.466 123.484 132.316 123.03 132.019C122.898 131.933 122.795 131.837 122.861 131.531C123.13 130.273 125.565 128.228 127.758 127.699C128.765 128.844 132.155 133.056 131.199 136.821ZM127.379 139.824C130.737 139.824 132.419 137.76 132.488 137.672C132.551 137.593 132.597 137.503 132.625 137.407C134.149 132.129 128.809 126.564 128.581 126.331C128.408 126.153 128.159 126.07 127.914 126.108C125.118 126.547 121.813 129.121 121.364 131.209C121.179 132.073 121.481 132.836 122.193 133.301C122.9 133.762 123.79 133.996 124.838 133.996C125.222 133.996 125.601 133.965 125.958 133.916C124.938 135.351 123.922 137.219 124.381 138.491C124.551 138.962 124.982 139.558 126.072 139.723C126.514 139.79 126.953 139.824 127.379 139.824Z" fill="#1D1D1D"/>
<path d="M109.246 141.343C109.246 141.343 119.292 159.081 116.168 178.288C115.719 181.051 99.9803 187.535 100.205 185.459C100.499 182.731 101.671 164.848 95.9579 147.602C95.9579 147.602 103.974 145.972 109.246 141.343Z" fill="#D52527"/>
<path d="M100.295 186.293C100.877 186.293 101.362 185.834 101.386 185.246C101.788 175.496 101.398 161.311 97.3596 148.39C99.6377 147.795 104.742 146.206 108.858 143.071C110.892 147.519 117.413 163.277 115.152 178.058C115.061 178.654 115.471 179.212 116.068 179.303C116.665 179.395 117.222 178.985 117.313 178.388C118.759 168.935 116.752 159.23 114.814 152.753C112.72 145.756 110.319 141.042 110.218 140.844C110.064 140.544 109.781 140.333 109.45 140.269C109.119 140.207 108.778 140.299 108.525 140.522C103.529 144.909 95.8175 146.514 95.7405 146.531C95.4341 146.592 95.1693 146.783 95.012 147.054C94.8557 147.324 94.8224 147.648 94.9201 147.945C99.1953 160.85 99.6084 175.303 99.2016 185.156C99.1769 185.759 99.6458 186.268 100.249 186.293C100.264 186.293 100.279 186.293 100.295 186.293Z" fill="#1D1D1D"/>
<path d="M67.1929 146.659C67.1929 146.659 64.48 157.056 70.5716 158.16C79.5617 159.79 81.6164 148.772 81.6164 148.772C87.4638 147.754 93.2401 149.842 93.2401 149.842C93.9352 163.988 87.1922 178.173 71.6478 177.824C55.521 177.465 45.7521 161.783 45.7521 161.783C45.7521 161.783 34.2762 145.853 54.529 134.372C54.529 134.372 57.5748 141.705 67.1929 146.659Z" fill="#C9B697"/>
<path d="M72.1913 178.923C78.0508 178.923 83.145 176.866 86.9544 172.954C92.1063 167.663 94.7953 159.22 94.3317 149.789C94.3101 149.349 94.0263 148.965 93.6118 148.815C93.365 148.725 87.4923 146.64 81.4291 147.696C80.98 147.773 80.6268 148.122 80.5425 148.57C80.5322 148.624 79.4343 154.2 75.9232 156.438C74.4505 157.377 72.7877 157.593 70.8393 157.101C67.5025 156.258 66.4474 153.294 66.4042 153.169C66.2082 152.599 65.5893 152.293 65.0194 152.486C64.4495 152.678 64.1423 153.292 64.3315 153.863C64.3887 154.034 65.7803 158.077 70.3037 159.22C72.8355 159.861 75.1244 159.543 77.1066 158.276C80.5781 156.057 82.0476 151.549 82.5143 149.742C86.6274 149.205 90.6169 150.19 92.1788 150.651C92.4392 159.169 89.9831 166.711 85.388 171.428C81.8409 175.073 77.2255 176.856 71.6727 176.732C56.314 176.39 46.7743 161.357 46.6797 161.205C46.6748 161.197 46.6703 161.19 46.6649 161.182C46.6225 161.118 42.3942 154.545 44.2444 147.323C45.4945 142.444 49.2102 138.328 55.2887 135.091C55.8216 134.808 56.0234 134.146 55.7396 133.613C55.4558 133.08 54.794 132.879 54.2616 133.162C47.6087 136.705 43.5236 141.295 42.1207 146.804C40.0629 154.885 44.5444 161.933 44.8318 162.373C45.0116 162.659 47.4785 166.529 51.9262 170.486C57.9552 175.849 64.7671 178.764 71.6236 178.917C71.8137 178.921 72.0034 178.923 72.1913 178.923Z" fill="#1D1D1D"/>
<path d="M46.3445 177.338C45.6287 171.631 45.6453 161.087 49.0646 136.286C49.0646 136.286 51.8433 134.766 55.4517 134.013C55.4517 134.013 64.067 152.059 91.1998 148.416C91.1998 148.416 95.2313 174.433 92.3171 187.265C92.3171 187.265 65.6626 190.522 46.3445 177.338Z" fill="#D52527"/>
<path d="M92.5313 188C93.0606 188 93.5255 187.614 93.6097 187.075C95.8145 172.913 92.4272 149.259 92.2817 148.258C92.1956 147.666 91.6483 147.254 91.0545 147.333C77.3991 149.166 68.6938 145.281 63.796 141.699C58.5338 137.85 56.4583 133.585 56.4381 133.542C56.2209 133.088 55.7213 132.841 55.228 132.943C51.5038 133.72 48.6594 135.261 48.5404 135.326C48.2976 135.459 48.1138 135.679 48.0269 135.941C42.0114 154.12 44.2116 170.057 45.1509 176.863L45.1762 177.044C45.2586 177.642 45.8104 178.061 46.4078 177.977C47.0061 177.895 47.4241 177.343 47.3412 176.745L47.3165 176.564C46.4047 169.962 44.2801 154.574 49.9631 137.054C50.7272 136.679 52.5908 135.832 54.8879 135.263C55.7763 136.781 58.1171 140.254 62.5058 143.463C66.8134 146.614 73.8596 149.988 84.266 149.988C86.1536 149.988 88.1506 149.878 90.2635 149.634C90.9018 154.456 93.3449 174.566 91.4501 186.739C91.3568 187.335 91.7654 187.894 92.3619 187.986C92.4186 187.995 92.4754 188 92.5313 188Z" fill="#1D1D1D"/>
<path d="M94.2523 150.708C94.2523 150.708 96.8098 143.376 92.34 139.258C87.7819 135.059 87.7003 147.4 87.7003 147.4C87.7003 147.4 88.0774 141.463 85.0019 140.726C81.9263 139.991 81.2664 147.88 82.6579 152.345" fill="#DFBA76"/>
<path d="M82.6577 153.438C82.7654 153.438 82.8748 153.422 82.983 153.388C83.5591 153.209 83.8808 152.597 83.701 152.02C82.6464 148.634 82.9217 143.382 84.2272 141.985C84.4538 141.743 84.5971 141.753 84.748 141.789C86.1571 142.127 86.5937 144.745 86.6252 146.52C86.6135 146.863 86.6085 147.159 86.6072 147.393C86.6031 147.985 87.0703 148.472 87.6618 148.493C88.2519 148.515 88.7529 148.06 88.7903 147.469C88.7988 147.339 88.8151 147.021 88.8119 146.582C88.9344 143.384 89.6192 139.896 90.5364 139.498C90.7225 139.418 91.1396 139.638 91.5996 140.062C95.4788 143.636 93.243 150.284 93.22 150.35C93.0227 150.92 93.3245 151.542 93.8939 151.74C94.4638 151.938 95.0855 151.638 95.2842 151.068C95.3981 150.741 98.0214 143.006 93.0803 138.454C91.5892 137.081 90.4003 137.174 89.6651 137.493C88.5204 137.99 87.8023 139.411 87.3528 141.053C86.8455 140.391 86.1661 139.881 85.2566 139.663C84.2808 139.43 83.3483 139.725 82.6307 140.493C80.598 142.667 80.4156 148.824 81.6148 152.67C81.7603 153.138 82.1919 153.438 82.6577 153.438Z" fill="#1D1D1D"/>
<path d="M94.6402 157.895C94.6402 157.895 95.7304 154.731 95.0646 152.769C94.3983 150.807 82.4981 149.19 80.4852 149.508C78.4715 149.824 78.6702 154.754 78.6702 154.754C78.6702 154.754 88.1423 163.451 94.6402 157.895Z" fill="#D52527"/>
<path d="M93.697 157.255C92.5009 158.198 91.149 158.656 89.5745 158.656C85.3372 158.656 80.9881 155.281 79.7537 154.246C79.7573 152.336 80.2286 150.653 80.6547 150.587C80.7061 150.579 80.8606 150.56 81.1994 150.56C82.5693 150.56 85.5219 150.862 88.5141 151.44C92.2712 152.165 93.7551 152.882 94.0511 153.186C94.4115 154.368 93.9714 156.336 93.697 157.255ZM89.5745 160.842C91.7644 160.842 93.7074 160.131 95.3503 158.726L95.5765 158.532L95.6733 158.251C95.7977 157.891 96.8635 154.668 96.0995 152.418C95.7963 151.525 94.7557 150.465 89.334 149.373C86.4585 148.795 83.0369 148.374 81.1994 148.374C80.8318 148.374 80.5426 148.392 80.3151 148.427C77.4837 148.873 77.5382 153.812 77.5779 154.798L77.5963 155.252L77.931 155.558C78.1657 155.775 83.7528 160.842 89.5745 160.842Z" fill="#1D1D1D"/>
<path d="M51.8793 136.625C51.8793 136.625 48.279 134.225 42.7068 140.741C42.7068 140.741 31.7292 154.812 52.2226 171.259C52.2226 171.259 82.4558 193.166 93.9001 168.733C93.9001 168.733 97.5009 162.819 94.9146 157.114C94.9146 157.114 84.8848 158.657 78.7126 153.513C78.7126 153.513 76.3975 150.813 72.2831 156.6C72.2831 156.6 67.1682 156.09 65.883 153.261C65.883 153.261 59.0805 138.682 51.8793 136.625Z" fill="white"/>
<path d="M94.2131 158.295C95.9272 163.166 92.9968 168.115 92.9657 168.166C92.9459 168.199 92.9269 168.235 92.9107 168.269C89.5144 175.519 84.0387 179.195 76.6339 179.195C65.4044 179.194 53.4501 170.791 52.8834 170.388C44.8474 163.931 40.6925 156.878 40.8682 149.989C40.9962 144.983 43.3685 141.682 43.5586 141.426C46.4917 138.005 48.7127 137.286 50.0597 137.286C50.7877 137.286 51.2089 137.5 51.2832 137.541C51.3828 137.614 51.458 137.641 51.5792 137.676C58.224 139.575 64.8269 153.581 64.8927 153.723C66.3905 157.019 71.587 157.629 72.1744 157.687C72.565 157.726 72.9466 157.553 73.1736 157.233C75.1883 154.4 76.5312 153.976 77.152 153.976C77.6151 153.976 77.8809 154.222 77.8827 154.225C77.9223 154.27 77.966 154.313 78.0129 154.353C82.0502 157.717 87.53 158.424 91.4155 158.424C92.5954 158.424 93.5666 158.357 94.2131 158.295ZM76.6339 181.38C84.9437 181.381 91.0781 177.299 94.8668 169.246C95.2655 168.568 98.5969 162.588 95.9106 156.663C95.7078 156.216 95.233 155.958 94.7487 156.033C94.7366 156.035 93.3833 156.238 91.4155 156.238C87.9062 156.238 82.9895 155.625 79.4576 152.711C79.2013 152.454 78.4179 151.791 77.152 151.791C75.4243 151.791 73.6214 153.014 71.7879 155.427C70.2756 155.169 67.6033 154.404 66.878 152.808C66.5888 152.188 59.8507 137.907 52.3094 135.612C51.9747 135.435 51.1949 135.1 50.0597 135.1C48.2496 135.1 45.3606 135.956 41.8764 140.03C41.8656 140.042 41.8553 140.055 41.8449 140.068C41.7242 140.223 38.8793 143.934 38.6874 149.796C38.5126 155.131 40.5997 163.332 51.5386 172.111C51.5526 172.122 51.5666 172.134 51.5814 172.144C52.1018 172.521 64.4696 181.38 76.6339 181.38Z" fill="#1D1D1D"/>
<path d="M51.8061 144.646C47.7796 144.555 44.4437 147.745 44.3531 151.774C44.2617 155.801 47.4503 159.14 51.4759 159.231C55.5011 159.322 58.8374 156.131 58.9293 152.103C59.0199 148.075 55.8313 144.737 51.8061 144.646ZM51.4813 158.982C47.5895 158.894 44.5135 155.673 44.6 151.778C44.6887 147.884 47.908 144.797 51.7998 144.885C55.6921 144.972 58.7685 148.203 58.6811 152.098C58.5924 155.992 55.3736 159.07 51.4813 158.982Z" fill="#D12527"/>
<path d="M48.9067 152.545C48.8549 152.325 48.8315 152.094 48.8364 151.865C48.8558 150.997 49.2743 150.233 49.8955 149.74C49.7834 149.633 49.5383 149.494 49.2094 149.706C49.1617 149.734 49.0946 149.742 49.0378 149.721C49.0279 149.711 48.6026 149.531 48.271 149.848C48.1345 149.978 48.0845 150.072 48.035 150.157C47.9652 150.308 47.8859 150.421 47.6737 150.53C47.7737 150.753 47.7611 150.886 47.7282 151.057C47.707 151.153 47.6854 151.258 47.7097 151.439C47.7764 151.899 48.2125 152.024 48.231 152.024C48.2877 152.034 48.335 152.083 48.3625 152.141C48.4882 152.498 48.754 152.551 48.9067 152.545ZM54.4262 153.673C54.5401 153.284 54.3347 153.088 54.2032 153.008C53.7995 153.974 52.858 154.659 51.7691 154.72C51.8029 154.864 51.9223 155.116 52.3039 155.133C52.3706 155.134 52.417 155.174 52.4449 155.222C52.4534 155.241 52.6922 155.639 53.1522 155.573C53.3346 155.548 53.4306 155.503 53.5175 155.458C53.672 155.385 53.7968 155.33 54.0351 155.372C54.0788 155.135 54.1761 155.033 54.2933 154.92C54.3712 154.845 54.4496 154.771 54.5388 154.61C54.7582 154.206 54.4703 153.847 54.4608 153.836C54.4149 153.787 54.4063 153.729 54.4262 153.673ZM49.013 152.91C48.8779 152.983 48.6824 153.18 48.7788 153.555C48.7968 153.602 48.7765 153.669 48.7373 153.716C48.7274 153.725 48.4242 154.063 48.6238 154.487C48.7062 154.651 48.781 154.73 48.8468 154.797C48.9671 154.924 49.0513 155.031 49.0932 155.271C49.3225 155.238 49.4558 155.298 49.6059 155.377C49.6915 155.427 49.7856 155.478 49.9658 155.51C50.4222 155.587 50.6695 155.211 50.6794 155.192C50.7087 155.145 50.7668 155.108 50.8245 155.109C51.2159 155.099 51.3457 154.863 51.3867 154.712C50.292 154.61 49.3824 153.893 49.013 152.91ZM54.1023 151.985C54.1329 150.62 53.0517 149.488 51.6872 149.457C50.324 149.426 49.1815 150.508 49.1513 151.873C49.1202 153.238 50.2113 154.37 51.5754 154.4C52.9395 154.432 54.0716 153.35 54.1023 151.985ZM52.1115 150.125L52.1827 149.907L52.3124 150.101L52.5309 150.106L52.3944 150.275L52.4557 150.496L52.248 150.414L52.0633 150.544L52.0683 150.315L51.8908 150.178L52.1115 150.125ZM51.0984 152.28L52.1575 152.304C52.1953 152.305 52.2232 152.333 52.2228 152.372L52.2201 152.449C52.2196 152.486 52.1908 152.523 52.1521 152.523L51.0934 152.499C51.0547 152.498 51.0276 152.46 51.029 152.421L51.0303 152.345C51.0308 152.307 51.0596 152.279 51.0984 152.28ZM51.0943 152.031L51.0966 151.954C51.097 151.916 51.1362 151.889 51.174 151.889L52.0994 151.91C52.1376 151.911 52.1746 151.941 52.1741 151.979L52.1728 152.056C52.1714 152.093 52.1327 152.132 52.0948 152.13L51.1691 152.109C51.1308 152.109 51.0934 152.069 51.0943 152.031ZM52.2268 151.741L51.0538 151.715C51.0159 151.714 50.979 151.675 50.9794 151.637L50.9803 151.561C50.9821 151.522 51.02 151.495 51.0587 151.495L52.2322 151.522C52.2696 151.522 52.3075 151.553 52.3061 151.591L52.3052 151.667C52.3043 151.705 52.2647 151.742 52.2268 151.741ZM50.9938 152.669L52.2435 152.697C52.2818 152.698 52.3097 152.726 52.3088 152.765L52.3075 152.841C52.3061 152.88 52.2768 152.917 52.239 152.916L50.9893 152.888C50.951 152.888 50.924 152.849 50.924 152.811L50.9263 152.734C50.9267 152.696 50.9555 152.668 50.9938 152.669ZM52.2413 151.131C52.2791 151.131 52.3165 151.161 52.316 151.199L52.3142 151.276C52.3133 151.314 52.2737 151.351 52.2368 151.35L51.0628 151.324C51.0245 151.323 50.9871 151.284 50.9889 151.245L50.9902 151.169C50.9902 151.131 51.029 151.104 51.0682 151.104L52.2413 151.131ZM51.0628 150.073L51.2002 149.885L51.2614 150.106L51.4804 150.168L51.2957 150.298L51.2907 150.527L51.1123 150.389L50.9006 150.461L50.9731 150.243L50.8425 150.067L51.0628 150.073ZM50.7452 153.121C50.7465 153.083 50.7848 153.056 50.8227 153.057L52.3976 153.092C52.435 153.093 52.4728 153.122 52.4719 153.16L52.4706 153.237C52.4692 153.275 52.4305 153.313 52.3926 153.312L50.8186 153.277C50.7803 153.275 50.7429 153.236 50.7443 153.197L50.7452 153.121ZM50.6316 153.51C50.633 153.472 50.6614 153.444 50.6992 153.445L52.5025 153.486C52.5408 153.487 52.5688 153.515 52.5679 153.554L52.5661 153.631C52.5656 153.669 52.5359 153.707 52.4976 153.705L50.6947 153.665C50.6578 153.664 50.6285 153.625 50.6303 153.587L50.6316 153.51ZM50.0145 152.122L49.8361 151.983L49.6243 152.055L49.6955 151.837L49.5658 151.662L49.7856 151.667L49.9239 151.48L49.9856 151.7L50.2032 151.763L50.0194 151.892L50.0145 152.122ZM50.3798 151.136L50.2014 150.999L49.9807 151.07L50.0618 150.862L49.9221 150.677L50.1514 150.682L50.2794 150.494L50.3514 150.715L50.569 150.787L50.3753 150.917L50.3798 151.136ZM52.6341 154.023C52.6327 154.062 52.6035 154.1 52.5656 154.098L50.6096 154.054C50.5713 154.053 50.5442 154.015 50.5447 153.977L50.546 153.909C50.5478 153.862 50.5771 153.834 50.615 153.834L52.5697 153.879C52.6084 153.88 52.6368 153.909 52.6354 153.956L52.6341 154.023ZM52.7728 150.837L52.9931 150.775L53.0747 150.558L53.1945 150.752L53.4234 150.757L53.2765 150.935L53.3481 151.146L53.1301 151.065L52.9458 151.194L52.9602 150.976L52.7728 150.837ZM53.0936 151.828L53.3143 151.775L53.386 151.558L53.5153 151.751L53.7351 151.756L53.5972 151.925L53.659 152.146L53.4513 152.066L53.2666 152.195L53.272 151.966L53.0936 151.828ZM51.6948 149.132C52.2386 149.144 52.7494 149.319 53.1729 149.604C53.2328 149.463 53.2972 149.178 52.9873 148.923C52.9404 148.884 52.9229 148.825 52.9247 148.768C52.9341 148.749 52.9729 148.292 52.5679 148.072C52.407 147.983 52.303 147.971 52.1985 147.95C52.0268 147.928 51.8939 147.886 51.7268 147.72C51.5507 147.878 51.4164 147.914 51.2542 147.929C51.1484 147.945 51.0434 147.953 50.879 148.034C50.4645 148.235 50.483 148.694 50.4825 148.713C50.4906 148.77 50.4704 148.826 50.4217 148.865C50.1014 149.105 50.1519 149.384 50.2068 149.529C50.6411 149.27 51.1511 149.119 51.6948 149.132ZM51.7588 146.718C48.8779 146.652 46.488 148.938 46.4231 151.811C46.3578 154.693 48.6423 157.084 51.5232 157.15C54.4036 157.214 56.7845 154.929 56.8489 152.046C56.9142 149.174 54.6392 146.782 51.7588 146.718ZM56.0781 150.702C56.0682 150.711 56.0583 150.72 56.0583 150.739C55.9006 150.965 55.9083 151.033 55.9335 151.176C55.9506 151.281 55.9655 151.435 55.9227 151.672C55.8245 152.223 55.3902 152.423 55.1979 152.487C55.0578 152.77 54.8631 152.909 54.6618 152.97C54.782 153.146 54.8438 153.376 54.7798 153.68C54.8897 153.855 55.1096 154.29 54.8411 154.78C54.7307 154.988 54.614 155.1 54.5356 155.174C54.4289 155.267 54.3798 155.313 54.3541 155.599C54.3541 155.61 54.3541 155.619 54.3536 155.629V155.638L54.3437 155.647L54.3338 155.667L54.3234 155.686L54.323 155.694L54.3045 155.704L54.2942 155.713L54.2847 155.722L54.2658 155.731L54.2559 155.741C54.2559 155.741 54.2464 155.75 54.2369 155.75C54.2171 155.758 54.1887 155.758 54.1689 155.758C54.1604 155.758 54.1414 155.757 54.1315 155.747C53.8657 155.675 53.7986 155.701 53.6729 155.766C53.5761 155.821 53.4319 155.885 53.2013 155.917C52.6463 155.991 52.3196 155.64 52.2007 155.475C51.8854 155.429 51.689 155.282 51.5691 155.107C51.4407 155.276 51.2367 155.424 50.9222 155.456C50.7938 155.615 50.4519 155.951 49.9014 155.853C49.6626 155.809 49.5315 155.74 49.4369 155.68C49.3054 155.61 49.2486 155.579 48.9707 155.641C48.9035 155.658 48.8274 155.628 48.7909 155.579L48.781 155.56L48.772 155.55C48.763 155.531 48.7639 155.502 48.7544 155.483C48.7517 155.196 48.7044 155.147 48.6026 155.04C48.5184 154.962 48.4161 154.854 48.3156 154.641C48.0692 154.14 48.308 153.715 48.426 153.547C48.3661 153.239 48.4476 153.012 48.5751 152.843C48.3765 152.772 48.1796 152.625 48.062 152.335C47.8728 152.264 47.4385 152.044 47.3656 151.488C47.3322 151.248 47.3647 151.097 47.3867 150.992C47.4084 150.85 47.4291 150.774 47.2813 150.541C47.2633 150.512 47.2547 150.473 47.2552 150.435C47.2556 150.427 47.2556 150.427 47.2556 150.416V150.407C47.257 150.397 47.266 150.389 47.2669 150.379C47.2867 150.331 47.3255 150.303 47.3642 150.285C47.6331 150.187 47.6629 150.13 47.7327 149.998C47.7827 149.903 47.8525 149.761 48.0282 149.593C48.4283 149.211 48.904 149.308 49.0932 149.37C49.3739 149.224 49.6212 149.229 49.8198 149.29C49.8248 149.08 49.9063 148.853 50.1402 148.647C50.1451 148.438 50.2226 147.963 50.7339 147.726C50.9461 147.617 51.0993 147.6 51.2141 147.584C51.3479 147.568 51.425 147.56 51.6011 147.344L51.6101 147.345C51.611 147.335 51.6205 147.326 51.6299 147.316H51.6394C51.6403 147.308 51.6498 147.308 51.6592 147.298H51.6682L51.6885 147.289L51.7074 147.289L51.7268 147.28L51.7363 147.281L51.7561 147.281L51.7642 147.291C51.7935 147.292 51.8214 147.301 51.8498 147.322C51.8592 147.331 51.8687 147.35 51.8777 147.36C52.0448 147.574 52.121 147.585 52.2548 147.607C52.3683 147.628 52.5201 147.652 52.7269 147.771C53.2175 148.03 53.2738 148.509 53.2787 148.719C53.5031 148.934 53.5743 149.165 53.5689 149.375C53.7707 149.312 54.0194 149.318 54.2924 149.477C54.4942 149.424 54.9631 149.349 55.3551 149.759C55.5227 149.935 55.5862 150.07 55.6321 150.175C55.6862 150.301 55.7227 150.369 55.9781 150.471C55.988 150.48 56.0069 150.48 56.016 150.49C56.0533 150.511 56.0718 150.549 56.0804 150.587V150.596L56.0894 150.617V150.635C56.0885 150.654 56.0876 150.683 56.0781 150.702ZM55.3132 150.321C55.2681 150.225 55.2325 150.129 55.101 150.002C54.7744 149.66 54.3509 149.823 54.332 149.832C54.2838 149.851 54.2171 149.848 54.1703 149.809C53.8315 149.582 53.5801 149.728 53.4639 149.821C54.0631 150.351 54.4356 151.132 54.4167 151.992C54.4117 152.22 54.378 152.449 54.3248 152.658C54.4775 152.671 54.7559 152.649 54.9073 152.279C54.9271 152.223 54.9758 152.185 55.0334 152.169C55.0528 152.169 55.5033 152.073 55.5898 151.608C55.6132 151.427 55.606 151.332 55.5893 151.225C55.5641 151.053 55.5583 150.92 55.6673 150.712C55.46 150.593 55.3862 150.476 55.3132 150.321Z" fill="#D12527"/>
<path d="M47.195 155.247L46.9323 155.842L47.1814 155.838L47.4828 155.597L47.6211 155.782L46.63 156.571L46.4913 156.396L46.9192 156.043L46.2318 156.065L46.0547 155.851L46.6945 155.837L47.0274 155.032L47.195 155.247Z" fill="#D12527"/>
<path d="M46.3268 154.806L46.78 154.56L46.8908 154.763L46.4367 155.01L45.9448 155.677L45.8254 155.454L46.1691 155.023L45.6146 155.077L45.4948 154.855L46.3268 154.806Z" fill="#D12527"/>
<path d="M46.4554 153.769C46.5361 154.001 46.4252 154.246 46.1752 154.326L45.3864 154.595L45.3148 154.373L46.0946 154.114C46.2288 154.07 46.2887 153.965 46.2531 153.84C46.2076 153.725 46.104 153.674 45.9603 153.719L45.181 153.988L45.1089 153.768L45.8973 153.509C46.1477 153.419 46.3833 153.548 46.4554 153.769Z" fill="#D12527"/>
<path d="M46.1693 152.483L45.4593 153.05L46.235 152.953L46.2684 153.173L45.0043 153.345L44.9804 153.134L45.6904 152.577L44.9245 152.674L44.8907 152.445L46.1449 152.283L46.1693 152.483Z" fill="#D12527"/>
<path d="M46.052 151.335C46.1547 151.432 46.1804 151.548 46.1781 151.672C46.1655 151.806 46.115 151.909 46.0182 151.983C45.8817 152.095 45.7299 152.082 45.5109 152.067C45.2915 152.053 45.1289 152.049 45.0086 151.922C44.9244 151.833 44.8883 151.728 44.8906 151.595C44.9068 151.328 45.1104 151.199 45.3204 151.175L45.306 151.413C45.1911 151.429 45.1222 151.495 45.1104 151.609C45.1091 151.676 45.1366 151.724 45.174 151.764C45.2204 151.812 45.2771 151.823 45.5253 151.838C45.7632 151.853 45.8303 151.846 45.8785 151.808C45.9276 151.771 45.9569 151.724 45.9587 151.657C45.9601 151.591 45.9425 151.532 45.8952 151.494C45.8488 151.454 45.8015 151.434 45.7353 151.433L45.6875 151.432L45.6727 151.641L45.4632 151.637L45.4916 151.188L45.6727 151.192C45.8542 151.205 45.9682 151.246 46.052 151.335Z" fill="#D12527"/>
<path d="M45.8708 150.499L45.8177 150.727L46.2826 150.834L46.2204 151.061L44.996 150.756L45.1014 150.309C45.1645 150.073 45.3762 149.972 45.5857 150.024C45.7947 150.077 45.9335 150.261 45.8708 150.499ZM45.3194 150.382L45.2672 150.591L45.6001 150.666L45.6523 150.456C45.6726 150.361 45.6271 150.274 45.5231 150.253C45.428 150.232 45.3415 150.278 45.3194 150.382Z" fill="#D12527"/>
<path d="M46.6494 149.409C46.6945 149.525 46.7008 149.639 46.6503 149.762C46.5904 149.885 46.503 149.949 46.3882 149.995C46.2242 150.049 46.0827 149.979 45.8841 149.889C45.6858 149.808 45.5349 149.737 45.4709 149.583C45.4164 149.467 45.4191 149.353 45.4696 149.23C45.53 149.106 45.6169 149.033 45.7322 148.997C45.8962 148.943 46.0381 149.005 46.2363 149.094C46.4346 149.184 46.5859 149.246 46.6494 149.409ZM45.7944 149.217C45.7467 149.226 45.6975 149.264 45.6777 149.32C45.648 149.378 45.6462 149.435 45.6737 149.483C45.7016 149.55 45.7579 149.58 45.9746 149.68C46.2012 149.781 46.258 149.792 46.326 149.774C46.3737 149.766 46.4219 149.729 46.4431 149.671C46.4724 149.606 46.4647 149.548 46.4463 149.51C46.4197 149.442 46.3629 149.402 46.1453 149.302C45.9183 149.212 45.862 149.191 45.7944 149.217Z" fill="#D12527"/>
<path d="M47.2034 148.543C47.2286 148.667 47.2169 148.773 47.1376 148.886C47.0588 148.999 46.9628 149.054 46.838 149.07C46.6655 149.094 46.5438 149.006 46.356 148.877C46.1771 148.759 46.0456 148.67 46.0109 148.497C45.9852 148.382 45.9974 148.267 46.0758 148.155C46.1551 148.042 46.2519 147.987 46.3763 147.97C46.5483 147.946 46.6704 148.034 46.8587 148.163C47.0362 148.291 47.1691 148.38 47.2034 148.543ZM46.3992 148.2C46.3429 148.198 46.2938 148.226 46.2551 148.283C46.2253 148.33 46.2136 148.397 46.2317 148.445C46.2497 148.512 46.2866 148.552 46.4934 148.689C46.6907 148.827 46.7479 148.858 46.8141 148.849C46.8718 148.841 46.9205 148.814 46.9592 148.767C46.9889 148.71 47.0006 148.653 46.9826 148.606C46.9646 148.538 46.9281 148.489 46.7204 148.351C46.5236 148.213 46.4664 148.193 46.3992 148.2Z" fill="#D12527"/>
<path d="M47.9706 147.902L47.3552 147.716L47.3786 147.956L47.6489 148.229L47.4831 148.387L46.5966 147.498L46.7529 147.33L47.1448 147.721L47.0457 147.041L47.2507 146.836L47.3322 147.478L48.167 147.716L47.9706 147.902Z" fill="#D12527"/>
<path d="M49.0965 147.125L48.295 146.687L48.6901 147.364L48.487 147.474L47.8527 146.381L48.027 146.28L48.8194 146.718L48.4333 146.041L48.6271 145.93L49.2708 147.024L49.0965 147.125Z" fill="#D12527"/>
<path d="M50.0986 146.708L49.9585 146.524L49.5643 146.668L49.5688 146.896L49.3476 146.978L49.33 145.641L49.5035 145.578L50.3288 146.637L50.0986 146.708ZM49.5427 145.961L49.5602 146.448L49.8292 146.349L49.5427 145.961Z" fill="#D12527"/>
<path d="M50.6782 145.519L50.8557 146.554L50.626 146.586L50.4489 145.561L50.1417 145.611L50.1093 145.391L50.9418 145.248L50.9859 145.468L50.6782 145.519Z" fill="#D12527"/>
<path d="M51.2862 146.506L51.2195 145.234L51.4488 145.231L51.5155 146.492L51.2862 146.506Z" fill="#D12527"/>
<path d="M52.443 146.409C52.3551 146.492 52.2493 146.528 52.1164 146.514C51.9826 146.513 51.879 146.452 51.8046 146.355C51.7033 146.22 51.7163 146.058 51.7303 145.838C51.7447 145.619 51.7578 145.466 51.8853 145.346C51.9826 145.262 52.0884 145.226 52.2204 145.238C52.3551 145.24 52.4497 145.3 52.5236 145.398C52.6344 145.534 52.6214 145.696 52.5979 145.914C52.5831 146.126 52.5696 146.287 52.443 146.409ZM52.3394 145.537C52.311 145.488 52.2637 145.46 52.1975 145.457C52.1411 145.445 52.0821 145.474 52.0438 145.511C51.9943 145.558 51.9835 145.614 51.9596 145.862C51.9443 146.1 51.9524 146.159 51.9898 146.217C52.0168 146.264 52.0736 146.294 52.1312 146.296C52.1979 146.307 52.2461 146.279 52.2844 146.242C52.3331 146.195 52.3533 146.138 52.3691 145.891C52.3939 145.653 52.3858 145.586 52.3394 145.537Z" fill="#D12527"/>
<path d="M53.3992 146.763L53.1519 145.879L52.9447 146.629L52.7266 146.566L53.0591 145.352L53.2587 145.404L53.5051 146.278L53.7137 145.529L53.9317 145.591L53.5889 146.815L53.3992 146.763Z" fill="#D12527"/>
<path d="M54.3912 147.197L54.4255 146.968L54.0479 146.778L53.8912 146.947L53.6736 146.837L54.6219 145.893L54.7814 145.984L54.6084 147.307L54.3912 147.197ZM54.5457 146.275L54.2047 146.619L54.4687 146.75L54.5457 146.275Z" fill="#D12527"/>
<path d="M54.6651 147.356L55.4224 146.342L55.6107 146.479L54.9804 147.325L55.4125 147.64L55.2841 147.818L54.6651 147.356Z" fill="#D12527"/>
<path d="M55.8719 148.442C55.7137 148.258 55.7191 148 55.9237 147.823L56.5566 147.284L56.7053 147.459L56.0822 147.989C55.975 148.082 55.9539 148.207 56.0367 148.303C56.1205 148.391 56.2354 148.403 56.3516 148.302L56.9747 147.771L57.1238 147.945L56.4913 148.485C56.2868 148.663 56.0295 148.628 55.8719 148.442Z" fill="#D12527"/>
<path d="M56.6101 149.539L57.0574 148.746L56.3812 149.123L56.2717 148.921L57.3736 148.305L57.4736 148.488L57.0272 149.271L57.7034 148.894L57.8129 149.098L56.7114 149.713L56.6101 149.539Z" fill="#D12527"/>
<path d="M56.774 149.916L57.9579 149.464L58.0385 149.676L56.8645 150.128L56.774 149.916Z" fill="#D12527"/>
<path d="M57.0405 150.742L56.9977 150.579L58.1293 149.889L58.191 150.119L57.4464 150.551L58.305 150.581L58.3663 150.81L57.0405 150.742Z" fill="#D12527"/>
<path d="M57.1453 151.203L58.4071 151.099L58.4661 151.873L58.2458 151.897L58.2008 151.351L57.9052 151.374L57.9422 151.832L57.7223 151.856L57.6859 151.387L57.3795 151.409L57.4241 151.964L57.2038 151.979L57.1453 151.203Z" fill="#D12527"/>
<path d="M57.1387 152.76L57.6676 152.58L57.6811 152.419L57.1765 152.369L57.2004 152.141L58.4672 152.265L58.419 152.722C58.3947 152.96 58.2091 153.089 58.0009 153.066C57.8198 153.052 57.7171 152.935 57.6811 152.82L57.1135 153.027L57.1387 152.76ZM58.2001 152.688L58.2235 152.469L57.891 152.433L57.8667 152.653C57.855 152.757 57.9198 152.825 58.0149 152.837C58.1199 152.849 58.1888 152.784 58.2001 152.688Z" fill="#D12527"/>
<path d="M56.9798 153.463C57.0312 153.291 57.1105 153.17 57.2641 153.096L57.3753 153.281C57.2789 153.326 57.2289 153.42 57.1969 153.525C57.1573 153.658 57.1924 153.745 57.2875 153.765C57.3352 153.785 57.3731 153.777 57.4019 153.759C57.4317 153.75 57.451 153.721 57.4708 153.674L57.5312 153.543C57.5718 153.447 57.6303 153.381 57.6983 153.345C57.7664 153.308 57.8511 153.31 57.956 153.332C58.1745 153.395 58.2844 153.587 58.2209 153.834C58.17 153.996 58.1015 154.09 57.975 154.163L57.8655 153.979C57.9515 153.933 57.9925 153.848 58.0128 153.773C58.0443 153.649 57.9894 153.571 57.9038 153.55C57.8745 153.541 57.8366 153.539 57.8078 153.558C57.7781 153.577 57.7493 153.604 57.7299 153.651L57.679 153.784C57.6285 153.879 57.5799 153.934 57.5213 153.972C57.4447 154.017 57.3488 154.015 57.2352 153.984C56.9983 153.922 56.9167 153.7 56.9798 153.463Z" fill="#D12527"/>
<path d="M56.8144 154.021L57.9776 154.516L57.8866 154.724L56.7234 154.239L56.8144 154.021Z" fill="#D12527"/>
<path d="M57.3292 155.343L56.4142 154.825L56.5336 154.628L57.4382 155.144L57.5972 154.871L57.7856 154.98L57.3675 155.715L57.1796 155.606L57.3292 155.343Z" fill="#D12527"/>
<path d="M56.3145 155.873L55.9109 155.549L56.0492 155.361L56.4618 155.685L57.2687 155.876L57.1119 156.073L56.5713 155.927L56.8367 156.42L56.6794 156.616L56.3145 155.873Z" fill="#D12527"/>
<path d="M50.4949 158.291L50.3701 158.728L50.1804 158.675L50.2845 158.305L49.3934 158.046L49.4448 157.885L49.8809 158.019L49.9219 157.887L49.4097 157.741L49.4515 157.59L50.6742 157.942L50.6341 158.084L50.1115 157.938L50.0714 158.072L50.4404 158.176C50.4404 158.176 50.5161 158.196 50.4949 158.291Z" fill="#D12527"/>
<path d="M49.6248 157.526L50.6303 157.817L50.7749 157.305L50.5848 157.252L50.5546 157.356L49.8528 157.159L49.8834 157.055L49.6933 157.003L49.5789 157.43C49.5789 157.43 49.5491 157.506 49.6248 157.526ZM50.5128 157.508L50.4916 157.603L49.7802 157.406L49.8113 157.302L50.5128 157.508Z" fill="#D12527"/>
<path d="M51.0918 158.486L51.54 158.496L51.5432 158.334L51.1616 158.325L51.1792 157.571L51.5319 157.579L51.5364 157.408L50.9922 157.396L50.9701 158.36C50.9701 158.36 50.958 158.483 51.0918 158.486Z" fill="#D12527"/>
<path d="M52.014 157.801L51.8325 157.797L51.8415 157.405L51.6509 157.401L51.6252 158.537L51.8163 158.541L51.8289 157.968L52.0109 157.973L51.9969 158.545L52.1879 158.55L52.2136 157.414L52.0235 157.41L52.014 157.801Z" fill="#D12527"/>
<path d="M55.0183 157.467L54.7904 157.032L54.6156 157.124L54.8544 157.559L54.6611 157.669L54.4228 157.233L54.2584 157.326L54.4872 157.76L54.2651 157.879L54.3476 158.025L55.5161 157.392L55.4337 157.248L55.0183 157.467Z" fill="#D12527"/>
<path d="M54.9526 156.578L55.2364 157.1L55.0634 157.191L54.8062 156.717L53.966 157.167L53.8831 157.021L54.8017 156.526C54.8017 156.526 54.8976 156.472 54.9526 156.578Z" fill="#D12527"/>
<path d="M53.6992 158.001L52.7108 158.236L52.7541 158.39L53.6285 158.19L53.715 158.546L53.8974 158.492L53.8028 158.051C53.7758 157.974 53.6992 158.001 53.6992 158.001ZM53.6362 157.389L53.5573 157.062L53.3753 157.106L53.5663 157.931L53.7587 157.887L53.6803 157.551L53.8434 157.507L53.8087 157.353L53.6362 157.389ZM52.7554 157.502C52.6198 157.585 52.541 157.727 52.5757 157.861C52.6198 158.033 52.8086 158.133 53.0001 158.09C53.192 158.047 53.3195 157.869 53.2767 157.695C53.2411 157.56 53.1001 157.462 52.9383 157.458L52.9293 157.42L53.2177 157.35L53.183 157.186L52.8946 157.257L52.8681 157.161L52.6861 157.204L52.7126 157.3L52.4442 157.36L52.4784 157.525L52.7568 157.454L52.7654 157.502H52.7554ZM52.8861 157.629C52.9825 157.603 53.0762 157.653 53.0938 157.739C53.1104 157.826 53.0519 157.909 52.9654 157.927C52.869 157.953 52.7753 157.903 52.7581 157.818C52.741 157.731 52.8 157.646 52.8861 157.629Z" fill="#D12527"/>
<path d="M48.9954 157.933C49.085 157.754 48.9666 157.512 48.721 157.391C48.476 157.272 48.207 157.323 48.1268 157.493C48.0372 157.663 48.1656 157.904 48.4012 158.024C48.6467 158.145 48.9143 158.103 48.9954 157.933ZM48.471 157.892C48.3291 157.822 48.2467 157.678 48.2967 157.583C48.3467 157.489 48.5098 157.463 48.6508 157.534C48.7733 157.594 48.8846 157.731 48.8256 157.843C48.7652 157.956 48.5935 157.953 48.471 157.892Z" fill="#D12527"/>
<path d="M48.9477 156.671L48.4188 156.411L48.3485 156.542L48.745 156.743C48.7346 156.761 48.7053 156.79 48.6666 156.836C48.4418 157.06 48.1201 156.957 48.1201 156.957L48.0499 157.089C48.7229 157.314 48.9653 156.738 48.9653 156.738C48.9946 156.691 48.9477 156.671 48.9477 156.671ZM49.3162 156.832L49.2459 156.963L48.9819 156.834L48.9022 156.975L49.1757 157.115L49.1261 157.22L48.8432 157.078L48.7716 157.23L49.0464 157.359L48.9657 157.54L49.145 157.621L49.4955 156.921L49.3162 156.832Z" fill="#D12527"/>
<path d="M104.887 179.109C104.926 179.792 105.511 180.314 106.193 180.274C106.875 180.235 107.397 179.65 107.358 178.968C107.318 178.285 106.733 177.764 106.05 177.804C105.368 177.842 104.847 178.427 104.887 179.109Z" fill="white"/>
<path d="M106.123 176.709C107.357 176.709 108.378 177.673 108.449 178.905C108.523 180.188 107.539 181.291 106.256 181.365C106.21 181.368 106.165 181.369 106.12 181.369C104.887 181.369 103.866 180.404 103.795 179.172C103.759 178.551 103.968 177.953 104.382 177.488C104.797 177.023 105.367 176.748 105.988 176.712C106.033 176.71 106.078 176.709 106.123 176.709ZM106.123 177.802C106.099 177.802 106.075 177.802 106.051 177.804C105.368 177.843 104.847 178.427 104.887 179.109C104.924 179.768 105.47 180.276 106.12 180.276C106.144 180.276 106.169 180.275 106.193 180.274C106.875 180.235 107.397 179.651 107.358 178.968C107.32 178.31 106.774 177.802 106.123 177.802Z" fill="#1D1D1D"/>
<path d="M104.755 171.464C104.794 172.146 105.379 172.667 106.062 172.628C106.744 172.589 107.266 172.004 107.227 171.322C107.188 170.639 106.602 170.118 105.919 170.158C105.237 170.197 104.716 170.781 104.755 171.464Z" fill="white"/>
<path d="M105.992 169.063C107.226 169.063 108.247 170.028 108.318 171.26C108.353 171.882 108.145 172.479 107.73 172.944C107.316 173.409 106.746 173.684 106.124 173.72C106.079 173.723 106.034 173.724 105.99 173.724C104.756 173.724 103.734 172.759 103.664 171.527C103.59 170.244 104.574 169.141 105.857 169.067C105.902 169.064 105.947 169.063 105.992 169.063ZM105.992 170.156C105.968 170.156 105.944 170.157 105.919 170.158C105.237 170.197 104.716 170.781 104.755 171.464C104.793 172.123 105.339 172.631 105.99 172.631C106.014 172.631 106.037 172.63 106.062 172.629C106.744 172.589 107.266 172.005 107.227 171.323C107.189 170.664 106.642 170.156 105.992 170.156Z" fill="#1D1D1D"/>
<path d="M109.652 152.628L107.753 153.148L105.258 156.996L105.228 157.023L109.59 160.392L111.763 159.797L107.247 156.47L109.652 152.628Z" fill="#1D1D1D"/>
<path d="M107.204 152.332C107.095 152.405 107.001 152.5 106.928 152.612L104.486 156.378C104.321 156.569 104.234 156.815 104.246 157.069C104.259 157.358 104.398 157.626 104.628 157.802L108.989 161.17C109.233 161.36 109.552 161.422 109.85 161.34L112.023 160.746C112.128 160.717 112.225 160.672 112.312 160.613C112.527 160.468 112.681 160.241 112.73 159.977C112.799 159.606 112.65 159.228 112.346 159.005L108.565 156.219L110.485 153.15C110.7 152.806 110.682 152.366 110.441 152.041C110.199 151.716 109.783 151.573 109.392 151.679L107.493 152.199C107.389 152.227 107.292 152.273 107.204 152.332ZM107.753 153.148L109.652 152.628L107.247 156.47L111.763 159.797L109.59 160.392L105.228 157.023L105.257 156.997L107.753 153.148Z" fill="#1D1D1D"/>
<path d="M102.027 154.735C102.027 154.735 102.517 154.71 102.713 155.43L104.443 161.746L106.326 161.231L104.37 154.093L102.027 154.735Z" fill="#1D1D1D"/>
<path d="M101.478 153.919C101.167 154.128 100.994 154.503 101.056 154.89C101.118 155.279 101.401 155.582 101.763 155.683C101.763 155.685 101.764 155.687 101.765 155.689L103.494 162.006C103.637 162.53 104.178 162.839 104.702 162.694L106.586 162.18C106.69 162.152 106.787 162.106 106.875 162.047C106.999 161.963 107.104 161.852 107.181 161.719C107.31 161.492 107.343 161.223 107.274 160.972L105.319 153.833C105.25 153.581 105.084 153.367 104.857 153.238C104.63 153.109 104.362 153.075 104.11 153.144L101.766 153.786C101.661 153.815 101.564 153.861 101.478 153.919ZM102.027 154.735L104.37 154.093L106.326 161.232L104.443 161.746L102.713 155.43C102.517 154.711 102.027 154.735 102.027 154.735Z" fill="#1D1D1D"/>
<path d="M109.652 152.628L107.753 153.148L105.258 156.996L105.228 157.023L109.59 160.392L111.763 159.797L107.247 156.47L109.652 152.628Z" fill="white"/>
<path d="M102.027 154.735C102.027 154.735 102.517 154.71 102.713 155.43L104.443 161.746L106.326 161.231L104.37 154.093L102.027 154.735Z" fill="white"/>
<path d="M116.421 152.761C116.81 152.761 117.186 152.554 117.384 152.187C118.072 150.912 118.756 150.417 118.763 150.413C119.265 150.079 119.395 149.405 119.06 148.902C118.726 148.4 118.041 148.267 117.539 148.602C117.426 148.677 116.413 149.383 115.46 151.149C115.174 151.681 115.372 152.343 115.903 152.631C116.068 152.719 116.246 152.761 116.421 152.761Z" fill="#1D1D1D"/>
<path d="M99.2384 89.6055C99.7407 89.6055 100.22 89.3154 100.437 88.827C100.437 88.827 100.824 88.0188 101.586 87.6084C102.224 87.2652 102.463 86.47 102.12 85.8321C101.777 85.1942 100.982 84.955 100.344 85.2983C98.8014 86.1277 98.1139 87.5958 98.041 87.7602C97.7463 88.422 98.0441 89.1973 98.7054 89.4919C98.8789 89.5685 99.06 89.6055 99.2384 89.6055Z" fill="#1D1D1D"/>
<path d="M59.045 102.876C59.5662 102.876 60.0595 102.566 60.2649 102.053C60.533 101.384 60.2122 100.624 59.5437 100.352C59.4184 100.301 56.4312 99.1148 52.7462 100.012C52.0425 100.183 51.6109 100.892 51.7821 101.596C51.9533 102.3 52.6628 102.732 53.3665 102.56C56.1983 101.872 58.5386 102.775 58.5625 102.784C58.7206 102.847 58.8842 102.876 59.045 102.876Z" fill="#1D1D1D"/>
<path d="M110.019 124.758C112.013 127.906 115.946 128.992 118.286 127.51C120.625 126.028 120.487 122.539 118.492 119.39C116.498 116.242 113.403 114.625 111.063 116.107C108.723 117.589 108.025 121.609 110.019 124.758Z" fill="#D52527"/>
<path d="M112.975 116.207C114.656 116.207 116.558 117.561 117.938 119.741C119.559 122.298 120.078 125.599 117.935 126.956C117.365 127.317 116.65 127.508 115.869 127.508C113.845 127.508 111.766 126.291 110.573 124.407C108.708 121.46 109.478 117.887 111.414 116.661C111.888 116.36 112.414 116.207 112.975 116.207ZM115.869 128.819C116.899 128.819 117.856 128.559 118.637 128.064C121.17 126.46 121.342 122.664 119.046 119.039C117.403 116.444 115.133 114.896 112.975 114.896C112.161 114.896 111.4 115.117 110.712 115.553C107.937 117.31 107.355 121.776 109.465 125.109C110.893 127.363 113.407 128.819 115.869 128.819Z" fill="#1D1D1D"/>
<path d="M118.651 127.278L131.993 119.413C131.993 119.413 127.67 120.225 124.605 115.385C121.539 110.546 124.241 107.174 124.241 107.174L111.43 115.875C111.43 115.875 109.572 118.959 112.26 123.204C115.071 127.641 118.651 127.278 118.651 127.278Z" fill="#989795"/>
<path d="M129.48 120.007L118.431 126.519C117.657 126.515 115.076 126.22 112.906 122.794C110.798 119.465 111.74 116.983 112.018 116.4L122.525 109.264C122.186 110.869 122.273 113.134 123.958 115.794C125.701 118.546 127.861 119.609 129.48 120.007ZM118.451 128.05C118.63 128.05 118.729 128.039 118.729 128.039C118.835 128.027 118.947 127.992 119.04 127.937L132.382 120.072C132.702 119.884 132.84 119.491 132.709 119.144C132.579 118.796 132.217 118.593 131.852 118.661C131.852 118.661 131.629 118.699 131.264 118.699C129.899 118.699 127.303 118.215 125.251 114.975C122.536 110.689 124.745 107.77 124.841 107.649C125.073 107.351 125.055 106.928 124.798 106.653C124.54 106.378 124.123 106.33 123.811 106.541L111 115.242C110.909 115.304 110.831 115.386 110.775 115.48C110.689 115.623 108.706 119.021 111.614 123.614C114.221 127.73 117.506 128.05 118.451 128.05Z" fill="#1D1D1D"/>
<path d="M56.216 112.354C56.216 112.354 53.6915 106.736 56.9657 105.127C60.2394 103.519 62.354 109.981 62.354 109.981C62.354 109.981 62.805 110.916 61.3647 111.447C59.9583 111.966 56.6467 113.351 56.216 112.354Z" fill="#1D1D1D"/>
<path d="M56.2475 107.425C56.2475 107.882 56.6173 108.252 57.0741 108.252C57.5314 108.252 57.9012 107.882 57.9012 107.425C57.9012 106.968 57.5314 106.599 57.0741 106.599C56.6173 106.599 56.2475 106.968 56.2475 107.425Z" fill="white"/>
<path d="M101.034 95.1766C101.034 95.1766 99.8416 91.8214 101.484 90.9483C103.127 90.0757 103.907 92.5147 104.014 92.9368C104.12 93.358 104.422 94.3 104.346 94.6937C104.269 95.0888 104.177 95.5032 103.108 95.8826C102.038 96.2632 101.25 96.0574 101.034 95.1766Z" fill="#1D1D1D"/>
<path d="M101.137 92.5007C101.137 92.9489 101.501 93.312 101.948 93.312C102.397 93.312 102.76 92.9489 102.76 92.5007C102.76 92.052 102.397 91.6889 101.948 91.6889C101.501 91.6889 101.137 92.052 101.137 92.5007Z" fill="white"/>
<path d="M94.5677 130.709C95.9894 135.252 100.066 138.252 104.038 136.67C109.963 134.31 107.01 129.601 106.25 127.353C105.065 123.851 104.765 121.723 100.905 122.925C94.8781 124.801 93.1576 126.2 94.5677 130.709Z" fill="#EC6669"/>
<path d="M102.759 122.697C104.606 122.697 105.104 124.219 105.859 126.524C105.951 126.801 106.045 127.09 106.146 127.388C106.247 127.685 106.386 128.028 106.534 128.391C107.159 129.926 108.015 132.027 107.239 133.85C106.754 134.991 105.663 135.906 103.997 136.569C103.299 136.847 102.578 136.989 101.854 136.989C98.7884 136.989 95.8345 134.393 94.6717 130.677C94.0897 128.815 94.0622 127.541 94.5848 126.546C95.3871 125.015 97.6103 124.066 100.938 123.03C101.657 122.806 102.253 122.697 102.759 122.697ZM101.854 137.207C102.606 137.207 103.355 137.061 104.079 136.772C105.8 136.087 106.931 135.132 107.441 133.935C108.252 132.029 107.376 129.878 106.736 128.308C106.59 127.948 106.451 127.609 106.354 127.319C106.252 127.021 106.158 126.733 106.067 126.456C105.283 124.06 104.764 122.478 102.759 122.478C102.231 122.478 101.613 122.59 100.873 122.82C97.4044 123.901 95.2321 124.84 94.3906 126.444C93.8401 127.495 93.8622 128.822 94.4632 130.742C95.6543 134.549 98.6937 137.207 101.854 137.207Z" fill="#1D1D1D"/>
<path d="M102.76 123.679C103.782 123.679 104.102 124.316 104.925 126.828C105.017 127.109 105.112 127.401 105.215 127.702C105.324 128.027 105.47 128.384 105.623 128.76C106.214 130.212 106.95 132.017 106.335 133.463C105.955 134.354 105.047 135.091 103.633 135.654C103.052 135.886 102.453 136.003 101.854 136.003C99.2137 136.003 96.6463 133.692 95.6106 130.382C95.1128 128.79 95.0646 127.747 95.4556 127.001C96.0981 125.775 98.2289 124.902 101.23 123.967C101.845 123.776 102.359 123.679 102.76 123.679ZM101.854 138.189C102.731 138.189 103.602 138.02 104.443 137.685C106.417 136.898 107.73 135.766 108.346 134.319C109.318 132.036 108.313 129.568 107.647 127.936C107.507 127.59 107.374 127.265 107.285 127.002C107.185 126.707 107.092 126.422 107.002 126.148C106.218 123.754 105.476 121.493 102.76 121.493C102.13 121.493 101.417 121.62 100.58 121.88C96.8657 123.037 94.5191 124.08 93.5199 125.986C92.8378 127.288 92.8392 128.844 93.5244 131.035C94.8637 135.314 98.2109 138.189 101.854 138.189Z" fill="#1D1D1D"/>
</svg>
