<svg width="200" height="200" viewBox="0 0 200 200" fill="none" xmlns="http://www.w3.org/2000/svg">
<path d="M41.6042 121.55C41.6042 121.55 35.8668 123.575 31.9137 121.033C27.9607 118.491 39.9468 115.209 39.9468 115.209C39.9468 115.209 32.7986 115.901 31.6163 113.043C30.4395 110.184 38.9622 109.286 42.4855 110.202" fill="#DEB976"/>
<path d="M36.855 123.396C35.0598 123.396 33.0633 123.056 31.3316 121.941C30.0405 121.113 29.9788 120.126 30.0586 119.618C30.2744 118.208 32.1875 116.976 34.349 116.01C32.7043 115.625 31.2064 114.876 30.6207 113.458C30.2599 112.577 30.4068 111.694 31.0378 110.969C33.0252 108.686 39.9213 108.426 42.7538 109.161C43.334 109.304 43.6786 109.895 43.5317 110.472C43.3794 111.05 42.7918 111.393 42.2152 111.244C39.3429 110.508 33.7197 111.175 32.6626 112.383C32.561 112.505 32.5737 112.532 32.6154 112.633C33.2084 114.071 37.2757 114.381 39.8415 114.135C40.3982 114.077 40.9023 114.465 41.0039 115.016C41.1072 115.567 40.77 116.1 40.2296 116.247C36.3382 117.315 32.5846 119.027 32.2092 119.894C32.2473 119.937 32.3307 120.019 32.4975 120.124C35.9483 122.347 41.1907 120.55 41.2414 120.534C41.8036 120.333 42.4219 120.627 42.6178 121.189C42.8172 121.751 42.5216 122.366 41.9595 122.563C41.8072 122.619 39.5659 123.396 36.855 123.396Z" fill="#2B2B2A"/>
<path d="M186.425 143.266C186.425 143.266 197.064 144.209 196.353 148.062C195.718 151.471 184.417 149.335 184.417 149.335C184.417 149.335 182.24 145.48 183.96 143.759" fill="#DEB976"/>
<path d="M191.025 151.073C187.944 151.073 184.769 150.498 184.218 150.391C183.902 150.337 183.634 150.139 183.476 149.866C183.212 149.398 180.965 145.236 183.199 142.998C183.621 142.578 184.303 142.576 184.722 142.998C185.146 143.419 185.146 144.105 184.722 144.527C183.971 145.274 184.581 147.211 185.132 148.368C188.327 148.915 193.424 149.322 194.993 148.246C195.256 148.065 195.278 147.927 195.29 147.864C195.337 147.601 195.278 147.379 195.087 147.124C193.899 145.561 189.083 144.585 186.327 144.339C185.732 144.286 185.297 143.762 185.351 143.173C185.402 142.576 185.926 142.141 186.521 142.192C187.346 142.262 194.657 142.991 196.804 145.82C197.361 146.553 197.57 147.399 197.408 148.259C197.279 148.968 196.866 149.574 196.208 150.025C195.047 150.819 193.058 151.073 191.025 151.073Z" fill="#2B2B2A"/>
<path d="M186.297 138.099C186.297 138.099 197.102 136.07 197.445 141.054C197.726 145.138 186.175 145.39 186.175 145.39" fill="#DEB976"/>
<path d="M186.172 146.469C185.587 146.469 185.112 146.003 185.097 145.416C185.083 144.819 185.554 144.328 186.149 144.315C189.195 144.244 194.581 143.537 196.051 141.92C196.36 141.586 196.383 141.318 196.372 141.125C196.332 140.569 196.108 140.148 195.654 139.803C193.647 138.248 188.363 138.804 186.497 139.156C185.911 139.265 185.344 138.88 185.239 138.293C185.126 137.709 185.511 137.149 186.096 137.036C186.883 136.891 193.841 135.669 196.976 138.099C197.908 138.815 198.443 139.814 198.521 140.98C198.581 141.852 198.278 142.678 197.645 143.376C195.07 146.201 187.099 146.451 186.198 146.469H186.172Z" fill="#2B2B2A"/>
<path d="M80.9289 145.344C74.2685 122.545 52.416 121.078 44.3031 121.78C42.5497 121.936 40.9702 120.754 40.9702 120.754C36.8721 114.61 41.9966 110.51 41.9966 110.51C79.9025 97.1896 98.8591 124.852 98.8591 124.852L136.509 133.308C136.509 133.308 158.536 127.033 185.165 137.567C189.892 139.438 190.148 147.394 185.687 150.083C181.224 152.776 172.198 142.472 144.963 156.872C144.963 156.872 132.411 162.25 121.143 171.727C121.143 171.727 70.941 172.496 54.5467 160.966C54.5467 160.966 64.025 147.78 78.3666 140.864" fill="#C9B697"/>
<path d="M56.1019 160.711C72.1372 170.759 116.181 170.688 120.745 170.653C131.602 161.612 143.679 156.259 144.495 155.898C163.93 145.635 174.197 147.724 180.332 148.97C182.636 149.437 184.161 149.749 185.131 149.162C186.945 148.065 187.984 145.736 187.773 143.227C187.588 140.98 186.464 139.239 184.771 138.572C158.782 128.287 137.022 134.285 136.804 134.347C136.632 134.394 136.449 134.398 136.271 134.36L98.6227 125.908C98.3562 125.848 98.1222 125.69 97.9663 125.465C97.9228 125.396 93.2099 118.643 84.0326 113.586C71.8071 106.846 57.8499 106.133 42.5454 111.464C41.8563 112.092 38.7646 115.303 41.7566 119.985C42.1229 120.217 43.151 120.798 44.21 120.707C46.5982 120.498 55.061 120.11 63.5873 123.759C72.8081 127.712 78.9934 134.871 81.9636 145.044C82.1305 145.617 81.8041 146.217 81.231 146.382C80.6598 146.547 80.0614 146.224 79.8928 145.649C79.5102 144.344 79.0804 143.109 78.6053 141.948C66.9238 147.657 58.481 157.679 56.1019 160.711ZM118.807 172.82C108.562 172.82 68.5649 172.142 53.9277 161.857C53.6901 161.688 53.5324 161.438 53.4852 161.152C53.4363 160.865 53.4997 160.577 53.6702 160.341C54.0619 159.795 63.4005 146.951 77.7295 139.975C68.9203 121.78 48.6872 122.488 44.3932 122.856C42.2553 123.043 40.4075 121.681 40.3277 121.623C40.228 121.55 40.1427 121.459 40.0756 121.36C36.3982 115.844 39.2832 111.301 41.3232 109.671C41.4157 109.597 41.5227 109.535 41.6369 109.495C50.437 106.405 58.9615 105.248 66.9801 106.064C73.4156 106.713 79.5338 108.627 85.1642 111.744C93.6487 116.444 98.3743 122.382 99.4949 123.893L136.487 132.198C137.715 131.877 142.946 130.633 150.82 130.41C158.983 130.176 171.635 131.056 185.565 136.566C188.036 137.546 189.668 139.965 189.926 143.049C190.201 146.371 188.753 149.494 186.241 151.011C184.551 152.032 182.604 151.632 179.9 151.082C174.045 149.891 164.24 147.9 145.463 157.828C145.443 157.839 145.414 157.848 145.385 157.864C145.263 157.915 132.844 163.295 121.833 172.552C121.647 172.712 121.405 172.8 121.157 172.804C120.925 172.804 120.105 172.82 118.807 172.82Z" fill="#2B2B2A"/>
<path d="M182.828 150.221C182.828 150.221 190.127 151.592 192.181 148.399C193.728 145.994 188.252 145.428 188.252 145.428C188.252 145.428 183.227 148.453 182.828 150.221Z" fill="#DEB976"/>
<path d="M184.726 149.374C185.183 149.412 185.711 149.437 186.261 149.437C188.823 149.437 190.604 148.861 191.271 147.814C191.374 147.662 191.376 147.591 191.376 147.591C191.253 147.27 189.938 146.746 188.495 146.545C186.993 147.477 185.582 148.547 184.726 149.374ZM186.261 151.593C184.306 151.593 182.696 151.3 182.627 151.285C182.338 151.225 182.086 151.062 181.927 150.812C181.765 150.569 181.711 150.273 181.774 149.983C182.242 147.932 186.426 145.274 187.697 144.509C187.896 144.383 188.128 144.334 188.362 144.358C189.312 144.456 192.475 144.911 193.324 146.666C193.523 147.08 193.761 147.936 193.09 148.982C191.974 150.716 189.677 151.593 186.261 151.593Z" fill="#2B2B2A"/>
<path d="M76.063 118.708C76.063 118.708 77.5971 113.841 84.0036 113.074Z" fill="#C9B697"/>
<path d="M76.0628 119.785C75.9504 119.785 75.8379 119.767 75.7328 119.732C75.167 119.549 74.8533 118.947 75.0346 118.387C75.1017 118.158 76.8607 112.843 83.8728 112C84.464 111.929 85.0025 112.352 85.0751 112.945C85.1422 113.534 84.7215 114.073 84.1285 114.143C78.5398 114.814 77.1435 118.865 77.0855 119.038C76.9386 119.493 76.5161 119.785 76.0628 119.785Z" fill="#2B2B2A"/>
<path d="M70.3016 114.996C70.3016 114.996 72.2237 110.129 78.3673 109.997Z" fill="#C9B697"/>
<path d="M70.299 116.071C70.1684 116.071 70.0324 116.048 69.9037 115.995C69.3488 115.778 69.0786 115.152 69.298 114.599C69.3851 114.372 71.5611 109.065 78.3466 108.923C78.9395 108.903 79.4346 109.384 79.4454 109.977C79.4581 110.573 78.9885 111.063 78.3901 111.072C73.0226 111.188 71.3199 115.35 71.3036 115.389C71.1349 115.814 70.7269 116.071 70.299 116.071Z" fill="#2B2B2A"/>
<path d="M103.468 174.415C97.6764 175.207 88.1509 179.03 77.4958 177.237C72.4366 176.384 71.7892 174.495 69.2415 173.396C67.2722 172.538 64.1079 171.849 57.2572 174.411C50.4028 176.979 27.1613 179.565 28.4669 173.053C28.4669 173.053 30.2167 170.268 28.0317 170.259C25.8466 170.255 8.91733 172.87 6.86282 167.468C6.86282 167.468 4.34411 161.363 18.45 159.074C18.45 159.074 25.0542 158.262 25.522 153.074C25.6326 151.835 25.0107 149.54 21.0721 148.223C13.2657 145.608 15.3964 142.372 17.7193 141.077C19.7955 139.924 24.2454 140.344 22.5155 137.205C20.4646 133.47 22.4339 130.882 22.4339 130.882C26.6952 124.412 36.2715 130.445 36.2715 130.445C40.404 122.423 49.9893 135.031 49.9893 135.031C52.2197 133.53 60.3217 130.741 61.4605 139.842C61.4605 139.842 63 149.571 74.268 150.597C80.7833 151.188 88.7384 146.462 106.906 155.747C119.391 162.131 130.828 161.317 146.742 153.67C162.721 145.984 179.028 143.082 192.345 158.026C192.345 158.026 197.896 164.088 191.748 164.253C186.912 164.395 186.773 162.17 189.186 164.598C189.186 164.598 192.031 166.469 189.273 169.04C189.273 169.04 186.967 171.088 179.603 167.996C172.384 164.968 166.819 163.573 164.086 166.306C163.047 167.345 163.063 169.893 165.624 171.258C165.624 171.258 177.748 179.282 157.941 181.162C157.941 181.162 148.292 182.867 131.642 176.979C131.642 176.979 122.167 171.858 103.468 174.415Z" fill="#88C3EC"/>
<path d="M132.073 175.988C142.202 179.56 149.681 180.316 154.17 180.316C156.488 180.316 157.741 180.104 157.754 180.098C157.784 180.098 157.81 180.093 157.839 180.087C166.566 179.261 167.975 177.317 168.175 176.517C168.541 175.066 166.265 172.996 165.067 172.181C163.569 171.369 162.624 170.111 162.41 168.645C162.229 167.458 162.572 166.293 163.324 165.545C164.505 164.362 166.166 163.766 168.265 163.766C171.06 163.766 174.683 164.763 180.018 167.002C182.587 168.078 184.772 168.627 186.513 168.627C187.877 168.627 188.482 168.275 188.578 168.214C188.972 167.84 189.443 167.264 189.391 166.701C189.338 166.025 188.602 165.508 188.595 165.503C188.535 165.461 188.475 165.412 188.421 165.36C188.207 165.146 188.007 164.961 187.819 164.808C187.313 164.616 186.435 164.197 186.587 163.289C186.678 162.77 187.149 162.38 187.674 162.38C187.918 162.38 188.248 162.442 188.854 162.879C189.325 163.026 190.263 163.218 191.719 163.182C192.89 163.147 193.42 162.875 193.523 162.631C193.813 161.94 192.72 160.032 191.55 158.752C185.354 151.809 178.242 148.434 169.789 148.434C163.281 148.434 155.898 150.463 147.211 154.643C138.037 159.053 130.525 161.104 123.574 161.104C117.817 161.104 112.203 159.664 106.416 156.708C98.7821 152.808 92.2414 150.989 85.8403 150.989C83.5664 150.989 81.5518 151.21 79.7766 151.406C78.2769 151.567 76.8625 151.729 75.517 151.729C75.0401 151.729 74.5977 151.712 74.1697 151.671C67.9373 151.101 64.5246 147.981 62.753 145.453C60.8399 142.718 60.4138 140.122 60.3975 140.006C60.3956 139.997 60.3956 139.986 60.392 139.975C59.9351 136.343 58.2559 134.5 55.3872 134.5C53.4234 134.5 51.4432 135.353 50.591 135.926C50.114 136.248 49.4776 136.141 49.1294 135.683C47.6824 133.789 43.2216 128.854 40.0047 128.854C38.8623 128.854 37.952 129.534 37.2339 130.937C37.0907 131.207 36.8477 131.407 36.5576 131.485C36.2656 131.565 35.9537 131.521 35.698 131.356C35.6582 131.336 31.8483 128.968 28.2072 128.968C26.042 128.968 24.4463 129.786 23.3366 131.476C23.3184 131.496 23.3075 131.521 23.2912 131.537C23.2386 131.613 21.797 133.655 23.4617 136.682C24.0202 137.697 24.1344 138.598 23.7953 139.365C23.235 140.646 21.7136 141.021 20.2394 141.376C19.5014 141.563 18.7361 141.75 18.2429 142.022C17.4106 142.486 16.5982 143.279 16.6653 144.004C16.7034 144.39 17.1513 145.768 21.4126 147.201C26.5661 148.925 26.6822 152.206 26.5969 153.169C26.0692 159.047 19.1496 160.072 18.6074 160.143C11.5281 161.29 9.03298 163.345 8.18072 164.868C7.50616 166.076 7.85431 167.048 7.85794 167.059C7.86338 167.068 7.867 167.079 7.867 167.086C8.25687 168.101 10.0412 169.811 17.6336 169.811C20.7399 169.811 23.8189 169.528 25.8589 169.343C26.9233 169.246 27.6215 169.184 28.0258 169.184C29.2408 169.188 29.763 169.806 29.9643 170.179C30.579 171.291 29.8772 172.773 29.4983 173.431C29.4656 173.748 29.5454 174.006 29.7449 174.247C30.1928 174.8 31.9499 176.078 38.5432 176.073C45.2507 176.073 53.4379 174.693 56.8796 173.404C60.2252 172.149 62.9996 171.538 65.3533 171.538C67.4332 171.538 68.8131 172.033 69.6672 172.399C70.6374 172.821 71.3554 173.338 72.0463 173.833C73.2884 174.729 74.5741 175.648 77.6767 176.173C79.4864 176.479 81.385 176.629 83.3271 176.629C88.7399 176.629 93.7791 175.442 97.8283 174.484C99.9172 173.993 101.722 173.567 103.321 173.347C106.844 172.867 110.295 172.624 113.579 172.624C125.114 172.624 131.279 175.576 132.073 175.988ZM154.17 182.47C149.501 182.47 141.736 181.694 131.282 177.993C131.228 177.977 131.177 177.955 131.13 177.926C131.074 177.897 125.11 174.776 113.579 174.776C110.393 174.776 107.038 175.019 103.613 175.487C102.115 175.694 100.36 176.105 98.3215 176.59C94.1672 177.565 88.9883 178.789 83.3271 178.789C81.2671 178.789 79.2452 178.626 77.3159 178.296C73.7218 177.694 72.1642 176.575 70.7897 175.585C70.1351 175.114 69.5657 174.709 68.8131 174.386C68.0733 174.062 67.0143 173.695 65.3533 173.695C63.2915 173.695 60.6948 174.276 57.6358 175.422C54.0327 176.773 45.7076 178.231 38.5432 178.231C33.0216 178.231 29.4983 177.351 28.0748 175.618C27.4329 174.829 27.2026 173.871 27.4075 172.841C27.4347 172.711 27.4855 172.591 27.5507 172.477C27.7792 172.116 27.9805 171.632 28.0367 171.34H28.0276C27.7212 171.34 26.9469 171.409 26.0566 171.492C23.9767 171.683 20.8378 171.966 17.6336 171.966C10.7702 171.966 6.92045 170.624 5.85784 167.866C5.57133 167.155 5.34647 165.519 6.29666 163.818C7.87426 160.993 11.9035 159.042 18.2774 158.01C18.2919 158.005 18.3064 158.005 18.3209 158.005C18.5548 157.972 24.0655 157.225 24.4463 152.98C24.4989 152.411 24.381 150.469 20.7272 149.246C16.7922 147.926 14.7033 146.231 14.5165 144.202C14.3751 142.668 15.3778 141.15 17.1948 140.14C17.9401 139.725 18.8467 139.501 19.7244 139.289C20.4098 139.119 21.6864 138.802 21.8206 138.497C21.8387 138.453 21.8387 138.207 21.5704 137.721C19.32 133.634 21.2675 130.66 21.5486 130.266C23.0482 128.005 25.3494 126.81 28.2072 126.81C31.317 126.81 34.3834 128.192 35.8903 128.988C37.2013 127.124 38.8115 126.701 40.0047 126.701C44.1192 126.701 48.6108 131.642 50.2519 133.634C51.4595 133.024 53.3472 132.342 55.3872 132.342C57.7083 132.342 61.7212 133.3 62.5299 139.683C62.6152 140.192 64.2 148.599 74.3674 149.522C74.73 149.555 75.1018 149.571 75.517 149.571C76.7447 149.571 78.0394 149.428 79.5408 149.266C81.3705 149.06 83.4467 148.831 85.8403 148.831C92.595 148.831 99.4458 150.722 107.395 154.79C112.875 157.586 118.163 158.948 123.574 158.948C130.187 158.948 137.402 156.958 146.275 152.697C155.26 148.376 162.954 146.276 169.789 146.276C178.89 146.276 186.537 149.881 193.152 157.305C193.708 157.916 196.499 161.138 195.509 163.47C195.008 164.651 193.752 165.278 191.779 165.336C191.583 165.341 191.396 165.341 191.215 165.341C191.382 165.684 191.505 166.078 191.543 166.522C191.641 167.673 191.124 168.787 190.011 169.829C189.81 170.002 188.818 170.781 186.513 170.781C184.484 170.781 182.018 170.181 179.182 168.99C174.195 166.895 170.726 165.922 168.265 165.922C166.742 165.922 165.622 166.297 164.847 167.068C164.648 167.269 164.448 167.715 164.537 168.324C164.61 168.787 164.903 169.655 166.129 170.306C166.158 170.325 166.189 170.341 166.218 170.359C166.72 170.691 171.107 173.705 170.273 177.043C169.575 179.815 165.585 181.516 158.078 182.229C157.812 182.278 156.475 182.47 154.17 182.47Z" fill="#2B2B2A"/>
<path d="M34.9681 129.82C34.9681 129.82 37.8386 130.632 40.1506 133.795Z" fill="#51A4DB"/>
<path d="M40.1516 134.875C39.818 134.875 39.4934 134.723 39.2812 134.435C37.2394 131.637 34.6917 130.861 34.6663 130.854C34.0969 130.683 33.7669 130.088 33.9301 129.519C34.0969 128.948 34.6863 128.618 35.2611 128.783C35.3916 128.815 38.5196 129.735 41.022 133.158C41.3756 133.637 41.2705 134.312 40.7899 134.665C40.5959 134.808 40.3711 134.875 40.1516 134.875Z" fill="#2B2B2A"/>
<path d="M171.056 121.655C171.056 121.655 176.307 120.441 177.604 117.128C178.9 113.815 183.174 114.679 182.839 117.556C182.503 120.432 178.445 123.974 171.056 121.655Z" fill="#88C3EC"/>
<path d="M174.886 121.307C175.114 121.322 175.339 121.327 175.562 121.327C179.751 121.327 181.593 118.936 181.767 117.429C181.813 117.052 181.729 116.736 181.517 116.5C181.28 116.232 180.884 116.07 180.462 116.07C179.657 116.07 178.962 116.616 178.603 117.523C177.923 119.264 176.382 120.486 174.886 121.307ZM175.562 123.483C174.048 123.483 172.423 123.217 170.735 122.684C170.273 122.539 169.963 122.098 169.981 121.612C169.997 121.126 170.34 120.713 170.817 120.606C172.121 120.297 175.707 119.006 176.596 116.736C177.278 114.999 178.759 113.918 180.462 113.918C181.508 113.918 182.478 114.333 183.127 115.068C183.751 115.762 184.027 116.691 183.913 117.681C183.583 120.49 180.547 123.483 175.562 123.483Z" fill="#2B2B2A"/>
<path d="M22.5841 121.795C22.5841 121.795 20.5967 117.519 14.0324 116.834C10.8664 116.5 10.5998 112.71 13.2708 111.794C15.7188 110.955 20.9793 111.716 22.5841 121.795Z" fill="#88C3EC"/>
<path d="M14.8504 112.618C14.3027 112.618 13.8766 112.727 13.6191 112.816C12.7179 113.124 12.4713 113.862 12.5329 114.401C12.6181 115.157 13.2238 115.663 14.1432 115.759C17.0209 116.058 19.1026 117.004 20.5605 118.033C18.8633 113.227 16.1215 112.618 14.8504 112.618ZM22.5842 122.871C22.1744 122.871 21.7918 122.64 21.6087 122.254C21.5289 122.091 19.73 118.513 13.9219 117.908C11.978 117.703 10.5908 116.422 10.3914 114.644C10.1955 112.915 11.2092 111.36 12.921 110.772C13.5139 110.571 14.1794 110.466 14.8504 110.466C16.9556 110.466 22.0076 111.539 23.6323 121.518C23.6523 121.605 23.6668 121.699 23.6668 121.795C23.6668 122.383 23.2008 122.86 22.6187 122.871H22.5842Z" fill="#2B2B2A"/>
<path d="M69.6576 91.9453C69.6576 91.9453 66.6493 88.6922 60.0832 88.0049C56.9171 87.6713 56.6488 83.885 59.3216 82.9639C61.7732 82.1261 67.0936 82.2095 69.6576 91.9453Z" fill="#88C3EC"/>
<path d="M61.3161 83.7182C60.6035 83.7182 60.0323 83.8633 59.6678 83.9866C58.7702 84.2967 58.5217 85.0329 58.5834 85.5715C58.6704 86.3294 59.2725 86.839 60.1973 86.9315C63.454 87.2724 65.8929 88.2171 67.5739 89.1274C66.0688 85.615 63.9037 83.7182 61.3161 83.7182ZM69.6611 93.0225C69.3673 93.0225 69.0808 92.9028 68.8723 92.6797C68.8179 92.6235 65.9764 89.7041 59.9688 89.0748C58.0267 88.8736 56.6413 87.5933 56.44 85.8199C56.2442 84.0882 57.2597 82.5341 58.9696 81.9448C59.7077 81.6928 60.5164 81.5604 61.3161 81.5604C63.8149 81.5604 68.3518 82.8642 70.6747 91.5609C70.7182 91.6806 70.7418 91.8075 70.7418 91.9453C70.7418 92.5365 70.2613 93.0188 69.6701 93.0225H69.6611Z" fill="#2B2B2A"/>
<path d="M11.6472 128.178C11.6472 128.178 8.657 126.378 5.22074 126.68C2.17434 126.954 0.94671 123.93 3.3385 122.622C4.9977 121.712 8.81476 121.271 11.6472 128.178Z" fill="#88C3EC"/>
<path d="M6.01534 125.569C7.25384 125.569 8.4035 125.786 9.37 126.067C8.16958 124.192 6.786 123.193 5.34078 123.193C4.64264 123.193 4.10952 123.429 3.85928 123.567C3.32072 123.86 3.07592 124.263 3.18291 124.673C3.30259 125.146 3.85928 125.619 4.84211 125.619C4.93459 125.619 5.0307 125.616 5.12499 125.607C5.41512 125.583 5.71795 125.569 6.01534 125.569ZM11.6457 129.257C11.4553 129.257 11.2613 129.206 11.089 129.105C11.0691 129.09 8.74803 127.723 6.01534 127.723C5.78323 127.723 5.54568 127.734 5.31539 127.755C3.26632 127.94 1.51827 126.874 1.09395 125.209C0.736725 123.83 1.41672 122.441 2.81843 121.675C3.34974 121.383 4.22195 121.035 5.34078 121.035C7.41523 121.035 10.3601 122.205 12.6431 127.77C12.819 128.198 12.6993 128.697 12.3475 128.998C12.1462 129.168 11.896 129.257 11.6457 129.257Z" fill="#2B2B2A"/>
<path d="M155.975 131.986C155.975 131.986 157.34 133.181 157.767 135.487Z" fill="#C9B697"/>
<path d="M157.767 136.565C157.257 136.565 156.805 136.203 156.708 135.679C156.361 133.807 155.27 132.799 155.259 132.79C154.818 132.395 154.78 131.711 155.175 131.27C155.571 130.83 156.243 130.785 156.684 131.176C156.749 131.232 158.341 132.645 158.831 135.289C158.936 135.875 158.55 136.438 157.964 136.545C157.897 136.56 157.832 136.565 157.767 136.565Z" fill="#2B2B2A"/>
<path d="M160.84 131.814C160.84 131.814 161.951 132.5 162.805 134.803Z" fill="#C9B697"/>
<path d="M162.804 135.882C162.365 135.882 161.952 135.613 161.792 135.173C161.105 133.318 160.26 132.725 160.253 132.721L160.839 131.815L161.406 130.895C161.553 130.986 162.862 131.847 163.814 134.429C164.023 134.986 163.738 135.608 163.181 135.817C163.056 135.86 162.927 135.882 162.804 135.882Z" fill="#2B2B2A"/>
<path d="M156.893 96.8879L158.85 97.2669L171.384 100.763C171.384 100.763 170.722 105.886 166.716 109.275C162.224 113.079 154.697 112.448 154.697 112.448L156.893 96.8879Z" fill="#C9B697"/>
<path d="M157.802 98.1626L155.932 111.411C157.92 111.411 162.868 111.121 166.018 108.45C168.695 106.188 169.754 103.057 170.133 101.528L158.603 98.3149L157.802 98.1626ZM155.927 113.567C155.125 113.567 154.629 113.525 154.609 113.525C154.309 113.5 154.039 113.353 153.854 113.124C153.667 112.892 153.588 112.591 153.628 112.298L155.827 96.7355C155.871 96.4454 156.027 96.1788 156.268 96.0066C156.509 95.8379 156.81 95.7708 157.098 95.8271L159.055 96.206C159.084 96.2115 159.111 96.2187 159.14 96.226L171.679 99.7239C172.192 99.8672 172.521 100.373 172.455 100.901C172.425 101.129 171.688 106.48 167.414 110.098C163.848 113.115 158.687 113.567 155.927 113.567Z" fill="#2B2B2A"/>
<path d="M161.755 105.653C161.701 105.653 161.652 105.648 161.596 105.642L157.224 105.011C156.636 104.923 156.226 104.38 156.312 103.789C156.397 103.198 156.944 102.79 157.532 102.875L161.906 103.506C162.495 103.595 162.905 104.141 162.821 104.732C162.743 105.265 162.279 105.653 161.755 105.653Z" fill="#2B2B2A"/>
<path d="M117.606 84.4775L114.346 68.0778L104.677 83.1919L117.606 84.4775Z" fill="#DEB976"/>
<path d="M106.534 82.2924L116.267 83.2571L113.813 70.9173L106.534 82.2924ZM117.607 85.5527C117.574 85.5527 117.536 85.5509 117.501 85.5455L104.572 84.2671C104.199 84.229 103.874 84.0005 103.706 83.6632C103.546 83.326 103.568 82.9307 103.771 82.6115L113.438 67.4974C113.675 67.1256 114.112 66.9407 114.546 67.0168C114.979 67.1003 115.316 67.4357 115.407 67.8673L118.667 84.2671C118.733 84.5989 118.637 84.9435 118.406 85.2009C118.201 85.4294 117.911 85.5527 117.607 85.5527Z" fill="#2B2B2A"/>
<path d="M143.364 93.2589L152.638 79.5084L155.039 97.1685L143.364 93.2589Z" fill="#DEB976"/>
<path d="M145.05 92.684L153.738 95.5944L151.948 82.455L145.05 92.684ZM155.04 98.2437C154.926 98.2437 154.808 98.2328 154.699 98.1929L143.021 94.2797C142.702 94.1691 142.452 93.9225 142.341 93.6033C142.238 93.2842 142.285 92.9378 142.47 92.655L151.743 78.9026C151.992 78.5309 152.443 78.355 152.88 78.4547C153.317 78.5581 153.645 78.9171 153.703 79.3596L156.093 96.9163C156.113 96.9979 156.122 97.0831 156.122 97.1702C156.122 97.7649 155.642 98.2437 155.047 98.2437H155.04Z" fill="#2B2B2A"/>
<path d="M99.4096 83.5502C100.71 82.8448 144.835 84.0162 157.355 95.7539C158.305 96.6461 155.603 109.766 154.821 113.621C154.045 117.472 150.939 129.705 150.114 133.114C149.289 136.521 146.446 142.42 145.579 144.406C144.692 146.444 137.214 156.53 125.157 154.807C110.533 152.722 101.497 146.388 97.658 140.721C91.6576 131.875 92.8617 119.487 93.141 115.186C93.4166 110.879 96.4902 91.8915 96.4902 91.8915C96.4902 91.8915 98.1077 84.2501 99.4096 83.5502Z" fill="#C9B697"/>
<path d="M97.5502 92.0887C97.4197 92.892 94.4839 111.121 94.2155 115.252C94.2028 115.475 94.1865 115.715 94.1665 115.983C93.8383 120.783 93.0677 132.029 98.5512 140.12C100.277 142.663 107.31 151.169 125.309 153.742C126.172 153.862 127.044 153.927 127.895 153.927C137.951 153.927 144.022 145.283 144.592 143.975C144.753 143.605 144.983 143.101 145.254 142.501C146.438 139.897 148.416 135.538 149.067 132.858C149.281 131.958 149.662 130.444 150.108 128.635C151.343 123.688 153.198 116.219 153.765 113.404L153.863 112.929C156.369 100.548 156.592 97.2331 156.46 96.3953C145.587 86.4963 111.023 84.4672 102.31 84.4672C100.821 84.4672 100.167 84.5126 99.9076 84.5434C99.2838 85.3394 98.2085 88.986 97.5502 92.0887ZM127.895 156.083C126.941 156.083 125.969 156.012 125.004 155.878C112.267 154.054 101.712 148.618 96.7651 141.328C90.8627 132.626 91.6714 120.857 92.0141 115.836C92.0341 115.573 92.0504 115.334 92.0631 115.113C92.3405 110.806 95.2999 92.4967 95.4232 91.7169C95.425 91.7024 95.4286 91.6843 95.4341 91.668C96.2174 87.9633 97.4577 83.372 98.8993 82.5977C99.1369 82.4689 99.4361 82.3057 102.31 82.3057C113.279 82.3057 147.071 84.6322 158.092 94.97C158.759 95.592 159.445 96.2358 155.974 113.354L155.88 113.834C155.303 116.694 153.437 124.19 152.204 129.151C151.754 130.959 151.381 132.472 151.161 133.367C150.467 136.247 148.434 140.72 147.221 143.39C146.953 143.981 146.73 144.476 146.568 144.84C145.81 146.587 139.13 156.083 127.895 156.083Z" fill="#2B2B2A"/>
<path d="M118.144 111.602C118.144 111.602 114.635 122.703 119.121 125.301C119.121 125.301 121.592 126.507 124.392 126.4L127.31 122.179L128.978 127.352C128.978 127.352 132.093 128.868 134.581 128.607L136.728 124.106L138.31 129.191L141.263 129.566C141.263 129.566 143.445 129.256 144.6 122.469C145.097 119.517 144.798 118.52 144.508 117.323" fill="#DEB976"/>
<path d="M141.263 130.646C141.218 130.646 141.171 130.637 141.127 130.632L138.177 130.26C137.758 130.209 137.404 129.914 137.281 129.513L136.518 127.052L135.556 129.073C135.391 129.413 135.067 129.642 134.695 129.68C131.932 129.972 128.64 128.387 128.504 128.322C128.242 128.191 128.04 127.965 127.953 127.683L126.956 124.594L125.28 127.014C125.084 127.294 124.771 127.466 124.434 127.479C121.396 127.591 118.758 126.329 118.649 126.273C118.625 126.264 118.602 126.246 118.578 126.233C113.494 123.283 116.729 112.5 117.115 111.28C117.293 110.713 117.9 110.397 118.469 110.573C119.035 110.752 119.349 111.358 119.168 111.929C118.335 114.588 116.631 122.537 119.625 124.349C119.891 124.472 121.723 125.277 123.826 125.33L126.423 121.569C126.655 121.232 127.061 121.054 127.467 121.117C127.872 121.174 128.212 121.458 128.336 121.845L129.857 126.563C130.624 126.886 132.349 127.538 133.886 127.56L135.752 123.642C135.943 123.241 136.362 122.991 136.806 123.03C137.248 123.061 137.629 123.361 137.758 123.783L139.132 128.209L141.109 128.46C141.479 128.2 142.734 127.013 143.533 122.289C143.979 119.689 143.756 118.784 143.497 117.737L143.459 117.578C143.321 116.999 143.675 116.415 144.255 116.278C144.834 116.136 145.416 116.493 145.555 117.07L145.595 117.226C145.882 118.399 146.177 119.612 145.664 122.65C144.469 129.671 142.108 130.536 141.414 130.632C141.363 130.637 141.312 130.646 141.263 130.646Z" fill="#2B2B2A"/>
<path d="M120.308 83.9287C120.308 83.9287 139.559 83.0058 148.796 90.6091C148.796 90.6091 148.634 103.357 144.306 116.757C144.306 116.757 133.35 112.064 118.134 111.99C118.134 111.99 118.798 92.2646 120.308 83.9287Z" fill="#90826B"/>
<path d="M119.253 110.925C131.37 111.159 140.542 114.18 143.621 115.33C147.053 104.153 147.617 93.5555 147.704 91.1148C140.513 85.5769 127.589 84.9712 122.29 84.9712C121.873 84.9712 121.514 84.9767 121.224 84.9785C120.04 92.3497 119.409 106.831 119.253 110.925ZM144.304 117.838C144.156 117.838 144.014 117.805 143.878 117.747C143.769 117.704 132.926 113.14 118.125 113.072C117.835 113.069 117.558 112.949 117.354 112.741C117.155 112.53 117.044 112.247 117.053 111.954C117.082 111.149 117.735 92.0505 119.246 83.7382C119.338 83.2413 119.755 82.8732 120.258 82.8496C120.292 82.8496 121.03 82.8152 122.29 82.8152C127.923 82.8152 141.845 83.4915 149.483 89.7711C149.733 89.9851 149.882 90.297 149.877 90.6216C149.877 90.7521 149.663 103.687 145.331 117.087C145.236 117.377 145.026 117.613 144.75 117.738C144.607 117.803 144.455 117.838 144.304 117.838Z" fill="#2B2B2A"/>
<path d="M131.307 85.02C131.307 85.02 132.217 97.483 129.404 112.92Z" fill="#DEB976"/>
<path d="M129.407 113.999C129.34 113.999 129.276 113.992 129.209 113.981C128.625 113.872 128.235 113.31 128.341 112.726C131.097 97.6047 130.241 85.2251 130.235 85.0981C130.188 84.5033 130.634 83.9865 131.227 83.9412C131.829 83.9013 132.339 84.3474 132.382 84.944C132.391 85.0673 133.267 97.7207 130.464 113.11C130.368 113.635 129.918 113.999 129.407 113.999Z" fill="#2B2B2A"/>
<path d="M141.394 87.9384C141.394 87.9384 141.298 103.919 138.424 114.515Z" fill="#DEB976"/>
<path d="M138.423 115.595C138.327 115.595 138.232 115.58 138.138 115.558C137.563 115.401 137.226 114.81 137.38 114.235C140.183 103.897 140.312 88.0847 140.318 87.9305C140.319 87.3357 140.802 86.8606 141.393 86.8606H141.4C141.997 86.8625 142.475 87.3484 142.474 87.945C142.468 88.6033 142.339 104.191 139.462 114.8C139.331 115.281 138.9 115.595 138.423 115.595Z" fill="#2B2B2A"/>
<path d="M131.136 99.3335C131.136 99.3335 128.965 98.8348 128.269 98.639Z" fill="#DEB976"/>
<path d="M131.135 100.41C131.053 100.41 130.975 100.401 130.892 100.381C130.803 100.363 128.691 99.877 127.978 99.6776C127.407 99.5162 127.069 98.9214 127.231 98.3484C127.392 97.7772 127.987 97.4381 128.56 97.6013C129.224 97.7863 131.354 98.2777 131.374 98.2813C131.956 98.4119 132.319 98.9921 132.185 99.5688C132.071 100.069 131.626 100.41 131.135 100.41Z" fill="#2B2B2A"/>
<path d="M144.296 101.78C144.255 101.78 144.211 101.778 144.168 101.771C143.578 101.704 143.154 101.166 143.223 100.573C143.881 94.9712 143.901 89.669 143.901 89.6164C143.901 89.018 144.385 88.5393 144.976 88.5393H144.98C145.575 88.5393 146.057 89.0235 146.057 89.6182C146.057 89.6745 146.037 95.1018 145.366 100.825C145.301 101.376 144.835 101.78 144.296 101.78Z" fill="#2B2B2A"/>
<path d="M134.519 114.07C134.519 114.07 136.215 106.828 136.561 97.9498Z" fill="#DEB976"/>
<path d="M134.522 114.543C134.444 114.543 134.359 114.532 134.277 114.514C133.697 114.376 133.336 113.796 133.472 113.221C133.488 113.145 135.147 105.962 135.485 97.2964C135.51 96.7016 136.005 96.2428 136.604 96.2609C137.2 96.2827 137.661 96.7868 137.639 97.3816C137.294 106.261 135.644 113.411 135.572 113.705C135.452 114.204 135.011 114.543 134.522 114.543Z" fill="#2B2B2A"/>
<path d="M125.47 103.661C125.441 106.136 125.093 108.222 124.708 112.01Z" fill="#DEB976"/>
<path d="M124.709 113.089C124.671 113.089 124.637 113.088 124.598 113.082C124.004 113.022 123.576 112.493 123.634 111.902C123.752 110.754 123.866 109.755 123.966 108.873C124.205 106.813 124.374 105.323 124.395 103.647C124.403 103.058 124.883 102.581 125.471 102.581H125.485C126.08 102.592 126.559 103.078 126.551 103.676C126.526 105.459 126.346 107.076 126.107 109.116C126.007 109.992 125.893 110.982 125.781 112.121C125.723 112.672 125.253 113.089 124.709 113.089Z" fill="#2B2B2A"/>
<path d="M126.265 84.6055C126.265 84.6055 126.189 88.3428 125.812 94.2017Z" fill="#DEB976"/>
<path d="M125.813 95.2783H125.742C125.147 95.2402 124.699 94.7271 124.736 94.1287C125.109 88.3713 125.183 84.6195 125.183 84.5869C125.2 83.9958 125.678 83.5279 126.262 83.5279H126.284C126.879 83.5388 127.354 84.0302 127.341 84.625C127.341 84.6631 127.261 88.4529 126.888 94.2683C126.85 94.8377 126.378 95.2783 125.813 95.2783Z" fill="#2B2B2A"/>
<path d="M114.227 97.6758C114.055 97.6758 113.884 97.6359 113.725 97.5488C113.687 97.5289 109.933 95.5651 108.065 94.7926C107.516 94.5677 107.253 93.9385 107.478 93.3891C107.701 92.836 108.332 92.5749 108.885 92.7979C110.845 93.603 114.57 95.5596 114.729 95.6412C115.255 95.9187 115.46 96.5696 115.179 97.0991C114.989 97.4636 114.613 97.6758 114.227 97.6758Z" fill="#2B2B2A"/>
<path d="M102.397 116.728C102.35 116.728 102.307 116.728 102.261 116.721C96.58 116.008 93.909 116.494 93.8854 116.505C93.2997 116.612 92.7321 116.228 92.6233 115.642C92.5145 115.056 92.8953 114.492 93.481 114.382C93.6044 114.356 96.5148 113.825 102.531 114.581C103.121 114.657 103.54 115.196 103.463 115.783C103.396 116.327 102.932 116.728 102.397 116.728Z" fill="#2B2B2A"/>
<path d="M93.1062 125.035C92.584 125.035 92.1252 124.658 92.04 124.127C91.9493 123.539 92.3446 122.988 92.9339 122.897C93.0301 122.877 95.3475 122.516 102.351 122.692C102.951 122.709 103.42 123.2 103.404 123.797C103.388 124.395 102.887 124.868 102.298 124.848C95.5651 124.678 93.2948 125.021 93.273 125.022C93.215 125.03 93.1624 125.035 93.1062 125.035Z" fill="#2B2B2A"/>
<path d="M96.1368 133.002C94.8929 133.002 94.3144 132.875 94.2002 132.846C93.6199 132.705 93.2717 132.121 93.4132 131.54C93.5564 130.966 94.1349 130.619 94.7079 130.753C94.775 130.766 96.8132 131.167 102.199 130.177C102.784 130.072 103.348 130.461 103.454 131.042C103.562 131.627 103.173 132.193 102.589 132.298C99.5332 132.859 97.4587 133.002 96.1368 133.002Z" fill="#2B2B2A"/>
<path d="M153.346 106.546H153.337L149.946 106.511C149.352 106.508 148.875 106.02 148.88 105.423C148.886 104.832 149.366 104.357 149.957 104.357H149.972L153.355 104.39C153.95 104.399 154.431 104.885 154.427 105.48C154.418 106.074 153.938 106.546 153.346 106.546Z" fill="#2B2B2A"/>
<path d="M151.831 115.454C151.831 115.454 153.446 110.866 150.799 109.818C148.155 108.77 146.911 113.994 146.911 113.994C146.911 113.994 146.616 114.757 147.772 115.082C148.895 115.396 151.557 116.264 151.831 115.454Z" fill="#2B2B2A"/>
<path d="M102.659 83.8383L99.5693 83.1529L79.3615 79.7601C79.3615 79.7601 77.6443 84.7649 81.7733 89.9655C86.4009 95.7936 100.946 99.8428 100.946 99.8428L102.659 83.8383Z" fill="#C9B697"/>
<path d="M80.1856 80.9871C79.948 82.5211 79.87 85.8341 82.619 89.2939C86.2167 93.8255 96.4657 97.3306 100.013 98.4386L101.483 84.6863L99.3652 84.213L80.1856 80.9871ZM100.945 100.923C100.847 100.923 100.751 100.91 100.654 100.887C100.047 100.714 85.7198 96.6706 80.929 90.6358C76.4827 85.0344 78.267 79.6361 78.345 79.4077C78.5155 78.909 79.0232 78.6043 79.5436 78.695L99.7496 82.0914C99.7696 82.0932 99.7895 82.0968 99.8022 82.1005L102.892 82.7895C103.429 82.9056 103.788 83.4097 103.73 83.9591L102.016 99.9636C101.984 100.279 101.811 100.558 101.552 100.74C101.371 100.861 101.159 100.923 100.945 100.923Z" fill="#2B2B2A"/>
<path d="M101.288 93.1797C101.185 93.1797 101.083 93.167 100.982 93.1362L91.393 90.2711C90.8254 90.1025 90.499 89.5041 90.6677 88.9329C90.8399 88.3617 91.4401 88.0334 92.0113 88.2075L101.598 91.0653C102.17 91.2376 102.491 91.8433 102.322 92.4072C102.184 92.8787 101.754 93.1797 101.288 93.1797Z" fill="#2B2B2A"/>
<path d="M151.495 126.94C151.43 126.94 151.366 126.935 151.299 126.92C149.947 126.674 148.743 126.034 148.694 126.01C148.168 125.729 147.966 125.076 148.247 124.55C148.529 124.026 149.181 123.825 149.709 124.108C149.733 124.117 150.681 124.616 151.689 124.797C152.275 124.908 152.661 125.464 152.554 126.054C152.458 126.572 152.008 126.94 151.495 126.94Z" fill="#2B2B2A"/>
<path d="M149.897 133.265C149.728 133.265 149.558 133.223 149.4 133.143C148.582 132.722 147.509 132.3 147.496 132.296C146.939 132.084 146.666 131.457 146.88 130.9C147.097 130.349 147.719 130.071 148.276 130.285C148.325 130.305 149.471 130.753 150.392 131.226C150.92 131.5 151.128 132.153 150.856 132.679C150.66 133.051 150.285 133.265 149.897 133.265Z" fill="#2B2B2A"/>
<path d="M148.419 138.955C148.348 138.955 148.272 138.95 148.196 138.932C146.827 138.641 145.862 138.154 145.82 138.134C145.291 137.86 145.082 137.209 145.356 136.678C145.625 136.15 146.274 135.94 146.805 136.213C146.818 136.219 147.572 136.596 148.644 136.821C149.222 136.944 149.598 137.521 149.476 138.101C149.366 138.607 148.919 138.955 148.419 138.955Z" fill="#2B2B2A"/>
<path d="M113.87 106.277C113.87 106.277 114.67 101.43 111.705 100.56C108.731 99.6913 108.291 103.195 108.262 103.797C108.233 104.401 108.057 105.751 108.32 106.277C108.575 106.807 108.867 107.353 110.739 107.665C112.603 107.971 113.818 107.536 113.87 106.277Z" fill="#2B2B2A"/>
<path d="M116.848 136.679C119.309 133.881 125.404 133.442 129.257 135.427C135.858 138.822 129.449 140.425 128.535 141.796C127.114 143.934 125.87 144.661 121.605 142.628C114.948 139.458 114.64 139.206 116.848 136.679Z" fill="#EC6369"/>
<path d="M116.703 138.689C117.005 139.245 119.696 140.526 122.066 141.659C123.615 142.391 124.752 142.754 125.543 142.754C126.357 142.754 126.846 142.391 127.642 141.202C127.989 140.672 128.618 140.279 129.345 139.815C129.931 139.445 131.146 138.674 131.131 138.268C131.128 138.241 131.073 137.575 128.765 136.387C127.38 135.675 125.604 135.281 123.767 135.281C121.143 135.281 118.804 136.092 117.662 137.392C117.441 137.646 116.779 138.402 116.703 138.689ZM125.543 144.91C124.395 144.91 123.033 144.509 121.143 143.606C116.726 141.503 114.895 140.625 114.585 139.111C114.336 137.916 115.241 136.884 116.041 135.972C117.604 134.19 120.491 133.127 123.767 133.127C125.942 133.127 128.065 133.599 129.753 134.469C132.101 135.675 133.226 136.852 133.286 138.174C133.36 139.833 131.773 140.836 130.497 141.639C130.121 141.878 129.554 142.237 129.436 142.402C128.565 143.701 127.488 144.91 125.543 144.91Z" fill="#2B2B2A"/>
<path d="M99.1697 93.0024C99.1697 93.0024 139.611 81.3191 158.391 107.203C158.391 107.203 166.842 84.7536 135.839 77.0088C135.839 77.0088 102.135 69.411 99.1697 93.0024Z" fill="white"/>
<path d="M119.848 89.5531C131.663 89.5531 147.701 92.3475 158.053 105.398C158.668 102.751 159.42 97.0204 156.432 91.332C153.079 84.9636 146.083 80.4121 135.638 77.8027C135.606 77.7918 130.492 76.6621 124.194 76.6621C114.399 76.6621 102.44 79.3404 100.166 91.8996C103.053 91.1924 110.738 89.5531 119.848 89.5531ZM158.392 108.027C158.136 108.027 157.888 107.899 157.73 107.683C147.838 94.052 131.671 91.1905 119.848 91.1905C108.536 91.1905 99.484 93.7637 99.3951 93.7909C99.1322 93.867 98.8457 93.8036 98.6372 93.6277C98.4268 93.4463 98.3235 93.1761 98.3543 92.9005C99.1975 86.1984 102.51 81.2916 108.212 78.3123C112.389 76.1272 117.768 75.0229 124.194 75.0229C130.681 75.0229 135.8 76.158 136.019 76.2088C146.966 78.9397 154.317 83.7813 157.891 90.5903C162.282 98.9661 159.29 107.148 159.163 107.494C159.054 107.772 158.802 107.969 158.501 108.013C158.468 108.016 158.43 108.027 158.392 108.027Z" fill="#2B2B2A"/>
<path d="M124.57 103.884C123.914 107.504 122.815 109.901 120.867 111.149C118.811 112.465 115.812 112.492 111.382 111.288C101.343 108.552 100.979 103.922 102.262 98.1742C103.202 93.96 106.116 90.2554 110.014 89.7386C111.715 89.5101 113.598 89.7005 116.031 90.4512C125.136 93.2655 125.874 96.7109 124.57 103.884ZM116.087 87.316C113.831 86.6197 111.846 86.3186 110.016 86.3948C109.619 86.4129 109.22 86.4492 108.828 86.5C103.992 87.1437 99.8724 91.4649 98.5795 97.2621C97.1579 103.627 97.3809 110.592 109.831 113.981C112.517 114.705 114.753 115.026 116.664 114.948C118.577 114.868 120.254 114.375 121.649 113.484C125.054 111.308 126.409 107.139 126.936 104.204C128.458 95.8387 126.965 90.6797 116.087 87.316Z" fill="#4670B4"/>
<path d="M111.384 90.4418C110.947 90.4418 110.534 90.469 110.113 90.5216C106.825 90.9604 103.982 94.1029 103.036 98.3443C101.902 103.423 101.761 107.848 111.589 110.521C113.691 111.096 115.417 111.368 116.859 111.368C118.335 111.368 119.506 111.079 120.438 110.477C122.105 109.42 123.136 107.335 123.789 103.748C124.991 97.1203 124.6 93.9306 115.796 91.2125C114.122 90.692 112.679 90.4418 111.384 90.4418ZM116.859 112.953C115.274 112.953 113.415 112.659 111.172 112.049C101.108 109.308 100.002 104.64 101.487 98.0016C102.579 93.111 105.962 89.4771 109.906 88.953C111.798 88.6974 113.807 88.9385 116.266 89.6947C125.733 92.6232 126.721 96.482 125.352 104.033C124.612 108.093 123.363 110.497 121.292 111.816C120.095 112.581 118.645 112.953 116.859 112.953ZM110.575 87.176C110.398 87.176 110.224 87.1814 110.048 87.1887C109.676 87.2068 109.303 87.234 108.933 87.2812C104.425 87.8868 100.575 91.9632 99.3527 97.4304C97.9438 103.737 98.2666 110.009 110.037 113.214C112.65 113.924 114.799 114.235 116.63 114.158C118.402 114.077 119.947 113.629 121.22 112.818C124.351 110.809 125.632 106.949 126.157 104.062C127.585 96.1973 126.366 91.3231 115.854 88.0718C113.897 87.4697 112.171 87.176 110.575 87.176ZM116.077 115.75C114.226 115.75 112.113 115.419 109.623 114.742C96.4569 111.161 96.3898 103.429 97.8023 97.0877C99.1696 90.9731 103.558 86.3999 108.726 85.7108C109.139 85.6582 109.562 85.6238 109.983 85.6038C111.903 85.524 113.97 85.8396 116.324 86.5595C121.805 88.2567 125.151 90.4617 126.85 93.4954C128.35 96.1719 128.611 99.4196 127.722 104.345C127.138 107.542 125.69 111.845 122.074 114.151C120.563 115.116 118.754 115.649 116.695 115.738C116.492 115.747 116.286 115.75 116.077 115.75Z" fill="#2B2B2A"/>
<mask id="mask0_1172_25310" style="mask-type:luminance" maskUnits="userSpaceOnUse" x="101" y="89" width="25" height="24">
<path d="M101.733 89.6484H125.067V112.165H101.733V89.6484Z" fill="white"/>
</mask>
<g mask="url(#mask0_1172_25310)">
<g opacity="0.5">
<path d="M116.03 90.4505C113.598 89.6997 111.716 89.5093 110.013 89.7378C106.114 90.2564 103.202 93.9611 102.261 98.1734C100.977 103.924 101.342 108.551 111.382 111.287C115.812 112.492 118.811 112.466 120.866 111.148C122.813 109.902 123.914 107.503 124.569 103.884C125.873 96.7101 125.134 93.2648 116.03 90.4505Z" fill="#C0E5FA"/>
</g>
</g>
<path d="M111.384 90.4419C110.947 90.4419 110.534 90.4691 110.113 90.5217C106.826 90.9605 103.982 94.103 103.036 98.3444C101.902 103.424 101.761 107.848 111.589 110.521C113.691 111.096 115.417 111.368 116.859 111.368C118.335 111.368 119.506 111.079 120.438 110.477C122.105 109.42 123.137 107.335 123.789 103.748C124.992 97.1204 124.6 93.9308 115.796 91.2126C114.122 90.6922 112.679 90.4419 111.384 90.4419ZM116.859 112.953C115.274 112.953 113.415 112.659 111.172 112.05C101.108 109.308 100.002 104.64 101.487 98.0017C102.579 93.1111 105.962 89.4772 109.906 88.9532C111.798 88.6975 113.807 88.9387 116.266 89.6948C125.733 92.6234 126.721 96.4821 125.352 104.033C124.613 108.093 123.363 110.497 121.292 111.816C120.096 112.581 118.645 112.953 116.859 112.953Z" fill="#252422"/>
<mask id="mask1_1172_25310" style="mask-type:luminance" maskUnits="userSpaceOnUse" x="118" y="94" width="5" height="10">
<path d="M118.519 94.2745H122.802V103.827H118.519V94.2745Z" fill="white"/>
</mask>
<g mask="url(#mask1_1172_25310)">
<g opacity="0.5">
<path d="M121.671 103.828C121.603 103.828 121.532 103.822 121.465 103.799C121.055 103.686 120.816 103.262 120.933 102.854C122.324 97.9307 118.91 95.7166 118.877 95.6948C118.518 95.47 118.411 94.9913 118.64 94.6377C118.863 94.2732 119.338 94.1662 119.697 94.3947C119.738 94.4201 124.11 97.2543 122.409 103.271C122.315 103.61 122.009 103.828 121.671 103.828Z" fill="white"/>
</g>
</g>
<path d="M157.74 114.281C157.231 117.119 156.474 118.981 155.212 119.904C153.88 120.876 151.988 120.798 149.227 119.696C142.969 117.206 142.86 113.534 143.819 109.028C144.525 105.722 146.458 102.893 148.931 102.609C150.01 102.489 151.196 102.699 152.708 103.374C158.373 105.898 158.75 108.651 157.74 114.281ZM152.828 100.899C151.422 100.266 150.177 99.9666 149.018 99.9666C148.77 99.9666 148.519 99.9811 148.269 100.01C145.201 100.36 142.488 103.642 141.522 108.183C140.459 113.171 140.417 118.687 148.177 121.777C149.852 122.441 151.252 122.766 152.458 122.766C153.669 122.766 154.741 122.432 155.642 121.776C157.849 120.165 158.654 116.914 159.067 114.611C160.244 108.047 159.597 103.914 152.828 100.899Z" fill="#4670B4"/>
<path d="M149.517 103.144C149.341 103.144 149.169 103.155 148.996 103.175C146.944 103.409 145.089 105.81 144.376 109.146C143.355 113.933 143.859 116.949 149.439 119.172C152.023 120.197 153.711 120.293 154.875 119.442C155.943 118.668 156.676 116.994 157.178 114.185C158.203 108.493 157.664 106.205 152.474 103.895C151.33 103.385 150.391 103.144 149.517 103.144ZM152.957 121.149C151.867 121.149 150.578 120.848 149.014 120.224C142.071 117.462 142.365 113.119 143.264 108.909C144.077 105.092 146.331 102.337 148.866 102.049C150.101 101.904 151.372 102.158 152.94 102.856C158.826 105.476 159.349 108.531 158.297 114.381C157.731 117.542 156.882 119.39 155.546 120.36C154.823 120.891 153.974 121.149 152.957 121.149ZM149.02 100.535C148.791 100.535 148.563 100.547 148.334 100.573C145.509 100.897 142.992 104.002 142.078 108.297C141.014 113.297 141.041 118.323 148.389 121.245C149.995 121.888 151.33 122.198 152.46 122.198C153.55 122.198 154.503 121.905 155.307 121.315C157.347 119.827 158.112 116.717 158.507 114.512C159.659 108.089 159.062 104.294 152.596 101.416C151.263 100.823 150.095 100.535 149.02 100.535ZM152.46 123.335C151.18 123.335 149.709 122.996 147.968 122.305C139.766 119.041 139.919 112.978 140.965 108.065C141.984 103.284 144.893 99.8238 148.206 99.4448C148.478 99.414 148.751 99.4013 149.02 99.4013C150.258 99.4013 151.578 99.7204 153.06 100.382C160.137 103.532 160.825 108.025 159.626 114.704C159.194 117.108 158.348 120.503 155.979 122.235C154.977 122.966 153.794 123.335 152.46 123.335Z" fill="#2B2B2A"/>
<mask id="mask2_1172_25310" style="mask-type:luminance" maskUnits="userSpaceOnUse" x="143" y="102" width="16" height="19">
<path d="M143.375 102.577H158.179V120.58H143.375V102.577Z" fill="white"/>
</mask>
<g mask="url(#mask2_1172_25310)">
<g opacity="0.5">
<path d="M152.708 103.374C151.196 102.699 150.01 102.489 148.931 102.609C146.458 102.892 144.525 105.722 143.819 109.026C142.86 113.534 142.969 117.206 149.227 119.696C151.988 120.797 153.88 120.874 155.212 119.903C156.474 118.98 157.231 117.119 157.74 114.281C158.75 108.649 158.373 105.898 152.708 103.374Z" fill="#C0E5FA"/>
</g>
</g>
<path d="M149.516 103.138C149.34 103.138 149.165 103.148 148.996 103.17C146.94 103.404 145.077 105.805 144.368 109.145C143.346 113.934 143.85 116.955 149.433 119.176C150.862 119.742 152.013 120.023 152.956 120.023C153.727 120.023 154.354 119.833 154.884 119.45C155.95 118.669 156.684 116.995 157.185 114.186C158.209 108.489 157.673 106.198 152.479 103.885C151.331 103.375 150.39 103.138 149.516 103.138ZM152.956 121.142C151.866 121.142 150.581 120.837 149.019 120.217C142.078 117.457 142.374 113.116 143.271 108.909C144.085 105.101 146.336 102.345 148.865 102.055C150.1 101.914 151.368 102.164 152.938 102.862C158.815 105.484 159.339 108.536 158.289 114.382C157.72 117.541 156.877 119.38 155.54 120.357C154.817 120.881 153.97 121.142 152.956 121.142Z" fill="#252422"/>
<mask id="mask3_1172_25310" style="mask-type:luminance" maskUnits="userSpaceOnUse" x="154" y="106" width="3" height="6">
<path d="M154.125 106.144H156.872V111.889H154.125V106.144Z" fill="white"/>
</mask>
<g mask="url(#mask3_1172_25310)">
<g opacity="0.5">
<path d="M156.308 111.888H156.296C155.982 111.877 155.737 111.616 155.748 111.31C155.83 108.499 154.328 107.139 154.314 107.126C154.08 106.916 154.062 106.564 154.266 106.336C154.468 106.104 154.823 106.078 155.055 106.287C155.135 106.354 156.965 108.011 156.869 111.339C156.861 111.645 156.611 111.888 156.308 111.888Z" fill="white"/>
</g>
</g>
<path d="M97.9203 100.734C97.8423 100.734 97.7643 100.73 97.6882 100.714C96.3282 100.433 94.7089 100.622 94.1993 100.719C93.5048 100.846 92.8429 100.317 92.7269 99.5318C92.6126 98.7448 93.0805 98.0031 93.7804 97.8726C93.8711 97.8544 96.0743 97.4519 98.1451 97.878C98.8414 98.0213 99.302 98.7683 99.1787 99.5553C99.0645 100.244 98.5259 100.734 97.9203 100.734Z" fill="#F0F0F0"/>
<path d="M96.061 98.4998C94.8806 98.4998 93.9685 98.6684 93.9304 98.6757C93.6693 98.7246 93.4843 99.0673 93.5332 99.4155C93.5804 99.7328 93.8071 99.9595 94.0501 99.9142C94.458 99.838 95.2233 99.7528 96.0574 99.7528C96.7175 99.7528 97.3249 99.8072 97.8508 99.9142C98.0865 99.9649 98.3241 99.7401 98.3748 99.4228C98.4274 99.0764 98.2461 98.7301 97.985 98.6757C97.4083 98.556 96.7628 98.4998 96.061 98.4998ZM93.9902 101.55C92.953 101.553 92.0844 100.752 91.9194 99.6512C91.7435 98.4399 92.5087 97.283 93.6275 97.0745C93.7436 97.0491 94.7518 96.8641 96.061 96.8641C96.8734 96.8641 97.6278 96.9403 98.3114 97.0799C99.4266 97.3066 100.179 98.4726 99.9833 99.6821C99.8074 100.766 98.9406 101.55 97.9197 101.55C97.7891 101.55 97.655 101.539 97.528 101.512C97.1037 101.426 96.6087 101.383 96.0574 101.383C95.2849 101.383 94.6013 101.474 94.3529 101.517C94.2332 101.539 94.1099 101.55 93.9902 101.55Z" fill="#2B2B2A"/>
<path d="M141.546 108.935C141.241 108.935 140.936 108.846 140.664 108.661C136.283 105.604 128.089 104.837 128.002 104.83C127.159 104.754 126.535 104.008 126.613 103.163C126.689 102.32 127.431 101.691 128.279 101.767C128.645 101.798 137.366 102.612 142.423 106.135C143.121 106.621 143.292 107.577 142.806 108.273C142.507 108.703 142.03 108.935 141.546 108.935Z" fill="#4670B4"/>
<path d="M128.137 102.527C127.745 102.527 127.413 102.838 127.377 103.227C127.337 103.652 127.651 104.027 128.075 104.065C128.157 104.071 136.556 104.856 141.108 108.026C141.447 108.263 141.944 108.169 142.179 107.837C142.422 107.489 142.332 107.006 141.985 106.767C137.086 103.356 128.57 102.562 128.213 102.533C128.184 102.527 128.159 102.527 128.137 102.527ZM141.546 109.699C141.075 109.699 140.618 109.56 140.23 109.288C136.025 106.359 128.015 105.597 127.937 105.592C126.67 105.48 125.732 104.363 125.847 103.095C125.961 101.828 127.062 100.881 128.349 101.004C128.723 101.037 137.633 101.862 142.865 105.507C143.907 106.232 144.165 107.67 143.438 108.711C143.004 109.337 142.299 109.699 141.546 109.699Z" fill="#2B2B2A"/>
<path d="M131.097 81.4305L129.111 80.8884C129.111 80.8884 129.477 81.0842 129.311 81.6899L127.855 87.0301L129.445 87.4635L131.097 81.4305ZM130.455 83.9293L132.181 88.2577L134.02 88.76L132.163 84.3972L135.567 82.6346L133.962 82.1958L130.493 83.9257L130.455 83.9293ZM147.177 92.3232L148.831 86.274L147.25 85.846L145.872 90.8943L144.035 90.3902C143.846 90.3413 143.545 90.1327 143.681 89.6286L144.896 85.195L142.927 84.6619C142.927 84.6619 143.326 84.8632 143.159 85.458L142.203 88.9577C141.661 90.9415 143.344 91.2751 143.344 91.2751L147.177 92.3232ZM138.642 89.9913L140.22 90.4192L141.364 86.225C141.899 84.272 140.37 83.962 140.212 83.9076L135.971 82.7452C135.971 82.7452 136.325 82.9955 136.178 83.5322L134.711 88.9196L136.268 89.3421L137.652 84.2775L139.503 84.7834C139.676 84.8305 139.989 85.059 139.855 85.5468L138.642 89.9913Z" fill="#D52527"/>
</svg>
