<svg width="1400" height="3200" viewBox="0 0 1400 3200" fill="none" xmlns="http://www.w3.org/2000/svg">
<g clip-path="url(#clip0_777_6223)">
<rect x="345.94" y="1836" width="362" height="40" fill="#FFF2D9"/>
<rect x="299" y="1296" width="1036" height="44" transform="rotate(-90 299 1296)" fill="#FFFAC8" stroke="#E7E7E7" stroke-width="40"/>
<rect x="1045" y="1231" width="969" height="44" transform="rotate(-90 1045 1231)" fill="#FFFAC8" stroke="#E7E7E7" stroke-width="40"/>
<rect x="963.246" y="2693.17" width="304.746" height="44" transform="rotate(-75 963.246 2693.17)" fill="#FFFAC8" stroke="#E7E7E7" stroke-width="40"/>
<rect x="253" y="2436" width="48" height="465" transform="rotate(-90 253 2436)" fill="#F7E5E0"/>
<rect x="708" y="1359" width="48" height="1357" fill="#F7E5E0"/>
<circle cx="730" cy="2553" r="150" fill="#E7D0CA"/>
<circle cx="730" cy="2553" r="126" fill="#F8D3BE"/>
<circle cx="730" cy="2553" r="102" fill="#FFDBC6"/>
<circle cx="730" cy="2553" r="77.9998" fill="#D3D2D2"/>
<circle cx="730" cy="2553" r="46.4997" transform="rotate(-180 730 2553)" fill="#F2F2F2"/>
<path d="M724.009 2555.45V2555.99C724.009 2556.35 724.19 2556.71 724.548 2556.71H735.454C735.812 2556.71 735.99 2556.35 735.99 2555.99V2555.45C735.99 2555.09 735.812 2554.73 735.454 2554.73H724.548C724.19 2554.73 724.009 2555.09 724.009 2555.45ZM735.99 2559.77V2559.05C735.99 2558.69 735.812 2558.33 735.454 2558.33H724.548C724.19 2558.33 724.009 2558.69 724.009 2559.05V2559.77C724.009 2559.95 724.19 2560.31 724.548 2560.31H735.454C735.812 2560.31 735.99 2559.95 735.99 2559.77ZM736.348 2545.19V2544.47C736.348 2544.11 735.99 2543.93 735.634 2543.93H724.368C724.009 2543.93 723.651 2544.11 723.651 2544.47V2545.19C723.651 2545.55 724.009 2545.91 724.368 2545.91H735.634C735.99 2545.91 736.348 2545.55 736.348 2545.19ZM734.204 2551.13H725.798C725.44 2551.13 725.082 2551.49 725.082 2551.85V2552.39C725.082 2552.75 725.44 2553.11 725.798 2553.11H734.204C734.559 2553.11 734.917 2552.75 734.917 2552.39V2551.85C734.917 2551.49 734.559 2551.13 734.204 2551.13ZM726.334 2565.7L724.726 2566.96L722.76 2566.24L723.476 2568.22L722.221 2569.84H724.19L725.44 2571.64L725.979 2569.66L728.123 2568.94L726.334 2567.86V2565.7ZM735.454 2548.79V2548.07C735.454 2547.89 735.276 2547.53 734.917 2547.53H725.082C724.726 2547.53 724.548 2547.89 724.548 2548.07V2548.79C724.548 2549.15 724.726 2549.51 725.082 2549.51H734.917C735.276 2549.51 735.454 2549.15 735.454 2548.79ZM738.315 2536.74H721.688C721.329 2536.74 721.149 2536.92 721.149 2537.28V2538C721.149 2538.36 721.329 2538.72 721.688 2538.72H738.315C738.673 2538.72 738.851 2538.36 738.851 2538V2537.28C738.851 2536.92 738.673 2536.74 738.315 2536.74ZM713.282 2552.03L711.316 2551.31L712.03 2553.29L710.779 2554.91H712.924L713.996 2556.53L714.713 2554.55L716.679 2554.01L714.89 2552.75L715.071 2550.77L713.282 2552.03ZM716.502 2561.03L714.535 2560.49L715.071 2562.47L713.996 2564.08H715.965L717.215 2565.7L717.751 2563.72L719.718 2563.19L718.11 2561.93V2559.77L716.502 2561.03ZM689.5 2565.88V2566.06C689.68 2566.42 689.858 2566.78 690.217 2566.96L690.575 2567.14C692.899 2568.04 693.255 2568.76 693.791 2569.84C694.15 2570.74 694.866 2572 696.474 2573.62C700.053 2577.22 704.344 2576.5 706.13 2575.96C708.633 2577.4 710.957 2577.4 712.746 2576.86C712.746 2578.66 713.46 2580.82 715.607 2582.79C715.607 2584.59 716.321 2589.09 720.793 2591.43C722.76 2592.51 724.19 2592.69 725.262 2592.87C726.512 2592.87 727.229 2593.05 728.659 2595.03L729.017 2595.39C729.195 2595.57 729.554 2595.57 729.731 2595.57L729.912 2595.75H730.09H730.27V2595.57H730.448H730.626H730.804L730.984 2595.39L731.162 2595.03H731.343C732.951 2593.05 733.487 2592.87 734.74 2592.87C735.812 2592.69 737.242 2592.51 739.209 2591.43C743.681 2589.09 744.395 2584.59 744.395 2582.79C746.542 2580.82 747.256 2578.66 747.256 2576.68C749.045 2577.4 751.367 2577.4 753.872 2575.96C755.659 2576.5 759.95 2577.22 763.528 2573.62C765.136 2572 765.672 2570.74 766.208 2569.84C766.747 2568.58 767.103 2568.04 769.428 2567.14C769.963 2566.96 770.141 2566.6 770.322 2566.24L770.5 2565.88V2565.7C770.5 2565.34 770.322 2564.99 770.141 2564.81C768.891 2562.65 768.891 2561.93 769.25 2560.66C769.25 2559.59 769.608 2558.15 769.25 2555.99C768.355 2550.95 764.422 2548.97 762.633 2548.43C761.561 2545.73 759.594 2544.47 757.805 2543.75C759.056 2542.32 759.594 2539.98 759.056 2537.28C760.131 2535.66 762.275 2531.7 759.95 2527.2C758.878 2525.22 757.983 2524.14 757.269 2523.43C756.198 2522.52 755.839 2522.16 755.659 2519.47C755.659 2519.28 755.481 2519.11 755.481 2518.93V2518.75L755.303 2518.57C754.945 2518.21 754.228 2517.85 753.692 2518.03C751.189 2518.75 750.653 2518.39 749.403 2517.85C748.506 2517.31 747.256 2516.77 745.112 2516.41C739.923 2515.51 736.884 2518.75 735.812 2520.19C732.951 2520.55 731.162 2521.98 729.912 2523.6C728.84 2521.98 727.051 2520.55 724.19 2520.37C722.938 2518.75 719.899 2515.69 714.89 2516.41C712.746 2516.77 711.493 2517.49 710.599 2517.85C709.349 2518.57 708.813 2518.75 706.307 2518.21L705.952 2518.03C705.774 2518.03 705.593 2518.03 705.416 2518.21H705.235L705.057 2518.39H704.877V2518.57H704.699V2518.75H704.521V2518.93L704.344 2519.11V2519.28V2519.65C704.163 2522.16 703.627 2522.7 702.733 2523.6C702.016 2524.32 700.944 2525.22 700.053 2527.2C697.725 2531.88 699.872 2535.84 700.944 2537.28C700.23 2540.16 700.944 2542.32 702.016 2543.93C700.23 2544.47 698.441 2545.91 697.191 2548.43C695.58 2548.97 691.469 2550.95 690.753 2556.17C690.394 2558.33 690.575 2559.59 690.753 2560.66C691.111 2561.93 691.111 2562.65 689.68 2564.81L689.5 2565.16C689.5 2565.34 689.5 2565.52 689.5 2565.7V2565.88ZM741.893 2580.82C741.353 2581.18 741.175 2581.72 741.175 2582.26C741.175 2582.44 741.534 2586.57 737.778 2588.55C736.17 2589.27 735.276 2589.45 734.381 2589.63C732.773 2589.81 731.521 2590.17 730.09 2591.61C728.481 2590.17 727.229 2589.81 725.621 2589.63C724.726 2589.45 723.832 2589.27 722.221 2588.55C718.468 2586.57 718.827 2582.44 718.827 2582.26C718.827 2581.72 718.646 2581.18 718.288 2580.82C715.249 2578.48 715.965 2575.96 716.502 2574.7C720.435 2577.22 725.082 2578.66 730.09 2578.66C735.098 2578.66 739.745 2577.22 743.681 2574.7C744.214 2575.96 744.753 2578.48 741.893 2580.82ZM759.95 2550.23C760.131 2550.77 760.667 2551.13 761.203 2551.31C761.38 2551.31 765.317 2552.21 766.03 2556.53C766.389 2558.15 766.208 2559.23 766.03 2560.13C765.672 2561.57 765.672 2562.83 766.566 2564.81C764.778 2565.88 764.064 2566.96 763.347 2568.4C762.991 2569.3 762.455 2570.02 761.38 2571.28C758.342 2574.34 754.408 2572.72 754.228 2572.72C753.692 2572.54 753.156 2572.54 752.797 2572.9C749.759 2574.88 747.434 2573.62 746.361 2572.72C752.083 2567.86 755.659 2560.84 755.659 2552.93C755.659 2550.77 755.303 2548.61 754.945 2546.63C756.375 2546.45 758.7 2546.99 759.95 2550.23ZM736.707 2523.43C737.242 2523.43 737.778 2523.06 738.137 2522.52C738.137 2522.34 740.281 2518.75 744.573 2519.47C746.184 2519.83 747.075 2520.19 747.973 2520.73C749.403 2521.44 750.475 2521.8 752.619 2521.62C752.978 2523.78 753.872 2524.68 754.945 2525.76C755.659 2526.48 756.375 2527.2 757.089 2528.64C759.056 2532.42 756.375 2535.66 756.198 2535.84C755.839 2536.2 755.659 2536.74 755.839 2537.28C756.734 2540.7 754.945 2542.5 753.872 2543.22C750.295 2534.22 741.711 2527.74 731.701 2527.2C732.057 2525.76 733.309 2523.43 736.707 2523.43ZM730.09 2530.08C742.606 2530.08 752.797 2540.34 752.797 2552.93C752.797 2565.34 742.606 2575.6 730.09 2575.6C717.573 2575.6 707.383 2565.34 707.383 2552.93C707.383 2540.34 717.573 2530.08 730.09 2530.08ZM702.913 2528.64C703.627 2527.2 704.344 2526.48 705.057 2525.94C706.13 2524.86 707.024 2523.78 707.383 2521.62C709.526 2521.98 710.599 2521.44 712.03 2520.73C712.924 2520.37 713.64 2519.83 715.426 2519.65C719.541 2518.93 721.865 2522.52 721.865 2522.7C722.221 2523.06 722.579 2523.43 723.118 2523.43C726.693 2523.6 727.765 2525.76 728.123 2527.2C718.288 2527.92 709.708 2534.4 706.307 2543.4C705.057 2542.68 703.091 2540.88 704.163 2537.46C704.344 2536.92 704.163 2536.38 703.805 2535.84C703.627 2535.84 700.944 2532.6 702.913 2528.64ZM693.971 2560.13C693.791 2559.23 693.613 2558.33 693.791 2556.53C694.508 2552.39 698.622 2551.31 698.8 2551.31C699.336 2551.13 699.694 2550.77 699.872 2550.23C701.302 2546.81 703.805 2546.63 705.235 2546.63C704.699 2548.61 704.521 2550.77 704.521 2552.93C704.521 2560.84 708.096 2567.86 713.64 2572.54C712.746 2573.62 710.421 2574.88 707.202 2572.9C706.846 2572.54 706.307 2572.54 705.774 2572.72C705.593 2572.72 701.66 2574.34 698.622 2571.28C697.547 2570.2 697.011 2569.3 696.652 2568.4C695.938 2567.14 695.222 2565.88 693.255 2564.99C694.33 2563.01 694.15 2561.75 693.971 2560.13ZM720.971 2535.12H739.031C739.389 2535.12 739.567 2534.76 739.567 2534.4V2533.68C739.567 2533.32 739.389 2533.14 739.031 2533.14H720.971C720.616 2533.14 720.435 2533.32 720.435 2533.68V2534.4C720.435 2534.76 720.616 2535.12 720.971 2535.12ZM737.242 2540.34H722.76C722.401 2540.34 722.046 2540.52 722.046 2540.88V2541.59C722.046 2541.95 722.401 2542.32 722.76 2542.32H737.242C737.601 2542.32 737.959 2541.95 737.959 2541.59V2540.88C737.959 2540.52 737.601 2540.34 737.242 2540.34ZM737.065 2566.24L735.098 2566.96L733.487 2565.7V2567.86L731.879 2568.94L733.845 2569.66L734.381 2571.64L735.634 2569.84H737.601L736.348 2568.22L737.065 2566.24ZM742.07 2563.72L742.784 2565.7L743.859 2564.08H746.003L744.753 2562.47L745.289 2560.49L743.323 2561.03L741.711 2559.77V2561.93L740.103 2563.19L742.07 2563.72ZM745.112 2554.55L745.826 2556.53L747.075 2554.91H749.045L747.792 2553.29L748.506 2551.31L746.542 2552.03L744.753 2550.77L744.931 2552.75L743.143 2554.01L745.112 2554.55Z" fill="#D3D2D2"/>
<path d="M390 524H610V824H390V524Z" fill="#D7E9D0"/>
<path d="M500 706H430V781H500M500 706H570V781H500M500 706V743.5V781" stroke="white" stroke-width="1.5"/>
<circle cx="500" cy="744" r="15" stroke="white" stroke-width="1.5"/>
<path d="M397 577.031V572H422H447M397 577.031V612.969M397 577.031H422M497 577.031V572H472H447M497 577.031V612.969M497 577.031H472M397 612.969V618H447M397 612.969H422M497 612.969V618H447M497 612.969H472M447 572V618M422 577.031H472M422 577.031V595M422 612.969H472M422 612.969V595M472 577.031V595M472 612.969V595M422 595H472" stroke="white" stroke-width="1.5"/>
<path d="M397 633.031V628H422H447M397 633.031V668.969M397 633.031H422M497 633.031V628H472H447M497 633.031V668.969M497 633.031H472M397 668.969V674H447M397 668.969H422M497 668.969V674H447M497 668.969H472M447 628V674M422 633.031H472M422 633.031V651M422 668.969H472M422 668.969V651M472 633.031V651M472 668.969V651M422 651H472" stroke="white" stroke-width="1.5"/>
<path d="M502 577.031V572H527H552M502 577.031V612.969M502 577.031H527M602 577.031V572H577H552M602 577.031V612.969M602 577.031H577M502 612.969V618H552M502 612.969H527M602 612.969V618H552M602 612.969H577M552 572V618M527 577.031H577M527 577.031V595M527 612.969H577M527 612.969V595M577 577.031V595M577 612.969V595M527 595H577" stroke="white" stroke-width="1.5"/>
<path d="M502 633.031V628H527H552M502 633.031V668.969M502 633.031H527M602 633.031V628H577H552M602 633.031V668.969M602 633.031H577M502 668.969V674H552M502 668.969H527M602 668.969V674H552M602 668.969H577M552 628V674M527 633.031H577M527 633.031V651M527 668.969H577M527 668.969V651M577 633.031V651M577 668.969V651M527 651H577" stroke="white" stroke-width="1.5"/>
<path d="M390 297H610V524H390V297Z" fill="#ECDFBD"/>
<path d="M535 344H475V404H535M535 344H595V404H535M535 344V404" stroke="white" stroke-width="1.5"/>
<circle cx="535" cy="374" r="12" stroke="white" stroke-width="1.5"/>
<path d="M535 418H475V478H535M535 418H595V478H535M535 418V478" stroke="white" stroke-width="1.5"/>
<circle cx="535" cy="448" r="12" stroke="white" stroke-width="1.5"/>
<path d="M407 411V471H467V411M407 411V351H467V411M407 411H467" stroke="white" stroke-width="1.5"/>
<circle cx="437" cy="411" r="12" transform="rotate(-90 437 411)" stroke="white" stroke-width="1.5"/>
<rect x="708" y="240" width="48" height="1088" fill="#F7E5E0"/>
<rect y="1376" width="60" height="1402.94" transform="rotate(-90 0 1376)" fill="#E7E7E7"/>
<rect x="714.94" y="1320" width="16" height="4" fill="#FFFAC8"/>
<rect x="732.94" y="1320" width="16" height="4" fill="#FFFAC8"/>
<rect x="714.94" y="1328" width="16" height="4" fill="#FFFAC8"/>
<rect x="732.94" y="1328" width="16" height="4" fill="#FFFAC8"/>
<rect x="714.94" y="1336" width="16" height="4" fill="#FFFAC8"/>
<rect x="732.94" y="1336" width="16" height="4" fill="#FFFAC8"/>
<rect x="714.94" y="1344" width="16" height="4" fill="#FFFAC8"/>
<rect x="732.94" y="1344" width="16" height="4" fill="#FFFAC8"/>
<rect x="714.94" y="1352" width="16" height="4" fill="#FFFAC8"/>
<rect x="732.94" y="1352" width="16" height="4" fill="#FFFAC8"/>
<rect x="714.94" y="1360" width="16" height="4" fill="#FFFAC8"/>
<rect x="732.94" y="1360" width="16" height="4" fill="#FFFAC8"/>
<rect x="714.94" y="1368" width="16" height="4" fill="#FFFAC8"/>
<rect x="732.94" y="1368" width="16" height="4" fill="#FFFAC8"/>
<path d="M358.334 2516.1C351.599 2525.1 348.13 2542.98 348.13 2542.98C348.13 2542.98 330.013 2550.97 321.621 2559.9C314.154 2567.85 307.456 2583.94 307.456 2583.94C307.456 2583.94 311.219 2602.11 318.246 2611.17C324.542 2619.29 339.066 2627.34 339.066 2627.34C339.066 2627.34 338.881 2646.7 344.057 2657.48C348.946 2667.67 363.039 2679.4 363.039 2679.4C363.039 2679.4 381.617 2681 392.779 2677.79C403.757 2674.64 418.369 2663.75 418.369 2663.75C418.369 2663.75 437.502 2669.09 449.678 2667.4C458.592 2666.16 471.497 2660.09 471.497 2660.09C471.497 2660.09 480.36 2640.47 479.006 2627.04C477.653 2613.6 471.83 2603.09 471.83 2603.09C471.83 2603.09 482.459 2589.36 485.995 2579.06C489.906 2567.67 489.291 2548.38 489.291 2548.38C489.291 2548.38 476.485 2534.86 464.128 2530.28C453.236 2526.24 431.727 2525.25 431.727 2525.25C431.727 2525.25 417.842 2509.5 405.932 2504.33C396.45 2500.21 379.962 2499.21 379.962 2499.21C379.962 2499.21 364.744 2507.54 358.334 2516.1Z" fill="#A8E8E5"/>
<rect x="287" y="277" width="16" height="4" transform="rotate(-90 287 277)" fill="#FFFAC8"/>
<rect x="287" y="259" width="16" height="4" transform="rotate(-90 287 259)" fill="#FFFAC8"/>
<rect x="295" y="277" width="16" height="4" transform="rotate(-90 295 277)" fill="#FFFAC8"/>
<rect x="295" y="259" width="16" height="4" transform="rotate(-90 295 259)" fill="#FFFAC8"/>
<rect x="303" y="277" width="16" height="4" transform="rotate(-90 303 277)" fill="#FFFAC8"/>
<rect x="303" y="259" width="16" height="4" transform="rotate(-90 303 259)" fill="#FFFAC8"/>
<rect x="311" y="277" width="16" height="4" transform="rotate(-90 311 277)" fill="#FFFAC8"/>
<rect x="311" y="259" width="16" height="4" transform="rotate(-90 311 259)" fill="#FFFAC8"/>
<rect x="319" y="277" width="16" height="4" transform="rotate(-90 319 277)" fill="#FFFAC8"/>
<rect x="319" y="259" width="16" height="4" transform="rotate(-90 319 259)" fill="#FFFAC8"/>
<rect x="327" y="277" width="16" height="4" transform="rotate(-90 327 277)" fill="#FFFAC8"/>
<rect x="327" y="259" width="16" height="4" transform="rotate(-90 327 259)" fill="#FFFAC8"/>
<rect x="335" y="277" width="16" height="4" transform="rotate(-90 335 277)" fill="#FFFAC8"/>
<rect x="335" y="259" width="16" height="4" transform="rotate(-90 335 259)" fill="#FFFAC8"/>
<rect x="343" y="277" width="16" height="4" transform="rotate(-90 343 277)" fill="#FFFAC8"/>
<rect x="343" y="259" width="16" height="4" transform="rotate(-90 343 259)" fill="#FFFAC8"/>
<rect x="351" y="277" width="16" height="4" transform="rotate(-90 351 277)" fill="#FFFAC8"/>
<rect x="351" y="259" width="16" height="4" transform="rotate(-90 351 259)" fill="#FFFAC8"/>
<rect x="1203" y="1319" width="16" height="4" fill="#FFFAC8"/>
<rect x="1221" y="1319" width="16" height="4" fill="#FFFAC8"/>
<rect x="1203" y="1327" width="16" height="4" fill="#FFFAC8"/>
<rect x="1221" y="1327" width="16" height="4" fill="#FFFAC8"/>
<rect x="1203" y="1335" width="16" height="4" fill="#FFFAC8"/>
<rect x="1221" y="1335" width="16" height="4" fill="#FFFAC8"/>
<rect x="1203" y="1343" width="16" height="4" fill="#FFFAC8"/>
<rect x="1221" y="1343" width="16" height="4" fill="#FFFAC8"/>
<rect x="1203" y="1351" width="16" height="4" fill="#FFFAC8"/>
<rect x="1221" y="1351" width="16" height="4" fill="#FFFAC8"/>
<rect x="1203" y="1359" width="16" height="4" fill="#FFFAC8"/>
<rect x="1221" y="1359" width="16" height="4" fill="#FFFAC8"/>
<rect x="1203" y="1367" width="16" height="4" fill="#FFFAC8"/>
<rect x="1221" y="1367" width="16" height="4" fill="#FFFAC8"/>
<rect x="230.94" y="1320" width="16" height="4" fill="#FFFAC8"/>
<rect x="248.94" y="1320" width="16" height="4" fill="#FFFAC8"/>
<rect x="230.94" y="1328" width="16" height="4" fill="#FFFAC8"/>
<rect x="248.94" y="1328" width="16" height="4" fill="#FFFAC8"/>
<rect x="230.94" y="1336" width="16" height="4" fill="#FFFAC8"/>
<rect x="248.94" y="1336" width="16" height="4" fill="#FFFAC8"/>
<rect x="230.94" y="1344" width="16" height="4" fill="#FFFAC8"/>
<rect x="248.94" y="1344" width="16" height="4" fill="#FFFAC8"/>
<rect x="230.94" y="1352" width="16" height="4" fill="#FFFAC8"/>
<rect x="248.94" y="1352" width="16" height="4" fill="#FFFAC8"/>
<rect x="230.94" y="1360" width="16" height="4" fill="#FFFAC8"/>
<rect x="248.94" y="1360" width="16" height="4" fill="#FFFAC8"/>
<rect x="230.94" y="1368" width="16" height="4" fill="#FFFAC8"/>
<rect x="248.94" y="1368" width="16" height="4" fill="#FFFAC8"/>
<rect x="376.94" y="1320" width="16" height="4" fill="#FFFAC8"/>
<rect x="394.94" y="1320" width="16" height="4" fill="#FFFAC8"/>
<rect x="376.94" y="1328" width="16" height="4" fill="#FFFAC8"/>
<rect x="394.94" y="1328" width="16" height="4" fill="#FFFAC8"/>
<rect x="376.94" y="1336" width="16" height="4" fill="#FFFAC8"/>
<rect x="394.94" y="1336" width="16" height="4" fill="#FFFAC8"/>
<rect x="376.94" y="1344" width="16" height="4" fill="#FFFAC8"/>
<rect x="394.94" y="1344" width="16" height="4" fill="#FFFAC8"/>
<rect x="376.94" y="1352" width="16" height="4" fill="#FFFAC8"/>
<rect x="394.94" y="1352" width="16" height="4" fill="#FFFAC8"/>
<rect x="376.94" y="1360" width="16" height="4" fill="#FFFAC8"/>
<rect x="394.94" y="1360" width="16" height="4" fill="#FFFAC8"/>
<rect x="376.94" y="1368" width="16" height="4" fill="#FFFAC8"/>
<rect x="394.94" y="1368" width="16" height="4" fill="#FFFAC8"/>
<path d="M13.8918 1968.44L229.219 1975.64L226.205 2061.96L15.4674 2054.09L13.8918 1968.44Z" fill="#D9D9D9"/>
<path d="M228.547 1810.41L58.1299 1804.46L44.6821 1708.18L1.21466 1713.36L1.21465 1896.45L54.8465 1898.49L225.263 1904.44L228.547 1810.41Z" fill="#D9D9D9"/>
<path d="M67.709 2435L47 2155.92L159.705 2146.74L168.068 2116L229 2122.39L209.486 2352.36L153.333 2345.57V2429.01L67.709 2435Z" fill="#D9D9D9"/>
<path d="M1192.44 1922.99L1152.94 1525.95L1303.2 1511L1342.7 1908.04L1192.44 1922.99Z" fill="#D9D9D9"/>
<circle cx="1067" cy="1347" r="105" fill="#E7E7E7"/>
<path d="M250.72 1468.88L95.0996 1458L82.4737 1638.56L136.342 1642.33L128.808 1750.06L230.56 1757.18L250.72 1468.88Z" fill="#D9D9D9"/>
<path d="M47 1159V737H156V1159H47Z" fill="#D9D9D9"/>
<rect x="1045" y="2377" width="917" height="44" transform="rotate(-90 1045 2377)" fill="#FFFAC8" stroke="#E7E7E7" stroke-width="40"/>
<rect x="298.94" y="2267" width="871" height="44" transform="rotate(-90 298.94 2267)" fill="#FFFAC8" stroke="#E7E7E7" stroke-width="40"/>
<rect x="24" y="2733" width="1349" height="64" fill="#FFFAC8" stroke="#E7E7E7" stroke-width="60"/>
<rect x="189.02" y="2688.34" width="413.337" height="44" transform="rotate(-75 189.02 2688.34)" fill="#FFFAC8" stroke="#E7E7E7" stroke-width="40"/>
<rect x="28" y="148" width="1360" height="64" fill="#FFFAC8" stroke="#E7E7E7" stroke-width="60"/>
<path d="M907 1433.5V1452.5H877V1794H922.5V1824.5H955V1490H969.5V1433.5H907Z" fill="#D9D9D9"/>
<rect width="286" height="120" transform="translate(175 120)" fill="#E7E7E7"/>
<rect x="228" y="126" width="16" height="4" fill="#FFFAC8"/>
<rect x="246" y="126" width="16" height="4" fill="#FFFAC8"/>
<rect x="228" y="134" width="16" height="4" fill="#FFFAC8"/>
<rect x="246" y="134" width="16" height="4" fill="#FFFAC8"/>
<rect x="228" y="142" width="16" height="4" fill="#FFFAC8"/>
<rect x="246" y="142" width="16" height="4" fill="#FFFAC8"/>
<rect x="228" y="150" width="16" height="4" fill="#FFFAC8"/>
<rect x="246" y="150" width="16" height="4" fill="#FFFAC8"/>
<rect x="228" y="158" width="16" height="4" fill="#FFFAC8"/>
<rect x="246" y="158" width="16" height="4" fill="#FFFAC8"/>
<rect x="228" y="166" width="16" height="4" fill="#FFFAC8"/>
<rect x="246" y="166" width="16" height="4" fill="#FFFAC8"/>
<rect x="228" y="174" width="16" height="4" fill="#FFFAC8"/>
<rect x="246" y="174" width="16" height="4" fill="#FFFAC8"/>
<rect x="228" y="182" width="16" height="4" fill="#FFFAC8"/>
<rect x="246" y="182" width="16" height="4" fill="#FFFAC8"/>
<rect x="228" y="190" width="16" height="4" fill="#FFFAC8"/>
<rect x="246" y="190" width="16" height="4" fill="#FFFAC8"/>
<rect x="228" y="198" width="16" height="4" fill="#FFFAC8"/>
<rect x="246" y="198" width="16" height="4" fill="#FFFAC8"/>
<rect x="228" y="206" width="16" height="4" fill="#FFFAC8"/>
<rect x="246" y="206" width="16" height="4" fill="#FFFAC8"/>
<rect x="228" y="214" width="16" height="4" fill="#FFFAC8"/>
<rect x="246" y="214" width="16" height="4" fill="#FFFAC8"/>
<rect x="228" y="222" width="16" height="4" fill="#FFFAC8"/>
<rect x="246" y="222" width="16" height="4" fill="#FFFAC8"/>
<rect x="228" y="230" width="16" height="4" fill="#FFFAC8"/>
<rect x="246" y="230" width="16" height="4" fill="#FFFAC8"/>
<rect x="374" y="126" width="16" height="4" fill="#FFFAC8"/>
<rect x="392" y="126" width="16" height="4" fill="#FFFAC8"/>
<rect x="374" y="134" width="16" height="4" fill="#FFFAC8"/>
<rect x="392" y="134" width="16" height="4" fill="#FFFAC8"/>
<rect x="374" y="142" width="16" height="4" fill="#FFFAC8"/>
<rect x="392" y="142" width="16" height="4" fill="#FFFAC8"/>
<rect x="374" y="150" width="16" height="4" fill="#FFFAC8"/>
<rect x="392" y="150" width="16" height="4" fill="#FFFAC8"/>
<rect x="374" y="158" width="16" height="4" fill="#FFFAC8"/>
<rect x="392" y="158" width="16" height="4" fill="#FFFAC8"/>
<rect x="374" y="166" width="16" height="4" fill="#FFFAC8"/>
<rect x="392" y="166" width="16" height="4" fill="#FFFAC8"/>
<rect x="374" y="174" width="16" height="4" fill="#FFFAC8"/>
<rect x="392" y="174" width="16" height="4" fill="#FFFAC8"/>
<rect x="374" y="182" width="16" height="4" fill="#FFFAC8"/>
<rect x="392" y="182" width="16" height="4" fill="#FFFAC8"/>
<rect x="374" y="190" width="16" height="4" fill="#FFFAC8"/>
<rect x="392" y="190" width="16" height="4" fill="#FFFAC8"/>
<rect x="374" y="198" width="16" height="4" fill="#FFFAC8"/>
<rect x="392" y="198" width="16" height="4" fill="#FFFAC8"/>
<rect x="374" y="206" width="16" height="4" fill="#FFFAC8"/>
<rect x="392" y="206" width="16" height="4" fill="#FFFAC8"/>
<rect x="374" y="214" width="16" height="4" fill="#FFFAC8"/>
<rect x="392" y="214" width="16" height="4" fill="#FFFAC8"/>
<rect x="374" y="222" width="16" height="4" fill="#FFFAC8"/>
<rect x="392" y="222" width="16" height="4" fill="#FFFAC8"/>
<rect x="374" y="230" width="16" height="4" fill="#FFFAC8"/>
<rect x="392" y="230" width="16" height="4" fill="#FFFAC8"/>
<rect width="286" height="120" transform="translate(920.94 119)" fill="#E7E7E7"/>
<rect x="973.94" y="125" width="16" height="4" fill="#FFFAC8"/>
<rect x="991.94" y="125" width="16" height="4" fill="#FFFAC8"/>
<rect x="973.94" y="133" width="16" height="4" fill="#FFFAC8"/>
<rect x="991.94" y="133" width="16" height="4" fill="#FFFAC8"/>
<rect x="973.94" y="141" width="16" height="4" fill="#FFFAC8"/>
<rect x="991.94" y="141" width="16" height="4" fill="#FFFAC8"/>
<rect x="973.94" y="149" width="16" height="4" fill="#FFFAC8"/>
<rect x="991.94" y="149" width="16" height="4" fill="#FFFAC8"/>
<rect x="973.94" y="157" width="16" height="4" fill="#FFFAC8"/>
<rect x="991.94" y="157" width="16" height="4" fill="#FFFAC8"/>
<rect x="973.94" y="165" width="16" height="4" fill="#FFFAC8"/>
<rect x="991.94" y="165" width="16" height="4" fill="#FFFAC8"/>
<rect x="973.94" y="173" width="16" height="4" fill="#FFFAC8"/>
<rect x="991.94" y="173" width="16" height="4" fill="#FFFAC8"/>
<rect x="973.94" y="181" width="16" height="4" fill="#FFFAC8"/>
<rect x="991.94" y="181" width="16" height="4" fill="#FFFAC8"/>
<rect x="973.94" y="189" width="16" height="4" fill="#FFFAC8"/>
<rect x="991.94" y="189" width="16" height="4" fill="#FFFAC8"/>
<rect x="973.94" y="197" width="16" height="4" fill="#FFFAC8"/>
<rect x="991.94" y="197" width="16" height="4" fill="#FFFAC8"/>
<rect x="973.94" y="205" width="16" height="4" fill="#FFFAC8"/>
<rect x="991.94" y="205" width="16" height="4" fill="#FFFAC8"/>
<rect x="973.94" y="213" width="16" height="4" fill="#FFFAC8"/>
<rect x="991.94" y="213" width="16" height="4" fill="#FFFAC8"/>
<rect x="973.94" y="221" width="16" height="4" fill="#FFFAC8"/>
<rect x="991.94" y="221" width="16" height="4" fill="#FFFAC8"/>
<rect x="973.94" y="229" width="16" height="4" fill="#FFFAC8"/>
<rect x="991.94" y="229" width="16" height="4" fill="#FFFAC8"/>
<rect x="1119.94" y="125" width="16" height="4" fill="#FFFAC8"/>
<rect x="1137.94" y="125" width="16" height="4" fill="#FFFAC8"/>
<rect x="1119.94" y="133" width="16" height="4" fill="#FFFAC8"/>
<rect x="1137.94" y="133" width="16" height="4" fill="#FFFAC8"/>
<rect x="1119.94" y="141" width="16" height="4" fill="#FFFAC8"/>
<rect x="1137.94" y="141" width="16" height="4" fill="#FFFAC8"/>
<rect x="1119.94" y="149" width="16" height="4" fill="#FFFAC8"/>
<rect x="1137.94" y="149" width="16" height="4" fill="#FFFAC8"/>
<rect x="1119.94" y="157" width="16" height="4" fill="#FFFAC8"/>
<rect x="1137.94" y="157" width="16" height="4" fill="#FFFAC8"/>
<rect x="1119.94" y="165" width="16" height="4" fill="#FFFAC8"/>
<rect x="1137.94" y="165" width="16" height="4" fill="#FFFAC8"/>
<rect x="1119.94" y="173" width="16" height="4" fill="#FFFAC8"/>
<rect x="1137.94" y="173" width="16" height="4" fill="#FFFAC8"/>
<rect x="1119.94" y="181" width="16" height="4" fill="#FFFAC8"/>
<rect x="1137.94" y="181" width="16" height="4" fill="#FFFAC8"/>
<rect x="1119.94" y="189" width="16" height="4" fill="#FFFAC8"/>
<rect x="1137.94" y="189" width="16" height="4" fill="#FFFAC8"/>
<rect x="1119.94" y="197" width="16" height="4" fill="#FFFAC8"/>
<rect x="1137.94" y="197" width="16" height="4" fill="#FFFAC8"/>
<rect x="1119.94" y="205" width="16" height="4" fill="#FFFAC8"/>
<rect x="1137.94" y="205" width="16" height="4" fill="#FFFAC8"/>
<rect x="1119.94" y="213" width="16" height="4" fill="#FFFAC8"/>
<rect x="1137.94" y="213" width="16" height="4" fill="#FFFAC8"/>
<rect x="1119.94" y="221" width="16" height="4" fill="#FFFAC8"/>
<rect x="1137.94" y="221" width="16" height="4" fill="#FFFAC8"/>
<rect x="1119.94" y="229" width="16" height="4" fill="#FFFAC8"/>
<rect x="1137.94" y="229" width="16" height="4" fill="#FFFAC8"/>
<path d="M887.706 273.593C898.162 269.261 905.77 271.136 916.866 273.593C937.177 278.091 947.828 287.947 959.337 304.634C970.51 320.834 976.966 333.735 972.649 352.718C967.382 375.876 951.56 392.239 927.008 394.714C903.86 397.049 888.654 384.835 875.028 366.717C860.087 346.849 857.359 327.853 865.52 304.634C870.416 290.704 873.647 279.419 887.706 273.593Z" fill="#A8E8E5"/>
<rect width="180" height="400" transform="translate(411 1908)" fill="#D7E9D0"/>
<path d="M431 1935V1928H466H501M431 1935V1985M431 1935H466M571 1935V1928H536H501M571 1935V1985M571 1935H536M431 1985V1992H501M431 1985H466M571 1985V1992H501M571 1985H536M501 1928V1992M466 1935H536M466 1935V1960M466 1985H536M466 1985V1960M536 1935V1960M536 1985V1960M466 1960H536" stroke="white" stroke-width="1.5"/>
<path d="M431 2009V2002H466H501M431 2009V2059M431 2009H466M571 2009V2002H536H501M571 2009V2059M571 2009H536M431 2059V2066H501M431 2059H466M571 2059V2066H501M571 2059H536M501 2002V2066M466 2009H536M466 2009V2034M466 2059H536M466 2059V2034M536 2009V2034M536 2059V2034M466 2034H536" stroke="white" stroke-width="1.5"/>
<path d="M431 2083V2076H466H501M431 2083V2133M431 2083H466M571 2083V2076H536H501M571 2083V2133M571 2083H536M431 2133V2140H501M431 2133H466M571 2133V2140H501M571 2133H536M501 2076V2140M466 2083H536M466 2083V2108M466 2133H536M466 2133V2108M536 2083V2108M536 2133V2108M466 2108H536" stroke="white" stroke-width="1.5"/>
<path d="M431 2157V2150H466H501M431 2157V2207M431 2157H466M571 2157V2150H536H501M571 2157V2207M571 2157H536M431 2207V2214H501M431 2207H466M571 2207V2214H501M571 2207H536M501 2150V2214M466 2157H536M466 2157V2182M466 2207H536M466 2207V2182M536 2157V2182M536 2207V2182M466 2182H536" stroke="white" stroke-width="1.5"/>
<path d="M431 2231V2224H466H501M431 2231V2281M431 2231H466M571 2231V2224H536H501M571 2231V2281M571 2231H536M431 2281V2288H501M431 2281H466M571 2281V2288H501M571 2281H536M501 2224V2288M466 2231H536M466 2231V2256M466 2281H536M466 2281V2256M536 2231V2256M536 2281V2256M466 2256H536" stroke="white" stroke-width="1.5"/>
<rect width="180" height="400" transform="translate(411 1404)" fill="#D7E9D0"/>
<path d="M431 1431V1424H466H501M431 1431V1481M431 1431H466M571 1431V1424H536H501M571 1431V1481M571 1431H536M431 1481V1488H501M431 1481H466M571 1481V1488H501M571 1481H536M501 1424V1488M466 1431H536M466 1431V1456M466 1481H536M466 1481V1456M536 1431V1456M536 1481V1456M466 1456H536" stroke="white" stroke-width="1.5"/>
<path d="M431 1505V1498H466H501M431 1505V1555M431 1505H466M571 1505V1498H536H501M571 1505V1555M571 1505H536M431 1555V1562H501M431 1555H466M571 1555V1562H501M571 1555H536M501 1498V1562M466 1505H536M466 1505V1530M466 1555H536M466 1555V1530M536 1505V1530M536 1555V1530M466 1530H536" stroke="white" stroke-width="1.5"/>
<path d="M431 1579V1572H466H501M431 1579V1629M431 1579H466M571 1579V1572H536H501M571 1579V1629M571 1579H536M431 1629V1636H501M431 1629H466M571 1629V1636H501M571 1629H536M501 1572V1636M466 1579H536M466 1579V1604M466 1629H536M466 1629V1604M536 1579V1604M536 1629V1604M466 1604H536" stroke="white" stroke-width="1.5"/>
<path d="M431 1653V1646H466H501M431 1653V1703M431 1653H466M571 1653V1646H536H501M571 1653V1703M571 1653H536M431 1703V1710H501M431 1703H466M571 1703V1710H501M571 1703H536M501 1646V1710M466 1653H536M466 1653V1678M466 1703H536M466 1703V1678M536 1653V1678M536 1703V1678M466 1678H536" stroke="white" stroke-width="1.5"/>
<path d="M431 1727V1720H466H501M431 1727V1777M431 1727H466M571 1727V1720H536H501M571 1727V1777M571 1727H536M431 1777V1784H501M431 1777H466M571 1777V1784H501M571 1777H536M501 1720V1784M466 1727H536M466 1727V1752M466 1777H536M466 1777V1752M536 1727V1752M536 1777V1752M466 1752H536" stroke="white" stroke-width="1.5"/>
<rect width="180" height="178" transform="translate(411 1033)" fill="#D7E9D0"/>
<path d="M431 1060V1053H466H501M431 1060V1110M431 1060H466M571 1060V1053H536H501M571 1060V1110M571 1060H536M431 1110V1117H501M431 1110H466M571 1110V1117H501M571 1110H536M501 1053V1117M466 1060H536M466 1060V1085M466 1110H536M466 1110V1085M536 1060V1085M536 1110V1085M466 1085H536" stroke="white" stroke-width="1.5"/>
<path d="M431 1134V1127H466H501M431 1134V1184M431 1134H466M571 1134V1127H536H501M571 1134V1184M571 1134H536M431 1184V1191H501M431 1184H466M571 1184V1191H501M571 1184H536M501 1127V1191M466 1134H536M466 1134V1159M466 1184H536M466 1184V1159M536 1134V1159M536 1184V1159M466 1159H536" stroke="white" stroke-width="1.5"/>
<rect x="1033" y="277" width="16" height="4" transform="rotate(-90 1033 277)" fill="#FFFAC8"/>
<rect x="1033" y="259" width="16" height="4" transform="rotate(-90 1033 259)" fill="#FFFAC8"/>
<rect x="1041" y="277" width="16" height="4" transform="rotate(-90 1041 277)" fill="#FFFAC8"/>
<rect x="1041" y="259" width="16" height="4" transform="rotate(-90 1041 259)" fill="#FFFAC8"/>
<rect x="1049" y="277" width="16" height="4" transform="rotate(-90 1049 277)" fill="#FFFAC8"/>
<rect x="1049" y="259" width="16" height="4" transform="rotate(-90 1049 259)" fill="#FFFAC8"/>
<rect x="1057" y="277" width="16" height="4" transform="rotate(-90 1057 277)" fill="#FFFAC8"/>
<rect x="1057" y="259" width="16" height="4" transform="rotate(-90 1057 259)" fill="#FFFAC8"/>
<rect x="1065" y="277" width="16" height="4" transform="rotate(-90 1065 277)" fill="#FFFAC8"/>
<rect x="1065" y="259" width="16" height="4" transform="rotate(-90 1065 259)" fill="#FFFAC8"/>
<rect x="1073" y="277" width="16" height="4" transform="rotate(-90 1073 277)" fill="#FFFAC8"/>
<rect x="1073" y="259" width="16" height="4" transform="rotate(-90 1073 259)" fill="#FFFAC8"/>
<rect x="1081" y="277" width="16" height="4" transform="rotate(-90 1081 277)" fill="#FFFAC8"/>
<rect x="1081" y="259" width="16" height="4" transform="rotate(-90 1081 259)" fill="#FFFAC8"/>
<rect x="1089" y="277" width="16" height="4" transform="rotate(-90 1089 277)" fill="#FFFAC8"/>
<rect x="1089" y="259" width="16" height="4" transform="rotate(-90 1089 259)" fill="#FFFAC8"/>
<rect x="1097" y="277" width="16" height="4" transform="rotate(-90 1097 277)" fill="#FFFAC8"/>
<rect x="1097" y="259" width="16" height="4" transform="rotate(-90 1097 259)" fill="#FFFAC8"/>
<rect x="1032.94" y="1249" width="16" height="4" transform="rotate(-90 1032.94 1249)" fill="#FFFAC8"/>
<rect x="1032.94" y="1231" width="16" height="4" transform="rotate(-90 1032.94 1231)" fill="#FFFAC8"/>
<rect x="1040.94" y="1249" width="16" height="4" transform="rotate(-90 1040.94 1249)" fill="#FFFAC8"/>
<rect x="1040.94" y="1231" width="16" height="4" transform="rotate(-90 1040.94 1231)" fill="#FFFAC8"/>
<rect x="1048.94" y="1249" width="16" height="4" transform="rotate(-90 1048.94 1249)" fill="#FFFAC8"/>
<rect x="1048.94" y="1231" width="16" height="4" transform="rotate(-90 1048.94 1231)" fill="#FFFAC8"/>
<rect x="1056.94" y="1249" width="16" height="4" transform="rotate(-90 1056.94 1249)" fill="#FFFAC8"/>
<rect x="1056.94" y="1231" width="16" height="4" transform="rotate(-90 1056.94 1231)" fill="#FFFAC8"/>
<rect x="1064.94" y="1249" width="16" height="4" transform="rotate(-90 1064.94 1249)" fill="#FFFAC8"/>
<rect x="1064.94" y="1231" width="16" height="4" transform="rotate(-90 1064.94 1231)" fill="#FFFAC8"/>
<rect x="1072.94" y="1249" width="16" height="4" transform="rotate(-90 1072.94 1249)" fill="#FFFAC8"/>
<rect x="1072.94" y="1231" width="16" height="4" transform="rotate(-90 1072.94 1231)" fill="#FFFAC8"/>
<rect x="1080.94" y="1249" width="16" height="4" transform="rotate(-90 1080.94 1249)" fill="#FFFAC8"/>
<rect x="1080.94" y="1231" width="16" height="4" transform="rotate(-90 1080.94 1231)" fill="#FFFAC8"/>
<rect x="1088.94" y="1249" width="16" height="4" transform="rotate(-90 1088.94 1249)" fill="#FFFAC8"/>
<rect x="1088.94" y="1231" width="16" height="4" transform="rotate(-90 1088.94 1231)" fill="#FFFAC8"/>
<rect x="1096.94" y="1249" width="16" height="4" transform="rotate(-90 1096.94 1249)" fill="#FFFAC8"/>
<rect x="1096.94" y="1231" width="16" height="4" transform="rotate(-90 1096.94 1231)" fill="#FFFAC8"/>
<rect x="1032.94" y="1477" width="16" height="4" transform="rotate(-90 1032.94 1477)" fill="#FFFAC8"/>
<rect x="1032.94" y="1459" width="16" height="4" transform="rotate(-90 1032.94 1459)" fill="#FFFAC8"/>
<rect x="1040.94" y="1477" width="16" height="4" transform="rotate(-90 1040.94 1477)" fill="#FFFAC8"/>
<rect x="1040.94" y="1459" width="16" height="4" transform="rotate(-90 1040.94 1459)" fill="#FFFAC8"/>
<rect x="1048.94" y="1477" width="16" height="4" transform="rotate(-90 1048.94 1477)" fill="#FFFAC8"/>
<rect x="1048.94" y="1459" width="16" height="4" transform="rotate(-90 1048.94 1459)" fill="#FFFAC8"/>
<rect x="1056.94" y="1477" width="16" height="4" transform="rotate(-90 1056.94 1477)" fill="#FFFAC8"/>
<rect x="1056.94" y="1459" width="16" height="4" transform="rotate(-90 1056.94 1459)" fill="#FFFAC8"/>
<rect x="1064.94" y="1477" width="16" height="4" transform="rotate(-90 1064.94 1477)" fill="#FFFAC8"/>
<rect x="1064.94" y="1459" width="16" height="4" transform="rotate(-90 1064.94 1459)" fill="#FFFAC8"/>
<rect x="1072.94" y="1477" width="16" height="4" transform="rotate(-90 1072.94 1477)" fill="#FFFAC8"/>
<rect x="1072.94" y="1459" width="16" height="4" transform="rotate(-90 1072.94 1459)" fill="#FFFAC8"/>
<rect x="1080.94" y="1477" width="16" height="4" transform="rotate(-90 1080.94 1477)" fill="#FFFAC8"/>
<rect x="1080.94" y="1459" width="16" height="4" transform="rotate(-90 1080.94 1459)" fill="#FFFAC8"/>
<rect x="1088.94" y="1477" width="16" height="4" transform="rotate(-90 1088.94 1477)" fill="#FFFAC8"/>
<rect x="1088.94" y="1459" width="16" height="4" transform="rotate(-90 1088.94 1459)" fill="#FFFAC8"/>
<rect x="1096.94" y="1477" width="16" height="4" transform="rotate(-90 1096.94 1477)" fill="#FFFAC8"/>
<rect x="1096.94" y="1459" width="16" height="4" transform="rotate(-90 1096.94 1459)" fill="#FFFAC8"/>
<path d="M888.94 1196V881H976.94V1196H888.94Z" fill="#D9D9D9"/>
<path d="M1139.94 860V545H1227.94V860H1139.94Z" fill="#D9D9D9"/>
<path d="M1442.29 2485.23L1187.94 2357.95L1238.96 2256L1493.3 2383.28L1442.29 2485.23Z" fill="#D9D9D9"/>
<path d="M158.5 343H17L-10 423V608L32.5 616.5L58.5 521.5H96L131.5 644L236.5 616.5L158.5 343Z" fill="#D9D9D9"/>
<path d="M1233 900V850L1305 839V907.5L1233 900Z" fill="#D9D9D9"/>
</g>
<defs>
<clipPath id="clip0_777_6223">
<rect width="1400" height="3200" fill="white"/>
</clipPath>
</defs>
</svg>
