<svg width="1400" height="3000" viewBox="0 0 1400 3000" fill="none" xmlns="http://www.w3.org/2000/svg">
<g clip-path="url(#clip0_762_3046)">
<rect x="251.06" y="1294" width="914" height="54" transform="rotate(-90 251.06 1294)" fill="#FFFAC8" stroke="#E7E7E7" stroke-width="50"/>
<rect x="1097.06" y="1231" width="850" height="54" transform="rotate(-90 1097.06 1231)" fill="#FFFAC8" stroke="#E7E7E7" stroke-width="50"/>
<rect x="1018.88" y="2686.65" width="290.156" height="54" transform="rotate(-75 1018.88 2686.65)" fill="#FFFAC8" stroke="#E7E7E7" stroke-width="50"/>
<rect x="260.06" y="2435" width="48" height="465" transform="rotate(-90 260.06 2435)" fill="#F7E5E0"/>
<rect x="715.06" y="1359" width="48" height="1357" fill="#F7E5E0"/>
<circle cx="737.06" cy="2553" r="150" fill="#E7D0CA"/>
<circle cx="737.06" cy="2553" r="126" fill="#F8D3BE"/>
<circle cx="737.06" cy="2553" r="102" fill="#FFDBC6"/>
<circle cx="737.06" cy="2553" r="77.9998" fill="#D3D2D2"/>
<circle cx="737.06" cy="2553" r="46.4997" transform="rotate(-180 737.06 2553)" fill="#F2F2F2"/>
<path d="M731.069 2555.45V2555.99C731.069 2556.35 731.25 2556.71 731.608 2556.71H742.514C742.872 2556.71 743.05 2556.35 743.05 2555.99V2555.45C743.05 2555.09 742.872 2554.73 742.514 2554.73H731.608C731.25 2554.73 731.069 2555.09 731.069 2555.45ZM743.05 2559.77V2559.05C743.05 2558.69 742.872 2558.33 742.514 2558.33H731.608C731.25 2558.33 731.069 2558.69 731.069 2559.05V2559.77C731.069 2559.95 731.25 2560.31 731.608 2560.31H742.514C742.872 2560.31 743.05 2559.95 743.05 2559.77ZM743.408 2545.19V2544.47C743.408 2544.11 743.05 2543.93 742.694 2543.93H731.428C731.069 2543.93 730.711 2544.11 730.711 2544.47V2545.19C730.711 2545.55 731.069 2545.91 731.428 2545.91H742.694C743.05 2545.91 743.408 2545.55 743.408 2545.19ZM741.264 2551.13H732.858C732.5 2551.13 732.142 2551.49 732.142 2551.85V2552.39C732.142 2552.75 732.5 2553.11 732.858 2553.11H741.264C741.619 2553.11 741.977 2552.75 741.977 2552.39V2551.85C741.977 2551.49 741.619 2551.13 741.264 2551.13ZM733.395 2565.7L731.786 2566.96L729.82 2566.24L730.537 2568.22L729.281 2569.84H731.25L732.5 2571.64L733.039 2569.66L735.183 2568.94L733.395 2567.86V2565.7ZM742.514 2548.79V2548.07C742.514 2547.89 742.336 2547.53 741.977 2547.53H732.142C731.786 2547.53 731.608 2547.89 731.608 2548.07V2548.79C731.608 2549.15 731.786 2549.51 732.142 2549.51H741.977C742.336 2549.51 742.514 2549.15 742.514 2548.79ZM745.375 2536.74H728.748C728.389 2536.74 728.209 2536.92 728.209 2537.28V2538C728.209 2538.36 728.389 2538.72 728.748 2538.72H745.375C745.733 2538.72 745.911 2538.36 745.911 2538V2537.28C745.911 2536.92 745.733 2536.74 745.375 2536.74ZM720.342 2552.03L718.376 2551.31L719.09 2553.29L717.84 2554.91H719.984L721.056 2556.53L721.773 2554.55L723.739 2554.01L721.95 2552.75L722.131 2550.77L720.342 2552.03ZM723.562 2561.03L721.595 2560.49L722.131 2562.47L721.056 2564.08H723.025L724.275 2565.7L724.812 2563.72L726.778 2563.19L725.17 2561.93V2559.77L723.562 2561.03ZM696.56 2565.88V2566.06C696.74 2566.42 696.918 2566.78 697.277 2566.96L697.635 2567.14C699.96 2568.04 700.316 2568.76 700.851 2569.84C701.21 2570.74 701.926 2572 703.534 2573.62C707.113 2577.22 711.404 2576.5 713.19 2575.96C715.693 2577.4 718.017 2577.4 719.806 2576.86C719.806 2578.66 720.52 2580.82 722.667 2582.79C722.667 2584.59 723.381 2589.09 727.853 2591.43C729.82 2592.51 731.25 2592.69 732.322 2592.87C733.572 2592.87 734.289 2593.05 735.719 2595.03L736.077 2595.39C736.255 2595.57 736.614 2595.57 736.791 2595.57L736.972 2595.75H737.15H737.33V2595.57H737.508H737.686H737.864L738.044 2595.39L738.222 2595.03H738.403C740.011 2593.05 740.547 2592.87 741.8 2592.87C742.872 2592.69 744.302 2592.51 746.269 2591.43C750.742 2589.09 751.455 2584.59 751.455 2582.79C753.602 2580.82 754.316 2578.66 754.316 2576.68C756.105 2577.4 758.427 2577.4 760.933 2575.96C762.719 2576.5 767.01 2577.22 770.588 2573.62C772.196 2572 772.732 2570.74 773.268 2569.84C773.807 2568.58 774.163 2568.04 776.488 2567.14C777.024 2566.96 777.202 2566.6 777.382 2566.24L777.56 2565.88V2565.7C777.56 2565.34 777.382 2564.99 777.202 2564.81C775.951 2562.65 775.951 2561.93 776.31 2560.66C776.31 2559.59 776.668 2558.15 776.31 2555.99C775.415 2550.95 771.482 2548.97 769.693 2548.43C768.621 2545.73 766.654 2544.47 764.866 2543.75C766.116 2542.32 766.654 2539.98 766.116 2537.28C767.191 2535.66 769.335 2531.7 767.01 2527.2C765.938 2525.22 765.043 2524.14 764.329 2523.43C763.258 2522.52 762.899 2522.16 762.719 2519.47C762.719 2519.28 762.541 2519.11 762.541 2518.93V2518.75L762.363 2518.57C762.005 2518.21 761.288 2517.85 760.752 2518.03C758.249 2518.75 757.713 2518.39 756.463 2517.85C755.566 2517.31 754.316 2516.77 752.172 2516.41C746.983 2515.51 743.944 2518.75 742.872 2520.19C740.011 2520.55 738.222 2521.98 736.972 2523.6C735.9 2521.98 734.111 2520.55 731.25 2520.37C729.998 2518.75 726.959 2515.69 721.95 2516.41C719.806 2516.77 718.553 2517.49 717.659 2517.85C716.409 2518.57 715.873 2518.75 713.367 2518.21L713.012 2518.03C712.834 2518.03 712.654 2518.03 712.476 2518.21H712.295L712.117 2518.39H711.937V2518.57H711.759V2518.75H711.581V2518.93L711.404 2519.11V2519.28V2519.65C711.223 2522.16 710.687 2522.7 709.793 2523.6C709.076 2524.32 708.004 2525.22 707.113 2527.2C704.785 2531.88 706.932 2535.84 708.004 2537.28C707.29 2540.16 708.004 2542.32 709.076 2543.93C707.29 2544.47 705.501 2545.91 704.251 2548.43C702.64 2548.97 698.529 2550.95 697.813 2556.17C697.454 2558.33 697.635 2559.59 697.813 2560.66C698.171 2561.93 698.171 2562.65 696.74 2564.81L696.56 2565.16C696.56 2565.34 696.56 2565.52 696.56 2565.7V2565.88ZM748.953 2580.82C748.414 2581.18 748.236 2581.72 748.236 2582.26C748.236 2582.44 748.594 2586.57 744.839 2588.55C743.23 2589.27 742.336 2589.45 741.442 2589.63C739.833 2589.81 738.581 2590.17 737.15 2591.61C735.541 2590.17 734.289 2589.81 732.681 2589.63C731.786 2589.45 730.892 2589.27 729.281 2588.55C725.529 2586.57 725.887 2582.44 725.887 2582.26C725.887 2581.72 725.706 2581.18 725.348 2580.82C722.309 2578.48 723.025 2575.96 723.562 2574.7C727.495 2577.22 732.142 2578.66 737.15 2578.66C742.158 2578.66 746.805 2577.22 750.742 2574.7C751.274 2575.96 751.813 2578.48 748.953 2580.82ZM767.01 2550.23C767.191 2550.77 767.727 2551.13 768.263 2551.31C768.441 2551.31 772.377 2552.21 773.09 2556.53C773.449 2558.15 773.268 2559.23 773.09 2560.13C772.732 2561.57 772.732 2562.83 773.627 2564.81C771.838 2565.88 771.124 2566.96 770.407 2568.4C770.051 2569.3 769.515 2570.02 768.441 2571.28C765.402 2574.34 761.469 2572.72 761.288 2572.72C760.752 2572.54 760.216 2572.54 759.857 2572.9C756.819 2574.88 754.494 2573.62 753.422 2572.72C759.143 2567.86 762.719 2560.84 762.719 2552.93C762.719 2550.77 762.363 2548.61 762.005 2546.63C763.435 2546.45 765.76 2546.99 767.01 2550.23ZM743.767 2523.43C744.302 2523.43 744.839 2523.06 745.197 2522.52C745.197 2522.34 747.341 2518.75 751.633 2519.47C753.244 2519.83 754.135 2520.19 755.033 2520.73C756.463 2521.44 757.535 2521.8 759.679 2521.62C760.038 2523.78 760.933 2524.68 762.005 2525.76C762.719 2526.48 763.435 2527.2 764.149 2528.64C766.116 2532.42 763.435 2535.66 763.258 2535.84C762.899 2536.2 762.719 2536.74 762.899 2537.28C763.794 2540.7 762.005 2542.5 760.933 2543.22C757.355 2534.22 748.772 2527.74 738.761 2527.2C739.117 2525.76 740.369 2523.43 743.767 2523.43ZM737.15 2530.08C749.666 2530.08 759.857 2540.34 759.857 2552.93C759.857 2565.34 749.666 2575.6 737.15 2575.6C724.634 2575.6 714.443 2565.34 714.443 2552.93C714.443 2540.34 724.634 2530.08 737.15 2530.08ZM709.973 2528.64C710.687 2527.2 711.404 2526.48 712.117 2525.94C713.19 2524.86 714.084 2523.78 714.443 2521.62C716.587 2521.98 717.659 2521.44 719.09 2520.73C719.984 2520.37 720.701 2519.83 722.486 2519.65C726.601 2518.93 728.925 2522.52 728.925 2522.7C729.281 2523.06 729.639 2523.43 730.178 2523.43C733.753 2523.6 734.825 2525.76 735.183 2527.2C725.348 2527.92 716.768 2534.4 713.367 2543.4C712.117 2542.68 710.151 2540.88 711.223 2537.46C711.404 2536.92 711.223 2536.38 710.865 2535.84C710.687 2535.84 708.004 2532.6 709.973 2528.64ZM701.032 2560.13C700.851 2559.23 700.674 2558.33 700.851 2556.53C701.568 2552.39 705.682 2551.31 705.86 2551.31C706.396 2551.13 706.754 2550.77 706.932 2550.23C708.362 2546.81 710.865 2546.63 712.295 2546.63C711.759 2548.61 711.581 2550.77 711.581 2552.93C711.581 2560.84 715.156 2567.86 720.701 2572.54C719.806 2573.62 717.481 2574.88 714.262 2572.9C713.906 2572.54 713.367 2572.54 712.834 2572.72C712.654 2572.72 708.72 2574.34 705.682 2571.28C704.607 2570.2 704.071 2569.3 703.712 2568.4C702.998 2567.14 702.282 2565.88 700.316 2564.99C701.39 2563.01 701.21 2561.75 701.032 2560.13ZM728.031 2535.12H746.091C746.449 2535.12 746.627 2534.76 746.627 2534.4V2533.68C746.627 2533.32 746.449 2533.14 746.091 2533.14H728.031C727.676 2533.14 727.495 2533.32 727.495 2533.68V2534.4C727.495 2534.76 727.676 2535.12 728.031 2535.12ZM744.302 2540.34H729.82C729.462 2540.34 729.106 2540.52 729.106 2540.88V2541.59C729.106 2541.95 729.462 2542.32 729.82 2542.32H744.302C744.661 2542.32 745.019 2541.95 745.019 2541.59V2540.88C745.019 2540.52 744.661 2540.34 744.302 2540.34ZM744.125 2566.24L742.158 2566.96L740.547 2565.7V2567.86L738.939 2568.94L740.906 2569.66L741.442 2571.64L742.694 2569.84H744.661L743.408 2568.22L744.125 2566.24ZM749.13 2563.72L749.844 2565.7L750.919 2564.08H753.063L751.813 2562.47L752.349 2560.49L750.383 2561.03L748.772 2559.77V2561.93L747.163 2563.19L749.13 2563.72ZM752.172 2554.55L752.886 2556.53L754.135 2554.91H756.105L754.852 2553.29L755.566 2551.31L753.602 2552.03L751.813 2550.77L751.991 2552.75L750.203 2554.01L752.172 2554.55Z" fill="#D3D2D2"/>
<path d="M388.06 638H608.06V918H388.06V638Z" fill="#D7E9D0"/>
<path d="M498.06 810H428.06V885H498.06M498.06 810H568.06V885H498.06M498.06 810V847.5V885" stroke="white" stroke-width="1.5"/>
<circle cx="498.06" cy="848" r="15" stroke="white" stroke-width="1.5"/>
<path d="M395.06 681.031V676H420.06H445.06M395.06 681.031V716.969M395.06 681.031H420.06M495.06 681.031V676H470.06H445.06M495.06 681.031V716.969M495.06 681.031H470.06M395.06 716.969V722H445.06M395.06 716.969H420.06M495.06 716.969V722H445.06M495.06 716.969H470.06M445.06 676V722M420.06 681.031H470.06M420.06 681.031V699M420.06 716.969H470.06M420.06 716.969V699M470.06 681.031V699M470.06 716.969V699M420.06 699H470.06" stroke="white" stroke-width="1.5"/>
<path d="M395.06 737.031V732H420.06H445.06M395.06 737.031V772.969M395.06 737.031H420.06M495.06 737.031V732H470.06H445.06M495.06 737.031V772.969M495.06 737.031H470.06M395.06 772.969V778H445.06M395.06 772.969H420.06M495.06 772.969V778H445.06M495.06 772.969H470.06M445.06 732V778M420.06 737.031H470.06M420.06 737.031V755M420.06 772.969H470.06M420.06 772.969V755M470.06 737.031V755M470.06 772.969V755M420.06 755H470.06" stroke="white" stroke-width="1.5"/>
<path d="M500.06 681.031V676H525.06H550.06M500.06 681.031V716.969M500.06 681.031H525.06M600.06 681.031V676H575.06H550.06M600.06 681.031V716.969M600.06 681.031H575.06M500.06 716.969V722H550.06M500.06 716.969H525.06M600.06 716.969V722H550.06M600.06 716.969H575.06M550.06 676V722M525.06 681.031H575.06M525.06 681.031V699M525.06 716.969H575.06M525.06 716.969V699M575.06 681.031V699M575.06 716.969V699M525.06 699H575.06" stroke="white" stroke-width="1.5"/>
<path d="M500.06 737.031V732H525.06H550.06M500.06 737.031V772.969M500.06 737.031H525.06M600.06 737.031V732H575.06H550.06M600.06 737.031V772.969M600.06 737.031H575.06M500.06 772.969V778H550.06M500.06 772.969H525.06M600.06 772.969V778H550.06M600.06 772.969H575.06M550.06 732V778M525.06 737.031H575.06M525.06 737.031V755M525.06 772.969H575.06M525.06 772.969V755M575.06 737.031V755M575.06 772.969V755M525.06 755H575.06" stroke="white" stroke-width="1.5"/>
<path d="M388.06 444H608.06V638H388.06V444Z" fill="#ECDFBD"/>
<path d="M533.06 474H473.06V534H533.06M533.06 474H593.06V534H533.06M533.06 474V534" stroke="white" stroke-width="1.5"/>
<circle cx="533.06" cy="504" r="12" stroke="white" stroke-width="1.5"/>
<path d="M533.06 548H473.06V608H533.06M533.06 548H593.06V608H533.06M533.06 548V608" stroke="white" stroke-width="1.5"/>
<circle cx="533.06" cy="578" r="12" stroke="white" stroke-width="1.5"/>
<path d="M405.06 541V601H465.06V541M405.06 541V481H465.06V541M405.06 541H465.06" stroke="white" stroke-width="1.5"/>
<circle cx="435.06" cy="541" r="12" transform="rotate(-90 435.06 541)" stroke="white" stroke-width="1.5"/>
<rect x="715.06" y="240" width="48" height="1088" fill="#F7E5E0"/>
<rect x="-0.939819" y="1376" width="60" height="1402.94" transform="rotate(-90 -0.939819 1376)" fill="#E7E7E7"/>
<rect x="723.578" y="1320" width="16" height="4" fill="#FFFAC8"/>
<rect x="741.578" y="1320" width="16" height="4" fill="#FFFAC8"/>
<rect x="723.578" y="1328" width="16" height="4" fill="#FFFAC8"/>
<rect x="741.578" y="1328" width="16" height="4" fill="#FFFAC8"/>
<rect x="723.578" y="1336" width="16" height="4" fill="#FFFAC8"/>
<rect x="741.578" y="1336" width="16" height="4" fill="#FFFAC8"/>
<rect x="723.578" y="1344" width="16" height="4" fill="#FFFAC8"/>
<rect x="741.578" y="1344" width="16" height="4" fill="#FFFAC8"/>
<rect x="723.578" y="1352" width="16" height="4" fill="#FFFAC8"/>
<rect x="741.578" y="1352" width="16" height="4" fill="#FFFAC8"/>
<rect x="723.578" y="1360" width="16" height="4" fill="#FFFAC8"/>
<rect x="741.578" y="1360" width="16" height="4" fill="#FFFAC8"/>
<rect x="723.578" y="1368" width="16" height="4" fill="#FFFAC8"/>
<rect x="741.578" y="1368" width="16" height="4" fill="#FFFAC8"/>
<path d="M360.454 2498.1C353.719 2507.1 350.25 2524.98 350.25 2524.98C350.25 2524.98 332.133 2532.97 323.741 2541.9C316.274 2549.85 309.576 2565.94 309.576 2565.94C309.576 2565.94 313.339 2584.11 320.366 2593.17C326.662 2601.29 341.186 2609.34 341.186 2609.34C341.186 2609.34 341.001 2628.7 346.177 2639.48C351.066 2649.67 365.159 2661.4 365.159 2661.4C365.159 2661.4 383.737 2663 394.9 2659.79C405.877 2656.64 420.489 2645.75 420.489 2645.75C420.489 2645.75 439.622 2651.09 451.798 2649.4C460.712 2648.16 473.617 2642.09 473.617 2642.09C473.617 2642.09 482.48 2622.47 481.127 2609.04C479.773 2595.6 473.95 2585.09 473.95 2585.09C473.95 2585.09 484.579 2571.36 488.115 2561.06C492.026 2549.67 491.411 2530.38 491.411 2530.38C491.411 2530.38 478.605 2516.86 466.248 2512.28C455.356 2508.24 433.847 2507.25 433.847 2507.25C433.847 2507.25 419.963 2491.5 408.052 2486.33C398.57 2482.21 382.082 2481.21 382.082 2481.21C382.082 2481.21 366.865 2489.54 360.454 2498.1Z" fill="#A8E8E5"/>
<rect x="232.06" y="396" width="16" height="4" transform="rotate(-90 232.06 396)" fill="#FFFAC8"/>
<rect x="232.06" y="378" width="16" height="4" transform="rotate(-90 232.06 378)" fill="#FFFAC8"/>
<rect x="240.06" y="396" width="16" height="4" transform="rotate(-90 240.06 396)" fill="#FFFAC8"/>
<rect x="240.06" y="378" width="16" height="4" transform="rotate(-90 240.06 378)" fill="#FFFAC8"/>
<rect x="248.06" y="396" width="16" height="4" transform="rotate(-90 248.06 396)" fill="#FFFAC8"/>
<rect x="248.06" y="378" width="16" height="4" transform="rotate(-90 248.06 378)" fill="#FFFAC8"/>
<rect x="256.06" y="396" width="16" height="4" transform="rotate(-90 256.06 396)" fill="#FFFAC8"/>
<rect x="256.06" y="378" width="16" height="4" transform="rotate(-90 256.06 378)" fill="#FFFAC8"/>
<rect x="264.06" y="396" width="16" height="4" transform="rotate(-90 264.06 396)" fill="#FFFAC8"/>
<rect x="264.06" y="378" width="16" height="4" transform="rotate(-90 264.06 378)" fill="#FFFAC8"/>
<rect x="272.06" y="396" width="16" height="4" transform="rotate(-90 272.06 396)" fill="#FFFAC8"/>
<rect x="272.06" y="378" width="16" height="4" transform="rotate(-90 272.06 378)" fill="#FFFAC8"/>
<rect x="280.06" y="396" width="16" height="4" transform="rotate(-90 280.06 396)" fill="#FFFAC8"/>
<rect x="280.06" y="378" width="16" height="4" transform="rotate(-90 280.06 378)" fill="#FFFAC8"/>
<rect x="288.06" y="396" width="16" height="4" transform="rotate(-90 288.06 396)" fill="#FFFAC8"/>
<rect x="288.06" y="378" width="16" height="4" transform="rotate(-90 288.06 378)" fill="#FFFAC8"/>
<rect x="296.06" y="396" width="16" height="4" transform="rotate(-90 296.06 396)" fill="#FFFAC8"/>
<rect x="296.06" y="378" width="16" height="4" transform="rotate(-90 296.06 378)" fill="#FFFAC8"/>
<rect x="304.06" y="396" width="16" height="4" transform="rotate(-90 304.06 396)" fill="#FFFAC8"/>
<rect x="304.06" y="378" width="16" height="4" transform="rotate(-90 304.06 378)" fill="#FFFAC8"/>
<rect x="312.06" y="396" width="16" height="4" transform="rotate(-90 312.06 396)" fill="#FFFAC8"/>
<rect x="312.06" y="378" width="16" height="4" transform="rotate(-90 312.06 378)" fill="#FFFAC8"/>
<rect x="320.06" y="396" width="16" height="4" transform="rotate(-90 320.06 396)" fill="#FFFAC8"/>
<rect x="320.06" y="378" width="16" height="4" transform="rotate(-90 320.06 378)" fill="#FFFAC8"/>
<rect x="1078.06" y="396" width="16" height="4" transform="rotate(-90 1078.06 396)" fill="#FFFAC8"/>
<rect x="1078.06" y="378" width="16" height="4" transform="rotate(-90 1078.06 378)" fill="#FFFAC8"/>
<rect x="1086.06" y="396" width="16" height="4" transform="rotate(-90 1086.06 396)" fill="#FFFAC8"/>
<rect x="1086.06" y="378" width="16" height="4" transform="rotate(-90 1086.06 378)" fill="#FFFAC8"/>
<rect x="1094.06" y="396" width="16" height="4" transform="rotate(-90 1094.06 396)" fill="#FFFAC8"/>
<rect x="1094.06" y="378" width="16" height="4" transform="rotate(-90 1094.06 378)" fill="#FFFAC8"/>
<rect x="1102.06" y="396" width="16" height="4" transform="rotate(-90 1102.06 396)" fill="#FFFAC8"/>
<rect x="1102.06" y="378" width="16" height="4" transform="rotate(-90 1102.06 378)" fill="#FFFAC8"/>
<rect x="1110.06" y="396" width="16" height="4" transform="rotate(-90 1110.06 396)" fill="#FFFAC8"/>
<rect x="1110.06" y="378" width="16" height="4" transform="rotate(-90 1110.06 378)" fill="#FFFAC8"/>
<rect x="1118.06" y="396" width="16" height="4" transform="rotate(-90 1118.06 396)" fill="#FFFAC8"/>
<rect x="1118.06" y="378" width="16" height="4" transform="rotate(-90 1118.06 378)" fill="#FFFAC8"/>
<rect x="1126.06" y="396" width="16" height="4" transform="rotate(-90 1126.06 396)" fill="#FFFAC8"/>
<rect x="1126.06" y="378" width="16" height="4" transform="rotate(-90 1126.06 378)" fill="#FFFAC8"/>
<rect x="1134.06" y="396" width="16" height="4" transform="rotate(-90 1134.06 396)" fill="#FFFAC8"/>
<rect x="1134.06" y="378" width="16" height="4" transform="rotate(-90 1134.06 378)" fill="#FFFAC8"/>
<rect x="1142.06" y="396" width="16" height="4" transform="rotate(-90 1142.06 396)" fill="#FFFAC8"/>
<rect x="1142.06" y="378" width="16" height="4" transform="rotate(-90 1142.06 378)" fill="#FFFAC8"/>
<rect x="1150.06" y="396" width="16" height="4" transform="rotate(-90 1150.06 396)" fill="#FFFAC8"/>
<rect x="1150.06" y="378" width="16" height="4" transform="rotate(-90 1150.06 378)" fill="#FFFAC8"/>
<rect x="1158.06" y="396" width="16" height="4" transform="rotate(-90 1158.06 396)" fill="#FFFAC8"/>
<rect x="1158.06" y="378" width="16" height="4" transform="rotate(-90 1158.06 378)" fill="#FFFAC8"/>
<rect x="1166.06" y="396" width="16" height="4" transform="rotate(-90 1166.06 396)" fill="#FFFAC8"/>
<rect x="1166.06" y="378" width="16" height="4" transform="rotate(-90 1166.06 378)" fill="#FFFAC8"/>
<rect x="1235.06" y="1319" width="16" height="4" fill="#FFFAC8"/>
<rect x="1253.06" y="1319" width="16" height="4" fill="#FFFAC8"/>
<rect x="1235.06" y="1327" width="16" height="4" fill="#FFFAC8"/>
<rect x="1253.06" y="1327" width="16" height="4" fill="#FFFAC8"/>
<rect x="1235.06" y="1335" width="16" height="4" fill="#FFFAC8"/>
<rect x="1253.06" y="1335" width="16" height="4" fill="#FFFAC8"/>
<rect x="1235.06" y="1343" width="16" height="4" fill="#FFFAC8"/>
<rect x="1253.06" y="1343" width="16" height="4" fill="#FFFAC8"/>
<rect x="1235.06" y="1351" width="16" height="4" fill="#FFFAC8"/>
<rect x="1253.06" y="1351" width="16" height="4" fill="#FFFAC8"/>
<rect x="1235.06" y="1359" width="16" height="4" fill="#FFFAC8"/>
<rect x="1253.06" y="1359" width="16" height="4" fill="#FFFAC8"/>
<rect x="1235.06" y="1367" width="16" height="4" fill="#FFFAC8"/>
<rect x="1253.06" y="1367" width="16" height="4" fill="#FFFAC8"/>
<rect x="188.06" y="1320" width="16" height="4" fill="#FFFAC8"/>
<rect x="206.06" y="1320" width="16" height="4" fill="#FFFAC8"/>
<rect x="188.06" y="1328" width="16" height="4" fill="#FFFAC8"/>
<rect x="206.06" y="1328" width="16" height="4" fill="#FFFAC8"/>
<rect x="188.06" y="1336" width="16" height="4" fill="#FFFAC8"/>
<rect x="206.06" y="1336" width="16" height="4" fill="#FFFAC8"/>
<rect x="188.06" y="1344" width="16" height="4" fill="#FFFAC8"/>
<rect x="206.06" y="1344" width="16" height="4" fill="#FFFAC8"/>
<rect x="188.06" y="1352" width="16" height="4" fill="#FFFAC8"/>
<rect x="206.06" y="1352" width="16" height="4" fill="#FFFAC8"/>
<rect x="188.06" y="1360" width="16" height="4" fill="#FFFAC8"/>
<rect x="206.06" y="1360" width="16" height="4" fill="#FFFAC8"/>
<rect x="188.06" y="1368" width="16" height="4" fill="#FFFAC8"/>
<rect x="206.06" y="1368" width="16" height="4" fill="#FFFAC8"/>
<rect x="334.06" y="1320" width="16" height="4" fill="#FFFAC8"/>
<rect x="352.06" y="1320" width="16" height="4" fill="#FFFAC8"/>
<rect x="334.06" y="1328" width="16" height="4" fill="#FFFAC8"/>
<rect x="352.06" y="1328" width="16" height="4" fill="#FFFAC8"/>
<rect x="334.06" y="1336" width="16" height="4" fill="#FFFAC8"/>
<rect x="352.06" y="1336" width="16" height="4" fill="#FFFAC8"/>
<rect x="334.06" y="1344" width="16" height="4" fill="#FFFAC8"/>
<rect x="352.06" y="1344" width="16" height="4" fill="#FFFAC8"/>
<rect x="334.06" y="1352" width="16" height="4" fill="#FFFAC8"/>
<rect x="352.06" y="1352" width="16" height="4" fill="#FFFAC8"/>
<rect x="334.06" y="1360" width="16" height="4" fill="#FFFAC8"/>
<rect x="352.06" y="1360" width="16" height="4" fill="#FFFAC8"/>
<rect x="334.06" y="1368" width="16" height="4" fill="#FFFAC8"/>
<rect x="352.06" y="1368" width="16" height="4" fill="#FFFAC8"/>
<path d="M31.4675 1968.37L191.383 1973.58L187.963 2071.52L31.4675 2065.48L31.4675 1968.37Z" fill="#D9D9D9"/>
<path d="M215.608 1824.79L54.0251 1819.15L41.2744 1727.85L0.060154 1732.77L0.0601499 1906.36L50.9119 1908.29L212.495 1913.94L215.608 1824.79Z" fill="#D9D9D9"/>
<path d="M38.2659 2412L20.0602 2167.04L119.141 2158.98L126.493 2132L180.06 2137.61L162.905 2339.46L113.539 2333.5V2406.74L38.2659 2412Z" fill="#D9D9D9"/>
<path d="M1419.18 2422.57L1264.06 2344.95L1315.08 2243L1470.2 2320.63L1419.18 2422.57Z" fill="#D9D9D9"/>
<path d="M1254 1961V1562H1405V1961H1254Z" fill="#D9D9D9"/>
<path d="M897.06 1019V704H1010.06V1019H897.06Z" fill="#D9D9D9"/>
<circle cx="1124.06" cy="1347" r="105" fill="#E7E7E7"/>
<path d="M213.84 1503.88L58.2198 1493L45.5939 1673.56L99.4624 1677.33L91.9287 1785.06L193.68 1792.18L213.84 1503.88Z" fill="#D9D9D9"/>
<path d="M0.0601807 1234V812H109.06V1234H0.0601807Z" fill="#D9D9D9"/>
<path d="M100.06 421H0.0601807V611.5H24.5602L73.5602 758L197.56 727L100.06 421Z" fill="#D9D9D9"/>
<rect x="1097.06" y="2382" width="927" height="54" transform="rotate(-90 1097.06 2382)" fill="#FFFAC8" stroke="#E7E7E7" stroke-width="50"/>
<rect x="251.06" y="2314" width="914" height="54" transform="rotate(-90 251.06 2314)" fill="#FFFAC8" stroke="#E7E7E7" stroke-width="50"/>
<rect x="21.0602" y="2733" width="1349" height="64" fill="#FFFAC8" stroke="#E7E7E7" stroke-width="60"/>
<rect x="155.044" y="2686.08" width="357.895" height="54" transform="rotate(-75 155.044 2686.08)" fill="#FFFAC8" stroke="#E7E7E7" stroke-width="50"/>
<rect x="1078.06" y="1480" width="16" height="4" transform="rotate(-90 1078.06 1480)" fill="#FFFAC8"/>
<rect x="1078.06" y="1462" width="16" height="4" transform="rotate(-90 1078.06 1462)" fill="#FFFAC8"/>
<rect x="1086.06" y="1480" width="16" height="4" transform="rotate(-90 1086.06 1480)" fill="#FFFAC8"/>
<rect x="1086.06" y="1462" width="16" height="4" transform="rotate(-90 1086.06 1462)" fill="#FFFAC8"/>
<rect x="1094.06" y="1480" width="16" height="4" transform="rotate(-90 1094.06 1480)" fill="#FFFAC8"/>
<rect x="1094.06" y="1462" width="16" height="4" transform="rotate(-90 1094.06 1462)" fill="#FFFAC8"/>
<rect x="1102.06" y="1480" width="16" height="4" transform="rotate(-90 1102.06 1480)" fill="#FFFAC8"/>
<rect x="1102.06" y="1462" width="16" height="4" transform="rotate(-90 1102.06 1462)" fill="#FFFAC8"/>
<rect x="1110.06" y="1480" width="16" height="4" transform="rotate(-90 1110.06 1480)" fill="#FFFAC8"/>
<rect x="1110.06" y="1462" width="16" height="4" transform="rotate(-90 1110.06 1462)" fill="#FFFAC8"/>
<rect x="1118.06" y="1480" width="16" height="4" transform="rotate(-90 1118.06 1480)" fill="#FFFAC8"/>
<rect x="1118.06" y="1462" width="16" height="4" transform="rotate(-90 1118.06 1462)" fill="#FFFAC8"/>
<rect x="1126.06" y="1480" width="16" height="4" transform="rotate(-90 1126.06 1480)" fill="#FFFAC8"/>
<rect x="1126.06" y="1462" width="16" height="4" transform="rotate(-90 1126.06 1462)" fill="#FFFAC8"/>
<rect x="1134.06" y="1480" width="16" height="4" transform="rotate(-90 1134.06 1480)" fill="#FFFAC8"/>
<rect x="1134.06" y="1462" width="16" height="4" transform="rotate(-90 1134.06 1462)" fill="#FFFAC8"/>
<rect x="1142.06" y="1480" width="16" height="4" transform="rotate(-90 1142.06 1480)" fill="#FFFAC8"/>
<rect x="1142.06" y="1462" width="16" height="4" transform="rotate(-90 1142.06 1462)" fill="#FFFAC8"/>
<rect x="1150.06" y="1480" width="16" height="4" transform="rotate(-90 1150.06 1480)" fill="#FFFAC8"/>
<rect x="1150.06" y="1462" width="16" height="4" transform="rotate(-90 1150.06 1462)" fill="#FFFAC8"/>
<rect x="1158.06" y="1480" width="16" height="4" transform="rotate(-90 1158.06 1480)" fill="#FFFAC8"/>
<rect x="1158.06" y="1462" width="16" height="4" transform="rotate(-90 1158.06 1462)" fill="#FFFAC8"/>
<rect x="1166.06" y="1480" width="16" height="4" transform="rotate(-90 1166.06 1480)" fill="#FFFAC8"/>
<rect x="1166.06" y="1462" width="16" height="4" transform="rotate(-90 1166.06 1462)" fill="#FFFAC8"/>
<rect x="1078.06" y="1244" width="16" height="4" transform="rotate(-90 1078.06 1244)" fill="#FFFAC8"/>
<rect x="1078.06" y="1226" width="16" height="4" transform="rotate(-90 1078.06 1226)" fill="#FFFAC8"/>
<rect x="1086.06" y="1244" width="16" height="4" transform="rotate(-90 1086.06 1244)" fill="#FFFAC8"/>
<rect x="1086.06" y="1226" width="16" height="4" transform="rotate(-90 1086.06 1226)" fill="#FFFAC8"/>
<rect x="1094.06" y="1244" width="16" height="4" transform="rotate(-90 1094.06 1244)" fill="#FFFAC8"/>
<rect x="1094.06" y="1226" width="16" height="4" transform="rotate(-90 1094.06 1226)" fill="#FFFAC8"/>
<rect x="1102.06" y="1244" width="16" height="4" transform="rotate(-90 1102.06 1244)" fill="#FFFAC8"/>
<rect x="1102.06" y="1226" width="16" height="4" transform="rotate(-90 1102.06 1226)" fill="#FFFAC8"/>
<rect x="1110.06" y="1244" width="16" height="4" transform="rotate(-90 1110.06 1244)" fill="#FFFAC8"/>
<rect x="1110.06" y="1226" width="16" height="4" transform="rotate(-90 1110.06 1226)" fill="#FFFAC8"/>
<rect x="1118.06" y="1244" width="16" height="4" transform="rotate(-90 1118.06 1244)" fill="#FFFAC8"/>
<rect x="1118.06" y="1226" width="16" height="4" transform="rotate(-90 1118.06 1226)" fill="#FFFAC8"/>
<rect x="1126.06" y="1244" width="16" height="4" transform="rotate(-90 1126.06 1244)" fill="#FFFAC8"/>
<rect x="1126.06" y="1226" width="16" height="4" transform="rotate(-90 1126.06 1226)" fill="#FFFAC8"/>
<rect x="1134.06" y="1244" width="16" height="4" transform="rotate(-90 1134.06 1244)" fill="#FFFAC8"/>
<rect x="1134.06" y="1226" width="16" height="4" transform="rotate(-90 1134.06 1226)" fill="#FFFAC8"/>
<rect x="1142.06" y="1244" width="16" height="4" transform="rotate(-90 1142.06 1244)" fill="#FFFAC8"/>
<rect x="1142.06" y="1226" width="16" height="4" transform="rotate(-90 1142.06 1226)" fill="#FFFAC8"/>
<rect x="1150.06" y="1244" width="16" height="4" transform="rotate(-90 1150.06 1244)" fill="#FFFAC8"/>
<rect x="1150.06" y="1226" width="16" height="4" transform="rotate(-90 1150.06 1226)" fill="#FFFAC8"/>
<rect x="1158.06" y="1244" width="16" height="4" transform="rotate(-90 1158.06 1244)" fill="#FFFAC8"/>
<rect x="1158.06" y="1226" width="16" height="4" transform="rotate(-90 1158.06 1226)" fill="#FFFAC8"/>
<rect x="1166.06" y="1244" width="16" height="4" transform="rotate(-90 1166.06 1244)" fill="#FFFAC8"/>
<rect x="1166.06" y="1226" width="16" height="4" transform="rotate(-90 1166.06 1226)" fill="#FFFAC8"/>
<rect x="28.0602" y="262" width="1360" height="64" fill="#FFFAC8" stroke="#E7E7E7" stroke-width="60"/>
<path d="M930.06 1433.5V1452.5H900.06V1794H945.56V1824.5H978.06V1490H992.56V1433.5H930.06Z" fill="#D9D9D9"/>
<rect width="286" height="120" transform="translate(135.06 234)" fill="#E7E7E7"/>
<rect x="188.06" y="240" width="16" height="4" fill="#FFFAC8"/>
<rect x="206.06" y="240" width="16" height="4" fill="#FFFAC8"/>
<rect x="188.06" y="248" width="16" height="4" fill="#FFFAC8"/>
<rect x="206.06" y="248" width="16" height="4" fill="#FFFAC8"/>
<rect x="188.06" y="256" width="16" height="4" fill="#FFFAC8"/>
<rect x="206.06" y="256" width="16" height="4" fill="#FFFAC8"/>
<rect x="188.06" y="264" width="16" height="4" fill="#FFFAC8"/>
<rect x="206.06" y="264" width="16" height="4" fill="#FFFAC8"/>
<rect x="188.06" y="272" width="16" height="4" fill="#FFFAC8"/>
<rect x="206.06" y="272" width="16" height="4" fill="#FFFAC8"/>
<rect x="188.06" y="280" width="16" height="4" fill="#FFFAC8"/>
<rect x="206.06" y="280" width="16" height="4" fill="#FFFAC8"/>
<rect x="188.06" y="288" width="16" height="4" fill="#FFFAC8"/>
<rect x="206.06" y="288" width="16" height="4" fill="#FFFAC8"/>
<rect x="188.06" y="296" width="16" height="4" fill="#FFFAC8"/>
<rect x="206.06" y="296" width="16" height="4" fill="#FFFAC8"/>
<rect x="188.06" y="304" width="16" height="4" fill="#FFFAC8"/>
<rect x="206.06" y="304" width="16" height="4" fill="#FFFAC8"/>
<rect x="188.06" y="312" width="16" height="4" fill="#FFFAC8"/>
<rect x="206.06" y="312" width="16" height="4" fill="#FFFAC8"/>
<rect x="188.06" y="320" width="16" height="4" fill="#FFFAC8"/>
<rect x="206.06" y="320" width="16" height="4" fill="#FFFAC8"/>
<rect x="188.06" y="328" width="16" height="4" fill="#FFFAC8"/>
<rect x="206.06" y="328" width="16" height="4" fill="#FFFAC8"/>
<rect x="188.06" y="336" width="16" height="4" fill="#FFFAC8"/>
<rect x="206.06" y="336" width="16" height="4" fill="#FFFAC8"/>
<rect x="188.06" y="344" width="16" height="4" fill="#FFFAC8"/>
<rect x="206.06" y="344" width="16" height="4" fill="#FFFAC8"/>
<rect x="334.06" y="240" width="16" height="4" fill="#FFFAC8"/>
<rect x="352.06" y="240" width="16" height="4" fill="#FFFAC8"/>
<rect x="334.06" y="248" width="16" height="4" fill="#FFFAC8"/>
<rect x="352.06" y="248" width="16" height="4" fill="#FFFAC8"/>
<rect x="334.06" y="256" width="16" height="4" fill="#FFFAC8"/>
<rect x="352.06" y="256" width="16" height="4" fill="#FFFAC8"/>
<rect x="334.06" y="264" width="16" height="4" fill="#FFFAC8"/>
<rect x="352.06" y="264" width="16" height="4" fill="#FFFAC8"/>
<rect x="334.06" y="272" width="16" height="4" fill="#FFFAC8"/>
<rect x="352.06" y="272" width="16" height="4" fill="#FFFAC8"/>
<rect x="334.06" y="280" width="16" height="4" fill="#FFFAC8"/>
<rect x="352.06" y="280" width="16" height="4" fill="#FFFAC8"/>
<rect x="334.06" y="288" width="16" height="4" fill="#FFFAC8"/>
<rect x="352.06" y="288" width="16" height="4" fill="#FFFAC8"/>
<rect x="334.06" y="296" width="16" height="4" fill="#FFFAC8"/>
<rect x="352.06" y="296" width="16" height="4" fill="#FFFAC8"/>
<rect x="334.06" y="304" width="16" height="4" fill="#FFFAC8"/>
<rect x="352.06" y="304" width="16" height="4" fill="#FFFAC8"/>
<rect x="334.06" y="312" width="16" height="4" fill="#FFFAC8"/>
<rect x="352.06" y="312" width="16" height="4" fill="#FFFAC8"/>
<rect x="334.06" y="320" width="16" height="4" fill="#FFFAC8"/>
<rect x="352.06" y="320" width="16" height="4" fill="#FFFAC8"/>
<rect x="334.06" y="328" width="16" height="4" fill="#FFFAC8"/>
<rect x="352.06" y="328" width="16" height="4" fill="#FFFAC8"/>
<rect x="334.06" y="336" width="16" height="4" fill="#FFFAC8"/>
<rect x="352.06" y="336" width="16" height="4" fill="#FFFAC8"/>
<rect x="334.06" y="344" width="16" height="4" fill="#FFFAC8"/>
<rect x="352.06" y="344" width="16" height="4" fill="#FFFAC8"/>
<rect width="286" height="120" transform="translate(981.06 233)" fill="#E7E7E7"/>
<rect x="1034.06" y="239" width="16" height="4" fill="#FFFAC8"/>
<rect x="1052.06" y="239" width="16" height="4" fill="#FFFAC8"/>
<rect x="1034.06" y="247" width="16" height="4" fill="#FFFAC8"/>
<rect x="1052.06" y="247" width="16" height="4" fill="#FFFAC8"/>
<rect x="1034.06" y="255" width="16" height="4" fill="#FFFAC8"/>
<rect x="1052.06" y="255" width="16" height="4" fill="#FFFAC8"/>
<rect x="1034.06" y="263" width="16" height="4" fill="#FFFAC8"/>
<rect x="1052.06" y="263" width="16" height="4" fill="#FFFAC8"/>
<rect x="1034.06" y="271" width="16" height="4" fill="#FFFAC8"/>
<rect x="1052.06" y="271" width="16" height="4" fill="#FFFAC8"/>
<rect x="1034.06" y="279" width="16" height="4" fill="#FFFAC8"/>
<rect x="1052.06" y="279" width="16" height="4" fill="#FFFAC8"/>
<rect x="1034.06" y="287" width="16" height="4" fill="#FFFAC8"/>
<rect x="1052.06" y="287" width="16" height="4" fill="#FFFAC8"/>
<rect x="1034.06" y="295" width="16" height="4" fill="#FFFAC8"/>
<rect x="1052.06" y="295" width="16" height="4" fill="#FFFAC8"/>
<rect x="1034.06" y="303" width="16" height="4" fill="#FFFAC8"/>
<rect x="1052.06" y="303" width="16" height="4" fill="#FFFAC8"/>
<rect x="1034.06" y="311" width="16" height="4" fill="#FFFAC8"/>
<rect x="1052.06" y="311" width="16" height="4" fill="#FFFAC8"/>
<rect x="1034.06" y="319" width="16" height="4" fill="#FFFAC8"/>
<rect x="1052.06" y="319" width="16" height="4" fill="#FFFAC8"/>
<rect x="1034.06" y="327" width="16" height="4" fill="#FFFAC8"/>
<rect x="1052.06" y="327" width="16" height="4" fill="#FFFAC8"/>
<rect x="1034.06" y="335" width="16" height="4" fill="#FFFAC8"/>
<rect x="1052.06" y="335" width="16" height="4" fill="#FFFAC8"/>
<rect x="1034.06" y="343" width="16" height="4" fill="#FFFAC8"/>
<rect x="1052.06" y="343" width="16" height="4" fill="#FFFAC8"/>
<rect x="1180.06" y="239" width="16" height="4" fill="#FFFAC8"/>
<rect x="1198.06" y="239" width="16" height="4" fill="#FFFAC8"/>
<rect x="1180.06" y="247" width="16" height="4" fill="#FFFAC8"/>
<rect x="1198.06" y="247" width="16" height="4" fill="#FFFAC8"/>
<rect x="1180.06" y="255" width="16" height="4" fill="#FFFAC8"/>
<rect x="1198.06" y="255" width="16" height="4" fill="#FFFAC8"/>
<rect x="1180.06" y="263" width="16" height="4" fill="#FFFAC8"/>
<rect x="1198.06" y="263" width="16" height="4" fill="#FFFAC8"/>
<rect x="1180.06" y="271" width="16" height="4" fill="#FFFAC8"/>
<rect x="1198.06" y="271" width="16" height="4" fill="#FFFAC8"/>
<rect x="1180.06" y="279" width="16" height="4" fill="#FFFAC8"/>
<rect x="1198.06" y="279" width="16" height="4" fill="#FFFAC8"/>
<rect x="1180.06" y="287" width="16" height="4" fill="#FFFAC8"/>
<rect x="1198.06" y="287" width="16" height="4" fill="#FFFAC8"/>
<rect x="1180.06" y="295" width="16" height="4" fill="#FFFAC8"/>
<rect x="1198.06" y="295" width="16" height="4" fill="#FFFAC8"/>
<rect x="1180.06" y="303" width="16" height="4" fill="#FFFAC8"/>
<rect x="1198.06" y="303" width="16" height="4" fill="#FFFAC8"/>
<rect x="1180.06" y="311" width="16" height="4" fill="#FFFAC8"/>
<rect x="1198.06" y="311" width="16" height="4" fill="#FFFAC8"/>
<rect x="1180.06" y="319" width="16" height="4" fill="#FFFAC8"/>
<rect x="1198.06" y="319" width="16" height="4" fill="#FFFAC8"/>
<rect x="1180.06" y="327" width="16" height="4" fill="#FFFAC8"/>
<rect x="1198.06" y="327" width="16" height="4" fill="#FFFAC8"/>
<rect x="1180.06" y="335" width="16" height="4" fill="#FFFAC8"/>
<rect x="1198.06" y="335" width="16" height="4" fill="#FFFAC8"/>
<rect x="1180.06" y="343" width="16" height="4" fill="#FFFAC8"/>
<rect x="1198.06" y="343" width="16" height="4" fill="#FFFAC8"/>
<path d="M935.767 405.593C946.222 401.261 953.83 403.136 964.926 405.593C985.237 410.091 995.889 419.947 1007.4 436.634C1018.57 452.834 1025.03 465.735 1020.71 484.718C1015.44 507.876 999.621 524.239 975.068 526.714C951.92 529.049 936.715 516.835 923.089 498.717C908.147 478.849 905.419 459.853 913.58 436.634C918.476 422.704 921.708 411.419 935.767 405.593Z" fill="#A8E8E5"/>
<rect width="180" height="400" transform="translate(408.06 1908)" fill="#D7E9D0"/>
<path d="M428.06 1935V1928H463.06H498.06M428.06 1935V1985M428.06 1935H463.06M568.06 1935V1928H533.06H498.06M568.06 1935V1985M568.06 1935H533.06M428.06 1985V1992H498.06M428.06 1985H463.06M568.06 1985V1992H498.06M568.06 1985H533.06M498.06 1928V1992M463.06 1935H533.06M463.06 1935V1960M463.06 1985H533.06M463.06 1985V1960M533.06 1935V1960M533.06 1985V1960M463.06 1960H533.06" stroke="white" stroke-width="1.5"/>
<path d="M428.06 2009V2002H463.06H498.06M428.06 2009V2059M428.06 2009H463.06M568.06 2009V2002H533.06H498.06M568.06 2009V2059M568.06 2009H533.06M428.06 2059V2066H498.06M428.06 2059H463.06M568.06 2059V2066H498.06M568.06 2059H533.06M498.06 2002V2066M463.06 2009H533.06M463.06 2009V2034M463.06 2059H533.06M463.06 2059V2034M533.06 2009V2034M533.06 2059V2034M463.06 2034H533.06" stroke="white" stroke-width="1.5"/>
<path d="M428.06 2083V2076H463.06H498.06M428.06 2083V2133M428.06 2083H463.06M568.06 2083V2076H533.06H498.06M568.06 2083V2133M568.06 2083H533.06M428.06 2133V2140H498.06M428.06 2133H463.06M568.06 2133V2140H498.06M568.06 2133H533.06M498.06 2076V2140M463.06 2083H533.06M463.06 2083V2108M463.06 2133H533.06M463.06 2133V2108M533.06 2083V2108M533.06 2133V2108M463.06 2108H533.06" stroke="white" stroke-width="1.5"/>
<path d="M428.06 2157V2150H463.06H498.06M428.06 2157V2207M428.06 2157H463.06M568.06 2157V2150H533.06H498.06M568.06 2157V2207M568.06 2157H533.06M428.06 2207V2214H498.06M428.06 2207H463.06M568.06 2207V2214H498.06M568.06 2207H533.06M498.06 2150V2214M463.06 2157H533.06M463.06 2157V2182M463.06 2207H533.06M463.06 2207V2182M533.06 2157V2182M533.06 2207V2182M463.06 2182H533.06" stroke="white" stroke-width="1.5"/>
<path d="M428.06 2231V2224H463.06H498.06M428.06 2231V2281M428.06 2231H463.06M568.06 2231V2224H533.06H498.06M568.06 2231V2281M568.06 2231H533.06M428.06 2281V2288H498.06M428.06 2281H463.06M568.06 2281V2288H498.06M568.06 2281H533.06M498.06 2224V2288M463.06 2231H533.06M463.06 2231V2256M463.06 2281H533.06M463.06 2281V2256M533.06 2231V2256M533.06 2281V2256M463.06 2256H533.06" stroke="white" stroke-width="1.5"/>
<rect width="180" height="400" transform="translate(408.06 1404)" fill="#D7E9D0"/>
<path d="M428.06 1431V1424H463.06H498.06M428.06 1431V1481M428.06 1431H463.06M568.06 1431V1424H533.06H498.06M568.06 1431V1481M568.06 1431H533.06M428.06 1481V1488H498.06M428.06 1481H463.06M568.06 1481V1488H498.06M568.06 1481H533.06M498.06 1424V1488M463.06 1431H533.06M463.06 1431V1456M463.06 1481H533.06M463.06 1481V1456M533.06 1431V1456M533.06 1481V1456M463.06 1456H533.06" stroke="white" stroke-width="1.5"/>
<path d="M428.06 1505V1498H463.06H498.06M428.06 1505V1555M428.06 1505H463.06M568.06 1505V1498H533.06H498.06M568.06 1505V1555M568.06 1505H533.06M428.06 1555V1562H498.06M428.06 1555H463.06M568.06 1555V1562H498.06M568.06 1555H533.06M498.06 1498V1562M463.06 1505H533.06M463.06 1505V1530M463.06 1555H533.06M463.06 1555V1530M533.06 1505V1530M533.06 1555V1530M463.06 1530H533.06" stroke="white" stroke-width="1.5"/>
<path d="M428.06 1579V1572H463.06H498.06M428.06 1579V1629M428.06 1579H463.06M568.06 1579V1572H533.06H498.06M568.06 1579V1629M568.06 1579H533.06M428.06 1629V1636H498.06M428.06 1629H463.06M568.06 1629V1636H498.06M568.06 1629H533.06M498.06 1572V1636M463.06 1579H533.06M463.06 1579V1604M463.06 1629H533.06M463.06 1629V1604M533.06 1579V1604M533.06 1629V1604M463.06 1604H533.06" stroke="white" stroke-width="1.5"/>
<path d="M428.06 1653V1646H463.06H498.06M428.06 1653V1703M428.06 1653H463.06M568.06 1653V1646H533.06H498.06M568.06 1653V1703M568.06 1653H533.06M428.06 1703V1710H498.06M428.06 1703H463.06M568.06 1703V1710H498.06M568.06 1703H533.06M498.06 1646V1710M463.06 1653H533.06M463.06 1653V1678M463.06 1703H533.06M463.06 1703V1678M533.06 1653V1678M533.06 1703V1678M463.06 1678H533.06" stroke="white" stroke-width="1.5"/>
<path d="M428.06 1727V1720H463.06H498.06M428.06 1727V1777M428.06 1727H463.06M568.06 1727V1720H533.06H498.06M568.06 1727V1777M568.06 1727H533.06M428.06 1777V1784H498.06M428.06 1777H463.06M568.06 1777V1784H498.06M568.06 1777H533.06M498.06 1720V1784M463.06 1727H533.06M463.06 1727V1752M463.06 1777H533.06M463.06 1777V1752M533.06 1727V1752M533.06 1777V1752M463.06 1752H533.06" stroke="white" stroke-width="1.5"/>
<rect width="180" height="178" transform="translate(408.06 1078)" fill="#D7E9D0"/>
<path d="M428.06 1105V1098H463.06H498.06M428.06 1105V1155M428.06 1105H463.06M568.06 1105V1098H533.06H498.06M568.06 1105V1155M568.06 1105H533.06M428.06 1155V1162H498.06M428.06 1155H463.06M568.06 1155V1162H498.06M568.06 1155H533.06M498.06 1098V1162M463.06 1105H533.06M463.06 1105V1130M463.06 1155H533.06M463.06 1155V1130M533.06 1105V1130M533.06 1155V1130M463.06 1130H533.06" stroke="white" stroke-width="1.5"/>
<path d="M428.06 1179V1172H463.06H498.06M428.06 1179V1229M428.06 1179H463.06M568.06 1179V1172H533.06H498.06M568.06 1179V1229M568.06 1179H533.06M428.06 1229V1236H498.06M428.06 1229H463.06M568.06 1229V1236H498.06M568.06 1229H533.06M498.06 1172V1236M463.06 1179H533.06M463.06 1179V1204M463.06 1229H533.06M463.06 1229V1204M533.06 1179V1204M533.06 1229V1204M463.06 1204H533.06" stroke="white" stroke-width="1.5"/>
</g>
<defs>
<clipPath id="clip0_762_3046">
<rect width="1400" height="3000" fill="white"/>
</clipPath>
</defs>
</svg>
