<svg width="700" height="3100" viewBox="0 0 700 3100" fill="none" xmlns="http://www.w3.org/2000/svg">
<g clip-path="url(#clip0_601_190)">
<rect width="700" height="3100" fill="white"/>
<path d="M0 -1H430V975H0V-1Z" fill="#D7E9D0"/>
<path d="M0 1035H430V2612H0V1035Z" fill="#D7E9D0"/>
<rect x="533" y="-1.26416" width="46" height="1012.77" fill="#F7E5E0"/>
<rect x="532" y="1031" width="46" height="1676.83" fill="#F7E5E0"/>
<rect x="-26" y="2757" width="46" height="571.964" transform="rotate(-90 -26 2757)" fill="#F7E5E0"/>
<circle cx="571" cy="2780" r="120" fill="#CFB2AA"/>
<circle cx="571" cy="2780" r="100.8" fill="#E1B79F"/>
<circle cx="571" cy="2780" r="81.6" fill="#FFDBC6"/>
<circle cx="571" cy="2780" r="62.4" fill="#D3D2D2"/>
<circle cx="571" cy="2780" r="37.2" transform="rotate(-178 571 2780)" fill="#F2F2F2"/>
<path d="M566.142 2781.79L566.127 2782.22C566.117 2782.51 566.252 2782.8 566.538 2782.81L575.257 2783.12C575.543 2783.13 575.695 2782.84 575.706 2782.56L575.721 2782.12C575.731 2781.84 575.599 2781.54 575.312 2781.53L566.593 2781.23C566.307 2781.22 566.152 2781.5 566.142 2781.79ZM575.6 2785.58L575.62 2785C575.63 2784.71 575.498 2784.42 575.212 2784.41L566.493 2784.11C566.206 2784.1 566.052 2784.38 566.042 2784.67L566.022 2785.24C566.017 2785.39 566.151 2785.68 566.437 2785.69L575.156 2785.99C575.443 2786 575.595 2785.72 575.6 2785.58ZM576.293 2773.93L576.314 2773.36C576.324 2773.07 576.042 2772.92 575.758 2772.91L566.75 2772.59C566.464 2772.58 566.172 2772.72 566.162 2773L566.142 2773.58C566.132 2773.87 566.408 2774.17 566.695 2774.18L575.703 2774.49C575.987 2774.5 576.283 2774.22 576.293 2773.93ZM574.413 2778.62L567.693 2778.39C567.407 2778.38 567.11 2778.66 567.1 2778.94L567.085 2779.37C567.075 2779.66 567.351 2779.96 567.638 2779.97L574.358 2780.2C574.642 2780.21 574.939 2779.94 574.949 2779.65L574.964 2779.22C574.974 2778.93 574.697 2778.63 574.413 2778.62ZM567.715 2790.05L566.394 2791.02L564.842 2790.39L565.359 2791.99L564.31 2793.25L565.885 2793.3L566.834 2794.78L567.32 2793.21L569.055 2792.69L567.654 2791.78L567.715 2790.05ZM575.478 2776.79L575.498 2776.21C575.503 2776.07 575.371 2775.77 575.084 2775.76L567.221 2775.49C566.936 2775.48 566.784 2775.76 566.779 2775.91L566.759 2776.48C566.749 2776.77 566.881 2777.06 567.165 2777.07L575.029 2777.35C575.316 2777.36 575.468 2777.07 575.478 2776.79ZM578.102 2767.23L564.808 2766.77C564.522 2766.76 564.372 2766.89 564.362 2767.18L564.342 2767.76C564.332 2768.04 564.467 2768.34 564.753 2768.35L578.047 2768.81C578.333 2768.82 578.485 2768.54 578.495 2768.25L578.515 2767.68C578.526 2767.39 578.388 2767.24 578.102 2767.23ZM557.661 2778.76L556.109 2778.13L556.624 2779.73L555.58 2780.99L557.294 2781.05L558.106 2782.37L558.734 2780.81L560.322 2780.43L558.927 2779.38L559.126 2777.8L557.661 2778.76ZM559.984 2786.04L558.426 2785.55L558.8 2787.15L557.895 2788.41L559.47 2788.47L560.424 2789.8L560.908 2788.23L562.495 2787.86L561.244 2786.8L561.305 2785.08L559.984 2786.04ZM538.26 2789.17L538.255 2789.31C538.389 2789.61 538.521 2789.9 538.803 2790.05L539.084 2790.21C540.918 2790.99 541.182 2791.58 541.58 2792.45C541.842 2793.18 542.379 2794.21 543.62 2795.55C546.381 2798.53 549.831 2798.07 551.274 2797.69C553.235 2798.91 555.094 2798.97 556.539 2798.59C556.489 2800.03 556.999 2801.78 558.661 2803.42C558.611 2804.86 559.056 2808.47 562.566 2810.47C564.108 2811.39 565.247 2811.57 566.099 2811.75C567.098 2811.78 567.666 2811.94 568.755 2813.57L569.031 2813.86C569.168 2814.01 569.455 2814.02 569.597 2814.03L569.736 2814.18L569.878 2814.18L570.023 2814.19L570.028 2814.04L570.17 2814.05L570.312 2814.05L570.454 2814.06L570.603 2813.92L570.755 2813.64L570.9 2813.64C572.241 2812.1 572.675 2811.97 573.677 2812.01C574.539 2811.9 575.687 2811.79 577.29 2810.98C580.931 2809.24 581.627 2805.66 581.677 2804.22C583.449 2802.7 584.08 2800.99 584.135 2799.41C585.546 2800.04 587.402 2800.1 589.446 2799.02C590.858 2799.5 594.269 2800.2 597.231 2797.42C598.561 2796.17 599.025 2795.18 599.479 2794.48C599.945 2793.48 600.244 2793.06 602.128 2792.41C602.562 2792.28 602.714 2792 602.868 2791.71L603.02 2791.43L603.025 2791.29C603.036 2791 602.903 2790.71 602.764 2790.56C601.825 2788.8 601.845 2788.22 602.167 2787.22C602.197 2786.36 602.524 2785.22 602.297 2783.48C601.723 2779.43 598.634 2777.74 597.218 2777.26C596.436 2775.07 594.899 2774.01 593.489 2773.38C594.529 2772.27 595.025 2770.41 594.67 2768.24C595.574 2766.97 597.399 2763.87 595.666 2760.21C594.864 2758.6 594.179 2757.71 593.628 2757.12C592.796 2756.36 592.52 2756.07 592.451 2753.9C592.456 2753.76 592.319 2753.61 592.324 2753.47L592.329 2753.32L592.192 2753.17C591.915 2752.88 591.352 2752.57 590.919 2752.7C588.897 2753.2 588.479 2752.9 587.495 2752.44C586.793 2751.98 585.808 2751.51 584.104 2751.16C579.98 2750.3 577.46 2752.8 576.563 2753.93C574.265 2754.13 572.795 2755.23 571.751 2756.49C570.938 2755.17 569.548 2753.97 567.266 2753.75C566.31 2752.41 563.966 2749.88 559.941 2750.32C558.217 2750.55 557.195 2751.09 556.47 2751.35C555.451 2751.89 555.017 2752.02 553.029 2751.52L552.75 2751.37C552.608 2751.36 552.463 2751.36 552.316 2751.49L552.172 2751.49L552.024 2751.63L551.88 2751.62L551.875 2751.77L551.733 2751.76L551.728 2751.91L551.586 2751.9L551.581 2752.04L551.434 2752.18L551.429 2752.33L551.419 2752.62C551.204 2754.62 550.76 2755.04 550.02 2755.74C549.427 2756.29 548.545 2756.98 547.777 2758.54C545.785 2762.21 547.391 2765.44 548.209 2766.62C547.557 2768.9 548.068 2770.65 548.88 2771.97C547.436 2772.35 545.966 2773.45 544.897 2775.43C543.593 2775.82 540.251 2777.29 539.533 2781.44C539.186 2783.15 539.295 2784.17 539.407 2785.03C539.658 2786.05 539.638 2786.63 538.434 2788.31L538.28 2788.59C538.275 2788.74 538.27 2788.88 538.265 2789.03L538.26 2789.17ZM579.732 2802.57C579.291 2802.84 579.133 2803.27 579.118 2803.7C579.113 2803.85 579.284 2807.16 576.226 2808.64C574.921 2809.17 574.201 2809.29 573.48 2809.41C572.19 2809.51 571.178 2809.76 569.994 2810.87C568.748 2809.68 567.757 2809.35 566.476 2809.17C565.766 2809 565.056 2808.83 563.788 2808.21C560.843 2806.52 561.245 2803.22 561.25 2803.08C561.265 2802.65 561.135 2802.21 560.859 2801.91C558.495 2799.96 559.138 2797.96 559.602 2796.97C562.677 2799.09 566.352 2800.38 570.356 2800.52C574.36 2800.66 578.115 2799.63 581.333 2797.73C581.724 2798.75 582.084 2800.78 579.732 2802.57ZM595.023 2778.62C595.152 2779.06 595.571 2779.36 595.994 2779.52C596.136 2779.53 599.258 2780.35 599.709 2783.83C599.95 2785.13 599.775 2785.99 599.608 2786.7C599.281 2787.84 599.246 2788.85 599.906 2790.46C598.446 2791.27 597.845 2792.11 597.232 2793.25C596.922 2793.95 596.473 2794.51 595.579 2795.49C593.064 2797.85 589.965 2796.45 589.82 2796.44C589.397 2796.28 588.968 2796.27 588.671 2796.55C586.187 2798.04 584.363 2796.97 583.531 2796.22C588.241 2792.5 591.296 2786.99 591.517 2780.66C591.577 2778.93 591.353 2777.2 591.122 2775.6C592.27 2775.5 594.114 2776 595.023 2778.62ZM577.188 2756.54C577.616 2756.56 578.055 2756.28 578.357 2755.86C578.362 2755.72 580.176 2752.9 583.588 2753.59C584.866 2753.93 585.568 2754.24 586.271 2754.7C587.394 2755.31 588.241 2755.63 589.961 2755.55C590.187 2757.28 590.877 2758.03 591.704 2758.92C592.255 2759.52 592.808 2760.11 593.338 2761.28C594.805 2764.36 592.572 2766.87 592.425 2767.01C592.128 2767.29 591.969 2767.71 592.098 2768.15C592.718 2770.91 591.237 2772.3 590.36 2772.84C587.751 2765.55 581.069 2760.13 573.081 2759.42C573.405 2758.28 574.472 2756.45 577.188 2756.54ZM571.712 2761.68C581.719 2762.03 589.58 2770.51 589.229 2780.58C588.882 2790.5 580.448 2798.42 570.441 2798.07C560.434 2797.72 552.572 2789.24 552.919 2779.31C553.271 2769.24 561.705 2761.33 571.712 2761.68ZM550.024 2759.77C550.635 2758.64 551.228 2758.08 551.814 2757.67C552.701 2756.84 553.446 2756 553.793 2754.28C555.497 2754.63 556.37 2754.23 557.534 2753.69C558.259 2753.43 558.847 2753.02 560.279 2752.92C563.589 2752.46 565.347 2755.41 565.342 2755.55C565.616 2755.85 565.893 2756.15 566.323 2756.16C569.177 2756.4 569.973 2758.16 570.22 2759.32C562.336 2759.62 555.295 2764.56 552.326 2771.66C551.346 2771.05 549.824 2769.55 550.777 2766.85C550.936 2766.42 550.807 2765.99 550.536 2765.55C550.394 2765.54 548.339 2762.88 550.024 2759.77ZM541.996 2784.69C541.877 2783.97 541.76 2783.24 541.952 2781.81C542.641 2778.52 545.96 2777.77 546.102 2777.78C546.536 2777.65 546.832 2777.37 546.989 2776.94C548.229 2774.25 550.234 2774.18 551.378 2774.22C550.894 2775.79 550.692 2777.51 550.631 2779.23C550.41 2785.56 553.073 2791.27 557.375 2795.16C556.63 2796 554.736 2796.95 552.217 2795.27C551.943 2794.98 551.512 2794.96 551.081 2795.09C550.936 2795.08 547.746 2796.27 545.402 2793.74C544.573 2792.85 544.17 2792.11 543.908 2791.38C543.372 2790.36 542.835 2789.33 541.288 2788.56C542.202 2787 542.093 2785.99 541.996 2784.69ZM564.281 2765.45L578.72 2765.95C579.006 2765.96 579.159 2765.68 579.169 2765.39L579.189 2764.82C579.199 2764.53 579.062 2764.38 578.775 2764.37L564.336 2763.87C564.052 2763.86 563.902 2764 563.892 2764.28L563.872 2764.86C563.862 2765.15 563.996 2765.44 564.281 2765.45ZM577.144 2770.08L565.565 2769.67C565.279 2769.66 564.989 2769.8 564.979 2770.08L564.959 2770.66C564.949 2770.95 565.223 2771.24 565.51 2771.25L577.089 2771.66C577.375 2771.67 577.672 2771.39 577.682 2771.1L577.702 2770.53C577.712 2770.24 577.431 2770.09 577.144 2770.08ZM576.279 2790.79L574.686 2791.31L573.433 2790.25L573.373 2791.98L572.057 2792.8L573.609 2793.43L573.983 2795.03L575.035 2793.62L576.607 2793.68L575.65 2792.35L576.279 2790.79ZM580.351 2788.91L580.867 2790.51L581.771 2789.25L583.485 2789.31L582.531 2787.98L583.015 2786.41L581.428 2786.79L580.175 2785.74L580.114 2787.46L578.793 2788.42L580.351 2788.91ZM583.039 2781.66L583.555 2783.26L584.599 2782L586.174 2782.06L585.217 2780.73L585.843 2779.17L584.253 2779.69L582.858 2778.63L582.945 2780.22L581.48 2781.17L583.039 2781.66Z" fill="#D3D2D2"/>
<rect y="1035" width="60" height="700" transform="rotate(-90 0 1035)" fill="#898582"/>
<rect x="539" y="979" width="16" height="4" fill="#D9D9D9"/>
<rect x="557" y="979" width="16" height="4" fill="#D9D9D9"/>
<rect x="539" y="987" width="16" height="4" fill="#D9D9D9"/>
<rect x="557" y="987" width="16" height="4" fill="#D9D9D9"/>
<rect x="539" y="995" width="16" height="4" fill="#D9D9D9"/>
<rect x="557" y="995" width="16" height="4" fill="#D9D9D9"/>
<rect x="539" y="1003" width="16" height="4" fill="#D9D9D9"/>
<rect x="557" y="1003" width="16" height="4" fill="#D9D9D9"/>
<rect x="539" y="1011" width="16" height="4" fill="#D9D9D9"/>
<rect x="557" y="1011" width="16" height="4" fill="#D9D9D9"/>
<rect x="539" y="1019" width="16" height="4" fill="#D9D9D9"/>
<rect x="557" y="1019" width="16" height="4" fill="#D9D9D9"/>
<rect x="539" y="1027" width="16" height="4" fill="#D9D9D9"/>
<rect x="557" y="1027" width="16" height="4" fill="#D9D9D9"/>
<path d="M110.622 2797.46C102.39 2808.46 98.1505 2830.31 98.1505 2830.31C98.1505 2830.31 76.0076 2840.07 65.7513 2850.99C56.6247 2860.71 48.438 2880.37 48.438 2880.37C48.438 2880.37 53.0367 2902.58 61.6259 2913.66C69.3206 2923.58 87.0725 2933.41 87.0725 2933.41C87.0725 2933.41 86.8465 2957.08 93.1725 2970.26C99.1484 2982.71 116.373 2997.05 116.373 2997.05C116.373 2997.05 139.08 2999 152.722 2995.08C166.139 2991.23 183.998 2977.92 183.998 2977.92C183.998 2977.92 207.383 2984.45 222.265 2982.38C233.16 2980.87 248.932 2973.44 248.932 2973.44C248.932 2973.44 259.765 2949.47 258.111 2933.05C256.456 2916.63 249.339 2903.78 249.339 2903.78C249.339 2903.78 262.331 2886.99 266.653 2874.4C271.432 2860.48 270.681 2836.91 270.681 2836.91C270.681 2836.91 255.029 2820.38 239.926 2814.78C226.614 2809.85 200.325 2808.64 200.325 2808.64C200.325 2808.64 183.355 2789.39 168.797 2783.07C157.209 2778.03 137.057 2776.81 137.057 2776.81C137.057 2776.81 118.457 2786.99 110.622 2797.46Z" fill="#A8E8E5"/>
</g>
<defs>
<clipPath id="clip0_601_190">
<rect width="700" height="3100" fill="white"/>
</clipPath>
</defs>
</svg>
