<svg width="700" height="3000" viewBox="0 0 700 3000" fill="none" xmlns="http://www.w3.org/2000/svg">
<g clip-path="url(#clip0_331_693)">
<path d="M-2.80228e-05 -0.000155571L403.982 3.77815e-09L439.003 973.505L4.8146e-05 973.505L-2.80228e-05 -0.000155571Z" fill="#D7E9D0"/>
<path d="M-0.176457 1082.05L443.04 1081.94L392.218 2539.83L-0.539322 2523.47L-0.176457 1082.05Z" fill="#D7E9D0"/>
<rect x="513.552" y="-5.15234" width="46" height="1012.77" transform="rotate(-2 513.552 -5.15234)" fill="#F7E5E0"/>
<rect x="549.086" y="1052.52" width="46" height="1676.83" transform="rotate(2 549.086 1052.52)" fill="#F7E5E0"/>
<rect x="-16.6141" y="2621.25" width="46" height="571.964" transform="rotate(-70 -16.6141 2621.25)" fill="#F7E5E0"/>
<circle cx="517.001" cy="2800.98" r="120" fill="#CFB2AA"/>
<circle cx="517.001" cy="2800.98" r="100.8" fill="#E1B79F"/>
<circle cx="517.001" cy="2800.98" r="81.6" fill="#FFDBC6"/>
<circle cx="517.001" cy="2800.98" r="62.4" fill="#D3D2D2"/>
<circle cx="517.001" cy="2800.98" r="37.2" transform="rotate(-178 517.001 2800.98)" fill="#F2F2F2"/>
<path d="M512.143 2802.77L512.128 2803.2C512.118 2803.49 512.253 2803.78 512.539 2803.79L521.258 2804.1C521.545 2804.11 521.697 2803.83 521.707 2803.54L521.722 2803.11C521.732 2802.82 521.6 2802.53 521.313 2802.52L512.595 2802.21C512.308 2802.2 512.154 2802.48 512.143 2802.77ZM521.601 2806.56L521.621 2805.98C521.632 2805.7 521.499 2805.4 521.213 2805.39L512.494 2805.09C512.208 2805.08 512.053 2805.36 512.043 2805.65L512.023 2806.22C512.018 2806.37 512.153 2806.66 512.439 2806.67L521.158 2806.97C521.444 2806.98 521.596 2806.7 521.601 2806.56ZM522.295 2794.92L522.315 2794.34C522.325 2794.05 522.043 2793.9 521.759 2793.89L512.752 2793.58C512.465 2793.57 512.174 2793.7 512.164 2793.99L512.144 2794.56C512.133 2794.85 512.41 2795.15 512.696 2795.16L521.704 2795.47C521.988 2795.48 522.285 2795.21 522.295 2794.92ZM520.415 2799.61L513.694 2799.37C513.408 2799.36 513.111 2799.64 513.101 2799.93L513.086 2800.36C513.076 2800.64 513.353 2800.94 513.639 2800.95L520.359 2801.19C520.644 2801.2 520.94 2800.92 520.95 2800.63L520.965 2800.2C520.975 2799.91 520.699 2799.61 520.415 2799.61ZM513.716 2811.04L512.395 2812L510.843 2811.37L511.361 2812.97L510.312 2814.23L511.886 2814.28L512.835 2815.76L513.321 2814.19L515.056 2813.68L513.656 2812.76L513.716 2811.04ZM521.479 2797.77L521.499 2797.19C521.504 2797.05 521.372 2796.76 521.086 2796.75L513.222 2796.47C512.938 2796.46 512.785 2796.75 512.78 2796.89L512.76 2797.47C512.75 2797.75 512.882 2798.04 513.167 2798.05L521.03 2798.33C521.317 2798.34 521.469 2798.06 521.479 2797.77ZM524.103 2788.21L510.81 2787.75C510.523 2787.74 510.374 2787.88 510.364 2788.16L510.344 2788.74C510.334 2789.03 510.468 2789.32 510.754 2789.33L524.048 2789.79C524.335 2789.8 524.487 2789.52 524.497 2789.23L524.517 2788.66C524.527 2788.37 524.39 2788.22 524.103 2788.21ZM503.663 2799.74L502.11 2799.11L502.626 2800.71L501.581 2801.97L503.295 2802.03L504.108 2803.36L504.736 2801.79L506.323 2801.42L504.928 2800.36L505.128 2798.78L503.663 2799.74ZM505.985 2807.02L504.428 2806.54L504.801 2808.13L503.897 2809.4L505.471 2809.45L506.425 2810.78L506.909 2809.21L508.496 2808.84L507.246 2807.79L507.306 2806.06L505.985 2807.02ZM484.261 2810.15L484.256 2810.3C484.39 2810.59 484.522 2810.88 484.804 2811.03L485.086 2811.19C486.919 2811.97 487.184 2812.56 487.582 2813.44C487.843 2814.17 488.381 2815.19 489.621 2816.53C492.382 2819.51 495.833 2819.05 497.276 2818.67C499.237 2819.89 501.095 2819.96 502.54 2819.58C502.49 2821.01 503.001 2822.76 504.662 2824.4C504.612 2825.84 505.057 2829.46 508.568 2831.45C510.11 2832.37 511.248 2832.55 512.1 2832.73C513.099 2832.76 513.668 2832.93 514.756 2834.55L515.032 2834.85C515.17 2834.99 515.456 2835 515.598 2835.01L515.738 2835.16L515.88 2835.16L516.024 2835.17L516.029 2835.02L516.171 2835.03L516.313 2835.03L516.455 2835.04L516.605 2834.9L516.757 2834.62L516.902 2834.62C518.242 2833.09 518.676 2832.96 519.678 2832.99C520.54 2832.88 521.689 2832.77 523.291 2831.97C526.932 2830.22 527.628 2826.64 527.679 2825.2C529.451 2823.68 530.082 2821.98 530.137 2820.4C531.547 2821.02 533.403 2821.08 535.447 2820C536.86 2820.49 540.271 2821.18 543.232 2818.4C544.563 2817.15 545.026 2816.16 545.48 2815.46C545.946 2814.47 546.246 2814.04 548.13 2813.39C548.563 2813.26 548.715 2812.98 548.87 2812.7L549.022 2812.41L549.027 2812.27C549.037 2811.98 548.905 2811.69 548.766 2811.54C547.826 2809.78 547.847 2809.2 548.168 2808.21C548.198 2807.34 548.525 2806.2 548.299 2804.47C547.724 2800.41 544.635 2798.72 543.22 2798.24C542.438 2796.05 540.901 2794.99 539.491 2794.37C540.53 2793.25 541.026 2791.39 540.671 2789.22C541.576 2787.96 543.4 2784.85 541.667 2781.19C540.865 2779.58 540.18 2778.69 539.63 2778.1C538.798 2777.35 538.521 2777.05 538.452 2774.89C538.457 2774.74 538.32 2774.59 538.325 2774.45L538.33 2774.31L538.193 2774.16C537.917 2773.86 537.354 2773.55 536.92 2773.68C534.899 2774.19 534.48 2773.88 533.496 2773.42C532.794 2772.96 531.81 2772.49 530.105 2772.15C525.982 2771.28 523.462 2773.79 522.564 2774.91C520.267 2775.12 518.796 2776.22 517.752 2777.48C516.94 2776.15 515.55 2774.95 513.268 2774.73C512.311 2773.4 509.967 2770.87 505.943 2771.3C504.218 2771.53 503.197 2772.07 502.472 2772.33C501.452 2772.87 501.018 2773 499.03 2772.5L498.751 2772.35C498.609 2772.34 498.464 2772.34 498.317 2772.48L498.173 2772.47L498.026 2772.61L497.882 2772.61L497.877 2772.75L497.734 2772.74L497.729 2772.89L497.587 2772.88L497.582 2773.03L497.435 2773.17L497.43 2773.31L497.42 2773.6C497.205 2775.61 496.762 2776.02 496.022 2776.72C495.429 2777.27 494.546 2777.96 493.778 2779.52C491.787 2783.2 493.392 2786.42 494.21 2787.6C493.558 2789.88 494.069 2791.63 494.881 2792.95C493.438 2793.33 491.967 2794.43 490.898 2796.41C489.594 2796.8 486.252 2798.27 485.534 2802.42C485.187 2804.13 485.297 2805.15 485.409 2806.01C485.66 2807.03 485.64 2807.61 484.436 2809.29L484.281 2809.58C484.276 2809.72 484.271 2809.86 484.266 2810.01L484.261 2810.15ZM525.733 2823.55C525.292 2823.83 525.135 2824.25 525.12 2824.69C525.115 2824.83 525.286 2828.15 522.228 2829.62C520.922 2830.15 520.202 2830.27 519.482 2830.39C518.191 2830.49 517.179 2830.75 515.995 2831.86C514.749 2830.66 513.758 2830.34 512.477 2830.15C511.767 2829.98 511.057 2829.81 509.789 2829.19C506.844 2827.5 507.246 2824.2 507.251 2824.06C507.267 2823.63 507.137 2823.19 506.861 2822.89C504.496 2820.94 505.139 2818.95 505.603 2817.95C508.678 2820.08 512.353 2821.36 516.357 2821.5C520.361 2821.64 524.117 2820.62 527.334 2818.71C527.725 2819.73 528.086 2821.76 525.733 2823.55ZM541.024 2799.6C541.154 2800.04 541.572 2800.34 541.996 2800.5C542.138 2800.51 545.26 2801.34 545.71 2804.81C545.951 2806.11 545.777 2806.97 545.609 2807.69C545.283 2808.83 545.247 2809.83 545.907 2811.44C544.447 2812.25 543.846 2813.1 543.233 2814.23C542.923 2814.94 542.475 2815.5 541.58 2816.47C539.065 2818.83 535.966 2817.43 535.822 2817.42C535.398 2817.27 534.97 2817.25 534.673 2817.53C532.188 2819.03 530.364 2817.96 529.532 2817.2C534.242 2813.48 537.297 2807.97 537.518 2801.64C537.578 2799.92 537.354 2798.18 537.123 2796.59C538.272 2796.48 540.115 2796.98 541.024 2799.6ZM523.189 2777.52C523.618 2777.54 524.056 2777.26 524.358 2776.84C524.363 2776.7 526.178 2773.88 529.589 2774.58C530.867 2774.91 531.57 2775.22 532.272 2775.68C533.396 2776.29 534.243 2776.61 535.962 2776.53C536.189 2778.26 536.878 2779.01 537.706 2779.9C538.256 2780.5 538.809 2781.09 539.34 2782.26C540.806 2785.34 538.573 2787.85 538.426 2787.99C538.129 2788.27 537.97 2788.7 538.099 2789.13C538.719 2791.89 537.239 2793.28 536.361 2793.83C533.752 2786.53 527.07 2781.11 519.082 2780.4C519.406 2779.26 520.473 2777.43 523.189 2777.52ZM517.713 2782.66C527.72 2783.01 535.582 2791.49 535.23 2801.56C534.884 2811.49 526.45 2819.4 516.442 2819.05C506.435 2818.7 498.574 2810.22 498.92 2800.29C499.272 2790.23 507.706 2782.31 517.713 2782.66ZM496.025 2780.75C496.636 2779.62 497.229 2779.06 497.815 2778.65C498.702 2777.82 499.447 2776.98 499.794 2775.26C501.499 2775.61 502.371 2775.21 503.535 2774.68C504.26 2774.41 504.848 2774 506.281 2773.91C509.59 2773.45 511.348 2776.39 511.343 2776.53C511.618 2776.83 511.894 2777.13 512.325 2777.14C515.178 2777.39 515.975 2779.14 516.221 2780.3C508.337 2780.6 501.297 2785.54 498.327 2792.64C497.348 2792.03 495.826 2790.54 496.778 2787.83C496.938 2787.41 496.808 2786.97 496.537 2786.53C496.395 2786.52 494.34 2783.86 496.025 2780.75ZM487.997 2805.67C487.878 2804.95 487.761 2804.22 487.953 2802.79C488.642 2799.5 491.961 2798.76 492.103 2798.76C492.537 2798.63 492.833 2798.35 492.991 2797.93C494.23 2795.23 496.236 2795.16 497.379 2795.2C496.895 2796.77 496.693 2798.49 496.633 2800.21C496.412 2806.54 499.074 2812.25 503.376 2816.15C502.631 2816.99 500.737 2817.93 498.218 2816.26C497.944 2815.96 497.513 2815.94 497.082 2816.07C496.937 2816.07 493.748 2817.25 491.404 2814.72C490.574 2813.83 490.171 2813.09 489.909 2812.37C489.374 2811.34 488.836 2810.31 487.289 2809.54C488.203 2807.99 488.094 2806.97 487.997 2805.67ZM510.282 2786.43L524.721 2786.94C525.008 2786.95 525.16 2786.67 525.17 2786.38L525.19 2785.8C525.2 2785.51 525.063 2785.36 524.777 2785.35L510.337 2784.85C510.053 2784.84 509.903 2784.98 509.893 2785.27L509.873 2785.84C509.863 2786.13 509.998 2786.42 510.282 2786.43ZM523.145 2791.06L511.566 2790.65C511.28 2790.64 510.991 2790.78 510.981 2791.07L510.961 2791.64C510.951 2791.93 511.225 2792.23 511.511 2792.24L523.09 2792.64C523.377 2792.65 523.673 2792.37 523.683 2792.08L523.703 2791.51C523.713 2791.22 523.432 2791.07 523.145 2791.06ZM522.28 2811.77L520.688 2812.29L519.435 2811.24L519.374 2812.96L518.059 2813.78L519.611 2814.41L519.984 2816.01L521.036 2814.6L522.608 2814.66L521.652 2813.33L522.28 2811.77ZM526.352 2809.89L526.868 2811.5L527.773 2810.23L529.487 2810.29L528.533 2808.96L529.017 2807.39L527.429 2807.77L526.176 2806.72L526.116 2808.45L524.795 2809.41L526.352 2809.89ZM529.04 2802.64L529.556 2804.24L530.6 2802.98L532.175 2803.04L531.219 2801.71L531.844 2800.15L530.254 2800.67L528.859 2799.61L528.946 2801.2L527.481 2802.16L529.04 2802.64Z" fill="#D3D2D2"/>
<rect y="1057" width="60" height="700" transform="rotate(-90 0 1057)" fill="#898582"/>
<rect x="555.001" y="1001" width="16" height="4" fill="#D9D9D9"/>
<rect x="573.001" y="1001" width="16" height="4" fill="#D9D9D9"/>
<rect x="555.001" y="1009" width="16" height="4" fill="#D9D9D9"/>
<rect x="573.001" y="1009" width="16" height="4" fill="#D9D9D9"/>
<rect x="555.001" y="1017" width="16" height="4" fill="#D9D9D9"/>
<rect x="573.001" y="1017" width="16" height="4" fill="#D9D9D9"/>
<rect x="555.001" y="1025" width="16" height="4" fill="#D9D9D9"/>
<rect x="573.001" y="1025" width="16" height="4" fill="#D9D9D9"/>
<rect x="555.001" y="1033" width="16" height="4" fill="#D9D9D9"/>
<rect x="573.001" y="1033" width="16" height="4" fill="#D9D9D9"/>
<rect x="555.001" y="1041" width="16" height="4" fill="#D9D9D9"/>
<rect x="573.001" y="1041" width="16" height="4" fill="#D9D9D9"/>
<rect x="555.001" y="1049" width="16" height="4" fill="#D9D9D9"/>
<rect x="573.001" y="1049" width="16" height="4" fill="#D9D9D9"/>
<path d="M89.8059 2755.84C81.2893 2767.22 76.9028 2789.83 76.9028 2789.83C76.9028 2789.83 53.994 2799.93 43.383 2811.23C33.9408 2821.28 25.471 2841.61 25.471 2841.61C25.471 2841.61 30.2287 2864.6 39.115 2876.06C47.0757 2886.33 65.4416 2896.5 65.4416 2896.5C65.4416 2896.5 65.2078 2920.98 71.7526 2934.62C77.9352 2947.5 95.7551 2962.34 95.7551 2962.34C95.7551 2962.34 119.247 2964.35 133.362 2960.3C147.243 2956.31 165.72 2942.54 165.72 2942.54C165.72 2942.54 189.913 2949.29 205.31 2947.16C216.581 2945.59 232.899 2937.91 232.899 2937.91C232.899 2937.91 244.107 2913.1 242.395 2896.12C240.684 2879.13 233.32 2865.83 233.32 2865.83C233.32 2865.83 246.761 2848.47 251.232 2835.45C256.178 2821.04 255.4 2796.66 255.4 2796.66C255.4 2796.66 239.207 2779.56 223.581 2773.77C209.809 2768.66 182.611 2767.41 182.611 2767.41C182.611 2767.41 165.054 2747.49 149.993 2740.95C138.004 2735.74 117.155 2734.48 117.155 2734.48C117.155 2734.48 97.9118 2745.01 89.8059 2755.84Z" fill="#A8E8E5"/>
</g>
<defs>
<clipPath id="clip0_331_693">
<rect width="700" height="3000" fill="white"/>
</clipPath>
</defs>
</svg>
