<svg width="72" height="64" viewBox="0 0 72 64" fill="none" xmlns="http://www.w3.org/2000/svg">
<g clip-path="url(#clip0_1142_24345)">
<path d="M46.8271 36.7555C48.1955 35.9844 47.2212 31.1454 48.3966 30.7092C51.0571 29.7225 52.8513 35.4244 52.8513 35.4244C52.8513 35.4244 51.7685 37.6856 46.8271 36.7555Z" fill="#C9B697"/>
<path d="M52.4083 35.3707C52.1657 35.699 51.3051 36.5758 49.0329 36.5758H49.0324C48.5859 36.5758 48.1063 36.5408 47.5996 36.4715C47.9745 35.7364 48.036 34.5967 48.0959 33.4846C48.1422 32.6327 48.219 31.2067 48.537 31.0888C48.6972 31.0296 48.8583 30.9993 49.0155 30.9993C50.6005 30.9993 51.9461 34.0029 52.4083 35.3707ZM49.0324 37.3845H49.0329C52.3231 37.3845 53.1813 35.672 53.2161 35.5992C53.2605 35.5067 53.268 35.4007 53.2372 35.3028C53.0726 34.7795 51.555 30.1904 49.0155 30.1904C48.762 30.1904 48.5065 30.2373 48.2556 30.3306C47.4401 30.6331 47.3699 31.9341 47.2884 33.4409C47.224 34.6315 47.144 36.1129 46.6289 36.4032C46.4809 36.4868 46.4008 36.6538 46.4283 36.8215C46.456 36.9892 46.5856 37.1215 46.7526 37.1532C47.5686 37.3065 48.3353 37.3845 49.0324 37.3845Z" fill="#1D1D1D"/>
<path d="M53.2865 37.5254C53.2865 37.5254 53.9172 36.4193 52.5974 35.1874C52.5974 35.1874 49.3048 39.7457 45.0892 35.9818C45.0892 35.9818 44.3113 37.9813 45.4244 38.9255C45.4244 38.9255 50.5413 42.1096 53.2865 37.5254Z" fill="#D52527"/>
<path d="M52.7822 37.2431C51.9104 38.6902 50.6859 39.424 49.1425 39.424C47.5038 39.424 46.0191 38.6033 45.7666 38.4563C45.3812 38.0988 45.3628 37.49 45.4319 36.9937C46.4247 37.6946 47.4497 38.0488 48.4896 38.0488C50.4339 38.0488 51.8967 36.8147 52.6016 36.0713C53.0141 36.6954 52.8233 37.159 52.7822 37.2431ZM49.1425 40.5796C51.0974 40.5796 52.7019 39.6262 53.7824 37.8221C53.7842 37.8186 53.7859 37.8155 53.7885 37.8118C53.8235 37.7505 54.627 36.2911 52.992 34.7647C52.871 34.6519 52.7068 34.596 52.5417 34.612C52.3766 34.6282 52.2263 34.7142 52.1293 34.849C52.1152 34.8682 50.6145 36.8931 48.4896 36.8931C47.4862 36.8931 46.4717 36.4415 45.4739 35.5506C45.333 35.4247 45.1388 35.3756 44.9546 35.42C44.7702 35.4639 44.6197 35.5954 44.5509 35.7721C44.5133 35.8693 43.6402 38.1688 45.0509 39.366C45.0728 39.3843 45.0955 39.4012 45.1195 39.416C45.1961 39.4632 47.014 40.5796 49.1425 40.5796Z" fill="#1D1D1D"/>
<path d="M46.7304 48.7818C46.7304 48.7818 40.8941 49.6173 38.6676 46.3039L37.8167 41.6983C37.8167 41.6983 39.4465 35.6389 41.292 36.9962C43.1374 38.3539 44.5086 39.9851 44.3271 40.853C44.3271 40.853 44.0175 38.2256 45.31 38.6724C45.31 38.6724 51.1083 42.2625 53.4115 36.8826C53.4115 36.8826 53.875 35.8463 54.3844 38.7994C54.3844 38.7994 55.5739 47.4656 46.7304 48.7818Z" fill="white"/>
<path d="M53.8132 38.8854C53.8301 39.0242 54.0572 41.0348 53.3145 43.1454C52.3113 45.9969 50.0678 47.7012 46.6451 48.2106C46.6427 48.2109 46.0161 48.2982 45.1186 48.2982C43.4958 48.2982 40.5957 48.0067 39.2132 46.077L38.4088 41.7239C38.988 39.6412 40.0706 37.3758 40.7423 37.3758C40.7646 37.3758 40.833 37.3758 40.9497 37.462C42.5878 38.6667 43.5106 39.8221 43.7208 40.4638C43.7305 40.7269 43.7518 40.9122 43.7528 40.9206C43.7861 41.2016 44.018 41.4174 44.3008 41.4301C44.5838 41.4411 44.8342 41.2485 44.8922 40.9714C44.9356 40.7637 44.9293 40.5361 44.8727 40.294C44.8628 39.5865 44.9885 39.2769 45.0493 39.2004C45.0561 39.2013 45.0646 39.203 45.0744 39.2048C45.4517 39.4256 47.2656 40.4239 49.2584 40.4239C50.608 40.4239 52.394 39.952 53.59 37.8277C53.6563 38.0769 53.7321 38.4187 53.8132 38.8854ZM45.1181 49.4536H45.1186C46.1042 49.4536 46.7837 49.358 46.8121 49.3538C51.6699 48.6311 53.6302 45.7641 54.4194 43.4865C55.2633 41.0524 54.9697 38.8149 54.957 38.721C54.9556 38.7144 54.9547 38.7076 54.9535 38.701C54.6261 36.802 54.2768 36.1288 53.6185 36.1288C53.2478 36.1288 52.996 36.3964 52.8845 36.6472C52.1277 38.4135 50.9427 39.2683 49.2584 39.2683C47.4014 39.2683 45.6313 38.1918 45.6137 38.181C45.5776 38.1584 45.5386 38.1401 45.4989 38.1265C45.0101 37.9576 44.5532 38.0539 44.2331 38.3818C44.142 38.4753 44.0623 38.5876 43.9952 38.7184C43.3462 37.9196 42.4511 37.132 41.6344 36.5312C41.3544 36.3252 41.054 36.2202 40.7423 36.2202C39.811 36.2202 38.9619 37.136 38.1464 39.0188C37.6052 40.2684 37.2727 41.4968 37.2588 41.5485C37.2365 41.6316 37.2327 41.7188 37.2485 41.8036L38.0994 46.4089C38.1138 46.4866 38.1438 46.5606 38.188 46.6261C39.8408 49.0863 43.2393 49.4536 45.1181 49.4536Z" fill="#1D1D1D"/>
<path d="M39.6193 44.4351C39.9634 46.1298 40.474 48.942 40.5656 51.1154C40.7049 54.438 40.8486 59.2967 40.5038 63.075H36.6149L32.8204 63.2225C32.8204 63.2225 30.4625 63.5537 28.0679 63.5537C25.673 63.5537 13.6258 63.075 13.6258 63.075C12.7417 49.2594 15.5137 35.711 15.5137 35.711L25.4111 35.09L36.9628 37.2018" fill="#C9B697"/>
<path d="M28.0679 64.1318C30.3592 64.1318 32.5779 63.8389 32.871 63.7985L36.6263 63.6527H40.5037C40.8027 63.6527 41.0519 63.4251 41.0791 63.1277C41.4284 59.3011 41.2828 54.4256 41.1425 51.0913C41.0526 48.9478 40.5725 46.2257 40.1856 44.3199C40.122 44.0073 39.8171 43.8058 39.504 43.8687C39.1914 43.9321 38.9894 44.2375 39.053 44.5501C39.3633 46.0766 39.8965 48.9628 39.9883 51.1399C40.1203 54.2889 40.258 58.8238 39.9726 62.4973H36.615C36.6075 62.4973 36.6 62.4973 36.5927 62.4978L32.7979 62.6453C32.7787 62.646 32.7594 62.6476 32.7399 62.6502C32.7167 62.6537 30.3918 62.9762 28.0679 62.9762C25.9958 62.9762 16.5106 62.61 14.1708 62.518C13.4804 50.4801 15.5479 38.6431 15.996 36.26L25.3767 35.6711L36.8595 37.77C37.1731 37.8264 37.4742 37.6195 37.5313 37.3054C37.5888 36.9919 37.3807 36.6905 37.0669 36.6332L25.5148 34.5219C25.4687 34.5132 25.4215 34.5104 25.3748 34.5132L15.4774 35.1344C15.2171 35.1506 15.0001 35.3397 14.948 35.5953C14.92 35.7315 12.17 49.3781 13.0494 63.112C13.0682 63.4075 13.3071 63.6407 13.603 63.6522C14.0951 63.6719 25.6891 64.1318 28.0679 64.1318Z" fill="#1D1D1D"/>
<path d="M35.6375 8.85996L36.4234 8.58562L41.7028 7.25174C41.7028 7.25174 42.5934 9.41969 41.9015 11.6294C41.1254 14.1055 38.2801 15.4885 38.2801 15.4885L35.6375 8.85996Z" fill="#C9B697"/>
<path d="M41.3214 7.94401C41.5187 8.65358 41.7876 10.0598 41.35 11.4571C40.8559 13.0336 39.3787 14.147 38.5702 14.6564L36.3974 9.20672L36.5895 9.13955L41.3214 7.94401ZM38.2802 16.0664C38.3664 16.0664 38.453 16.0471 38.5324 16.0084C38.6576 15.9473 41.6117 14.4854 42.4523 11.8024C43.199 9.42093 42.2769 7.1285 42.2372 7.0322C42.128 6.76632 41.8398 6.62092 41.5612 6.69162L36.2818 8.02551C36.2653 8.02974 36.2487 8.03443 36.2327 8.04031L35.4468 8.31465C35.2981 8.36656 35.1769 8.47718 35.1116 8.62046C35.0458 8.76397 35.0423 8.92769 35.1008 9.07425L37.7435 15.7026C37.8029 15.8517 37.9217 15.9692 38.0711 16.0274C38.1383 16.0533 38.2095 16.0664 38.2802 16.0664Z" fill="#1D1D1D"/>
<path d="M37.3684 12.1799C37.448 12.1799 37.5293 12.1649 37.608 12.133L39.3205 11.4358C39.6453 11.3036 39.8015 10.9325 39.6693 10.6074C39.5368 10.2826 39.1662 10.1261 38.8409 10.2586L37.1286 10.9557C36.8037 11.088 36.6473 11.4588 36.7793 11.7839C36.8801 12.0305 37.1178 12.1799 37.3684 12.1799Z" fill="#1D1D1D"/>
<path d="M16.0624 13.6843L11.0477 7.98235L10.6895 16.1238L16.0624 13.6843Z" fill="#DFBA76"/>
<path d="M15.1135 13.4803L11.308 15.2083L11.5619 9.44173L15.1135 13.4803ZM10.6895 16.7014C10.7706 16.7014 10.8516 16.6845 10.9284 16.6497L16.3013 14.21C16.4681 14.1344 16.5886 13.9843 16.6271 13.8053C16.6656 13.6266 16.617 13.4399 16.496 13.3025L11.4816 7.60074C11.3258 7.4234 11.0783 7.35858 10.8556 7.43726C10.6334 7.51548 10.481 7.721 10.4702 7.95682L10.1145 16.0459C10.111 16.0712 10.1091 16.0973 10.1091 16.1234C10.1091 16.4428 10.368 16.7014 10.687 16.7014C10.6877 16.7012 10.6886 16.7014 10.6895 16.7014Z" fill="#1D1D1D"/>
<path d="M30.536 10.0198L30.8256 2.57782L35.5765 9.04314L30.536 10.0198Z" fill="#DFBA76"/>
<path d="M34.5702 8.64978L31.1417 9.31403L31.3387 4.25165L34.5702 8.64978ZM30.5359 10.5974C30.5728 10.5974 30.6097 10.5939 30.6458 10.5871L35.6866 9.61044C35.8809 9.5731 36.0429 9.43828 36.1148 9.2539C36.1871 9.06951 36.1594 8.86094 36.0422 8.70122L31.2913 2.23567C31.1459 2.0379 30.8913 1.95334 30.6566 2.02545C30.4218 2.09756 30.2581 2.31013 30.2484 2.55534L29.9588 9.99729C29.9518 10.1735 30.0258 10.343 30.1599 10.4584C30.2653 10.5488 30.3992 10.5974 30.5359 10.5974Z" fill="#1D1D1D"/>
<path d="M9.15862 16.9834C9.52785 16.4056 27.8257 6.59414 35.651 8.28058C36.2443 8.40835 38.1708 14.1794 38.742 15.871C39.3145 17.5631 41.0502 23.6293 41.501 25.1574C41.951 26.6853 42.5596 29.678 42.6646 30.6576C42.7726 31.6622 42.8684 36.2252 37.8763 38.7232C31.6564 41.8347 24.0291 40.6375 21.2742 39.072C16.486 36.3502 14.9973 32.5233 14.1162 30.7718C13.235 29.0201 9.99738 20.8991 9.99738 20.8991C9.99738 20.8991 8.78986 17.5614 9.15862 16.9834Z" fill="#C9B697"/>
<path d="M35.4038 8.81956C35.6593 9.15427 36.3383 10.5537 38.126 15.8514L38.1951 16.056C38.6317 17.3478 39.7775 21.2976 40.4624 23.6577C40.6719 24.3795 40.8429 24.9697 40.9465 25.3209C41.4042 26.8729 41.9938 29.8207 42.0901 30.7189C42.1451 31.229 42.4842 35.7716 37.6175 38.2066C34.5096 39.7611 31.2598 40.0878 29.0805 40.0878H29.0794C25.7302 40.0878 22.8896 39.3251 21.5599 38.5695C17.3739 36.1904 15.8258 32.9798 14.9008 31.0613C14.8045 30.8617 14.7157 30.6778 14.6319 30.5119C13.7849 28.8276 10.6593 20.9993 10.5374 20.6937C10.0165 19.2518 9.6362 17.7669 9.66344 17.3098C10.3418 16.8278 14.0721 14.77 18.8353 12.7346C23.1813 10.8774 29.2736 8.6636 33.6154 8.6636C34.2735 8.6636 34.8741 8.71622 35.4038 8.81956ZM29.0794 41.2432H29.0805C31.3845 41.2432 34.8252 40.8955 38.1347 39.2399C43.6983 36.4558 43.3025 31.1872 43.2391 30.5956C43.1273 29.5536 42.5098 26.5368 42.0546 24.9939C41.9515 24.6439 41.7808 24.0553 41.5722 23.3356C40.8849 20.9666 39.7342 17.0014 39.2894 15.6861L39.2208 15.4819C38.8931 14.5105 38.2827 12.7024 37.6753 11.0998C36.5331 8.0865 36.1803 7.80347 35.7723 7.71563C35.1334 7.57799 34.4076 7.50823 33.6154 7.50823C28.9983 7.50823 22.615 9.84435 18.0726 11.8044C15.1277 13.0754 12.785 14.2624 11.6503 14.8567C8.91605 16.2897 8.74483 16.5579 8.67154 16.6726C8.44935 17.0206 8.40073 17.6032 8.88364 19.3147C9.14201 20.231 9.44148 21.0606 9.4544 21.0956C9.45628 21.1017 9.45839 21.1071 9.46074 21.113C9.59321 21.4453 12.7178 29.2774 13.5998 31.0313C13.6808 31.1917 13.7668 31.3697 13.8598 31.5635C14.7789 33.4693 16.4895 37.0167 20.9889 39.5739C22.7733 40.5881 25.9489 41.2432 29.0794 41.2432Z" fill="#1D1D1D"/>
<path d="M9.60276 16.7003L8.3748 17.0864L0.578182 20.0502C0.578182 20.0502 1.07167 22.4004 3.64854 23.58C6.53686 24.9007 12.5002 23.4038 12.5002 23.4038L9.60276 16.7003Z" fill="#C9B697"/>
<path d="M11.6928 22.9925C10.7012 23.1989 8.75517 23.547 6.90595 23.547C5.61858 23.547 4.60319 23.3812 3.88915 23.0547C2.26495 22.3118 1.56759 21.0693 1.29607 20.3954L8.56421 17.6325L9.27895 17.4079L11.6928 22.9925ZM6.90595 24.7024C9.66815 24.7024 12.5205 23.9945 12.6406 23.9642C12.8052 23.9228 12.9431 23.8115 13.0185 23.6593C13.0932 23.5076 13.0974 23.3302 13.0305 23.1747L10.1327 16.4712C10.0153 16.1997 9.71184 16.0607 9.42904 16.1492L8.20179 16.5354C8.19099 16.5387 8.18018 16.5424 8.16961 16.5464L0.372521 19.5101C0.106871 19.6114 -0.0460365 19.8906 0.0124487 20.169C0.0352321 20.2765 0.598241 22.8194 3.40835 24.1053C4.27459 24.5016 5.45158 24.7024 6.90595 24.7024Z" fill="#1D1D1D"/>
<path d="M6.95569 21.8098C7.0029 21.8098 7.05058 21.8046 7.0985 21.7936L11.0703 20.882C11.4123 20.8034 11.6258 20.4628 11.5474 20.1206C11.4689 19.7786 11.1281 19.5637 10.7859 19.6433L6.81406 20.5551C6.47207 20.6333 6.2581 20.9743 6.33678 21.3163C6.40443 21.6106 6.66655 21.8098 6.95569 21.8098Z" fill="#1D1D1D"/>
<path d="M24.5568 24.6682C24.5568 24.6682 26.6818 30.4202 27.9558 30.3922C27.9558 30.3922 29.7998 30.1263 31.0172 29.3658L31.2664 26.8235L33.293 28.5966C33.293 28.5966 34.7241 28.5562 35.7653 27.8083L35.4522 25.2702L37.0158 27.285L38.7523 26.5801C38.7523 26.5801 40.2245 25.8499 38.4728 22.7067C37.7552 21.4186 37.0708 21.0712 36.601 20.7224C36.601 20.7224 31.0586 21.0393 24.6888 24.578" fill="#DFBA76"/>
<path d="M27.947 30.45H27.9571C27.9827 30.4464 29.8342 30.173 31.0476 29.4146L31.0721 29.3998L31.3133 26.9408L33.272 28.6548L33.2945 28.6541C33.3091 28.6538 34.7557 28.6047 35.7993 27.8552L35.827 27.8353L35.535 25.4714L36.9969 27.3549L38.7738 26.6334C38.7926 26.6247 39.1376 26.4483 39.3032 25.9149C39.4704 25.3763 39.4707 24.3781 38.5232 22.6785C37.9003 21.5607 37.2908 21.1358 36.8454 20.825C36.7717 20.7738 36.7014 20.725 36.6354 20.6759L36.6185 20.6634L36.5979 20.6646C36.5422 20.6679 30.9692 21.0228 24.6603 24.5272L24.7169 24.6284C30.8085 21.244 36.2063 20.8081 36.5838 20.7813C36.6453 20.8267 36.7108 20.8725 36.7794 20.9199C37.2396 21.241 37.8129 21.6403 38.4224 22.7346C39.3474 24.3943 39.353 25.3584 39.1945 25.8752C39.0451 26.3626 38.7294 26.5267 38.7263 26.5284L37.0345 27.2149L35.3692 25.0686L35.7039 27.781C34.7616 28.4417 33.4963 28.5282 33.3138 28.5376L31.2203 26.7057L30.9624 29.3317C29.7694 30.0655 27.9658 30.3323 27.9474 30.3351H27.9392C26.7263 30.3351 24.6323 24.7052 24.611 24.6479L24.5029 24.6879C24.5901 24.9239 26.6464 30.45 27.947 30.45Z" fill="#1D1D1D"/>
<path d="M27.9406 30.97C27.9497 30.97 27.9591 30.97 27.9685 30.9697C27.9918 30.9693 28.015 30.9674 28.038 30.9639C28.1186 30.9521 30.0176 30.6714 31.3236 29.8555C31.4755 29.7606 31.5749 29.6004 31.5923 29.4219L31.732 27.998L32.9125 29.031C33.022 29.1271 33.1634 29.1769 33.309 29.1738C33.3748 29.172 34.9311 29.1186 36.1027 28.2775C36.2739 28.1542 36.3648 27.9471 36.339 27.7373L36.2828 27.2823L36.5593 27.6389C36.7181 27.8435 36.9933 27.9177 37.2331 27.8202L38.9694 27.1151C38.9828 27.1099 38.9957 27.1041 39.0086 27.0975C39.1019 27.0512 39.5775 26.7851 39.7997 26.069C40.0867 25.1447 39.81 23.9189 38.9776 22.4253C38.2304 21.0841 37.4222 20.4868 36.9393 20.1298L36.8773 20.084C36.6213 19.8937 36.2591 19.9473 36.0688 20.2038C35.8786 20.4595 35.9321 20.8213 36.1884 21.0117L36.2525 21.0592C36.7124 21.3991 37.3426 21.8646 37.9681 22.9878C38.8501 24.5699 38.8029 25.3826 38.6962 25.7263C38.6314 25.9348 38.5219 26.0394 38.4996 26.0591L37.2038 26.5848L35.9087 24.9155C35.7487 24.7102 35.472 24.6369 35.2313 24.7358C34.9912 24.8349 34.8468 25.0825 34.8785 25.3408L35.1474 27.5153C34.5367 27.851 33.8358 27.9644 33.4903 28.0016L31.6472 26.3884C31.4842 26.2458 31.2552 26.2061 31.0539 26.286C30.8526 26.3656 30.7126 26.5514 30.6917 26.767L30.4712 29.0139C29.5213 29.5205 28.2685 29.7542 27.9493 29.808C27.836 29.7533 27.2925 29.3888 26.2266 27.1381C25.5913 25.7956 25.1039 24.4809 25.0988 24.4678C24.9881 24.1683 24.6562 24.0156 24.357 24.1258C24.0573 24.2364 23.9044 24.5688 24.0148 24.868C24.0371 24.9279 24.5635 26.3485 25.258 27.7909C26.5954 30.5697 27.3661 30.97 27.9406 30.97Z" fill="#1D1D1D"/>
<path d="M17.2102 12.6858C17.2102 12.6858 26.0302 7.5762 31.7476 8.90515C31.7476 8.90515 35.0815 13.685 36.4962 20.4913C36.4962 20.4913 31.318 21.013 24.6493 24.8354C24.6493 24.8354 18.1753 15.0621 17.2102 12.6858Z" fill="#90826A"/>
<path d="M35.7992 20.0061C34.2449 20.2619 30.0392 21.1712 24.8347 24.067C23.642 22.253 19.2013 15.457 17.9579 12.9334C19.5727 12.0658 25.1414 9.26201 29.6685 9.26201C30.2877 9.26201 30.8676 9.31533 31.3968 9.42032C31.9847 10.3227 34.5263 14.4421 35.7992 20.0061ZM24.6496 25.4133C24.7473 25.4133 24.8462 25.3884 24.9366 25.3365C31.4231 21.6186 36.5036 21.0713 36.5543 21.0662C36.7168 21.05 36.8655 20.9652 36.9623 20.8332C37.059 20.7009 37.0952 20.5344 37.0621 20.3737C35.6394 13.53 32.3603 8.7737 32.2215 8.57452C32.1397 8.45731 32.0173 8.37463 31.8785 8.34222C31.2058 8.18602 30.4622 8.10663 29.6685 8.10663C24.0267 8.10663 17.2081 12.0193 16.9209 12.186C16.6714 12.3305 16.5664 12.6365 16.6747 12.9034C17.6506 15.3055 23.902 24.7533 24.1676 25.1543C24.278 25.3213 24.4615 25.4133 24.6496 25.4133Z" fill="#1D1D1D"/>
<path d="M22.9827 10.2593C22.9827 10.2593 27.6145 17.4979 29.4755 22.4846Z" fill="#1D1D1D"/>
<path d="M29.4758 22.9473C29.5291 22.9473 29.5841 22.9376 29.6372 22.9177C29.8763 22.8287 29.998 22.5623 29.9087 22.3232C28.0517 17.3472 23.562 10.3074 23.372 10.0098C23.2343 9.7949 22.9485 9.73219 22.7336 9.86983C22.5184 10.0075 22.4555 10.2933 22.5931 10.5085C22.6394 10.5803 27.22 17.7635 29.0425 22.6464C29.112 22.8322 29.2882 22.9473 29.4758 22.9473Z" fill="#1D1D1D"/>
<path d="M29.0239 9.1352C29.0239 9.1352 32.3435 15.6759 33.702 20.9182Z" fill="#1D1D1D"/>
<path d="M33.7015 21.3804C33.7395 21.3804 33.779 21.3754 33.8175 21.3656C34.0651 21.3015 34.2135 21.049 34.1492 20.8023C32.7939 15.5715 29.4696 8.99184 29.4363 8.92607C29.3205 8.69824 29.0422 8.60781 28.8148 8.7229C28.5872 8.83846 28.4963 9.11679 28.6121 9.34416C28.645 9.40922 31.9246 15.9018 33.2543 21.0337C33.3085 21.2423 33.496 21.3804 33.7015 21.3804Z" fill="#1D1D1D"/>
<path d="M31.9464 15.4202C32.0335 15.4202 32.1209 15.3925 32.1951 15.3347C32.2621 15.2912 32.5533 15.2233 32.7908 15.1977C33.0127 15.1738 33.1734 14.9746 33.1492 14.7522C33.1252 14.53 32.9258 14.3703 32.7039 14.3935C32.4885 14.4168 31.9591 14.4929 31.6972 14.6967C31.5215 14.8341 31.49 15.0885 31.6276 15.2647C31.707 15.3666 31.8261 15.4202 31.9464 15.4202Z" fill="#1D1D1D"/>
<path d="M32.0329 12.8625C32.0867 12.8625 32.1421 12.8517 32.1947 12.8285C32.3993 12.7392 32.4928 12.5008 32.4033 12.2963C32.0402 11.465 30.8322 9.11104 30.781 9.01121C30.6786 8.81251 30.4348 8.73429 30.2365 8.83623C30.0376 8.9384 29.9591 9.18197 30.0611 9.38068C30.0738 9.40487 31.309 11.8117 31.6618 12.6199C31.7285 12.7719 31.8769 12.8625 32.0329 12.8625Z" fill="#1D1D1D"/>
<path d="M35.0934 21.0239C35.1341 21.0239 35.1749 21.0178 35.2158 21.0049C35.4284 20.9377 35.5465 20.7106 35.4793 20.4976C35.473 20.4783 34.867 18.5659 34.28 17.0493C34.1995 16.8409 33.9653 16.7374 33.7569 16.8182C33.5486 16.8987 33.4453 17.1331 33.5256 17.3415C34.1036 18.8341 34.7021 20.7223 34.708 20.7414C34.7625 20.9138 34.9217 21.0239 35.0934 21.0239Z" fill="#1D1D1D"/>
<path d="M31.8875 21.7163C31.8875 21.7163 29.7099 15.456 28.1662 12.7119Z" fill="#1D1D1D"/>
<path d="M31.8874 22.1785C31.9379 22.1785 31.9891 22.1702 32.0394 22.1529C32.2804 22.0688 32.4077 21.8055 32.3238 21.564C32.2343 21.3073 30.1148 15.2338 28.5688 12.4852C28.4436 12.2628 28.162 12.1841 27.9395 12.3088C27.7169 12.434 27.6379 12.7161 27.7634 12.9383C29.269 15.6152 31.4289 21.8057 31.4508 21.8682C31.517 22.0589 31.6962 22.1785 31.8874 22.1785Z" fill="#1D1D1D"/>
<path d="M20.1549 11.5479C20.1549 11.5479 23.3392 15.1986 25.5393 20.2549Z" fill="#1D1D1D"/>
<path d="M25.5395 20.7173C25.6008 20.7173 25.6636 20.7051 25.7237 20.6788C25.9576 20.5768 26.0647 20.3048 25.963 20.0707C23.7596 15.0069 20.6352 11.3953 20.5032 11.2443C20.3358 11.052 20.044 11.032 19.8512 11.1995C19.6591 11.3672 19.6389 11.6594 19.8068 11.8515C19.8381 11.8879 22.9711 15.5126 25.1154 20.4394C25.191 20.6135 25.3608 20.7173 25.5395 20.7173Z" fill="#1D1D1D"/>
<path d="M14.4343 31.2288C14.4939 31.2288 14.555 31.2201 14.6151 31.2022C14.7351 31.1665 17.5958 30.301 21.471 27.6374C21.7604 27.4387 21.8337 27.043 21.6348 26.7536C21.436 26.4644 21.0405 26.3912 20.7511 26.5899C17.0558 29.1294 14.2804 29.9754 14.2532 29.9839C13.9173 30.084 13.7252 30.4379 13.8255 30.774C13.9079 31.05 14.1604 31.2288 14.4343 31.2288Z" fill="#1D1D1D"/>
<path d="M16.3285 34.5259C16.399 34.5259 16.4704 34.5139 16.5404 34.4895C16.7029 34.4317 20.5547 33.0544 23.4745 30.7232C23.7489 30.504 23.7937 30.1043 23.5748 29.8299C23.3554 29.5556 22.9557 29.5105 22.6816 29.7299C19.9325 31.9246 16.1542 33.2775 16.1164 33.2909C15.7852 33.4078 15.6124 33.7712 15.7293 34.1022C15.8216 34.3626 16.0669 34.5259 16.3285 34.5259Z" fill="#1D1D1D"/>
<path d="M18.6203 37.2981C18.6804 37.2981 18.7412 37.2896 18.8014 37.2718C18.9472 37.2283 22.396 36.1866 24.6598 34.0629C24.9158 33.8228 24.9285 33.4205 24.6887 33.1644C24.4486 32.9084 24.046 32.8957 23.7902 33.1358C21.7491 35.0505 18.4718 36.0434 18.439 36.053C18.1028 36.1535 17.9109 36.5075 18.0115 36.8436C18.0934 37.1194 18.3464 37.2981 18.6203 37.2981Z" fill="#1D1D1D"/>
<path d="M44.4882 24.0157C50.5561 20.1817 52.3766 11.9792 52.3766 11.9792L61.8644 27.5196C61.8644 27.5196 53.6292 25.2157 47.4448 28.8601L44.4882 24.0157Z" fill="#D52527"/>
<path d="M55.9519 26.4547C52.7021 26.4547 49.8828 27.106 47.565 28.3917L44.9599 24.1226C49.8201 20.8784 51.8887 15.0017 52.5055 12.8558L61.1354 26.9912C60.109 26.7739 58.2142 26.4547 55.9519 26.4547ZM47.4447 29.2065C47.5049 29.2065 47.5652 29.1913 47.6207 29.1586C49.8849 27.8245 52.688 27.1481 55.9519 27.1481C59.205 27.1481 61.7459 27.8466 61.771 27.8539C61.9082 27.8919 62.055 27.8426 62.141 27.7289C62.2269 27.615 62.2347 27.4607 62.1602 27.3392L52.6725 11.7986C52.5987 11.6779 52.4594 11.6142 52.3199 11.6375C52.1804 11.6605 52.0691 11.766 52.0383 11.9041C52.0204 11.9846 50.1745 20.0126 44.303 23.7228C44.143 23.8238 44.0937 24.0345 44.1923 24.1963L47.1485 29.0405C47.2138 29.1476 47.328 29.2065 47.4447 29.2065Z" fill="#1D1D1D"/>
<path d="M44.2358 31.0787C44.2358 31.0787 47.1908 34.4248 48.7265 38.1155L51.5763 36.3764C51.5763 36.3764 46.9978 30.371 48.653 28.3832L44.2358 31.0787Z" fill="#989795"/>
<path d="M51.0713 36.2787L48.8871 37.6117C47.584 34.6691 45.5032 32.048 44.7638 31.1632L47.968 29.2074C47.713 31.4662 50.2227 35.1177 51.0713 36.2787ZM48.7267 38.4622C48.7896 38.4622 48.8521 38.4452 48.9071 38.4114L51.7571 36.6724C51.8407 36.6212 51.8988 36.5368 51.9173 36.4405C51.9354 36.344 51.9114 36.2444 51.852 36.1662C50.6255 34.5566 47.7076 30.0602 48.9191 28.6049C49.0278 28.4746 49.0262 28.2848 48.9153 28.1565C48.8044 28.0283 48.6172 27.9989 48.4723 28.0873L44.0554 30.7832C43.968 30.8365 43.9088 30.9258 43.8933 31.0273C43.8781 31.1287 43.9086 31.2316 43.9765 31.3082C44.0054 31.3413 46.9118 34.6564 48.4063 38.2491C48.4453 38.3421 48.5233 38.414 48.6194 38.4455C48.6544 38.4563 48.6905 38.4622 48.7267 38.4622Z" fill="#1D1D1D"/>
<path d="M53.2223 12.0777C54.8876 11.0614 58.1442 13.7101 60.6871 17.8767C63.2301 22.0439 63.8948 26.1407 62.432 27.1669C60.8343 28.2875 57.1991 25.7247 54.6558 21.5579C52.1125 17.3912 51.5565 13.0945 53.2223 12.0777Z" fill="#D52527"/>
<path d="M54.039 12.149C55.6958 12.149 58.3281 14.5659 60.4406 18.0269C63.044 22.2928 63.4866 26.0744 62.2661 26.93C62.0665 27.0703 61.8175 27.1412 61.526 27.1414C59.7454 27.1417 56.8979 24.6766 54.9024 21.4073C52.2776 17.1066 51.9896 13.1686 53.3728 12.3242C53.5636 12.208 53.7874 12.149 54.039 12.149ZM61.5258 27.7192C61.9382 27.719 62.2992 27.6126 62.5978 27.4031C64.2631 26.235 63.5324 21.9844 60.9336 17.726C58.687 14.0447 55.9159 11.5714 54.039 11.5714C53.6796 11.5714 53.3545 11.6588 53.0717 11.831C52.1519 12.3928 51.7977 13.7589 52.0751 15.6779C52.3441 17.5412 53.1727 19.6828 54.4094 21.7084C56.5348 25.1912 59.5279 27.7192 61.5258 27.7192Z" fill="#1D1D1D"/>
<path d="M56.1066 24.9705C56.2527 24.9705 56.3783 24.8596 56.3936 24.7109C56.5552 23.1269 59.0417 21.4043 59.0668 21.3871C59.1983 21.2969 59.2319 21.117 59.1419 20.9857C59.0515 20.8539 58.8718 20.8206 58.7405 20.9106C58.6287 20.9869 56.0077 22.802 55.8186 24.6524C55.8026 24.811 55.918 24.9528 56.077 24.969C56.0866 24.97 56.0967 24.9705 56.1066 24.9705Z" fill="#1D1D1D"/>
<path d="M56.106 24.6816C56.2836 22.9433 58.9037 21.149 58.9037 21.149L56.86 17.8008C56.86 17.8008 54.0518 19.2869 52.4245 18.6499C52.4245 18.6499 52.1906 21.7912 56.106 24.6816Z" fill="#D52527"/>
<path d="M58.3642 21.0422C57.7376 21.5209 56.349 22.6899 55.8637 23.9818C53.4717 22.029 52.957 20.0701 52.8513 19.1761C53.0169 19.2005 53.1915 19.213 53.3747 19.213C54.6423 19.213 56.0664 18.6246 56.7067 18.3261L58.3642 21.0422ZM56.1061 25.0859C56.1618 25.0859 56.2172 25.0747 56.2696 25.0514C56.4023 24.9927 56.4939 24.8673 56.5082 24.7223C56.6383 23.4498 58.4462 21.9524 59.1321 21.4826C59.3094 21.361 59.3608 21.1219 59.2488 20.9382L57.2051 17.5902C57.0938 17.4077 56.8598 17.3433 56.6707 17.4432C56.6529 17.4528 54.834 18.4041 53.3747 18.4041C53.0639 18.4041 52.7938 18.3601 52.5721 18.2735C52.4525 18.2263 52.3182 18.2392 52.2092 18.3078C52.1007 18.3759 52.0311 18.4919 52.0213 18.6199C52.0109 18.7571 51.8176 22.0184 55.8658 25.0068C55.9365 25.0592 56.0208 25.0859 56.1061 25.0859Z" fill="#1D1D1D"/>
<path d="M60.4449 11.1804L63.3239 6.50278L61.9127 5.94775L59.8584 10.3924L60.4449 11.1804Z" fill="#FFC300"/>
<path d="M62.7258 6.70227L60.4131 10.4606L60.3262 10.3436L62.1196 6.46363L62.7258 6.70227ZM60.4449 11.585C60.451 11.585 60.4571 11.585 60.4627 11.5847C60.5968 11.5786 60.7192 11.5067 60.7892 11.3924L63.6684 6.71495C63.7306 6.61301 63.7454 6.48829 63.7073 6.37484C63.6695 6.2614 63.5831 6.1705 63.472 6.12657L62.0606 5.57132C61.8614 5.4931 61.6352 5.5833 61.5455 5.77778L59.4912 10.2224C59.429 10.357 59.4452 10.5146 59.5338 10.6339L60.1202 11.422C60.1968 11.5248 60.3173 11.585 60.4449 11.585Z" fill="#1D1D1D"/>
<path d="M63.7972 14.8673L68.5547 12.122L68.8932 13.4799L64.3403 15.7253L63.7972 14.8673Z" fill="#FFC300"/>
<path d="M68.4221 13.2613L64.4876 15.2016L64.3643 15.0071L68.2922 12.7405L68.4221 13.2613ZM64.3406 16.1294C64.4005 16.1294 64.4618 16.1162 64.5193 16.0878L69.0725 13.8426C69.243 13.7583 69.3318 13.5664 69.286 13.3818L68.9466 12.0239C68.9163 11.9008 68.8294 11.7991 68.7122 11.7496C68.5955 11.7 68.4623 11.7082 68.3524 11.7717L63.5951 14.5169C63.5 14.5719 63.4311 14.6637 63.4048 14.7704C63.3783 14.8772 63.3966 14.9905 63.4556 15.0835L63.9984 15.9415C64.075 16.0622 64.2058 16.1294 64.3406 16.1294Z" fill="#1D1D1D"/>
<path d="M71.4767 21.0035L65.9871 20.8236L66.0686 21.8293L71.5956 22.9495L71.4767 21.0035Z" fill="#FFC400"/>
<path d="M71.0955 21.3958L71.1596 22.4485L66.4472 21.4935L66.427 21.2427L71.0955 21.3958ZM71.5956 23.3538C71.6921 23.3538 71.7863 23.3192 71.861 23.2549C71.9556 23.1722 72.0066 23.0501 71.9993 22.9249L71.8805 20.9791C71.8678 20.7705 71.6984 20.6064 71.4901 20.5993L66.0005 20.4192C65.8851 20.4182 65.774 20.4612 65.6944 20.5446C65.6146 20.6277 65.5744 20.7414 65.5838 20.8563L65.6655 21.8618C65.6801 22.0415 65.8119 22.1895 65.9883 22.2256L71.515 23.346C71.5418 23.3512 71.5685 23.3538 71.5956 23.3538Z" fill="#1D1D1D"/>
<path d="M57.1054 19.9649C57.6888 20.9204 58.4642 21.5102 58.8381 21.2816C59.212 21.0538 59.0422 20.0943 58.459 19.1388C57.8758 18.1833 57.1002 17.594 56.7263 17.8218C56.3524 18.0501 56.5222 19.0096 57.1054 19.9649Z" fill="#D52527"/>
<path d="M56.9444 18.1814C57.1413 18.2213 57.6444 18.5804 58.1137 19.3494C58.5973 20.1415 58.6685 20.7505 58.6198 20.9231C58.4265 20.8846 57.922 20.526 57.4506 19.7541C56.9682 18.9635 56.8963 18.3547 56.9444 18.1814ZM58.6516 21.7354C58.7976 21.7354 58.9313 21.6989 59.0487 21.6268C59.2416 21.5096 59.5443 21.1956 59.4058 20.413C59.3259 19.9597 59.1122 19.4323 58.8045 18.9283C58.3652 18.2086 57.6063 17.3685 56.9127 17.3685C56.7671 17.3685 56.6335 17.4049 56.5156 17.4767C56.3229 17.5942 56.0202 17.9084 56.1585 18.6913C56.2391 19.1444 56.4526 19.6717 56.7601 20.1757C57.2 20.8952 57.9584 21.7354 58.6516 21.7354Z" fill="#1D1D1D"/>
<path d="M51.8261 18.1678C51.8261 18.1678 52.9547 22.6503 56.0916 25.2986L50.6444 25.0599L49.7681 20.2068L51.8261 18.1678Z" fill="#D52527"/>
<path d="M62.662 27.0259C63.6673 26.3069 63.1162 22.058 60.5729 17.8914C58.0297 13.7244 54.6805 11.5337 53.3149 12.1512C51.6609 12.899 52.1656 17.3587 54.7087 21.5255C57.252 25.692 60.9861 28.224 62.662 27.0259ZM52.6187 11.1659C54.7651 9.85569 58.6211 12.7118 61.4786 17.393C64.3362 22.0753 65.1136 26.8105 62.9673 28.1205C60.8207 29.4302 56.5633 26.8192 53.706 22.1374C50.8484 17.4557 50.4726 12.4758 52.6187 11.1659Z" fill="#D52527"/>
<path d="M53.8436 12.5107C55.2708 12.5107 58.0306 14.6134 60.1786 18.1323C61.3126 19.99 62.1349 22.0173 62.4948 23.8413C62.8393 25.5881 62.6157 26.4913 62.3933 26.65C62.1969 26.7905 61.9482 26.8617 61.6546 26.8617C60.129 26.8617 57.314 24.907 55.1028 21.2844C53.0986 18.0008 52.51 14.7905 52.9645 13.3166C53.0836 12.9314 53.2656 12.6812 53.5056 12.5725C53.5961 12.5314 53.71 12.5107 53.8436 12.5107ZM61.6546 27.7864C62.145 27.7864 62.5744 27.657 62.9312 27.4019C64.3581 26.3816 63.404 21.6426 60.9673 17.6508C58.5377 13.6691 55.5444 11.5862 53.8436 11.5862C53.5778 11.5862 53.3358 11.6346 53.1247 11.7302C52.6399 11.9491 52.2786 12.4036 52.0811 13.0444C51.4704 15.0253 52.3888 18.6117 54.3141 21.7662C56.4431 25.2546 59.5303 27.7864 61.6546 27.7864ZM53.8079 11.3093C55.8187 11.3093 58.8107 13.9101 61.0841 17.6339C62.4518 19.8756 63.3605 22.168 63.6419 24.0884C63.909 25.9109 63.5839 27.2025 62.7261 27.726C62.433 27.905 62.0785 27.9957 61.6717 27.9957C59.7593 27.9957 56.5443 25.9008 54.1006 21.8965C52.7702 19.7168 51.9338 17.3899 51.7462 15.345C51.5749 13.4763 51.9806 12.0968 52.8597 11.5606C53.1324 11.3938 53.4514 11.3093 53.8079 11.3093ZM61.6717 28.9199C62.2507 28.9199 62.7675 28.7837 63.2079 28.515C64.4018 27.7866 64.8807 26.1667 64.5565 23.9545C64.2573 21.9137 63.3044 19.4979 61.873 17.1524C59.3636 13.0415 56.1978 10.3848 53.8079 10.3848C53.2792 10.3848 52.798 10.5149 52.378 10.7714C51.1691 11.5092 50.618 13.1637 50.8254 15.4296C51.026 17.6123 51.9087 20.0802 53.3114 22.3783C55.6621 26.2298 59.1 28.9199 61.6717 28.9199Z" fill="#1D1D1D"/>
<path d="M45.4779 35.7797C45.4779 35.7797 46.716 36.9395 47.4216 36.5942C49.3267 35.6629 46.4625 34.0239 46.4625 34.0239" fill="#DFBA76"/>
<path d="M47.1322 37.2344C47.318 37.2344 47.5009 37.1984 47.6755 37.1129C48.4614 36.7291 48.6406 36.2096 48.6526 35.8418C48.6901 34.6923 47.0742 33.7081 46.7496 33.5223C46.4729 33.3638 46.1201 33.4601 45.9613 33.7368C45.803 34.0137 45.899 34.3667 46.176 34.5255C46.8639 34.921 47.5063 35.5425 47.4976 35.804C47.4958 35.858 47.3915 35.9656 47.1674 36.0752C47.0157 36.1492 46.3606 35.815 45.8727 35.3584C45.6397 35.1399 45.2743 35.1522 45.0561 35.3845C44.8376 35.6175 44.8498 35.9832 45.0828 36.2014C45.294 36.3994 46.2389 37.2344 47.1322 37.2344Z" fill="#1D1D1D"/>
<path d="M45.5046 32.8928C45.5046 32.8928 43.9572 33.5075 45.3329 35.8398L46.4626 34.024L45.5046 32.8928Z" fill="#C9B697"/>
<path d="M45.9638 34.0607L45.369 35.0162C45.1642 34.5187 45.114 34.0945 45.2251 33.7702C45.2758 33.6217 45.3552 33.5116 45.432 33.4329L45.9638 34.0607ZM45.3326 36.2446C45.4724 36.2446 45.6023 36.1725 45.6758 36.0537L46.8065 34.2378C46.8991 34.0884 46.8852 33.8965 46.7715 33.7624L45.8132 32.6317C45.7009 32.4992 45.5168 32.4527 45.3552 32.5173C45.2894 32.5431 44.7046 32.7933 44.4601 33.5078C44.2226 34.2 44.3995 35.0538 44.9843 36.0455C45.0562 36.1674 45.1863 36.243 45.3279 36.2446H45.3326Z" fill="#1D1D1D"/>
<path d="M48.6642 30.8265C48.6642 30.8265 51.0264 33.2688 50.3826 35.4739C50.3826 35.4739 49.538 36.5282 47.8179 36.2614C46.287 36.0244 48.6306 33.4081 48.6306 33.4081C48.6306 33.4081 47.1227 34.016 46.2203 33.4229C45.3179 32.8298 47.1492 31.059 48.6642 30.8265Z" fill="#DFBA76"/>
<path d="M50.018 35.2741C49.8585 35.4348 49.3147 35.9005 48.3639 35.9005C48.2073 35.9005 48.0445 35.8871 47.8799 35.862C47.8096 35.851 47.7237 35.8268 47.7117 35.7937C47.6015 35.4853 48.2651 34.4224 48.9319 33.6781C49.0575 33.5379 49.0698 33.33 48.9619 33.1759C48.8537 33.0218 48.6538 32.9627 48.4795 33.0331C48.4741 33.0355 47.858 33.2781 47.2288 33.2781C46.9023 33.2781 46.6373 33.2137 46.4424 33.085C46.4001 33.0571 46.3696 33.0371 46.3931 32.9286C46.511 32.3865 47.5604 31.5109 48.5176 31.2687C48.9887 31.8139 50.425 33.6445 50.018 35.2741ZM48.3639 36.7092C49.8937 36.7092 50.6662 35.7667 50.6984 35.7267C50.7315 35.6851 50.7562 35.6379 50.771 35.5872C51.4723 33.1846 49.0578 30.6524 48.9544 30.5455C48.8635 30.4513 48.7322 30.4079 48.6026 30.4269C47.3253 30.623 45.8115 31.7986 45.6027 32.7562C45.5127 33.1703 45.6565 33.5367 45.9982 33.7608C46.3275 33.9773 46.7416 34.0873 47.2288 34.0873C47.3535 34.0873 47.4763 34.08 47.5954 34.068C47.1555 34.7071 46.7491 35.5043 46.95 36.0657C47.0312 36.2933 47.237 36.581 47.7561 36.6613C47.9614 36.6933 48.1659 36.7092 48.3639 36.7092Z" fill="#1D1D1D"/>
<path d="M40.7045 58.8613C40.7045 58.8613 41.1831 68.1224 37.5975 72.4272H32.661C32.661 72.4272 32.7467 66.943 32.5459 63.2958" fill="#C9B697"/>
<path d="M32.6609 73.0051H37.5976C37.7691 73.0051 37.9319 72.9288 38.0418 72.797C41.7294 68.3691 41.3012 59.2188 41.2812 58.8315C41.2648 58.5128 40.9933 58.2692 40.6746 58.2842C40.3558 58.3007 40.1108 58.5722 40.1273 58.8907C40.132 58.9799 40.5376 67.6806 37.3205 71.8498H33.2455C33.2613 70.3315 33.2838 66.1903 33.1224 63.2642C33.1051 62.9457 32.8321 62.7014 32.5136 62.719C32.1954 62.7366 31.9513 63.0091 31.9687 63.3278C32.1665 66.9126 32.084 72.3639 32.0833 72.4186C32.081 72.5732 32.1406 72.7226 32.2492 72.8327C32.3579 72.9431 32.5064 73.0051 32.6609 73.0051Z" fill="#1D1D1D"/>
<path d="M38.5012 63.7244C38.5012 63.7244 39.3228 63.8228 40.1075 63.5858Z" fill="#1D1D1D"/>
<path d="M38.9261 64.3218C39.281 64.3218 39.7815 64.2877 40.2745 64.1388C40.5799 64.0467 40.7527 63.7245 40.6609 63.4189C40.5684 63.1133 40.2459 62.9409 39.9405 63.033C39.2901 63.2293 38.5773 63.1516 38.57 63.1504C38.2534 63.1138 37.9657 63.3386 37.9276 63.6557C37.8898 63.972 38.1157 64.26 38.4324 64.2978C38.4497 64.2997 38.6407 64.3218 38.9261 64.3218Z" fill="#1D1D1D"/>
<path d="M40.0571 37.2862C40.0571 37.2862 44.8334 46.4919 42.6762 54.9659C42.2358 56.6956 35.9519 59.1254 35.9951 57.893C36.0383 56.6606 36.6539 47.8467 34.0867 40.098C34.0867 40.098 37.6883 39.3663 40.0571 37.2862Z" fill="#D52527"/>
<path d="M39.8497 38.1961C40.8522 40.4068 43.8718 47.9265 42.1163 54.8233C41.8619 55.8218 38.0362 57.6398 36.5837 57.651C36.5851 57.6292 36.5858 57.6069 36.5867 57.5834C36.9618 49.5373 35.8809 43.9352 34.8258 40.5132C35.8781 40.2314 38.0557 39.5321 39.8497 38.1961ZM36.5703 58.8066C38.2765 58.8064 42.7869 56.8722 43.2362 55.1082C44.3815 50.6086 43.5944 45.9286 42.7324 42.7953C41.8025 39.4144 40.6199 37.1164 40.5698 37.0201C40.4879 36.8625 40.3382 36.7514 40.1637 36.7185C39.9894 36.6854 39.8093 36.7349 39.6756 36.8519C37.4549 38.8026 34.0059 39.5248 33.9716 39.5319C33.8095 39.565 33.6695 39.6655 33.5866 39.8083C33.5042 39.9516 33.4865 40.1228 33.5382 40.2795C34.6175 43.5371 35.8222 49.1737 35.4325 57.5296C35.4257 57.6757 35.4206 57.7908 35.4177 57.873C35.4095 58.1081 35.4917 58.3282 35.6505 58.4924C35.8546 58.7038 36.1553 58.8066 36.5703 58.8066Z" fill="#1D1D1D"/>
<path d="M15.7996 61.9143C15.7996 61.9143 14.3994 61.841 13.5889 61.0673Z" fill="#1D1D1D"/>
<path d="M15.7998 62.55C16.1359 62.55 16.4166 62.2875 16.4342 61.9481C16.4525 61.5978 16.1845 61.2995 15.8345 61.2801C15.5085 61.261 14.5471 61.1034 14.0278 60.6074C13.7737 60.3652 13.3716 60.3746 13.1289 60.6283C12.8872 60.8824 12.8962 61.2847 13.1503 61.5271C14.1037 62.4373 15.5989 62.5404 15.7662 62.5493C15.7777 62.5498 15.789 62.55 15.7998 62.55Z" fill="#1D1D1D"/>
<path d="M34.1464 62.7802C34.1464 62.7802 32.3787 63.4802 29.247 63.5537Z" fill="#1D1D1D"/>
<path d="M29.2464 64.1318C29.2513 64.1318 29.2558 64.1318 29.2603 64.1316C32.4584 64.0564 34.2827 63.3478 34.359 63.3177C34.6557 63.2001 34.8011 62.8642 34.6834 62.5678C34.5664 62.2713 34.231 62.1264 33.9349 62.2427C33.9055 62.2542 32.1949 62.9069 29.233 62.9765C28.914 62.984 28.6615 63.2487 28.6691 63.5674C28.6761 63.8819 28.934 64.1318 29.2464 64.1318Z" fill="#1D1D1D"/>
<path d="M20.9362 40.8191C20.9362 40.8191 19.944 44.3465 22.6809 44.8426C26.7199 45.5747 27.6436 40.6243 27.6436 40.6243C30.2703 40.1666 32.866 41.1054 32.866 41.1054C33.1784 47.461 30.1484 53.8343 23.1645 53.6776C15.9187 53.516 11.5297 46.4703 11.5297 46.4703C11.5297 46.4703 6.37311 39.3123 15.4733 34.1546C15.4733 34.1546 16.7767 38.3058 20.9362 40.8191Z" fill="#C9B697"/>
<path d="M23.4086 54.2578C26.0653 54.258 28.3754 53.3246 30.1041 51.5496C32.4353 49.155 33.6524 45.3378 33.4432 41.0768C33.4319 40.844 33.2816 40.6409 33.0626 40.5617C32.9508 40.5215 30.2908 39.5761 27.5441 40.0551C27.3069 40.0964 27.1197 40.2805 27.0755 40.5173C27.0708 40.5415 26.5835 43.011 25.0382 43.9957C24.3979 44.4034 23.6731 44.4974 22.8223 44.2824C21.3715 43.9158 20.9092 42.6258 20.8904 42.5709C20.7862 42.2709 20.4585 42.1089 20.1581 42.2115C19.857 42.3134 19.6947 42.6373 19.795 42.9392C19.8213 43.0178 20.4615 44.8772 22.5388 45.4028C23.701 45.6964 24.7526 45.5499 25.6637 44.9674C27.2122 43.9773 27.8873 41.9959 28.1154 41.1386C29.872 40.9239 31.5775 41.3258 32.3045 41.5343C32.4069 45.3122 31.3126 48.6517 29.2759 50.7431C27.6996 52.3626 25.6477 53.1539 23.1777 53.0999C16.338 52.9472 12.0622 46.2317 12.0197 46.1641C12.0174 46.1601 12.0143 46.1561 12.012 46.1519C11.9936 46.1237 10.1139 43.1992 10.9362 39.9928C11.4924 37.8258 13.1471 35.9961 15.8551 34.5539C16.1365 34.4041 16.2433 34.0541 16.0932 33.7722C15.9436 33.4906 15.5937 33.3842 15.3118 33.5341C12.3004 35.1381 10.4505 37.2186 9.81395 39.7187C8.88147 43.3798 10.9064 46.573 11.0431 46.7816C11.1283 46.9173 12.2426 48.663 14.2457 50.4448C16.9705 52.8683 20.05 54.1857 23.1516 54.255C23.2374 54.2569 23.3236 54.2578 23.4086 54.2578Z" fill="#1D1D1D"/>
<path d="M31.9492 40.464C31.9492 40.464 33.4515 54.0997 31.6617 59.2788C31.6617 59.2788 21.8688 61.595 12.5314 56.3952C12.5314 56.3952 10.253 55.0679 13.018 35.014C13.018 35.014 14.266 34.3312 15.8873 33.993C15.8873 33.993 19.7589 42.1011 31.9492 40.464Z" fill="#D52527"/>
<path d="M31.2152 58.7809C30.5108 58.9158 28.6712 59.2152 26.2113 59.2152C22.8389 59.2152 17.796 58.6438 12.8844 55.9304C12.6706 55.6232 11.1759 52.7626 13.5489 35.3941C13.9228 35.2159 14.6768 34.8877 15.5928 34.6543C15.9674 35.2816 16.8252 36.5321 18.331 37.7824C20.2413 39.369 23.6088 41.2603 28.8022 41.2603C29.6518 41.2603 30.5347 41.2095 31.4338 41.1097C31.6861 43.6953 32.5934 54.1991 31.2152 58.7809ZM26.2113 60.3708C29.5165 60.3708 31.7035 59.8626 31.7951 59.841C31.9874 59.7952 32.1434 59.6545 32.208 59.4673C34.0192 54.2254 32.5852 40.9629 32.5232 40.4008C32.5063 40.2463 32.4276 40.1049 32.305 40.0091C32.1826 39.9132 32.0262 39.8705 31.8726 39.8916C30.8192 40.033 29.7864 40.1047 28.8022 40.1047C19.5538 40.1047 16.4391 33.8078 16.409 33.7441C16.2941 33.504 16.0301 33.373 15.7692 33.4275C14.0835 33.7793 12.7947 34.4774 12.7406 34.507C12.58 34.5946 12.4708 34.7538 12.4456 34.9349C9.83094 53.8985 11.6275 56.5374 12.2403 56.8946C17.4011 59.7686 22.6855 60.3708 26.2113 60.3708Z" fill="#1D1D1D"/>
<path d="M33.5862 41.5813C33.5862 41.5813 34.8113 38.2911 32.6117 36.2516C30.5694 34.3589 30.5269 39.9099 30.5269 39.9099C30.5269 39.9099 30.6965 37.2419 29.3149 36.9111C27.9331 36.5809 27.6362 40.1257 28.2617 42.1316" fill="#DFBA76"/>
<path d="M28.2613 42.7095C28.3181 42.7095 28.3762 42.7008 28.4335 42.6832C28.7379 42.588 28.9079 42.2641 28.813 41.9597C28.3177 40.3703 28.5187 38.0833 29.0303 37.536C29.1057 37.455 29.1372 37.4625 29.1804 37.4728C29.7664 37.6135 29.9456 38.7574 29.9571 39.529C29.9522 39.6762 29.9499 39.804 29.9494 39.9055C29.9466 40.2183 30.1939 40.4758 30.5065 40.4873C30.8189 40.4983 31.0836 40.2585 31.1036 39.9461C31.1066 39.8947 31.113 39.7775 31.1132 39.6159C31.1271 39.2751 31.163 38.6878 31.2544 38.0929C31.4531 36.7996 31.7664 36.4572 31.8392 36.4356C31.8399 36.437 31.9576 36.433 32.2188 36.6756C34.1023 38.4215 33.0552 41.3512 33.0444 41.3808C32.9345 41.6798 33.0874 42.0119 33.3859 42.1225C33.6852 42.2329 34.0166 42.0814 34.1277 41.7829C34.1831 41.6337 35.4597 38.1042 33.0045 35.8279C32.3022 35.1773 31.7331 35.2229 31.3793 35.3756C30.8758 35.5933 30.5486 36.1847 30.3367 36.8811C30.111 36.6301 29.8211 36.4384 29.4496 36.3494C28.9796 36.2364 28.5307 36.3783 28.1859 36.7468C27.2534 37.7443 27.1644 40.5528 27.7098 42.3034C27.7866 42.5505 28.0149 42.7095 28.2613 42.7095Z" fill="#1D1D1D"/>
<path d="M33.4949 44.7234C33.4949 44.7234 33.9849 43.3012 33.6857 42.42C33.3864 41.5385 28.0394 40.8122 27.1351 40.9546C26.2306 41.0967 26.3196 43.3118 26.3196 43.3118C26.3196 43.3118 30.5751 47.2195 33.4949 44.7234Z" fill="#D52527"/>
<path d="M32.996 44.3844C32.4797 44.7839 31.8965 44.9784 31.2191 44.9784C29.3833 44.9784 27.4812 43.5304 26.8938 43.0432C26.902 42.2977 27.0711 41.6109 27.2316 41.5229C27.2407 41.5224 27.3053 41.5142 27.4556 41.5142C29.0801 41.5142 32.6341 42.177 33.1536 42.6543C33.2948 43.1565 33.1153 43.9764 32.996 44.3844ZM31.2191 46.134C32.2242 46.134 33.116 45.8073 33.8705 45.1623L33.9898 45.0602L34.041 44.9112C34.0978 44.7466 34.5854 43.2727 34.2327 42.2338C34.0887 41.8094 33.6069 41.3082 31.1275 40.8091C29.8308 40.5479 28.2862 40.3586 27.4556 40.3586C27.2858 40.3586 27.1515 40.3668 27.0453 40.3835C25.7347 40.5897 25.7166 42.6949 25.7422 43.3347L25.7521 43.5748L25.9287 43.7373C26.0356 43.835 28.5697 46.134 31.2191 46.134Z" fill="#1D1D1D"/>
<path d="M14.2825 35.1665C14.2825 35.1665 12.6649 34.0882 10.1613 37.0157C10.1613 37.0157 5.22902 43.338 14.4368 50.7278C14.4368 50.7278 28.0204 60.5705 33.1629 49.5926C33.1629 49.5926 34.7805 46.935 33.6183 44.3722C33.6183 44.3722 29.1121 45.0658 26.3387 42.7546C26.3387 42.7546 25.2984 41.5414 23.4499 44.1411C23.4499 44.1411 21.152 43.912 20.5745 42.6411C20.5745 42.6411 17.5182 36.0915 14.2825 35.1665Z" fill="white"/>
<path d="M33.2433 44.9958C33.9581 47.134 32.6829 49.2697 32.6691 49.2923C32.6585 49.3101 32.6484 49.3284 32.6395 49.3477C31.1292 52.5719 28.6951 54.2067 25.4049 54.2064C20.3975 54.2064 15.0584 50.461 14.7862 50.267C11.2026 47.3872 9.34777 44.2461 9.42176 41.1828C9.47555 38.9669 10.5208 37.5013 10.6117 37.3775C11.9756 35.7881 12.9844 35.5501 13.465 35.5501C13.7593 35.5501 13.9317 35.6328 13.9683 35.6521C14.0217 35.6908 14.0583 35.7033 14.1238 35.7225C16.5701 36.4211 19.2315 41.1299 20.0506 42.8854C20.7437 44.41 23.1233 44.6891 23.3925 44.7163C23.5987 44.7365 23.8004 44.6449 23.9207 44.476C24.8363 43.1887 25.4263 43.0494 25.6374 43.0494C25.8007 43.0494 25.8989 43.1299 25.8998 43.1307C25.9209 43.1548 25.9442 43.1779 25.9686 43.1983C27.8028 44.7267 30.2857 45.0475 32.0462 45.0475C32.5394 45.0475 32.9526 45.0217 33.2433 44.9958ZM25.4049 55.3618C29.1738 55.3621 31.956 53.5126 33.6739 49.8635C33.8665 49.534 35.3638 46.8234 34.1446 44.1336C34.0377 43.8978 33.7866 43.7613 33.5308 43.8012C33.5247 43.8022 32.9227 43.8919 32.0462 43.8919C30.4844 43.8919 28.2975 43.6201 26.7306 42.329C26.6023 42.2019 26.2303 41.894 25.6374 41.894C24.8433 41.894 24.0215 42.4401 23.1912 43.5191C22.533 43.3972 21.3997 43.0614 21.1003 42.4021C20.9692 42.1216 17.9319 35.6845 14.5112 34.632C14.3465 34.5441 13.9888 34.3947 13.465 34.3947C12.6335 34.3947 11.3093 34.7839 9.72217 36.64C9.71654 36.6465 9.71113 36.6531 9.70573 36.6602C9.65054 36.7309 8.35587 38.4197 8.26873 41.0816C8.18934 43.4982 9.13262 47.2115 14.0752 51.1781C14.0823 51.1842 14.0902 51.1899 14.0975 51.1955C14.3322 51.3656 19.9113 55.3616 25.4049 55.3618Z" fill="#1D1D1D"/>
<path d="M22.6402 46.1826C22.8436 46.1826 23.0404 46.0755 23.1459 45.8853C23.4284 45.3763 24.0391 44.3268 24.045 44.3163C24.2056 44.0403 24.1119 43.6865 23.8364 43.5259C23.5607 43.3657 23.2067 43.4592 23.0465 43.7349C23.0209 43.7786 22.4241 44.8053 22.1359 45.3244C21.9808 45.6032 22.0814 45.9548 22.3604 46.1098C22.449 46.1591 22.5455 46.1826 22.6402 46.1826Z" fill="#1D1D1D"/>
<path d="M14.1638 38.8496C12.4952 38.8118 11.112 40.1342 11.0749 41.8042C11.0368 43.4732 12.3583 44.8574 14.0273 44.895C15.6955 44.9328 17.0784 43.6102 17.1163 41.9409C17.1541 40.2711 15.8324 38.8872 14.1638 38.8496ZM14.0292 44.7921C12.4163 44.7557 11.1411 43.4201 11.1771 41.8065C11.2135 40.1922 12.5481 38.9121 14.1615 38.9487C15.7746 38.9851 17.0498 40.324 17.0136 41.9383C16.977 43.5524 15.6429 44.8285 14.0292 44.7921Z" fill="#D12527"/>
<path d="M12.9623 42.1238C12.9407 42.0326 12.9306 41.9368 12.9327 41.8424C12.9412 41.4821 13.1143 41.1654 13.3719 40.9613C13.3257 40.9165 13.2242 40.8589 13.0875 40.9468C13.0675 40.9585 13.0398 40.962 13.0161 40.9531C13.0123 40.9491 12.8362 40.8744 12.6985 41.0057C12.6422 41.0597 12.6217 41.0987 12.6008 41.134C12.5719 41.1967 12.539 41.2434 12.4512 41.2888C12.4928 41.3806 12.4874 41.4363 12.4735 41.5072C12.4648 41.5464 12.4559 41.5901 12.466 41.6653C12.4935 41.8558 12.6743 41.9077 12.6821 41.9079C12.7056 41.9121 12.7253 41.9326 12.7361 41.9563C12.7887 42.104 12.8986 42.1263 12.9623 42.1238ZM15.25 42.5909C15.2972 42.43 15.212 42.349 15.1575 42.3157C14.9905 42.7159 14.6001 42.9999 14.1484 43.0252C14.1628 43.0851 14.2119 43.1892 14.3702 43.1967C14.3979 43.1972 14.4171 43.2141 14.4284 43.2336C14.4324 43.2413 14.5318 43.406 14.7218 43.379C14.7972 43.3686 14.8371 43.3498 14.8733 43.331C14.9372 43.3007 14.9893 43.2782 15.0877 43.296C15.106 43.1976 15.1464 43.1551 15.1946 43.1081C15.2272 43.0774 15.2597 43.0468 15.2965 42.9801C15.3874 42.812 15.2681 42.663 15.2646 42.659C15.2451 42.6384 15.2416 42.6149 15.25 42.5909ZM13.0065 42.2753C12.9498 42.3051 12.8695 42.3868 12.909 42.5421C12.9167 42.562 12.9083 42.5893 12.8916 42.609C12.8883 42.613 12.7619 42.7528 12.8449 42.9289C12.8791 42.9968 12.9102 43.0292 12.9372 43.0574C12.9874 43.11 13.022 43.1542 13.0393 43.254C13.1342 43.2397 13.1894 43.2648 13.2519 43.2979C13.2871 43.3184 13.3266 43.3395 13.4008 43.3529C13.5906 43.3851 13.6928 43.2286 13.697 43.2209C13.7095 43.2014 13.7332 43.1861 13.7574 43.1868C13.9192 43.1828 13.973 43.0844 13.9904 43.0217C13.5363 42.9801 13.1591 42.6825 13.0065 42.2753ZM15.1157 41.8915C15.1286 41.3259 14.6802 40.8563 14.1146 40.8434C13.5493 40.8307 13.0762 41.2791 13.0635 41.845C13.0506 42.4113 13.5028 42.8805 14.0683 42.893C14.6337 42.9059 15.103 42.4571 15.1157 41.8915ZM14.2903 41.1208L14.3199 41.0302L14.3737 41.1107L14.4644 41.1126L14.4078 41.1828L14.4334 41.2744L14.3472 41.2406L14.2706 41.2944L14.2727 41.1995L14.1992 41.1424L14.2903 41.1208ZM13.8703 42.0136L14.3098 42.0237C14.3253 42.0239 14.3371 42.0359 14.3368 42.0519L14.3356 42.0836C14.3354 42.0993 14.3234 42.1148 14.3075 42.1146L13.8682 42.1047C13.8525 42.1043 13.8412 42.0883 13.8419 42.0723L13.8424 42.0406C13.8429 42.0249 13.8546 42.0131 13.8703 42.0136ZM13.8687 41.911L13.8699 41.8792C13.8699 41.8633 13.8863 41.8518 13.9018 41.852L14.2854 41.8609C14.3011 41.8612 14.3169 41.8734 14.3166 41.8893L14.3159 41.9208C14.3152 41.9363 14.2992 41.9523 14.2833 41.9518L13.8999 41.9431C13.884 41.9429 13.8682 41.9267 13.8687 41.911ZM14.3382 41.7907L13.852 41.7797C13.8365 41.7792 13.8208 41.7632 13.8213 41.7472L13.8215 41.7158C13.8224 41.6998 13.8382 41.6883 13.8541 41.6888L14.3403 41.6996C14.3561 41.6998 14.3718 41.7125 14.3713 41.728L14.3709 41.7599C14.3704 41.7757 14.354 41.7909 14.3382 41.7907ZM13.8271 42.1754L14.3453 42.1867C14.3612 42.1872 14.3728 42.1992 14.3723 42.2149L14.3718 42.2466C14.3713 42.2626 14.3591 42.2778 14.3434 42.2776L13.8255 42.2661C13.8095 42.2659 13.7985 42.2497 13.7985 42.2339L13.7992 42.202C13.7992 42.186 13.8116 42.1745 13.8271 42.1754ZM14.3443 41.5373C14.3601 41.538 14.3753 41.5504 14.3753 41.5657L14.3749 41.5979C14.3737 41.6134 14.3577 41.6289 14.3422 41.6286L13.856 41.6176C13.8398 41.6174 13.8245 41.6009 13.825 41.5847L13.826 41.5532C13.826 41.5377 13.8419 41.5265 13.8581 41.5267L14.3443 41.5373ZM13.856 41.0992L13.9131 41.0215L13.9382 41.1126L14.0291 41.1389L13.9521 41.1922L13.9502 41.2869L13.8765 41.23L13.7886 41.2601L13.8187 41.1697L13.7646 41.0969L13.856 41.0992ZM13.7242 42.3629C13.7247 42.3469 13.7407 42.3351 13.7564 42.3354L14.4087 42.3507C14.4249 42.3509 14.4399 42.3629 14.4397 42.3788L14.439 42.4108C14.4385 42.4263 14.4225 42.4418 14.4068 42.4418L13.7543 42.4272C13.739 42.4263 13.7233 42.4105 13.7238 42.3943L13.7242 42.3629ZM13.6773 42.5238C13.6775 42.5083 13.6895 42.4965 13.7055 42.497L14.4526 42.5139C14.4686 42.5141 14.4803 42.5261 14.4799 42.5418L14.4792 42.5736C14.4789 42.5893 14.4665 42.6053 14.4507 42.6048L13.7031 42.5879C13.6878 42.5876 13.6759 42.5714 13.6766 42.5552L13.6773 42.5238ZM13.421 41.9481L13.3473 41.8912L13.2597 41.9206L13.2895 41.8302L13.2352 41.7578L13.3266 41.7599L13.3834 41.6822L13.409 41.7738L13.4997 41.7996L13.4234 41.8529L13.421 41.9481ZM13.573 41.5401L13.4988 41.4828L13.4074 41.5121L13.4412 41.4262L13.3832 41.3496L13.4779 41.3515L13.5312 41.2737L13.5608 41.3653L13.6512 41.3952L13.5706 41.4489L13.573 41.5401ZM14.5071 42.7363C14.5066 42.7525 14.4944 42.768 14.4789 42.7676L13.6681 42.7495C13.6521 42.749 13.6411 42.7328 13.6411 42.7168L13.6416 42.6891C13.6425 42.6694 13.6543 42.6579 13.67 42.6581L14.4806 42.6767C14.4965 42.6771 14.5083 42.6891 14.5078 42.7086L14.5071 42.7363ZM14.5644 41.4158L14.656 41.3902L14.6896 41.3003L14.7392 41.3804L14.8345 41.3822L14.7735 41.4562L14.8031 41.5441L14.7131 41.5102L14.6363 41.564L14.6422 41.4734L14.5644 41.4158ZM14.6978 41.8264L14.789 41.8046L14.8186 41.7146L14.8723 41.7952L14.9635 41.7966L14.9062 41.8668L14.932 41.9586L14.8458 41.925L14.7692 41.9788L14.7716 41.8837L14.6978 41.8264ZM14.1177 40.7088C14.3432 40.714 14.5548 40.7866 14.7302 40.9052C14.7551 40.846 14.7819 40.7283 14.6534 40.6222C14.6342 40.6062 14.6269 40.5818 14.6278 40.5583C14.6311 40.5505 14.6478 40.3607 14.4799 40.2698C14.4134 40.2327 14.3699 40.228 14.3267 40.2193C14.2553 40.21 14.2004 40.1923 14.1313 40.1235C14.0578 40.1893 14.0026 40.2038 13.9354 40.2102C13.8915 40.217 13.848 40.2203 13.7799 40.2541C13.6082 40.3373 13.6153 40.5273 13.6153 40.535C13.6186 40.5592 13.6103 40.5825 13.5904 40.598C13.4577 40.6983 13.4783 40.8131 13.5011 40.8733C13.6813 40.7664 13.8922 40.7041 14.1177 40.7088ZM14.1444 39.708C12.9498 39.681 11.9594 40.6287 11.9328 41.8194C11.9058 43.014 12.8524 44.0056 14.0465 44.0324C15.2406 44.0594 16.2274 43.1121 16.2544 41.9168C16.2814 40.7265 15.3383 39.735 14.1444 39.708ZM15.9345 41.3599C15.9305 41.3637 15.9265 41.3674 15.9265 41.375C15.8612 41.4689 15.8642 41.4969 15.8748 41.5565C15.8819 41.6 15.888 41.6636 15.8704 41.762C15.83 41.9908 15.6496 42.0733 15.5699 42.0998C15.5117 42.217 15.4316 42.2745 15.3477 42.3006C15.3975 42.3727 15.4229 42.4683 15.3964 42.5947C15.4419 42.6668 15.5331 42.8467 15.4222 43.0501C15.3759 43.1363 15.3275 43.1831 15.2956 43.2138C15.2512 43.2521 15.231 43.2711 15.22 43.3898C15.22 43.394 15.22 43.3982 15.2197 43.4017V43.4057L15.2162 43.4097L15.2115 43.4177L15.2078 43.4252L15.2073 43.4292L15.1995 43.4332L15.1953 43.437L15.1911 43.4407L15.1836 43.4447L15.1791 43.4485C15.1791 43.4485 15.1753 43.4522 15.1713 43.4522C15.1634 43.4558 15.1516 43.4558 15.1432 43.4555C15.1399 43.4555 15.1317 43.4551 15.1281 43.4513C15.0177 43.421 14.9895 43.4318 14.9379 43.4588C14.8975 43.4818 14.8376 43.5081 14.7422 43.5215C14.5123 43.5525 14.377 43.4064 14.3274 43.3381C14.1973 43.3193 14.1153 43.258 14.0658 43.1857C14.0129 43.2556 13.9279 43.3172 13.7978 43.3303C13.7444 43.3961 13.6028 43.5356 13.3745 43.495C13.2759 43.4767 13.2211 43.448 13.1821 43.4229C13.1272 43.3945 13.1037 43.3815 12.9886 43.4069C12.9607 43.4142 12.9294 43.4015 12.9139 43.3815L12.9102 43.3736L12.9064 43.3696C12.9022 43.3618 12.9026 43.3496 12.8989 43.3414C12.8979 43.2228 12.8782 43.2026 12.8362 43.1577C12.8009 43.1255 12.7587 43.0811 12.7168 42.993C12.6149 42.7847 12.7138 42.6088 12.7626 42.5388C12.7385 42.4117 12.7716 42.3171 12.8249 42.2475C12.7427 42.2175 12.6609 42.1569 12.6121 42.0364C12.5334 42.0073 12.3535 41.9159 12.323 41.6857C12.3096 41.5864 12.323 41.5236 12.3319 41.4802C12.341 41.421 12.3497 41.3898 12.2884 41.2932C12.2809 41.281 12.2774 41.2653 12.2774 41.2493C12.2781 41.246 12.2781 41.246 12.2781 41.2415V41.2376C12.2783 41.2336 12.2821 41.2298 12.2821 41.226C12.2908 41.2063 12.3065 41.1946 12.3225 41.1868C12.4343 41.1464 12.4465 41.1227 12.4756 41.0677C12.4963 41.0287 12.5254 40.9696 12.5978 40.9003C12.7638 40.7417 12.9609 40.7819 13.0393 40.8075C13.1558 40.7469 13.2582 40.7488 13.3409 40.7746C13.3426 40.6877 13.3766 40.5933 13.4736 40.5082C13.4753 40.4216 13.5075 40.224 13.7193 40.1261C13.8074 40.0808 13.8708 40.074 13.9185 40.0676C13.9739 40.0606 14.0059 40.0573 14.0792 39.968L14.0829 39.9685C14.0831 39.9638 14.0871 39.9603 14.0909 39.9565H14.0949C14.0954 39.9528 14.0991 39.9528 14.1031 39.9485H14.1069L14.1151 39.945H14.1228L14.1308 39.9415L14.1348 39.9417L14.1428 39.942L14.1468 39.9457C14.1588 39.9462 14.1705 39.9502 14.1818 39.9586C14.186 39.9624 14.1898 39.9706 14.1938 39.9746C14.2631 40.0632 14.2945 40.0681 14.3497 40.0768C14.3969 40.0859 14.4601 40.0956 14.5456 40.1449C14.7488 40.2522 14.772 40.4505 14.7742 40.5378C14.8672 40.6273 14.897 40.7227 14.8949 40.8096C14.9785 40.7838 15.0814 40.7861 15.1946 40.8521C15.278 40.83 15.4727 40.7988 15.635 40.9688C15.7048 41.0421 15.7308 41.0978 15.7499 41.1417C15.7724 41.1936 15.7872 41.2221 15.8931 41.2639C15.8976 41.2674 15.9051 41.2676 15.9091 41.2721C15.9246 41.2803 15.9324 41.2965 15.9356 41.3122V41.316L15.9394 41.3242V41.332C15.9392 41.34 15.9389 41.3517 15.9345 41.3599ZM15.6179 41.2019C15.5991 41.1619 15.584 41.1222 15.53 41.0694C15.3945 40.9277 15.2188 40.9954 15.211 40.9991C15.1911 41.0067 15.1634 41.0057 15.1436 40.9898C15.0034 40.8956 14.8994 40.9562 14.851 40.9945C15.0995 41.2138 15.2543 41.538 15.2465 41.8943C15.2442 41.9892 15.2301 42.0838 15.2082 42.1705C15.2712 42.1764 15.3865 42.167 15.4494 42.0134C15.4577 41.9906 15.4776 41.9748 15.5016 41.9676C15.5096 41.9678 15.6968 41.9281 15.7325 41.7353C15.7421 41.6603 15.7388 41.6204 15.7322 41.577C15.7217 41.5053 15.7193 41.4499 15.7647 41.3639C15.6785 41.3144 15.6482 41.2662 15.6179 41.2019Z" fill="#D12527"/>
<path d="M12.2521 43.2441L12.1438 43.4907L12.247 43.489L12.3719 43.3887L12.4295 43.4653L12.0187 43.793L11.9609 43.7199L12.1384 43.5736L11.8533 43.583L11.7798 43.4947L12.045 43.4883L12.1831 43.155L12.2521 43.2441Z" fill="#D12527"/>
<path d="M11.8927 43.0613L12.0806 42.9587L12.1264 43.0435L11.938 43.1457L11.7341 43.4221L11.685 43.3303L11.8274 43.1513L11.5972 43.1736L11.5479 43.0818L11.8927 43.0613Z" fill="#D12527"/>
<path d="M11.9459 42.6314C11.9793 42.7272 11.9332 42.8289 11.8299 42.8623L11.5032 42.9736L11.4736 42.8818L11.7963 42.7742C11.8522 42.7557 11.8768 42.7129 11.8623 42.661C11.8433 42.6131 11.8003 42.5924 11.7406 42.6107L11.4179 42.7223L11.3881 42.6307L11.715 42.5231C11.8186 42.486 11.9161 42.5396 11.9459 42.6314Z" fill="#D12527"/>
<path d="M11.8274 42.0981L11.5328 42.3329L11.8551 42.2928L11.8687 42.3844L11.3445 42.4551L11.3346 42.3679L11.6287 42.1371L11.3113 42.1774L11.2975 42.0823L11.8173 42.0149L11.8274 42.0981Z" fill="#D12527"/>
<path d="M11.7789 41.6224C11.8212 41.6623 11.8322 41.7107 11.8313 41.7621C11.8259 41.8171 11.805 41.8603 11.7646 41.8913C11.7082 41.9371 11.645 41.9317 11.5544 41.9259C11.4633 41.9197 11.3961 41.9181 11.346 41.8657C11.3113 41.8291 11.2963 41.7854 11.2974 41.7302C11.3042 41.6189 11.3886 41.5655 11.4757 41.5561L11.4696 41.6546C11.4219 41.6614 11.3935 41.6884 11.3886 41.7358C11.3881 41.7635 11.3994 41.7837 11.4146 41.8C11.4339 41.8199 11.4576 41.8246 11.56 41.8312C11.6589 41.8371 11.6869 41.8335 11.7068 41.8185C11.727 41.803 11.7395 41.7835 11.7402 41.7558C11.7406 41.7281 11.7334 41.7044 11.7136 41.6879C11.6948 41.6717 11.6749 41.6635 11.6472 41.663L11.6277 41.6621L11.6216 41.749L11.5349 41.7473L11.5466 41.5611L11.6216 41.5632C11.6967 41.5686 11.7442 41.5855 11.7789 41.6224Z" fill="#D12527"/>
<path d="M11.7037 41.2763L11.6814 41.3702L11.8745 41.4146L11.8486 41.509L11.3411 41.3824L11.3852 41.1971C11.4108 41.0992 11.4989 41.0574 11.5856 41.0794C11.672 41.101 11.7296 41.1774 11.7037 41.2763ZM11.4749 41.2272L11.4538 41.3138L11.5912 41.3446L11.6131 41.2582C11.6215 41.2187 11.6027 41.1828 11.5595 41.1736C11.52 41.1649 11.4841 41.1837 11.4749 41.2272Z" fill="#D12527"/>
<path d="M12.0262 40.8244C12.045 40.8721 12.0478 40.9193 12.0266 40.9707C12.002 41.0217 11.9656 41.048 11.9181 41.067C11.8502 41.0896 11.7915 41.0605 11.7091 41.0231C11.6269 40.9895 11.5644 40.9602 11.5379 40.8963C11.5153 40.8484 11.5162 40.8007 11.5374 40.7497C11.5621 40.6988 11.5985 40.668 11.6466 40.6534C11.714 40.6311 11.773 40.6565 11.8554 40.6938C11.9374 40.7312 11.9999 40.7563 12.0262 40.8244ZM11.672 40.7446C11.652 40.7485 11.6316 40.7638 11.6236 40.7878C11.6114 40.8108 11.6104 40.8347 11.6219 40.8547C11.6332 40.8827 11.6569 40.8953 11.7467 40.9367C11.8406 40.9785 11.8641 40.9827 11.8923 40.9754C11.912 40.9724 11.9325 40.9564 11.9409 40.9327C11.9529 40.9057 11.9496 40.882 11.9421 40.866C11.931 40.838 11.9076 40.8214 11.8176 40.7798C11.7236 40.742 11.7002 40.7335 11.672 40.7446Z" fill="#D12527"/>
<path d="M12.2563 40.4653C12.2664 40.5168 12.2617 40.5607 12.229 40.6072C12.1961 40.6542 12.156 40.6767 12.1045 40.6835C12.0329 40.6939 11.9826 40.6575 11.9049 40.6042C11.8307 40.5548 11.7759 40.5177 11.7621 40.4461C11.7508 40.3984 11.7562 40.3507 11.7886 40.304C11.8215 40.2575 11.8617 40.2349 11.9129 40.2279C11.9847 40.2178 12.0352 40.2544 12.1135 40.3075C12.187 40.3608 12.2417 40.3975 12.2563 40.4653ZM11.9227 40.3235C11.899 40.3228 11.8793 40.3336 11.8628 40.3573C11.8506 40.3773 11.8457 40.4045 11.8532 40.4247C11.8607 40.4524 11.876 40.4689 11.9617 40.5259C12.0435 40.583 12.0672 40.5955 12.0949 40.5922C12.1186 40.5889 12.1386 40.5774 12.155 40.5581C12.1673 40.5342 12.1722 40.5107 12.1644 40.4909C12.1569 40.463 12.1421 40.443 12.0557 40.3857C11.9744 40.3282 11.9507 40.3202 11.9227 40.3235Z" fill="#D12527"/>
<path d="M12.5742 40.1993L12.3187 40.1223L12.3288 40.2216L12.4408 40.3346L12.3722 40.4004L12.0046 40.0321L12.0695 39.9621L12.2318 40.1244L12.1909 39.8421L12.2757 39.7573L12.3095 40.0229L12.6557 40.1221L12.5742 40.1993Z" fill="#D12527"/>
<path d="M13.0405 39.8775L12.7084 39.6955L12.8723 39.9764L12.7882 40.022L12.5254 39.5689L12.5973 39.5268L12.9256 39.7084L12.7657 39.4275L12.8462 39.3819L13.1131 39.8352L13.0405 39.8775Z" fill="#D12527"/>
<path d="M13.4558 39.7046L13.3981 39.628L13.2346 39.6877L13.236 39.7826L13.1449 39.8164L13.1376 39.2621L13.2097 39.236L13.5512 39.675L13.4558 39.7046ZM13.2257 39.3948L13.2329 39.5968L13.3447 39.5557L13.2257 39.3948Z" fill="#D12527"/>
<path d="M13.6965 39.2113L13.7698 39.6407L13.6749 39.6541L13.6014 39.2292L13.4741 39.2498L13.4604 39.1585L13.806 39.099L13.8238 39.1906L13.6965 39.2113Z" fill="#D12527"/>
<path d="M13.9484 39.6208L13.9204 39.0935L14.0155 39.0919L14.0437 39.6147L13.9484 39.6208Z" fill="#D12527"/>
<path d="M14.428 39.5802C14.3918 39.6145 14.3477 39.6296 14.2929 39.6242C14.2373 39.6235 14.1943 39.5981 14.1633 39.5579C14.121 39.502 14.1266 39.4349 14.1327 39.3437C14.1386 39.2528 14.1445 39.1892 14.1969 39.1394C14.2373 39.1051 14.281 39.0898 14.3359 39.0955C14.3918 39.0962 14.4308 39.1208 14.4616 39.1615C14.5074 39.2176 14.502 39.2848 14.4916 39.3757C14.4858 39.4626 14.4806 39.5297 14.428 39.5802ZM14.3848 39.219C14.3733 39.199 14.3538 39.1866 14.3261 39.1859C14.3026 39.1814 14.2784 39.1929 14.2626 39.2082C14.2417 39.2275 14.2375 39.2514 14.2276 39.3536C14.2213 39.4527 14.2248 39.4769 14.2403 39.5009C14.2514 39.5206 14.2748 39.533 14.2986 39.5337C14.3263 39.5382 14.3463 39.5267 14.3622 39.5112C14.3824 39.4917 14.3909 39.4682 14.3975 39.366C14.4078 39.2672 14.4036 39.2394 14.3848 39.219Z" fill="#D12527"/>
<path d="M14.8241 39.7276L14.7217 39.361L14.6355 39.672L14.5455 39.6459L14.6829 39.1426L14.7659 39.1644L14.868 39.5268L14.9547 39.2163L15.0451 39.2419L14.9028 39.749L14.8241 39.7276Z" fill="#D12527"/>
<path d="M15.2357 39.9071L15.2498 39.8124L15.0934 39.7337L15.0281 39.8035L14.9381 39.7577L15.3313 39.3668L15.3973 39.4037L15.3257 39.9526L15.2357 39.9071ZM15.2996 39.5247L15.1584 39.6677L15.2679 39.7217L15.2996 39.5247Z" fill="#D12527"/>
<path d="M15.3491 39.9729L15.6629 39.5527L15.7409 39.6095L15.4799 39.96L15.6587 40.0908L15.6056 40.1643L15.3491 39.9729Z" fill="#D12527"/>
<path d="M15.8492 40.4239C15.7839 40.3471 15.7856 40.2402 15.8708 40.1665L16.1332 39.9431L16.1947 40.0157L15.9361 40.2355C15.892 40.2741 15.883 40.3255 15.9178 40.3659C15.9523 40.4021 16 40.4075 16.0484 40.365L16.3063 40.1451L16.3681 40.2177L16.1059 40.4413C16.0214 40.5146 15.9145 40.5007 15.8492 40.4239Z" fill="#D12527"/>
<path d="M16.1555 40.8781L16.3405 40.5495L16.0601 40.7057L16.0148 40.6216L16.4716 40.3665L16.513 40.4426L16.3276 40.7667L16.6083 40.611L16.6541 40.6951L16.1975 40.95L16.1555 40.8781Z" fill="#D12527"/>
<path d="M16.223 41.0335L16.7139 40.847L16.7473 40.9346L16.2606 41.1221L16.223 41.0335Z" fill="#D12527"/>
<path d="M16.3339 41.3766L16.3158 41.3092L16.7851 41.0231L16.8102 41.1182L16.5021 41.2975L16.8577 41.3097L16.8828 41.405L16.3339 41.3766Z" fill="#D12527"/>
<path d="M16.3767 41.5679L16.8998 41.5242L16.9245 41.8452L16.8331 41.8551L16.8148 41.6292L16.6919 41.6381L16.7074 41.8283L16.6165 41.8382L16.601 41.644L16.4742 41.6529L16.4923 41.8828L16.4014 41.8894L16.3767 41.5679Z" fill="#D12527"/>
<path d="M16.3742 42.2131L16.5936 42.1386L16.5995 42.0712L16.39 42.051L16.3998 41.9563L16.925 42.0078L16.9048 42.1973C16.8947 42.2962 16.8182 42.3495 16.7315 42.3397C16.6563 42.3343 16.614 42.2854 16.5995 42.2375L16.3639 42.3234L16.3742 42.2131ZM16.8142 42.1835L16.8238 42.0926L16.6859 42.0773L16.6758 42.1682C16.6711 42.2119 16.6979 42.2398 16.7374 42.2448C16.7806 42.2499 16.8097 42.2225 16.8142 42.1835Z" fill="#D12527"/>
<path d="M16.3084 42.5044C16.33 42.4334 16.3624 42.3827 16.4266 42.3522L16.4724 42.429C16.4324 42.4478 16.4113 42.4867 16.3984 42.53C16.3819 42.5852 16.3965 42.6209 16.4362 42.6298C16.4557 42.6378 16.4714 42.6349 16.4834 42.6267C16.4956 42.6232 16.5038 42.6117 16.5116 42.5924L16.5372 42.5372C16.5539 42.498 16.5778 42.4708 16.6062 42.4555C16.6347 42.4405 16.6694 42.4412 16.7131 42.4503C16.8035 42.4759 16.8494 42.5558 16.8228 42.6582C16.8021 42.7251 16.7735 42.7639 16.7213 42.7944L16.6753 42.7186C16.7112 42.6993 16.7279 42.6643 16.7368 42.6324C16.75 42.5816 16.727 42.549 16.6915 42.5408C16.6791 42.5363 16.6638 42.5358 16.6518 42.5436C16.6394 42.5516 16.6272 42.5628 16.6192 42.5823L16.5983 42.6373C16.5774 42.6765 16.5574 42.6998 16.5332 42.7153C16.501 42.7341 16.4613 42.7334 16.4144 42.7202C16.3162 42.6948 16.2826 42.6025 16.3084 42.5044Z" fill="#D12527"/>
<path d="M16.2399 42.7361L16.7221 42.9411L16.6845 43.0271L16.2023 42.8267L16.2399 42.7361Z" fill="#D12527"/>
<path d="M16.4532 43.2834L16.0743 43.069L16.1237 42.9868L16.4983 43.201L16.5645 43.0878L16.6425 43.1329L16.4692 43.4382L16.3912 43.3924L16.4532 43.2834Z" fill="#D12527"/>
<path d="M16.0327 43.5034L15.8657 43.3695L15.9226 43.2913L16.0936 43.4254L16.4283 43.5048L16.3627 43.5865L16.1391 43.5254L16.2493 43.73L16.1842 43.8115L16.0327 43.5034Z" fill="#D12527"/>
<path d="M13.6203 44.5061L13.5686 44.6868L13.4902 44.6652L13.5329 44.5118L13.1637 44.4044L13.1851 44.3375L13.3659 44.3934L13.3828 44.3384L13.1705 44.2778L13.1879 44.2154L13.6945 44.361L13.6776 44.4199L13.4613 44.3596L13.4444 44.4148L13.5978 44.458C13.5978 44.458 13.629 44.4664 13.6203 44.5061Z" fill="#D12527"/>
<path d="M13.2596 44.1886L13.6765 44.3091L13.7362 44.0968L13.658 44.0749L13.645 44.1184L13.3538 44.0366L13.3669 43.9936L13.288 43.9718L13.2408 44.1489C13.2408 44.1489 13.2281 44.1806 13.2596 44.1886ZM13.6279 44.1813L13.6192 44.2208L13.324 44.1388L13.3369 44.0956L13.6279 44.1813Z" fill="#D12527"/>
<path d="M13.8677 44.5866L14.0539 44.5908L14.0551 44.5234L13.8968 44.5199L13.9038 44.2077L14.0504 44.2105L14.0518 44.1396L13.8266 44.1347L13.8176 44.5337C13.8176 44.5337 13.8125 44.5852 13.8677 44.5866Z" fill="#D12527"/>
<path d="M14.2498 44.3023L14.1748 44.3006L14.1786 44.1388L14.0997 44.1372L14.0886 44.6076L14.1678 44.6095L14.1734 44.3718L14.2486 44.3737L14.2432 44.6107L14.3221 44.6128L14.3327 44.1419L14.2537 44.1404L14.2498 44.3023Z" fill="#D12527"/>
<path d="M15.495 44.1644L15.4011 43.9838L15.329 44.022L15.4276 44.2024L15.3475 44.248L15.2484 44.0676L15.1803 44.1059L15.275 44.286L15.1834 44.3354L15.2174 44.3953L15.702 44.1334L15.6674 44.0732L15.495 44.1644Z" fill="#D12527"/>
<path d="M15.4682 43.7954L15.5859 44.0118L15.514 44.0498L15.4074 43.8534L15.0593 44.0392L15.0245 43.9793L15.4055 43.7741C15.4055 43.7741 15.4454 43.7515 15.4682 43.7954Z" fill="#D12527"/>
<path d="M14.9487 44.3856L14.5389 44.4833L14.5569 44.547L14.9194 44.464L14.9553 44.6111L15.0309 44.5892L14.9915 44.4063C14.9804 44.3746 14.9487 44.3856 14.9487 44.3856ZM14.9227 44.1319L14.8898 43.9966L14.8146 44.0145L14.8938 44.3567L14.9732 44.3386L14.9407 44.1993L15.0084 44.1813L14.9941 44.1174L14.9227 44.1319ZM14.5574 44.1784C14.5013 44.2137 14.4686 44.2719 14.4832 44.3276C14.5013 44.3995 14.5797 44.4403 14.6589 44.4225C14.7383 44.4046 14.7911 44.3309 14.7735 44.2588C14.7587 44.2031 14.7002 44.162 14.6333 44.1608L14.6295 44.1448L14.7488 44.116L14.7348 44.0481L14.6154 44.0772L14.6042 44.0377L14.5288 44.0554L14.5396 44.0953L14.4285 44.1204L14.4428 44.1881L14.5579 44.1589L14.5619 44.1784H14.5574ZM14.6114 44.2318C14.6514 44.2205 14.6904 44.2414 14.6979 44.2768C14.7049 44.3126 14.6803 44.348 14.6446 44.3548C14.6046 44.3659 14.5654 44.3452 14.5584 44.3097C14.5515 44.2738 14.5762 44.2386 14.6114 44.2318Z" fill="#D12527"/>
<path d="M12.9984 44.3572C13.0358 44.2827 12.9869 44.1827 12.8854 44.1329C12.7833 44.0833 12.6719 44.1042 12.6388 44.1749C12.6017 44.2449 12.655 44.3452 12.7525 44.395C12.854 44.4448 12.9651 44.4279 12.9984 44.3572ZM12.7811 44.3403C12.7224 44.3111 12.6884 44.2515 12.7095 44.2118C12.7295 44.1728 12.7976 44.162 12.8558 44.1916C12.9066 44.2165 12.9531 44.2736 12.9284 44.3196C12.9031 44.3668 12.8321 44.3656 12.7811 44.3403Z" fill="#D12527"/>
<path d="M12.9787 43.8344L12.7596 43.7266L12.7305 43.781L12.8951 43.8642C12.8909 43.8717 12.8785 43.8837 12.8627 43.903C12.769 43.996 12.6361 43.9535 12.6361 43.9535L12.6069 44.0077C12.886 44.1012 12.9858 43.8621 12.9858 43.8621C12.9985 43.8426 12.9787 43.8344 12.9787 43.8344ZM13.1317 43.9011L13.1025 43.9558L12.9933 43.9018L12.9602 43.9605L13.0736 44.0185L13.0527 44.0617L12.9355 44.0035L12.9062 44.0662L13.0201 44.1202L12.9865 44.1947L13.0612 44.228L13.2059 43.938L13.1317 43.9011Z" fill="#D12527"/>
<path d="M38.6095 53.791C39.2097 53.791 39.7067 54.2608 39.741 54.86C39.7586 55.1623 39.6569 55.4533 39.4553 55.6793C39.2536 55.9054 38.9764 56.0393 38.6741 56.0567C38.6521 56.0579 38.6304 56.0583 38.6086 56.0583C38.0082 56.0583 37.5112 55.5891 37.4772 54.9896C37.4596 54.6874 37.561 54.3963 37.7628 54.1699C37.9643 53.9444 38.242 53.8103 38.5442 53.7929C38.5659 53.7915 38.5877 53.791 38.6095 53.791Z" fill="#1D1D1D"/>
<path d="M38.654 50.9285C39.2543 50.9285 39.7511 51.398 39.7856 51.9977C39.8033 52.2997 39.7016 52.5908 39.5 52.8169C39.2983 53.0429 39.0209 53.177 38.7183 53.1944C38.6967 53.1956 38.6747 53.196 38.653 53.196C38.0527 53.196 37.5562 52.7268 37.5219 52.1276C37.4857 51.5033 37.9641 50.9663 38.5887 50.9306C38.6103 50.9292 38.6321 50.9285 38.654 50.9285Z" fill="#1D1D1D"/>
<path d="M38.595 48.0828C39.1954 48.0828 39.6921 48.5523 39.7264 49.1517C39.7441 49.454 39.6423 49.7448 39.4411 49.9712C39.2391 50.1972 38.9619 50.3311 38.6594 50.3485C38.6375 50.3496 38.6157 50.3501 38.5941 50.3501C37.9937 50.3501 37.4969 49.881 37.4624 49.2816C37.4265 48.6571 37.9052 48.1201 38.5297 48.0844C38.5513 48.0833 38.5732 48.0828 38.595 48.0828Z" fill="#1D1D1D"/>
<path d="M39.9949 42.1506L39.1358 42.3591L37.9644 44.0553L37.951 44.0671L39.866 45.6368L40.8496 45.398L38.8652 43.8447L39.9949 42.1506Z" fill="#1D1D1D"/>
<path d="M38.8578 41.9194C38.7991 41.9565 38.7477 42.0059 38.7078 42.0636L37.5654 43.7182C37.4778 43.8152 37.4295 43.9422 37.4313 44.0744C37.4335 44.2273 37.5032 44.3719 37.6218 44.4689L39.5367 46.0386C39.6627 46.1418 39.8304 46.1803 39.9891 46.1417L40.9722 45.9029C41.0282 45.8895 41.0806 45.8669 41.1275 45.8373C41.2436 45.7639 41.3282 45.6463 41.3583 45.5075C41.4002 45.3126 41.3274 45.1108 41.1701 44.9882L39.5648 43.7321L40.4277 42.4389C40.5463 42.2604 40.5439 42.0279 40.4209 41.8522C40.2982 41.6766 40.0805 41.5945 39.8723 41.645L39.0128 41.8537C38.9574 41.8672 38.9051 41.8895 38.8578 41.9194ZM39.1357 42.3589L39.9948 42.1505L38.8651 43.8445L40.8496 45.3977L39.866 45.6365L37.9511 44.0668L37.9645 44.055L39.1357 42.3589Z" fill="#1D1D1D"/>
<path d="M36.5433 42.9975C36.5433 42.9975 36.7633 42.9927 36.8423 43.3184L37.5367 46.1778L38.3895 45.9708L37.6035 42.7392L36.5433 42.9975Z" fill="#1D1D1D"/>
<path d="M36.2652 42.5577C36.098 42.6633 36.0004 42.8589 36.0273 43.0651C36.0521 43.255 36.1782 43.4101 36.3463 43.4787L37.0314 46.3005C37.0993 46.5797 37.3804 46.7507 37.6595 46.6835L38.512 46.4765C38.5674 46.4631 38.6196 46.4406 38.6673 46.4105C38.7342 46.3682 38.7911 46.3106 38.8334 46.2416C38.9051 46.1238 38.9272 45.9825 38.8947 45.848L38.109 42.6165C38.0763 42.483 37.9918 42.3669 37.8743 42.2953C37.7562 42.2235 37.615 42.2016 37.4808 42.2345L36.42 42.4923C36.3642 42.5059 36.3116 42.5283 36.2652 42.5577ZM36.5432 42.9977L37.6034 42.7394L38.3895 45.9709L37.5366 46.1779L36.8422 43.3186C36.7633 42.9928 36.5432 42.9977 36.5432 42.9977Z" fill="#1D1D1D"/>
<path d="M39.9949 42.1506L39.1358 42.3591L37.9644 44.0553L37.951 44.0671L39.866 45.6368L40.8496 45.398L38.8652 43.8447L39.9949 42.1506Z" fill="white"/>
<path d="M36.5433 42.9975C36.5433 42.9975 36.7633 42.9927 36.8423 43.3184L37.5367 46.1778L38.3895 45.9708L37.6035 42.7392L36.5433 42.9975Z" fill="white"/>
<path d="M43.412 42.532C43.6171 42.532 43.8158 42.4228 43.9201 42.2302C44.2196 41.6798 44.5132 41.4663 44.516 41.4642C44.7823 41.2885 44.8516 40.9324 44.6757 40.6663C44.4998 40.4002 44.1371 40.3297 43.8708 40.5057C43.8181 40.5404 43.3458 40.8674 42.9054 41.6782C42.753 41.9586 42.8565 42.3096 43.1365 42.4618C43.2244 42.5097 43.319 42.532 43.412 42.532Z" fill="#1D1D1D"/>
<path d="M36.2456 16.3458C36.2456 16.3458 35.7098 14.8383 36.4476 14.4461C37.186 14.0538 37.5369 15.15 37.5844 15.3396C37.6321 15.5289 37.7681 15.9521 37.7338 16.1292C37.6993 16.3066 37.6584 16.4926 37.1778 16.6636C36.697 16.8343 36.3426 16.742 36.2456 16.3458Z" fill="#1D1D1D"/>
<path d="M36.7539 14.4196C37.2866 14.4196 37.5264 15.3441 37.5287 15.3535C37.5374 15.3895 37.5501 15.4336 37.5635 15.483C37.6187 15.684 37.7023 15.9877 37.6774 16.1181C37.6459 16.2799 37.6131 16.4471 37.1586 16.609C37.0118 16.6611 36.8788 16.6877 36.7628 16.6877C36.5145 16.6877 36.3595 16.5679 36.3015 16.332C36.2949 16.3118 35.7894 14.8615 36.4751 14.4972C36.5716 14.4457 36.6653 14.4196 36.7539 14.4196ZM36.7628 16.803C36.8922 16.803 37.0381 16.7743 37.1971 16.7177C37.7141 16.534 37.7566 16.3156 37.7906 16.1404C37.8209 15.983 37.7366 15.6765 37.6748 15.4522C37.6612 15.4038 37.6495 15.3606 37.6405 15.3251C37.63 15.2835 37.3756 14.3043 36.7539 14.3043C36.6463 14.3043 36.534 14.3346 36.4208 14.395C35.6471 14.806 36.1688 16.3017 36.1913 16.3654C36.2597 16.6456 36.4633 16.803 36.7628 16.803Z" fill="#1D1D1D"/>
<path d="M16.3705 24.3794C16.3705 24.3794 15.2576 21.9019 16.7012 21.1923C18.1452 20.483 19.0777 23.3328 19.0777 23.3328C19.0777 23.3328 19.2766 23.745 18.641 23.9792C18.021 24.2082 16.5607 24.8193 16.3705 24.3794Z" fill="#1D1D1D"/>
<path d="M17.1612 21.1367C18.2844 21.1367 19.0154 23.3286 19.0229 23.351C19.0276 23.3625 19.0793 23.4757 19.0243 23.6098C18.9708 23.7404 18.8352 23.8463 18.6213 23.925C18.559 23.948 18.4883 23.9748 18.4113 24.0042C17.915 24.1921 17.1648 24.4767 16.7244 24.4767C16.5592 24.4767 16.4583 24.4366 16.4237 24.3565C16.4124 24.3316 15.3496 21.9208 16.7267 21.2443C16.8719 21.1727 17.0182 21.1367 17.1612 21.1367ZM16.7244 24.5925C17.1859 24.5925 17.9483 24.3032 18.4524 24.112C18.5287 24.0831 18.5994 24.0563 18.6614 24.0335C18.9081 23.9426 19.0666 23.8137 19.1324 23.6511C19.2059 23.4693 19.1328 23.3143 19.1295 23.3077C19.1021 23.2213 18.3681 21.0209 17.1612 21.0209C17.0001 21.0209 16.8366 21.0611 16.6757 21.1405C15.1988 21.866 16.2718 24.2999 16.3178 24.4032C16.372 24.5284 16.509 24.5925 16.7244 24.5925Z" fill="#1D1D1D"/>
<path d="M35.6369 14.0554C35.8739 14.0554 36.1046 13.9338 36.2345 13.7155C36.3122 13.5847 36.4374 13.4264 36.5039 13.3719C36.8402 13.2479 37.0291 12.8836 36.9297 12.5329C36.8254 12.1646 36.4423 11.9509 36.0736 12.0549C35.5641 12.1994 35.1817 12.7709 35.0403 13.0097C34.8463 13.3395 34.9558 13.7649 35.2858 13.9591C35.3959 14.0244 35.5174 14.0554 35.6369 14.0554Z" fill="#1D1D1D"/>
<path d="M17.6185 20.2954C17.8922 20.2954 18.1517 20.1319 18.2607 19.8625C18.4051 19.5076 18.2342 19.1036 17.8795 18.9594C17.8224 18.9364 16.4627 18.3966 14.7908 18.8032C14.4188 18.8939 14.1904 19.269 14.2811 19.6408C14.3718 20.0128 14.7466 20.2416 15.1187 20.1505C16.3405 19.8529 17.3479 20.2404 17.3576 20.244C17.4433 20.279 17.5314 20.2954 17.6185 20.2954Z" fill="#1D1D1D"/>
<path d="M40.3767 29.8822C41.2493 31.311 43.0076 31.8285 44.0702 31.1802C45.1324 30.5321 45.0964 28.9634 44.2234 27.5337C43.3515 26.1044 41.973 25.3554 40.9104 26.0034C39.8483 26.6517 39.5046 28.452 40.3767 29.8822Z" fill="#D52527"/>
<path d="M41.7455 26.1149C42.4894 26.1149 43.3256 26.7277 43.9276 27.7144C44.6228 28.8536 44.8333 30.3084 43.8893 30.8844C43.6478 31.0316 43.3472 31.1101 43.0205 31.1101C42.1166 31.1101 41.195 30.5569 40.6731 29.7015C39.8719 28.3892 40.2334 26.8228 41.0912 26.2995C41.2915 26.1771 41.5118 26.1149 41.7455 26.1149ZM43.0205 31.803C43.475 31.803 43.9001 31.69 44.2505 31.4765C45.4263 30.7587 45.5393 29.0246 44.5195 27.3532C43.7925 26.1616 42.7294 25.4215 41.7455 25.4215C41.3826 25.4215 41.0409 25.5178 40.7299 25.7078C39.4465 26.4907 39.1435 28.5257 40.0809 30.0627C40.7264 31.1199 41.8799 31.803 43.0205 31.803Z" fill="#1D1D1D"/>
<path d="M44.2358 31.0786L50.2885 27.6452C50.2885 27.6452 48.3404 27.9775 46.9997 25.7802C45.6583 23.5838 46.897 22.0888 46.897 22.0888L41.0769 25.9019C41.0769 25.9019 40.2187 27.2733 41.3954 29.2008C42.6245 31.2149 44.2358 31.0786 44.2358 31.0786Z" fill="#989795"/>
<path d="M48.997 27.9128L44.1274 30.6757C43.8127 30.664 42.67 30.5129 41.7406 28.9902C40.8478 27.5271 41.2523 26.4573 41.384 26.1846L46.0222 23.1459C45.89 23.8661 45.9546 24.8453 46.6543 25.9913C47.3775 27.1767 48.2761 27.6932 48.997 27.9128ZM44.1709 31.4851C44.2352 31.4851 44.27 31.4818 44.27 31.4818C44.3268 31.4764 44.3863 31.4586 44.4356 31.4306L50.488 27.9969C50.6585 27.9001 50.7351 27.6946 50.6693 27.5098C50.6036 27.3244 50.414 27.2136 50.2205 27.2469C50.2219 27.245 50.142 27.2589 50.0053 27.2589C49.5151 27.2589 48.275 27.0943 47.3446 25.5696C46.1676 23.642 47.198 22.36 47.2086 22.3473C47.3366 22.193 47.3319 21.9687 47.1987 21.8198C47.0651 21.6704 46.8429 21.6413 46.6757 21.751L40.8553 25.564C40.8065 25.5957 40.7654 25.638 40.7344 25.6876C40.6935 25.7521 39.7584 27.2951 41.0503 29.4116C42.2247 31.3357 43.7359 31.4851 44.1709 31.4851Z" fill="#1D1D1D"/>
<path d="M16.3846 22.2053C16.3846 22.4068 16.5476 22.5701 16.7494 22.5701C16.9506 22.5701 17.1139 22.4068 17.1139 22.2053C17.1139 22.004 16.9506 21.8405 16.7494 21.8405C16.5476 21.8405 16.3846 22.004 16.3846 22.2053Z" fill="white"/>
<path d="M36.2918 15.1438C36.2918 15.3451 36.4551 15.5085 36.6568 15.5085C36.8579 15.5085 37.0214 15.3451 37.0214 15.1438C37.0214 14.9422 36.8579 14.7792 36.6568 14.7792C36.4551 14.7792 36.2918 14.9422 36.2918 15.1438Z" fill="white"/>
<path d="M33.6677 32.8582C34.2936 34.8598 36.09 36.1815 37.8401 35.4846C40.4503 34.4446 39.1496 32.3701 38.8144 31.3796C38.2925 29.8367 38.16 28.8993 36.4599 29.4282C33.8041 30.2552 33.0462 30.8718 33.6677 32.8582Z" fill="#EC6669"/>
<path d="M37.2767 29.3375C38.083 29.3375 38.2902 29.9696 38.6331 31.0169C38.6733 31.1395 38.7151 31.2666 38.7595 31.3981C38.8041 31.5294 38.8657 31.6802 38.9307 31.8401C39.2053 32.5147 39.5818 33.4385 39.2415 34.2383C39.0289 34.7383 38.55 35.14 37.8188 35.431C37.5123 35.5529 37.1954 35.6149 36.8779 35.6149C35.5313 35.6149 34.2336 34.4743 33.7225 32.841C33.4667 32.0234 33.4547 31.4643 33.6837 31.0284C34.0356 30.3569 35.0134 29.9395 36.4769 29.4838C36.7928 29.3852 37.0545 29.3375 37.2767 29.3375ZM36.8779 35.7305C37.2102 35.7305 37.5414 35.6659 37.8613 35.5386C38.6221 35.2351 39.1224 34.8128 39.3479 34.2834C39.707 33.4397 39.3199 32.4898 39.0376 31.7967C38.973 31.6381 38.9124 31.4888 38.8689 31.361C38.8248 31.2299 38.7832 31.1029 38.7433 30.9812C38.3961 29.9216 38.1666 29.2222 37.2767 29.2222C37.0427 29.2222 36.77 29.2715 36.4426 29.3734C34.9121 29.85 33.9534 30.2648 33.5811 30.9746C33.337 31.4399 33.3469 32.0262 33.6126 32.8755C34.1382 34.5565 35.4808 35.7305 36.8779 35.7305Z" fill="#1D1D1D"/>
<path d="M37.2766 29.8575C37.6458 29.8575 37.7668 30.0426 38.1389 31.1789C38.1797 31.3025 38.2215 31.4314 38.2671 31.5648C38.3164 31.7107 38.3808 31.8688 38.4491 32.0363C38.7028 32.6592 39.0185 33.4343 38.7632 34.0341C38.6067 34.4024 38.2241 34.7097 37.6259 34.9478C37.3809 35.0453 37.1293 35.0949 36.8778 35.0949C35.7558 35.0949 34.6629 34.1041 34.2187 32.6857C33.9448 31.8105 34.0451 31.4582 34.144 31.2694C34.4115 30.7587 35.3318 30.3848 36.6312 29.9801C36.8928 29.8986 37.1101 29.8575 37.2766 29.8575ZM36.8778 36.2502C37.2766 36.2502 37.6719 36.1734 38.0538 36.0212C38.9483 35.6652 39.5444 35.1487 39.8262 34.4868C40.2702 33.4439 39.8182 32.3346 39.5192 31.6006C39.4577 31.4495 39.3999 31.3072 39.3619 31.1944C39.3175 31.0648 39.2766 30.9394 39.2374 30.8191C38.8806 29.7302 38.5438 28.7021 37.2766 28.7021C36.9893 28.7021 36.6657 28.7592 36.288 28.8766C34.6272 29.3938 33.5765 29.8634 33.1206 30.7331C32.8073 31.3307 32.8057 32.0393 33.1159 33.031C33.7184 34.9565 35.2299 36.2502 36.8778 36.2502Z" fill="#1D1D1D"/>
<path d="M38.6095 54.3688C38.5989 54.3688 38.5881 54.369 38.5771 54.3697C38.2706 54.3871 38.0362 54.6499 38.0538 54.9565C38.0707 55.2524 38.3161 55.4807 38.6086 55.4807C38.6191 55.4807 38.6302 55.4802 38.6412 55.4795C38.9475 55.4619 39.1821 55.1996 39.1641 54.8928C39.1474 54.5973 38.9019 54.3688 38.6095 54.3688Z" fill="white"/>
<path d="M38.6541 51.5062C38.6435 51.5062 38.6325 51.5065 38.6214 51.5074C38.3154 51.525 38.0812 51.7876 38.0986 52.0944C38.1152 52.3903 38.3609 52.6182 38.6531 52.6182C38.6637 52.6182 38.6743 52.6179 38.6855 52.6172C38.9916 52.5998 39.2267 52.337 39.2086 52.0303C39.1917 51.7348 38.9465 51.5062 38.6541 51.5062Z" fill="white"/>
<path d="M38.5951 48.6605C38.5843 48.6605 38.5738 48.6608 38.5625 48.6615C38.2564 48.6788 38.022 48.9414 38.0394 49.2484C38.0563 49.5439 38.3018 49.7722 38.5942 49.7722C38.6045 49.7722 38.6158 49.772 38.6266 49.7713C38.9329 49.7539 39.1678 49.4911 39.1499 49.1845C39.1328 48.8888 38.8876 48.6605 38.5951 48.6605Z" fill="white"/>
</g>
<defs>
<clipPath id="clip0_1142_24345">
<rect width="72" height="64" fill="white"/>
</clipPath>
</defs>
</svg>
