<svg width="208" height="145" viewBox="0 0 208 145" fill="none" xmlns="http://www.w3.org/2000/svg">
<path d="M24.0097 85.3164C24.0097 85.3164 12.0681 67.9182 20.5471 65.1392C24.8594 63.7236 31.8505 75.7797 31.8505 75.7797C31.8505 75.7797 31.3004 81.1605 24.0097 85.3164Z" fill="#DEB972"/>
<path d="M21.2871 66.4111C21.1721 66.4111 21.069 66.4257 20.9711 66.4586C19.9853 66.7817 19.3898 67.3409 19.096 68.2212C17.8503 71.9498 22.0192 79.6686 24.4244 83.4451C28.9799 80.4816 30.1348 77.1726 30.4065 76.0416C27.9292 71.8982 23.6407 66.4111 21.2871 66.4111ZM24.0104 86.7046C23.5742 86.7046 23.1468 86.493 22.8818 86.1073C22.011 84.8372 14.4295 73.5259 16.4949 67.3347C17.0656 65.6262 18.3205 64.4108 20.124 63.8193C20.4942 63.6984 20.8855 63.6363 21.2871 63.6363C26.1531 63.6363 31.9259 73.1678 33.0343 75.0785C33.1813 75.3333 33.2452 75.6289 33.2153 75.9223C33.1895 76.1719 32.5023 82.0676 24.6832 86.5248C24.4713 86.6457 24.2398 86.7046 24.0104 86.7046Z" fill="black"/>
<path d="M136.856 97.7687C136.856 97.7687 144.461 110.048 162.168 108.389C176.872 107.012 185.756 93.4423 184.088 78.7365C184.088 78.7365 183.592 56.2749 171.599 57.9297C171.599 57.9297 163.544 60.4705 162.093 71.0996C162.093 71.0996 160.617 76.1691 163.58 79.6376C163.58 79.6376 165.239 89.2233 159.574 89.6215C156.468 89.8404 151.647 85.3994 151.647 85.3994C151.647 85.3994 143.808 78.2919 137.134 79.217" fill="#C8B595"/>
<path d="M158.828 109.945C147.216 109.945 139.228 102.494 138.852 102.135C138.299 101.61 138.273 100.732 138.791 100.174C139.311 99.6164 140.178 99.5893 140.73 100.113C140.85 100.227 150.411 109.082 163.187 106.781C179.602 103.825 182.631 90.0964 182.28 79.1005C182.279 79.053 182.28 79.0046 182.283 78.9566C182.291 78.8352 183.082 66.5842 177.95 61.3384C176.327 59.6784 174.309 58.9279 171.791 59.0421C170.744 59.3871 164.068 61.93 162.842 70.9105C162.841 70.9204 162.838 70.9309 162.837 70.9408C162.831 70.9861 162.12 75.806 164.618 78.7309C164.781 78.9206 164.889 79.1515 164.932 79.3986C165.044 80.0464 165.956 85.8144 163.492 88.9962C162.56 90.2002 161.238 90.8954 159.669 91.0054C156.186 91.2451 151.804 88.7257 151.619 88.6189C151.528 88.5657 151.443 88.5011 151.366 88.4292C148.464 85.6867 139.7 78.6851 134.074 79.2328C133.321 79.3074 132.65 78.7466 132.578 77.9846C132.506 77.2221 133.059 76.544 133.813 76.4705C141.465 75.7388 151.804 85.0696 153.117 86.2876C154.291 86.9443 157.365 88.389 159.478 88.2379C160.283 88.1811 160.872 87.8793 161.331 87.2867C162.687 85.5355 162.511 81.8805 162.283 80.2267C159.3 76.3903 160.061 70.9397 160.125 70.5191C161.686 59.1312 170.795 56.4387 171.181 56.3298C171.276 56.3032 171.372 56.2871 171.47 56.2813C174.851 56.0776 177.691 57.1257 179.905 59.3918C185.743 65.3656 185.101 77.884 185.026 79.0801C185.547 96.1318 177.965 106.938 163.669 109.512C161.998 109.811 160.38 109.945 158.828 109.945Z" fill="black"/>
<path d="M174.238 65.9512C174.238 65.9512 181.186 50.523 173.91 49.8731C170.209 49.5427 166.43 60.0102 166.43 60.0102C166.43 60.0102 167.707 64.0389 174.238 65.9512Z" fill="#DEB972"/>
<path d="M167.911 59.9688C168.355 60.8157 169.767 62.8702 173.473 64.241C175.056 60.3472 176.7 54.4458 175.385 52.1656C175.167 51.7888 174.789 51.3447 173.79 51.2556C173.772 51.254 173.754 51.2535 173.737 51.2535C172.196 51.2535 169.545 55.6659 167.911 59.9688ZM174.238 67.3384C174.111 67.3384 173.982 67.3201 173.855 67.2837C166.705 65.19 165.185 60.6265 165.123 60.4337C165.031 60.1403 165.037 59.8244 165.141 59.5347C165.18 59.4273 166.108 56.8709 167.513 54.2733C169.72 50.1908 171.854 48.302 174.031 48.4923C175.694 48.6408 176.982 49.4278 177.756 50.7693C180.39 55.3381 175.996 65.3949 175.486 66.5264C175.258 67.0309 174.763 67.3384 174.238 67.3384Z" fill="black"/>
<path d="M168.981 83.8618C168.799 83.8618 168.614 83.8259 168.435 83.7466C163.548 81.6035 162.22 79.2811 162.084 79.0236L164.508 77.7217L164.493 77.6946C164.503 77.7123 165.559 79.4614 169.528 81.2017C170.223 81.5066 170.542 82.3238 170.241 83.0264C170.016 83.5491 169.511 83.8618 168.981 83.8618Z" fill="black"/>
<path d="M184.772 86.1185C184.772 86.1185 185.813 81.5101 183.942 78.2136C183.942 78.2136 174.177 84.6826 165.187 78.9167C165.187 78.9167 162.11 76.9722 161.114 75.4769C161.114 75.4769 160.283 78.8307 161.507 82.5332C161.507 82.5332 169.052 96.5651 184.772 86.1185Z" fill="#D51317"/>
<path d="M162.768 81.9689C163.267 82.8315 166.862 88.5973 173.772 88.5979H173.773C176.796 88.5979 180.075 87.4815 183.528 85.2795C183.675 84.2991 183.888 82.1263 183.291 80.176C181.382 81.1605 177.714 82.6959 173.414 82.6959C170.165 82.6959 167.15 81.8183 164.452 80.0874C164.268 79.9717 163.266 79.3301 162.215 78.4931C162.234 79.5047 162.371 80.717 162.768 81.9689ZM173.773 91.3711H173.772C164.802 91.3706 160.481 83.5293 160.301 83.1958C160.262 83.1249 160.231 83.0498 160.205 82.9732C158.869 78.9325 159.745 75.2925 159.782 75.1393C159.914 74.6082 160.343 74.2053 160.877 74.1104C161.41 74.0151 161.95 74.247 162.252 74.702C162.859 75.613 164.821 77.0489 165.914 77.7405C168.174 79.1894 170.694 79.9217 173.414 79.9217C178.798 79.9217 183.147 77.0817 183.19 77.0531C183.507 76.8435 183.895 76.7747 184.262 76.8644C184.63 76.953 184.944 77.1922 185.132 77.5237C187.245 81.2476 186.158 86.2171 186.11 86.4271C186.032 86.7763 185.823 87.0812 185.526 87.2782C181.438 89.9941 177.483 91.3711 173.773 91.3711Z" fill="black"/>
<path d="M134.563 82.3922C134.563 82.3922 138.841 72.2546 148.902 82.338C148.902 82.338 155.937 88.7215 155.942 87.3372C155.942 87.3372 158.98 81.3983 160.959 81.3926C160.959 81.3926 170.006 91.9867 184.354 84.3383C184.354 84.3383 189.419 86.816 184.897 96.0504C184.897 96.0504 176.627 114.88 157.003 114.919C157.003 114.919 145.425 113.598 138.227 104.86C138.227 104.86 126.632 94.0527 134.563 82.3922Z" fill="white"/>
<path d="M140.736 79.2581C137.416 79.2581 135.841 82.8991 135.825 82.9366C135.79 83.0211 135.745 83.1024 135.694 83.1779C132.714 87.5585 132.357 92.3232 134.631 97.3391C136.392 101.222 139.132 103.816 139.159 103.842C139.202 103.882 139.245 103.926 139.282 103.973C145.764 111.842 156.129 113.404 157.087 113.532C175.546 113.441 183.564 95.6671 183.643 95.4884C183.651 95.4701 183.659 95.4529 183.667 95.4357C185.7 91.2845 185.581 88.8036 185.123 87.4532C184.88 86.7376 184.513 86.2587 184.22 85.9637C180.827 87.6476 177.435 88.4992 174.127 88.4992C167.043 88.4992 162.305 84.6534 160.608 83.0153C159.768 83.7043 158.342 85.7135 157.251 87.7998C157.064 88.4628 156.482 88.9209 155.752 88.9209C155.301 88.9209 154.102 88.9209 147.986 83.3708C147.969 83.3551 147.952 83.339 147.936 83.3228C145.244 80.6252 142.822 79.2581 140.736 79.2581ZM157.003 116.307C156.952 116.307 156.901 116.303 156.849 116.298C156.355 116.241 144.694 114.818 137.227 105.813C136.744 105.348 134.031 102.628 132.175 98.5821C129.483 92.7094 129.893 86.8768 133.363 81.7082C133.764 80.8467 136.028 76.4833 140.736 76.4833C143.564 76.4833 146.628 78.1136 149.844 81.3282C151.714 83.0252 153.992 84.9135 155.227 85.7515C156.594 83.2691 158.799 80.0122 160.955 80.0049H160.959C161.359 80.0049 161.737 80.1806 161.997 80.4855C162.041 80.535 166.611 85.7255 174.127 85.7255C177.235 85.7255 180.461 84.8462 183.714 83.1128C184.099 82.9064 184.559 82.8986 184.951 83.0904C185.147 83.1863 186.885 84.0952 187.719 86.5542C188.629 89.2383 188.098 92.6323 186.138 96.6428C185.936 97.0936 183.797 101.743 179.295 106.436C173.116 112.877 165.408 116.289 157.006 116.307H157.003Z" fill="black"/>
<path d="M155.851 87.6419C155.851 87.6419 155.424 88.4752 154.934 89.6177Z" fill="black"/>
<path d="M154.933 91.0054C154.751 91.0054 154.567 90.9694 154.389 90.8912C153.693 90.5863 153.374 89.7707 153.675 89.0671C154.178 87.8934 154.615 87.0391 154.633 87.0032C154.982 86.3236 155.81 86.0577 156.483 86.4106C157.156 86.7629 157.418 87.5999 157.069 88.2801C157.065 88.2884 156.655 89.09 156.194 90.1694C155.97 90.6927 155.464 91.0054 154.933 91.0054Z" fill="black"/>
<path d="M132.8 86.8867L100.772 85.0511L77.1219 89.6698C77.1219 89.6698 74.5141 95.8766 73.8449 105.164C73.1783 114.417 72.9896 125.938 74.1723 138.865C74.1723 138.865 107.936 148.851 149.101 133.038C148.679 129.473 148.494 126.116 148.006 123.136C147.05 117.3 144.423 104.461 141.642 99.5588" fill="#C8B595"/>
<path d="M74.3016 141.628C73.6045 141.628 73.0075 141.094 72.9379 140.379C71.7861 128.675 71.6319 116.793 72.4764 105.064C73.1544 95.6546 75.7488 89.3894 75.8591 89.1278C76.0375 88.702 76.4133 88.395 76.8614 88.3069L100.512 83.6892C100.623 83.6673 100.736 83.6595 100.849 83.6657L132.878 85.5019C133.634 85.5456 134.213 86.2003 134.17 86.9659C134.127 87.7305 133.482 88.3126 132.722 88.2725L100.864 86.4463L78.1276 90.8862C77.4687 92.7026 75.7328 98.0541 75.2136 105.264C74.3794 116.837 74.5331 128.558 75.6683 140.104C75.7436 140.866 75.193 141.546 74.4387 141.622C74.3928 141.626 74.3469 141.628 74.3016 141.628Z" fill="black"/>
<path d="M149.285 133.433C148.603 133.433 148.012 132.918 147.925 132.216C147.57 129.332 147.142 126.354 146.652 123.362C145.525 116.478 142.943 104.642 140.452 100.25C140.075 99.5847 140.303 98.7377 140.96 98.3557C141.618 97.9758 142.456 98.2056 142.832 98.8701C145.713 103.948 148.361 116.814 149.36 122.909C149.855 125.937 150.289 128.952 150.649 131.874C150.743 132.633 150.209 133.326 149.457 133.421C149.4 133.428 149.342 133.433 149.285 133.433Z" fill="black"/>
<path d="M158.9 129.233C158.214 123.567 156.622 114.731 152.521 105.576C146.463 92.0516 136.632 84.62 136.632 84.62L123.189 98.9647C128.864 108.839 132.268 127.331 133.879 138.287C133.879 138.287 146.002 136.584 158.9 129.233Z" fill="#D11317"/>
<path d="M118.718 141.641C118.478 121.727 112.514 102.102 112.514 102.102C99.7469 104.395 82.3392 86.7693 72.578 82.5185C71.2489 81.9384 66.5371 84.6423 66.5371 84.6423C65.857 120.518 68.4607 134.901 70.394 141.774C70.394 141.774 88.9684 147.468 118.718 141.641Z" fill="#D11317"/>
<path d="M134.061 138.438C132.533 127.695 129.088 109.228 123.189 98.9644L136.632 84.6197C136.632 84.6197 146.463 92.0513 152.521 105.576C156.783 115.088 158.43 123.056 159.064 128.711" fill="#D51317"/>
<path d="M134.059 139.825C133.388 139.825 132.801 139.327 132.703 138.636C131.546 130.503 128.187 110.423 122.003 99.661C121.697 99.1294 121.775 98.457 122.193 98.0109L135.635 83.6658C136.114 83.1555 136.895 83.0872 137.453 83.5089C137.866 83.8211 147.638 91.3116 153.771 105.004C157.326 112.939 159.565 120.862 160.427 128.555C160.512 129.315 159.972 130.003 159.219 130.088C158.465 130.177 157.786 129.628 157.7 128.867C156.87 121.462 154.708 113.819 151.272 106.149C146.523 95.5478 139.313 88.7166 136.751 86.5088L124.881 99.1763C130.983 110.528 134.271 130.167 135.419 138.241C135.527 138.999 135.006 139.702 134.256 139.812C134.19 139.821 134.124 139.825 134.059 139.825Z" fill="black"/>
<path d="M141.003 131.481C141.164 132.397 140.56 133.273 139.653 133.436C138.747 133.598 137.882 132.987 137.721 132.071C137.56 131.155 138.164 130.279 139.07 130.116C139.976 129.954 140.842 130.565 141.003 131.481Z" fill="white"/>
<path d="M139.363 128.703C139.185 128.703 139.006 128.718 138.83 128.751C137.18 129.048 136.076 130.646 136.37 132.314C136.628 133.782 137.885 134.849 139.36 134.849C139.538 134.849 139.717 134.832 139.893 134.801C141.543 134.505 142.647 132.906 142.354 131.238C142.096 129.769 140.838 128.703 139.363 128.703ZM139.363 130.09C140.157 130.09 140.86 130.665 141.003 131.481C141.164 132.397 140.56 133.273 139.653 133.436C139.555 133.453 139.456 133.462 139.36 133.462C138.567 133.462 137.864 132.887 137.721 132.071C137.56 131.155 138.163 130.279 139.07 130.116C139.169 130.099 139.267 130.09 139.363 130.09Z" fill="black"/>
<path d="M139.253 121.826C139.414 122.742 138.81 123.617 137.903 123.78C136.997 123.942 136.132 123.333 135.97 122.416C135.81 121.499 136.414 120.624 137.32 120.462C138.227 120.299 139.092 120.909 139.253 121.826Z" fill="white"/>
<path d="M137.614 119.048C137.436 119.048 137.256 119.065 137.08 119.096C136.281 119.239 135.585 119.689 135.12 120.362C134.656 121.035 134.477 121.85 134.619 122.658C134.877 124.127 136.135 125.193 137.61 125.193C137.788 125.193 137.967 125.177 138.143 125.146C138.943 125.002 139.639 124.553 140.103 123.879C140.568 123.207 140.746 122.392 140.604 121.583C140.345 120.114 139.088 119.048 137.614 119.048ZM137.614 120.436C138.407 120.436 139.109 121.009 139.253 121.826C139.414 122.742 138.81 123.617 137.903 123.78C137.805 123.797 137.706 123.806 137.61 123.806C136.817 123.806 136.114 123.232 135.97 122.416C135.809 121.499 136.414 120.624 137.32 120.462C137.419 120.444 137.517 120.436 137.614 120.436Z" fill="black"/>
<path d="M70.0622 141.356C68.1778 133.863 65.8949 118.498 66.5373 84.6425C66.5373 84.6425 71.249 81.9386 72.5782 82.5182C82.3394 86.7695 99.7466 104.395 112.515 102.102C112.515 102.102 118.425 120.989 118.715 140.817" fill="#D51317"/>
<path d="M70.0614 142.743C69.4484 142.743 68.8906 142.326 68.7323 141.698C65.8637 130.29 64.6634 111.086 65.1651 84.6163C65.1744 84.1258 65.4383 83.6776 65.8601 83.4358C68.2801 82.0473 71.505 80.5401 73.1213 81.2442C76.4163 82.679 80.5187 85.558 84.8624 88.607C93.4811 94.6559 104.209 102.184 112.275 100.735C112.953 100.613 113.616 101.019 113.823 101.683C113.883 101.874 119.797 120.994 120.086 140.796C120.097 141.562 119.492 142.193 118.734 142.204C118.727 142.204 118.72 142.204 118.714 142.204C117.965 142.204 117.353 141.596 117.342 140.838C117.098 124.158 112.774 107.948 111.534 103.632C102.63 104.451 92.3835 97.2629 83.2966 90.8861C79.1019 87.9414 75.1372 85.1583 72.1036 83.8215C71.5293 83.7949 69.6577 84.5324 67.894 85.4726C67.4362 111.279 68.6122 129.963 71.3916 141.014C71.5793 141.757 71.1343 142.511 70.4002 142.7C70.2867 142.729 70.1728 142.743 70.0614 142.743Z" fill="black"/>
<path d="M132.272 20.5889L134.678 20.249L150.532 19.3286C150.532 19.3286 151.788 25.5698 148.501 31.1293C144.817 37.3591 135.878 39.6299 135.878 39.6299L132.272 20.5889Z" fill="#C8B595"/>
<path d="M133.891 21.7608L136.936 37.8447C139.474 36.9566 144.814 34.6618 147.323 30.4167C149.489 26.7533 149.498 22.7318 149.336 20.7873L134.813 21.6305L133.891 21.7608ZM135.878 41.0166C135.618 41.0166 135.362 40.9426 135.14 40.7993C134.821 40.5939 134.6 40.2645 134.53 39.8908L130.924 20.8493C130.853 20.4766 130.937 20.0899 131.156 19.7814C131.375 19.4718 131.709 19.267 132.082 19.2143L134.488 18.8745C134.525 18.8703 134.562 18.8662 134.6 18.8641L150.454 17.9437C151.131 17.9056 151.741 18.3763 151.877 19.0517C151.933 19.3285 153.198 25.8886 149.679 31.8411C145.749 38.4873 136.6 40.8764 136.212 40.9749C136.102 41.0031 135.989 41.0166 135.878 41.0166Z" fill="black"/>
<path d="M135.615 30.1567C134.903 30.1567 134.27 29.6455 134.134 28.9127C133.98 28.0845 134.52 27.2866 135.339 27.1318L140.638 26.1259C141.457 25.97 142.247 26.5157 142.4 27.3439C142.554 28.1715 142.014 28.9695 141.195 29.1248L135.895 30.1307C135.802 30.1484 135.707 30.1567 135.615 30.1567Z" fill="black"/>
<path d="M78.1663 23.109L67.9276 5.27192L62.7328 26.7729L78.1663 23.109Z" fill="#DEB972"/>
<path d="M68.4513 8.94925L64.5964 24.9059L76.0502 22.1869L68.4513 8.94925ZM62.7326 28.1597C62.3712 28.1597 62.0185 28.0158 61.7582 27.7495C61.422 27.4071 61.2869 26.9125 61.3999 26.4439L66.5947 4.94341C66.7277 4.39303 67.1773 3.98026 67.7321 3.89947C68.2853 3.81921 68.8338 4.08658 69.1148 4.57597L79.353 22.4131C79.5716 22.7935 79.5984 23.2553 79.4262 23.6587C79.254 24.0621 78.9024 24.3592 78.4796 24.4598L63.0466 28.1232C62.9424 28.1482 62.8373 28.1597 62.7326 28.1597Z" fill="black"/>
<path d="M116.99 21.1382L122.267 1.38782L132.017 21.0454L116.99 21.1382Z" fill="#DEB972"/>
<path d="M122.653 5.26209L118.785 19.7401L129.8 19.6719L122.653 5.26209ZM116.99 22.5259C116.565 22.5259 116.163 22.3263 115.904 21.9849C115.642 21.6425 115.554 21.1948 115.665 20.7768L120.942 1.02641C121.09 0.470826 121.563 0.065863 122.129 0.00801132C122.695 -0.0545311 123.238 0.251406 123.493 0.766339L133.243 20.4234C133.456 20.8529 133.434 21.3621 133.186 21.7707C132.939 22.1793 132.499 22.43 132.024 22.4326L116.999 22.5259H116.99Z" fill="black"/>
<path d="M59.4422 28.1068C60.6883 26.7658 112.955 10.4177 132.333 19.0861C133.802 19.7433 135.864 36.1351 136.486 40.9431C137.109 45.7516 138.342 61.2715 138.734 65.5791C139.126 69.8867 138.386 79.2263 138.162 81.8891C137.932 84.6217 133.766 97.7123 118.088 100.91C100.133 104.572 86.9602 100.582 80.1902 95.5171C69.6149 87.6023 66.093 72.6651 64.7005 67.5314C63.3079 62.3983 59.3401 39.0152 59.3401 39.0152C59.3401 39.0152 58.1961 29.4499 59.4422 28.1068Z" fill="#C8B595"/>
<path d="M60.6984 38.8143C60.8711 39.8275 64.6889 62.2432 66.0237 67.1653C66.0959 67.4306 66.1737 67.7219 66.2573 68.0367C67.7839 73.7661 71.3588 87.1815 81.0072 94.402C86.5629 98.56 95.1575 100.945 104.585 100.945C108.827 100.945 113.278 100.475 117.817 99.5503C124.162 98.2551 129.213 95.1718 132.827 90.3836C135.585 86.7301 136.691 83.0042 136.795 81.7715C137.024 79.0437 137.742 69.8233 137.368 65.706C137.263 64.563 137.1 62.6315 136.905 60.32C136.377 54.0705 135.579 44.6271 135.125 41.1237L135.05 40.5426C133.069 25.1832 132.009 21.1872 131.521 20.2429C127.97 18.722 123.001 17.9512 116.744 17.9512C95.0064 17.9512 63.8356 27.4358 60.4509 29.1082C60.0462 30.2997 60.2401 34.9591 60.6984 38.8143ZM104.585 103.719C94.5821 103.719 85.3926 101.136 79.3738 96.6311C68.9578 88.8362 65.2086 74.7663 63.6078 68.7586C63.5247 68.4474 63.4479 68.1597 63.3773 67.8981C61.9832 62.7587 58.1505 40.2069 57.9881 39.25C57.9839 39.2271 57.9808 39.2047 57.9783 39.1812C57.9664 39.0822 57.6849 36.7129 57.5534 34.1356C57.2982 29.1187 57.8298 27.8167 58.4423 27.158C59.5683 25.9441 71.5501 22.5038 79.4012 20.5884C89.5244 18.119 104.221 15.1764 116.744 15.1764C123.538 15.1764 128.969 16.065 132.888 17.8178C133.817 18.2326 134.584 19.1854 135.993 27.7005C136.753 32.288 137.415 37.4243 137.771 40.1835L137.846 40.7635C138.308 44.329 139.109 53.8094 139.639 60.0839C139.834 62.3881 139.996 64.3123 140.1 65.4522C140.485 69.6769 139.829 78.4365 139.529 82.0066C139.375 83.848 138.043 88.0466 135.009 92.0666C132.238 95.7367 127.1 100.488 118.36 102.27C113.643 103.232 109.009 103.719 104.585 103.719Z" fill="black"/>
<path d="M88.3087 57.3405C88.3087 57.3405 88.5562 72.937 95.4293 74.2426C95.4293 74.2426 99.1223 74.6679 102.669 73.2925L104.61 66.6567L108.966 72.4554C108.966 72.4554 113.616 72.9975 116.699 71.5626L117.528 64.9097L121.736 70.6469L125.687 69.8073C125.687 69.8073 128.359 68.4501 126.934 59.3466C126.314 55.3907 125.5 54.2598 124.617 52.8771" fill="#DEB972"/>
<path d="M96.8325 75.6919C95.922 75.6919 95.3358 75.6278 95.2744 75.6205C95.2409 75.6168 95.2084 75.6122 95.176 75.6059C91.7392 74.9534 89.3098 71.5907 87.9544 65.6121C87.0114 61.4557 86.9403 57.528 86.9372 57.3633C86.9248 56.5972 87.5291 55.9665 88.2864 55.954H88.3091C89.0562 55.954 89.6681 56.5602 89.681 57.3185C89.7475 61.3264 90.9473 71.9018 95.6297 72.8691C96.0133 72.9035 98.7757 73.1172 101.553 72.2192L103.295 66.2631C103.441 65.7612 103.854 65.3865 104.363 65.2921C104.872 65.1957 105.39 65.4011 105.703 65.818L109.689 71.1242C110.815 71.1977 113.399 71.267 115.439 70.5754L116.167 64.736C116.237 64.1742 116.638 63.7119 117.18 63.5686C117.722 63.4247 118.296 63.629 118.63 64.084L122.314 69.1062L125.062 68.523C125.426 68.0643 126.591 66.0296 125.579 59.5627C125.032 56.0729 124.36 55.0258 123.581 53.8135L123.464 53.6295C123.053 52.9864 123.236 52.1275 123.872 51.7121C124.509 51.2957 125.358 51.4807 125.769 52.1244L125.884 52.3036C126.752 53.6577 127.651 55.0576 128.289 59.1291C129.757 68.5058 127.14 70.6223 126.303 71.0471C126.197 71.1002 126.084 71.1409 125.969 71.1649L122.019 72.0045C121.494 72.1139 120.953 71.9081 120.634 71.4729L118.462 68.512L118.061 71.7356C118.001 72.2104 117.704 72.6216 117.273 72.8222C113.88 74.4014 109.014 73.8573 108.809 73.8339C108.438 73.7906 108.099 73.5957 107.873 73.2944L105.157 69.6779L103.985 73.6853C103.864 74.0991 103.559 74.4322 103.161 74.587C100.773 75.5126 98.3524 75.6919 96.8325 75.6919Z" fill="black"/>
<path d="M88.3087 57.3405C88.3087 57.3405 88.5562 72.937 95.4293 74.2426C95.4293 74.2426 99.1223 74.6679 102.669 73.2925L104.61 66.6567L108.966 72.4554C108.966 72.4554 113.616 72.9975 116.699 71.5627L117.528 64.9097L121.736 70.6469L125.687 69.8073C125.687 69.8073 128.359 68.4501 126.934 59.3466C126.314 55.3908 125.5 54.2598 124.617 52.8771C124.617 52.8771 104.313 51.1467 89.0919 57.427" fill="#DEB972"/>
<path d="M96.8325 75.6919C95.922 75.6919 95.3358 75.6278 95.2744 75.6205C95.2409 75.6168 95.2084 75.6122 95.176 75.6059C91.7392 74.9534 89.3098 71.5907 87.9544 65.6121C87.0114 61.4557 86.9403 57.528 86.9372 57.3633C86.9248 56.5972 87.5291 55.9665 88.2864 55.954H88.3091C89.0562 55.954 89.6681 56.5602 89.681 57.3185C89.7475 61.3264 90.9473 71.9018 95.6297 72.8691C96.0133 72.9035 98.7757 73.1172 101.553 72.2192L103.295 66.2631C103.441 65.7612 103.854 65.3865 104.363 65.2921C104.872 65.1957 105.39 65.4011 105.703 65.818L109.689 71.1242C110.815 71.1977 113.399 71.267 115.439 70.5754L116.167 64.736C116.237 64.1742 116.638 63.7119 117.18 63.5686C117.722 63.4247 118.296 63.629 118.63 64.084L122.314 69.1062L125.062 68.523C125.426 68.0643 126.591 66.0296 125.579 59.5627C125.032 56.0729 124.36 55.0258 123.581 53.8135L123.464 53.6295C123.053 52.9864 123.236 52.1275 123.872 51.7121C124.509 51.2957 125.358 51.4807 125.769 52.1244L125.884 52.3036C126.752 53.6577 127.651 55.0576 128.289 59.1291C129.757 68.5058 127.14 70.6223 126.303 71.0471C126.197 71.1002 126.084 71.1409 125.969 71.1649L122.019 72.0045C121.494 72.1139 120.953 71.9081 120.634 71.4729L118.462 68.512L118.061 71.7356C118.001 72.2104 117.704 72.6216 117.273 72.8222C113.88 74.4014 109.014 73.8573 108.809 73.8339C108.438 73.7906 108.099 73.5957 107.873 73.2944L105.157 69.6779L103.985 73.6853C103.864 74.0991 103.559 74.4322 103.161 74.587C100.773 75.5126 98.3524 75.6919 96.8325 75.6919Z" fill="black"/>
<path d="M79.2478 21.3597C79.2478 21.3597 103.574 11.6494 118.69 17.1667C118.69 17.1667 123.936 33.3699 124.112 52.2493C124.112 52.2493 108.035 51.1726 88.4641 57.8359C88.4641 57.8359 80.8708 32.5751 79.2478 21.3597Z" fill="#8E7F66"/>
<path d="M80.7766 22.2637C82.4074 32.1334 87.8435 50.8826 89.3737 56.0731C103.977 51.3225 116.579 50.7976 121.416 50.7976C121.913 50.7976 122.346 50.8029 122.715 50.8102C122.35 35.0766 118.512 21.349 117.586 18.2495C114.781 17.3265 111.448 16.858 107.668 16.858C96.4483 16.858 84.3222 20.967 80.7766 22.2637ZM88.4643 59.2231C88.2477 59.2231 88.0327 59.171 87.8363 59.0683C87.5063 58.8969 87.2594 58.5972 87.1516 58.2391C86.8402 57.2035 79.5093 32.75 77.8899 21.5601C77.7977 20.9238 78.1508 20.3061 78.7437 20.0695C79.3557 19.8251 93.8983 14.0837 107.668 14.0837C112.058 14.0837 115.923 14.6825 119.156 15.862C119.554 16.0074 119.863 16.329 119.994 16.735C120.047 16.8997 125.308 33.3608 125.483 52.2361C125.487 52.6223 125.331 52.9924 125.053 53.2576C124.775 53.5224 124.4 53.6543 124.02 53.6334C124.012 53.6329 123.075 53.5724 121.416 53.5724C116.566 53.5724 103.689 54.116 88.9025 59.1502C88.7597 59.1986 88.6122 59.2231 88.4643 59.2231Z" fill="black"/>
<path d="M93.8396 17.8579C93.8396 17.8579 100.34 33.2303 103.336 54.0063Z" fill="black"/>
<path d="M103.334 55.1167C102.798 55.1167 102.329 54.719 102.25 54.1666C99.3113 33.7871 92.8945 18.446 92.8301 18.2938C92.5924 17.7299 92.8512 17.0779 93.4085 16.8376C93.9664 16.5953 94.6108 16.858 94.849 17.4219C94.9145 17.5761 101.44 33.1659 104.422 53.846C104.51 54.4527 104.095 55.0161 103.495 55.1047C103.44 55.1125 103.387 55.1167 103.334 55.1167Z" fill="black"/>
<path d="M108.041 17.0715C108.041 17.0715 114.756 37.3415 115.6 52.0254Z" fill="black"/>
<path d="M115.599 53.1353C115.021 53.1353 114.538 52.6792 114.504 52.0892C113.679 37.7196 107.067 17.6252 107 17.4241C106.808 16.8429 107.117 16.2139 107.692 16.0195C108.268 15.8256 108.89 16.1378 109.082 16.7184C109.358 17.5528 115.853 37.2985 116.695 51.961C116.731 52.5729 116.268 53.0977 115.663 53.1326C115.641 53.1347 115.62 53.1353 115.599 53.1353Z" fill="black"/>
<path d="M99.7416 36.0429C99.7416 36.0429 96.7446 36.377 95.765 36.4385Z" fill="black"/>
<path d="M95.7644 37.4102C95.2607 37.4102 94.8379 37.0146 94.8065 36.4991C94.7729 35.9644 95.1756 35.5031 95.7051 35.4698C96.6506 35.4104 99.6069 35.082 99.6363 35.0784C100.165 35.0169 100.639 35.4041 100.697 35.9373C100.755 36.4699 100.375 36.9499 99.8472 37.0083C99.724 37.0219 96.8151 37.3455 95.8252 37.4086C95.8046 37.4096 95.784 37.4102 95.7644 37.4102Z" fill="black"/>
<path d="M117.227 32.9082C116.784 32.9082 116.385 32.5955 116.289 32.1395C114.73 24.7313 112.475 17.9882 112.453 17.9204C112.282 17.4128 112.551 16.8609 113.053 16.6884C113.557 16.5164 114.102 16.7879 114.272 17.2961C114.295 17.3643 116.586 24.2164 118.168 31.7355C118.279 32.2598 117.947 32.7753 117.428 32.8868C117.361 32.9014 117.294 32.9082 117.227 32.9082Z" fill="black"/>
<path d="M110.401 53.1943C110.401 53.1943 109.475 43.2735 106.12 31.8846Z" fill="black"/>
<path d="M110.399 54.3042C109.839 54.3042 109.362 53.8732 109.307 53.2988C109.299 53.2003 108.351 43.3457 105.068 32.2012C104.895 31.6138 105.226 30.9957 105.807 30.8211C106.388 30.646 106.999 30.9806 107.172 31.568C110.519 42.9303 111.484 52.9898 111.493 53.0904C111.55 53.7001 111.107 54.2411 110.504 54.2995C110.468 54.3026 110.433 54.3042 110.399 54.3042Z" fill="black"/>
<path d="M94.3221 44.0362C95.343 47.1837 95.79 49.9772 96.9139 54.9395Z" fill="black"/>
<path d="M96.9133 56.0503C96.4127 56.0503 95.9605 55.7021 95.844 55.1883C95.5048 53.6878 95.2233 52.3733 94.9758 51.2142C94.3947 48.4931 93.9751 46.5277 93.2791 44.382C93.0904 43.8003 93.4038 43.1733 93.9802 42.9821C94.5561 42.7908 95.1769 43.1087 95.3656 43.6914C96.0972 45.946 96.5493 48.0647 97.1221 50.7462C97.368 51.899 97.6475 53.2057 97.9841 54.6926C98.1192 55.2904 97.7501 55.8851 97.1592 56.0216C97.0767 56.0409 96.9942 56.0503 96.9133 56.0503Z" fill="black"/>
<path d="M87.1842 19.5724C87.1842 19.5724 88.6892 24.3345 90.7112 31.9131Z" fill="black"/>
<path d="M90.7104 33.0234C90.2268 33.0234 89.7834 32.6972 89.6514 32.202C87.6603 24.7392 86.1538 19.9583 86.1383 19.9104C85.9537 19.3272 86.2724 18.7023 86.8503 18.5157C87.4277 18.3296 88.0454 18.6512 88.2295 19.2349C88.2449 19.2824 89.7653 24.1085 91.7704 31.6241C91.9287 32.2161 91.5822 32.8254 90.997 32.9849C90.9011 33.0109 90.8047 33.0234 90.7104 33.0234Z" fill="black"/>
<path d="M77.9027 39.5488C77.7944 39.5488 77.6846 39.5379 77.5743 39.515C77.5397 39.5082 74.1256 38.8129 71.7231 38.667C70.8147 38.6117 70.1238 37.8232 70.1779 36.9054C70.2326 35.9876 71.0126 35.2918 71.92 35.3439C74.5556 35.5034 78.08 36.2221 78.229 36.2523C79.1199 36.4347 79.6958 37.3135 79.5149 38.2146C79.3566 39.0042 78.6699 39.5488 77.9027 39.5488Z" fill="black"/>
<path d="M65.4354 69.4043C64.908 69.4043 64.396 69.1255 64.1187 68.6288C63.7098 67.897 63.9619 66.9709 64.6842 66.5539C64.8157 66.4789 67.9952 64.6808 75.2658 63.1547C76.0814 62.9833 76.8811 63.5138 77.0502 64.3389C77.2193 65.1639 76.6949 65.9712 75.8788 66.1427C69.148 67.5546 66.2016 69.1937 66.1727 69.2099C65.9391 69.3418 65.6855 69.4043 65.4354 69.4043Z" fill="black"/>
<path d="M68.1271 79.5762C67.5852 79.5762 67.0609 79.2817 66.7907 78.7636C66.402 78.0215 66.6783 77.1011 67.4125 76.7055C67.5166 76.6497 70.0708 75.2936 78.2436 72.6981C79.0386 72.4453 79.8862 72.892 80.1357 73.6967C80.3852 74.5003 79.9434 75.3566 79.1479 75.6089C71.338 78.0892 68.8525 79.3885 68.8282 79.4005C68.6045 79.5199 68.3637 79.5762 68.1271 79.5762Z" fill="black"/>
<path d="M72.7845 88.1924C72.0096 88.1924 71.3497 87.5925 71.2827 86.7961C71.2115 85.9638 71.8163 85.23 72.6366 85.1481C72.7268 85.1367 75.2206 84.7776 80.9867 81.5113C81.7137 81.099 82.6345 81.3612 83.0413 82.0966C83.4491 82.832 83.1903 83.7618 82.4623 84.174C76.0074 87.8302 73.2125 88.1611 72.9145 88.1861C72.8717 88.1903 72.8278 88.1924 72.7845 88.1924Z" fill="black"/>
<path d="M127.343 34.8228C126.767 34.8228 126.23 34.4538 126.04 33.87C125.802 33.143 126.193 32.3586 126.912 32.1183L130.836 30.807C131.555 30.5657 132.332 30.9623 132.569 31.6889C132.807 32.4164 132.416 33.2008 131.697 33.4416L127.773 34.7519C127.631 34.8003 127.485 34.8228 127.343 34.8228Z" fill="black"/>
<path d="M74.7323 53.2998C74.3291 53.2998 73.927 53.1377 73.6295 52.8161C73.0608 52.2006 73.0928 51.2354 73.7016 50.6595L76.065 48.4257L73.066 47.7429C72.2524 47.5574 71.7415 46.7407 71.925 45.9182C72.108 45.0963 72.9149 44.5793 73.7285 44.7654L79.5116 46.0829C80.0565 46.207 80.4896 46.626 80.636 47.1717C80.7825 47.7169 80.619 48.3001 80.2102 48.6857L75.7629 52.8886C75.4721 53.1638 75.1019 53.2998 74.7323 53.2998Z" fill="black"/>
<path d="M133.457 44.3803C133.457 44.3803 133.509 38.3773 130.043 38.2131C126.575 38.0463 127.202 44.643 127.202 44.643C127.202 44.643 127.166 45.6546 128.625 45.5702C130.049 45.4868 133.464 45.4394 133.457 44.3803Z" fill="black"/>
<path d="M59.4646 27.7484L55.6303 28.1769L30.9578 32.2765C30.9578 32.2765 30.9485 38.8085 37.7695 43.2308C45.4128 48.1852 63.8062 47.11 63.8062 47.11L59.4646 27.7484Z" fill="#C8B595"/>
<path d="M32.459 33.4318C32.7982 35.3253 34.0309 39.1581 38.5107 42.0627C43.5545 45.3321 53.8633 45.8205 59.5588 45.8205C60.5569 45.8205 61.4226 45.8053 62.1026 45.7866L58.3977 29.2629L55.8168 29.5511L32.459 33.4318ZM59.5598 48.5947H59.5588C53.5627 48.5947 42.6626 48.049 37.029 44.3976C29.6599 39.6204 29.5857 32.5714 29.5857 32.2738C29.5867 31.5952 30.0729 31.0172 30.7354 30.9067L55.4074 26.8081C55.4311 26.8039 55.4554 26.8008 55.4796 26.7977L59.3139 26.3692C60.0084 26.2926 60.6487 26.7534 60.8034 27.4413L65.1439 46.8024C65.2331 47.2 65.1445 47.6175 64.9027 47.9432C64.6603 48.269 64.2881 48.4702 63.8854 48.4936C63.8148 48.4983 62.132 48.5947 59.5598 48.5947Z" fill="black"/>
<path d="M48.9458 39.9453C48.1394 39.9453 47.4702 39.3011 47.4383 38.4792C47.4058 37.637 48.0539 36.9271 48.887 36.8943L61.0843 36.4065C61.9247 36.3799 62.6192 37.0298 62.6522 37.8715C62.6852 38.7137 62.0366 39.4236 61.204 39.457L49.0061 39.9443C48.986 39.9448 48.9654 39.9453 48.9458 39.9453Z" fill="black"/>
<path d="M136.125 58.1782C135.1 58.1782 134.317 58.0526 134.27 58.0458C133.446 57.9109 132.888 57.127 133.02 56.2952C133.154 55.4644 133.928 54.8979 134.749 55.0323C134.761 55.0344 136.038 55.2335 137.25 55.0495C138.077 54.9255 138.843 55.4988 138.967 56.3322C139.091 57.1656 138.523 57.9421 137.698 58.0672C137.154 58.1501 136.612 58.1782 136.125 58.1782Z" fill="black"/>
<path d="M138.129 66.1055C138.055 66.1055 137.98 66.0997 137.905 66.0888C136.804 65.9225 135.407 65.8647 135.393 65.8636C134.56 65.8303 133.912 65.1194 133.945 64.2782C133.979 63.4365 134.685 62.7688 135.514 62.8147C135.578 62.8173 137.09 62.8809 138.349 63.0701C139.174 63.1946 139.743 63.9702 139.62 64.8041C139.509 65.5613 138.865 66.1055 138.129 66.1055Z" fill="black"/>
<path d="M137.209 73.4307C136.346 73.4307 135.778 73.3483 135.741 73.3431C134.917 73.2206 134.346 72.4456 134.467 71.6122C134.587 70.7799 135.35 70.2024 136.174 70.3223C136.19 70.3249 137.191 70.4604 138.486 70.3015C139.314 70.1967 140.066 70.794 140.166 71.6305C140.268 72.4675 139.679 73.2284 138.852 73.3306C138.242 73.4056 137.682 73.4307 137.209 73.4307Z" fill="black"/>
<path d="M144.501 99.9567L141.54 100.674L137.493 106.567L137.445 106.607L144.025 112.089L147.413 111.266L140.595 105.842L144.501 99.9567Z" fill="black"/>
<path d="M144.501 98.7082C144.473 98.7082 144.443 98.7098 144.414 98.7119C144.335 98.7171 144.26 98.7301 144.187 98.7494L141.253 99.4598C140.957 99.5317 140.699 99.7105 140.526 99.9627L136.557 105.741C136.334 105.975 136.209 106.289 136.211 106.617C136.214 106.987 136.379 107.336 136.661 107.571L143.239 113.052C143.462 113.239 143.741 113.337 144.025 113.337C144.12 113.337 144.217 113.326 144.313 113.304L147.701 112.482C148.162 112.37 148.519 112.003 148.62 111.535C148.721 111.067 148.55 110.582 148.177 110.286L142.258 105.577L145.508 100.68C145.653 100.477 145.737 100.227 145.737 99.957C145.737 99.2831 145.209 98.7338 144.548 98.7093C144.533 98.7082 144.517 98.7082 144.501 98.7082ZM144.501 99.957L140.595 105.842L147.413 111.267L144.025 112.09L137.445 106.607L137.493 106.567L141.54 100.674L144.501 99.957ZM144.501 99.957H144.502Z" fill="black"/>
<path d="M132.608 102.871C132.608 102.871 133.367 102.857 133.635 103.991L135.999 113.949L138.935 113.239L136.263 101.984L132.608 102.871Z" fill="black"/>
<path d="M136.263 100.735C136.166 100.735 136.07 100.747 135.974 100.77L132.32 101.658C131.707 101.806 131.303 102.398 131.384 103.03C131.453 103.574 131.86 103.997 132.374 104.097C132.392 104.134 132.414 104.193 132.434 104.283L134.798 114.241C134.933 114.813 135.439 115.198 135.997 115.198C136.092 115.198 136.189 115.187 136.286 115.164L139.223 114.453C139.542 114.376 139.817 114.175 139.988 113.892C140.16 113.61 140.214 113.27 140.136 112.948L137.464 101.692C137.387 101.371 137.187 101.092 136.908 100.919C136.713 100.798 136.489 100.735 136.263 100.735ZM136.263 101.984L138.936 113.239L135.998 113.949L133.636 103.991C133.374 102.884 132.645 102.872 132.61 102.872H132.609L136.263 101.984Z" fill="black"/>
<path d="M144.501 99.9567L141.54 100.674L137.493 106.567L137.445 106.607L144.025 112.089L147.413 111.266L140.595 105.842L144.501 99.9567Z" fill="white"/>
<path d="M132.608 102.871C132.608 102.871 133.367 102.857 133.635 103.991L135.999 113.949L138.935 113.239L136.263 101.984L132.608 102.871Z" fill="white"/>
<path d="M75.9912 109.045C75.9912 109.045 72.01 125.608 52.588 130.146C36.4611 133.915 23.5935 121.99 20.4351 104.842C20.4351 104.842 14.3824 80.204 25.6006 76.7892C25.6006 76.7892 35.036 76.7355 40.1494 88.1683C40.1494 88.1683 43.4248 93.3374 41.4311 98.3116C41.4311 98.3116 42.8809 109.695 49.0512 108.095C52.4339 107.217 56.079 100.478 56.079 100.478C56.079 100.478 60.0957 85.6124 67.5158 84.2406" fill="#C8B595"/>
<path d="M46.7649 132.035C33.0874 132.035 23.1504 122.692 18.5262 105.275C18.2571 104.226 12.1492 79.7852 25.108 75.168C25.2384 75.1216 25.374 75.0955 25.5117 75.0893C25.9576 75.0742 36.4855 74.8063 41.9176 86.939C42.1124 87.3554 44.7449 93.1677 42.8404 98.4713C43.1503 100.454 44.2459 104.904 46.4138 106.387C47.1083 106.862 47.8378 106.978 48.7102 106.751C50.7028 106.234 53.2951 102.364 54.5 99.9833C54.9975 98.4901 59.979 84.1611 68.573 82.1826C69.3107 82.0117 70.047 82.4792 70.2156 83.2266C70.3836 83.9734 69.9212 84.7172 69.1819 84.8866C61.819 86.5825 57.1206 100.807 57.0737 100.952C57.0531 101.017 57.0263 101.082 56.9954 101.143C56.6252 101.886 53.2673 108.433 49.3928 109.438C47.7713 109.859 46.2076 109.598 44.8718 108.681C41.1411 106.125 40.1688 99.263 40.0703 98.489C40.0404 98.2524 40.0708 98.0121 40.1595 97.7911C41.9047 93.434 39.4598 88.1732 39.4351 88.12C39.431 88.1122 39.4269 88.1023 39.4227 88.0934C35.1043 78.4364 27.2063 77.8829 25.8122 77.8615C15.4869 81.8642 21.1211 104.339 21.1799 104.568C24.5166 117.136 32.3981 131.58 50.9735 128.954C65.4517 126.908 72.7063 113.369 72.7774 113.233C73.1321 112.557 73.9617 112.297 74.6314 112.656C75.3011 113.014 75.5579 113.85 75.2047 114.528C74.8871 115.137 67.2505 129.455 51.353 131.702C49.7815 131.924 48.2503 132.035 46.7649 132.035Z" fill="black"/>
<path d="M36.733 105.734C36.3556 105.734 35.9808 105.579 35.7091 105.272C35.2043 104.701 35.2528 103.824 35.8179 103.313C39.5418 99.9471 40.0852 97.6148 40.0909 97.5914C40.2255 96.8372 40.9385 96.3515 41.6835 96.4875C42.429 96.6246 42.9214 97.3589 42.7853 98.112C42.7286 98.4331 42.0944 101.362 37.6466 105.382C37.3852 105.618 37.0583 105.734 36.733 105.734Z" fill="black"/>
<path d="M20.9961 112.992C20.9961 112.992 18.3595 108.343 19.2602 104.091C19.2602 104.091 30.6666 108.681 38.3409 99.2128C38.3409 99.2128 41.6993 93.7976 42.2659 91.815C42.2659 91.815 44.5844 95.4451 44.5066 99.9112C44.5066 99.9112 41.2208 118.792 20.9961 112.992Z" fill="#D51317"/>
<path d="M21.9384 111.816C24.1667 112.411 26.2727 112.712 28.2051 112.712C40.238 112.712 42.8756 101.09 43.1354 99.772C43.1489 97.9937 42.7441 96.3635 42.293 95.1043C41.1686 97.25 39.7363 99.5745 39.5033 99.9492C39.4723 99.9993 39.4388 100.047 39.4022 100.092C35.0488 105.462 29.5739 106.59 25.7469 106.59C23.5712 106.59 21.7017 106.235 20.4442 105.91C20.4288 108.38 21.4527 110.806 21.9384 111.816ZM28.2051 115.486C25.8557 115.486 23.3041 115.096 20.6216 114.327C20.2767 114.228 19.9838 113.996 19.8055 113.682C19.6869 113.474 16.9193 108.518 17.9185 103.799C18.003 103.4 18.2572 103.059 18.614 102.867C18.9708 102.674 19.392 102.651 19.7678 102.801C19.79 102.811 22.3591 103.815 25.7469 103.815C30.422 103.815 34.2831 101.993 37.2245 98.4013C38.4891 96.3546 40.5793 92.7209 40.9484 91.4299C41.0974 90.9077 41.5351 90.5225 42.0672 90.4428C42.5982 90.3651 43.1277 90.607 43.4195 91.063C43.5232 91.2261 45.9628 95.1032 45.8788 99.9357C45.8772 100.008 45.8705 100.08 45.8577 100.151C45.8308 100.308 45.1611 104.03 42.6823 107.777C40.3555 111.293 35.9546 115.486 28.2051 115.486Z" fill="black"/>
<path d="M67.11 85.0343C67.11 85.0343 62.8261 81.6565 55.885 95.6988C55.885 95.6988 49.5477 107.224 47.9788 104.029C47.9788 104.029 46.743 98.5638 44.6291 99.2585C44.6291 99.2585 38.7924 115.07 20.9599 111.83C20.9599 111.83 19.5921 116.354 24.2642 124.776C24.2642 124.776 33.878 141.373 54.8152 134.454C54.8152 134.454 69.8801 128.499 74.6579 116.43C74.6579 116.43 79.0284 92.5373 67.11 85.0343Z" fill="white"/>
<path d="M25.453 124.084C25.7891 124.654 31.9342 134.755 44.9832 134.755C47.9616 134.755 51.1123 134.214 54.3475 133.15C55.109 132.838 68.8803 127.058 73.3307 116.048C73.6452 114.166 76.9314 92.8517 66.3845 86.2123C66.3128 86.1669 66.3288 86.1894 66.2927 86.155C66.2282 86.1258 66.0669 86.0653 65.8096 86.0653C64.9584 86.0653 61.8155 86.8049 57.112 96.3191C57.1037 96.3374 57.0939 96.3551 57.0846 96.3723C57.0331 96.4661 55.8138 98.6775 54.2918 100.926C51.2819 105.375 49.7981 105.976 48.7443 105.977H48.7427C47.891 105.977 47.1651 105.492 46.7495 104.646C46.7011 104.549 46.6645 104.445 46.6408 104.338C46.3536 103.076 45.8071 101.717 45.3493 101.022C44.6981 102.347 43.4556 104.524 41.4598 106.705C38.5587 109.875 33.4566 113.654 25.6262 113.655C24.4997 113.655 23.3365 113.576 22.1523 113.42C22.1172 115.16 22.5163 118.785 25.453 124.084ZM44.9832 137.528C30.2307 137.528 23.3649 125.969 23.0798 125.478C18.1649 116.617 19.5853 111.633 19.6477 111.425C19.8508 110.753 20.519 110.341 21.2026 110.464C22.7215 110.74 24.2094 110.881 25.6252 110.88C38.7216 110.88 43.2988 98.8948 43.3447 98.7734C43.4901 98.3773 43.8077 98.0708 44.2052 97.9395C44.4651 97.8535 44.7332 97.8108 44.9992 97.8108C47.361 97.8108 48.6092 101.109 49.1176 102.936C50.3338 101.952 52.7152 98.6025 54.6713 95.0511C58.5323 87.2468 62.28 83.2905 65.8096 83.2905C66.9 83.2905 67.61 83.6997 67.8677 83.8779C80.3966 91.8098 76.1921 115.67 76.007 116.682C75.9905 116.773 75.9653 116.861 75.9318 116.946C70.9905 129.43 55.953 135.495 55.3152 135.746C55.291 135.756 55.2662 135.765 55.242 135.773C51.716 136.938 48.2648 137.528 44.9832 137.528Z" fill="black"/>
<path d="M48.6412 104.581C48.6412 104.581 50.9252 104.341 53.0359 105.434Z" fill="black"/>
<path d="M53.0351 106.821C52.8247 106.821 52.6108 106.772 52.4107 106.669C50.7094 105.789 48.8028 105.96 48.7837 105.961C48.03 106.04 47.3551 105.487 47.2762 104.726C47.1983 103.964 47.7454 103.281 48.4991 103.202C48.6089 103.19 51.2162 102.933 53.662 104.2C54.3364 104.549 54.6035 105.385 54.2575 106.067C54.0147 106.547 53.5336 106.821 53.0351 106.821Z" fill="black"/>
<mask id="mask0_1190_1782" style="mask-type:luminance" maskUnits="userSpaceOnUse" x="18" y="84" width="57" height="53">
<path d="M55.1681 95.6988C55.1681 95.6988 48.6055 107.224 46.9809 104.029C46.9809 104.029 45.7013 98.5643 43.5127 99.2585C43.5127 99.2585 37.4671 115.071 18.9995 111.83C18.9995 111.83 17.5827 116.354 22.4208 124.776C22.4208 124.776 32.3774 141.373 54.0612 134.454C54.0612 134.454 68.4415 128.65 73.3889 116.582C73.3889 116.582 79.5545 94.9196 66.7937 85.0343C66.7937 85.0343 66.3251 84.6778 65.447 84.6778C63.6214 84.6778 60.0227 86.2169 55.1681 95.6988Z" fill="white"/>
</mask>
<g mask="url(#mask0_1190_1782)">
<path d="M59.7687 89.0442C54.9327 89.5284 51.4088 93.946 51.898 98.9181C52.3868 103.888 56.7026 107.525 61.5397 107.041C66.3762 106.559 69.9002 102.14 69.4109 97.1706C68.9216 92.2 64.6053 88.5616 59.7687 89.0442ZM61.5093 106.736C56.8331 107.202 52.6688 103.693 52.1955 98.8884C51.7228 94.0825 55.1209 89.8062 59.7976 89.3392C64.4733 88.8733 68.6401 92.3939 69.1134 97.1992C69.5857 102.005 66.1865 106.269 61.5093 106.736Z" fill="#D11317"/>
</g>
<path d="M57.4688 99.1945C57.3734 98.9308 57.311 98.6504 57.2832 98.3674C57.1775 97.2958 57.5647 96.2941 58.2375 95.5967C58.0869 95.4805 57.7724 95.345 57.4095 95.6551C57.3559 95.6968 57.277 95.7166 57.2058 95.7004C57.193 95.6885 56.6568 95.529 56.3062 95.9694C56.1618 96.1476 56.1164 96.2722 56.07 96.3837C56.0082 96.5802 55.9303 96.7308 55.6916 96.8981C55.8447 97.1551 55.8494 97.3219 55.8355 97.5376C55.8246 97.657 55.8138 97.7904 55.87 98.0093C56.0185 98.5654 56.5588 98.654 56.582 98.6524C56.6521 98.6577 56.715 98.7098 56.7563 98.7775C56.9594 99.1971 57.2863 99.2231 57.4688 99.1945ZM64.2495 99.7673C64.3274 99.2706 64.0526 99.0611 63.883 98.9813C63.5432 100.229 62.5167 101.211 61.2211 101.448C61.2835 101.62 61.4639 101.911 61.9228 101.877C62.0032 101.868 62.0646 101.911 62.1053 101.965C62.1187 101.987 62.4641 102.442 63.005 102.292C63.2194 102.235 63.3282 102.165 63.4257 102.096C63.5994 101.984 63.7412 101.898 64.032 101.916C64.05 101.617 64.1516 101.477 64.2748 101.321C64.3573 101.218 64.4398 101.115 64.5228 100.904C64.7259 100.372 64.3274 99.9726 64.315 99.9627C64.2516 99.9085 64.2336 99.8387 64.2495 99.7673ZM57.6503 99.6276C57.4992 99.7376 57.2945 100.009 57.4652 100.455C57.494 100.51 57.4801 100.595 57.4394 100.66C57.4296 100.673 57.1156 101.133 57.4183 101.625C57.5415 101.816 57.642 101.9 57.7307 101.974C57.8946 102.113 58.0106 102.232 58.0962 102.522C58.3674 102.446 58.5345 102.501 58.7273 102.576C58.8361 102.625 58.9562 102.672 59.1774 102.686C59.7363 102.715 59.976 102.215 59.9853 102.189C60.0147 102.127 60.0786 102.073 60.1472 102.066C60.6153 101.997 60.7349 101.686 60.7622 101.493C59.4352 101.532 58.238 100.782 57.6503 99.6276ZM63.6097 97.7357C63.4442 96.0517 61.9805 94.8191 60.3415 94.9817C58.7025 95.1454 57.4956 96.6454 57.6616 98.3303C57.8276 100.014 59.3027 101.247 60.9416 101.083C62.5806 100.92 63.7757 99.4207 63.6097 97.7357ZM60.9489 95.7421L61.002 95.4638L61.1855 95.6832L61.4495 95.6567L61.3103 95.8849L61.4165 96.1476L61.1551 96.0783L60.953 96.2649L60.9257 95.9829L60.6921 95.8396L60.9489 95.7421ZM60.0554 98.543L61.3278 98.4174C61.3737 98.4122 61.4108 98.4434 61.4165 98.4909L61.4242 98.5852C61.4294 98.6316 61.4 98.6827 61.3541 98.6868L60.0812 98.8145C60.0358 98.8182 59.9966 98.7744 59.993 98.728L59.9832 98.6332C59.9781 98.5863 60.0095 98.5487 60.0554 98.543ZM60.0136 98.2381L60.0043 98.1438C59.9997 98.0963 60.0425 98.0567 60.0874 98.052L61.1994 97.9415C61.2448 97.9369 61.2948 97.9666 61.2995 98.0145L61.3087 98.1088C61.3129 98.1563 61.2716 98.2079 61.2268 98.2115L60.1147 98.3236C60.0688 98.3277 60.0183 98.2855 60.0136 98.2381ZM61.3273 97.7138L59.9177 97.855C59.8724 97.8592 59.8223 97.8175 59.8172 97.7706L59.8074 97.6763C59.8028 97.6283 59.8456 97.5887 59.8909 97.584L61.301 97.4428C61.3464 97.4386 61.3959 97.4693 61.4 97.5157L61.4098 97.6122C61.4149 97.658 61.3737 97.7096 61.3273 97.7138ZM59.9878 99.0371L61.4892 98.888C61.5356 98.8828 61.5732 98.9141 61.5773 98.962L61.5871 99.0553C61.5918 99.1043 61.5614 99.1543 61.5165 99.159L60.0141 99.3091C59.9688 99.3143 59.9306 99.27 59.9249 99.2226L59.9162 99.1272C59.9105 99.0809 59.9414 99.0407 59.9878 99.0371ZM61.2536 96.9607C61.2989 96.9565 61.3489 96.9867 61.3536 97.0342L61.3629 97.128C61.367 97.1744 61.3252 97.2275 61.2809 97.2317L59.8703 97.3719C59.8239 97.3771 59.7739 97.3344 59.7692 97.2869L59.7605 97.1931C59.7553 97.1452 59.7981 97.1061 59.8435 97.1003L61.2536 96.9607ZM59.6842 95.8333L59.8218 95.5811L59.928 95.8448L60.1997 95.8881L59.9976 96.0747L60.025 96.3571L59.7909 96.2143L59.5476 96.3342L59.6022 96.0554L59.4197 95.8589L59.6842 95.8333ZM59.7569 99.6318C59.7527 99.5843 59.795 99.5447 59.8404 99.5405L61.7315 99.3514C61.7779 99.3456 61.8274 99.3774 61.8315 99.4233L61.8408 99.5187C61.8454 99.565 61.8042 99.6177 61.7583 99.6213L59.8677 99.8116C59.8213 99.8142 59.7718 99.7735 59.7667 99.7261L59.7569 99.6318ZM59.679 100.126C59.6744 100.078 59.7043 100.041 59.7502 100.036L61.9176 99.8204C61.963 99.8157 62.0006 99.8475 62.0053 99.8934L62.0145 99.9882C62.0197 100.036 61.9898 100.087 61.9434 100.091L59.7775 100.308C59.7321 100.312 59.6924 100.269 59.6878 100.221L59.679 100.126ZM58.733 98.5091L58.4984 98.3647L58.2555 98.4846L58.3081 98.2063L58.1277 98.0103L58.3911 97.9838L58.5288 97.732L58.6355 97.9957L58.9067 98.039L58.7041 98.2256L58.733 98.5091ZM59.0248 97.2426L58.7907 97.0998L58.5355 97.2207L58.6025 96.9518L58.4087 96.7449L58.6835 96.7178L58.8087 96.4671L58.9278 96.7293L59.1995 96.7856L58.9856 96.9727L59.0248 97.2426ZM62.1538 100.462C62.1579 100.51 62.1285 100.562 62.0831 100.564L59.7332 100.799C59.6878 100.804 59.6486 100.76 59.644 100.713L59.6347 100.631C59.63 100.572 59.661 100.532 59.7063 100.528L62.0558 100.293C62.1017 100.291 62.1403 100.321 62.1455 100.379L62.1538 100.462ZM61.8465 96.5208L62.1017 96.4119L62.1672 96.1325L62.3394 96.353L62.6147 96.3253L62.4646 96.5672L62.5822 96.8153L62.3095 96.7491L62.1079 96.9346L62.0924 96.6636L61.8465 96.5208ZM62.378 97.6929L62.6353 97.5944L62.6889 97.3177L62.8725 97.5361L63.1359 97.5095L62.9962 97.7378L63.1029 98.001L62.8426 97.9316L62.6399 98.1187L62.6136 97.8357L62.378 97.6929ZM60.3018 94.5809C60.9551 94.5158 61.5938 94.6555 62.1429 94.9452C62.194 94.7618 62.229 94.4022 61.8197 94.1327C61.7578 94.0926 61.7279 94.0227 61.7217 93.9524C61.73 93.9279 61.7093 93.3587 61.1912 93.1482C60.986 93.0622 60.8586 93.0627 60.7303 93.0528C60.5215 93.0492 60.356 93.0179 60.1307 92.8391C59.943 93.0596 59.7878 93.1227 59.5955 93.1659C59.4718 93.2024 59.347 93.2264 59.1619 93.3515C58.6948 93.6595 58.785 94.2213 58.7871 94.2448C58.8062 94.3146 58.7897 94.3876 58.7371 94.4402C58.3896 94.7847 58.4912 95.1188 58.5773 95.2892C59.0609 94.9072 59.6486 94.6466 60.3018 94.5809ZM60.0203 91.6008C56.5583 91.9469 54.0346 95.112 54.3836 98.6577C54.7332 102.214 57.8256 104.819 61.2866 104.473C64.7476 104.128 67.2615 100.964 66.9109 97.4063C66.5613 93.8617 63.4813 91.2547 60.0203 91.6008ZM65.7864 95.8657C65.7756 95.8782 65.7663 95.8907 65.7689 95.9146C65.6137 96.2164 65.6323 96.2977 65.6854 96.4702C65.7205 96.5979 65.7612 96.7845 65.7447 97.0831C65.7086 97.7763 65.2183 98.087 64.9976 98.1933C64.8713 98.5623 64.6599 98.7614 64.4279 98.8682C64.597 99.0642 64.7053 99.3394 64.6733 99.7235C64.8316 99.9221 65.1585 100.424 64.9105 101.068C64.8089 101.339 64.6862 101.494 64.6027 101.597C64.4893 101.727 64.4377 101.793 64.4485 102.148C64.4501 102.16 64.4511 102.171 64.4516 102.185L64.4537 102.196L64.4439 102.209L64.4346 102.234L64.4253 102.259L64.4264 102.268L64.4047 102.283L64.3939 102.297L64.3841 102.31L64.3624 102.324L64.3521 102.337C64.3521 102.337 64.3418 102.35 64.331 102.351C64.3088 102.364 64.2743 102.369 64.2506 102.371C64.2397 102.372 64.2171 102.374 64.2042 102.363C63.8747 102.313 63.7979 102.355 63.6577 102.454C63.5499 102.536 63.386 102.635 63.1153 102.71C62.461 102.882 62.0176 102.498 61.8496 102.313C61.4665 102.302 61.2087 102.151 61.0386 101.954C60.9107 102.18 60.6885 102.393 60.3152 102.479C60.1853 102.693 59.826 103.157 59.1511 103.116C58.8593 103.099 58.6917 103.032 58.5695 102.974C58.4009 102.907 58.3287 102.878 58.0039 102.994C57.9266 103.026 57.8317 103 57.7802 102.945L57.7663 102.923L57.7534 102.913C57.74 102.89 57.7358 102.854 57.7224 102.831C57.6766 102.48 57.6126 102.426 57.4745 102.31C57.3615 102.225 57.2234 102.108 57.0718 101.861C56.7021 101.28 56.9249 100.723 57.0414 100.497C56.9249 100.128 56.9878 99.8355 57.1156 99.6088C56.8671 99.5515 56.6093 99.3988 56.4258 99.0595C56.1886 99.0011 55.6354 98.7937 55.4653 98.1208C55.39 97.83 55.406 97.6398 55.4163 97.5079C55.4215 97.3291 55.4354 97.2322 55.224 96.968C55.1977 96.9346 55.1812 96.8887 55.1766 96.8408C55.1755 96.8304 55.1755 96.8304 55.1745 96.8173L55.1724 96.8054C55.1714 96.7949 55.1822 96.7824 55.1817 96.771C55.1987 96.7084 55.241 96.6678 55.2838 96.6401C55.5926 96.4796 55.62 96.4051 55.6834 96.2315C55.7298 96.1091 55.7922 95.924 55.9772 95.69C56.4005 95.1615 56.9847 95.21 57.2208 95.259C57.5348 95.0359 57.8323 95.0067 58.0797 95.0531C58.0545 94.7941 58.1179 94.5028 58.3674 94.2156C58.3422 93.9571 58.3648 93.3593 58.9418 92.9929C59.18 92.8266 59.3614 92.7839 59.4965 92.7479C59.6538 92.7078 59.7455 92.6875 59.9244 92.3946L59.9358 92.3951C59.9347 92.382 59.9451 92.369 59.9554 92.357L59.9672 92.3555C59.9657 92.3435 59.977 92.3424 59.9878 92.3294L59.9992 92.3284L60.0203 92.3148L60.0435 92.3122L60.0652 92.2987L60.077 92.2971L60.1002 92.2945L60.1126 92.3049C60.1466 92.3018 60.1827 92.3096 60.2183 92.3304C60.2317 92.3409 60.2456 92.3633 60.258 92.3742C60.49 92.6124 60.5828 92.615 60.7457 92.6228C60.8855 92.6317 61.0711 92.6379 61.3371 92.7542C61.9635 92.9991 62.1012 93.5813 62.1383 93.8398C62.4394 94.0712 62.5585 94.3443 62.5837 94.6028C62.8163 94.496 63.1153 94.4678 63.4654 94.6226C63.6994 94.5272 64.2506 94.3657 64.7806 94.8118C65.0079 95.0041 65.1033 95.1605 65.174 95.284C65.258 95.4299 65.3111 95.5081 65.6328 95.5962C65.6457 95.6061 65.6684 95.6035 65.6813 95.6144C65.7292 95.6342 65.7565 95.6791 65.7725 95.7244L65.7741 95.7354L65.7875 95.7588L65.7901 95.7828C65.7926 95.8052 65.7962 95.8412 65.7864 95.8657ZM64.8141 95.5107C64.7455 95.3992 64.6883 95.2856 64.5135 95.148C64.0706 94.7753 63.587 95.038 63.5659 95.0531C63.5112 95.0823 63.4303 95.0901 63.3684 95.049C62.9281 94.8191 62.6497 95.037 62.5244 95.1678C63.321 95.7307 63.8835 96.6386 63.9881 97.6981C64.0155 97.9817 64.0093 98.2678 63.9773 98.532C64.1614 98.5268 64.4919 98.457 64.6187 97.9812C64.6342 97.9077 64.6867 97.855 64.7527 97.8253C64.7764 97.8238 65.3018 97.6382 65.3369 97.0519C65.3379 96.8272 65.3147 96.71 65.2786 96.5828C65.2234 96.3749 65.1966 96.2096 65.2967 95.9381C65.0306 95.8219 64.9249 95.69 64.8141 95.5107Z" fill="#D11317"/>
<path d="M55.8187 102.773L55.5939 103.544L55.8903 103.502L56.2156 103.16L56.4095 103.368L55.3387 104.485L55.1463 104.289L55.6068 103.792L54.786 103.922L54.5426 103.684L55.3072 103.572L55.5866 102.533L55.8187 102.773Z" fill="#D11317"/>
<path d="M54.7132 102.358L55.2195 101.987L55.3824 102.221L54.8746 102.591L54.3843 103.486L54.2085 103.231L54.5565 102.648L53.9002 102.797L53.7238 102.541L54.7132 102.358Z" fill="#D11317"/>
<path d="M54.7127 101.063C54.8442 101.336 54.7472 101.654 54.4601 101.79L53.5547 102.237L53.4367 101.975L54.3317 101.542C54.4864 101.466 54.5426 101.329 54.4817 101.181C54.4101 101.046 54.2781 100.998 54.1121 101.075L53.2191 101.521L53.1 101.26L54.0059 100.825C54.293 100.677 54.5946 100.802 54.7127 101.063Z" fill="#D11317"/>
<mask id="mask1_1190_1782" style="mask-type:luminance" maskUnits="userSpaceOnUse" x="18" y="84" width="57" height="53">
<path d="M55.1681 95.6988C55.1681 95.6988 48.6055 107.224 46.9809 104.029C46.9809 104.029 45.7013 98.5643 43.5127 99.2585C43.5127 99.2585 37.4671 115.071 18.9995 111.83C18.9995 111.83 17.5827 116.354 22.4208 124.776C22.4208 124.776 32.3774 141.373 54.0612 134.454C54.0612 134.454 68.4415 128.65 73.3889 116.582C73.3889 116.582 79.5545 94.9196 66.7937 85.0343C66.7937 85.0343 66.3251 84.6778 65.447 84.6778C63.6214 84.6778 60.0227 86.2169 55.1681 95.6988Z" fill="white"/>
</mask>
<g mask="url(#mask1_1190_1782)">
<path d="M54.8333 94.5207C54.8823 94.6708 54.8838 94.8021 54.806 94.9522C54.7281 95.1029 54.6199 95.1842 54.474 95.2227C54.2708 95.279 54.1115 95.1883 53.8671 95.0575C53.6356 94.9387 53.4645 94.8485 53.3974 94.64C53.3495 94.5035 53.3474 94.3591 53.4243 94.209C53.5026 94.0589 53.6099 93.9771 53.7568 93.938C53.9594 93.8822 54.1192 93.974 54.3631 94.1037C54.5967 94.2356 54.7678 94.3253 54.8333 94.5207ZM53.8187 94.2184C53.7501 94.2241 53.696 94.2658 53.6583 94.3414C53.6295 94.4034 53.6264 94.4873 53.6542 94.5436C53.6851 94.6244 53.7367 94.6666 54.0053 94.8047C54.2615 94.947 54.3342 94.9741 54.4121 94.9559C54.4807 94.9382 54.5343 94.896 54.5745 94.8334C54.6013 94.7584 54.6065 94.6859 54.5781 94.6307C54.5461 94.5499 54.4956 94.4952 54.2265 94.356C53.9697 94.2148 53.8986 94.1981 53.8187 94.2184Z" fill="#D11317"/>
</g>
<path d="M58.5473 90.2852L58.9133 91.533L58.6437 91.6064L58.2786 90.3723L57.9188 90.4781L57.8461 90.2117L58.8236 89.9121L58.9076 90.1779L58.5473 90.2852Z" fill="#D11317"/>
<path d="M59.4231 91.4111L59.154 89.8554L59.4277 89.8163L59.6948 91.3585L59.4231 91.4111Z" fill="#D11317"/>
<path d="M60.7938 91.1185C60.701 91.2347 60.5799 91.2941 60.419 91.2983C60.2576 91.3155 60.1246 91.2566 60.0215 91.1487C59.8797 90.9965 59.871 90.7943 59.856 90.5228C59.8405 90.2512 59.8338 90.0605 59.9679 89.8937C60.072 89.7759 60.1932 89.716 60.3546 89.7118C60.5149 89.6957 60.6371 89.7546 60.7407 89.864C60.8939 90.0146 60.9021 90.2163 60.9062 90.4889C60.9201 90.75 60.9284 90.9507 60.7938 91.1185ZM60.5397 90.0626C60.5 90.0063 60.4386 89.9781 60.3582 89.9849C60.2891 89.9792 60.2236 90.023 60.1824 90.0735C60.1303 90.1392 60.1262 90.2111 60.1339 90.5186C60.1499 90.8147 60.1695 90.885 60.2226 90.9507C60.2628 91.0044 60.3339 91.0336 60.4035 91.0273C60.4855 91.0309 60.5386 90.9898 60.5794 90.9382C60.6314 90.873 60.6469 90.8001 60.6294 90.4941C60.6232 90.196 60.6031 90.1152 60.5397 90.0626Z" fill="#D11317"/>
<path d="M61.9926 91.4157L61.5646 90.3645L61.4275 91.3172L61.1573 91.2729L61.3749 89.7292L61.6224 89.7641L62.0483 90.8023L62.1854 89.8496L62.4561 89.8949L62.2282 91.4512L61.9926 91.4157Z" fill="#D11317"/>
<path d="M63.246 91.8021L63.2522 91.5159L62.7727 91.3382L62.6093 91.5681L62.333 91.4649L63.3275 90.1645L63.5327 90.251L63.5219 91.9053L63.246 91.8021ZM63.2935 90.643L62.9357 91.1193L63.2718 91.2397L63.2935 90.643Z" fill="#D11317"/>
<path d="M63.5972 91.9566L64.3541 90.5984L64.5995 90.7386L63.9705 91.8722L64.5345 92.1969L64.4072 92.4346L63.5972 91.9566Z" fill="#D11317"/>
<path d="M65.2043 93.1175C64.9873 92.9132 64.9558 92.5947 65.1749 92.3466L65.8524 91.5894L66.0566 91.7827L65.3884 92.527C65.2744 92.6583 65.2672 92.8131 65.3817 92.921C65.4946 93.0164 65.6338 93.0138 65.7586 92.872L66.4257 92.1272L66.6304 92.3201L65.9524 93.0779C65.7338 93.326 65.4209 93.3218 65.2043 93.1175Z" fill="#D11317"/>
<path d="M66.2516 94.3566L66.6697 93.3152L65.916 93.8781L65.7536 93.6457L66.9827 92.7247L67.1306 92.9358L66.7115 93.9662L67.4663 93.4028L67.6276 93.6368L66.3985 94.5557L66.2516 94.3566Z" fill="#D11317"/>
<path d="M66.5033 94.7954L67.8551 94.0657L67.9835 94.3143L66.6441 95.0435L66.5033 94.7954Z" fill="#D11317"/>
<path d="M66.9469 95.7734L66.8701 95.5785L68.1239 94.5622L68.2317 94.8358L67.4042 95.4784L68.4364 95.3878L68.5446 95.6614L66.9469 95.7734Z" fill="#D11317"/>
<path d="M67.14 96.3261L68.6356 96.0102L68.8223 96.9536L68.5624 97.0156L68.4268 96.3527L68.0757 96.422L68.1886 96.9823L67.9283 97.0438L67.8143 96.4715L67.4514 96.5445L67.5865 97.2199L67.3251 97.271L67.14 96.3261Z" fill="#D11317"/>
<path d="M67.3635 98.2423L67.9703 97.9441L67.9626 97.7419L67.3506 97.7555L67.3455 97.4699L68.8808 97.4365L68.8911 98.0067C68.8973 98.3027 68.6952 98.4898 68.4416 98.4914C68.2225 98.5013 68.0822 98.3715 68.0229 98.2344L67.3728 98.5737L67.3635 98.2423ZM68.6246 97.9978L68.6194 97.7232L68.2158 97.7278L68.2188 98.002C68.2204 98.1333 68.3091 98.2073 68.424 98.2079C68.5519 98.2073 68.6246 98.1156 68.6246 97.9978Z" fill="#D11317"/>
<path d="M67.2774 99.1306C67.3135 98.9128 67.3898 98.7507 67.5646 98.6381L67.7239 98.8482C67.6146 98.9196 67.5692 99.041 67.5471 99.1749C67.5182 99.3443 67.5749 99.4454 67.6914 99.4579C67.7518 99.4751 67.7951 99.46 67.8275 99.4319C67.8611 99.4173 67.8806 99.3792 67.8971 99.3188L67.9502 99.1473C67.9848 99.0248 68.0451 98.9352 68.1204 98.8799C68.1967 98.8247 68.2983 98.8143 68.4266 98.8257C68.6983 98.8695 68.8587 99.0905 68.8195 99.4037C68.7834 99.6106 68.7133 99.7363 68.5751 99.8457L68.4158 99.6362C68.5122 99.5674 68.5468 99.4559 68.5612 99.3584C68.5808 99.2036 68.5029 99.115 68.3978 99.1025C68.3612 99.0947 68.3153 99.0983 68.2838 99.1249C68.2519 99.153 68.2204 99.1911 68.2034 99.2526L68.1621 99.423C68.1163 99.546 68.0657 99.6226 68.0018 99.6768C67.9167 99.7446 67.8012 99.7561 67.661 99.7347C67.3671 99.6925 67.2377 99.4314 67.2774 99.1306Z" fill="#D11317"/>
<path d="M67.1621 99.8431L68.6294 100.28L68.5516 100.549L67.0858 100.125L67.1621 99.8431Z" fill="#D11317"/>
<path d="M67.9745 101.392L66.8011 100.89L66.9161 100.63L68.0761 101.132L68.2251 100.773L68.4674 100.879L68.0771 101.846L67.8343 101.739L67.9745 101.392Z" fill="#D11317"/>
<path d="M66.8379 102.196L66.3064 101.856L66.444 101.605L66.9869 101.941L67.9814 102.058L67.8232 102.323L67.1534 102.223L67.5447 102.791L67.3854 103.056L66.8379 102.196Z" fill="#D11317"/>
<path d="M60.2249 106.031L60.1398 106.586L59.9052 106.55L59.9753 106.08L58.8689 105.893L58.906 105.686L59.4489 105.79L59.4788 105.619L58.8436 105.515L58.8699 105.323L60.3883 105.575L60.3604 105.756L59.7134 105.654L59.684 105.824L60.1418 105.897C60.1418 105.897 60.2362 105.912 60.2249 106.031Z" fill="#D11317"/>
<path d="M59.0686 105.219L60.3158 105.427L60.4138 104.775L60.1787 104.74L60.157 104.872L59.2867 104.733L59.3084 104.601L59.0733 104.565L58.9995 105.106C58.9995 105.106 58.9743 105.204 59.0686 105.219ZM60.1297 105.065L60.1183 105.185L59.2362 105.047L59.2589 104.914L60.1297 105.065Z" fill="#D11317"/>
<path d="M60.968 106.183L61.5073 106.129L61.4882 105.928L61.0288 105.975L60.9381 105.044L61.3619 105.002L61.3413 104.789L60.688 104.855L60.8051 106.044C60.8051 106.044 60.8082 106.198 60.968 106.183Z" fill="#D11317"/>
<path d="M61.972 105.202L61.7539 105.224L61.7064 104.742L61.4775 104.765L61.6152 106.166L61.8446 106.143L61.775 105.435L61.9931 105.414L62.0617 106.121L62.2916 106.098L62.1529 104.696L61.9245 104.72L61.972 105.202Z" fill="#D11317"/>
<path d="M65.5218 104.348L65.1841 103.846L64.9887 103.986L65.3388 104.486L65.1243 104.651L64.7732 104.15L64.5897 104.288L64.9294 104.789L64.6804 104.967L64.801 105.135L66.1075 104.184L65.9874 104.017L65.5218 104.348Z" fill="#D11317"/>
<path d="M65.3111 103.263L65.7292 103.865L65.5343 104.002L65.1569 103.457L64.2165 104.134L64.0954 103.968L65.1219 103.223C65.1219 103.223 65.2301 103.14 65.3111 103.263Z" fill="#D11317"/>
<path d="M64.0209 105.2L62.8712 105.637L62.9464 105.819L63.9637 105.444L64.1209 105.869L64.3313 105.775L64.1523 105.246C64.1085 105.155 64.0209 105.2 64.0209 105.2ZM63.8549 104.456L63.7121 104.066L63.4996 104.147L63.8518 105.135L64.075 105.051L63.9312 104.65L64.1199 104.572L64.0559 104.387L63.8549 104.456ZM62.816 104.726C62.6665 104.849 62.5922 105.035 62.6541 105.195C62.732 105.4 62.9732 105.494 63.1965 105.413C63.4202 105.331 63.5466 105.095 63.4687 104.887C63.4068 104.727 63.2238 104.626 63.0289 104.645L63.0124 104.6L63.347 104.471L63.2805 104.275L62.9464 104.403L62.9011 104.289L62.6886 104.37L62.7345 104.484L62.4216 104.599L62.4871 104.795L62.8108 104.668L62.8273 104.724L62.816 104.726ZM62.9913 104.863C63.1027 104.816 63.2238 104.864 63.2563 104.968C63.2903 105.071 63.231 105.183 63.13 105.217C63.0196 105.265 62.899 105.217 62.866 105.114C62.8325 105.01 62.8908 104.897 62.9913 104.863Z" fill="#D11317"/>
<path d="M58.3746 105.812C58.456 105.578 58.2777 105.298 57.9662 105.185C57.6543 105.075 57.3398 105.176 57.2692 105.399C57.1867 105.621 57.3764 105.899 57.677 106.012C57.9884 106.124 58.3034 106.034 58.3746 105.812ZM57.7404 105.838C57.56 105.774 57.4399 105.608 57.4863 105.484C57.5316 105.36 57.7224 105.303 57.9023 105.371C58.0585 105.427 58.2132 105.579 58.1586 105.726C58.1029 105.874 57.8966 105.895 57.7404 105.838Z" fill="#D11317"/>
<path d="M58.1296 104.265L57.4578 104.024L57.3934 104.197L57.8987 104.384C57.8894 104.409 57.8584 104.448 57.8182 104.511C57.5826 104.82 57.182 104.742 57.182 104.742L57.1171 104.913C57.9569 105.091 58.1611 104.346 58.1611 104.346C58.1894 104.284 58.1296 104.265 58.1296 104.265ZM58.5957 104.411L58.5313 104.582L58.1951 104.461L58.1209 104.647L58.4694 104.778L58.4256 104.915L58.0652 104.783L58.0028 104.98L58.3508 105.1L58.2812 105.333L58.5081 105.406L58.8236 104.493L58.5957 104.411Z" fill="#D11317"/>
<path d="M25.453 124.084C25.7891 124.654 31.9342 134.755 44.9832 134.755C47.9616 134.755 51.1123 134.214 54.3475 133.15C55.1085 132.838 68.8685 127.064 73.325 116.063C73.6081 114.071 76.3556 92.8887 66.352 86.1914C66.2937 86.1524 66.3128 86.1748 66.2922 86.155C66.2272 86.1247 66.0664 86.0653 65.8096 86.0653C64.9584 86.0653 61.8155 86.8049 57.112 96.3191C57.1037 96.3374 57.0939 96.3551 57.0846 96.3723C57.0331 96.4661 55.8138 98.6775 54.2918 100.926C51.2819 105.375 49.7981 105.976 48.7443 105.977H48.7427C47.891 105.977 47.1651 105.492 46.7495 104.646C46.7011 104.549 46.6645 104.445 46.6408 104.338C46.3536 103.076 45.8071 101.717 45.3493 101.022C44.6981 102.347 43.4556 104.524 41.4598 106.705C38.5587 109.875 33.4566 113.654 25.6262 113.655C24.4997 113.655 23.3365 113.576 22.1523 113.42C22.1172 115.16 22.5163 118.785 25.453 124.084ZM44.9832 137.528C30.2307 137.528 23.3649 125.969 23.0798 125.478C18.1649 116.617 19.5853 111.633 19.6477 111.425C19.8508 110.753 20.519 110.341 21.2026 110.464C22.7215 110.74 24.2094 110.881 25.6252 110.88C38.7216 110.88 43.2988 98.8948 43.3447 98.7734C43.4906 98.3773 43.8077 98.0708 44.2052 97.9395C44.4651 97.8535 44.7332 97.8108 44.9992 97.8108C47.361 97.8108 48.6087 101.109 49.1176 102.936C50.3333 101.952 52.7147 98.6025 54.6713 95.0506C58.5323 87.2468 62.28 83.2905 65.8096 83.2905C66.9299 83.2905 67.6481 83.7221 67.8879 83.892C79.7831 91.8859 76.172 115.641 76.0127 116.65C75.9967 116.751 75.9694 116.85 75.9318 116.946C70.9905 129.43 55.953 135.495 55.3152 135.746C55.291 135.756 55.2662 135.765 55.242 135.773C51.716 136.938 48.2648 137.528 44.9832 137.528Z" fill="black"/>
<path d="M186.851 26.7838L186.848 26.7859C184.992 21.1811 179.281 17.6881 173.381 18.8274C169.941 19.4914 167.138 21.5938 165.458 24.4009C162.872 22.4178 159.497 21.5073 156.06 22.1713C150.159 23.3106 146.123 28.6851 146.44 34.5855L146.438 34.5896C146.438 34.5896 146.306 38.191 148.649 42.4752C148.65 42.4773 148.65 42.4783 148.651 42.4804C151.403 47.5088 157.565 53.4785 171.363 55.6602C183.025 48.7107 186.72 41.1279 187.595 35.4756C187.733 34.9274 187.717 34.5354 187.717 34.5354C187.717 34.5354 187.718 34.5328 187.719 34.5307C187.757 34.1706 187.782 33.8162 187.801 33.4743C188.002 29.433 186.851 26.7838 186.851 26.7838Z" fill="#E73446"/>
<path d="M149.731 41.8736C149.732 41.8741 149.732 41.8751 149.732 41.8756C152.192 46.3714 157.899 52.1607 171.116 54.3549C182.327 47.5566 185.607 40.2438 186.376 35.2821C186.382 35.2441 186.389 35.2055 186.399 35.1675C186.486 34.8214 186.484 34.5728 186.484 34.5702C186.481 34.4946 186.485 34.4274 186.495 34.3554C186.525 34.0615 186.549 33.7514 186.567 33.4064C186.734 30.0682 185.897 27.7405 185.743 27.3424C185.718 27.2913 185.695 27.2371 185.677 27.1824C184.226 22.8028 180.185 19.8607 175.619 19.8607C174.95 19.8607 174.275 19.9259 173.612 20.0536C170.659 20.6237 168.072 22.4432 166.514 25.0476C166.333 25.3499 166.033 25.5609 165.689 25.6277C165.345 25.6938 164.99 25.6089 164.711 25.3957C162.869 23.9823 160.59 23.2041 158.295 23.2041C157.627 23.2041 156.954 23.2693 156.291 23.3975C151.092 24.4013 147.388 29.1816 147.673 34.5181C147.676 34.5738 147.676 34.6296 147.672 34.6854C147.672 35.1143 147.744 38.2393 149.73 41.871C149.73 41.872 149.731 41.8725 149.731 41.8736ZM171.363 56.9077C171.299 56.9077 171.235 56.9035 171.172 56.8926C156.664 54.5999 150.333 48.1257 147.576 43.0942C147.572 43.0858 147.567 43.077 147.562 43.0681C145.16 38.6688 145.194 34.9277 145.203 34.5665C144.894 28.0241 149.448 22.1764 155.828 20.9448C156.643 20.7879 157.472 20.7077 158.295 20.7077C160.694 20.7077 163.076 21.3961 165.129 22.6647C167.076 20.0405 169.937 18.2211 173.149 17.6014C173.964 17.444 174.795 17.3642 175.619 17.3642C181.215 17.3642 186.173 20.95 187.988 26.2958C188.093 26.5434 189.243 29.3567 189.034 33.5367C189.013 33.9229 188.987 34.2705 188.953 34.6014C188.952 34.8011 188.931 35.2102 188.807 35.7241C187.932 41.2716 184.298 49.4011 171.99 56.7352C171.799 56.8488 171.582 56.9077 171.363 56.9077Z" fill="black"/>
<path d="M206.47 59.3781L206.468 59.3755C206.959 57.1464 205.782 54.8506 203.637 54.0568C202.388 53.5935 201.062 53.7352 199.966 54.3335C199.511 53.1609 198.591 52.1894 197.34 51.7245C195.195 50.9307 192.829 51.9152 191.778 53.939L191.777 53.9395C191.777 53.9395 191.03 55.1101 190.955 56.9999C190.955 56.9999 190.954 57.0005 190.954 57.0015C190.867 59.2191 191.707 62.4271 195.775 65.8945C200.934 65.9023 203.622 64.1178 205.012 62.4135C205.165 62.2582 205.236 62.1253 205.236 62.1253L205.237 62.1248C205.319 62.0122 205.397 61.9001 205.47 61.7886C206.327 60.4862 206.47 59.3781 206.47 59.3781Z" fill="#E73446"/>
<path d="M191.776 57.0586C191.709 58.9473 192.412 61.8451 196.078 65.0609C199.853 65.0113 202.719 63.9158 204.376 61.8832C204.393 61.8639 204.41 61.8441 204.428 61.8258C204.489 61.7643 204.521 61.7127 204.522 61.7117C204.549 61.6596 204.583 61.6106 204.621 61.5663C204.681 61.4819 204.733 61.4063 204.783 61.3307C205.437 60.3358 205.618 59.4701 205.649 59.297C205.652 59.2627 205.657 59.2288 205.664 59.1954C206.072 57.3494 205.078 55.4762 203.355 54.8383C202.379 54.4766 201.278 54.5631 200.357 55.0661C200.149 55.1797 199.904 55.1979 199.682 55.115C199.461 55.0337 199.285 54.8591 199.199 54.6376C198.815 53.6458 198.034 52.8687 197.057 52.5065C196.656 52.3574 196.238 52.2824 195.814 52.2824C194.429 52.2824 193.162 53.0657 192.507 54.3265C192.493 54.3536 192.477 54.3802 192.46 54.4057C192.384 54.5355 191.837 55.5263 191.778 57.033C191.777 57.0414 191.777 57.0497 191.776 57.0586ZM195.81 66.7266H195.774C195.58 66.726 195.393 66.6572 195.245 66.5301C190.855 62.79 190.041 59.2663 190.132 56.9694C190.132 56.9595 190.133 56.9501 190.134 56.9418C190.216 54.9962 190.946 53.7162 191.069 53.515C192.015 51.7273 193.829 50.6177 195.814 50.6177C196.431 50.6177 197.04 50.7272 197.623 50.9435C198.775 51.3714 199.739 52.1917 200.358 53.2528C201.508 52.8458 202.776 52.8505 203.922 53.2747C206.398 54.192 207.835 56.86 207.285 59.4977C207.265 59.6369 207.071 60.859 206.156 62.2496C206.083 62.3611 206.005 62.4752 205.92 62.5899C205.868 62.6749 205.772 62.8156 205.624 62.9709C204.207 64.6913 201.358 66.7266 195.81 66.7266Z" fill="black"/>
<path d="M40.45 14.2574L40.449 14.2563C39.8349 11.8797 37.6602 10.2687 35.316 10.5768C33.9492 10.7545 32.802 11.5493 32.0823 12.6662C31.1058 11.7718 29.7978 11.2991 28.4305 11.4774C26.0863 11.7843 24.3864 13.9024 24.388 16.3598L24.3875 16.3609C24.3875 16.3609 24.2606 17.852 25.0933 19.696L25.0943 19.697C26.0718 21.861 28.3718 24.5107 33.7548 25.8032C38.4877 23.2468 40.0999 20.2041 40.5619 17.8838C40.6279 17.6602 40.6299 17.496 40.6299 17.496C40.6299 17.496 40.6299 17.496 40.6299 17.4945C40.6521 17.3464 40.6707 17.201 40.6841 17.0582C40.8475 15.3878 40.45 14.2574 40.45 14.2574Z" fill="#E73446"/>
<path d="M25.8366 19.336C25.8386 19.3412 25.8412 19.3459 25.8433 19.3506C26.6811 21.205 28.7145 23.6577 33.6417 24.9179C37.0883 22.9896 39.1996 20.5045 39.7554 17.7188C39.76 17.6943 39.7662 17.6703 39.7724 17.6458C39.8023 17.5447 39.8064 17.4712 39.8064 17.4702C39.8074 17.4149 39.8136 17.3613 39.825 17.3091C39.8409 17.1976 39.8543 17.0876 39.8647 16.9798C39.9956 15.6424 39.7234 14.6917 39.6785 14.5505C39.6682 14.5234 39.66 14.4947 39.6517 14.4666C39.1815 12.644 37.6343 11.3713 35.8907 11.3713C35.735 11.3713 35.5772 11.3822 35.422 11.402C34.3517 11.5412 33.3865 12.1671 32.772 13.1209C32.6405 13.3247 32.4271 13.4607 32.1878 13.4914C31.9476 13.5227 31.7079 13.4461 31.5295 13.283C30.6984 12.522 29.6079 12.1635 28.5361 12.3021C26.6393 12.5507 25.2096 14.2951 25.2117 16.3585C25.2117 16.3892 25.2096 16.419 25.2065 16.4492C25.1993 16.6066 25.1653 17.8434 25.8366 19.336ZM33.7547 26.6353C33.6912 26.6353 33.6273 26.6274 33.5649 26.6128C27.7864 25.226 25.3664 22.2891 24.3543 20.062C24.3491 20.0511 24.3435 20.0396 24.3388 20.0277C23.4861 18.1331 23.5495 16.5565 23.565 16.3184C23.582 13.4383 25.6216 11.0054 28.3247 10.6515C29.5883 10.4879 30.8654 10.7948 31.9337 11.501C32.7942 10.5394 33.9501 9.91507 35.2106 9.75089C35.4354 9.72171 35.6643 9.70711 35.8907 9.70711C38.3705 9.70711 40.5617 11.4719 41.234 14.0043C41.299 14.2008 41.6712 15.4256 41.5037 17.1403C41.4897 17.2815 41.4722 17.4285 41.45 17.5776C41.4438 17.6802 41.4232 17.86 41.3619 18.0815C40.886 20.4248 39.2444 23.7812 34.1429 26.5367C34.0228 26.6019 33.8892 26.6353 33.7547 26.6353Z" fill="black"/>
<path d="M126.062 77.0934C126.062 77.0934 133.265 87.7637 114.197 91.3249C95.1287 94.8857 94.3863 80.2659 94.3863 80.2659C94.3863 80.2659 96.7229 81.1107 113.18 79.0025C119.689 78.1686 123.381 77.2029 125.465 76.3414L126.062 77.0934Z" fill="#EC6266"/>
<path d="M95.9313 85.9529C95.9313 85.9529 105.008 86.2709 112.193 85.0252C119.379 83.7806 126.642 80.3544 126.642 80.3544L125.305 77.6624C125.305 77.6624 107.965 82.3302 94.4877 81.1064L95.9313 85.9529Z" fill="white"/>
<path d="M96.223 81.9539C96.6607 83.5732 97.6625 85.9837 99.931 87.7803C103.089 90.2804 107.797 90.9678 113.923 89.8244C120.29 88.635 124.29 86.4867 125.492 83.6113C126.472 81.2649 125.35 78.9003 124.945 78.1727C122.585 78.9852 118.967 79.7993 113.37 80.516C103.639 81.7632 98.7065 82.0071 96.223 81.9539ZM108.596 93.4106C104.288 93.4106 100.748 92.3208 98.028 90.1501C93.2353 86.3241 92.8914 80.5863 92.8791 80.344C92.8512 79.7999 93.0224 79.2411 93.4761 78.9456C93.9164 78.6574 94.3871 78.5839 94.8547 78.8101C95.3424 78.894 98.7962 79.3063 112.99 77.4889C123.792 76.1052 126.129 74.4322 126.573 73.9876C126.558 73.4283 126.85 72.8811 127.373 72.5997C128.108 72.2025 129.023 72.4845 129.414 73.2282C129.531 73.4513 129.872 74.255 129.348 75.278C129.098 75.7659 128.657 76.3293 127.709 76.9234C128.413 78.2749 129.664 81.4207 128.289 84.7605C126.664 88.7022 122.015 91.4161 114.471 92.8248C112.378 93.2157 110.418 93.4106 108.596 93.4106Z" fill="black"/>
<path d="M99.3001 87.2471C98.7005 87.2471 98.0911 87.2419 97.4683 87.2325C96.7867 87.221 96.2423 86.654 96.2531 85.9639C96.2639 85.2749 96.8315 84.7178 97.5075 84.736C118.154 85.0623 125.607 79.5174 125.681 79.4616C126.221 79.0436 126.995 79.1457 127.41 79.6893C127.825 80.2335 127.73 81.0121 127.194 81.4343C126.885 81.6777 119.578 87.2471 99.3001 87.2471Z" fill="black"/>
<path d="M22.8486 79.0753C22.8486 79.0753 29.5954 89.9582 37.2515 92.561C37.2515 92.561 40.0418 91.5494 40.2888 84.8318C40.4635 80.0645 32.1856 79.5767 32.1856 79.5767C32.1856 79.5767 34.7382 67.3445 31.8273 65.2649C26.4659 61.4321 24.484 71.674 22.728 78.8611" fill="#DEB972"/>
<path d="M24.1972 78.6285C25.2784 80.2817 30.8847 88.5034 37.0663 91.0144C37.6433 90.4526 38.7687 88.8458 38.9177 84.7805C39.0368 81.5169 32.1751 80.9649 32.1055 80.9613C31.707 80.9373 31.3384 80.7398 31.0955 80.4182C30.8527 80.0977 30.7604 79.6849 30.8434 79.2898C30.8491 79.2601 31.4698 76.2571 31.7323 73.0611C32.1102 68.4643 31.4719 66.7094 31.0352 66.3972C29.9494 65.6212 29.4081 65.8265 29.2297 65.8943C27.0488 66.7214 25.4748 73.2962 24.4334 77.645C24.354 77.977 24.2751 78.3053 24.1972 78.6285ZM37.2514 93.9487C37.104 93.9487 36.9565 93.9237 36.8147 93.8752C28.7858 91.1468 21.972 80.2733 21.6859 79.8121C21.6524 79.7579 21.6235 79.7037 21.5982 79.6484C21.3833 79.3331 21.2977 78.9292 21.3961 78.5284C21.5178 78.0291 21.6405 77.5152 21.7663 76.9924C23.2197 70.9201 24.7236 64.6408 28.2661 63.2972C29.6468 62.7734 31.1115 63.0544 32.619 64.1316C34.2977 65.3309 34.8839 68.2495 34.4653 73.3165C34.3039 75.2736 34.0219 77.1248 33.81 78.3569C37.3334 78.9 41.8132 80.696 41.6601 84.8832C41.3863 92.3237 38.0897 93.7309 37.7149 93.8659C37.5654 93.9211 37.4087 93.9487 37.2514 93.9487Z" fill="black"/>
<path d="M175.785 59.266C175.785 59.266 177.601 69.3176 173.595 75.9758C173.595 75.9758 170.952 77.0583 166.716 72.6095C163.711 69.4511 169.222 64.1678 169.222 64.1678C169.222 64.1678 160.003 58.6417 161.199 54.9324C163.072 49.1243 170.126 55.231 175.744 59.0424" fill="#DEB972"/>
<path d="M164.075 53.9199C163.876 53.9199 163.693 53.946 163.528 54.0007C163.366 54.0559 162.871 54.2227 162.503 55.362C162 56.9261 166.009 60.6291 169.922 62.9745C170.292 63.196 170.538 63.5801 170.586 64.0127C170.634 64.4453 170.479 64.8747 170.167 65.1734C169.354 65.9567 167.233 68.4079 167.192 70.3081C167.181 70.8413 167.344 71.2681 167.705 71.6475C170.235 74.3051 172.017 74.6845 172.733 74.7106C175.653 69.2548 174.74 61.5662 174.489 59.8588C173.875 59.4351 173.245 58.9884 172.632 58.5538C169.834 56.5701 166.095 53.9199 164.075 53.9199ZM172.785 77.4775C171.347 77.4775 168.855 76.8563 165.728 73.5707C164.862 72.6618 164.42 71.51 164.449 70.2414C164.499 68.0086 165.98 65.8019 167.094 64.4526C164.176 62.4997 158.69 58.2405 159.894 54.5026C160.422 52.8645 161.353 51.8101 162.66 51.3692C165.789 50.3143 169.878 53.2132 174.208 56.2824C175.009 56.8505 175.766 57.3868 176.509 57.8908C176.861 58.1301 177.069 58.5058 177.109 58.9025C177.119 58.94 177.127 58.9785 177.135 59.0171C177.213 59.4481 178.996 69.6676 174.768 76.6968C174.614 76.9517 174.383 77.1497 174.11 77.2623C173.988 77.3113 173.527 77.4775 172.785 77.4775Z" fill="black"/>
<path d="M23.7945 37.7906L23.7919 37.789C21.7693 34.5967 17.819 33.2807 14.5225 34.8631C12.6004 35.7824 11.2919 37.5029 10.7624 39.4881C8.90742 38.6458 6.76523 38.5828 4.84268 39.5037C1.54665 41.085 0.0499511 45.0127 1.21153 48.6177L1.21101 48.6203C1.21101 48.6203 1.72864 50.8687 3.82082 53.1739L3.82288 53.176C6.27802 55.8804 10.9037 58.662 19.4142 57.9631C25.155 51.9293 26.0851 46.6867 25.6691 43.0577C25.6598 42.6981 25.5855 42.4573 25.5855 42.4573C25.5855 42.4573 25.5861 42.4573 25.585 42.4541C25.5484 42.2259 25.5067 42.0049 25.4592 41.7891C24.9117 39.2577 23.7945 37.7906 23.7945 37.7906Z" fill="#E73446"/>
<path d="M4.441 52.6266C6.36098 54.7343 10.0664 57.2396 16.8322 57.2396H16.8337C17.5442 57.2396 18.2835 57.212 19.0362 57.1573C24.4925 51.3163 25.2148 46.327 24.8513 43.1535C24.8482 43.129 24.8462 43.104 24.8457 43.0795C24.84 42.8523 24.7967 42.6975 24.7962 42.6954C24.7951 42.6902 24.7936 42.685 24.792 42.6798C24.7843 42.6495 24.7771 42.6188 24.7724 42.588C24.7374 42.3717 24.6982 42.1633 24.6554 41.9704C24.1899 39.8179 23.2773 38.4879 23.1541 38.3153C23.1345 38.2908 23.1154 38.2643 23.0984 38.2382C21.843 36.2567 19.6853 35.0256 17.4668 35.0256C16.563 35.0256 15.6907 35.2237 14.8756 35.6151C13.2526 36.3916 12.0431 37.8822 11.5574 39.7053C11.4945 39.9409 11.3326 40.1364 11.1145 40.2406C10.897 40.3454 10.6443 40.3474 10.4242 40.2479C8.72744 39.4765 6.82551 39.475 5.19476 40.2557C2.32511 41.6322 0.949057 45.1163 1.99463 48.3602C2.00494 48.392 2.01371 48.4248 2.01989 48.4576C2.08382 48.7015 2.63909 50.6414 4.4276 52.611C4.43224 52.6162 4.43688 52.6214 4.441 52.6266ZM16.8337 58.9043H16.8327C9.45388 58.9038 5.35562 56.0951 3.21601 53.7393C3.21292 53.7352 3.20983 53.732 3.20725 53.7289C1.08156 51.3836 0.476796 49.0862 0.414412 48.8292C-0.859042 44.8052 0.887189 40.4803 4.48947 38.7516C5.52834 38.2538 6.63732 38.0021 7.78704 38.0021C8.62484 38.0021 9.45078 38.135 10.252 38.3982C10.9872 36.5027 12.3787 34.9678 14.1703 34.1109C15.2071 33.6132 16.3171 33.3609 17.4668 33.3609C20.2262 33.3609 22.9009 34.8687 24.46 37.3001C24.5992 37.4887 25.7082 39.045 26.2635 41.6118C26.3094 41.8198 26.3522 42.0444 26.3903 42.2774C26.4223 42.3983 26.4785 42.6568 26.4903 42.9972C26.8909 46.5694 26.0846 52.1539 20.0076 58.5405C19.8684 58.6864 19.6812 58.7756 19.4812 58.7922C18.5763 58.8668 17.6854 58.9043 16.8337 58.9043Z" fill="black"/>
</svg>
