<svg width="255" height="43" viewBox="0 0 255 43" fill="none" xmlns="http://www.w3.org/2000/svg">
<mask id="path-1-outside-1_1193_3771" maskUnits="userSpaceOnUse" x="53.8591" y="3" width="201" height="38" fill="black">
<rect fill="white" x="53.8591" y="3" width="201" height="38"/>
<path d="M74.9654 8.6875V11.6875H69.1529V14.5C69.1529 21.7812 72.3091 25.3438 75.4341 26.375V29.7188C71.3716 28.6875 68.6216 25.5938 67.4029 21.7188C66.2154 25.625 63.4341 28.875 59.2779 29.9375V26.5938C62.0904 25.625 65.5279 22.0625 65.5279 15.0625V11.6875H59.7154V8.6875H74.9654ZM78.1216 30.4375V8.03125H81.7466V30.4375H78.1216ZM101.953 16.7812V11.4062H84.7966V8.46875H103.828C104.797 8.46875 105.578 9.125 105.578 10.1562V16.7812H101.953ZM83.2029 21.7812V18.7812H107.265V21.7812H83.2029ZM85.0466 33.4062V25.0625H104.015C104.797 25.0625 105.453 25.5938 105.453 26.4375V34.7812H86.4841C85.7029 34.7812 85.0466 34.25 85.0466 33.4062ZM88.6716 31.8438H101.828V28H88.6716V31.8438ZM129.403 11.7812H123.778V19.25H129.59V22.1875H121.59C120.809 22.1875 120.153 21.6562 120.153 20.8125V8.84375H129.403V11.7812ZM118.528 29.9062V26.9062H142.59V29.9062H118.528ZM130.84 20.8125V8.84375H140.965V11.7812H134.465V19.25H141.184V22.1875H132.278C131.497 22.1875 130.84 21.6562 130.84 20.8125ZM148.328 8.46875V15.4375H165.297V18.375H146.14C145.359 18.375 144.703 17.8438 144.703 17V8.46875H148.328ZM142.828 24.2812V21.2812H166.89V24.2812H142.828ZM144.734 32.8438V26.4688H148.359V31.5312H165.359V34.5312H146.484C145.515 34.5312 144.734 33.875 144.734 32.8438ZM200.403 11.3438H183.653V14.625H200.622V17.5625H191.997V20.125H202.215V23.125H178.153V20.125H188.372V17.5625H181.465C180.684 17.5625 180.028 17.0312 180.028 16.1875V8.40625H200.403V11.3438ZM179.965 30.2812C179.965 26.75 184.215 25.0938 190.215 25.0938C196.153 25.0938 200.403 26.75 200.403 30.2812C200.403 33.8438 196.153 35.5 190.215 35.5C184.215 35.5 179.965 33.8438 179.965 30.2812ZM183.684 30.2812C183.684 31.7188 186.278 32.5625 190.215 32.5625C194.09 32.5625 196.684 31.7188 196.684 30.2812C196.684 28.875 194.09 28.0312 190.215 28.0312C186.278 28.0312 183.684 28.875 183.684 30.2812ZM210.422 29.8125C205.484 29.8125 202.734 25.625 202.734 18.9375C202.734 12.2812 205.484 8.125 210.422 8.125C215.359 8.125 218.109 12.2812 218.109 18.9375C218.109 25.625 215.359 29.8125 210.422 29.8125ZM206.359 18.9375C206.359 24 207.828 26.8125 210.422 26.8125C213.015 26.8125 214.484 24 214.484 18.9375C214.484 13.9375 213.015 11.125 210.422 11.125C207.828 11.125 206.359 13.9375 206.359 18.9375ZM220.922 30.4375V8.03125H224.547V16.6562H227.797V19.6562H224.547V30.4375H220.922ZM240.253 20.125H231.534V26.375H242.597V29.375H230.315C228.972 29.375 227.909 28.4688 227.909 27.0625V18.2188C227.909 17.625 228.378 17.25 228.94 17.25H238.065V11.625H227.784V8.625H240.253C241.034 8.625 241.69 9.15625 241.69 10V18.75C241.69 19.5938 241.034 20.125 240.253 20.125ZM245.972 30.4375V8.03125H249.597V30.4375H245.972Z"/>
</mask>
<path d="M74.9654 8.6875V11.6875H69.1529V14.5C69.1529 21.7812 72.3091 25.3438 75.4341 26.375V29.7188C71.3716 28.6875 68.6216 25.5938 67.4029 21.7188C66.2154 25.625 63.4341 28.875 59.2779 29.9375V26.5938C62.0904 25.625 65.5279 22.0625 65.5279 15.0625V11.6875H59.7154V8.6875H74.9654ZM78.1216 30.4375V8.03125H81.7466V30.4375H78.1216ZM101.953 16.7812V11.4062H84.7966V8.46875H103.828C104.797 8.46875 105.578 9.125 105.578 10.1562V16.7812H101.953ZM83.2029 21.7812V18.7812H107.265V21.7812H83.2029ZM85.0466 33.4062V25.0625H104.015C104.797 25.0625 105.453 25.5938 105.453 26.4375V34.7812H86.4841C85.7029 34.7812 85.0466 34.25 85.0466 33.4062ZM88.6716 31.8438H101.828V28H88.6716V31.8438ZM129.403 11.7812H123.778V19.25H129.59V22.1875H121.59C120.809 22.1875 120.153 21.6562 120.153 20.8125V8.84375H129.403V11.7812ZM118.528 29.9062V26.9062H142.59V29.9062H118.528ZM130.84 20.8125V8.84375H140.965V11.7812H134.465V19.25H141.184V22.1875H132.278C131.497 22.1875 130.84 21.6562 130.84 20.8125ZM148.328 8.46875V15.4375H165.297V18.375H146.14C145.359 18.375 144.703 17.8438 144.703 17V8.46875H148.328ZM142.828 24.2812V21.2812H166.89V24.2812H142.828ZM144.734 32.8438V26.4688H148.359V31.5312H165.359V34.5312H146.484C145.515 34.5312 144.734 33.875 144.734 32.8438ZM200.403 11.3438H183.653V14.625H200.622V17.5625H191.997V20.125H202.215V23.125H178.153V20.125H188.372V17.5625H181.465C180.684 17.5625 180.028 17.0312 180.028 16.1875V8.40625H200.403V11.3438ZM179.965 30.2812C179.965 26.75 184.215 25.0938 190.215 25.0938C196.153 25.0938 200.403 26.75 200.403 30.2812C200.403 33.8438 196.153 35.5 190.215 35.5C184.215 35.5 179.965 33.8438 179.965 30.2812ZM183.684 30.2812C183.684 31.7188 186.278 32.5625 190.215 32.5625C194.09 32.5625 196.684 31.7188 196.684 30.2812C196.684 28.875 194.09 28.0312 190.215 28.0312C186.278 28.0312 183.684 28.875 183.684 30.2812ZM210.422 29.8125C205.484 29.8125 202.734 25.625 202.734 18.9375C202.734 12.2812 205.484 8.125 210.422 8.125C215.359 8.125 218.109 12.2812 218.109 18.9375C218.109 25.625 215.359 29.8125 210.422 29.8125ZM206.359 18.9375C206.359 24 207.828 26.8125 210.422 26.8125C213.015 26.8125 214.484 24 214.484 18.9375C214.484 13.9375 213.015 11.125 210.422 11.125C207.828 11.125 206.359 13.9375 206.359 18.9375ZM220.922 30.4375V8.03125H224.547V16.6562H227.797V19.6562H224.547V30.4375H220.922ZM240.253 20.125H231.534V26.375H242.597V29.375H230.315C228.972 29.375 227.909 28.4688 227.909 27.0625V18.2188C227.909 17.625 228.378 17.25 228.94 17.25H238.065V11.625H227.784V8.625H240.253C241.034 8.625 241.69 9.15625 241.69 10V18.75C241.69 19.5938 241.034 20.125 240.253 20.125ZM245.972 30.4375V8.03125H249.597V30.4375H245.972Z" fill="white"/>
<path d="M74.9654 8.6875H79.9654C79.9654 5.92608 77.7268 3.6875 74.9654 3.6875V8.6875ZM74.9654 11.6875V16.6875C77.7268 16.6875 79.9654 14.4489 79.9654 11.6875H74.9654ZM69.1529 11.6875V6.6875C66.3915 6.6875 64.1529 8.92608 64.1529 11.6875H69.1529ZM75.4341 26.375H80.4341C80.4341 24.2173 79.05 22.303 77.001 21.6269L75.4341 26.375ZM75.4341 29.7188L74.2039 34.565C75.6993 34.9447 77.2863 34.6126 78.5041 33.6653C79.7219 32.718 80.4341 31.2616 80.4341 29.7188H75.4341ZM67.4029 21.7188L72.1725 20.2186C71.5148 18.1272 69.5713 16.7083 67.3789 16.7188C65.1865 16.7293 63.2567 18.1669 62.619 20.2645L67.4029 21.7188ZM59.2779 29.9375H54.2779C54.2779 31.4818 54.9915 32.9395 56.2113 33.8867C57.431 34.8338 59.02 35.1642 60.5162 34.7817L59.2779 29.9375ZM59.2779 26.5938L57.6495 21.8663C55.632 22.5612 54.2779 24.4599 54.2779 26.5938H59.2779ZM65.5279 11.6875H70.5279C70.5279 8.92608 68.2893 6.6875 65.5279 6.6875V11.6875ZM59.7154 11.6875H54.7154C54.7154 14.4489 56.954 16.6875 59.7154 16.6875V11.6875ZM59.7154 8.6875V3.6875C56.954 3.6875 54.7154 5.92608 54.7154 8.6875H59.7154ZM78.1216 30.4375H73.1216C73.1216 33.1989 75.3602 35.4375 78.1216 35.4375V30.4375ZM78.1216 8.03125V3.03125C75.3602 3.03125 73.1216 5.26983 73.1216 8.03125H78.1216ZM81.7466 8.03125H86.7466C86.7466 5.26983 84.5081 3.03125 81.7466 3.03125V8.03125ZM81.7466 30.4375V35.4375C84.5081 35.4375 86.7466 33.1989 86.7466 30.4375H81.7466ZM74.9654 8.6875H69.9654V11.6875H74.9654H79.9654V8.6875H74.9654ZM74.9654 11.6875V6.6875H69.1529V11.6875V16.6875H74.9654V11.6875ZM69.1529 11.6875H64.1529V14.5H69.1529H74.1529V11.6875H69.1529ZM69.1529 14.5H64.1529C64.1529 23.2696 68.1221 29.2273 73.8672 31.1231L75.4341 26.375L77.001 21.6269C76.4961 21.4602 74.1529 20.2929 74.1529 14.5H69.1529ZM75.4341 26.375H70.4341V29.7188H75.4341H80.4341V26.375H75.4341ZM75.4341 29.7188L76.6643 24.8725C74.5832 24.3442 72.9719 22.7601 72.1725 20.2186L67.4029 21.7188L62.6332 23.2189C64.2714 28.4274 68.16 33.0308 74.2039 34.565L75.4341 29.7188ZM67.4029 21.7188L62.619 20.2645C61.8296 22.8615 60.1653 24.5498 58.0395 25.0933L59.2779 29.9375L60.5162 34.7817C66.703 33.2002 70.6012 28.3885 72.1867 23.173L67.4029 21.7188ZM59.2779 29.9375H64.2779V26.5938H59.2779H54.2779V29.9375H59.2779ZM59.2779 26.5938L60.9062 31.3212C66.1019 29.5315 70.5279 23.782 70.5279 15.0625H65.5279H60.5279C60.5279 20.343 58.0788 21.7185 57.6495 21.8663L59.2779 26.5938ZM65.5279 15.0625H70.5279V11.6875H65.5279H60.5279V15.0625H65.5279ZM65.5279 11.6875V6.6875H59.7154V11.6875V16.6875H65.5279V11.6875ZM59.7154 11.6875H64.7154V8.6875H59.7154H54.7154V11.6875H59.7154ZM59.7154 8.6875V13.6875H74.9654V8.6875V3.6875H59.7154V8.6875ZM78.1216 30.4375H83.1216V8.03125H78.1216H73.1216V30.4375H78.1216ZM78.1216 8.03125V13.0312H81.7466V8.03125V3.03125H78.1216V8.03125ZM81.7466 8.03125H76.7466V30.4375H81.7466H86.7466V8.03125H81.7466ZM81.7466 30.4375V25.4375H78.1216V30.4375V35.4375H81.7466V30.4375ZM101.953 16.7812H96.9529C96.9529 19.5427 99.1915 21.7812 101.953 21.7812V16.7812ZM101.953 11.4062H106.953C106.953 8.64483 104.714 6.40625 101.953 6.40625V11.4062ZM84.7966 11.4062H79.7966C79.7966 14.1677 82.0352 16.4062 84.7966 16.4062V11.4062ZM84.7966 8.46875V3.46875C82.0352 3.46875 79.7966 5.70733 79.7966 8.46875H84.7966ZM105.578 16.7812V21.7812C108.339 21.7812 110.578 19.5427 110.578 16.7812H105.578ZM83.2029 21.7812H78.2029C78.2029 24.5427 80.4415 26.7812 83.2029 26.7812V21.7812ZM83.2029 18.7812V13.7812C80.4415 13.7812 78.2029 16.0198 78.2029 18.7812H83.2029ZM107.265 18.7812H112.265C112.265 16.0198 110.027 13.7812 107.265 13.7812V18.7812ZM107.265 21.7812V26.7812C110.027 26.7812 112.265 24.5427 112.265 21.7812H107.265ZM85.0466 25.0625V20.0625C82.2852 20.0625 80.0466 22.3011 80.0466 25.0625H85.0466ZM105.453 34.7812V39.7812C108.214 39.7812 110.453 37.5427 110.453 34.7812H105.453ZM88.6716 31.8438H83.6716C83.6716 34.6052 85.9102 36.8438 88.6716 36.8438V31.8438ZM101.828 31.8438V36.8438C104.589 36.8438 106.828 34.6052 106.828 31.8438H101.828ZM101.828 28H106.828C106.828 25.2386 104.589 23 101.828 23V28ZM88.6716 28V23C85.9102 23 83.6716 25.2386 83.6716 28H88.6716ZM101.953 16.7812H106.953V11.4062H101.953H96.9529V16.7812H101.953ZM101.953 11.4062V6.40625H84.7966V11.4062V16.4062H101.953V11.4062ZM84.7966 11.4062H89.7966V8.46875H84.7966H79.7966V11.4062H84.7966ZM84.7966 8.46875V13.4688H103.828V8.46875V3.46875H84.7966V8.46875ZM103.828 8.46875V13.4688C103.189 13.4688 102.372 13.2455 101.669 12.5946C100.923 11.904 100.578 10.9777 100.578 10.1562H105.578H110.578C110.578 6.00819 107.189 3.46875 103.828 3.46875V8.46875ZM105.578 10.1562H100.578V16.7812H105.578H110.578V10.1562H105.578ZM105.578 16.7812V11.7812H101.953V16.7812V21.7812H105.578V16.7812ZM83.2029 21.7812H88.2029V18.7812H83.2029H78.2029V21.7812H83.2029ZM83.2029 18.7812V23.7812H107.265V18.7812V13.7812H83.2029V18.7812ZM107.265 18.7812H102.265V21.7812H107.265H112.265V18.7812H107.265ZM107.265 21.7812V16.7812H83.2029V21.7812V26.7812H107.265V21.7812ZM85.0466 33.4062H90.0466V25.0625H85.0466H80.0466V33.4062H85.0466ZM85.0466 25.0625V30.0625H104.015V25.0625V20.0625H85.0466V25.0625ZM104.015 25.0625V30.0625C103.286 30.0625 102.408 29.8111 101.661 29.1308C100.863 28.4042 100.453 27.397 100.453 26.4375H105.453H110.453C110.453 22.4012 107.106 20.0625 104.015 20.0625V25.0625ZM105.453 26.4375H100.453V34.7812H105.453H110.453V26.4375H105.453ZM105.453 34.7812V29.7812H86.4841V34.7812V39.7812H105.453V34.7812ZM86.4841 34.7812V29.7812C87.2138 29.7812 88.0913 30.0326 88.8385 30.713C89.6366 31.4396 90.0466 32.4467 90.0466 33.4062H85.0466H80.0466C80.0466 37.4425 83.3933 39.7812 86.4841 39.7812V34.7812ZM88.6716 31.8438V36.8438H101.828V31.8438V26.8438H88.6716V31.8438ZM101.828 31.8438H106.828V28H101.828H96.8279V31.8438H101.828ZM101.828 28V23H88.6716V28V33H101.828V28ZM88.6716 28H83.6716V31.8438H88.6716H93.6716V28H88.6716ZM129.403 11.7812V16.7812C132.164 16.7812 134.403 14.5427 134.403 11.7812H129.403ZM123.778 11.7812V6.78125C121.016 6.78125 118.778 9.01983 118.778 11.7812H123.778ZM123.778 19.25H118.778C118.778 22.0114 121.016 24.25 123.778 24.25V19.25ZM129.59 19.25H134.59C134.59 16.4886 132.352 14.25 129.59 14.25V19.25ZM129.59 22.1875V27.1875C132.352 27.1875 134.59 24.9489 134.59 22.1875H129.59ZM120.153 8.84375V3.84375C117.391 3.84375 115.153 6.08233 115.153 8.84375H120.153ZM129.403 8.84375H134.403C134.403 6.08233 132.164 3.84375 129.403 3.84375V8.84375ZM118.528 29.9062H113.528C113.528 32.6677 115.766 34.9062 118.528 34.9062V29.9062ZM118.528 26.9062V21.9062C115.766 21.9062 113.528 24.1448 113.528 26.9062H118.528ZM142.59 26.9062H147.59C147.59 24.1448 145.352 21.9062 142.59 21.9062V26.9062ZM142.59 29.9062V34.9062C145.352 34.9062 147.59 32.6677 147.59 29.9062H142.59ZM130.84 8.84375V3.84375C128.079 3.84375 125.84 6.08233 125.84 8.84375H130.84ZM140.965 8.84375H145.965C145.965 6.08233 143.727 3.84375 140.965 3.84375V8.84375ZM140.965 11.7812V16.7812C143.727 16.7812 145.965 14.5427 145.965 11.7812H140.965ZM134.465 11.7812V6.78125C131.704 6.78125 129.465 9.01983 129.465 11.7812H134.465ZM134.465 19.25H129.465C129.465 22.0114 131.704 24.25 134.465 24.25V19.25ZM141.184 19.25H146.184C146.184 16.4886 143.946 14.25 141.184 14.25V19.25ZM141.184 22.1875V27.1875C143.946 27.1875 146.184 24.9489 146.184 22.1875H141.184ZM129.403 11.7812V6.78125H123.778V11.7812V16.7812H129.403V11.7812ZM123.778 11.7812H118.778V19.25H123.778H128.778V11.7812H123.778ZM123.778 19.25V24.25H129.59V19.25V14.25H123.778V19.25ZM129.59 19.25H124.59V22.1875H129.59H134.59V19.25H129.59ZM129.59 22.1875V17.1875H121.59V22.1875V27.1875H129.59V22.1875ZM121.59 22.1875V17.1875C122.32 17.1875 123.198 17.4389 123.945 18.1192C124.743 18.8458 125.153 19.853 125.153 20.8125H120.153H115.153C115.153 24.8488 118.5 27.1875 121.59 27.1875V22.1875ZM120.153 20.8125H125.153V8.84375H120.153H115.153V20.8125H120.153ZM120.153 8.84375V13.8438H129.403V8.84375V3.84375H120.153V8.84375ZM129.403 8.84375H124.403V11.7812H129.403H134.403V8.84375H129.403ZM118.528 29.9062H123.528V26.9062H118.528H113.528V29.9062H118.528ZM118.528 26.9062V31.9062H142.59V26.9062V21.9062H118.528V26.9062ZM142.59 26.9062H137.59V29.9062H142.59H147.59V26.9062H142.59ZM142.59 29.9062V24.9062H118.528V29.9062V34.9062H142.59V29.9062ZM130.84 20.8125H135.84V8.84375H130.84H125.84V20.8125H130.84ZM130.84 8.84375V13.8438H140.965V8.84375V3.84375H130.84V8.84375ZM140.965 8.84375H135.965V11.7812H140.965H145.965V8.84375H140.965ZM140.965 11.7812V6.78125H134.465V11.7812V16.7812H140.965V11.7812ZM134.465 11.7812H129.465V19.25H134.465H139.465V11.7812H134.465ZM134.465 19.25V24.25H141.184V19.25V14.25H134.465V19.25ZM141.184 19.25H136.184V22.1875H141.184H146.184V19.25H141.184ZM141.184 22.1875V17.1875H132.278V22.1875V27.1875H141.184V22.1875ZM132.278 22.1875V17.1875C133.008 17.1875 133.885 17.4389 134.632 18.1192C135.43 18.8458 135.84 19.853 135.84 20.8125H130.84H125.84C125.84 24.8488 129.187 27.1875 132.278 27.1875V22.1875ZM148.328 8.46875H153.328C153.328 5.70733 151.089 3.46875 148.328 3.46875V8.46875ZM148.328 15.4375H143.328C143.328 18.1989 145.566 20.4375 148.328 20.4375V15.4375ZM165.297 15.4375H170.297C170.297 12.6761 168.058 10.4375 165.297 10.4375V15.4375ZM165.297 18.375V23.375C168.058 23.375 170.297 21.1364 170.297 18.375H165.297ZM144.703 8.46875V3.46875C141.941 3.46875 139.703 5.70733 139.703 8.46875H144.703ZM142.828 24.2812H137.828C137.828 27.0427 140.066 29.2812 142.828 29.2812V24.2812ZM142.828 21.2812V16.2812C140.066 16.2812 137.828 18.5198 137.828 21.2812H142.828ZM166.89 21.2812H171.89C171.89 18.5198 169.652 16.2812 166.89 16.2812V21.2812ZM166.89 24.2812V29.2812C169.652 29.2812 171.89 27.0427 171.89 24.2812H166.89ZM144.734 26.4688V21.4688C141.973 21.4688 139.734 23.7073 139.734 26.4688H144.734ZM148.359 26.4688H153.359C153.359 23.7073 151.121 21.4688 148.359 21.4688V26.4688ZM148.359 31.5312H143.359C143.359 34.2927 145.598 36.5312 148.359 36.5312V31.5312ZM165.359 31.5312H170.359C170.359 28.7698 168.121 26.5312 165.359 26.5312V31.5312ZM165.359 34.5312V39.5312C168.121 39.5312 170.359 37.2927 170.359 34.5312H165.359ZM148.328 8.46875H143.328V15.4375H148.328H153.328V8.46875H148.328ZM148.328 15.4375V20.4375H165.297V15.4375V10.4375H148.328V15.4375ZM165.297 15.4375H160.297V18.375H165.297H170.297V15.4375H165.297ZM165.297 18.375V13.375H146.14V18.375V23.375H165.297V18.375ZM146.14 18.375V13.375C146.87 13.375 147.748 13.6264 148.495 14.3067C149.293 15.0333 149.703 16.0405 149.703 17H144.703H139.703C139.703 21.0363 143.05 23.375 146.14 23.375V18.375ZM144.703 17H149.703V8.46875H144.703H139.703V17H144.703ZM144.703 8.46875V13.4688H148.328V8.46875V3.46875H144.703V8.46875ZM142.828 24.2812H147.828V21.2812H142.828H137.828V24.2812H142.828ZM142.828 21.2812V26.2812H166.89V21.2812V16.2812H142.828V21.2812ZM166.89 21.2812H161.89V24.2812H166.89H171.89V21.2812H166.89ZM166.89 24.2812V19.2812H142.828V24.2812V29.2812H166.89V24.2812ZM144.734 32.8438H149.734V26.4688H144.734H139.734V32.8438H144.734ZM144.734 26.4688V31.4688H148.359V26.4688V21.4688H144.734V26.4688ZM148.359 26.4688H143.359V31.5312H148.359H153.359V26.4688H148.359ZM148.359 31.5312V36.5312H165.359V31.5312V26.5312H148.359V31.5312ZM165.359 31.5312H160.359V34.5312H165.359H170.359V31.5312H165.359ZM165.359 34.5312V29.5312H146.484V34.5312V39.5312H165.359V34.5312ZM146.484 34.5312V29.5312C147.123 29.5312 147.94 29.7545 148.643 30.4054C149.389 31.096 149.734 32.0223 149.734 32.8438H144.734H139.734C139.734 36.9918 143.123 39.5312 146.484 39.5312V34.5312ZM200.403 11.3438V16.3438C203.164 16.3438 205.403 14.1052 205.403 11.3438H200.403ZM183.653 11.3438V6.34375C180.891 6.34375 178.653 8.58233 178.653 11.3438H183.653ZM183.653 14.625H178.653C178.653 17.3864 180.891 19.625 183.653 19.625V14.625ZM200.622 14.625H205.622C205.622 11.8636 203.383 9.625 200.622 9.625V14.625ZM200.622 17.5625V22.5625C203.383 22.5625 205.622 20.3239 205.622 17.5625H200.622ZM191.997 17.5625V12.5625C189.235 12.5625 186.997 14.8011 186.997 17.5625H191.997ZM191.997 20.125H186.997C186.997 22.8864 189.235 25.125 191.997 25.125V20.125ZM202.215 20.125H207.215C207.215 17.3636 204.977 15.125 202.215 15.125V20.125ZM202.215 23.125V28.125C204.977 28.125 207.215 25.8864 207.215 23.125H202.215ZM178.153 23.125H173.153C173.153 25.8864 175.391 28.125 178.153 28.125V23.125ZM178.153 20.125V15.125C175.391 15.125 173.153 17.3636 173.153 20.125H178.153ZM188.372 20.125V25.125C191.133 25.125 193.372 22.8864 193.372 20.125H188.372ZM188.372 17.5625H193.372C193.372 14.8011 191.133 12.5625 188.372 12.5625V17.5625ZM180.028 8.40625V3.40625C177.266 3.40625 175.028 5.64483 175.028 8.40625H180.028ZM200.403 8.40625H205.403C205.403 5.64483 203.164 3.40625 200.403 3.40625V8.40625ZM200.403 11.3438V6.34375H183.653V11.3438V16.3438H200.403V11.3438ZM183.653 11.3438H178.653V14.625H183.653H188.653V11.3438H183.653ZM183.653 14.625V19.625H200.622V14.625V9.625H183.653V14.625ZM200.622 14.625H195.622V17.5625H200.622H205.622V14.625H200.622ZM200.622 17.5625V12.5625H191.997V17.5625V22.5625H200.622V17.5625ZM191.997 17.5625H186.997V20.125H191.997H196.997V17.5625H191.997ZM191.997 20.125V25.125H202.215V20.125V15.125H191.997V20.125ZM202.215 20.125H197.215V23.125H202.215H207.215V20.125H202.215ZM202.215 23.125V18.125H178.153V23.125V28.125H202.215V23.125ZM178.153 23.125H183.153V20.125H178.153H173.153V23.125H178.153ZM178.153 20.125V25.125H188.372V20.125V15.125H178.153V20.125ZM188.372 20.125H193.372V17.5625H188.372H183.372V20.125H188.372ZM188.372 17.5625V12.5625H181.465V17.5625V22.5625H188.372V17.5625ZM181.465 17.5625V12.5625C182.195 12.5625 183.073 12.8139 183.82 13.4942C184.618 14.2208 185.028 15.228 185.028 16.1875H180.028H175.028C175.028 20.2238 178.375 22.5625 181.465 22.5625V17.5625ZM180.028 16.1875H185.028V8.40625H180.028H175.028V16.1875H180.028ZM180.028 8.40625V13.4062H200.403V8.40625V3.40625H180.028V8.40625ZM200.403 8.40625H195.403V11.3438H200.403H205.403V8.40625H200.403ZM179.965 30.2812H184.965C184.965 30.4775 184.882 30.7713 184.713 30.9939C184.592 31.1543 184.584 31.069 184.975 30.8849C185.833 30.4799 187.551 30.0938 190.215 30.0938V25.0938V20.0938C186.879 20.0938 183.473 20.5357 180.706 21.8416C177.765 23.2298 174.965 25.9774 174.965 30.2812H179.965ZM190.215 25.0938V30.0938C192.842 30.0938 194.544 30.4785 195.394 30.8814C195.78 31.0645 195.773 31.1492 195.653 30.99C195.486 30.7692 195.403 30.4772 195.403 30.2812H200.403H205.403C205.403 25.9817 202.608 23.2345 199.677 21.8452C196.918 20.5371 193.526 20.0938 190.215 20.0938V25.0938ZM200.403 30.2812H195.403C195.403 30.1037 195.48 29.8215 195.643 29.6034C195.761 29.4458 195.769 29.5299 195.386 29.7123C194.541 30.1149 192.843 30.5 190.215 30.5V35.5V40.5C193.525 40.5 196.921 40.057 199.685 38.7409C202.631 37.338 205.403 34.5768 205.403 30.2812H200.403ZM190.215 35.5V30.5C187.55 30.5 185.836 30.1134 184.982 29.7087C184.596 29.5254 184.604 29.4407 184.723 29.5996C184.888 29.8195 184.965 30.1034 184.965 30.2812H179.965H174.965C174.965 34.581 177.742 37.3427 180.698 38.7445C183.47 40.0585 186.88 40.5 190.215 40.5V35.5ZM183.684 30.2812H178.684C178.684 32.3297 179.667 33.9098 180.76 34.9182C181.764 35.8451 182.922 36.3724 183.853 36.6912C185.731 37.3345 187.983 37.5625 190.215 37.5625V32.5625V27.5625C188.51 27.5625 187.496 27.3687 187.093 27.2306C186.883 27.1588 187.147 27.2057 187.542 27.5701C187.762 27.7727 188.055 28.1059 188.294 28.5942C188.542 29.1011 188.684 29.6808 188.684 30.2812H183.684ZM190.215 32.5625V37.5625C192.423 37.5625 194.661 37.3332 196.533 36.6878C197.461 36.3679 198.615 35.8393 199.616 34.9127C200.703 33.906 201.684 32.328 201.684 30.2812H196.684H191.684C191.684 29.6809 191.826 29.1023 192.073 28.597C192.311 28.1101 192.603 27.7778 192.821 27.5756C193.214 27.2115 193.478 27.1633 193.273 27.2341C192.879 27.3699 191.883 27.5625 190.215 27.5625V32.5625ZM196.684 30.2812H201.684C201.684 28.2048 200.668 26.6274 199.587 25.6413C198.588 24.7307 197.439 24.2115 196.518 23.897C194.656 23.2611 192.425 23.0312 190.215 23.0312V28.0312V33.0312C191.881 33.0312 192.885 33.2232 193.288 33.3608C193.499 33.4331 193.241 33.3885 192.85 33.0316C192.376 32.5992 191.684 31.6546 191.684 30.2812H196.684ZM190.215 28.0312V23.0312C187.981 23.0312 185.737 23.2599 183.868 23.8937C182.943 24.207 181.791 24.725 180.788 25.6359C179.702 26.6235 178.684 28.203 178.684 30.2812H183.684H188.684C188.684 30.9039 188.534 31.4985 188.278 32.012C188.032 32.5055 187.732 32.8381 187.513 33.0369C187.12 33.3942 186.862 33.4375 187.079 33.3642C187.491 33.2245 188.512 33.0312 190.215 33.0312V28.0312ZM220.922 30.4375H215.922C215.922 33.1989 218.16 35.4375 220.922 35.4375V30.4375ZM220.922 8.03125V3.03125C218.16 3.03125 215.922 5.26983 215.922 8.03125H220.922ZM224.547 8.03125H229.547C229.547 5.26983 227.308 3.03125 224.547 3.03125V8.03125ZM224.547 16.6562H219.547C219.547 19.4177 221.785 21.6562 224.547 21.6562V16.6562ZM227.797 16.6562H232.797C232.797 13.8948 230.558 11.6562 227.797 11.6562V16.6562ZM227.797 19.6562V24.6562C230.558 24.6562 232.797 22.4177 232.797 19.6562H227.797ZM224.547 19.6562V14.6562C221.785 14.6562 219.547 16.8948 219.547 19.6562H224.547ZM224.547 30.4375V35.4375C227.308 35.4375 229.547 33.1989 229.547 30.4375H224.547ZM210.422 29.8125V24.8125C209.583 24.8125 209.201 24.5619 208.836 24.035C208.316 23.285 207.734 21.6961 207.734 18.9375H202.734H197.734C197.734 22.8664 198.527 26.715 200.617 29.7306C202.861 32.9693 206.323 34.8125 210.422 34.8125V29.8125ZM202.734 18.9375H207.734C207.734 16.1982 208.315 14.6304 208.828 13.895C209.186 13.3811 209.568 13.125 210.422 13.125V8.125V3.125C206.338 3.125 202.876 4.94701 200.625 8.17532C198.528 11.1821 197.734 15.0205 197.734 18.9375H202.734ZM210.422 8.125V13.125C211.275 13.125 211.657 13.3811 212.016 13.895C212.528 14.6304 213.109 16.1982 213.109 18.9375H218.109H223.109C223.109 15.0205 222.315 11.1821 220.218 8.17532C217.967 4.94701 214.505 3.125 210.422 3.125V8.125ZM218.109 18.9375H213.109C213.109 21.6961 212.527 23.285 212.007 24.035C211.642 24.5619 211.26 24.8125 210.422 24.8125V29.8125V34.8125C214.521 34.8125 217.982 32.9693 220.227 29.7306C222.316 26.715 223.109 22.8664 223.109 18.9375H218.109ZM206.359 18.9375H201.359C201.359 21.8225 201.757 24.7138 202.977 27.0716C204.333 29.691 206.867 31.8125 210.422 31.8125V26.8125V21.8125C210.729 21.8125 211.142 21.9125 211.51 22.1636C211.839 22.3876 211.914 22.583 211.858 22.4753C211.798 22.3584 211.663 22.0333 211.548 21.4052C211.435 20.788 211.359 19.9721 211.359 18.9375H206.359ZM210.422 26.8125V31.8125C213.976 31.8125 216.51 29.691 217.866 27.0716C219.086 24.7138 219.484 21.8225 219.484 18.9375H214.484H209.484C209.484 19.9721 209.408 20.788 209.296 21.4052C209.181 22.0333 209.045 22.3584 208.985 22.4753C208.929 22.583 209.004 22.3876 209.333 22.1636C209.701 21.9125 210.114 21.8125 210.422 21.8125V26.8125ZM214.484 18.9375H219.484C219.484 16.0761 219.084 13.1982 217.861 10.8474C216.503 8.24011 213.971 6.125 210.422 6.125V11.125V16.125C210.115 16.125 209.704 16.0252 209.338 15.7767C209.012 15.5547 208.936 15.3608 208.991 15.4651C209.049 15.5783 209.183 15.8969 209.297 16.5139C209.409 17.12 209.484 17.9217 209.484 18.9375H214.484ZM210.422 11.125V6.125C206.873 6.125 204.34 8.24011 202.983 10.8474C201.759 13.1982 201.359 16.0761 201.359 18.9375H206.359H211.359C211.359 17.9217 211.435 17.12 211.546 16.5139C211.66 15.8969 211.794 15.5783 211.853 15.4651C211.907 15.3608 211.831 15.5547 211.505 15.7767C211.14 16.0252 210.729 16.125 210.422 16.125V11.125ZM220.922 30.4375H225.922V8.03125H220.922H215.922V30.4375H220.922ZM220.922 8.03125V13.0312H224.547V8.03125V3.03125H220.922V8.03125ZM224.547 8.03125H219.547V16.6562H224.547H229.547V8.03125H224.547ZM224.547 16.6562V21.6562H227.797V16.6562V11.6562H224.547V16.6562ZM227.797 16.6562H222.797V19.6562H227.797H232.797V16.6562H227.797ZM227.797 19.6562V14.6562H224.547V19.6562V24.6562H227.797V19.6562ZM224.547 19.6562H219.547V30.4375H224.547H229.547V19.6562H224.547ZM224.547 30.4375V25.4375H220.922V30.4375V35.4375H224.547V30.4375ZM231.534 20.125V15.125C228.773 15.125 226.534 17.3636 226.534 20.125H231.534ZM231.534 26.375H226.534C226.534 29.1364 228.773 31.375 231.534 31.375V26.375ZM242.597 26.375H247.597C247.597 23.6136 245.358 21.375 242.597 21.375V26.375ZM242.597 29.375V34.375C245.358 34.375 247.597 32.1364 247.597 29.375H242.597ZM238.065 17.25V22.25C240.827 22.25 243.065 20.0114 243.065 17.25H238.065ZM238.065 11.625H243.065C243.065 8.86358 240.827 6.625 238.065 6.625V11.625ZM227.784 11.625H222.784C222.784 14.3864 225.023 16.625 227.784 16.625V11.625ZM227.784 8.625V3.625C225.023 3.625 222.784 5.86358 222.784 8.625H227.784ZM245.972 30.4375H240.972C240.972 33.1989 243.21 35.4375 245.972 35.4375V30.4375ZM245.972 8.03125V3.03125C243.21 3.03125 240.972 5.26983 240.972 8.03125H245.972ZM249.597 8.03125H254.597C254.597 5.26983 252.358 3.03125 249.597 3.03125V8.03125ZM249.597 30.4375V35.4375C252.358 35.4375 254.597 33.1989 254.597 30.4375H249.597ZM240.253 20.125V15.125H231.534V20.125V25.125H240.253V20.125ZM231.534 20.125H226.534V26.375H231.534H236.534V20.125H231.534ZM231.534 26.375V31.375H242.597V26.375V21.375H231.534V26.375ZM242.597 26.375H237.597V29.375H242.597H247.597V26.375H242.597ZM242.597 29.375V24.375H230.315V29.375V34.375H242.597V29.375ZM230.315 29.375V24.375C230.765 24.375 231.42 24.5343 232.009 25.0809C232.638 25.6647 232.909 26.4346 232.909 27.0625H227.909H222.909C222.909 31.5758 226.569 34.375 230.315 34.375V29.375ZM227.909 27.0625H232.909V18.2188H227.909H222.909V27.0625H227.909ZM227.909 18.2188H232.909C232.909 19.3293 232.432 20.4461 231.55 21.2359C230.723 21.9764 229.754 22.25 228.94 22.25V17.25V12.25C226.148 12.25 222.909 14.3605 222.909 18.2188H227.909ZM228.94 17.25V22.25H238.065V17.25V12.25H228.94V17.25ZM238.065 17.25H243.065V11.625H238.065H233.065V17.25H238.065ZM238.065 11.625V6.625H227.784V11.625V16.625H238.065V11.625ZM227.784 11.625H232.784V8.625H227.784H222.784V11.625H227.784ZM227.784 8.625V13.625H240.253V8.625V3.625H227.784V8.625ZM240.253 8.625V13.625C239.523 13.625 238.646 13.3736 237.898 12.6933C237.1 11.9667 236.69 10.9595 236.69 10H241.69H246.69C246.69 5.96371 243.344 3.625 240.253 3.625V8.625ZM241.69 10H236.69V18.75H241.69H246.69V10H241.69ZM241.69 18.75H236.69C236.69 17.7905 237.1 16.7833 237.898 16.0567C238.646 15.3764 239.523 15.125 240.253 15.125V20.125V25.125C243.344 25.125 246.69 22.7863 246.69 18.75H241.69ZM245.972 30.4375H250.972V8.03125H245.972H240.972V30.4375H245.972ZM245.972 8.03125V13.0312H249.597V8.03125V3.03125H245.972V8.03125ZM249.597 8.03125H244.597V30.4375H249.597H254.597V8.03125H249.597ZM249.597 30.4375V25.4375H245.972V30.4375V35.4375H249.597V30.4375Z" fill="#EA5147" mask="url(#path-1-outside-1_1193_3771)"/>
<path d="M16.0079 1V5H16.0049C15.7891 5.00109 15.5953 5.13487 15.5186 5.33691L13.1973 11.459C12.9628 11.4951 12.786 11.5243 12.6514 11.5527C12.6073 11.5423 12.5612 11.5356 12.5137 11.5371L4.50788 11.8047L4.41022 11.8174C4.1899 11.8669 4.0214 12.0554 4.00397 12.2881C3.99865 12.3616 3.92156 13.5793 4.61237 14.9639L4.61335 14.9648C4.92982 15.5988 5.40686 16.2679 6.12604 16.8779C7.94293 18.4195 11.3968 18.9063 12.7003 19.04L13.7071 25.084C13.7563 25.4455 14.606 31.6071 15.6983 34.2031C16.8497 36.9396 20.9584 38.8767 25.7823 38.9951L26.251 39.001C26.6807 39.001 27.1183 38.9869 27.5567 38.959L27.9952 38.9258C34.5699 38.3699 36.7152 34.7165 37.1241 33.877L37.1837 33.748C37.6081 32.7649 37.8263 30.4426 37.918 29.167L37.9708 28.3291L38.0518 26.8193C38.1713 24.6346 38.373 20.7213 38.3868 19.4893C38.5672 19.4802 42.3016 19.2881 44.5147 17.3232C46.5639 15.5042 46.381 13.2006 46.3721 13.1035C46.3494 12.8539 46.1528 12.6555 45.9034 12.6309L38.5421 11.915C38.5266 11.9135 38.5108 11.9121 38.4952 11.9121L37.4981 11.9043C37.4452 11.8781 37.3899 11.8545 37.334 11.8291L35.584 5.80273L35.4688 5.40332C35.4113 5.21902 35.2576 5.08374 35.0723 5.04688L34.9913 5.03711C34.7706 5.02632 34.5675 5.1591 34.4854 5.36426L32.3214 10.7617C31.0722 10.647 29.6496 10.5799 28.0567 10.5605L27.0704 10.5547C23.8663 10.5547 20.7572 10.7373 18.6485 10.8955L16.4942 5.33398C16.4259 5.15781 16.2694 5.03393 16.087 5.00586L16.0079 5V1C17.877 1.00012 19.5499 2.15024 20.2237 3.88867L20.2247 3.88965L21.3184 6.71582C23.0527 6.62464 25.0397 6.55469 27.0704 6.55469C27.9781 6.55469 28.849 6.56948 29.6807 6.59766L30.7725 3.87598C31.4717 2.13122 33.2038 0.963441 35.1475 1.04199L35.1485 1.04004C35.1559 1.04033 35.1635 1.04166 35.171 1.04199C35.1761 1.04222 35.1815 1.04174 35.1866 1.04199L35.1856 1.04395C36.9657 1.12865 38.5153 2.24651 39.168 3.87793L39.2872 4.21289L39.2989 4.25L39.3096 4.28809L40.4102 8.07715L46.2901 8.65039H46.2921C48.4527 8.86171 50.1613 10.5794 50.3565 12.7451H50.3555C50.4051 13.2953 50.6471 17.2292 47.17 20.3154L47.169 20.3145C45.5899 21.7163 43.7063 22.4557 42.2598 22.8613C42.1898 24.3383 42.1061 25.9384 42.046 27.0381C42.0098 27.6986 41.9812 28.2203 41.9659 28.5273V28.5303C41.9537 28.7715 41.8933 29.8857 41.7579 31.1348C41.6904 31.7575 41.5996 32.4607 41.4766 33.1299C41.3662 33.7304 41.1836 34.5743 40.8555 35.334L40.8546 35.3359C40.2523 36.7286 37.2254 42.1603 28.3321 42.9121C27.6388 42.9707 26.9396 43.001 26.251 43.001C23.2446 43.0009 20.328 42.4152 17.8809 41.3027C15.5817 40.2574 13.2876 38.5458 12.1212 36.0029L12.0118 35.7539C11.2758 34.0047 10.7273 31.4096 10.379 29.5361C10.0398 27.7117 9.81555 26.1353 9.7569 25.7129L9.2237 22.5117C7.6332 22.1441 5.3068 21.4281 3.53913 19.9287L3.19635 19.625C-0.224195 16.4655 -0.0214027 12.4976 0.0147126 11.999L0.0156892 11.9902C0.187571 9.69028 2.06368 7.88383 4.37409 7.80664L10.3809 7.60547L11.7794 3.91895L11.9151 3.59766C12.653 2.02756 14.2337 1.00784 15.9874 1H16.0079Z" fill="#EA5147"/>
<path d="M12.5315 12.0585L4.52508 12.326C4.52508 12.326 4.34994 14.6859 6.46403 16.4789C8.57774 18.2724 13.2416 18.5649 13.2416 18.5649L12.5315 12.0585Z" fill="#C8B595"/>
<path d="M5.06115 12.8314C5.12988 13.5418 5.44534 14.9311 6.80165 16.0814C8.31815 17.368 11.3477 17.8378 12.6529 17.9855L12.0648 12.5975L5.06115 12.8314ZM13.2416 19.0879C13.2308 19.0879 13.2198 19.0875 13.2089 19.0868C13.0116 19.0744 8.34674 18.7618 6.12624 16.8778C3.83567 14.9351 3.99643 12.3953 4.0042 12.2881C4.02408 12.0221 4.24107 11.8136 4.50768 11.8047L12.5141 11.5372C12.7883 11.5286 13.021 11.731 13.0506 12.0024L13.7608 18.5089C13.7775 18.6622 13.7258 18.8148 13.6192 18.9262C13.5205 19.0298 13.3838 19.0879 13.2416 19.0879Z" fill="black"/>
<path d="M13.5431 12.022L16.0073 5.52194L18.3637 11.6056L13.5431 12.022Z" fill="#DEB972"/>
<path d="M16.0125 6.98169L14.3259 11.4303L17.6252 11.1453L16.0125 6.98169ZM13.543 12.5444C13.3801 12.5444 13.2254 12.4685 13.1262 12.3371C13.0179 12.1938 12.9908 12.0048 13.0545 11.8372L15.519 5.33718C15.5957 5.13495 15.7892 5.00089 16.0053 4.99994H16.0076C16.2228 4.99994 16.4164 5.13249 16.4944 5.33377L18.8505 11.417C18.9099 11.5702 18.8934 11.7427 18.8065 11.8821C18.7196 12.0214 18.5721 12.1118 18.4083 12.126L13.5877 12.5425C13.5729 12.5439 13.5578 12.5444 13.543 12.5444Z" fill="black"/>
<path d="M32.5129 11.6883L34.9704 5.55844L37.084 12.3491L32.5129 11.6883Z" fill="#DEB972"/>
<path d="M33.2447 11.2663L36.3392 11.7137L34.9081 7.11646L33.2447 11.2663ZM37.0839 12.8716C37.0593 12.8716 37.0343 12.8697 37.0095 12.8659L32.438 12.2051C32.2796 12.1823 32.1404 12.0877 32.0605 11.9489C31.9804 11.8103 31.9685 11.6425 32.0279 11.4939L34.4855 5.36402C34.5675 5.15876 34.7703 5.02583 34.991 5.03663C35.2118 5.04534 35.4031 5.19227 35.4688 5.40302L37.5687 12.1496C37.5942 12.2111 37.6082 12.2785 37.6082 12.3492C37.6082 12.6372 37.375 12.8708 37.0871 12.8716H37.0839Z" fill="black"/>
<path d="M37.353 12.4258L38.4919 12.4343L45.8525 13.1506C45.8525 13.1506 46.0436 15.2673 44.1675 16.9327C42.0667 18.7982 37.8338 19.0127 37.8338 19.0127L37.353 12.4258Z" fill="#C8B595"/>
<path d="M37.9148 12.9527L38.3161 18.4478C39.4688 18.3255 42.2954 17.8968 43.8208 16.5424C44.9984 15.4972 45.2665 14.2609 45.3224 13.6241L38.4643 12.9567L37.9148 12.9527ZM37.8332 19.5356C37.5613 19.5356 37.333 19.3253 37.3127 19.0513L36.8319 12.4643C36.8215 12.3187 36.8719 12.1756 36.9719 12.0692C37.0713 11.9628 37.211 11.8989 37.3568 11.9041L38.4956 11.9126C38.5113 11.9126 38.5268 11.9135 38.5423 11.915L45.9029 12.6312C46.1527 12.6556 46.3498 12.854 46.3723 13.104C46.3812 13.2011 46.5639 15.5044 44.5144 17.3235C42.3013 19.2884 38.0406 19.5258 37.8601 19.5349C37.8512 19.5355 37.8421 19.5356 37.8332 19.5356Z" fill="black"/>
<path d="M12.4872 12.1436C12.9646 11.7685 32.7073 9.74798 37.5005 12.4958C37.9665 12.7632 37.879 18.1595 37.862 19.7396C37.8447 21.3196 37.5198 26.8937 37.449 28.3019C37.3782 29.7099 37.1368 32.5384 36.7037 33.5407C36.2709 34.5427 34.0829 37.8868 27.9508 38.4049C21.8185 38.9235 17.2668 36.5835 16.1797 33.9996C15.0925 31.4152 14.2235 25.0053 14.2235 25.0053L12.6474 15.5349C12.6474 15.5349 12.0099 12.5184 12.4872 12.1436Z" fill="#C8B595"/>
<path d="M12.8503 12.5762C12.7777 12.997 12.9093 14.2465 13.1585 15.4275C13.16 15.4348 13.1614 15.4424 13.1625 15.4496L14.7388 24.92C14.7398 24.9251 14.7405 24.9304 14.7413 24.9355C14.7498 24.999 15.6131 31.3066 16.6611 33.7973C17.5306 35.8639 21.1038 37.9558 26.2513 37.9558C26.7947 37.9558 27.352 37.932 27.907 37.885C34.4248 37.3344 36.1541 33.497 36.2243 33.334C36.5968 32.4715 36.849 29.8367 36.9276 28.2762C36.9437 27.9555 36.9728 27.4189 37.0088 26.7624C37.1277 24.5862 37.3266 20.9436 37.3398 19.7342L37.3428 19.4769C37.3976 14.8164 37.2652 13.3016 37.133 12.89C35.54 12.0449 32.0674 11.5988 27.0706 11.5988C20.5062 11.5988 13.9803 12.3327 12.8503 12.5762ZM26.2513 39.0005C21.2263 39.0005 16.8868 37.0275 15.6985 34.2025C14.6061 31.6065 13.7565 25.4452 13.7073 25.0838L12.1341 15.6323C11.4326 12.3073 11.9838 11.8752 12.1648 11.7334C12.2813 11.6416 12.3915 11.555 13.8569 11.363C14.7703 11.2434 15.9834 11.1161 17.2727 11.0042C19.2139 10.8365 23.0683 10.5543 27.0706 10.5543C32.4406 10.5543 36.0373 11.0554 37.7605 12.0434C38.2019 12.2964 38.464 12.9241 38.3871 19.4892L38.3843 19.7456C38.3704 20.9777 38.1712 24.6346 38.0518 26.8194C38.016 27.4738 37.9866 28.0089 37.9707 28.3285C37.9497 28.7454 37.7494 32.4374 37.1834 33.7481C36.9814 34.2154 35.0082 38.333 27.995 38.9259C27.4105 38.9753 26.8241 39.0005 26.2513 39.0005Z" fill="black"/>
<path d="M20.1947 23.9858C19.7187 21.2047 18.8956 12.0531 19.1362 11.3936C19.1362 11.3936 20.6751 10.8642 24.4624 10.8546C28.2492 10.8445 31.688 11.3963 32.1345 12.1084C32.3964 12.5263 32.6878 13.6287 32.7438 15.7936C32.7438 15.7936 32.873 20.7508 32.5246 23.2354" fill="#8E7F66"/>
<path d="M20.1943 24.5078C19.9446 24.5078 19.7238 24.3281 19.6801 24.0736C19.3082 21.9012 18.316 12.1171 18.6458 11.2141C18.6998 11.0662 18.8176 10.9507 18.9664 10.8996C19.0325 10.8766 20.6312 10.3417 24.461 10.3321C26.3272 10.3273 28.1645 10.4557 29.6348 10.6949C31.8604 11.0563 32.3799 11.5163 32.5771 11.8304C32.9715 12.4606 33.2163 13.8631 33.2661 15.7797C33.2714 15.9838 33.3922 20.8087 33.0417 23.3075C33.0016 23.5931 32.7378 23.7923 32.4519 23.7521C32.1664 23.7122 31.9674 23.448 32.0073 23.1625C32.3457 20.7494 32.2232 15.856 32.222 15.8068C32.1556 13.2496 31.7689 12.5079 31.692 12.3852C31.3938 12.0213 28.7158 11.3669 24.4638 11.3763C21.755 11.3834 20.2207 11.663 19.613 11.8058C19.5614 13.4772 20.2483 21.2033 20.7096 23.8972C20.7584 24.1816 20.5674 24.4514 20.2832 24.5002C20.2532 24.5052 20.2235 24.5078 20.1943 24.5078Z" fill="black"/>
<path d="M21.4655 16.3564C21.2509 16.3564 21.0686 16.1923 21.0498 15.9747C20.8658 13.8487 20.7758 11.1336 20.7751 11.1063C20.7673 10.8759 20.9483 10.6827 21.1788 10.6752C21.4096 10.6714 21.6027 10.8486 21.6101 11.0792C21.6111 11.1059 21.7002 13.7995 21.8822 15.9028C21.9023 16.1324 21.7317 16.335 21.5018 16.3549C21.4897 16.3559 21.4776 16.3564 21.4655 16.3564Z" fill="black"/>
<path d="M22.5764 23.4692C22.3881 23.4692 22.217 23.3407 22.1706 23.1496C21.9081 22.0633 21.5171 19.9293 21.5005 19.8388C21.459 19.612 21.6093 19.3942 21.8364 19.3528C22.0634 19.3107 22.281 19.4616 22.3224 19.6885C22.3264 19.7102 22.7257 21.8899 22.9827 22.9529C23.0372 23.1773 22.8992 23.403 22.675 23.4575C22.6421 23.4653 22.6089 23.4692 22.5764 23.4692Z" fill="black"/>
<path d="M24.62 23.3101C24.4136 23.3101 24.2339 23.1565 24.2065 22.9461C24.2036 22.9245 23.9221 20.7453 23.6691 17.3889C23.4163 14.0404 23.2438 11.1956 23.2423 11.1672C23.2283 10.9367 23.4036 10.7389 23.6341 10.7249C23.8645 10.7122 24.0624 10.8866 24.0764 11.1166C24.0779 11.145 24.2502 13.9842 24.5024 17.3262C24.7535 20.6601 25.0324 22.817 25.0349 22.8382C25.065 23.0669 24.9035 23.2767 24.6747 23.3065C24.6564 23.3089 24.6382 23.3101 24.62 23.3101Z" fill="black"/>
<path d="M28.7909 23.1226C28.5642 23.1226 28.3779 22.9412 28.3733 22.7134C28.2739 17.8592 27.6148 11.3179 27.6082 11.2524C27.5849 11.0227 27.7521 10.8178 27.9818 10.7945C28.2107 10.7716 28.4161 10.9382 28.4394 11.1679C28.4462 11.2336 29.1086 17.8082 29.2088 22.6961C29.2135 22.9271 29.0304 23.118 28.7994 23.1224C28.7967 23.1226 28.7937 23.1226 28.7909 23.1226Z" fill="black"/>
<path d="M26.697 23.1665C26.4766 23.1665 26.292 22.9938 26.2803 22.771C26.2772 22.716 25.9847 17.2567 25.8531 15.4192C25.8364 15.189 26.0097 14.989 26.2399 14.9727C26.4696 14.9527 26.67 15.1293 26.6862 15.3594C26.8192 17.2044 27.1117 22.6714 27.1145 22.7263C27.127 22.9569 26.9502 23.1536 26.7196 23.1657C26.7122 23.1663 26.7046 23.1665 26.697 23.1665Z" fill="black"/>
<path d="M22.6403 17.8794C22.4428 17.8794 22.2671 17.7387 22.23 17.5372C22.188 17.3104 22.3381 17.0926 22.565 17.0506C23.2118 16.9311 23.8855 16.8289 23.8923 16.8279C24.1203 16.7944 24.3333 16.9503 24.368 17.1786C24.4026 17.4066 24.2455 17.6194 24.0173 17.6541C24.0108 17.655 23.35 17.7556 22.7166 17.8724C22.6911 17.8769 22.6655 17.8794 22.6403 17.8794Z" fill="black"/>
<path d="M30.6641 19.1606C30.6582 19.1606 30.6524 19.1605 30.6461 19.1601C30.4157 19.1504 30.2365 18.9556 30.2466 18.7251C30.3511 16.2564 29.7721 11.6561 29.7662 11.6101C29.7372 11.3812 29.8993 11.1719 30.1282 11.143C30.3568 11.1134 30.566 11.2759 30.5952 11.5048C30.6194 11.6963 31.1888 16.2219 31.0812 18.7604C31.0716 18.9847 30.8868 19.1606 30.6641 19.1606Z" fill="black"/>
<path d="M32.1934 26.2752L31.9621 27.8792C31.9621 27.8792 30.295 28.4999 29.9055 28.1943C29.887 28.1799 28.9385 26.7227 28.9385 26.7227L27.877 28.5476L26.3778 28.7792L25.2314 26.9906L24.0198 29.23C24.0198 29.23 22.0256 29.2851 21.658 29.145C21.658 29.145 20.6715 26.7429 20.1955 23.9619C20.1955 23.9619 21.3181 23.3486 23.64 23.0631C25.9614 22.7766 31.2376 22.8065 32.5598 23.1364C32.5598 23.1364 32.2402 25.8257 32.1934 26.2752Z" fill="#DEB972"/>
<path d="M22.0383 28.684C22.2206 28.7008 22.5596 28.7192 23.1693 28.7192C23.3711 28.7192 23.559 28.7171 23.7055 28.7149L24.7723 26.743C24.8602 26.5805 25.0275 26.4765 25.2124 26.4695C25.3973 26.4631 25.5716 26.554 25.6713 26.7096L26.6338 28.2118L27.5508 28.0703L28.4872 26.4608C28.578 26.3042 28.7443 26.2058 28.9255 26.2014C29.1067 26.1973 29.2771 26.2864 29.3763 26.4385C29.6462 26.8532 30.0589 27.485 30.2392 27.7569C30.2466 27.7571 30.2547 27.7571 30.2633 27.7571C30.5893 27.7571 31.1271 27.6075 31.4906 27.4898L31.6752 26.2115C31.7124 25.8568 31.8896 24.3554 31.9831 23.5641C31.1666 23.4562 29.7069 23.3897 28.0284 23.3897C26.296 23.3897 24.6791 23.4615 23.704 23.5819C22.2261 23.7637 21.2553 24.0843 20.7823 24.2723C21.1656 26.2798 21.7933 28.0379 22.0383 28.684ZM23.1693 29.7637C21.813 29.7637 21.5827 29.6758 21.4721 29.6338C21.3371 29.5825 21.2298 29.4776 21.1749 29.3443C21.1338 29.2439 20.1611 26.8564 19.6807 24.0508C19.643 23.8309 19.749 23.6113 19.9448 23.5043C19.9943 23.4774 21.1828 22.8399 23.576 22.5452C24.5911 22.4201 26.2555 22.3453 28.0284 22.3453C28.853 22.3453 31.627 22.3659 32.6862 22.6301C32.9414 22.6937 33.1094 22.9374 33.0785 23.1983C33.0753 23.2254 32.7587 25.8892 32.7129 26.3298C32.7121 26.3368 32.7114 26.3438 32.7102 26.3506L32.4792 27.9544C32.4518 28.1436 32.3232 28.3025 32.1444 28.3693C32.0253 28.4134 30.9625 28.8018 30.2633 28.8018C29.9739 28.8018 29.7513 28.7376 29.5833 28.606C29.5125 28.5499 29.4992 28.5393 28.9638 27.7187L28.3287 28.811C28.2493 28.9474 28.1126 29.0405 27.9566 29.0646L26.4571 29.2956C26.2528 29.327 26.0495 29.2354 25.9379 29.0614L25.2697 28.0186L24.4792 29.4793C24.3904 29.6432 24.2207 29.7478 24.0342 29.7529C24.0181 29.7531 23.6353 29.7637 23.1693 29.7637Z" fill="black"/>
<path d="M22.7871 34.0762C20.9565 34.0762 19.5468 32.6922 19.4832 32.6288C19.2586 32.4048 19.2582 32.041 19.4824 31.8165C19.7062 31.5925 20.0692 31.5917 20.2938 31.8149C20.3197 31.8398 21.6092 33.0857 23.0746 32.9103C25.029 32.6761 26.7129 31.2412 26.7298 31.2268C26.9687 31.021 27.3293 31.0456 27.5374 31.2825C27.5904 31.3423 28.8914 32.7736 30.6895 32.3554C32.208 32.0016 32.6968 31.302 32.7009 31.295C32.867 31.0248 33.2207 30.9401 33.4909 31.1062C33.7615 31.2725 33.8457 31.6264 33.6799 31.8966C33.6106 32.009 32.9465 33.0096 30.9498 33.4742C29.1343 33.8972 27.722 32.9743 27.0685 32.4186C26.381 32.9204 24.9128 33.8474 23.2109 34.0512C23.0676 34.0682 22.9261 34.0762 22.7871 34.0762Z" fill="black"/>
<path d="M38.5122 16.5117C38.2033 16.5117 37.9481 16.2661 37.9382 15.9554C37.9284 15.6381 38.1774 15.3728 38.4947 15.3633L40.7258 15.2938C41.0422 15.2826 41.3083 15.533 41.3179 15.8501C41.3278 16.1673 41.0788 16.4324 40.7616 16.4422L38.5303 16.5113C38.5241 16.5115 38.518 16.5117 38.5122 16.5117Z" fill="black"/>
<path d="M12.5116 15.2051L9.63428 15.2759Z" fill="black"/>
<path d="M9.63407 15.8506C9.32297 15.8506 9.06753 15.6027 9.05996 15.2905C9.0522 14.9731 9.30308 14.7097 9.62006 14.702L12.4976 14.6314C12.8119 14.6262 13.078 14.8743 13.0859 15.1913C13.0937 15.5086 12.843 15.772 12.5256 15.7798L9.64827 15.8504C9.64353 15.8506 9.63861 15.8506 9.63407 15.8506Z" fill="black"/>
<path d="M14.5542 25.3867C14.2651 25.3867 14.0165 25.1695 13.9839 24.8757C13.9489 24.5604 14.1763 24.2764 14.4914 24.2411L16.4839 24.0202C16.7993 23.9863 17.0834 24.2126 17.1186 24.5276C17.1534 24.8431 16.9262 25.1271 16.6108 25.162L14.6182 25.3831C14.5968 25.3856 14.5752 25.3867 14.5542 25.3867Z" fill="black"/>
<path d="M15.191 28.9419C14.9277 28.9419 14.6902 28.7595 14.6308 28.4918C14.562 28.1822 14.7576 27.8753 15.0672 27.8067L16.8043 27.4212C17.1141 27.3529 17.4208 27.5477 17.4896 27.8573C17.5583 28.1671 17.3631 28.4738 17.0531 28.5427L15.316 28.9283C15.2742 28.9377 15.2325 28.9419 15.191 28.9419Z" fill="black"/>
<path d="M15.716 32.1968C15.4494 32.1968 15.21 32.0099 15.1538 31.7384C15.0898 31.4276 15.2895 31.1237 15.6006 31.0595C15.6095 31.0576 16.5042 30.8726 17.3887 30.6589C17.6973 30.5843 18.0075 30.774 18.0819 31.0824C18.1565 31.3909 17.9668 31.7012 17.6583 31.7757C16.7547 31.9942 15.8419 32.1828 15.8328 32.1848C15.7936 32.1928 15.7544 32.1968 15.716 32.1968Z" fill="black"/>
<path d="M35.4088 24.5649C35.0939 24.5649 34.8371 24.311 34.8345 23.9952C34.8318 23.678 35.0871 23.4186 35.4042 23.4162C35.4139 23.4162 36.4034 23.4069 37.3604 23.334C37.6763 23.3107 37.9525 23.5468 37.9766 23.8632C38.0006 24.1796 37.7639 24.4557 37.4475 24.4797C36.4506 24.5557 35.4556 24.5646 35.4137 24.5649H35.4088Z" fill="black"/>
<path d="M37.2157 28.2261C37.1725 28.2261 37.1286 28.2215 37.0846 28.2111C36.6574 28.1111 35.2699 27.85 35.2557 27.8472C34.9442 27.7883 34.739 27.4884 34.7975 27.1763C34.8564 26.8646 35.1567 26.66 35.4683 26.7181C35.5265 26.7291 36.8949 26.987 37.3459 27.0924C37.6548 27.1646 37.8468 27.4734 37.7746 27.7824C37.7129 28.0473 37.4766 28.2261 37.2157 28.2261Z" fill="black"/>
<path d="M36.903 32.1733C36.8239 32.1733 36.7434 32.1569 36.6667 32.122C36.0941 31.863 35.0328 31.4443 35.0224 31.4406C34.7274 31.3243 34.5822 30.9905 34.6984 30.6953C34.8149 30.4001 35.1481 30.2552 35.4435 30.3713C35.488 30.3889 36.5415 30.8045 37.1403 31.0753C37.4294 31.2061 37.5578 31.5464 37.4269 31.8355C37.3309 32.0478 37.1219 32.1733 36.903 32.1733Z" fill="black"/>
<path d="M33.8575 20.2622C33.8575 20.2622 33.8575 18.3254 35.1422 18.1777C36.427 18.0298 36.37 19.4217 36.3414 19.6567C36.3128 19.8922 36.2914 20.4302 36.1486 20.6184C36.0059 20.8062 35.8491 21.0015 35.0565 21.0015C34.2642 21.0015 33.7933 20.7525 33.8575 20.2622Z" fill="black"/>
<path d="M18.1376 20.5928C18.1376 20.5928 18.1376 18.6559 16.8529 18.5084C15.5682 18.3604 15.6254 19.7523 15.6539 19.9876C15.6824 20.2228 15.7037 20.7608 15.8465 20.949C15.9893 21.137 16.1464 21.332 16.9387 21.332C17.7309 21.332 18.202 21.0834 18.1376 20.5928Z" fill="black"/>
<path d="M17.418 17.4878C17.2794 17.4878 17.1398 17.442 17.0237 17.3481C17.0004 17.3297 16.2421 16.7507 14.8119 16.6338C14.4671 16.6058 14.2102 16.3032 14.2386 15.9582C14.2666 15.6134 14.5681 15.3565 14.914 15.3847C16.7772 15.5369 17.7753 16.343 17.8169 16.3773C18.0841 16.5973 18.1222 16.9923 17.9023 17.2594C17.7785 17.4098 17.5988 17.4878 17.418 17.4878Z" fill="black"/>
<path d="M34.1344 17.2256C33.9695 17.2256 33.8046 17.1603 33.6809 17.0315C33.4416 16.7814 33.4522 16.3826 33.7022 16.1431C33.7389 16.1078 34.6228 15.277 36.2716 15.12C36.6166 15.0861 36.9222 15.3398 36.955 15.6843C36.9876 16.0289 36.735 16.3349 36.3903 16.3676C35.1988 16.4811 34.59 17.0292 34.5644 17.0525C34.4438 17.1682 34.2889 17.2256 34.1344 17.2256Z" fill="black"/>
</svg>
