<svg width="255" height="42" viewBox="0 0 255 42" fill="none" xmlns="http://www.w3.org/2000/svg">
<path d="M240.253 19.125H231.534V25.375H242.597V28.375H230.315C228.972 28.375 227.909 27.4688 227.909 26.0625V17.2188C227.909 16.625 228.378 16.25 228.94 16.25H238.065V10.625H227.784V7.625H240.253C241.034 7.625 241.69 8.15625 241.69 9V17.75C241.69 18.5938 241.034 19.125 240.253 19.125ZM245.972 29.4375V7.03125H249.597V29.4375H245.972Z" fill="white"/>
<path d="M210.422 28.8125C205.484 28.8125 202.734 24.625 202.734 17.9375C202.734 11.2812 205.484 7.125 210.422 7.125C215.359 7.125 218.109 11.2812 218.109 17.9375C218.109 24.625 215.359 28.8125 210.422 28.8125ZM206.359 17.9375C206.359 23 207.828 25.8125 210.422 25.8125C213.015 25.8125 214.484 23 214.484 17.9375C214.484 12.9375 213.015 10.125 210.422 10.125C207.828 10.125 206.359 12.9375 206.359 17.9375ZM220.922 29.4375V7.03125H224.547V15.6562H227.797V18.6562H224.547V29.4375H220.922Z" fill="white"/>
<path d="M200.403 10.3438H183.653V13.625H200.622V16.5625H191.997V19.125H202.215V22.125H178.153V19.125H188.372V16.5625H181.465C180.684 16.5625 180.028 16.0312 180.028 15.1875V7.40625H200.403V10.3438ZM179.965 29.2812C179.965 25.75 184.215 24.0938 190.215 24.0938C196.153 24.0938 200.403 25.75 200.403 29.2812C200.403 32.8438 196.153 34.5 190.215 34.5C184.215 34.5 179.965 32.8438 179.965 29.2812ZM183.684 29.2812C183.684 30.7188 186.278 31.5625 190.215 31.5625C194.09 31.5625 196.684 30.7188 196.684 29.2812C196.684 27.875 194.09 27.0312 190.215 27.0312C186.278 27.0312 183.684 27.875 183.684 29.2812Z" fill="white"/>
<path d="M148.328 7.46875V14.4375H165.297V17.375H146.14C145.359 17.375 144.703 16.8438 144.703 16V7.46875H148.328ZM142.828 23.2812V20.2812H166.89V23.2812H142.828ZM144.734 31.8438V25.4688H148.359V30.5312H165.359V33.5312H146.484C145.515 33.5312 144.734 32.875 144.734 31.8438Z" fill="white"/>
<path d="M129.403 10.7812H123.778V18.25H129.59V21.1875H121.59C120.809 21.1875 120.153 20.6562 120.153 19.8125V7.84375H129.403V10.7812ZM118.528 28.9062V25.9062H142.59V28.9062H118.528ZM130.84 19.8125V7.84375H140.965V10.7812H134.465V18.25H141.184V21.1875H132.278C131.497 21.1875 130.84 20.6562 130.84 19.8125Z" fill="white"/>
<path d="M101.953 15.7812V10.4062H84.7966V7.46875H103.828C104.797 7.46875 105.578 8.125 105.578 9.15625V15.7812H101.953ZM83.2029 20.7812V17.7812H107.265V20.7812H83.2029ZM85.0466 32.4062V24.0625H104.015C104.797 24.0625 105.453 24.5938 105.453 25.4375V33.7812H86.4841C85.7029 33.7812 85.0466 33.25 85.0466 32.4062ZM88.6716 30.8438H101.828V27H88.6716V30.8438Z" fill="white"/>
<path d="M74.9654 7.6875V10.6875H69.1529V13.5C69.1529 20.7812 72.3091 24.3438 75.4341 25.375V28.7188C71.3716 27.6875 68.6216 24.5938 67.4029 20.7188C66.2154 24.625 63.4341 27.875 59.2779 28.9375V25.5938C62.0904 24.625 65.5279 21.0625 65.5279 14.0625V10.6875H59.7154V7.6875H74.9654ZM78.1216 29.4375V7.03125H81.7466V29.4375H78.1216Z" fill="white"/>
<path d="M245.971 7.03125V29.4375H249.596V7.03125H245.971ZM227.784 7.625V10.625H238.065V16.25H228.94C228.378 16.2501 227.909 16.6251 227.909 17.2188V26.0625C227.909 27.4687 228.972 28.3749 230.315 28.375H242.596V25.375H231.534V19.125H240.253C241.034 19.125 241.69 18.5938 241.69 17.75V9C241.69 8.15625 241.034 7.625 240.253 7.625H227.784ZM254.596 29.4375C254.596 32.1989 252.358 34.4375 249.596 34.4375H245.971C244.804 34.4375 243.731 34.0368 242.88 33.3662C242.786 33.3714 242.691 33.375 242.596 33.375H230.315C227.622 33.3749 224.973 31.928 223.697 29.4375H224.547V18.6562H227.797V15.6562H224.547V7.03125H222.821C223.115 4.54987 225.224 2.6251 227.784 2.625H240.253C241.112 2.625 241.992 2.80634 242.813 3.1543C243.674 2.45206 244.774 2.0313 245.971 2.03125H249.596C252.358 2.03125 254.596 4.26983 254.596 7.03125V29.4375Z" fill="#EA5147"/>
<path d="M220.922 7.03125V29.4375H224.547V18.6562H227.797V15.6562H224.547V7.03125H220.922ZM206.359 17.9375C206.359 12.9375 207.828 10.125 210.422 10.125C213.015 10.125 214.484 12.9375 214.484 17.9375C214.484 23 213.015 25.8125 210.422 25.8125C207.828 25.8125 206.359 23 206.359 17.9375ZM232.774 19.125C232.673 20.215 232.222 21.203 231.534 21.9766V19.125H232.774ZM202.734 17.9375C202.734 24.625 205.484 28.8125 210.422 28.8125C215.359 28.8125 218.109 24.625 218.109 17.9375C218.109 11.2812 215.359 7.125 210.422 7.125C205.484 7.125 202.734 11.2812 202.734 17.9375ZM229.547 7.625H227.784V10.625H229.547V10.9717C231.445 11.6811 232.797 13.5106 232.797 15.6562V16.25H228.94C228.378 16.2501 227.909 16.6251 227.909 17.2188V26.0625C227.909 27.1863 228.588 27.9888 229.547 28.2666V29.4375C229.547 32.1989 227.308 34.4375 224.547 34.4375H220.922C219.141 34.4375 217.578 33.5057 216.692 32.1035C214.879 33.2146 212.754 33.8125 210.422 33.8125C206.323 33.8125 202.861 31.9691 200.617 28.7305C200.486 28.5422 200.36 28.3509 200.24 28.1562C200.092 27.6621 199.847 27.2151 199.51 26.8135C198.814 25.3601 198.349 23.7764 198.07 22.125H202.216V19.125H197.761C197.745 18.7305 197.734 18.3344 197.734 17.9375C197.734 17.4777 197.746 17.0189 197.768 16.5625H200.622V13.625H198.093C198.293 12.4913 198.584 11.3911 198.978 10.3438H200.403V7.50488C200.475 7.39419 200.549 7.28434 200.625 7.17578C202.876 3.94747 206.338 2.125 210.422 2.125C212.863 2.125 215.082 2.77667 216.953 3.99023C217.867 2.79928 219.304 2.03125 220.922 2.03125H224.547C227.308 2.03125 229.547 4.26983 229.547 7.03125V7.625Z" fill="#EA5147"/>
<path d="M200.403 29.2812C200.403 25.75 196.153 24.0938 190.216 24.0938C184.216 24.0938 179.966 25.75 179.966 29.2812C179.966 32.8438 184.216 34.5 190.216 34.5C195.968 34.5 200.136 32.9455 200.39 29.6094L200.403 29.2812ZM190.216 27.0312C194.09 27.0313 196.684 27.875 196.684 29.2812L196.677 29.4141C196.521 30.7706 193.97 31.5625 190.216 31.5625C186.278 31.5625 183.684 30.7188 183.684 29.2812C183.684 27.875 186.278 27.0312 190.216 27.0312ZM207.119 23.1016C206.622 21.8089 206.359 20.0737 206.359 17.9375C206.359 17.4013 206.377 16.8904 206.41 16.4053C206.919 17.1882 207.216 18.1217 207.216 19.125V22.125L207.209 22.3818C207.196 22.6269 207.165 22.8671 207.119 23.1016ZM180.028 7.40625V15.1875C180.028 16.0312 180.684 16.5625 181.466 16.5625H188.372V19.125H178.153V22.125H202.216V19.125H191.997V16.5625H200.622V13.625H183.653V10.3438H200.403V7.40625H180.028ZM205.403 29.2812C205.403 33.5768 202.631 36.3383 199.685 37.7412C196.921 39.0573 193.525 39.5 190.216 39.5C186.881 39.5 183.469 39.0581 180.698 37.7441C177.834 36.3862 175.139 33.752 174.973 29.6797L174.966 29.2812L174.973 28.8818C175.011 27.9579 175.18 27.1085 175.452 26.332C174.069 25.4425 173.153 23.8912 173.153 22.125V19.125L173.159 18.8682C173.234 17.3938 173.947 16.088 175.028 15.2217V7.40625L175.034 7.14941C175.168 4.50734 177.353 2.40625 180.028 2.40625H200.403C203.164 2.40636 205.403 4.64489 205.403 7.40625V9.20215C203.662 11.0575 202.734 14.0758 202.734 17.9375C202.734 21.5176 203.523 24.3803 205.013 26.2686C204.981 26.2903 204.948 26.311 204.916 26.332C205.226 27.2192 205.403 28.2012 205.403 29.2812Z" fill="#EA5147"/>
<path d="M144.703 7.46875V16C144.703 16.8438 145.359 17.375 146.14 17.375H165.297V14.4375H148.328V7.46875H144.703ZM144.734 25.4688V31.8438C144.734 32.875 145.515 33.5312 146.484 33.5312H165.359V30.5312H148.359V25.4688H144.734ZM142.828 20.2812V23.2812H166.89V20.2812H142.828ZM153.328 9.4375H165.297C168.058 9.4375 170.297 11.6761 170.297 14.4375V16.6221C171.277 17.5349 171.89 18.8362 171.89 20.2812V23.2812C171.89 25.1242 170.892 26.7325 169.408 27.5996C170.005 28.4234 170.359 29.4357 170.359 30.5312V33.5312C170.359 36.2927 168.121 38.5312 165.359 38.5312H146.484C143.123 38.5312 139.734 35.9918 139.734 31.8438V28.9062H142.591V25.9062H138.572C138.1 25.1432 137.828 24.2441 137.828 23.2812V21.1875H141.184V18.25H138.259C138.587 17.5123 139.088 16.8686 139.712 16.3711C139.705 16.2491 139.703 16.1253 139.703 16V10.7812H140.966V7.84375H139.703V7.46875C139.703 4.70733 141.941 2.46875 144.703 2.46875H148.328C151.089 2.46875 153.328 4.70733 153.328 7.46875V9.4375Z" fill="#EA5147"/>
<path d="M129.403 2.84375C129.647 2.84376 129.886 2.86179 130.121 2.89551C130.356 2.86164 130.596 2.84375 130.841 2.84375H140.966C143.601 2.84385 145.758 4.8826 145.95 7.46875H144.703V14.1016C144.605 14.2116 144.501 14.316 144.394 14.417C144.501 14.5065 144.604 14.6003 144.703 14.6982V16C144.703 16.8314 145.34 17.3578 146.106 17.373C146.157 17.6578 146.184 17.9507 146.184 18.25V20.2812H142.828V23.2812H146.846C147.246 23.9274 147.501 24.6713 147.57 25.4688H144.734V31.8438C144.734 32.3831 144.949 32.8183 145.292 33.1123C144.513 33.6138 143.586 33.9062 142.591 33.9062H118.528C115.767 33.9062 113.528 31.6677 113.528 28.9062V25.9062L113.534 25.6494C113.611 24.1341 114.362 22.7967 115.494 21.9316C115.275 21.2899 115.153 20.5822 115.153 19.8125V7.84375L115.159 7.58691C115.293 4.94484 117.478 2.84375 120.153 2.84375H129.403ZM118.528 25.9062V28.9062H142.591V25.9062H118.528ZM120.153 7.84375V19.8125C120.153 20.6562 120.809 21.1875 121.591 21.1875H129.591V18.25H123.778V10.7812H129.403V7.84375H120.153ZM130.841 7.84375V19.8125C130.841 20.6562 131.497 21.1875 132.278 21.1875H141.184V18.25H134.466V10.7812H140.966V7.84375H130.841Z" fill="#EA5147"/>
<path d="M103.828 2.46875C107.189 2.46875 110.578 5.00819 110.578 9.15625V14.0361C111.613 14.9522 112.265 16.2905 112.265 17.7812V20.7812L112.259 21.0381C112.184 22.5031 111.479 23.8006 110.41 24.667C110.438 24.9165 110.453 25.1733 110.453 25.4375V33.7812L110.446 34.0381C110.312 36.6801 108.128 38.7812 105.453 38.7812H86.4841C83.3933 38.7812 80.0466 36.4425 80.0466 32.4062V29.4375H81.7468V7.03125H79.8171C80.0388 4.47477 82.1827 2.46875 84.7966 2.46875H103.828ZM85.0466 24.0625V32.4062C85.0466 33.25 85.7029 33.7812 86.4841 33.7812H105.453V25.4375C105.453 24.5938 104.797 24.0625 104.015 24.0625H85.0466ZM101.828 27V30.8438H88.6716V27H101.828ZM83.2029 17.7812V20.7812H107.265V17.7812H83.2029ZM84.7966 7.46875V10.4062H101.953V15.7812H105.578V9.15625C105.578 8.125 104.797 7.46875 103.828 7.46875H84.7966Z" fill="#EA5147"/>
<path d="M78.1218 7.03125V29.4375H81.7468V7.03125H78.1218ZM59.7156 7.6875V10.6875H65.5281V14.0625C65.5281 21.0624 62.0905 24.6249 59.2781 25.5938V28.9375C63.4342 27.875 66.2156 24.6249 67.4031 20.7188C68.6218 24.5937 71.3718 27.6875 75.4343 28.7188V25.375C72.3093 24.3438 69.1531 20.7812 69.1531 13.5V10.6875H74.9656V7.6875H59.7156ZM86.7468 7.46875H84.7966V10.4062H86.7468V17.7812H83.2029V20.7812H86.7468V24.0625H85.0466V32.4062C85.0466 32.6492 85.1019 32.8658 85.198 33.0518C84.3005 33.9091 83.086 34.4374 81.7468 34.4375H78.1218C77.1742 34.4375 76.2881 34.1737 75.533 33.7158C75.1841 33.7227 74.8329 33.6952 74.4851 33.6279L74.2039 33.5654C71.5346 32.8878 69.2869 31.6099 67.4666 29.9473C65.6129 31.7061 63.2965 33.0705 60.5164 33.7812C59.0203 34.1637 57.4314 33.8337 56.2117 32.8867C54.9919 31.9395 54.2781 30.4818 54.2781 28.9375V25.5938C54.2781 23.46 55.6318 21.5612 57.6492 20.8662C58.0306 20.7348 60.0051 19.6344 60.4412 15.6875H59.7156C56.9542 15.6875 54.7156 13.4489 54.7156 10.6875V7.6875C54.7156 4.92608 56.9542 2.6875 59.7156 2.6875H74.9656C75.1732 2.68751 75.3778 2.70099 75.5789 2.72559C76.3239 2.28463 77.1933 2.03125 78.1218 2.03125H81.7468C84.5082 2.03136 86.7468 4.26989 86.7468 7.03125V7.46875Z" fill="#EA5147"/>
<path d="M16.0079 0V4H16.0049C15.7891 4.00109 15.5953 4.13487 15.5186 4.33691L13.1973 10.459C12.9628 10.4951 12.786 10.5243 12.6514 10.5527C12.6073 10.5423 12.5612 10.5356 12.5137 10.5371L4.50788 10.8047L4.41022 10.8174C4.1899 10.8669 4.0214 11.0554 4.00397 11.2881C3.99865 11.3616 3.92156 12.5793 4.61237 13.9639L4.61335 13.9648C4.92982 14.5988 5.40686 15.2679 6.12604 15.8779C7.94293 17.4195 11.3968 17.9063 12.7003 18.04L13.7071 24.084C13.7563 24.4455 14.606 30.6071 15.6983 33.2031C16.8497 35.9396 20.9584 37.8767 25.7823 37.9951L26.251 38.001C26.6807 38.001 27.1183 37.9869 27.5567 37.959L27.9952 37.9258C34.5699 37.3699 36.7152 33.7165 37.1241 32.877L37.1837 32.748C37.6081 31.7649 37.8263 29.4426 37.918 28.167L37.9708 27.3291L38.0518 25.8193C38.1713 23.6346 38.373 19.7213 38.3868 18.4893C38.5672 18.4802 42.3016 18.2881 44.5147 16.3232C46.5639 14.5042 46.381 12.2006 46.3721 12.1035C46.3494 11.8539 46.1528 11.6555 45.9034 11.6309L38.5421 10.915C38.5266 10.9135 38.5108 10.9121 38.4952 10.9121L37.4981 10.9043C37.4452 10.8781 37.3899 10.8545 37.334 10.8291L35.584 4.80273L35.4688 4.40332C35.4113 4.21902 35.2576 4.08374 35.0723 4.04688L34.9913 4.03711C34.7706 4.02632 34.5675 4.1591 34.4854 4.36426L32.3214 9.76172C31.0722 9.64699 29.6496 9.57991 28.0567 9.56055L27.0704 9.55469C23.8663 9.5547 20.7572 9.73731 18.6485 9.89551L16.4942 4.33398C16.4259 4.15781 16.2694 4.03393 16.087 4.00586L16.0079 4V0C17.877 0.000122004 19.5499 1.15024 20.2237 2.88867L20.2247 2.88965L21.3184 5.71582C23.0527 5.62464 25.0397 5.55469 27.0704 5.55469C27.9781 5.55469 28.849 5.56948 29.6807 5.59766L30.7725 2.87598C31.4717 1.13122 33.2038 -0.0365588 35.1475 0.0419922L35.1485 0.0400391C35.1559 0.0403323 35.1635 0.0416629 35.171 0.0419922C35.1761 0.0422249 35.1815 0.0417422 35.1866 0.0419922L35.1856 0.0439453C36.9657 0.128653 38.5153 1.24651 39.168 2.87793L39.2872 3.21289L39.2989 3.25L39.3096 3.28809L40.4102 7.07715L46.2901 7.65039H46.2921C48.4527 7.86171 50.1613 9.57943 50.3565 11.7451H50.3555C50.4051 12.2953 50.6471 16.2292 47.17 19.3154L47.169 19.3145C45.5899 20.7163 43.7063 21.4557 42.2598 21.8613C42.1898 23.3383 42.1061 24.9384 42.046 26.0381C42.0098 26.6986 41.9812 27.2203 41.9659 27.5273V27.5303C41.9537 27.7715 41.8933 28.8857 41.7579 30.1348C41.6904 30.7575 41.5996 31.4607 41.4766 32.1299C41.3662 32.7304 41.1836 33.5743 40.8555 34.334L40.8546 34.3359C40.2523 35.7286 37.2254 41.1603 28.3321 41.9121C27.6388 41.9707 26.9396 42.001 26.251 42.001C23.2446 42.0009 20.328 41.4152 17.8809 40.3027C15.5817 39.2574 13.2876 37.5458 12.1212 35.0029L12.0118 34.7539C11.2758 33.0047 10.7273 30.4096 10.379 28.5361C10.0398 26.7117 9.81555 25.1353 9.7569 24.7129L9.2237 21.5117C7.6332 21.1441 5.3068 20.4281 3.53913 18.9287L3.19635 18.625C-0.224195 15.4655 -0.0214027 11.4976 0.0147126 10.999L0.0156892 10.9902C0.187571 8.69028 2.06368 6.88383 4.37409 6.80664L10.3809 6.60547L11.7794 2.91895L11.9151 2.59766C12.653 1.02756 14.2337 0.0078423 15.9874 0H16.0079Z" fill="#EA5147"/>
<path d="M12.5315 11.0585L4.52508 11.326C4.52508 11.326 4.34994 13.6859 6.46403 15.4789C8.57774 17.2724 13.2416 17.5649 13.2416 17.5649L12.5315 11.0585Z" fill="#C8B595"/>
<path d="M5.06115 11.8314C5.12988 12.5418 5.44534 13.9311 6.80165 15.0814C8.31815 16.368 11.3477 16.8378 12.6529 16.9855L12.0648 11.5975L5.06115 11.8314ZM13.2416 18.0879C13.2308 18.0879 13.2198 18.0875 13.2089 18.0868C13.0116 18.0744 8.34674 17.7618 6.12624 15.8778C3.83567 13.9351 3.99643 11.3953 4.0042 11.2881C4.02408 11.0221 4.24107 10.8136 4.50768 10.8047L12.5141 10.5372C12.7883 10.5286 13.021 10.731 13.0506 11.0024L13.7608 17.5089C13.7775 17.6622 13.7258 17.8148 13.6192 17.9262C13.5205 18.0298 13.3838 18.0879 13.2416 18.0879Z" fill="black"/>
<path d="M13.5431 11.022L16.0073 4.52194L18.3637 10.6056L13.5431 11.022Z" fill="#DEB972"/>
<path d="M16.0125 5.98169L14.3259 10.4303L17.6252 10.1453L16.0125 5.98169ZM13.543 11.5444C13.3801 11.5444 13.2254 11.4685 13.1262 11.3371C13.0179 11.1938 12.9908 11.0048 13.0545 10.8372L15.519 4.33718C15.5957 4.13495 15.7892 4.00089 16.0053 3.99994H16.0076C16.2228 3.99994 16.4164 4.13249 16.4944 4.33377L18.8505 10.417C18.9099 10.5702 18.8934 10.7427 18.8065 10.8821C18.7196 11.0214 18.5721 11.1118 18.4083 11.126L13.5877 11.5425C13.5729 11.5439 13.5578 11.5444 13.543 11.5444Z" fill="black"/>
<path d="M32.5129 10.6883L34.9704 4.55844L37.084 11.3491L32.5129 10.6883Z" fill="#DEB972"/>
<path d="M33.2447 10.2663L36.3392 10.7137L34.9081 6.11646L33.2447 10.2663ZM37.0839 11.8716C37.0593 11.8716 37.0343 11.8697 37.0095 11.8659L32.438 11.2051C32.2796 11.1823 32.1404 11.0877 32.0605 10.9489C31.9804 10.8103 31.9685 10.6425 32.0279 10.4939L34.4855 4.36402C34.5675 4.15876 34.7703 4.02583 34.991 4.03663C35.2118 4.04534 35.4031 4.19227 35.4688 4.40302L37.5687 11.1496C37.5942 11.2111 37.6082 11.2785 37.6082 11.3492C37.6082 11.6372 37.375 11.8708 37.0871 11.8716H37.0839Z" fill="black"/>
<path d="M37.353 11.4258L38.4919 11.4343L45.8525 12.1506C45.8525 12.1506 46.0436 14.2673 44.1675 15.9327C42.0667 17.7982 37.8338 18.0127 37.8338 18.0127L37.353 11.4258Z" fill="#C8B595"/>
<path d="M37.9148 11.9527L38.3161 17.4478C39.4688 17.3255 42.2954 16.8968 43.8208 15.5424C44.9984 14.4972 45.2665 13.2609 45.3224 12.6241L38.4643 11.9567L37.9148 11.9527ZM37.8332 18.5356C37.5613 18.5356 37.333 18.3253 37.3127 18.0513L36.8319 11.4643C36.8215 11.3187 36.8719 11.1756 36.9719 11.0692C37.0713 10.9628 37.211 10.8989 37.3568 10.9041L38.4956 10.9126C38.5113 10.9126 38.5268 10.9135 38.5423 10.915L45.9029 11.6312C46.1527 11.6556 46.3498 11.854 46.3723 12.104C46.3812 12.2011 46.5639 14.5044 44.5144 16.3235C42.3013 18.2884 38.0406 18.5258 37.8601 18.5349C37.8512 18.5355 37.8421 18.5356 37.8332 18.5356Z" fill="black"/>
<path d="M12.4872 11.1436C12.9646 10.7685 32.7073 8.74798 37.5005 11.4958C37.9665 11.7632 37.879 17.1595 37.862 18.7396C37.8447 20.3196 37.5198 25.8937 37.449 27.3019C37.3782 28.7099 37.1368 31.5384 36.7037 32.5407C36.2709 33.5427 34.0829 36.8868 27.9508 37.4049C21.8185 37.9235 17.2668 35.5835 16.1797 32.9996C15.0925 30.4152 14.2235 24.0053 14.2235 24.0053L12.6474 14.5349C12.6474 14.5349 12.0099 11.5184 12.4872 11.1436Z" fill="#C8B595"/>
<path d="M12.8503 11.5762C12.7777 11.997 12.9093 13.2465 13.1585 14.4275C13.16 14.4348 13.1614 14.4424 13.1625 14.4496L14.7388 23.92C14.7398 23.9251 14.7405 23.9304 14.7413 23.9355C14.7498 23.999 15.6131 30.3066 16.6611 32.7973C17.5306 34.8639 21.1038 36.9558 26.2513 36.9558C26.7947 36.9558 27.352 36.932 27.907 36.885C34.4248 36.3344 36.1541 32.497 36.2243 32.334C36.5968 31.4715 36.849 28.8367 36.9276 27.2762C36.9437 26.9555 36.9728 26.4189 37.0088 25.7624C37.1277 23.5862 37.3266 19.9436 37.3398 18.7342L37.3428 18.4769C37.3976 13.8164 37.2652 12.3016 37.133 11.89C35.54 11.0449 32.0674 10.5988 27.0706 10.5988C20.5062 10.5988 13.9803 11.3327 12.8503 11.5762ZM26.2513 38.0005C21.2263 38.0005 16.8868 36.0275 15.6985 33.2025C14.6061 30.6065 13.7565 24.4452 13.7073 24.0838L12.1341 14.6323C11.4326 11.3073 11.9838 10.8752 12.1648 10.7334C12.2813 10.6416 12.3915 10.555 13.8569 10.363C14.7703 10.2434 15.9834 10.1161 17.2727 10.0042C19.2139 9.83646 23.0683 9.55433 27.0706 9.55433C32.4406 9.55433 36.0373 10.0554 37.7605 11.0434C38.2019 11.2964 38.464 11.9241 38.3871 18.4892L38.3843 18.7456C38.3704 19.9777 38.1712 23.6346 38.0518 25.8194C38.016 26.4738 37.9866 27.0089 37.9707 27.3285C37.9497 27.7454 37.7494 31.4374 37.1834 32.7481C36.9814 33.2154 35.0082 37.333 27.995 37.9259C27.4105 37.9753 26.8241 38.0005 26.2513 38.0005Z" fill="black"/>
<path d="M20.1947 22.9858C19.7187 20.2047 18.8956 11.0531 19.1362 10.3936C19.1362 10.3936 20.6751 9.86421 24.4624 9.85456C28.2492 9.84452 31.688 10.3963 32.1345 11.1084C32.3964 11.5263 32.6878 12.6287 32.7438 14.7936C32.7438 14.7936 32.873 19.7508 32.5246 22.2354" fill="#8E7F66"/>
<path d="M20.1943 23.5078C19.9446 23.5078 19.7238 23.3281 19.6801 23.0736C19.3082 20.9012 18.316 11.1171 18.6458 10.2141C18.6998 10.0662 18.8176 9.95068 18.9664 9.89956C19.0325 9.87665 20.6312 9.34173 24.461 9.33208C26.3272 9.32734 28.1645 9.45572 29.6348 9.69487C31.8604 10.0563 32.3799 10.5163 32.5771 10.8304C32.9715 11.4606 33.2163 12.8631 33.2661 14.7797C33.2714 14.9838 33.3922 19.8087 33.0417 22.3075C33.0016 22.5931 32.7378 22.7923 32.4519 22.7521C32.1664 22.7122 31.9674 22.448 32.0073 22.1625C32.3457 19.7494 32.2232 14.856 32.222 14.8068C32.1556 12.2496 31.7689 11.5079 31.692 11.3852C31.3938 11.0213 28.7158 10.3669 24.4638 10.3763C21.755 10.3834 20.2207 10.663 19.613 10.8058C19.5614 12.4772 20.2483 20.2033 20.7096 22.8972C20.7584 23.1816 20.5674 23.4514 20.2832 23.5002C20.2532 23.5052 20.2235 23.5078 20.1943 23.5078Z" fill="black"/>
<path d="M21.4655 15.3564C21.2509 15.3564 21.0686 15.1923 21.0498 14.9747C20.8658 12.8487 20.7758 10.1336 20.7751 10.1063C20.7673 9.87588 20.9483 9.68274 21.1788 9.67517C21.4096 9.67138 21.6027 9.84861 21.6101 10.0792C21.6111 10.1059 21.7002 12.7995 21.8822 14.9028C21.9023 15.1324 21.7317 15.335 21.5018 15.3549C21.4897 15.3559 21.4776 15.3564 21.4655 15.3564Z" fill="black"/>
<path d="M22.5764 22.4692C22.3881 22.4692 22.217 22.3407 22.1706 22.1496C21.9081 21.0633 21.5171 18.9293 21.5005 18.8388C21.459 18.612 21.6093 18.3942 21.8364 18.3528C22.0634 18.3107 22.281 18.4616 22.3224 18.6885C22.3264 18.7102 22.7257 20.8899 22.9827 21.9529C23.0372 22.1773 22.8992 22.403 22.675 22.4575C22.6421 22.4653 22.6089 22.4692 22.5764 22.4692Z" fill="black"/>
<path d="M24.62 22.3101C24.4136 22.3101 24.2339 22.1565 24.2065 21.9461C24.2036 21.9245 23.9221 19.7453 23.6691 16.3889C23.4163 13.0404 23.2438 10.1956 23.2423 10.1672C23.2283 9.93675 23.4036 9.73888 23.6341 9.72487C23.8645 9.71218 24.0624 9.88657 24.0764 10.1166C24.0779 10.145 24.2502 12.9842 24.5024 16.3262C24.7535 19.6601 25.0324 21.817 25.0349 21.8382C25.065 22.0669 24.9035 22.2767 24.6747 22.3065C24.6564 22.3089 24.6382 22.3101 24.62 22.3101Z" fill="black"/>
<path d="M28.7909 22.1226C28.5642 22.1226 28.3779 21.9412 28.3733 21.7134C28.2739 16.8592 27.6148 10.3179 27.6082 10.2524C27.5849 10.0227 27.7521 9.81779 27.9818 9.7945C28.2107 9.77159 28.4161 9.93822 28.4394 10.1679C28.4462 10.2336 29.1086 16.8082 29.2088 21.6961C29.2135 21.9271 29.0304 22.118 28.7994 22.1224C28.7967 22.1226 28.7937 22.1226 28.7909 22.1226Z" fill="black"/>
<path d="M26.697 22.1665C26.4766 22.1665 26.292 21.9938 26.2803 21.771C26.2772 21.716 25.9847 16.2567 25.8531 14.4192C25.8364 14.189 26.0097 13.989 26.2399 13.9727C26.4696 13.9527 26.67 14.1293 26.6862 14.3594C26.8192 16.2044 27.1117 21.6714 27.1145 21.7263C27.127 21.9569 26.9502 22.1536 26.7196 22.1657C26.7122 22.1663 26.7046 22.1665 26.697 22.1665Z" fill="black"/>
<path d="M22.6403 16.8794C22.4428 16.8794 22.2671 16.7387 22.23 16.5372C22.188 16.3104 22.3381 16.0926 22.565 16.0506C23.2118 15.9311 23.8855 15.8289 23.8923 15.8279C24.1203 15.7944 24.3333 15.9503 24.368 16.1786C24.4026 16.4066 24.2455 16.6194 24.0173 16.6541C24.0108 16.655 23.35 16.7556 22.7166 16.8724C22.6911 16.8769 22.6655 16.8794 22.6403 16.8794Z" fill="black"/>
<path d="M30.6641 18.1606C30.6582 18.1606 30.6524 18.1605 30.6461 18.1601C30.4157 18.1504 30.2365 17.9556 30.2466 17.7251C30.3511 15.2564 29.7721 10.6561 29.7662 10.6101C29.7372 10.3812 29.8993 10.1719 30.1282 10.143C30.3568 10.1134 30.566 10.2759 30.5952 10.5048C30.6194 10.6963 31.1888 15.2219 31.0812 17.7604C31.0716 17.9847 30.8868 18.1606 30.6641 18.1606Z" fill="black"/>
<path d="M32.1934 25.2752L31.9621 26.8792C31.9621 26.8792 30.295 27.4999 29.9055 27.1943C29.887 27.1799 28.9385 25.7227 28.9385 25.7227L27.877 27.5476L26.3778 27.7792L25.2314 25.9906L24.0198 28.23C24.0198 28.23 22.0256 28.2851 21.658 28.145C21.658 28.145 20.6715 25.7429 20.1955 22.9619C20.1955 22.9619 21.3181 22.3486 23.64 22.0631C25.9614 21.7766 31.2376 21.8065 32.5598 22.1364C32.5598 22.1364 32.2402 24.8257 32.1934 25.2752Z" fill="#DEB972"/>
<path d="M22.0383 27.684C22.2206 27.7008 22.5596 27.7192 23.1693 27.7192C23.3711 27.7192 23.559 27.7171 23.7055 27.7149L24.7723 25.743C24.8602 25.5805 25.0275 25.4765 25.2124 25.4695C25.3973 25.4631 25.5716 25.554 25.6713 25.7096L26.6338 27.2118L27.5508 27.0703L28.4872 25.4608C28.578 25.3042 28.7443 25.2058 28.9255 25.2014C29.1067 25.1973 29.2771 25.2864 29.3763 25.4385C29.6462 25.8532 30.0589 26.485 30.2392 26.7569C30.2466 26.7571 30.2547 26.7571 30.2633 26.7571C30.5893 26.7571 31.1271 26.6075 31.4906 26.4898L31.6752 25.2115C31.7124 24.8568 31.8896 23.3554 31.9831 22.5641C31.1666 22.4562 29.7069 22.3897 28.0284 22.3897C26.296 22.3897 24.6791 22.4615 23.704 22.5819C22.2261 22.7637 21.2553 23.0843 20.7823 23.2723C21.1656 25.2798 21.7933 27.0379 22.0383 27.684ZM23.1693 28.7637C21.813 28.7637 21.5827 28.6758 21.4721 28.6338C21.3371 28.5825 21.2298 28.4776 21.1749 28.3443C21.1338 28.2439 20.1611 25.8564 19.6807 23.0508C19.643 22.8309 19.749 22.6113 19.9448 22.5043C19.9943 22.4774 21.1828 21.8399 23.576 21.5452C24.5911 21.4201 26.2555 21.3453 28.0284 21.3453C28.853 21.3453 31.627 21.3659 32.6862 21.6301C32.9414 21.6937 33.1094 21.9374 33.0785 22.1983C33.0753 22.2254 32.7587 24.8892 32.7129 25.3298C32.7121 25.3368 32.7114 25.3438 32.7102 25.3506L32.4792 26.9544C32.4518 27.1436 32.3232 27.3025 32.1444 27.3693C32.0253 27.4134 30.9625 27.8018 30.2633 27.8018C29.9739 27.8018 29.7513 27.7376 29.5833 27.606C29.5125 27.5499 29.4992 27.5393 28.9638 26.7187L28.3287 27.811C28.2493 27.9474 28.1126 28.0405 27.9566 28.0646L26.4571 28.2956C26.2528 28.327 26.0495 28.2354 25.9379 28.0614L25.2697 27.0186L24.4792 28.4793C24.3904 28.6432 24.2207 28.7478 24.0342 28.7529C24.0181 28.7531 23.6353 28.7637 23.1693 28.7637Z" fill="black"/>
<path d="M22.7871 33.0762C20.9565 33.0762 19.5468 31.6922 19.4832 31.6288C19.2586 31.4048 19.2582 31.041 19.4824 30.8165C19.7062 30.5925 20.0692 30.5917 20.2938 30.8149C20.3197 30.8398 21.6092 32.0857 23.0746 31.9103C25.029 31.6761 26.7129 30.2412 26.7298 30.2268C26.9687 30.021 27.3293 30.0456 27.5374 30.2825C27.5904 30.3423 28.8914 31.7736 30.6895 31.3554C32.208 31.0016 32.6968 30.302 32.7009 30.295C32.867 30.0248 33.2207 29.9401 33.4909 30.1062C33.7615 30.2725 33.8457 30.6264 33.6799 30.8966C33.6106 31.009 32.9465 32.0096 30.9498 32.4742C29.1343 32.8972 27.722 31.9743 27.0685 31.4186C26.381 31.9204 24.9128 32.8474 23.2109 33.0512C23.0676 33.0682 22.9261 33.0762 22.7871 33.0762Z" fill="black"/>
<path d="M38.5122 15.5117C38.2033 15.5117 37.9481 15.2661 37.9382 14.9554C37.9284 14.6381 38.1774 14.3728 38.4947 14.3633L40.7258 14.2938C41.0422 14.2826 41.3083 14.533 41.3179 14.8501C41.3278 15.1673 41.0788 15.4324 40.7616 15.4422L38.5303 15.5113C38.5241 15.5115 38.518 15.5117 38.5122 15.5117Z" fill="black"/>
<path d="M12.5116 14.2051L9.63428 14.2759Z" fill="black"/>
<path d="M9.63407 14.8506C9.32297 14.8506 9.06753 14.6027 9.05996 14.2905C9.0522 13.9731 9.30308 13.7097 9.62006 13.702L12.4976 13.6314C12.8119 13.6262 13.078 13.8743 13.0859 14.1913C13.0937 14.5086 12.843 14.772 12.5256 14.7798L9.64827 14.8504C9.64353 14.8506 9.63861 14.8506 9.63407 14.8506Z" fill="black"/>
<path d="M14.5542 24.3867C14.2651 24.3867 14.0165 24.1695 13.9839 23.8757C13.9489 23.5604 14.1763 23.2764 14.4914 23.2411L16.4839 23.0202C16.7993 22.9863 17.0834 23.2126 17.1186 23.5276C17.1534 23.8431 16.9262 24.1271 16.6108 24.162L14.6182 24.3831C14.5968 24.3856 14.5752 24.3867 14.5542 24.3867Z" fill="black"/>
<path d="M15.191 27.9419C14.9277 27.9419 14.6902 27.7595 14.6308 27.4918C14.562 27.1822 14.7576 26.8753 15.0672 26.8067L16.8043 26.4212C17.1141 26.3529 17.4208 26.5477 17.4896 26.8573C17.5583 27.1671 17.3631 27.4738 17.0531 27.5427L15.316 27.9283C15.2742 27.9377 15.2325 27.9419 15.191 27.9419Z" fill="black"/>
<path d="M15.716 31.1968C15.4494 31.1968 15.21 31.0099 15.1538 30.7384C15.0898 30.4276 15.2895 30.1237 15.6006 30.0595C15.6095 30.0576 16.5042 29.8726 17.3887 29.6589C17.6973 29.5843 18.0075 29.774 18.0819 30.0824C18.1565 30.3909 17.9668 30.7012 17.6583 30.7757C16.7547 30.9942 15.8419 31.1828 15.8328 31.1848C15.7936 31.1928 15.7544 31.1968 15.716 31.1968Z" fill="black"/>
<path d="M35.4088 23.5649C35.0939 23.5649 34.8371 23.311 34.8345 22.9952C34.8318 22.678 35.0871 22.4186 35.4042 22.4162C35.4139 22.4162 36.4034 22.4069 37.3604 22.334C37.6763 22.3107 37.9525 22.5468 37.9766 22.8632C38.0006 23.1796 37.7639 23.4557 37.4475 23.4797C36.4506 23.5557 35.4556 23.5646 35.4137 23.5649H35.4088Z" fill="black"/>
<path d="M37.2157 27.2261C37.1725 27.2261 37.1286 27.2215 37.0846 27.2111C36.6574 27.1111 35.2699 26.85 35.2557 26.8472C34.9442 26.7883 34.739 26.4884 34.7975 26.1763C34.8564 25.8646 35.1567 25.66 35.4683 25.7181C35.5265 25.7291 36.8949 25.987 37.3459 26.0924C37.6548 26.1646 37.8468 26.4734 37.7746 26.7824C37.7129 27.0473 37.4766 27.2261 37.2157 27.2261Z" fill="black"/>
<path d="M36.903 31.1733C36.8239 31.1733 36.7434 31.1569 36.6667 31.122C36.0941 30.863 35.0328 30.4443 35.0224 30.4406C34.7274 30.3243 34.5822 29.9905 34.6984 29.6953C34.8149 29.4001 35.1481 29.2552 35.4435 29.3713C35.488 29.3889 36.5415 29.8045 37.1403 30.0753C37.4294 30.2061 37.5578 30.5464 37.4269 30.8355C37.3309 31.0478 37.1219 31.1733 36.903 31.1733Z" fill="black"/>
<path d="M33.8575 19.2622C33.8575 19.2622 33.8575 17.3254 35.1422 17.1777C36.427 17.0298 36.37 18.4217 36.3414 18.6567C36.3128 18.8922 36.2914 19.4302 36.1486 19.6184C36.0059 19.8062 35.8491 20.0015 35.0565 20.0015C34.2642 20.0015 33.7933 19.7525 33.8575 19.2622Z" fill="black"/>
<path d="M18.1376 19.5928C18.1376 19.5928 18.1376 17.6559 16.8529 17.5084C15.5682 17.3604 15.6254 18.7523 15.6539 18.9876C15.6824 19.2228 15.7037 19.7608 15.8465 19.949C15.9893 20.137 16.1464 20.332 16.9387 20.332C17.7309 20.332 18.202 20.0834 18.1376 19.5928Z" fill="black"/>
<path d="M17.418 16.4878C17.2794 16.4878 17.1398 16.442 17.0237 16.3481C17.0004 16.3297 16.2421 15.7507 14.8119 15.6338C14.4671 15.6058 14.2102 15.3032 14.2386 14.9582C14.2666 14.6134 14.5681 14.3565 14.914 14.3847C16.7772 14.5369 17.7753 15.343 17.8169 15.3773C18.0841 15.5973 18.1222 15.9923 17.9023 16.2594C17.7785 16.4098 17.5988 16.4878 17.418 16.4878Z" fill="black"/>
<path d="M34.1344 16.2256C33.9695 16.2256 33.8046 16.1603 33.6809 16.0315C33.4416 15.7814 33.4522 15.3826 33.7022 15.1431C33.7389 15.1078 34.6228 14.277 36.2716 14.12C36.6166 14.0861 36.9222 14.3398 36.955 14.6843C36.9876 15.0289 36.735 15.3349 36.3903 15.3676C35.1988 15.4811 34.59 16.0292 34.5644 16.0525C34.4438 16.1682 34.2889 16.2256 34.1344 16.2256Z" fill="black"/>
</svg>
