<svg width="100" height="100" viewBox="0 0 100 100" fill="none" xmlns="http://www.w3.org/2000/svg">
<path d="M20.8021 45.2752C20.8021 45.2752 17.9334 46.2879 15.9569 45.0168C13.9803 43.7456 19.9734 42.1045 19.9734 42.1045C19.9734 42.1045 16.3993 42.4509 15.8082 41.022C15.2197 39.5922 19.4811 39.1434 21.2427 39.6012" fill="#DEB976"/>
<path d="M18.4275 46.198C17.5299 46.198 16.5316 46.0285 15.6658 45.4709C15.0202 45.0565 14.9894 44.5633 15.0293 44.3094C15.1372 43.604 16.0937 42.9884 17.1745 42.5051C16.3521 42.3129 15.6032 41.9385 15.3104 41.2295C15.1299 40.7888 15.2034 40.3473 15.5189 39.9846C16.5126 38.8431 19.9607 38.7135 21.3769 39.0807C21.667 39.1523 21.8393 39.4479 21.7658 39.7362C21.6897 40.0254 21.3959 40.1968 21.1076 40.1224C19.6714 39.7543 16.8599 40.088 16.3313 40.6918C16.2805 40.7526 16.2868 40.7662 16.3077 40.8169C16.6042 41.5359 18.6378 41.691 19.9208 41.5677C20.1991 41.5386 20.4512 41.7327 20.5019 42.0083C20.5536 42.2839 20.385 42.5505 20.1148 42.6239C18.1691 43.1579 16.2923 44.0138 16.1046 44.4472C16.1236 44.469 16.1654 44.5098 16.2488 44.5624C17.9742 45.6739 20.5953 44.7754 20.6207 44.7673C20.9018 44.6666 21.211 44.8135 21.3089 45.0946C21.4086 45.3757 21.2608 45.683 20.9798 45.7818C20.9036 45.8099 19.783 46.198 18.4275 46.198Z" fill="#2B2B2A"/>
<path d="M93.2124 56.133C93.2124 56.133 98.5318 56.6045 98.1764 58.5312C97.8591 60.2357 92.2087 59.1677 92.2087 59.1677C92.2087 59.1677 91.1198 57.2401 91.9802 56.3797" fill="#DEB976"/>
<path d="M95.5126 60.0366C93.9722 60.0366 92.3846 59.7492 92.109 59.6957C91.9512 59.6685 91.817 59.5697 91.7382 59.4328C91.6058 59.1989 90.4824 57.1181 91.5994 55.9992C91.8107 55.7889 92.1516 55.788 92.361 55.9992C92.5732 56.2096 92.5732 56.5523 92.361 56.7636C91.9857 57.1371 92.2903 58.1054 92.566 58.6839C94.1635 58.9577 96.7121 59.1608 97.4964 58.6231C97.6279 58.5325 97.6388 58.4636 97.6451 58.4318C97.6687 58.3004 97.6388 58.1897 97.5436 58.0619C96.9497 57.2804 94.5416 56.7926 93.1634 56.6693C92.8661 56.643 92.6485 56.3809 92.6757 56.0863C92.701 55.788 92.9631 55.5704 93.2605 55.5958C93.673 55.6311 97.3287 55.9956 98.4022 57.41C98.6805 57.7763 98.7848 58.1997 98.7041 58.6295C98.6397 58.984 98.433 59.2868 98.1039 59.5126C97.5236 59.9097 96.529 60.0366 95.5126 60.0366Z" fill="#2B2B2A"/>
<path d="M93.1483 53.5494C93.1483 53.5494 98.5512 52.5348 98.7225 55.0272C98.8631 57.069 93.0876 57.1951 93.0876 57.1951" fill="#DEB976"/>
<path d="M93.0862 57.7346C92.7933 57.7346 92.5558 57.5016 92.5485 57.2078C92.5413 56.9096 92.777 56.6638 93.0744 56.6575C94.5976 56.6221 97.2904 56.2685 98.0257 55.4598C98.1798 55.293 98.1916 55.1588 98.1862 55.0627C98.1662 54.7843 98.0538 54.574 97.8271 54.4017C96.8235 53.6238 94.1814 53.9021 93.2485 54.078C92.9556 54.1324 92.6718 53.9402 92.6193 53.6465C92.563 53.3545 92.7553 53.0744 93.0481 53.0181C93.4416 52.9456 96.9205 52.3345 98.4881 53.5494C98.9541 53.9076 99.2216 54.4072 99.2606 54.9901C99.2905 55.4262 99.1391 55.8388 98.8227 56.1878C97.5352 57.6004 93.5495 57.7256 93.0989 57.7346H93.0862Z" fill="#2B2B2A"/>
<path d="M40.4644 57.1725C37.1342 45.773 26.208 45.0395 22.1516 45.3903C21.2748 45.4683 20.4851 44.8772 20.4851 44.8772C18.4361 41.8054 20.9983 39.7554 20.9983 39.7554C39.9513 33.095 49.4295 46.9262 49.4295 46.9262L68.2547 51.154C68.2547 51.154 79.2679 48.017 92.5823 53.2838C94.946 54.2195 95.0739 58.197 92.8435 59.5416C90.6122 60.888 86.0988 55.7363 72.4815 62.9362C72.4815 62.9362 66.2056 65.6253 60.5716 70.3636C60.5716 70.3636 35.4705 70.748 27.2733 64.9834C27.2733 64.9834 32.0125 58.3901 39.1833 54.9321" fill="#C9B697"/>
<path d="M28.0509 64.8552C36.0686 69.879 58.0906 69.8437 60.3727 69.8264C65.8009 65.3058 71.8393 62.6293 72.2473 62.4489C81.965 57.3172 87.0985 58.3616 90.1658 58.9845C91.3181 59.2184 92.0806 59.3744 92.5657 59.0806C93.4724 58.5321 93.9919 57.3679 93.8867 56.1131C93.7942 54.9898 93.2321 54.1194 92.3853 53.7857C79.3909 48.6431 68.5109 51.6423 68.4021 51.6732C68.316 51.6967 68.2244 51.6986 68.1356 51.6795L49.3114 47.4535C49.1781 47.4236 49.0611 47.3447 48.9831 47.2323C48.9614 47.1979 46.605 43.8214 42.0163 41.2927C35.9036 37.9227 28.925 37.5663 21.2727 40.2319C20.9282 40.5456 19.3823 42.1514 20.8783 44.4924C21.0614 44.6084 21.5755 44.8986 22.105 44.8532C23.2991 44.749 27.5305 44.5549 31.7937 46.3791C36.4041 48.3557 39.4967 51.9352 40.9818 57.0216C41.0652 57.3081 40.902 57.6082 40.6155 57.6907C40.3299 57.7732 40.0307 57.6118 39.9464 57.3244C39.7551 56.6716 39.5402 56.0542 39.3027 55.4739C33.4619 58.3281 29.2405 63.3392 28.0509 64.8552ZM59.4035 70.9099C54.2808 70.9099 34.2825 70.5708 26.9638 65.4282C26.8451 65.3439 26.7662 65.2188 26.7426 65.0755C26.7181 64.9323 26.7499 64.7881 26.8351 64.6702C27.0309 64.3973 31.7003 57.9754 38.8647 54.4875C34.4602 45.39 24.3436 45.7436 22.1966 45.9276C21.1276 46.021 20.2037 45.3401 20.1638 45.3111C20.114 45.2748 20.0714 45.2295 20.0378 45.1796C18.1991 42.4215 19.6416 40.1503 20.6616 39.3352C20.7078 39.2981 20.7613 39.2672 20.8185 39.2473C25.2185 37.7023 29.4807 37.1239 33.49 37.5319C36.7078 37.8565 39.7669 38.813 42.5821 40.3716C46.8244 42.7216 49.1871 45.691 49.7475 46.4462L68.2435 50.5988C68.8573 50.4383 71.473 49.8163 75.4098 49.7048C79.4916 49.5878 85.8174 50.0276 92.7824 52.7829C94.0182 53.2725 94.8342 54.482 94.9629 56.0243C95.1007 57.6853 94.3763 59.2466 93.1206 60.0054C92.2756 60.5159 91.3018 60.3155 89.95 60.0408C87.0223 59.4451 82.12 58.4496 72.7315 63.4136C72.7215 63.419 72.707 63.4236 72.6925 63.4317C72.6317 63.4571 66.422 66.1472 60.9167 70.7757C60.8233 70.8555 60.7027 70.8999 60.5785 70.9018C60.4624 70.9018 60.0526 70.9099 59.4035 70.9099Z" fill="#2B2B2A"/>
<path d="M91.4142 59.6108C91.4142 59.6108 95.0635 60.2962 96.0907 58.6996C96.8641 57.4974 94.126 57.2145 94.126 57.2145C94.126 57.2145 91.6136 58.7268 91.4142 59.6108Z" fill="#DEB976"/>
<path d="M92.3632 59.1869C92.5917 59.2059 92.8556 59.2186 93.1303 59.2186C94.4114 59.2186 95.3018 58.9303 95.6354 58.4071C95.6871 58.331 95.688 58.2956 95.688 58.2956C95.6263 58.1351 94.969 57.8731 94.2473 57.7725C93.4966 58.2385 92.7912 58.7734 92.3632 59.1869ZM93.1303 60.2966C92.1529 60.2966 91.3478 60.1498 91.3133 60.1425C91.1692 60.1126 91.0431 60.031 90.9634 59.9059C90.8827 59.7844 90.8555 59.6366 90.8872 59.4915C91.1211 58.4661 93.2128 57.1369 93.8484 56.7543C93.9481 56.6917 94.0642 56.6672 94.1811 56.679C94.6562 56.728 96.2374 56.9556 96.6618 57.8332C96.7615 58.0399 96.8803 58.4679 96.5448 58.991C95.9872 59.8578 94.8384 60.2966 93.1303 60.2966Z" fill="#2B2B2A"/>
<path d="M38.0315 43.8542C38.0315 43.8542 38.7985 41.4208 42.0018 41.0372Z" fill="#C9B697"/>
<path d="M38.0314 44.3923C37.9752 44.3923 37.919 44.3833 37.8664 44.366C37.5835 44.2745 37.4267 43.9735 37.5173 43.6933C37.5509 43.5791 38.4303 40.9216 41.9364 40.5C42.232 40.4647 42.5013 40.6759 42.5375 40.9724C42.5711 41.2671 42.3607 41.5363 42.0643 41.5717C39.2699 41.9072 38.5718 43.9327 38.5428 44.0188C38.4693 44.2464 38.2581 44.3923 38.0314 44.3923Z" fill="#2B2B2A"/>
<path d="M35.1508 41.998C35.1508 41.998 36.1119 39.5646 39.1836 39.4984Z" fill="#C9B697"/>
<path d="M35.1495 42.5356C35.0842 42.5356 35.0162 42.5239 34.9518 42.4976C34.6744 42.3888 34.5393 42.076 34.649 41.7994C34.6925 41.6861 35.7805 39.0323 39.1733 38.9616C39.4698 38.9516 39.7173 39.1919 39.7227 39.4883C39.7291 39.7866 39.4942 40.0314 39.195 40.036C36.5113 40.094 35.6599 42.1748 35.6518 42.1947C35.5675 42.4069 35.3635 42.5356 35.1495 42.5356Z" fill="#2B2B2A"/>
<path d="M51.7341 71.7075C48.8382 72.1037 44.0755 74.015 38.7479 73.1183C36.2183 72.6921 35.8946 71.7474 34.6207 71.198C33.6361 70.7691 32.054 70.4246 28.6286 71.7057C25.2014 72.9895 13.5806 74.2824 14.2334 71.0266C14.2334 71.0266 15.1084 69.634 14.0158 69.6294C12.9233 69.6276 4.45866 70.935 3.43141 68.2341C3.43141 68.2341 2.17205 65.1813 9.22501 64.0371C9.22501 64.0371 12.5271 63.6309 12.761 61.0369C12.8163 60.4177 12.5053 59.2698 10.5361 58.6116C6.63285 57.3042 7.69819 55.6858 8.85963 55.0384C9.89776 54.4618 12.1227 54.6721 11.2578 53.1027C10.2323 51.235 11.217 49.9412 11.217 49.9412C13.3476 46.7062 18.1357 49.7226 18.1357 49.7226C20.202 45.7116 24.9947 52.0156 24.9947 52.0156C26.1099 51.2649 30.1608 49.8704 30.7302 54.421C30.7302 54.421 31.5 59.2853 37.134 59.7984C40.3917 60.094 44.3692 57.7312 53.4531 62.3734C59.6955 65.5657 65.4139 65.1586 73.3708 61.3352C81.3603 57.4919 89.514 56.0412 96.1725 63.513C96.1725 63.513 98.9478 66.544 95.8742 66.6265C93.4561 66.6973 93.3863 65.5848 94.5931 66.7988C94.5931 66.7988 96.0157 67.7345 94.6366 69.0201C94.6366 69.0201 93.4833 70.0438 89.8014 68.4979C86.1919 66.9838 83.4094 66.2865 82.043 67.6529C81.5235 68.1724 81.5317 69.4463 82.8119 70.129C82.8119 70.129 88.8739 74.141 78.9703 75.0812C78.9703 75.0812 74.146 75.9335 65.821 72.9895C65.821 72.9895 61.0836 70.4291 51.7341 71.7075Z" fill="#88C3EC"/>
<path d="M66.0365 72.4935C71.1012 74.2797 74.8403 74.6577 77.0852 74.6577C78.2439 74.6577 78.8704 74.5517 78.8768 74.5489C78.8922 74.5489 78.9049 74.5462 78.9194 74.5435C83.2832 74.1301 83.9876 73.1581 84.0874 72.7583C84.2705 72.0329 83.1326 70.9975 82.5333 70.5904C81.7844 70.1843 81.3121 69.555 81.2051 68.8224C81.1144 68.2286 81.2858 67.6465 81.662 67.272C82.2523 66.6809 83.0828 66.3826 84.1327 66.3826C85.5299 66.3826 87.3414 66.8813 90.0088 68.001C91.2936 68.5387 92.3861 68.8134 93.2565 68.8134C93.9383 68.8134 94.2411 68.6375 94.2892 68.6066C94.4859 68.4199 94.7217 68.1316 94.6954 67.8505C94.6691 67.5123 94.301 67.2539 94.2973 67.2512C94.2674 67.2303 94.2375 67.2059 94.2103 67.1796C94.1033 67.0726 94.0036 66.9801 93.9093 66.9039C93.6563 66.8078 93.2175 66.5984 93.2937 66.1441C93.339 65.8848 93.5747 65.6899 93.8368 65.6899C93.9592 65.6899 94.1242 65.7207 94.427 65.9392C94.6627 66.0127 95.1315 66.1088 95.8595 66.0907C96.4452 66.0734 96.71 65.9374 96.7617 65.815C96.9067 65.4696 96.36 64.5158 95.7752 63.8757C92.6771 60.404 89.1212 58.7167 84.8943 58.7167C81.6403 58.7167 77.9492 59.7313 73.6054 61.8212C69.0186 64.0262 65.2623 65.0516 61.787 65.0516C58.9083 65.0516 56.1013 64.3317 53.2081 62.8539C49.391 60.9036 46.1207 59.9942 42.9202 59.9942C41.7832 59.9942 40.7759 60.1048 39.8883 60.2028C39.1385 60.2834 38.4313 60.3641 37.7585 60.3641C37.5201 60.3641 37.2988 60.356 37.0849 60.3351C33.9687 60.0504 32.2623 58.4901 31.3765 57.2262C30.42 55.8589 30.2069 54.5606 30.1987 54.5025C30.1978 54.498 30.1978 54.4926 30.196 54.4871C29.9675 52.6711 29.128 51.7499 27.6936 51.7499C26.7117 51.7499 25.7216 52.176 25.2955 52.4625C25.057 52.6239 24.7388 52.5704 24.5647 52.3411C23.8412 51.3945 21.6108 48.9265 20.0024 48.9265C19.4312 48.9265 18.976 49.2665 18.617 49.9683C18.5453 50.1034 18.4239 50.2031 18.2788 50.2421C18.1328 50.282 17.9769 50.2602 17.849 50.1777C17.8291 50.1678 15.9242 48.9837 14.1036 48.9837C13.021 48.9837 12.2232 49.3926 11.6683 50.2376C11.6592 50.2476 11.6538 50.2602 11.6456 50.2684C11.6193 50.3065 10.8985 51.3274 11.7308 52.8406C12.0101 53.3484 12.0672 53.799 11.8977 54.1825C11.6175 54.8226 10.8568 55.0103 10.1197 55.188C9.75068 55.2814 9.36806 55.3748 9.12145 55.5108C8.70529 55.7429 8.2991 56.1391 8.33265 56.5017C8.35169 56.6949 8.57564 57.3839 10.7063 58.1002C13.283 58.9624 13.3411 60.6026 13.2985 61.084C13.0346 64.0235 9.57478 64.5357 9.30369 64.5711C5.76406 65.145 4.51649 66.1723 4.09036 66.9339C3.75308 67.5377 3.92716 68.0237 3.92897 68.0291C3.93169 68.0336 3.9335 68.0391 3.9335 68.0427C4.12843 68.5504 5.0206 69.4054 8.81681 69.4054C10.3699 69.4054 11.9094 69.264 12.9294 69.1715C13.4617 69.1225 13.8107 69.0917 14.0129 69.0917C14.6204 69.0935 14.8815 69.4027 14.9821 69.5895C15.2895 70.1453 14.9386 70.886 14.7491 71.2151C14.7328 71.3738 14.7727 71.5025 14.8724 71.6231C15.0964 71.8997 15.9749 72.5389 19.2716 72.5361C22.6253 72.5361 26.7189 71.8462 28.4398 71.2015C30.1126 70.5741 31.4998 70.2686 32.6767 70.2686C33.7166 70.2686 34.4066 70.5161 34.8336 70.6992C35.3187 70.9105 35.6777 71.1689 36.0232 71.4164C36.6442 71.8643 37.287 72.324 38.8384 72.586C39.7432 72.7392 40.6925 72.8145 41.6635 72.8145C44.3699 72.8145 46.8896 72.2206 48.9141 71.7419C49.9586 71.4962 50.8608 71.2831 51.6604 71.1734C53.4221 70.9332 55.1475 70.8117 56.7894 70.8117C62.5568 70.8117 65.6394 72.2877 66.0365 72.4935ZM77.0852 75.7349C74.7505 75.7349 70.8682 75.3468 65.6412 73.4963C65.614 73.4881 65.5887 73.4773 65.5651 73.4628C65.537 73.4482 62.5549 71.8879 56.7894 71.8879C55.1964 71.8879 53.5191 72.0094 51.8064 72.2433C51.0575 72.3466 50.1798 72.5525 49.1608 72.7945C47.0836 73.2823 44.4941 73.8943 41.6635 73.8943C40.6336 73.8943 39.6226 73.8127 38.6579 73.6477C36.8609 73.3467 36.0821 72.7873 35.3948 72.2923C35.0675 72.0565 34.7828 71.8543 34.4066 71.6929C34.0366 71.5306 33.5072 71.3475 32.6767 71.3475C31.6458 71.3475 30.3474 71.6376 28.8179 72.2106C27.0163 72.8861 22.8538 73.6151 19.2716 73.6151C16.5108 73.6151 14.7491 73.1753 14.0374 72.3086C13.7164 71.9142 13.6013 71.4355 13.7037 70.9205C13.7173 70.8552 13.7427 70.7953 13.7754 70.7382C13.8896 70.5578 13.9902 70.3157 14.0184 70.1697H14.0138C13.8606 70.1697 13.4734 70.2042 13.0283 70.2459C11.9883 70.3411 10.4189 70.4825 8.81681 70.4825C5.38508 70.4825 3.46023 69.8116 2.92892 68.4326C2.78567 68.0772 2.67324 67.2593 3.14833 66.4089C3.93713 64.9963 5.95174 64.0207 9.13868 63.5048C9.14593 63.5021 9.15318 63.5021 9.16044 63.5021C9.2774 63.4858 12.0328 63.1122 12.2232 60.9897C12.2494 60.705 12.1905 59.734 10.3636 59.1229C8.39612 58.4629 7.35163 57.6151 7.25825 56.6006C7.18753 55.8335 7.68892 55.0747 8.5974 54.5696C8.97004 54.362 9.42337 54.2505 9.8622 54.1444C10.2049 54.0592 10.8432 53.9005 10.9103 53.7482C10.9194 53.7264 10.9194 53.6031 10.7852 53.3601C9.66001 51.3165 10.6338 49.8296 10.7743 49.6328C11.5241 48.5022 12.6747 47.9047 14.1036 47.9047C15.6585 47.9047 17.1917 48.5956 17.9451 48.9936C18.6007 48.0616 19.4058 47.8503 20.0024 47.8503C22.0596 47.8503 24.3054 50.321 25.1259 51.3165C25.7298 51.0119 26.6736 50.671 27.6936 50.671C28.8541 50.671 30.8606 51.1497 31.265 54.3412C31.3076 54.5959 32.1 58.7992 37.1837 59.2607C37.365 59.2771 37.5509 59.2852 37.7585 59.2852C38.3723 59.2852 39.0197 59.2136 39.7704 59.1329C40.6852 59.0295 41.7234 58.9153 42.9202 58.9153C46.2975 58.9153 49.7229 59.8609 53.6977 61.8946C56.4377 63.2927 59.0815 63.9736 61.787 63.9736C65.0936 63.9736 68.7012 62.979 73.1376 60.8483C77.6301 58.6877 81.4771 57.6378 84.8943 57.6378C89.4449 57.6378 93.2683 59.4403 96.5758 63.1521C96.8541 63.4577 98.2495 65.0688 97.7545 66.2348C97.5042 66.8251 96.8759 67.1388 95.8894 67.1678C95.7915 67.1705 95.6981 67.1705 95.6075 67.1705C95.6909 67.3419 95.7525 67.5386 95.7716 67.7607C95.8205 68.3365 95.5621 68.8932 95.0054 69.4145C94.9048 69.5006 94.4089 69.8905 93.2565 69.8905C92.2419 69.8905 91.0089 69.5904 89.5908 68.9947C87.0975 67.9475 85.363 67.4606 84.1327 67.4606C83.3711 67.4606 82.8108 67.6483 82.4236 68.0336C82.3239 68.1343 82.2242 68.3573 82.2686 68.662C82.3049 68.8932 82.4517 69.3274 83.0646 69.6529C83.0792 69.662 83.0946 69.6702 83.1091 69.6792C83.3602 69.8452 85.5534 71.352 85.1364 73.0212C84.7873 74.4075 82.7926 75.258 79.039 75.6143C78.9058 75.6388 78.2376 75.7349 77.0852 75.7349Z" fill="#2B2B2A"/>
<path d="M17.4841 49.41C17.4841 49.41 18.9193 49.8162 20.0753 51.3975Z" fill="#51A4DB"/>
<path d="M20.0758 51.9377C19.909 51.9377 19.7467 51.8616 19.6406 51.7174C18.6197 50.3184 17.3458 49.9304 17.3332 49.9268C17.0485 49.8415 16.8834 49.5441 16.965 49.2595C17.0485 48.9739 17.3431 48.8088 17.6305 48.8913C17.6958 48.9077 19.2598 49.3673 20.511 51.0791C20.6878 51.3185 20.6352 51.6558 20.395 51.8326C20.298 51.9042 20.1855 51.9377 20.0758 51.9377Z" fill="#2B2B2A"/>
<path d="M85.5279 45.3273C85.5279 45.3273 88.1536 44.7207 88.8019 43.0642C89.4501 41.4077 91.5871 41.8393 91.4194 43.2782C91.2517 44.7162 89.2226 46.4869 85.5279 45.3273Z" fill="#88C3EC"/>
<path d="M87.4429 45.1537C87.5572 45.161 87.6696 45.1637 87.7811 45.1637C89.8755 45.1637 90.7967 43.9678 90.8837 43.2143C90.9064 43.0258 90.8647 42.868 90.7586 42.7501C90.6398 42.6159 90.4422 42.5352 90.2309 42.5352C89.8284 42.5352 89.4811 42.8082 89.3016 43.2615C88.9616 44.1319 88.1909 44.743 87.4429 45.1537ZM87.7811 46.2417C87.0241 46.2417 86.2117 46.1084 85.3676 45.8419C85.1364 45.7693 84.9813 45.549 84.9904 45.306C84.9986 45.063 85.1699 44.8563 85.4084 44.8028C86.0603 44.6487 87.8537 44.0031 88.2979 42.868C88.6388 41.9994 89.3796 41.459 90.2309 41.459C90.7541 41.459 91.2391 41.6667 91.5637 42.0339C91.8756 42.3811 92.0134 42.8453 91.9563 43.3404C91.7913 44.7448 90.2735 46.2417 87.7811 46.2417Z" fill="#2B2B2A"/>
<path d="M11.2921 45.3975C11.2921 45.3975 10.2984 43.2595 7.01622 42.9168C5.43318 42.75 5.2999 40.8551 6.63542 40.3972C7.85942 39.9774 10.4897 40.3582 11.2921 45.3975Z" fill="#88C3EC"/>
<path d="M7.42518 40.809C7.15137 40.809 6.9383 40.8634 6.80955 40.9078C6.35894 41.062 6.23563 41.431 6.26646 41.7003C6.30907 42.0783 6.6119 42.3313 7.07158 42.3794C8.51046 42.529 9.55131 43.0022 10.2803 43.5163C9.43163 41.1137 8.06075 40.809 7.42518 40.809ZM11.2921 45.9353C11.0872 45.9353 10.8959 45.8202 10.8043 45.627C10.7644 45.5454 9.86502 43.7566 6.96097 43.4538C5.98902 43.3513 5.29542 42.7112 5.19569 41.8218C5.09777 40.9577 5.60459 40.1798 6.46049 39.886C6.75697 39.7854 7.08971 39.7328 7.42518 39.7328C8.47782 39.7328 11.0038 40.2695 11.8162 45.2589C11.8261 45.3024 11.8334 45.3496 11.8334 45.3976C11.8334 45.6914 11.6004 45.9299 11.3093 45.9353H11.2921Z" fill="#2B2B2A"/>
<path d="M34.8288 30.4724C34.8288 30.4724 33.3246 28.8459 30.0416 28.5022C28.4586 28.3354 28.3244 26.4423 29.6608 25.9817C30.8866 25.5628 33.5468 25.6045 34.8288 30.4724Z" fill="#88C3EC"/>
<path d="M30.658 26.3591C30.3017 26.3591 30.0161 26.4317 29.8339 26.4933C29.3851 26.6484 29.2609 27.0165 29.2917 27.2857C29.3352 27.6647 29.6362 27.9195 30.0986 27.9657C31.727 28.1362 32.9465 28.6086 33.787 29.0637C33.0344 27.3075 31.9519 26.3591 30.658 26.3591ZM34.8305 31.0112C34.6836 31.0112 34.5404 30.9514 34.4361 30.8399C34.4089 30.8118 32.9882 29.352 29.9844 29.0374C29.0134 28.9368 28.3207 28.2967 28.22 27.41C28.1221 26.5441 28.6298 25.7671 29.4848 25.4724C29.8538 25.3464 30.2582 25.2802 30.658 25.2802C31.9074 25.2802 34.1759 25.9321 35.3374 30.2805C35.3591 30.3403 35.3709 30.4038 35.3709 30.4727C35.3709 30.7682 35.1306 31.0094 34.8351 31.0112H34.8305Z" fill="#2B2B2A"/>
<path d="M5.82359 48.5891C5.82359 48.5891 4.3285 47.6888 2.61037 47.8402C1.08717 47.9771 0.473355 46.4648 1.66925 45.8111C2.49885 45.3559 4.40738 45.1356 5.82359 48.5891Z" fill="#88C3EC"/>
<path d="M3.00767 47.2843C3.62692 47.2843 4.20175 47.3931 4.685 47.5336C4.08479 46.5961 3.393 46.0965 2.67039 46.0965C2.32132 46.0965 2.05476 46.2144 1.92964 46.2833C1.66036 46.4302 1.53796 46.6315 1.59146 46.8364C1.6513 47.073 1.92964 47.3096 2.42106 47.3096C2.4673 47.3096 2.51535 47.3078 2.5625 47.3033C2.70756 47.2915 2.85898 47.2843 3.00767 47.2843ZM5.82287 49.1284C5.72767 49.1284 5.63066 49.103 5.54452 49.0523C5.53455 49.045 4.37402 48.3614 3.00767 48.3614C2.89162 48.3614 2.77284 48.3668 2.6577 48.3777C1.63316 48.4702 0.759136 47.9371 0.546976 47.1047C0.368362 46.4148 0.708362 45.7203 1.40922 45.3376C1.67487 45.1917 2.11098 45.0176 2.67039 45.0176C3.70762 45.0176 5.18004 45.6024 6.32154 48.385C6.40948 48.5989 6.34964 48.8483 6.17375 48.9988C6.07311 49.084 5.94799 49.1284 5.82287 49.1284Z" fill="#2B2B2A"/>
<path d="M77.9875 50.4926C77.9875 50.4926 78.6702 51.0901 78.8833 52.2434Z" fill="#C9B697"/>
<path d="M78.8833 52.7827C78.6285 52.7827 78.4027 52.6014 78.3538 52.3394C78.1806 51.4037 77.6348 50.8996 77.6293 50.895C77.409 50.6974 77.39 50.3556 77.5876 50.1352C77.7853 49.9149 78.1217 49.8923 78.342 50.0881C78.3746 50.1162 79.1707 50.8225 79.4155 52.1444C79.4681 52.4373 79.2749 52.7192 78.9821 52.7727C78.9485 52.78 78.9159 52.7827 78.8833 52.7827Z" fill="#2B2B2A"/>
<path d="M80.4199 50.4072C80.4199 50.4072 80.9757 50.7499 81.4027 51.9014Z" fill="#C9B697"/>
<path d="M81.4021 52.4409C81.1827 52.4409 80.976 52.3067 80.8962 52.0864C80.5525 51.1589 80.13 50.8624 80.1264 50.8606L80.4193 50.4073L80.703 49.9476C80.7765 49.9929 81.4311 50.4236 81.9071 51.7147C82.0114 51.993 81.869 52.304 81.5907 52.4083C81.5281 52.43 81.4637 52.4409 81.4021 52.4409Z" fill="#2B2B2A"/>
<path d="M78.4466 32.9437L79.4249 33.1332L85.6918 34.8813C85.6918 34.8813 85.3608 37.4426 83.358 39.1372C81.1122 41.0393 77.3486 40.7238 77.3486 40.7238L78.4466 32.9437Z" fill="#C9B697"/>
<path d="M78.9009 33.5813L77.9662 40.2054C78.9599 40.2054 81.4342 40.0604 83.009 38.7248C84.3473 37.5942 84.8768 36.0284 85.0663 35.2641L79.3017 33.6575L78.9009 33.5813ZM77.9634 41.2834C77.5627 41.2834 77.3143 41.2626 77.3043 41.2626C77.1547 41.2499 77.0196 41.1765 76.9271 41.0622C76.8337 40.9462 76.7938 40.7957 76.8138 40.6488L77.9136 32.8678C77.9353 32.7227 78.0133 32.5894 78.1339 32.5033C78.2545 32.419 78.405 32.3854 78.5492 32.4135L79.5274 32.603C79.542 32.6057 79.5556 32.6094 79.5701 32.613L85.8397 34.362C86.0962 34.4336 86.2604 34.6865 86.2277 34.9504C86.2123 35.0646 85.8442 37.7402 83.7072 39.549C81.9238 41.0577 79.3434 41.2834 77.9634 41.2834Z" fill="#2B2B2A"/>
<path d="M80.8776 37.3267C80.8504 37.3267 80.8259 37.3239 80.7978 37.3212L78.6118 37.0057C78.3181 36.9613 78.1132 36.6902 78.1558 36.3946C78.1984 36.099 78.4722 35.895 78.766 35.9376L80.9529 36.2532C81.2475 36.2976 81.4524 36.5705 81.4107 36.8661C81.3717 37.1326 81.1396 37.3267 80.8776 37.3267Z" fill="#2B2B2A"/>
<path d="M58.8032 26.739L57.1731 18.5391L52.3387 26.0962L58.8032 26.739Z" fill="#DEB976"/>
<path d="M53.2672 25.6462L58.1333 26.1285L56.9066 19.9587L53.2672 25.6462ZM58.8033 27.2764C58.787 27.2764 58.768 27.2755 58.7507 27.2727L52.2862 26.6335C52.0994 26.6145 51.9372 26.5003 51.8528 26.3316C51.773 26.163 51.7839 25.9653 51.8855 25.8058L56.7189 18.2487C56.8377 18.0628 57.0562 17.9703 57.2729 18.0084C57.4896 18.0501 57.6582 18.2179 57.7036 18.4336L59.3337 26.6335C59.3664 26.7995 59.3183 26.9717 59.2032 27.1005C59.1007 27.2147 58.9557 27.2764 58.8033 27.2764Z" fill="#2B2B2A"/>
<path d="M71.6822 31.1295L76.3189 24.2542L77.5193 33.0842L71.6822 31.1295Z" fill="#DEB976"/>
<path d="M72.5251 30.842L76.8689 32.2972L75.974 25.7275L72.5251 30.842ZM77.5199 33.6218C77.4628 33.6218 77.4039 33.6164 77.3495 33.5964L71.5105 31.6399C71.351 31.5845 71.2258 31.4612 71.1705 31.3017C71.1188 31.1421 71.1424 30.9689 71.2349 30.8275L75.8716 23.9513C75.9958 23.7655 76.2216 23.6775 76.4401 23.7274C76.6586 23.7791 76.8227 23.9586 76.8517 24.1798L78.0467 32.9581C78.0567 32.9989 78.0612 33.0416 78.0612 33.0851C78.0612 33.3825 77.8209 33.6218 77.5235 33.6218H77.5199Z" fill="#2B2B2A"/>
<path d="M49.7048 26.2751C50.3549 25.9224 72.4177 26.5081 78.6774 32.3769C79.1525 32.823 77.8015 39.3828 77.4107 41.3103C77.0227 43.2361 75.4696 49.3525 75.057 51.057C74.6445 52.7606 73.2228 55.71 72.7895 56.7028C72.3461 57.7219 68.607 62.7648 62.5786 61.9035C55.2663 60.8608 50.7484 57.6938 48.829 54.8605C45.8288 50.4377 46.4309 44.2434 46.5705 42.0928C46.7083 39.9395 48.2451 30.4457 48.2451 30.4457C48.2451 30.4457 49.0538 26.6251 49.7048 26.2751Z" fill="#C9B697"/>
<path d="M48.7751 30.5443C48.7098 30.946 47.2419 40.0607 47.1078 42.1261C47.1014 42.2376 47.0932 42.3573 47.0833 42.4915C46.9192 44.8914 46.5338 50.5146 49.2756 54.5601C50.1387 55.8313 53.6548 60.0844 62.6544 61.371C63.0859 61.4308 63.522 61.4635 63.9473 61.4635C68.9756 61.4635 72.0112 57.1414 72.2959 56.4877C72.3766 56.3027 72.4917 56.0507 72.6268 55.7506C73.2188 54.4486 74.208 52.269 74.5335 50.9289C74.6405 50.4792 74.8309 49.7221 75.0539 48.8173C75.6714 46.3439 76.5989 42.6093 76.8827 41.2022L76.9316 40.9646C78.1847 34.7739 78.2962 33.1165 78.23 32.6977C72.7936 27.7482 55.5116 26.7336 51.1551 26.7336C50.4107 26.7336 50.0834 26.7563 49.9538 26.7717C49.6419 27.1697 49.1042 28.993 48.7751 30.5443ZM63.9473 62.5415C63.4704 62.5415 62.9844 62.5061 62.502 62.4391C56.1336 61.5269 50.8559 58.8088 48.3825 55.164C45.4313 50.8129 45.8357 44.9286 46.0071 42.418C46.017 42.2866 46.0252 42.1669 46.0315 42.0563C46.1703 39.9029 47.6499 30.7483 47.7116 30.3585C47.7125 30.3512 47.7143 30.3421 47.717 30.334C48.1087 28.4817 48.7289 26.186 49.4497 25.7988C49.5684 25.7345 49.718 25.6529 51.1551 25.6529C56.6395 25.6529 73.5353 26.8161 79.046 31.985C79.3796 32.296 79.7224 32.6179 77.987 41.1768L77.9399 41.4171C77.6515 42.8469 76.7186 46.595 76.102 49.0757C75.8772 49.9796 75.6904 50.7358 75.5807 51.1837C75.2335 52.6235 74.2171 54.8602 73.6105 56.1948C73.4763 56.4904 73.3648 56.7379 73.2841 56.9202C72.9051 57.7933 69.565 62.5415 63.9473 62.5415Z" fill="#2B2B2A"/>
<path d="M59.0718 40.3009C59.0718 40.3009 57.3174 45.8515 59.5604 47.1507C59.5604 47.1507 60.7962 47.7537 62.1961 47.7002L63.655 45.5894L64.4891 48.1762C64.4891 48.1762 66.0467 48.9341 67.2907 48.8036L68.3642 46.5532L69.1548 49.0955L70.6317 49.2832C70.6317 49.2832 71.7225 49.1282 72.3 45.7345C72.5484 44.2585 72.3988 43.7598 72.2538 43.1614" fill="#DEB976"/>
<path d="M70.6315 49.8235C70.6089 49.8235 70.5853 49.819 70.5635 49.8162L69.0884 49.6304C68.8789 49.605 68.7021 49.4572 68.6405 49.2568L68.2588 48.0265L67.7782 49.0365C67.6957 49.207 67.5334 49.3212 67.3476 49.3402C65.9658 49.4862 64.3202 48.6938 64.2522 48.6611C64.1208 48.5959 64.0201 48.4825 63.9766 48.342L63.4779 46.797L62.6402 48.0074C62.5422 48.1471 62.3854 48.2332 62.2168 48.2395C60.6981 48.2958 59.3789 47.6647 59.3245 47.6366C59.3127 47.6321 59.3009 47.623 59.2891 47.6167C56.7468 46.1415 58.3643 40.7505 58.5574 40.1403C58.6463 39.8565 58.95 39.6987 59.2347 39.7867C59.5176 39.8764 59.6745 40.1793 59.5838 40.4649C59.1676 41.794 58.3154 45.7689 59.8123 46.6746C59.9456 46.7363 60.8613 47.1388 61.913 47.1651L63.2114 45.2847C63.3274 45.1161 63.5305 45.0272 63.7336 45.059C63.9358 45.0871 64.1062 45.2294 64.1679 45.4225L64.9286 47.7817C65.3121 47.9431 66.1744 48.2695 66.9432 48.2803L67.8762 46.321C67.9714 46.1207 68.1808 45.9955 68.4029 46.0155C68.6242 46.0309 68.8146 46.1805 68.8789 46.3918L69.5662 48.6049L70.5545 48.73C70.7394 48.6004 71.3668 48.0065 71.7667 45.6447C71.9897 44.3445 71.8782 43.8921 71.7485 43.3689L71.7295 43.2891C71.6606 42.9999 71.8374 42.708 72.1275 42.6391C72.4168 42.5683 72.7078 42.747 72.7776 43.0353L72.7976 43.1132C72.9408 43.6999 73.0886 44.3064 72.832 45.8251C72.2345 49.3357 71.054 49.7682 70.7068 49.8162C70.6814 49.819 70.656 49.8235 70.6315 49.8235Z" fill="#2B2B2A"/>
<path d="M60.1541 26.4641C60.1541 26.4641 69.7793 26.0026 74.3978 29.8043C74.3978 29.8043 74.3172 36.1782 72.1529 42.8784C72.1529 42.8784 66.6749 40.532 59.067 40.4948C59.067 40.4948 59.3989 30.6321 60.1541 26.4641Z" fill="#90826B"/>
<path d="M59.6265 39.9627C65.6849 40.0797 70.2708 41.5902 71.8103 42.165C73.5266 36.5763 73.8086 31.2778 73.8521 30.0574C70.2563 27.2884 63.7945 26.9856 61.1452 26.9856C60.9366 26.9856 60.7571 26.9883 60.6121 26.9892C60.02 30.6748 59.7045 37.9155 59.6265 39.9627ZM72.1521 43.4189C72.0778 43.4189 72.007 43.4026 71.939 43.3736C71.8846 43.3519 66.4628 41.0698 59.0626 41.0362C58.9175 41.0344 58.7788 40.9746 58.6772 40.8703C58.5775 40.7651 58.5222 40.6237 58.5267 40.4768C58.5412 40.0743 58.8676 30.5252 59.6229 26.3691C59.6691 26.1207 59.8777 25.9366 60.1288 25.9248C60.146 25.9248 60.515 25.9076 61.1452 25.9076C63.9613 25.9076 70.9227 26.2458 74.7415 29.3856C74.8667 29.4925 74.941 29.6485 74.9383 29.8108C74.9383 29.8761 74.8313 36.3433 72.6653 43.0436C72.6181 43.1887 72.513 43.3065 72.3751 43.3691C72.3035 43.4017 72.2274 43.4189 72.1521 43.4189Z" fill="#2B2B2A"/>
<path d="M65.6533 27.0097C65.6533 27.0097 66.1085 33.2413 64.7022 40.9597Z" fill="#DEB976"/>
<path d="M64.7034 41.4995C64.6698 41.4995 64.6381 41.4959 64.6045 41.4904C64.3126 41.436 64.1177 41.155 64.1703 40.863C65.5484 33.3023 65.1204 27.1125 65.1177 27.0491C65.0941 26.7517 65.3172 26.4933 65.6137 26.4706C65.9147 26.4507 66.1695 26.6737 66.1912 26.972C66.1957 27.0336 66.6337 33.3604 65.232 41.0552C65.1839 41.3173 64.9591 41.4995 64.7034 41.4995Z" fill="#2B2B2A"/>
<path d="M70.697 28.4692C70.697 28.4692 70.649 36.4597 69.2119 41.7573Z" fill="#DEB976"/>
<path d="M69.2113 42.2974C69.1633 42.2974 69.1161 42.2901 69.069 42.2792C68.7816 42.2003 68.6129 41.9048 68.69 41.6174C70.0917 36.4485 70.1561 28.5423 70.1588 28.4653C70.1597 28.1679 70.4009 27.9303 70.6964 27.9303H70.7001C70.9983 27.9312 71.2377 28.1742 71.2368 28.4725C71.2341 28.8016 71.1697 36.5953 69.7308 41.9002C69.6656 42.1405 69.4498 42.2974 69.2113 42.2974Z" fill="#2B2B2A"/>
<path d="M65.5679 34.1667C65.5679 34.1667 64.4826 33.9174 64.1345 33.8195Z" fill="#DEB976"/>
<path d="M65.5675 34.7051C65.5267 34.7051 65.4877 34.7005 65.446 34.6906C65.4016 34.6815 64.3453 34.4385 63.989 34.3388C63.7034 34.2581 63.5347 33.9607 63.6154 33.6742C63.6961 33.3886 63.9935 33.2191 64.28 33.3007C64.6119 33.3931 65.6772 33.6388 65.6872 33.6407C65.9782 33.7059 66.1595 33.9961 66.0924 34.2844C66.0353 34.5346 65.8132 34.7051 65.5675 34.7051Z" fill="#2B2B2A"/>
<path d="M72.1482 35.3901C72.1274 35.3901 72.1056 35.3892 72.0839 35.3856C71.7892 35.3521 71.577 35.0828 71.6115 34.7863C71.9406 31.9856 71.9506 29.3345 71.9506 29.3082C71.9506 29.009 72.1927 28.7697 72.4882 28.7697H72.49C72.7874 28.7697 73.0286 29.0117 73.0286 29.3091C73.0286 29.3372 73.0186 32.0509 72.6832 34.9123C72.6505 35.188 72.4175 35.3901 72.1482 35.3901Z" fill="#2B2B2A"/>
<path d="M67.2596 41.5354C67.2596 41.5354 68.1073 37.9142 68.2805 33.4751Z" fill="#DEB976"/>
<path d="M67.2609 41.7717C67.222 41.7717 67.1793 41.7663 67.1385 41.7572C66.8484 41.6883 66.668 41.3982 66.736 41.1108C66.7441 41.0727 67.5737 37.4814 67.7424 33.1484C67.7551 32.851 68.0026 32.6216 68.3018 32.6307C68.6001 32.6416 68.8304 32.8936 68.8195 33.191C68.6472 37.631 67.8222 41.206 67.7859 41.3528C67.7261 41.6022 67.5057 41.7717 67.2609 41.7717Z" fill="#2B2B2A"/>
<path d="M62.7349 36.3306C62.7204 37.5682 62.5463 38.6109 62.3541 40.5049Z" fill="#DEB976"/>
<path d="M62.3545 41.0449C62.3355 41.0449 62.3183 41.044 62.2992 41.0413C62.0018 41.0114 61.7879 40.7466 61.8169 40.4511C61.8758 39.8771 61.9329 39.3776 61.9828 38.9369C62.1025 37.9069 62.1868 37.1617 62.1977 36.3239C62.2013 36.0292 62.4416 35.7908 62.7353 35.7908H62.7426C63.04 35.7962 63.2793 36.0392 63.2757 36.3384C63.263 37.2297 63.1732 38.0384 63.0536 39.0584C63.0037 39.4963 62.9466 39.9914 62.8904 40.5608C62.8614 40.8364 62.6265 41.0449 62.3545 41.0449Z" fill="#2B2B2A"/>
<path d="M63.1326 26.8028C63.1326 26.8028 63.0945 28.6714 62.9059 31.6008Z" fill="#DEB976"/>
<path d="M62.9063 32.1392H62.871C62.5736 32.1201 62.3496 31.8635 62.3678 31.5643C62.5545 28.6857 62.5917 26.8098 62.5917 26.7935C62.5999 26.4979 62.8392 26.264 63.1312 26.264H63.1421C63.4394 26.2694 63.677 26.5151 63.6706 26.8125C63.6706 26.8315 63.6307 28.7265 63.444 31.6341C63.4249 31.9188 63.1892 32.1392 62.9063 32.1392Z" fill="#2B2B2A"/>
<path d="M57.1135 33.3381C57.0274 33.3381 56.9422 33.3182 56.8624 33.2747C56.8434 33.2647 54.9666 32.2828 54.0327 31.8965C53.758 31.7841 53.6265 31.4695 53.7389 31.1948C53.8504 30.9182 54.166 30.7877 54.4425 30.8992C55.4226 31.3018 57.2849 32.2801 57.3647 32.3209C57.6276 32.4596 57.7301 32.7851 57.5895 33.0498C57.4943 33.2321 57.3067 33.3381 57.1135 33.3381Z" fill="#2B2B2A"/>
<path d="M51.1986 42.864C51.175 42.864 51.1533 42.864 51.1306 42.8604C48.29 42.5041 46.9545 42.7471 46.9427 42.7525C46.6499 42.806 46.3661 42.6138 46.3117 42.3209C46.2573 42.0281 46.4477 41.7461 46.7405 41.6908C46.8022 41.6781 48.2574 41.4124 51.2657 41.7905C51.5604 41.8286 51.7698 42.0979 51.7317 42.3916C51.6982 42.6636 51.4661 42.864 51.1986 42.864Z" fill="#2B2B2A"/>
<path d="M46.5531 47.0178C46.292 47.0178 46.0626 46.8292 46.02 46.5636C45.9747 46.2698 46.1723 45.9942 46.467 45.9489C46.515 45.9389 47.6737 45.7585 51.1753 45.8464C51.4754 45.8546 51.7102 46.1003 51.7021 46.3986C51.6939 46.6978 51.4437 46.9344 51.149 46.9244C47.7825 46.8392 46.6474 47.0106 46.6365 47.0115C46.6075 47.0151 46.5812 47.0178 46.5531 47.0178Z" fill="#2B2B2A"/>
<path d="M48.0684 51.001C47.4464 51.001 47.1572 50.9375 47.1001 50.923C46.81 50.8523 46.6359 50.5603 46.7066 50.2702C46.7782 49.9828 47.0674 49.8096 47.354 49.8767C47.3875 49.8831 48.4066 50.0834 51.0994 49.5884C51.3922 49.5358 51.6742 49.7307 51.7268 50.0209C51.7812 50.3137 51.5863 50.5966 51.2943 50.6492C49.7666 50.9293 48.7294 51.001 48.0684 51.001Z" fill="#2B2B2A"/>
<path d="M76.6732 37.7729H76.6687L74.9732 37.7557C74.6758 37.7539 74.4374 37.51 74.4401 37.2117C74.4428 36.9161 74.6831 36.6786 74.9786 36.6786H74.9859L76.6777 36.6949C76.9751 36.6995 77.2154 36.9424 77.2136 37.2398C77.209 37.5372 76.9688 37.7729 76.6732 37.7729Z" fill="#2B2B2A"/>
<path d="M75.9153 42.2265C75.9153 42.2265 76.7232 39.9327 75.3995 39.4086C74.0775 38.8846 73.4556 41.4967 73.4556 41.4967C73.4556 41.4967 73.3078 41.8784 73.8862 42.0407C74.4475 42.1975 75.7784 42.6318 75.9153 42.2265Z" fill="#2B2B2A"/>
<path d="M51.3296 26.4191L49.7847 26.0764L39.6808 24.3801C39.6808 24.3801 38.8222 26.8825 40.8866 29.4828C43.2004 32.3968 50.4728 34.4214 50.4728 34.4214L51.3296 26.4191Z" fill="#C9B697"/>
<path d="M40.0928 24.9935C39.974 25.7606 39.935 27.4171 41.3095 29.147C43.1084 31.4127 48.2328 33.1653 50.0063 33.7193L50.7416 26.8431L49.6826 26.6065L40.0928 24.9935ZM50.4723 34.9614C50.4233 34.9614 50.3753 34.9551 50.3272 34.9433C50.0235 34.8572 42.8599 32.8353 40.4645 29.8179C38.2414 27.0172 39.1335 24.3181 39.1725 24.2038C39.2577 23.9545 39.5116 23.8022 39.7718 23.8475L49.8748 25.5457C49.8848 25.5466 49.8948 25.5484 49.9011 25.5502L51.4461 25.8948C51.7144 25.9528 51.894 26.2048 51.8649 26.4796L51.0081 34.4818C50.9918 34.6396 50.9057 34.7792 50.776 34.8699C50.6854 34.9306 50.5793 34.9614 50.4723 34.9614Z" fill="#2B2B2A"/>
<path d="M50.6442 31.0898C50.5925 31.0898 50.5417 31.0835 50.491 31.0681L45.6965 29.6356C45.4127 29.5512 45.2495 29.252 45.3338 28.9664C45.42 28.6808 45.7201 28.5167 46.0057 28.6038L50.7992 30.0327C51.0848 30.1188 51.2453 30.4216 51.161 30.7036C51.0921 30.9393 50.8772 31.0898 50.6442 31.0898Z" fill="#2B2B2A"/>
<path d="M75.7476 47.9702C75.7149 47.9702 75.6832 47.9675 75.6497 47.9602C74.9733 47.8369 74.3713 47.5169 74.3468 47.5051C74.0838 47.3646 73.9832 47.0382 74.1237 46.7752C74.2643 46.5132 74.5907 46.4126 74.8545 46.554C74.8663 46.5585 75.3405 46.8079 75.8446 46.8985C76.1374 46.9538 76.3306 47.2322 76.2771 47.5269C76.229 47.7862 76.0042 47.9702 75.7476 47.9702Z" fill="#2B2B2A"/>
<path d="M74.9485 51.1321C74.8642 51.1321 74.779 51.1112 74.7001 51.0713C74.2912 50.861 73.7544 50.6497 73.7481 50.6479C73.4697 50.5418 73.3328 50.2281 73.4398 49.9498C73.5486 49.6742 73.8596 49.5354 74.1379 49.6424C74.1624 49.6524 74.7354 49.8763 75.196 50.113C75.4599 50.2499 75.5641 50.5763 75.4281 50.8392C75.3302 51.0251 75.1425 51.1321 74.9485 51.1321Z" fill="#2B2B2A"/>
<path d="M74.2095 53.9775C74.1741 53.9775 74.1361 53.9748 74.098 53.9658C73.4134 53.8207 72.9311 53.5768 72.9102 53.5668C72.6455 53.4299 72.5412 53.1044 72.6781 52.8388C72.8123 52.5749 73.1369 52.4698 73.4026 52.6067C73.4089 52.6094 73.7861 52.798 74.3219 52.9104C74.6112 52.972 74.7988 53.2604 74.7381 53.5505C74.6828 53.8035 74.4597 53.9775 74.2095 53.9775Z" fill="#2B2B2A"/>
<path d="M56.9351 37.6384C56.9351 37.6384 57.3349 35.2149 55.8525 34.7797C54.3656 34.3454 54.1453 36.0971 54.1308 36.3981C54.1163 36.7 54.0283 37.3755 54.1598 37.6384C54.2876 37.9032 54.4336 38.1761 55.3693 38.332C56.3013 38.4852 56.9088 38.2676 56.9351 37.6384Z" fill="#2B2B2A"/>
<path d="M58.4242 52.8393C59.6546 51.4403 62.7019 51.2209 64.6285 52.2137C67.9288 53.911 64.7247 54.7125 64.2677 55.3979C63.5569 56.4669 62.9349 56.8304 60.8024 55.8141C57.474 54.2292 57.3199 54.1032 58.4242 52.8393Z" fill="#EC6369"/>
<path d="M58.3513 53.8443C58.5027 54.1227 59.8482 54.7628 61.0332 55.3294C61.8075 55.6957 62.376 55.8771 62.7713 55.8771C63.1784 55.8771 63.4232 55.6957 63.8212 55.1009C63.9944 54.8362 64.309 54.6395 64.6726 54.4073C64.9654 54.2224 65.5729 53.8371 65.5657 53.634C65.5638 53.6204 65.5366 53.2876 64.3825 52.6937C63.6898 52.3374 62.8021 52.1407 61.8837 52.1407C60.5717 52.1407 59.4021 52.546 58.8309 53.196C58.7203 53.323 58.3894 53.7011 58.3513 53.8443ZM62.7713 56.9551C62.1974 56.9551 61.5165 56.7547 60.5717 56.3032C58.3631 55.2515 57.4474 54.8126 57.2923 54.0556C57.1681 53.4581 57.6205 52.9422 58.0204 52.4861C58.8019 51.5949 60.2453 51.0636 61.8837 51.0636C62.9708 51.0636 64.0325 51.2993 64.8766 51.7345C66.0507 52.3374 66.6129 52.9259 66.6428 53.5868C66.68 54.4164 65.8866 54.9178 65.2483 55.3195C65.0606 55.4391 64.7769 55.6187 64.7179 55.7012C64.2827 56.3503 63.7442 56.9551 62.7713 56.9551Z" fill="#2B2B2A"/>
<path d="M49.5849 31.001C49.5849 31.001 69.8053 25.1593 79.1957 38.1011C79.1957 38.1011 83.4208 26.8765 67.9195 23.0042C67.9195 23.0042 51.0673 19.2052 49.5849 31.001Z" fill="white"/>
<path d="M59.9239 29.2766C65.8317 29.2766 73.8503 30.6737 79.0264 37.199C79.3338 35.8753 79.7101 33.0102 78.2159 30.166C76.5394 26.9818 73.0415 24.706 67.8191 23.4014C67.8028 23.3959 65.246 22.8311 62.0971 22.8311C57.1993 22.8311 51.2199 24.1702 50.0829 30.4498C51.5263 30.0962 55.3688 29.2766 59.9239 29.2766ZM79.196 38.5137C79.0681 38.5137 78.9439 38.4493 78.865 38.3414C73.9192 31.526 65.8353 30.0953 59.9239 30.0953C54.2681 30.0953 49.742 31.3818 49.6976 31.3954C49.5661 31.4335 49.4229 31.4018 49.3186 31.3138C49.2134 31.2232 49.1617 31.0881 49.1771 30.9503C49.5987 27.5992 51.2552 25.1458 54.1058 23.6561C56.1947 22.5636 58.8839 22.0114 62.0971 22.0114C65.3403 22.0114 67.8998 22.579 68.0095 22.6044C73.4831 23.9698 77.1587 26.3906 78.9457 29.7952C81.1408 33.9831 79.6448 38.0739 79.5813 38.2471C79.5269 38.3858 79.4009 38.4847 79.2504 38.5064C79.2341 38.5082 79.215 38.5137 79.196 38.5137Z" fill="#2B2B2A"/>
<path d="M62.285 36.4422C61.9568 38.2519 61.4074 39.4505 60.4336 40.0743C59.4054 40.7326 57.9058 40.7462 55.6908 40.1441C50.6715 38.776 50.4893 36.4612 51.1312 33.5871C51.6008 31.48 53.0579 29.6277 55.0072 29.3693C55.8576 29.2551 56.7988 29.3503 58.0155 29.7256C62.5679 31.1328 62.9369 32.8554 62.285 36.4422ZM58.0436 28.158C56.9157 27.8098 55.9229 27.6593 55.0081 27.6974C54.8095 27.7065 54.6101 27.7246 54.4142 27.75C51.9962 28.0719 49.9362 30.2324 49.2898 33.1311C48.5789 36.3135 48.6904 39.796 54.9156 41.4905C56.2584 41.8523 57.3763 42.0128 58.3319 41.9738C59.2885 41.9339 60.1271 41.6873 60.8244 41.2421C62.5271 40.1541 63.2044 38.0697 63.4682 36.6018C64.2289 32.4193 63.4827 29.8399 58.0436 28.158Z" fill="#4670B4"/>
<path d="M55.6921 29.7207C55.4736 29.7207 55.2669 29.7343 55.0565 29.7605C53.4127 29.98 51.9911 31.5512 51.5178 33.6719C50.9511 36.2115 50.8804 38.4237 55.7946 39.7602C56.8454 40.0476 57.7085 40.1836 58.4293 40.1836C59.1674 40.1836 59.7531 40.0394 60.2191 39.7384C61.0523 39.2098 61.5682 38.1672 61.8946 36.3738C62.4957 33.0599 62.2999 31.4651 57.898 30.106C57.0612 29.8458 56.3395 29.7207 55.6921 29.7207ZM58.4293 40.976C57.6369 40.976 56.7076 40.8291 55.586 40.5245C50.554 39.1536 50.001 36.8199 50.7435 33.5005C51.2893 31.0553 52.9812 29.2383 54.9532 28.9763C55.8988 28.8484 56.9034 28.969 58.1329 29.3471C62.8666 30.8114 63.3607 32.7408 62.6762 36.5161C62.3062 38.5461 61.6815 39.7484 60.6461 40.4075C60.0477 40.7901 59.3224 40.976 58.4293 40.976ZM55.2877 28.0877C55.1989 28.0877 55.1118 28.0905 55.0239 28.0941C54.838 28.1032 54.6513 28.1168 54.4663 28.1403C52.2123 28.4432 50.2875 30.4813 49.6764 33.2149C48.9719 36.3683 49.1333 39.5045 55.0185 41.1066C56.325 41.462 57.3994 41.617 58.3151 41.5789C59.2009 41.5381 59.9734 41.3142 60.6099 40.9089C62.1757 39.9043 62.8158 37.974 63.0787 36.5306C63.7923 32.5984 63.183 30.1613 57.927 28.5356C56.9487 28.2346 56.0856 28.0877 55.2877 28.0877ZM58.0386 42.375C57.1129 42.375 56.0566 42.2091 54.8117 41.8709C48.2284 40.0802 48.1949 36.2142 48.9012 33.0436C49.5848 29.9863 51.7789 27.6997 54.3629 27.3552C54.5697 27.3289 54.7809 27.3116 54.9913 27.3017C55.9514 27.2618 56.985 27.4195 58.1619 27.7795C60.9027 28.6281 62.5755 29.7306 63.4251 31.2475C64.1749 32.5857 64.3054 34.2096 63.8612 36.6721C63.5692 38.2705 62.8448 40.422 61.0369 41.5753C60.2817 42.0577 59.3768 42.3242 58.3477 42.3687C58.2462 42.3732 58.1428 42.375 58.0386 42.375Z" fill="#2B2B2A"/>
<mask id="mask0_782_16834" style="mask-type:luminance" maskUnits="userSpaceOnUse" x="50" y="29" width="13" height="12">
<path d="M50.8665 29.324H62.5335V40.582H50.8665V29.324Z" fill="white"/>
</mask>
<g mask="url(#mask0_782_16834)">
<g opacity="0.5">
<path d="M58.0145 29.725C56.7987 29.3496 55.8576 29.2544 55.0062 29.3687C53.0569 29.628 51.6008 31.4803 51.1302 33.5865C50.4883 36.4615 50.6705 38.7753 55.6908 40.1435C57.9057 40.7455 59.4054 40.7328 60.4326 40.0737C61.4064 39.4508 61.9567 38.2513 62.284 36.4416C62.9359 32.8548 62.5669 31.1321 58.0145 29.725Z" fill="#C0E5FA"/>
</g>
</g>
<path d="M55.6922 29.721C55.4736 29.721 55.2669 29.7346 55.0566 29.7609C53.4128 29.9803 51.9911 31.5515 51.5179 33.6722C50.9512 36.2118 50.8805 38.4241 55.7946 39.7605C56.8454 40.0479 57.7086 40.1839 58.4294 40.1839C59.1674 40.1839 59.7531 40.0397 60.2191 39.7387C61.0524 39.2101 61.5683 38.1675 61.8947 36.3741C62.4958 33.0602 62.2999 31.4654 57.8981 30.1063C57.0612 29.8461 56.3395 29.721 55.6922 29.721ZM58.4294 40.9763C57.637 40.9763 56.7076 40.8294 55.5861 40.5248C50.5541 39.1539 50.001 36.8202 50.7436 33.5009C51.2894 31.0556 52.9812 29.2386 54.9532 28.9766C55.8989 28.8487 56.9035 28.9693 58.1329 29.3474C62.8666 30.8117 63.3607 32.7411 62.6762 36.5164C62.3063 38.5465 61.6816 39.7487 60.6462 40.4078C60.0478 40.7905 59.3224 40.9763 58.4294 40.9763Z" fill="#252422"/>
<mask id="mask1_782_16834" style="mask-type:luminance" maskUnits="userSpaceOnUse" x="59" y="31" width="3" height="6">
<path d="M59.2596 31.6372H61.4011V36.4136H59.2596V31.6372Z" fill="white"/>
</mask>
<g mask="url(#mask1_782_16834)">
<g opacity="0.5">
<path d="M60.8358 36.4141C60.8013 36.4141 60.766 36.4113 60.7324 36.3996C60.5275 36.3433 60.4078 36.1312 60.4668 35.9272C61.1622 33.4656 59.4549 32.3585 59.4386 32.3477C59.2591 32.2352 59.2056 31.9959 59.3198 31.8191C59.4313 31.6368 59.6689 31.5833 59.8484 31.6976C59.8693 31.7103 62.0552 33.1274 61.2048 36.1357C61.1576 36.3053 61.0044 36.4141 60.8358 36.4141Z" fill="white"/>
</g>
</g>
<path d="M78.87 41.6405C78.6153 43.0595 78.2372 43.9906 77.6062 44.4521C76.9398 44.9381 75.9941 44.8991 74.6133 44.3478C71.4843 43.103 71.4299 41.267 71.9096 39.0139C72.2623 37.3611 73.2288 35.9467 74.4655 35.8043C75.0049 35.7445 75.5979 35.8496 76.3541 36.1869C79.1865 37.449 79.3751 38.8253 78.87 41.6405ZM76.4139 34.9493C75.7112 34.6329 75.0883 34.4833 74.509 34.4833C74.3848 34.4833 74.2597 34.4905 74.1345 34.5051C72.6005 34.68 71.2441 36.3211 70.7608 38.5914C70.2295 41.0856 70.2087 43.8437 74.0883 45.3887C74.9261 45.7205 75.626 45.8828 76.2289 45.8828C76.8346 45.8828 77.3704 45.716 77.821 45.3878C78.9245 44.5827 79.327 42.957 79.5337 41.8055C80.1222 38.5234 79.7985 36.4571 76.4139 34.9493Z" fill="#4670B4"/>
<path d="M74.7584 36.072C74.6704 36.072 74.5843 36.0774 74.4981 36.0874C73.4718 36.2044 72.5443 37.4048 72.188 39.0731C71.6775 41.4667 71.9296 42.9744 74.7194 44.086C76.0114 44.5983 76.8555 44.6463 77.4376 44.2211C77.9716 43.834 78.3379 42.9971 78.589 41.5927C79.1013 38.7467 78.832 37.6024 76.2371 36.4474C75.665 36.1926 75.1954 36.072 74.7584 36.072ZM76.4783 45.0743C75.9334 45.0743 75.2888 44.9238 74.5072 44.6119C71.0356 43.231 71.1825 41.0596 71.6322 38.9543C72.0384 37.0458 73.1653 35.6685 74.4329 35.5244C75.0503 35.4518 75.6859 35.5788 76.4701 35.9278C79.4132 37.238 79.6743 38.7657 79.1484 41.6906C78.8656 43.2709 78.4412 44.1948 77.773 44.6799C77.4113 44.9455 76.9869 45.0743 76.4783 45.0743ZM74.5099 34.7673C74.3957 34.7673 74.2814 34.7736 74.1672 34.7863C72.7546 34.9486 71.4962 36.5008 71.0392 38.6487C70.507 41.1484 70.5206 43.6617 74.1944 45.1223C74.9977 45.4442 75.665 45.5992 76.2299 45.5992C76.7748 45.5992 77.2517 45.4524 77.6533 45.1577C78.6733 44.4133 79.056 42.8584 79.2536 41.7559C79.8293 38.5445 79.531 36.6468 76.2979 35.2079C75.6315 34.9115 75.0476 34.7673 74.5099 34.7673ZM76.2299 46.1677C75.5898 46.1677 74.8545 45.9982 73.9841 45.6527C69.8832 44.0207 69.9594 40.9888 70.4825 38.5327C70.9921 36.1418 72.4464 34.4119 74.1028 34.2224C74.2388 34.207 74.3757 34.2006 74.5099 34.2006C75.1292 34.2006 75.7892 34.3602 76.53 34.6911C80.0687 36.266 80.4123 38.5127 79.813 41.852C79.5972 43.0542 79.1738 44.7515 77.9897 45.6174C77.4883 45.9828 76.8972 46.1677 76.2299 46.1677Z" fill="#2B2B2A"/>
<mask id="mask2_782_16834" style="mask-type:luminance" maskUnits="userSpaceOnUse" x="71" y="35" width="9" height="10">
<path d="M71.6875 35.7886H79.0895V44.79H71.6875V35.7886Z" fill="white"/>
</mask>
<g mask="url(#mask2_782_16834)">
<g opacity="0.5">
<path d="M76.3544 36.187C75.5983 35.8497 75.0053 35.7445 74.4659 35.8044C73.2292 35.9458 72.2626 37.3611 71.91 39.0131C71.4303 41.2671 71.4847 43.1031 74.6136 44.3479C75.9945 44.8983 76.9401 44.9372 77.6065 44.4513C78.2376 43.9898 78.6157 43.0595 78.8704 41.6406C79.3755 38.8245 79.1869 37.4491 76.3544 36.187Z" fill="#C0E5FA"/>
</g>
</g>
<path d="M74.7582 36.0688C74.6702 36.0688 74.5823 36.0742 74.4979 36.0851C73.4698 36.202 72.5386 37.4025 72.1841 39.0725C71.6728 41.467 71.9248 42.9776 74.7164 44.0882C75.4309 44.3711 76.0066 44.5116 76.4781 44.5116C76.8634 44.5116 77.1771 44.4164 77.4419 44.2251C77.975 43.8344 78.3422 42.9975 78.5924 41.5931C79.1047 38.7443 78.8363 37.5992 76.2396 36.4423C75.6657 36.1875 75.1952 36.0688 74.7582 36.0688ZM76.4781 45.071C75.9332 45.071 75.2904 44.9187 74.5097 44.6086C71.039 43.2287 71.1868 41.0581 71.6356 38.9547C72.0427 37.0507 73.1679 35.6725 74.4327 35.5275C75.0501 35.4568 75.6839 35.5819 76.469 35.9309C79.4075 37.242 79.6696 38.7679 79.1446 41.691C78.8599 43.2704 78.4383 44.1898 77.7701 44.6785C77.4083 44.9405 76.9849 45.071 76.4781 45.071Z" fill="#252422"/>
<mask id="mask3_782_16834" style="mask-type:luminance" maskUnits="userSpaceOnUse" x="77" y="37" width="2" height="4">
<path d="M77.0624 37.572H78.436V40.4443H77.0624V37.572Z" fill="white"/>
</mask>
<g mask="url(#mask3_782_16834)">
<g opacity="0.5">
<path d="M78.1539 40.4438H78.1476C77.9907 40.4384 77.8683 40.3078 77.8738 40.1546C77.9146 38.7493 77.1638 38.0693 77.1566 38.0629C77.0396 37.9578 77.0306 37.7819 77.133 37.6676C77.2337 37.5516 77.4114 37.5389 77.5274 37.6432C77.5673 37.6767 78.4821 38.5054 78.4341 40.1691C78.4305 40.3224 78.3053 40.4438 78.1539 40.4438Z" fill="white"/>
</g>
</g>
<path d="M48.9601 34.8668C48.9211 34.8668 48.8822 34.8649 48.8441 34.8568C48.1641 34.7162 47.3544 34.8105 47.0997 34.8595C46.7524 34.923 46.4215 34.6582 46.3634 34.2656C46.3063 33.8721 46.5402 33.5013 46.8902 33.436C46.9355 33.427 48.0371 33.2257 49.0726 33.4388C49.4207 33.5104 49.651 33.8839 49.5894 34.2774C49.5322 34.622 49.263 34.8668 48.9601 34.8668Z" fill="#F0F0F0"/>
<path d="M48.0305 33.7499C47.4403 33.7499 46.9842 33.8342 46.9652 33.8378C46.8346 33.8623 46.7421 34.0337 46.7666 34.2077C46.7902 34.3664 46.9035 34.4797 47.025 34.4571C47.229 34.419 47.6116 34.3764 48.0287 34.3764C48.3587 34.3764 48.6625 34.4036 48.9254 34.4571C49.0433 34.4825 49.162 34.37 49.1874 34.2114C49.2137 34.0382 49.1231 33.865 48.9925 33.8378C48.7042 33.778 48.3814 33.7499 48.0305 33.7499ZM46.9951 35.2749C46.4765 35.2767 46.0422 34.876 45.9597 34.3256C45.8717 33.72 46.2544 33.1415 46.8138 33.0372C46.8718 33.0245 47.3759 32.9321 48.0305 32.9321C48.4367 32.9321 48.8139 32.9701 49.1557 33.04C49.7133 33.1533 50.0896 33.7363 49.9916 34.341C49.9037 34.8832 49.4703 35.2749 48.9599 35.2749C48.8946 35.2749 48.8275 35.2695 48.764 35.2559C48.5519 35.2132 48.3043 35.1915 48.0287 35.1915C47.6425 35.1915 47.3007 35.2368 47.1764 35.2586C47.1166 35.2695 47.0549 35.2749 46.9951 35.2749Z" fill="#2B2B2A"/>
<path d="M70.7728 38.9675C70.6204 38.9675 70.4681 38.9231 70.3321 38.8306C68.1416 37.302 64.0444 36.9185 64.0009 36.9148C63.5793 36.8768 63.2674 36.5041 63.3064 36.0816C63.3444 35.66 63.7153 35.3454 64.1396 35.3835C64.3227 35.3989 68.6829 35.806 71.2116 37.5676C71.5607 37.8106 71.6459 38.2884 71.4029 38.6366C71.2533 38.8515 71.0148 38.9675 70.7728 38.9675Z" fill="#4670B4"/>
<path d="M64.0684 35.7637C63.8726 35.7637 63.7067 35.9188 63.6885 36.1137C63.6686 36.3259 63.8254 36.5136 64.0376 36.5326C64.0784 36.5353 68.2781 36.9279 70.5538 38.5128C70.7233 38.6315 70.9718 38.5844 71.0896 38.4185C71.2111 38.2444 71.1658 38.0032 70.9926 37.8835C68.5428 36.1781 64.2851 35.781 64.1065 35.7665C64.092 35.7637 64.0793 35.7637 64.0684 35.7637ZM70.7732 39.3496C70.5375 39.3496 70.309 39.2798 70.115 39.1438C68.0124 37.6795 64.0077 37.2987 63.9687 37.296C63.3349 37.2398 62.8662 36.6813 62.9233 36.0475C62.9804 35.4138 63.5308 34.9405 64.1745 35.0021C64.3613 35.0185 68.8166 35.431 71.4324 37.2534C71.9537 37.6161 72.0824 38.335 71.7189 38.8555C71.5022 39.1683 71.1495 39.3496 70.7732 39.3496Z" fill="#2B2B2A"/>
<path d="M65.5484 25.2153L64.5556 24.9442C64.5556 24.9442 64.7387 25.0421 64.6553 25.3449L63.9273 28.0151L64.7224 28.2318L65.5484 25.2153ZM65.2274 26.4647L66.0906 28.6289L67.0099 28.88L66.0815 26.6986L67.7833 25.8173L66.9809 25.5979L65.2465 26.4628L65.2274 26.4647ZM73.5887 30.6616L74.4156 27.637L73.625 27.423L72.9359 29.9472L72.0175 29.6951C71.9232 29.6706 71.7727 29.5664 71.8407 29.3143L72.4481 27.0975L71.4635 26.831C71.4635 26.831 71.663 26.9316 71.5795 27.229L71.1017 28.9788C70.8306 29.9707 71.672 30.1376 71.672 30.1376L73.5887 30.6616ZM69.321 29.4956L70.1098 29.7096L70.6819 27.6125C70.9494 26.636 70.1851 26.481 70.1062 26.4538L67.9855 25.8726C67.9855 25.8726 68.1623 25.9977 68.0889 26.2661L67.3554 28.9598L68.1342 29.1711L68.826 26.6387L69.7517 26.8917C69.8378 26.9153 69.9947 27.0295 69.9276 27.2734L69.321 29.4956Z" fill="#D52527"/>
</svg>
